<svg xmlns="http://www.w3.org/2000/svg" width="512" height="512" fill="none">
  <mask id="ivanpla-favicon-mask" width="513" height="508" x="0" y="2" maskUnits="userSpaceOnUse" style="mask-type:alpha">
    <path fill="#D9D9D9" fill-rule="evenodd" d="M512 197.07c-11.53-11.82-27.13-20.28-47.36-20.28-27.47 0-46.23 15.58-58.5 33.31-11.76 16.98-19.45 38.43-25.45 56.8-1.66 5.08-3.18 9.88-4.62 14.44-4.24 13.39-7.77 24.57-11.93 33.63-2.08 4.5-3.77 7.23-4.96 8.77a.98.98 0 0 1-.45-.5l-.13-.2c-1.35-1.97-2.97-6.4-3.65-13.86-.65-7.02-.28-14.48.34-20.47a128.06 128.06 0 0 1 1.23-8.78l.04-.24.03-.15v-.04c.13-.61.23-1.23.3-1.84a106.26 106.26 0 0 0 1.44-33.29c-2.77-23.09-14.17-45.55-36.1-58.22-21.93-12.66-47.08-11.3-68.47-2.15-21.37 9.14-40.52 26.48-53.6 49.12l-.48-.76c-9.15-14.4-23.28-27.9-45.36-30.97-27.61-3.83-47.4 9.23-60.82 25.66-11.5 14.08-20.05 32.7-27.03 47.9l-1.35 2.93c-8.06 17.5-14.45 30.49-21.92 38.78-3.4 3.75-6.22 5.6-8.57 6.5-2.13.82-5.2 1.38-10.12.39l-.61-.12c-7.11-1.63-14.56-7.2-16.4-21.41-2.09-16.23 3.4-45.12 32.14-88.01A23.9 23.9 0 0 0 0 187.29C31.25 80.66 133.44 2.5 254.68 2.5c124.92 0 229.6 83 257.32 194.57ZM500.99 348.6c-.02-.63 0-1.25.02-1.88v-.04l.01-.22.03-.6.02-.45c.03-.95.08-2.39.11-4.25.08-3.73.11-9.13-.05-15.63-.32-13.1-1.42-30.21-4.42-47-3.07-17.2-7.78-32.02-14.12-41.94-5.87-9.16-11.44-11.99-17.94-11.99-6.5 0-12.35 2.83-19.2 12.71-7.36 10.64-13.29 26-19.3 44.43-1.23 3.75-2.47 7.69-3.75 11.73-4.45 14.12-9.28 29.42-14.8 41.45-3.65 7.93-8.5 16.59-15.33 23.5-7.3 7.4-17.61 13.43-30.76 13.43h-.2c-18.84-.06-33.22-8.72-42.19-21.86a56.34 56.34 0 0 1-2.09-3.3 106.26 106.26 0 0 1-28.07 17.85c-14.69 6.28-31.15 8.9-47.13 5.8-1.05-.1-2.1-.28-3.15-.53-21.76-5.23-35.93-19.12-45.46-34.01-8.95-14-14.82-30.55-19.53-43.85l-.18-.5c-5.22-14.7-9.13-25.52-14.16-33.43-4.43-6.96-7.86-8.75-11.6-9.27-6.25-.87-10.85.75-17.22 8.54-7.53 9.22-13.8 22.82-21.97 40.59l-.11.24c-7.33 15.9-16.55 35.93-29.74 50.55-6.98 7.74-15.78 14.84-26.94 19.13-10.25 3.93-21.27 5.01-32.8 3.3 43.75 82.13 132.88 138.38 235.72 138.38 111.98 0 207.7-66.69 246.3-160.88ZM58.79 160.53a23.9 23.9 0 1 0 0-47.81 23.9 23.9 0 0 0 0 47.8Zm213.77 67.43c-10.99 4.7-22.6 14.53-31.01 29.1-8.42 14.57-11.12 29.54-9.7 41.4 1.43 11.87 6.58 19.08 12.54 22.52 5.96 3.44 14.78 4.3 25.76-.4 11-4.7 22.6-14.52 31.02-29.1 8.41-14.57 11.12-29.54 9.7-41.4-1.43-11.87-6.58-19.08-12.54-22.52-5.97-3.44-14.79-4.3-25.77.4Z" clip-rule="evenodd"/>
  </mask>
  <g mask="url(#ivanpla-favicon-mask)">
    <path fill="url(#gradient-primary)" d="M-9.84 2.5H1103.3v506.98H-9.84z"/>
  </g>
  <defs>
    <linearGradient id="gradient-primary" x1="-9.84" x2="1103.3" y1="255.99" y2="255.99" gradientUnits="userSpaceOnUse">
      <stop stop-color="#00A2C6"/>
      <stop offset=".5" stop-color="#C247FF"/>
      <stop offset="1" stop-color="#F34C56"/>
    </linearGradient>
  </defs>
</svg>
