<svg xmlns="http://www.w3.org/2000/svg" viewBox="0 0 834 65" class="bg-hero-mask" aria-hidden="true">
  <mask id="bg-hero-mask" width="834" height="65" x="0" y="0" maskUnits="userSpaceOnUse" style="mask-type:alpha">
    <path d="M0 0h834v65H0z"/>
  </mask>
  <g mask="url(#bg-hero-mask)">
    <path d="M860.9 2c-2.2.3-2.5 1.8-.4 1.8 1.5 0 3.9-1 3.9-1.8 0-.3-.4-.3-3.5 0Zm31.7 1.4c-.5.7 2 1.8 3.3 1.4.6-.2 1-.7 1-1 0-1-3.6-1.2-4.3-.4Zm-26.5 1.4h2c.7-.1.3-.3-.8-.3-1 0-1.6.1-1.1.3ZM142.9 1.5c-.2.3-.1.6.3.6.3 0 .8-.3 1-.6.3-.3.2-.5-.2-.5s-.9.2-1 .5Zm723.5 6.6c0 .4.4.6.8.5 1.2-.3 1.4-1.3.2-1.3-.5 0-1 .3-1 .8Zm59.9 1.5c-.8.4-.7.5.6.5 1 0 2.6-.2 3.7-.5 2-.3 1.9-.4-.7-.4-1.4 0-3 .1-3.6.4Zm-6.2.9h1.7c.4-.2 0-.3-.9-.3s-1.2.1-.8.3Zm8.8.1c0 .3 1.2.7 2.6.9 4.4.6 4.1 1.6-.4 1.3-2.1 0-4.8.1-5.9.4a87 87 0 0 1-7 1.5 47 47 0 0 0-7 1.7c-1 .4-3.2.9-4.7 1-4 .5-4.5 1.8-.5 1.9 1.8 0 2.8-.2 2.6-.6-.3-.3.2-.5 1-.6 3-.1 3.6-.2 6-.7 2.6-.5 3.2-.6 4.8-.7.6 0 1-.4 1-.7-.2-.8 6.5-1.9 11.6-2 4 0 6.2-1.3 5-2.8-.6-.8-1.6-1-5-1-2.2 0-4 .2-4 .4Zm-13.5.4-3.9.3c-2 .2-4.3.6-5 .9-1 .5-.6.5 1.8.3 5.7-.5 8.6-.9 9-1.3.2-.3-1.4-.6-1.9-.2ZM116.8 9c-.2.3-1 .4-1.7.2-1-.2-1.2 0-1 .4.5 1-3 2.6-4.6 2-2.1-.7-3-.6-3 .3 0 .5.4.8 1 .8.5 0 1 .3 1 .6s-.5.5-1 .5c-.6 0-1 .2-1 .5s-1.3.5-2.7.3c-1.5-.1-2.7 0-2.7.3s.3.5.7.5c.3 0 .6.6.6 1.4 0 .7.3 1.3.7 1.3.9 0 .8 2 0 2.5-1.1.5-2.7-.8-2.7-2.3 0-1.5-1-1.7-1.9-.4-.5.9-.7.9-1.6 0-1-.7-1-.8-.1-1 .5-.3 1.3-1 1.6-1.8.4-.7 1.1-1.3 1.6-1.3 1.7 0 1.9-1.6.3-1.8-1.5-.2-1.5-.2.2-.8 1.6-.5 1.6-.5.2-.9a6 6 0 0 0-2-.2 6 6 0 0 1-2-.3c-1-.3-1.8-.1-2.8.7l-1.4 1h2.7c2.8.1 3.4 1.1.9 1.7-1.2.3-1.7 1.3-1.7 3.5 0 .6-.3 1.4-.7 1.7-.4.4-.6 1-.4 1.2.2.2 0 1-.6 1.7-.7 1-1 1.2-1 .4 0-1.2-2.6-1.3-2.6 0 0 .4-.3.6-.7.4-.4-.2-.7 0-.7.3 0 .4.6.5 1.4.4.7-.2 1.3-.1 1.3.1 0 .8-3.7 1-7.7.6-4-.5-5-.2-5 1.4 0 1.1 1.3 1.3 3.3.5 2.8-1 3.7-.4 2.8 2-.5 1-.6 2.3-.4 2.7.3.6.1 1-.4 1-1 0-4.3-2.2-4.1-2.7 0-.2-.1-.4-.5-.5-.4-.2-.7 0-.7.4 0 .3-.7.5-1.6.5-1.7 0-2.3-.8-1-1.2.6-.1.7-.7.4-1.7l-.5-1.5-3 2.7c-3 2.7-4.3 3.2-6.5 2.4-1.5-.4-1.4-1 1-3 2-1.7 2.3-3 .5-2.7l-2.9.4c-1.7 0-2 .3-1.8 1.5.2 2-1.6 1.3-2.1-.8-.2-.9-1-1.8-1.6-2-.6-.2-1.5-.8-2-1.3-1.2-1.4-5.2-1.4-5.6 0-.3.8 0 1.1.9 1.1.7 0 1.2-.2 1.3-.5 0-.3.5-.2 1.1.3l2.4 1.5c1.7 1 1 2.5-1.6 3.3-2 .6-2.8 2-1 2 1.7 0 .9 1.7-1.1 2.2-.9.3-1 0-1-1.4 0-1.3-.2-1.7-1.4-1.9-1.1 0-1.4-.4-1.2-1 .3-.7-.1-1.3-1.3-1.8-1.4-.6-2-.6-4.1.3-1.4.5-2.2 1-1.7 1.2.5.1.8.7.8 1.3 0 .6.5 1 1.4 1 1.8 0 1.3 1.3-.6 1.5-1.6.2-2 1.5-.6 2 .6.1.5.4-.2.8-.8.4-.6.6 1.2 1 1.5.2 2 .5 1.5.8-.5.4-1 .4-1.6 0-.5-.4-1.4-.6-2-.4a15 15 0 0 1-5-.6c-3.7-1-5.8-2-4.2-2 .5.1.7-.2.4-.5-.3-.4-.6-.4-1.2 0-.4.3-1.2.6-1.8.6-1.5 0-2.5-1.2-1.4-1.5.6-.2.6-.5.2-.9-.7-.7-.2-3.6.6-3.6.3 0 .4-.5.2-1-.3-1.2-1.9-1.5-3.2-.8-.4.3-1 1.5-1.6 2.7-.5 1.3-1.2 2.3-1.5 2.3-.3 0-.6.3-.5.7a3 3 0 0 1-.4 1.7c-.7 1.2 1.3 3 3 2.7 1.5-.3 1.7.6.6 2.9-.6 1.2-.9 1.3-1.3.7a1 1 0 0 1 .1-1.4c.5-.5.5-.8-.2-1-7.7-2-13.9-3.1-16-2.8-.6.1-1.2 0-1.2-.4 0-.3.5-.4 1-.2 1.2.3 1.3-.3.2-1.3-.7-.6-.7-.7 0-.3 1 .4 1.2-.6.2-1-.3-.2-2.2 0-4.1.2-6.5 1-9 1.1-11 .3-1.6-.7-1.7-.8-.5-1.1 3.9-1 9.2-1.4 10.3-.9 1.5.7 4 .8 4 .1 0-.2 1.5-.2 3.3.1 2.4.4 3.8.4 4.8 0 1.4-.6 1.4-.6.2-.5-1 .1-1.3-.2-1.2-1 .2-.9-.4-1.3-3.1-2-4.4-1.4-9.8-1.6-10.9-.4-1.1 1.2-3 1.6-3.6.8-.7-1-4.2-1.5-5.7-.8-1.7.7-3.2-.4-2.7-2.1.5-1.5-.5-1.7-3.3-.5-2.6 1-3.7 1-3.7-.3 0-.6-.3-1-.7-1-.4 0-.7.5-.7 1.2 0 1.1-.2 1.2-2.8 1l-3.6-.1c-.5 0-.7-.4-.5-.9.3-.4.2-.8-.1-.8-5.7-.5-7.7-.5-7.4.1.1.4 1 .7 1.9.7 1.6 0 4.5 1.3 4.5 2 0 .3-.8.5-1.8.5s-2.2.2-2.6.5c-.4.3-1.8.6-3.1.7-1.4 0-2.5.4-2.5.7 0 .5-.6.4-2-.3-2.5-1.2-2.5-1.7.2-1.7h2.2l-1.7-1-1.6-1.1 2.5.3c3 .4 3.3-.5.5-1.4-1.8-.7-2.8-1.7-1.5-1.7.3 0 .6-.5.6-1 .1-.7-.2-1.1-.7-1.1-.5 0-1.4-.5-2-1.1-1.2-1-1.2-1.1 0-1.5.7-.2 1.3 0 1.5.3.4 1 1.4.7 1.3-.5-.1-1-.4-1-3.1-.7-1.7.1-3.3.5-3.7.8-.3.2-1.5.4-2.5.4-2.6 0-2.3.9.5 1.7 1.2.3 2.3.8 2.3 1.1 0 .3.7.5 1.5.5 1.3 0 1.3.1-.4.8-1 .5-2.4.8-2.9.8s-.9.3-.9.6.6.5 1.3.5c.9 0 1.4.4 1.3 1 0 1.4-3.4 2.3-6.8 2-1.3-.2-3.2 0-4 .2-1.6.4-1.7.3-2-1.8-.5-2-.3-2.3 1.6-3.6 2-1.5 2-2.2-.2-2.2-.9 0-1.2.3-1 .8.3.6 0 1-1.1 1.2-1 .1-1.5.6-1.3 1 .2.4 0 .9-.4 1-.6.3-.6.6 0 1.2 1.2 1.2-1 2.4-3.5 1.8-2.4-.6-2.4.1-.2 1.4 1 .5 2.7.8 4.3.8a7 7 0 0 1 3.6.6c.7.4 2.2.7 3.4.6 3-.2 5 .4 5 1.4 0 .8-1.8 1-2.4.2-.2-.3-1-.3-1.8 0-.8.2-2.3 0-3.3-.2-2.2-.7-3-.2-1.9 1 1 .9 1 .9-1 1.7-1.3.6-1.2.7.8 1.3 1.6.4 2.2 1 2.2 1.9 0 1-.4 1.2-2.3 1.2a13 13 0 0 0-4.2.8c-1.1.5-2.2.7-2.5.5-.2-.2-.4 0-.4.3 0 .8-7 1.4-8.2.7-.6-.5-1-.5-1.6 0-.4.3-.6 0-.3-.9.4-1.6-.8-1.8-3-.5-1.4.7-2 .7-4.4.2a21 21 0 0 0-3-.6l-2.2-.5c-1.8-.6-5.6.3-10.6 2.4-1 .4-2.8.7-4.1.7-1.3 0-3 .4-3.8 1-1.8 1.3-3.1 1.4-5.7.6-1.3-.4-2-.4-2.6 0-.5.3-1.7.6-2.6.6-1.9.1-2.4.7-1 1.1.5.2 0 .7-1.3 1.3-1.2.5-2.2 1.2-2.2 1.4 0 .2-.6.4-1.4.4-1.8 0-1.5 2.2.5 3 .8.3 1.9 1 2.5 1.3 1.5 1 3 0 1.8-1.2-1.9-1.9.8-2.5 4.6-1.2 1.7.6 2.2 1.1 2.3 2.2 0 1.4-.1 1.4-2.1 1.1-1.3-.2-2.3 0-2.6.3-.4.5 0 .6 1 .4 1-.2 1.3 0 1.3.5 0 .6-.6.7-3.1.4-1.8-.2-3.4-.5-3.8-.8-.7-.6-2.5 0-2 .6.2.3-.3.4-1.3.1-1-.2-1.7 0-1.7.2 0 .6-3 1.8-4.5 1.7-1.5 0-.3-.9 1.5-1.2 1.2-.2 1.2-.2.1-.6-1.8-.7-5 .6-4.7 1.9.3.8 0 1-1.4 1-1 0-2 .4-2.2.8-.3.7-1 .8-3.1.5-2-.2-2.5-.2-1.7.3.5.3 2 .5 3.2.5 1.7 0 2.1.2 1.8 1l-.4 1-3 .5c-2.2.3-3.4.1-4.7-.5-2-1.2-2-1.8.2-2.2 1.2-.3 1.5-.5 1-.8-.5-.2-.6-.8-.4-1.3.2-.5.1-1-.3-1s-.7-.2-.7-.5.4-.5 1-.5c1 0 1-.2.3-.8-1.3-1.3-2.2-1-1.9.7.4 1.9-1.1 3.1-4.3 3.6-2 .3-2.5.2-2.5-.5 0-.5-.4-.9-1-.9-.5 0-1 .2-1 .5s-1.3.6-3 .7l-3 .1v-2c0-1.7-.1-2-.8-1.6-.5.3-1.5.4-2.3.3-.9-.2-1.5-.1-1.5.2 0 .4-.6.7-1.3.6-1 0-1.4.4-1.4 1.7 0 .9-.4 1.6-.8 1.6-.5 0-.1.3.8.6 1.4.3 1.1.4-1.2.3-3.6-.1-4.9 1-2.3 2.2 1.8.7 3.7.9 4.4.3.7-.6 5.3-1.7 7-1.7.7 0 1.4.2 1.4.5s.5.6 1 .6c.8 0 .9.2.3 1-.4.6-1.1 1.1-1.6 1.1-1.7 0-1.8 1-.3 2.7 1 1.2 2.2 1.7 4.5 2 2.5.3 2.8.5 1.7.9-1.1.4-1.3.9-1.1 2.6.2 2.4-.2 2.6-2 1.2-1.2-.8-1.3-.8-1.7.9-.5 2-1.8 2.6-3.2 1.7-.7-.5-1.3-.5-2.3 0-1.8.7-1.8 1.3 0 2.3 1 .6 1.1 1.1.8 2.4-.2 1-.8 1.7-1.2 1.7-.4 0 0 .4.8 1 1.2.6 1.4 1 .7 1.5-.6.7-.4 1 1.3 1.4 1.2.3 2 .8 1.7 1.1-.2.3.1.9.8 1.3.7.4 1 .8.9 1l-2.5 1.3c-2.4 1.4-6.4 1.6-7.8.4-.8-.6-.7-.8.6-1.3 2-.7 3.4-2.6 2.3-3.1-1.1-.6-6-.3-7 .4-.5.3-1.7.4-2.8.2-1.3-.2-2 0-2.6.7-.6.9-5.5 2-7 1.7-.3 0-.5.2-.5.6 0 1 6.5 3.9 7.7 3.5.6-.2 1.7 0 2.4.4.7.5 1.8.7 2.4.5.6-.2.8 0 .5.3-.6.8.9 1.5 1.8.7 1-.9 5.5-.7 6.5.3a3 3 0 0 0 1.7.8c.5 0 1.1.4 1.3.8.4 1 4.3 1.2 4.3.3 0-.3-.6-.5-1.3-.5-.7 0-2-.5-2.8-1l-1.6-1.1 3.1.3c3.5.3 4 0 4.2-3.2.1-1.4-.2-2.3-.8-2.6-.8-.4-.7-.5.4-1 1-.5 1.9-.5 3.2 0 1.1.5 1.9.5 2.2.1a4 4 0 0 1 1.6-.9c1.2-.3 1.6-1.4.5-1.4-1.3 0 1.8-2 3.7-2.4 2-.4 6.3 1 6.3 2.3 0 .8-2.2 1.7-4.3 1.7-1 0-1.7.2-1.7.5s-.6.6-1.4.8c-.7.1-1.3.5-1.3.8 0 .3.6.6 1.3.6.8 0 1.4.4 1.4.8s.4.9 1 1c.5.2 1 .7 1 1.2 0 1-4.3 1.1-5.3 0-1.3-1.2-3.4-1.4-3.4-.3 0 1.1 2 2.7 3.4 2.7 1.1 0 3.1 1.6 2.1 1.7-1 0-2.7.4-4.2.7-1.8.5-1.2 1.4.7 1 1.2-.2 1.3 0 .9 1.2-.4 1-.2 1.4.6 1.4 2 0 1 .9-1.8 1.4-2.4.5-4.8.6-7.7.2-.4 0-1-.7-1.3-1.6-.5-1.3-1-1.5-2.6-1.3-1.5.2-2 0-2.6-1.2-.7-1.2-1.1-1.3-3.2-1-1.6.2-2.7 0-3.5-.5-1.7-1.3-5-1.6-6.5-.8-1.8 1.1-2.2 1-1.8-.3.3-1 .2-1.1-1.6-.8-1.3.2-3 0-4.5-.5-3.3-1.2-3.3-1.1-1.4 1 1 1 1.7 2.2 1.7 2.7 0 1 1.5 1.2 2.6 0 1-.8 2.7-1 2.7-.3 0 .3-.5.8-1 1.2-1.2.8-1.3 2.2-.2 3.1.9.8 3.3 1 4.2.2.9-.7 4-1 4.2-.3l.8 1.5c.4.6.1 1.3-1 2.5-1 .9-1.8 1.9-1.8 2.3 0 .4-.6.5-1.8.3-1.7-.4-1.8-.3-.6.4 1.5 1 1.2 1.5-3.1 4.7-3.2 2.4-2.2 3 2 1.2 3.7-1.5 4.8-1.5 4.8-.2 0 1.5 3 3.3 4.7 3 1-.3 1.2-.5.5-.9s-.7-.5 0-.8c.8-.2.8-.3 0-.7-1.3-.7.9-2.3 3.1-2.3 1.8 0 5 2 5 3.2 0 .9 3.4 1.8 5.4 1.3 1.9-.4 3 .4 4 3 .6 1.1 1.8 1.2 2.3.1.3-.6 1-.7 3.2-.4 2.2.2 3 0 3.2-.5.2-.5 1.6-1 3.1-1.2 1.5-.2 2.7-.5 2.7-.8 0-.2.7-.4 1.5-.4 1.5 0 1.5 0 .2.7-1.2.7-1 .8 2 .8 3.3 0 14.3 1.5 12.2 1.6-1.1 0-2 1.6-2.2 3.6 0 .6-.8 1.6-1.7 2.3-2 1.4-1.7 1.7 1.8 2.1 1.8.2 3.4 0 4.8-.5 2.5-1 4-1.1 4-.3 0 .3.4.5 1 .5.5 0 1 .3 1 .6s.3.5.6.5c.4 0 .2-.6-.4-1.4-1.3-1.6-7.5-4.2-8.5-3.5-.8.7-1.7.6-1.7 0 0-.4.3-.5.6-.3.3.1.8-.1 1-.6.4-.7 1-.8 4.3-.5 3.6.4 8.7 1.9 8.7 2.6 0 .2-.6.5-1.4.7-1.2.2-1.4.4-.7 1 .6.4 1.1.4 2.4-.1 1-.4 2-.6 2.5-.4 1.4.4 2.2.3 2-.2-.2-.7 1-.6 2.6 0 1.3.7 1.3.7-.3 1.8-2.1 1.3-2.5 3.5-.5 2.6 1.6-.7 3.2-.2 3.6 1.1.3 1.1 3.8 1.6 3.8.6 0-.9 1.3-.7 1.7.3.2.4 0 1.2-.7 1.8-1.7 1.5-1.3 1.7 2.8 1.4l3.8-.3-1.5 1.1c-.8.6-1.9 1.1-2.4 1.1s-1.4.4-2.2.8c-1.2.7-1.1.8.7.5 2.8-.3 5.3.9 5.5 2.6.1 2 1.3 3.7 2.3 3.7.5 0 2.5-.5 4.5-1.2 4.6-1.5 12-1.4 12 .2 0 1 2.5 2 5.2 2 1.6 0 2 .2 1.9.8-.4 1 .9 2 2.2 1.8.8-.2.8-.2 0 .3s-.9.8-.3 1.6c.6.8.6 1.2 0 1.7-.5.4-.4.6.4.6s1.1.4 1.1 1.3c0 1.3 2 2 2.1.9l.2-1c0-.2.7-1.1 1.5-2 1.3-1.5 1.5-1.5 4.1-1 2.8.6 6.4.4 5.8-.3-.6-.9 3.7-1 8.2-.3 3.2.5 5.8.6 8.4.3 2-.3 4-.3 4.4-.2.3.2 1.2.1 2-.2.8-.4 1.8-.4 3 0 1.1.4 2.3.7 2.6.6.4 0 .5 0 .2.2-.2.2 0 .7.5 1.2 1.1 1 1.9 1 1.4 0-.4-1 .7-1.4 2.9-1 1.3.4 1.5.5.7 1a15 15 0 0 1-5.2 1.8c-.5 0-.7.2-.5.6.2.3 1 .4 1.9.2 1.4-.4 1.4-.4 0 .5-.7.4-1.1.8-1 .9l4.8.2c3 0 4.7.4 5.5 1 .7.6 1.6 1 2.1 1s1 .3 1 .6c0 .2-.5.5-1 .5s-1.5.8-2.3 1.9l-1.4 1.9h4.3c2.7-.5 9 0 10.9.9 1.6.8 2.2.9 2.8.4.7-.5.6-.7-.2-.7-1.5 0-2.1-1-1.2-1.9.5-.5 1.2-.6 1.9-.3 2.5 1 5.4 1.6 5.4 1 0-.5 3.2-.3 6.4.4l4.7.6c4.7.6 5.7.9 5.3 1.7-.3.5.5.6 3.4.4 3-.2 4.5 0 7.1 1 2.3.8 5 1.3 8.8 1.4 6.1.2 7.3.6 6.1 1.7-.6.6-.5.8.7.8 1.7 0 1.8.9 0 1.6-.7.3-1.3 1-1.3 1.4 0 .7.4.8 2.3.6 1.3-.2 2.4-.1 2.6.2.3.3 0 .6-.4.6-.5 0 .5.3 2.1.5l3 .4h-3.1c-1.7 0-3.3-.1-3.5-.4-.3-.3-.8-.6-1.2-.6-.3 0 1.3 1.6 3.7 3.5 3 2.4 4.3 3.8 4 4.4-.5 1-.3 1 6.6 1 2.2 0 4-.2 4.3-.5.3-.3 1.4-.9 2.5-1.2 1.5-.5 1.7-.7 1-1.1-.9-.5-.9-.5 0-.5.6 0 1.4.2 1.8.6.5.4 1.3.4 3 0 2.4-.6 3.6-.6 3.3.2-.1.2.5.3 1.5.2 1.2-.2 1.8 0 2 .7.3.9.6 1 2.2.4 1-.4 2-.9 2.2-1.2.3-.2 1-.3 1.5-.1 1 .3 1.4 2.2 1.2 5.6 0 .3.4.5.9.4.5-.2 2.6 0 4.6.4 2.8.4 3.9.9 4.1 1.6.3.9 1 1.1 3.4 1.2 4.1 0 6 .3 8.7.8 1.7.3 2.1.2 1.8-.2-.3-.4-.2-.6.2-.6s.8.2 1 .5c.3.3 1 .6 1.8.6s1.2-.3.9-.7c-.4-.4 0-.5 1-.2 4.4 1 10.6 1.6 11.6 1.1 1-.4.3-.8-3-2-2.1-.8-3.8-1.7-3.5-2 .5-.8 4.3-.6 8.7.3 2.1.5 4.6.8 5.5.8 1.6 0 1.6 0 .4-.7-.6-.5-2.7-1.2-4.6-1.8-5.1-1.3-5.4-2-.7-1.5 2.2.3 5.5.4 7.3.4 1.8 0 5 .3 7 .7 3.2.7 3.6.7 5.1-.2 1.5-1 1.5-1 .4-1.6-1-.6-.9-.6.6-.3 1 .2 3.2.5 4.9.6 2.6.4 3 .6 3 1.7 0 1.2.2 1.3 2 1.2 1.6-.1 2.3-.5 2.5-1.3.2-.8 0-.9-.6-.4-.5.3-1.5.7-2.1.8-1 .3-1 .2-.5-1 .5-1 .5-1.6 0-2a1 1 0 0 1 0-1.4c.5-.6 1.2-.6 4.1 0l5.6.9c1 .1 2.5.5 3.3.8l3.1 1c1.6.5 1.8.9 1.8 2.5 0 1.5-.3 2-1.3 2.3-2 .4-1.7 1 1.1 2 3.6 1.3 8.4 2 9.8 1.3 1-.5 1-.6-.6-1.5-1.3-.7-1.5-1-.8-1.2a6 6 0 0 1 2.5 0c1 .2 1.3.1 1-.3-.7-1 1.6-.8 4.5.2 1.3.5 2.7 1.3 3 2 1 1.4 2.2 1.3 4-.3 1-1 2.2-1.4 5.9-1.6 2.5-.2 5.7-.6 7.2-1 1.4-.2 4.7-.5 7.1-.4 2.5 0 4.5-.2 4.5-.4 0-.5-2-1-7-1.4-3.6-.4-7.6-1.4-7.6-2 0-.2-.6-.5-1.4-.7-.7-.2-1.2-.6-1-1 .3-1 6.3-1 8.7 0 1 .3 2.2.5 2.6.3.4-.2.4 0 .2.3-.3.4.2.7 1.4 1 1 .1 3 .6 4.5 1 3.2 1 4.4 1 3 .3-.8-.5-.3-.5 1.6-.2 1.5.2 3 .8 3.6 1.4.5.6 1.3 1 1.9.8.6-.2 1.4 0 2 .3.4.3 1.4.5 2.2.3a100.4 100.4 0 0 0 26.3 1.6c1 0 4.3 0 7.2.3 3 .3 6 .3 6.7.1 1.3-.4 1.3-.4 0-.5h-1.8c-.7 0-.6-.6 0-1.5.7-.9 6.7-2.3 7.2-1.7.4.6 7.6.6 7.6 0 0-.2.7-.6 1.5-1l1.5-.5-1.7-.1c-2.7-.3-2.9-.3-5-1-1-.3-3.9-.7-6.2-1-4.5-.3-6.5-1-4.4-1.7.6-.2 2.8 0 5 .5 2.3.6 4 .7 4.3.4.4-.3.3-.5-.2-.5-.4 0-.7-.2-.4-.5a338.3 338.3 0 0 1 50.8 2c1.6-.2 2.4 0 3 .8.9 1 2 1.1 9.5 1.3 4.6 0 8.7.2 9 .4.2.1 3.7.3 7.6.3 4 .1 7.9.3 8.7.6.8.2 1.6.2 1.8 0 .5-.6 4-.3 6.6.5 1 .3 1.7.4 1.7.1 0-.4 7.4-.2 13.2.3 2.5.2 3.5.2 3.5-.3 0-.4.5-.5 1.3-.4 1 .2 1.3 0 1.3-.5 0-.6.5-.7 1.8-.5 1 .3 1.5.2 1.3-.2-.3-.3-1.2-.5-2-.5-.9 0-2-.4-2.4-.9-.4-.4-1.9-.8-3.4-.8-1.6 0-2.5-.2-2.2-.5.2-.3 0-.6-.6-.6s-1-.2-1-.5c0-.6 1.3-.4 4.8.4.7.1 1.5 0 1.8-.5.5-.6 1.1-.6 3.6.2 2.4.7 3.1.7 3.7.2.9-.8 10-1 10-.2 0 .3-.7.6-1.5.6-1.4 0-1.4 0 .1.4 1.4.4 24 .5 58.3.4 3.3 0 6.7.2 7.7.5s1.9.4 2 0c.1-.2 2.6-.5 5.4-.5 2.8 0 5.2-.2 5.2-.4s2.4-.3 5.4-.2c3 0 7.4-.2 9.7-.6 2.3-.4 6.5-.8 9.4-.7 2.8 0 7.8-.3 11-.8l11-1c2.8-.1 7-.5 9.4-.8 10.6-1.3 28-2.5 27.3-1.8-.7.5-11.9 2.4-18 3l-42.6 3c-2.6 0-8 .9-8.5 1.2a485.1 485.1 0 0 1 41.6.2c1.1.4 1.4.3 1-.4-.3-.7.7-.8 7.4-.6 4.2.1 7.7 0 7.7-.2 0-.3.5-.5 1-.5.6 0 1-.2.7-.5-.5-.7 3.3-1.3 7-1.1 2 0 3.4-.2 4-.7.6-.6 2.7-.8 10-.7 5.2 0 9.5-.1 9.8-.3.2-.2-2-.4-4.7-.4-6-.1-6.2-.1-6.7-.6-.2-.1 1.3-.3 3.4-.4 2 0 4.7-.4 6-.8 3-1 12.4-2 19.5-2 3 0 6.3-.4 7-.7.8-.4 4.8-.8 9-1a143 143 0 0 0 23.4-2c3.2-.8 9.8-1 9.8-.2 0 .3-.5.6-1.1.7-1.1.3-1.1.3 0 .3.6 0 1.4-.3 1.6-.8.3-.6.5-.6.9-.2.3.5 1.3.5 4.3 0 2.1-.3 4.9-.4 6-.3 1.3.2 2.4.1 2.6 0 .5-.7 6.9-.8 7.3-.1.3.3.2.5-.2.5s-.7.4-.7.8c0 1.1 2.2 1.1 3.3 0 .7-.7.7-1 0-1.3-.5-.2.4-.4 2-.4a93.6 93.6 0 0 1 13-.6c3.9 0 7.1-.2 7.3-.5.2-.2 1-.3 1.7-.1.7.1 1.7 0 2.3-.4.6-.4 2.2-.6 4-.4 1.6.1 3 0 3-.2 0-.3.5-.5 1-.5.6 0 .9.3.6.7-.7.9 3 .2 7.6-1.4 2-.7 5-1.5 6.4-1.8 3.5-.8 12.3-1.1 10.8-.5-1.6.7-1.4 1.6.4 1.5 1-.1 1.4-.6 1.4-1.1-.1-1.1 2.8-1.7 6.3-1.4 2.7.2 1.9 1.4-1 1.6-2 .1-3.3 1-1.6 1 .4 0 .7.3.7.7 0 .5.4 1 1 1.1.6.2 1 0 1-.5 0-.8.5-.8 3-.5 3.4.3 6.5 0 6-.8-.3-.3.1-1.2.7-2 1.2-1.6 1.4-1.7 6-1.6a20 20 0 0 0 6.2-.6c1-.4 4.8-.7 9.8-.8 4.6-.1 8.9-.4 9.6-.8 1-.4 1.6-.3 2.4.3.8.7.9.9 0 .9a3 3 0 0 0-1.7.7c-.7.7-.4.8 2 .6l4-.2c.7 0 1.7-.9 2.3-2 1.8-3 5.6-3.6 5.6-1 0 .3.3.2.6-.2.5-.6.9-.5 2 .4 1.7 1.4 1.8 2 .4 2.5-.6.2-1 0-1-.5 0-.9-1.1-1.2-3.1-1-1.8.3-2.1 1.2-.4 1 .7 0 1.1.3 1 .7-.1.4.1 1.1.6 1.5.4.4.5.8.3.8-.3 0 0 .4.5.8a3 3 0 0 1 .4 4c-1 1.3 0 1.8 1.3.7 1.5-1.1 2.6-3.7 1.3-3-.5.2-.6.2-.3-.3.6-.8 1.6-.1 3.2 2.1l1.2 1.7h-1.9c-1.1 0-1.4.2-.6.3 1 .3 1 .4-.6 1.4-1.2.7-1.5 1.3-1 1.7.3.3.4.8.3 1.1-.3.6 1.2 1.5 3.7 2.2.6.1 1.4 1.2 1.9 2.5.7 2 1 2.2 2.6 2.1 1.2-.1 1.8-.5 2-1.4.2-1 .5-1.1 1.8-.9 1.2.3 1.6.2 1.6-.5 0-1.4 1.3-1 2 .6 1.4 2.9 3.7 3.1 6.6.6 1.5-1.2 2-2.3 2.1-3.6 0-1 .5-2.3 1.2-2.9.8-.7.9-1.1.4-1.4-.4-.2-1-1.3-1.2-2.5-.2-1.2-1-3-1.5-4l-1.1-2.1-2.9-.5-2.8-.4v4c.2 6.3-1 11-2.4 9.2-.2-.3-.7-.5-1-.3-.3.1-1.4-.4-2.4-1.3-1.5-1.2-1.9-2-1.8-3.7.1-2.8.8-4.5 2-4.5.5 0 1-.4 1-.8 0-.5-.3-.8-.7-.8-.3 0-1-.5-1.3-1.1-.6-.9-.5-1.2.1-1.3 4.5-1 6.6-1.6 6.6-2 0 0 2.4-.7 5.3-1.2 4.6-1 5.2-1.2 4.4-1.8-.5-.5-2.5-.8-4.9-.9-3.9 0-4-.1-3.3-1.3.5-.8 1.3-1.2 2.3-1.2 1 0 1.5-.3 1.5-1 0-1.2 2.4-1.8 4.6-1 1 .2 2.3 0 4-.7 1.7-.6 4.7-1.1 8.7-1.4 4.6-.2 6.3-.5 7.1-1.3 1.7-1.5 1-1.7-3.4-1-4.9.6-7.6.6-7.6 0 0-.4.8-.9 1.8-1.2 2.6-.8 1.3-1.3-3.5-1.3-2.5 0-4.5-.3-4.8-.7-.3-.3-1.3-.5-2.4-.3-1.2.2-1.6.4-1 .7.5.3.2.4-.8.4-.9 0-3.6.4-6 .9-5.6 1.1-9 1.4-9.5.8-.5-.6 2.2-1.5 4.2-1.3a39.6 39.6 0 0 0 11.4-2.3l9-1c3.1-.2 9-1.1 12.5-1.8 1.5-.3 4.2-.7 6-.8 2 0 5-.3 7-.5l3.5-.3-1.1 1.4c-.6.8-1.4 1.4-1.7 1.4-.4 0-.3.5.2 1 1 1.5 2.4 1.5 4.8-.2 1-.7 1.7-1.3 1.4-1.3-.3 0-.2-.4.3-.8.4-.4.6-1 .4-1.3-.3-.4.1-.6.8-.6.7 0 1.5-.2 1.9-.5a13 13 0 0 1 4-.8l5-.5a460.6 460.6 0 0 1 17.4-2c3.3 0 5.5-.8 4-1.3-1.4-.4 1.9-2.1 4.9-2.5 3.4-.4 5.6.6 2.4 1-1.2.3-2.3.6-2.5.9-.2.3-1.1.3-2 .1-1-.2-1.6 0-1.6.3s.3.6.7.6c.4 0 .5.2.3.5-.3.3.3.6 1.3.6.9 0 1.7-.2 1.7-.5 0-.5 2-1.3 2.4-.9.2.1-.2.8-.7 1.6-1.5 1.8-.4 2.4 4.6 2.8 2.1.2 4 .5 4.1.6.5.4-7 4.8-10.3 6-2.4.8-3.5 1.5-3.8 2.5-.4 1-1.2 1.6-4.3 2.3l-3.8 1 3.8.2 3.7.2-.3 1.8c-.3 1.4-.2 2 .6 2.2 1.4.5 1.4 2.9 0 4-.5.6-1.1 2-1.4 3l-.3 2.2 1.7-1.6c1-1 1.7-2 1.7-2.2 0-.3.7-1.1 1.6-1.7l3.7-3c1.2-1.1 2.5-2 2.9-2 .4 0 .6-.5.4-1-.4-1.2 1.7-3.4 3.1-3.3.6 0 .9-.7.8-1.7 0-1.5-.2-1.7-1.9-1.5-1.4.2-1.8 0-1.8-.7 0-1.3 1.2-1.8 2.4-1 .5.3 1.2.4 1.7.2.5-.3.5-.5 0-.8-.6-.2 0-.8 1.6-1.5 1.3-.6 2.6-1.2 2.9-1.2.2 0 1-.6 1.7-1.3.7-.7 1.8-1.4 2.3-1.4.7 0 .5-.2-.5-.6-1-.3-2.6-.4-3.7-.3-2.8.3-5-.5-5-1.8 0-1.2 0-1.2 9.2-1.3 6.5 0 8.4.3 7 1.4-.6.5-1 .5-1.7 0-.7-.4-1.2-.4-2.2.2-2.6 1.5.5 2.3 6.5 1.6 2.4-.2 2.5-.3 1.6-1.2-1.3-1.1-1.3-2.2-.3-4 .8-1.4 1-1.5 6-1.4 4.5 0 5.2-.1 5.6-1 .2-.6 1-1.2 2-1.4 1-.2 1.4-.6 1.2-1.3-.4-1.2 3.3-3.6 4.7-3.1.6.2.6.3 0 .3-.5 0-.9.3-.9.6 0 .4.6.5 1.7.3 1-.2 1.6-.1 1.6.2 0 .3-.3.6-.6.6-.4 0-.6.1-.6.4.1.2-.2 1-.7 1.6-.7 1-.7 1.3.7 1.7.9.3 3 .4 4.8.2 2.4-.2 3.1 0 2.8.4-.3.3-1.2.6-2 .6-2 0-3.8.5-3.8 1 0 .8 5.8.7 7.4 0 .7-.2 2-1.1 3-1.8 1.5-1.1 1.7-1.5 1-1.9-.7-.3-.5-.5.6-.8 1.5-.4 2-1.8.6-2l-6.7-.2a18 18 0 0 1-6.6-.7c-.6-.6 0-.7 2.6-.7 4.4 0 9.5-1.7 9.5-3.3 0-.3-1.6-.4-3.6-.5-2 0-3.8-.2-4-.5-1-1.2.7-2 5.2-2.7 7.7-1 7.8-1 7.8-1.9 0-1.3-1.7-1.5-3.7-.4a13 13 0 0 1-5.5 1c-2.4 0-4.4.3-5.4.9-2 1.1-7 1.2-7.6.1-.3-.7 2-3 2.7-2.6l1.2.1c.7 0 .8-.2.1-1.4-.6-1.2-1-1.3-3.6-1.1-3 .2-3.8-.6-1-1l3.9-.8c1.9-.4 2-.5.5-.8-2.2-.6-1.8-1.4.7-1.4 1.2 0 2.8-.3 3.5-.7.7-.4 2.7-.8 4.4-1l3.1-.2-3.8 2.2a93 93 0 0 1-5 2.9c-1.3.5-1.2.6.7.6 1.2 0 2.3.3 2.5.6.3.3 1.4.5 2.6.5 1.8 0 12.6-1.5 17-2.4l1.7-.3-2-.5c-1.1-.2-3-.2-4.4 0-4 1-13.2 1.5-13.2.8 0-1 6.2-2.8 10.5-3.2 3-.2 4.2-.6 4.2-1.1 0-.5.8-.8 2.7-.8 1.7 0 2.8-.2 3-.8.3-.4 1-.8 1.8-.8.7 0 2-.4 3-1l1.7-1.1h-3c-1.7 0-3.5-.3-4-.7-1-.9-3-.6-7.2 1s-8.2 2-11.3 1.2c-2.2-.6-3-.6-5.6.3-1.7.5-3 1.3-3 1.6 0 .4-1 .9-2 1.2-1.6.4-2 .4-2-.2 0-.4.4-1 1-1.4 1-.6 1-.8 0-1.3-1.8-1.1 0-1.7 7-2.4l7.6-.8c1.5-.3 3.5-.5 10-1 4.2-.5 3.5-.6-7.3-1a101 101 0 0 0-13.1.2c-.7.2-2.1.2-3.4 0-2-.6-2-.6-.4-.6.9 0 2.3-.4 3-.9.7-.4 2.3-.8 3.7-.8 2.2 0 2.3 0 2-1.3-.2-1.2 0-1.4 1.5-1.4 1 0 2.3.3 3 .7 2.2 1 12.6-.3 14.8-2 .9-.7 2-1.3 2.4-1.3.5 0 1.1-.5 1.5-1 .4-.6 1-1.1 1.2-1h1.5c1.2-.2-3.9-1.8-5.5-1.8-.6 0-1-.3-1-.6.1-.3-1.6-1-3.8-1.6-2.2-.6-3.3-1-2.4-1 1 0 1.3-.3 1-.7-.3-.4 0-.5.6-.3 1.3.4 5.8-.6 5.8-1.3 0-.3-.3-.4-.6-.2-.4.2-.5 0-.3-.5s.8-.8 1.4-.8c.5 0 .9-.3.9-.6s-.3-.5-.5-.3c-.3.1-1 0-1.5-.3-.8-.4-.8-.5.2-.5.7 0 1-.1.9-.4-.3-.4.6-.5 7-.7 5.3-.1 4.6-1-.8-1-3.3 0-3.5-.1-2.3-.8 1.9-1 3.7-2.6 3.5-2.8a101.3 101.3 0 0 1-19.7 3.6c-2.8-.2-2.3-.6 1-1 1.8 0 3.7-.3 4.2-.5 1.7-.4 0-1-2.8-.9-2.8 0-2.8 0-1.1-.7 1.5-.7 1.5-.8.3-.8a12 12 0 0 1-3.9-.8c-1.8-.7-13.2 0-15.8 1-2.2.7-2.2.7 2.9.8 3 0 5.1.3 5.1.6s-.3.5-.8.5l-6.1.2c-7.5.2-12 1-12.8 2.6-.3.6-1 1.1-1.6 1-1.6-.3-4 .4-3.6 1 .3.4.2.5-.3.3-.4-.2-.8-.1-.8.2 0 .3-.5.5-1.1.5-1 0-.8-.3.7-1.3a7 7 0 0 1 2.8-1.4c.6 0 1-.2 1-.5 0-.7-1.8-.7-2.1 0-.3.6-3.8 0-5.7-1.1a4.1 4.1 0 0 1-1.7-2.3c-.3-1.3 0-1.5 2.4-2.2 5.9-1.7 8.1-2.5 7.2-2.5-2.2 0 1-1.6 3.5-1.7 1.4 0 2.8-.4 3-.8.3-.4 2.7-.8 5.5-1 7.4-.4 9.8-.8 12.9-1.8 1.5-.6 5-1.1 7.7-1.3 4.4-.3 10.7-1.6 10.7-2.2l-.6-1.4c-.3-.7-1-2.3-1.3-3.5l-.7-2.2-3.2 1.2c-4 1.6-6 1.7-2.9.2 1.8-1 2.1-1.3 1.4-1.6-.7-.4-.4-.5 1.1-.5 1.2 0 2.4-.3 2.6-.6.4-.5 0-.6-1-.3-1 .1-5.3.4-9.7.5l-8 .3 3.5-1c2-.5 3.6-1.2 3.8-1.7.2-.6 1.3-1 3-1.3a13 13 0 0 0 3.9-1.1c1-.7 1-.7-1.5-.5-1.4.2-3.8.6-5.3 1-3.5 1-7.8 1.2-8.1.4-.1-.3.3-.7 1-.8a2 2 0 0 0 1.6-1.6c.2-1 .9-1.4 2.7-1.8 2.8-.6 2.9-.7 2.3-2.4-.3-1-.6-1.2-1.2-.8-.5.3-1.6.4-2.5.2-1.7-.4-1.7-.4.3-.6 1.7 0 1.7-.1.4-.3a4 4 0 0 0-2.4.3c-.8.6-4.2.4-7-.3-1.8-.5 1.4-1.5 4.3-1.4 2 0 2.4 0 1.4-.4-1-.3.7-.5 5-.4h7.3c.5-.1 2 0 3.1.2 1.6.3 2.2.2 2.2-.3 0-.3-.4-.5-1-.3s-1 .1-.7-.1c.2-.3-1-.8-2.8-1.2-2.3-.5-2.8-.8-2.1-1.1 1.3-.7.8-1-2.3-1.3-2-.3-2.3-.2-1 .1 1.6.5 1.5.5-.5.6-1.7 0-2-.2-1.8-.8.3-.7 0-.8-1.8-.5-2.5.4-2.4.4-4.6.2-1-.1-.3-.3 1.7-.5l3.3-.4-3.4-.1c-2 0-3.7.2-4 .5-.2.4-2 .4-5.5.1-5.6-.4-9.3-1.6-8.1-2.6.5-.4 1.5-.3 3.5.2 3.7 1 5 .9 11.8-1.4 6.2-2 8.8-3.4 6.4-3.4-.7 0-2.4.5-3.8 1-3.1 1.4-3 1.4-3.9-.3-.6-1.3-.8-1.4-3.7-1l-5 .2c-1.2 0-1.9.3-1.9.8 0 1-2.2 1.5-4.7 1-1.6-.2-2-.5-1.7-1.4.3-.7 0-1-.6-.7-.5.1-1 0-1-.3 0-.7-3.3-.4-7.3.4-2.3.6-2.2.6 2.2.9 1 0 2.1.4 2.5.7.6.5 0 .7-2.1 1-1.6.2-3.9 1-5 1.7-1.9 1-3 1.2-7.4 1.2-6.2 0-8.2.3-8.2 1.5 0 .6-.2.7-.4.2-.2-.3-1-.7-1.8-.7s.2-.5 2.2-1c4.3-1.1 5-2.4 1.4-2.5-5-.2-5.3-.3-5.3-1.1 0-.4-.7-1-1.6-1.3-.9-.3-1.8-.8-2-1.1-.7-1-3-.7-2.6.2.2.5 0 .8-.4.8-.5 0-.6.3-.4.6.2.3.2.5-.1.5h-1.6c-.9 0-.9 0 0 .6.8.4.8.5-.3.4h-4c-2 0-2.4.2-1.7.6.7.3.4.5-1.2.4-1.2 0-2.5.2-2.8.5-.4.3-1.5.4-2.4.3-1.2-.2-1.5-.5-1.2-1.3.3-.9.1-1-1.8-.7l-3 .5c-.5.1-.9-.2-.9-.6 0-.4-.3-.8-.7-.8-.4 0-.5.2-.3.5.3.3-.8.4-2.6.3-2.7-.3-3-.2-3 .8s-.4 1-3.4.7c-1.8-.2-3.3 0-3.3.2 0 .7-10.1.1-11.3-.7-.7-.4-1-.4-1.2.1-.2.6-.5.6-1.3 0-.9-.6-1-.6-.6 0 .4.5.2.7-.3.6-2-.2-3.3 0-3 .6.4.4 0 .6-.7.5h-3.6c-2.2.1-2.2.2.7.5 2.8.4 2.9.4.7.5-1.3 0-3.1.2-4 .4-1.3.2-1.5.2-.7-.3.9-.5.9-.6 0-.6-.6 0-1.6.3-2.4.8-.9.5-2.2.6-4.3.3-1.6-.2-4-.2-5.3 0l-6.2 1.1c-3.6.5-4 .5-4.9-.4-.6-.7-.6-1.2-.2-1.6 1.2-1 .7-2-.8-1.9-1.1 0-1.2.1-.3.3.6.2 1 .5.8.7-.2.2-1.9.1-3.8-.3-4.5-1-9-1.1-12-.3-1.4.3-3.2.5-4 .4-1.2-.2-.9-.5 2-1.5 2-.7 3.5-1.5 3.5-1.7 0-.5-2.4-.7-5.5-.6-1.4.1-1.8-.1-1.8-1 0-1.1-.8-1.3-2.6-.5-.7.3-3.9.5-7 .6-3.3 0-6.8.2-8 .4l-2 .3 2.2.7c1.7.6 2 1 1.3 1.5-1 1 .7 1.5 3.8 1.2 3-.4 4.1.7 2.1 2.1-2.5 1.9-7.5 4-9.4 4-1 0-2.5.2-3.3.5-.8.4-3.4.7-5.8.7-2.6 0-5.8.6-8 1.3-2 .6-4.8 1.1-6.1 1.1a344.2 344.2 0 0 1-30.2 2.3l-5.3.3 3.2-.9a11 11 0 0 0 3.1-1c0-.4-7.2-.3-8.5 0-1.2.4-1 1.3.4 1.3 1 0 1 .1-.2.5-1.3.5-1.3.5 0 .6 2.2 0-1.4 1-4.3 1.1-1.3 0-3.4.4-4.7.7-1.3.4-5 .6-8.1.6-3.2 0-5.4 0-5 .3.5.2.4.4-.2.6-2 .5-12.5 2-17.7 2.4a350 350 0 0 0-21.3 2.7c-.4.2-3.2.5-6.3.7l-6.7.5c-1.4.3-10.6.8-18 1a201 201 0 0 0-22.2 1.5L633 56.3l-11.4 1.3c-2.5.1-7.7.6-11.7 1a213 213 0 0 1-18.5 1.5l-12 .8c-6.8.5-14 1-20.3 1.1a171.3 171.3 0 0 1-24.6 1.6c-21.6.3-29.8.5-30.6 1a47.5 47.5 0 0 0-9.7-1.1 142 142 0 0 0-21.6-1c-.5.2-4.3.1-8.3-.1a830.6 830.6 0 0 0-31-1.3 654.8 654.8 0 0 0-16.9-.8l-15.3-.7c-14-.6-18.7-1.2-20.6-2.7-.6-.5-1.3-.8-1.6-.6-.3.1-.8 0-1-.2-.2-.3 1.3-.5 3.4-.6 2.2 0 3.5.2 3.2.5-.3.5 11.5.3 17-.3 2.2-.2 5-.3 29.1-.8 6 0 11.2-.3 11.7-.6.4-.2 3.8-.3 7.4-.3 4.2.1 6 0 5-.3-.9-.2-6.4-.5-12.3-.6-14.8-.2-18.1-.4-21.6-1.2-3.7-.9-41.1-.7-41.8.2a60 60 0 0 1-22.7.8c-1.3-.6-1.4-.8-.5-.8 1.2 0 1.7-1.1.5-1.1l-4.7 1c-4.2 1.2-6.5 1-4.3-.3 1.2-.7 1.2-.8-.2-.8-.7 0-1.6.4-2 .8-.7 1-8.4 1.8-9 .9-.4-.4-1.7-.5-4.2-.3-2.7.2-3.9.1-4.7-.5-.7-.5-1.6-1-2.2-1.2a75 75 0 0 1 18 0c1.9.3 2.2.3 1.5-.3-.8-.7-4.9-1.2-11-1.3-1.7 0-3.1-.2-3.1-.4 0-.4-.7-.5-8-.8a19 19 0 0 1-6.7-.9c-.3-.5-.5-.5-.7 0-.3.7-13 1-13.7.3-.2-.2 1.7-.3 4.2-.3 4.8 0 14.7-1.2 15.5-1.8.2-.2-5.5-.3-12.7-.1-13.8.3-15.8 0-10.5-1.7 4.2-1.4 3.3-2-2.1-1.5-6.6.6-11.7.4-12.7-.4s-1.8-.8-1.8.3c0 .6-.4.7-1.5.4-.8-.3-4.6-.5-8.5-.6-8 0-9-.2-6.6-.8 1-.2-.7-.4-4.5-.4-6.5 0-8-.4-6-1.5 1.7-1 .7-1.4-3.5-1.4-2.2 0-4.7-.3-5.8-.6-1-.4-3.1-.7-4.7-.8-1.7-.2-3.2-.6-3.5-1-1-1.3-.6-3 .8-3.4 2.6-.7 1.2-1.2-4.2-1.6-7-.5-9.3 0-10 2.2-.7 1.8-2.6 2.4-4.9 1.7-2.3-.8-6.2-.6-6.2.3 0 .9-1 1-1.7.3-.2-.4-1.5 0-3.1.8-2.3 1.2-3 1.3-4.4.8-1.1-.5-2.4-.5-4.6 0a12 12 0 0 1-5.4 0c-7.6-1.8-8.1-1.8-10-.2a6.2 6.2 0 0 1-4 1.5c-1.2 0-2.1-.1-2.1-.3 0-.2-1-.7-2-1.1-2.3-.9-2.6-1.8-.7-1.7.8 0 1.4-.3 1.4-.7 0-.3.6 0 1.3.9 1.7 1.7 2.8 1.4 2.2-.6-.4-1.4-.3-1.4 2-1 2 .2 2.5.1 2.2-.5-.2-.5.5-1 2-1.6 1.9-.8 5-3 4.2-3-1.9 0-7.6 1.2-8 1.7-.3.4-.8.4-1.7 0-1.1-.5-1.1-.6 0-1 .8-.2 1-.6.7-1.5a8 8 0 0 1-.3-2.6c0-1.4-.2-1.5-2.4-1.5-2.8 0-3.5.3-4.6 1.9-.4.5-1 1-1.3 1-.3 0-1 .3-1.5.7-.5.4-1.1.6-1.4.4-.3-.1-1 .5-1.7 1.5s-1 1.3-.8.6c.2-1 0-1.1-1-1-.9.3-1 .7-.8 2 .3 1.2.2 1.5-.7 1.5-.6 0-1.6-.4-2.1-.8-.7-.6-1.4-.7-2.7-.3-1 .3-2 .3-2.4.1-.5-.2-.6 0-.3.6s-.2 1-1.7 1.7c-2.6 1-2.5 1-2.5-.2 0-.6.8-1.3 1.8-1.7 2.2-1 5.3-2.7 4.6-2.7-.2 0 .1-.7.8-1.4 1.1-1.5 1.1-1.5-.3-1.2-1 .2-1.5 0-1.5-.4 0-.5-.6-.8-1.3-.8-1.4 0-3 1.2-2.3 1.8.3.2.9 0 1.3-.3 1.5-1 1 .3-.8 2-1.5 1.3-1.7 1.4-3.5.6-1.8-.7-2-.7-3.1.5-1.6 1.7-2.3 1.6-2.3-.3 0-1.1.3-1.7 1-1.7.5 0 1-.2.8-.5 0-.3 1.5-1.1 3.5-1.8 2.7-.9 3.8-1.5 4-2.4 0-.6.5-1.2.9-1.2s.5-.1.3-.3c-.2-.1-1.5.1-2.8.6-1.4.4-2.7.7-2.8.6-.4-.3.6-2 1.2-2 1 0 6.3-4.2 5.8-4.6-.3-.2-1 0-1.8.6-2.9 2.5-5.5 4-6.7 4-.9 0-1.2-.3-1-.8.5-.9-.6-1-4.8-.9-2.6 0-2.8-.7-.5-2.3.9-.7 1.7-1.5 1.7-1.7 0-.3-.4-.2-.8.1-.5.4-1.8.7-3 .7s-2.3.2-2.5.5c-.3.3-1.3.5-2.3.4-2.4 0-3.4.5-3.4 1.7 0 .6-.9 1.2-2.6 1.6-3.3.8-3.5.8-3.4-.3 0-1.4 4-4 5.8-3.8 1 .2 1.5 0 1.7-1 .3-1.4-.6-2.4-2.2-2.4-3 0-10 3.3-14.8 7.1-.7.6-1.5.9-1.7.7-.3-.2-.1-.5.3-.8.7-.4 2.5-2.8 2.5-3.5 0-.2.6-.7 1.2-1.1.7-.4 1.2-1 1.2-1.2 0-.3.8-.8 1.7-1.2 2-.7 1.6-1.7-.8-1.7-1 0-2.3-.4-2.9-.9-.8-.6-1.3-.6-1.6-.2Zm-3.4 13c-.4 1-3.5 2.1-4.8 1.7-.6-.1-.6-.7 0-2 .9-2.4 3.8-3.4 4.6-1.7.3.6.4 1.5.2 2ZM109 22c0 .3.3.7.7.9.4.2.7 0 .7-.2 0-.3-.3-.7-.7-1-.4 0-.7 0-.7.3Zm31-2.6c-.1.3 0 1.2.5 2 .7 1.2 1.1 1.3 2.6 1 1 0 1.9 0 1.9.3 0 .7-2.1 1.3-3.5 1-.5 0-.8.2-.7.5 0 .4-.5.8-1.2 1-.7.2-1.3.6-1.3.8 0 .3-1 .7-2.3.8-1.2.2-2.9.8-3.6 1.4-1.7 1.2-2.1 1.3-2.1.2 0-.5-.4-.6-1-.4-.9.2-1 0-.9-.7.1-.6.7-1 1.2-1 .6 0 1-.4.9-.7-.1-.4 1-1 2.5-1.3 1.4-.4 2.6-.8 2.6-1 0-.3.7-1.1 1.6-1.8.8-.6 1.5-1.4 1.5-1.6.2-.8.3-1 1-1 .4 0 .6.3.4.5Zm6.3 1.8c0 .3-.3.5-.7.5-.4 0-.5-.2-.3-.5l.7-.6c.2 0 .3.3.3.6ZM982.2 29c-.5.6-2.8.6-3.2 0-.2-.2.6-.4 1.6-.4s1.8.1 1.6.4Zm-994.5-4.3c.8-.2 1-.1.6.3-.7 1-2.4.7-2.3-.3 0-.5.2-.7.4-.3.1.3.8.5 1.3.3Zm103.6.2c.6.6-.9 2.4-2 2.4-.9 0-1-.2-.3-.8.7-.6.7-.8 0-.9-.3 0-.5-.2-.3-.5.5-.6 2-.7 2.6-.2ZM8.4 26c-.2.2-.6-.1-.8-.6-.4-.8-.3-.9.4-.3.4.3.6.8.4 1Zm-36.1-.5c-.2.3-.8.4-1.4.2-1.3-.4-1.2-.7.4-.7.8 0 1.2.2 1 .5ZM901.5 31c-.5.2-1 .1-1.3 0-.2-.2.2-.4.9-.3.8 0 1 .1.4.3ZM-19 27.6c-.2.2-.4-.1-.4-.7s.2-.7.4-.3c.2.4.2.8 0 1Zm867.8 4.2c-1.6.5-3.1 1-3.3 1.2-.2.2-.7.3-1.2.4-2 0-2.2.2-1.8.7.2.3 0 .4-.6.2-.5-.1-2 .1-3.1.6-2.8 1.2-3.2.7-1.2-1.3 1.6-1.7 4.7-2.4 11.2-2.5l3-.1-3 .8Zm-887.7-4.2c.7 1 .6 1.2-.5 1.7-1.2.5-4 0-4-.8 0-2 3.2-2.6 4.5-.9Zm1001.1 4.7c-1.6.5-7.7.6-6.8.2a14 14 0 0 1 4.2-.4c1.8 0 3 .1 2.6.2Zm21.3.8c-.2.2-.7 0-1.1-.3-.7-.6-.6-.6.3-.3.7.2 1 .5.8.6ZM174 30c-.2.6-.6 1.4-1 1.7-.5.4-.8 1-.8 1.4 0 1-.5.9-2-.4-1.3-1-1.2-1 .3-2.4 2-1.7 3.8-1.8 3.5-.3Zm-200.3-1c.8 0 1.7.2 1.9.5.2.3-.5.5-1.6.5-2.4 0-4-.5-4-1.2 0-.3.4-.4 1.1-.2.6.3 1.8.4 2.6.4ZM140 30.5c-.2.5-.7.8-1.1.8-.5 0-.5-.3 0-1 .9-1.3 1.7-1.1 1.1.2Zm731.5 3c-.4.2-1 .2-1.2 0-.3-.2.1-.3.8-.3.8 0 1 .2.4.4Zm119.2.7h-3c-.8-.1-.2-.2 1.5-.2 1.6 0 2.3 0 1.5.2ZM-38.5 32.1h2l-2 .6c-1.3.3-2.3.7-2.3.9 0 .1-.4.7-1 1.3-.8.9-1 .9-2.2.2-.8-.4-1.2-1-1-1.2.4-.2 0-.7-.7-1.2-1.2-.7-1.2-.7.4-1.2a6 6 0 0 1 3.1 0c.9.3 2.5.5 3.7.6Zm25.3-.2c1 .6 1.1.9.4 1.6-1.1 1-4 1-5.4-.1-1.8-1.3-1.6-1.7 1-2l2.4-.2c.2 0 1 .2 1.6.7Zm1025.7 5.7a2 2 0 0 1-1.5-.3c-.5-.4-.3-.5.8-.2 1 .2 1.2.4.7.5ZM234 33.7c0 1-2 1.6-3.5 1-2.2-.6-1.1-1.8 1.6-1.8 1.2 0 2 .3 2 .8Zm-256.7-1c-.6.5-1 .5-1.5 0-.7-.5-.5-.6.8-.6 1.2 0 1.4.1.7.6Zm948.8 5.1c2.6 0 2.2.3-1 .7-1.6.2-2.4.1-2.1-.2.5-.6-3 0-4 .6-.4.3-1.7.5-3 .6h-2.4l2.3.4 2.4.4-2.2.1c-1.4 0-2.3-.2-2.6-.8-.2-.4-.8-.7-1.3-.5-.6.1-.8 0-.6-.3.3-.3 1.5-.5 2.9-.5 1.3 0 3.7-.2 5.1-.5 1.5-.2 3-.3 3.6-.2l2.9.2Zm-756-3.6c0 .3-.5.6-1.1.6-1 0-1-.1-.2-.6 1.3-.6 1.4-.6 1.3 0Zm47.6.8c.2.3.2.6-.1.6-4.7.5-5.8.3-4.4-.8.7-.5 4-.4 4.5.2ZM187 36.2c.2.5 0 .8-.3.8s-.6-.3-.6-.8c0-.4.1-.8.3-.8l.6.8ZM9 35.5c1.4.7 0 1-3.5.8C1 36.1.6 35 4.9 35c1.8 0 3.6.2 4.1.5Zm-7.2 1c0 .6-.7.7-4.4.8-1.4 0-2-.2-1.8-.6.4-.8 6.2-1 6.2-.1Zm229.5 1.3c0 .3-.4.6-1 .6-.5 0-1-.3-1-.6s.5-.5 1-.5c.6 0 1 .2 1 .5Zm766 4c-.5.2-1.2.2-1.7 0-.5-.1 0-.3.8-.3 1 0 1.3.2.9.3Zm-961-4.2c.3.2 0 .5-.4.6-.5.2-.8.6-.9 1 0 1.6-2.2.6-3-1.3-.4-1.3-.3-1.3 1.8-1 1.2.2 2.3.6 2.5.7Zm971.4 5.7c-.2.2-1.2.4-2.3.6-1.5.2-1.7.2-1-.2.9-.5 4-.8 3.3-.4ZM-19.7 39.6l1.6.8-1.4 1c-1.2 1-1.7 1-3.7.5-2.3-.7-4.5-2.2-3-2.2.4 0 .7-.4.7-.8 0-1 3.5-.6 5.8.7ZM-47 39c-.2.3-.7.5-1 .5-.4 0-.7-.2-.7-.5s.5-.5 1-.5c.6 0 1 .2.7.5Zm19 3.2c1 .4 2.3.7 2.8.7 2.1 0 1.7 1.1-.6 1.9-3 1-3 1-3-.3 0-1.2-2.6-2.3-3.6-1.6-1 .8-1.7.6-1.7-.3 0-.4-.4-.8-1-.8-.5 0-1-.3-1.3-.6-.6-.8 6.1 0 8.4 1Zm19.5 1.3c1.6.6 3 1.3 3 1.4 0 .2-.3.2-.7 0-.4-.2-1 0-1.6.3-.7.4-1.4.4-3-.3a8.2 8.2 0 0 1-2.4-1.4c-.3-.4-.2-.5.3-.3.4.2.8.1.8-.2 0-.7 0-.7 3.6.5Zm997.2 4.8h-1.7c-.5-.2 0-.3.8-.3 1 0 1.3.1.9.3Zm2 .9c-.2.2 1 .4 2.6.4 2.4 0 2.6.2 1.2.5l-1.7.5h1.7c.9.1 1.2.3.7.4-.4.2-2 0-3.6-.5-1.5-.5-3.9-1-5.2-1-3.6-.3-2.6-.8 1.3-.8 1.8 0 3.2.2 3 .5Zm-1012-5c.3.6.1.8-.5.6-1-.4-1.3-1.3-.4-1.3.3 0 .8.3 1 .8Zm993.3 6c1.8 1.1 1.4 1.4-1.4 1.4-1.7 0-2.8-.3-3-.8-.6-1.3 2.5-1.8 4.4-.6Zm11.3.2c-.5.2-1 .2-1.3 0-.2-.2.2-.3.9-.3.8 0 1 .2.4.3Zm5.5.8c-.2.3-2 .5-3.9.4h-3.4l3-.4c4.6-.6 4.7-.6 4.3 0ZM-103.4 46c0 1.3-1.2 1.5-2 .3-.6-1-.5-1.1.7-1.1.7 0 1.3.4 1.3.8Zm1104.9 5.6c-.7.2-1.6.1-2 0-.5-.2 0-.3 1.2-.2 1 0 1.4 0 .8.2Zm-677.6.6c-.5.2-1.2.2-1.7 0-.5-.1 0-.2.8-.2 1 0 1.3 0 .9.2Zm82.1 1c.1.3-.5.8-1.3 1-2.1.4-12.5.6-12.8.2-.4-.4-2.8-.3-3.4.1-.6.5-2.3 0-2.3-.7 0-.3 2.8-.5 6.2-.5 8.4 0 8.4 0 8.8-.5.6-.7 4.5-.4 4.8.4ZM-96.5 53c.5.5 1.5 1 2.2 1 2 0 3.5.5 3.5 1.4 0 .4.5.7 1.1.7 1 0 1 .1 0 .8-1.2.7-1.2.9-.3 1.2.6.2 1.1.5 1.1.8 0 .8-2.7 1.1-3.8.4-.9-.6-.8-.4.1.5l1.3 1.2-2.1-.2c-1.2-.1-2.9-.6-3.8-1.2-1-.5-2.4-.8-3-.6-.7.1-1.3 0-1.3-.2 0-.3-.5-.6-1.2-.8-.6-.1 0-.2 1.3-.1 1.4 0 2.4 0 2.4-.3-.1-.2.4-.8 1.2-1.2 1-.8 1.1-.9.1-.6-1.6.4-4-.5-6-2.2-1-.8-1.7-1.5-1.7-1.6h4c3 0 4.3.3 5 1Zm-1.5 1.8c.3.2.8.2 1.3 0 .5-.1.4-.3-.4-.3-.7 0-1 .1-.9.3Zm5.8 3.5c0 .2.3.6.7.8.3.2.5 0 .2-.5-.4-1-.9-1.1-.9-.3Zm-6 .2c0 .1.3.4.7.6.3.2.6 0 .6-.3s-.2-.5-.6-.5c-.4 0-.7 0-.7.2Zm473.8-3c0 .3-.2.5-.4.5-2.6 0-2.6 0-1.6-.6s2-.5 2 .2Zm587 3.1c1.2.4 1 .5-.8.5-1.3 0-2-.2-1.8-.5.5-.6.9-.6 2.7 0Zm44 3c-2.8 1-8 1.3-9.6.5-1-.5-1-.5 3.6-1.3l5-.2h3.6l-2.6 1Zm-1126-6.2c0 .3-.5.6-1 .6-.7 0-1-.3-.7-.6.2-.3.7-.5 1-.5.4 0 .7.2.7.5ZM957 61s-.7.3-1.6.4c-1 .2-1.5 0-1.3-.2.3-.4 3-.6 3-.2Zm-1117.7-4.2c-.6.3-1.5.5-2 .5-.9 0-.9 0 0-.5.5-.3 1.4-.5 2-.5.9 0 .9 0 0 .5Zm9.3 3c0 .5-2 .8-2.4.3-.2-.3.3-.5 1-.5.8 0 1.4 0 1.4.2Zm35.7.3c2.2.5 1.1 1.9-1.5 1.8-2.4 0-3.7-1-2.2-1.6 1-.6 1.7-.6 3.7-.2Zm1077.5 6.5h-1.3c-.2-.2.2-.4.9-.3.7 0 .9.1.4.3Zm3.8.6c0 .3-4.2 1.8-4.5 1.5-.6-.5 1.8-1.7 3.2-1.7.7 0 1.3 0 1.3.2Zm-1102.8-2c-.5.3-.8.7-.6 1 .8 1-3.6.7-5-.4-.8-.6-.7-.8 1.2-1 1.2-.3 2.3-.6 2.5-.9.2-.2 1-.1 1.6.2 1.1.6 1.2.8.3 1.1Zm6-1c0 1.2-2.7 1.3-4.3.3l-1.6-1.1 3 .2c1.6 0 3 .4 3 .6ZM969 71.5c-2.7 1-3.4 1.6-3.1 2.3.5 1.4-.9 2-5.6 2.7-3.4.4-4.6.3-6-.3l-1.7-.8h1.8c1 0 1.8-.2 1.8-.5s.5-.4 1-.2c.6.2 1-.3 1.4-1.4.2-1 .8-1.8 1.2-2 .6-.1 7.6-.8 12.1-1.1.4 0-1 .5-2.9 1.3ZM-124.2 66l-1.7.7h1.8c1 0 2-.1 2.2-.4.2-.2 1.1-.6 2-.7 1-.1 1.5 0 1.4.2-.5.6 2.9 1.5 6.7 1.9 2 .2 3.6 0 3.9-.3.2-.3.8-.5 1.2-.5.5 0 .4.2-.2.5-.8.4-.7.5.5.6 1 0 1.4-.2 1.1-.6-.3-.4-.2-.5.3-.3s.6 1.2.3 2.7c-.3 1.9-.2 2.4.7 2.7 1 .3 2.5-1.1 2.3-2.2-.3-1.6 2.3-2.8 3.3-1.6.2.4 1.7 1.5 3.1 2.6 1.5 1 2.7 2 2.7 2.4 0 .3.8.5 1.7.4 2-.1 4 1.4 2.5 1.8-6 1.4-12.1 1.6-13.2.4a13 13 0 0 0-4.2-.6c-3.5 0-4.1-.2-6.2-2-1.4-1.2-2.2-2.4-2-3.1 0-.8-.3-1.3-1-1.5-.9-.1-1.1 0-.8.7.3.6 0 .8-1.4.8-1.8 0-2.4-1.3-.9-1.8.5-.2.4-.3-.3-.3-.6 0-1.1-.3-1.1-.5 0-.3-1.9-.6-4.1-.8-2.2-.2-4.4-.6-4.8-1-.6-.5-.4-.6 1-.3 1 .2 2 .1 2.2-.2.2-.3 1-.5 1.6-.5.8 0 .6.2-.6.8Zm2 3.5c.8.4.7.5-.5.5-.8 0-1.6-.2-1.8-.5-.6-.7 1-.7 2.3 0Zm1051 5.6h-2c-.5-.2 0-.3 1.2-.3 1 0 1.4.2.8.3Zm5.6 1c-2.9 1.6-10.8 2.6-10.8 1.4 0-1.4 3-2 9.4-2 2 0 2.3.2 1.4.6Zm68.3.4 2 .4-1.6 1.2c-1.5 1-2 1.1-5.7.7a20 20 0 0 0-4.6-.2c-.4.2-1.3-.9-1.3-1.7a36 36 0 0 1 11.2-.4Zm-1122.3-3.7c0 .3-.3.5-.7.5-.3 0-.6-.2-.6-.5s.3-.6.7-.6c.3 0 .6.3.6.6Zm-9.3 1.3c0 .5-.7.8-2 .8-1.2 0-2-.3-2-.7 0-.5-.2-.4-.7.1-.3.5-.6.6-.6.3 0-1 .8-1.4 3-1.3 1.6 0 2.3.2 2.3.8Zm6 .8c0 .3-.5.4-1 .2l-1-.5c0-.1.4-.2 1-.2.5 0 1 .2 1 .5Zm-12.6.5c1.9.9 1.6 2.5-.5 3-1 .2-2 .1-2.2-.1-.9-1-4-2.4-4.4-1.8-.6.8-5 .6-5-.3 0-.5.5-.7 1.3-.5.7.2 1.8 0 2.5-.3 1.6-.7 6.6-.7 8.3 0Zm19.2.5c.2.1.3.6.3 1.1 0 .6 1 1.1 2.4 1.5 1.2.3 2.4.7 2.6.9.2.2 1 .5 1.7.6 1 .2.8.3-.6.4-2.7 0-12-4-11.3-5 .3-.4 4.2 0 5 .5Zm1070.4 5.9c-.2.6-.9 1-2.2 1-2.4-.1-3-1.3-1-1.6 3-.4 3.4-.4 3.2.6Zm21.7.3c-.5.6-3 .6-4.8 0-1-.3-1-.4.5-.6 2-.4 4.7 0 4.3.6Zm-1078.3-4.6c2.2.6 1.8 1.2-1 1.5-3.9.5-4.4.4-5.4-.8-.7-1-.7-1 .5-.8.8.2 1.4.2 1.4 0 0-.6 2.3-.5 4.5 0Zm1064.7 6c-.6.4-1.5.6-2 .6-1 0-1 0 0-.5.5-.3 1.4-.5 2-.5.8 0 .8 0 0 .5Zm-1082.7-5c.9.2 1.5.6 1.5.9 0 .8-3.1.5-3.5-.4-.5-.9-.2-1 2-.5Zm19.3 3c-.3 1.3-2 1.3-3.7.1-1.8-1.3-1.4-1.5 1.6-1.2 1.7.1 2.3.4 2.1 1Zm1105.6 5.4c-.9.8-11.3 2.2-12 1.7-.4-.3.3-.5 1.7-.5a49.3 49.3 0 0 0 10.5-1.5c.2 0 .1.1-.2.3Zm14.5.6c1.4.2 2.4.4 2.3.5l-4.7.5c-4.2.3-4.4.3-4-.8.3-.9.7-1 2.1-.8l4.3.6Zm-1150.3-4.7c-.6 1.1-1.6 1-1.6-.3 0-.7.4-1 1-.8.5.2.8.7.6 1ZM1025.3 89c0 .4-.4.8-1 .8-.5 0-2.3.3-3.8.8-1.6.4-4.1.9-5.6 1l-2.6.3 2.9-1a31 31 0 0 1 5.3-1.5c1.4-.1 3-.5 3.5-.8 1.3-.6 1.3-.6 1.3.4ZM-96.4 84.8c0 .3-.5.4-1 .2-.5-.1-1-.4-1-.5l1-.2c.6 0 1 .2 1 .5Zm1065.8 6.4c1 .5.8.6-3.2.5-.2 0-.6-.2-.7-.5-.2-.7 2.6-.7 4 0Zm-1103.8-3.6c-.4.5-1 .7-1.1.6-.5-.4.5-1.4 1.3-1.4.4 0 .4.3-.2.8Zm1096.8 5.7c-.7.3-2 .5-2.7.5-1 0-1-.1.4-.5 2.3-.6 4-.5 2.3 0ZM-109 90.2c0 .3.7.5 1.6.5 1 0 1.8.3 2 .6.5.6-.5.7-2.7.2-1.5-.3-2.7-1.9-1.5-1.9.3 0 .6.3.6.6Zm1064.8 8.3c-3 1-3.4 1-5.3.8-2.3-.2 2.3-1.6 5.3-1.6h2.7l-2.7.8ZM-91.5 93c.2.3-.2.5-1 .5-.7 0-1.3-.2-1.3-.5s.4-.6 1-.5c.5 0 1.1.2 1.3.5Zm1014.9 9.7c.1.1-.8.2-2 .1-1.3 0-1.8-.2-1.1-.3.6-.1 1-.5.7-.9-.3-.3 0-.3.8.2l1.6 1Zm5.8-1c-.8.6-5.3.7-4.8.1.2-.3 1.5-.5 2.8-.5 1.3 0 2.2.2 2 .4Zm-14.8 2.1c-.7.1-1.6.4-2 .7-.6.4-5.2.7-8.1.5-2.5-.1-1.7-1.1.8-1.1 1.3 0 2.3-.2 2.3-.4s1.9-.3 4.2-.2c2.3.2 3.5.4 2.8.5Zm101.4 1c-.6.5-1.5.8-2 .6-.6-.2-.4-.5.7-.8 2.4-.8 2.5-.8 1.3.2Zm-90.4.8c0 .3-.6.5-1.3.4-2-.3-2.2-.7-.3-.8.8 0 1.6.1 1.6.4Zm19.3.6c-1.3.5-3.3 1.1-4.4 1.3-1.7.2-2 .1-2.1-.8 0-.9.2-1 1.1-.9.7.2 2.3.1 3.5 0 3.7-.8 4.3-.6 1.9.4Zm36.2.5a9.3 9.3 0 0 1-2.6 1.4c-.3 0-1.2.4-2 1a15.7 15.7 0 0 1-8 2.2c-1.1 0-3.5.3-5.3.8-3.4.8-14.4 1-15.7.4-.5-.2.3-1 2-1.8 2.5-1.1 2.7-1.4 1.7-1.6-2.6-.4-2.5-1.1 0-1.7 3.3-.7 4.7-.7 6.3 0 1 .4 2.1.4 3.8 0 3.3-.6 7.1-1 14.5-1.3a48.5 48.5 0 0 0 7-.7c.2 0-.6.6-1.7 1.3Zm-52.5.2c.7.6.5.9-1.6 1.7-2.9 1-10.8 1.8-8.3.7.9-.3 1.5-.8 1.5-1 0-.3.6-.5 1.4-.5.7 0 1.3-.3 1.3-.5 0-.3.8-.6 1.8-.8 1 0 2.1-.2 2.4-.3.3 0 1 .3 1.5.7ZM-68 105c.7.7.5.7-1.1.4-3.2-.6-3.7-.8-3.3-1.3.5-.6 3.5 0 4.4.9Zm983.6 7.2c.2.3-.1 1-.8 1.3-1.8 1.2-2.3 1-1.4-.5.8-1.5 1.5-1.7 2.2-.8Zm49.5 2.4c0 .6-5.5 1-6.6.5-.6-.3-.9-.5-.7-.6a107.5 107.5 0 0 1 4.5-.7c.4-.3 2.8.4 2.8.8ZM-155 109.3l-1 .2c-.6 0-1-.3-1-.6s.4-.4 1-.2c.5.2 1 .4 1 .6Zm1130.3 6.3c0 .2-1 1-2.2 1.8l-2.2 1.5h7.4l-2.2.8c-1.2.4-2.2 1.1-2.2 1.6 0 1.2-1.8 1-2.8-.2-1-1.4-2.3-1-6 2.3-2.2 1.8-3 2.8-2.4 3.1 1.2.6.6.8-5.1 1.8-7 1.1-11 1-12.2-.2-.8-.9-1-.9-3.3.1-1.4.6-2.9 1.4-3.3 1.9-.8.8-1 .7-5.6-1.1-1.1-.5-3 1.2-2.3 2.2.3.2-.6.5-1.8.5-3 .1-6.2.3-10.8.7a19 19 0 0 1-5 0c-5.4-2.1-9-1.9-11 .6-.8 1-1.6 1.2-4.1 1.2-2.2 0-3.3.3-4 1-.6.7-1.9.9-5.3 1-2.5 0-5 .1-5.6.3a25.5 25.5 0 0 1-7.5 1.7c-4.8-1.5-4.8-1.4-3.4-2.2.7-.3 2.7-1 4.5-1.3 1.7-.4 3.4-1 3.6-1.4.7-1 4.5-2.4 6.4-2.4.9 0 2 .4 2.4.8a2 2 0 0 0 1.8.5c.7-.2.8-.5.2-1-.8-.9.3-1 4-.8 1.3 0 1.4 0 1-1.1-.4-1.1-.3-1.2 2.1-.8 1.4.3 2.9.4 3.3.4l9.6-.3c6.8-.1 9.1-.4 9.7-1 .4-.4 2.5-.9 5-1 3.9-.4 4.2-.4 3 .3-1.3.8-1.3.8.1 1.2 2.2.6 4.6-.1 4.7-1.4 0-.9-.2-1-1.5-.8-1.7.4-2.7-.8-1.5-1.7.5-.5.5-1 0-2-1-1.9-1-1.8 1.4-2.1 6-.7 7.8-.8 7.8-.4 0 .3-1.4 1-3.2 1.5-3 1-3.1 1-1.2 1.3 1.9.3 1.9.3.8 1.2-.7.5-1.5.8-1.8.6-.3-.1-.6 0-.6.2 0 1 6.2.1 7.7-1 .8-.6 1.7-1 2-.9.3.1 2-.2 3.6-.7 1.7-.5 4-1 5.3-1.2a80 80 0 0 0 4.4-.6c1.8-.3 1.9-.3 1 .5-.7.8-.7 1 0 1 1.4 0 2.3-.8 2.3-1.7 0-.5.9-.9 2.7-1 3-.4 7-1.7 7-2.3 0-.3-.3-.4-.7-.4-.4 0-.7-.3-.7-.6s1.4-.5 3.4-.4c1.8 0 3.3.2 3.3.4Zm-27.8 8.1c-3.1 1.6-2.8 2.3.4 1 1.5-.6 2.7-1.3 2.7-1.6 0-.8-.7-.6-3.1.6Zm15.3-7.2c-.4.1-1.2.1-1.6 0-.5-.2-.1-.3.8-.3s1.3.1.8.3Zm-25.8.6c.3.3 0 .4-.6.2-1.2-.4-1.4-.8-.4-.8.3 0 .8.3 1 .6Zm55.6.8c0 .3-.3.6-.7.8-1.2.6-.7 1.9 1 2.3 1.3.2 1.5.5 1 1s-1.4.8-2 .8c-.6 0-1.4.3-1.9.6-1 .8-4.8-.4-4.8-1.5 0-.4 1-1.3 2.2-2l2.8-2c1-.6 2.4-.7 2.4 0ZM-166.2 112c.2.3-.1.9-.7 1.4-1.3 1-2.7.3-2-1 .4-1 2.1-1.2 2.7-.4Zm27 .4a3 3 0 0 0 1.7.9c.5 0 1 .2 1 .5s-.5.5-1 .5-1.2.8-1.4 1.7c-.6 2-2.5 2.1-4 .2-1.4-1.7-.8-2.4 1.9-2.4 1.8 0 2-.1 1-.6-1.3-.6-1.6-1.6-.6-1.6.3 0 1 .4 1.4.8Zm9.4.6c.7-.4.7 1.4 0 2.4-.6.7-1 .7-2.4-.1-.9-.5-2.1-1-2.7-1-1.7 0-1-1 .8-1.3l2.5-.5c.4 0 .8 0 1 .3 0 .3.4.4.8.2Zm7.9 0c0 .2-.4.8-1 1.2-.7.6-1 .6-2.1-.3a9.4 9.4 0 0 0-2.3-1.3c-.5-.1.5-.2 2.2-.2 1.8 0 3.2.3 3.2.6Zm13.7.4c.3.3 1.5.6 2.5.7 2.6.2 3 1.3.5 1.6-1.1.1-1.9 0-1.7-.2.2-.2 0-.4-.3-.4-.4 0-.9.2-1.1.5-.3.3-.8.3-1.5 0l-5-.9c-2-.2-3.8-.6-3.8-.8 0-.9 9.4-1.3 10.4-.5Zm20.4 3.3c2.2.7-.5 2-3.8 1.8-1-.1-1.1-.3-.4-1 .5-.4.6-.7.1-.7-.4 0-.9.2-1.1.5-.6.7-3.7.7-3.7 0 0-.4.6-.6 1.4-.4.7.2 1.1 0 1-.2-.5-.6 4.7-.6 6.5 0Zm-33.8.4c.2.4-.7.6-2.5.5-2.4 0-2.6-.1-1.2-.5 2.4-.6 3.2-.6 3.7 0Zm1109.8 10.3c.2 1.4-1.4 2.9-3.2 2.8-1.5 0-1.6-1-.5-3 1-1.7 3.4-1.6 3.7.2Zm-93 1.5-2.6.5-2.4.3 2.4-.7c2-.6 3.4-.7 2.6-.1Zm111.6 1.5c-.9.5-1.5.4-2 0s-.2-.6 1.3-.6c1.7 0 1.8.1.7.6Zm-47.7.8c0 .3-.3.5-.7.5-.4 0-.5-.2-.3-.5s.5-.6.7-.6c.2 0 .3.3.3.6Zm10.2.6c2.2 0-3 1.6-5.4 1.6-1.5 0-3.5.2-4.5.5-2.3.7-3.6 0-2-.9a10 10 0 0 1 4-.7c1.5 0 3.3-.3 4-.5.7-.3 1.7-.4 2.2-.3.5.2 1.3.3 1.7.3Zm-30.9 2.5c-1.3.7-7.3.7-7.3 0 0-.3 1.9-.5 4.2-.5 3 0 3.9.2 3.1.5Zm-1007-4c.6.1 1 .5.7.8-.6.7-3.4.5-3.8-.4-.4-.9 1.2-1 3.1-.5Zm932 5.4c-.6.5-1 .5-1.6 0-.6-.6-.4-.7.8-.7 1.2 0 1.4.2.8.7Zm57.4 1.2-.7.6c-.2 0-.3-.3-.3-.6s.3-.5.7-.5c.4 0 .5.3.3.5Zm-76.9.7c-.5.3-1.4.5-2 .5-.8 0-.8 0 0-.5.6-.3 1.5-.5 2-.5 1 0 1 0 0 .5Zm-14.6 4.5c0 .8-1.2 1.3-5 2-5.3 1-7.8 1.1-8.4.3-.5-.6-.7-.5-1.4.2-.9.8-8.6 2-8.5 1.2 0-.5 1.8-1.9 2.5-1.9.3 0 1.5-.6 2.5-1.3 1.7-1.2 2-1.3 2.7-.6.4.5.9.8 1 .6l4.6-.5a69 69 0 0 0 6.6-.7c2.7-.5 3.4-.3 3.4.7Zm-899.4-1.5c-.4.1-1.2.1-1.6 0-.5-.2-.1-.3.8-.3 1 0 1.3.1.8.3Zm852 8c-1.2.7-2.1.7-1.6 0 .2-.2 1-.5 1.6-.5 1 0 1 .1 0 .6Zm168.1 2c.2 0 .3.4.3.9s-.6.8-1.6.8-1.9.3-2.2.6c-.3.4 0 .5.7.3.6-.2 1 0 1 .2 0 1-2.1.3-2.3-.9-.3-1.2 1.6-2.5 3-2.1l1.1.3Zm-180.4.4c-2.2.8-3.3 1-5.2.9-1 0-1.1-.2-.4-.9.6-.5 2-.8 4.2-.7 3.4 0 3.4 0 1.4.7Zm55.6.9c0 .4-.3.9-.6 1-1 .5-2.7-.3-2.3-1 .5-1 3-1 2.9 0Zm-4 1.9c1.4 0 1.8.8.6 1.3-.4.2-.6.7-.4 1.1.4.8-1.8 1.4-3.3 1-.5-.2-1-.6-1-1 0-.9 1.8-1.4 3-1 .6.2 1 0 1-.2s-1-.7-2.2-1c-2-.5-2.5-.5-3.7.4-1 .8-1.6.9-2.7.4-1.8-.8-1-1.6 2-1.7 1.2 0 2.4-.5 2.5-.9.3-.5.7-.4 1.6.4.7.6 1.9 1.2 2.6 1.2ZM669 152.3h-1.7c-.4-.2 0-.3.9-.3s1.3.2.8.3Zm140.3 2.2v1.7c-.4 2-3.5 3.4-3.4 1.6 0-.5-.7-.8-1.7-.8-2.4 0-2-.6 1.2-2 3.4-1.3 3.8-1.4 3.9-.5Zm138.3.6c-.6.3-.9.7-.7 1 .2.2-.5.4-1.6.5-2 0-2 0-.5-.5.8-.4 1.5-.8 1.5-1.1 0-.2.5-.4 1.1-.4 1 0 1 0 .2.5Zm-203.3 0c-.2.3-.7.5-1.2.5s-.4-.2.2-.5c1.3-.7 1.6-.7 1 0Zm59.4.1c-.6.2-1.7.2-2.3 0-.7-.1-.1-.2 1.2-.2 1.2 0 1.8 0 1.1.2Zm-43.4 1.6c-.2.3-.6.5-.7.5-.2 0-.3-.2-.3-.5s.3-.6.7-.6c.4 0 .5.3.3.6Zm-21 .4 2 1 1.7.6h-1.8c-1 0-2.3.2-2.8.4-.7.2-1 0-1-.6 0-.5-.4-.7-1-.5a4 4 0 0 1-2.2-.1c-1-.4-.7-.5 1.1-.8 2.7-.4 3.6-.4 4 0Zm12.8 0-1.3-.1c-.2-.2.2-.3.9-.3.8 0 1 .1.4.3Zm94.3.9c0 .4-.2.8-.6.8-.3 0-.7-.4-1-.8-.2-.5 0-.9.7-.9.5 0 1 .4 1 .9Zm-117.7 1.5c.6.6.6.8-.1.8l-4.1.2c-2.2.1-3.2 0-3.2-.5 0-1 .5-1.2 3.7-1.2 1.8 0 3.2.3 3.7.7Zm52.1 1c.5.6-3.7.7-5 0-.6-.3-.1-.5 1.9-.5 1.5 0 3 .3 3.1.5Zm-62.5.9a15 15 0 0 1-3.6.4 9 9 0 0 0-2.8.3c-.7.2-1.6.3-2 0-.5 0-.2-.2.6-.2s1.6-.3 1.8-.6c.3-.3 2.2-.5 4.2-.5 3.4 0 3.6.2 1.8.6Zm-12.8 1.3c-.5.2-1 .1-1.3 0-.2-.2.2-.3.9-.3s1 .1.4.3Zm48.4.5c-1.3.6-4.2.6-3.6 0 .2-.4 1.3-.6 2.5-.6 1.6 0 1.9.2 1.1.6Zm-62.2.1a55 55 0 0 1-12.8 2c-.8-.7.4-1 6-1.7 7.3-.9 7.5-.9 6.8-.3Zm-22.6 2.1c-.3.3-.9.5-1.4.5-.6 0-.9-.2-.6-.5.2-.3.8-.5 1.4-.5.5 0 .8.2.6.5Zm-8.4 3.5c0 .8-2.6 1.6-4.8 1.4-.6 0-1.3.2-1.5.5-.7.8-7.5.6-7.9-.3-.5-1.1 1-1.4 2-.4.6.7.9.7 2.3-.1.9-.5 2.8-.9 4.2-1a16.5 16.5 0 0 0 5.6-.9l.1.8Zm-16 2.5c.1 1-.1 1-2.4.7-2.9-.5-3.6-.8-3.5-1.4 0-.2 1.2-.4 2.8-.4 2.2.1 2.8.3 3 1.1Zm-7.8-.4c-.5.2-1 .2-1.3 0-.2-.2.2-.3.9-.3.8 0 1 .2.4.3ZM70 172.3c-.4.2-1.2.2-1.6 0-.5-.1-.1-.2.8-.2 1 0 1.3.1.8.2Zm10.7.6c0 .3-.5.6-1.4.7-1.5.1-2-.7-.6-1.2 1.1-.4 1.8-.2 2 .5Zm496.8 2c0 .2-.5.4-1 .6-.6.2-.9.1-.7-.2.4-.5 1.7-.8 1.7-.3Zm2.7.4c0 .3-.4.6-.7.6-.4 0-.6-.3-.3-.6.2-.3.5-.5.7-.5.1 0 .3.2.3.5Zm5 .1c-1.7.3-2.9.3-3.3 0-.5-.4.4-.6 2.6-.5h3.3l-2.6.5Zm-500 0c0 .2-.6.5-1.2.5-.7 0 0 .4 1.5.8 1.4.4 2.3.7 2 .8-1.4 0 1 1.3 2.7 1.3 1 0 2 .4 2 .7.5 1.1-1.8 1.3-4.2.4-2.3-1-2.4-1-3.3 0-1.1 1.3-8.6 1.3-10.1 0-1.6-1.3 0-2.5 2.7-1.9 1.7.4 2 .3 2.3-.6.3-.6.8-1 1.3-.8.5.2 1 0 1-.2 0-.3-.4-.6-1-.6-.4 0 .2-.3 1.3-.7 2-.7 3-.6 3 .3Zm-4 2.6c0 .3.4.6 1 .6.5 0 .8-.3.6-.6-.2-.3-.7-.5-1-.5-.4 0-.7.2-.7.5Zm12.8-2.7c1.5.1 1.4 1-.2 1.3-1.7.4-7.4-.7-7-1.3.3-.4 1.7-.4 7.2 0Zm90.8 3.4c.6.5.4.8-.7 1.2-1.2.5-2 .5-3.4 0-1-.5-1.6-1-1.4-1.4.6-.7 4.5-.6 5.5.2Zm23.4 2.7c0 .3-.3.6-.7.6-.3 0-.6-.3-.6-.6s.3-.5.6-.5c.4 0 .7.2.7.5Zm-19.8.8c-.5.2-1.1.2-1.3 0-.2-.2.2-.3.9-.3s.9.2.4.3Zm28.4.4c0 .3-.3.4-.6.2-.4-.2-.7-.4-.7-.6 0 0 .3-.2.7-.2.3 0 .6.3.6.6Zm8.3.9c.2.5 0 .7-.4.6-1-.3-1.5-1.5-.7-1.5.4 0 .9.4 1 .9Zm-85.1.8c1.2.4 1.1.5-.4.5-.9 0-2.5-.4-3.6-.8l-2-.8 2.3.3 3.7.8Zm82.5.9c-.2.2-.8 0-1.2-.4-.7-.5-.6-.6.4-.3.6.2 1 .5.8.7Zm46.2.9c.7 0 1.5.3 1.7.6.4.5-.7.6-4 .3l-5-.7c0-.1.2-.6.6-1 .8-.7 1.1-.7 3.2 0 1.3.4 2.9.8 3.5.8Zm-44-.5c0 .1-.2.3-.6.2-.3 0-.6-.2-.6-.5s.3-.5.6-.3c.4.2.7.5.7.6Zm69 1c.6.4 1.7.6 2.3.4.7-.1 1.4 0 1.6.3.5.7-1.9 1-4.9.6-1.5-.3-3.4-.4-4.2-.2-1 .1-1.8-.2-2.3-1-.8-1-.7-1 2.6-1 2 0 4 .4 4.8.8Zm-61.9.6c1.2.8 1.2.8-.5.8-2.2 0-3.9-.5-3.9-1.1 0-.8 3-.6 4.4.3Zm51.9.6c.5.7-.4.7-1.7 0-.9-.5-.8-.5.1-.5.6 0 1.3.2 1.6.5ZM-85.8 9.3c0 .7.7 1.4 1.7 1.7.9.4 1.6.5 1.6.4 0-.2-.7-1-1.6-1.8-1.6-1.3-1.7-1.4-1.7-.3ZM4 9.4c0 .3.3.6.7.6l.6-.2c0-.2-.2-.4-.6-.6-.4-.2-.7 0-.7.2Zm-12.6 1c-.5.8-.5 1.2 0 1.2.8 0 1.7-1.6 1.1-2-.2-.2-.7.2-1.1.8Zm145.6.1c-.6.2-1.3.7-1.4 1.2-.4 1.2.8 4 1.2 3 .2-.4.8-.7 1.3-.7s1-.4 1-.8.6-1 1.4-1.1l1.5-.4-1.7-.7c-.8-.4-1.7-.8-1.9-.7l-1.4.2Zm742.4 4c-.2.2-2.4.4-5 .4-4.8.2-8.5 1.2-8.5 2.5 0 .6.9.9 2.9 1 1.8.1 2.7 0 2.5-.3-.5-.7 5.5-2.2 8.5-2.2l5.7-.4c3-.3 3.4-.4 2-.7a26 26 0 0 0-8-.3Zm-52.9.3c.2.2.8.2 1.3 0 .5-.1.4-.2-.4-.3-.7 0-1.1.1-.9.3Zm-886.2-4c.2.4 1.2.8 2.4.8 1.7 0 2 0 1.3-.7-.9-.9-4-1-3.7 0Zm-2.8.9c0 .7 2.4 1.7 5.5 2 3 .4 4.7.1 4-.8-.1-.3-.8-.2-1.5.1-.9.5-1.8.3-4.2-.6-3.4-1.3-3.8-1.3-3.8-.7Zm208.9 1.2c0 .3.3.6.6.6.4 0 .7-.1.7-.2 0-.2-.3-.4-.7-.6-.3-.2-.6-.1-.6.2ZM-32 12.5c0 .3-.5.6-1 .5-.6 0-1.4.7-1.8 1.4-.7 1.1-.6 1.5.2 2.2 1 .8 1.1.8 1.5-.2.3-.7.8-1 1.5-.8.6.2.9 0 .8-.5-.2-.5.5-1.3 1.4-2l1.7-1-2.2-.1c-1.2 0-2.1.2-2.1.5Zm101.5 1c-.2.1-.4.7-.4 1.3 0 .7.5 1 2 1 1.8 0 2 .2 1.6 1-.5 1.3.3 1.5 1.7.5.8-.6.8-.5.1.2-.6.6-.6 1 .2 1.9.9 1 1 1 2 0 1.3-1.5 1.3-1.9-.7-2.6-.9-.3-1.6-1-1.6-1.3 0-.7-2.8-2.4-3.8-2.4-.4 0-.8.1-1 .3Zm-140.5 0c-.2.3-1.2.4-2 .2-1.4-.3-1.6-.2-1.6.9 0 .9.5 1.4 2 1.9 2.4.7 3.4.5 2.9-.6-.6-1.3 1.8-2 4.9-1.2 3 .6 3.7.4 3-1-.2-.6-1.2-.8-4.5-.8-2.3 0-4.4.2-4.7.5Zm-9.6 1.3c0 .3.8 1.1 1.7 1.8 1.5 1.2 1.7 1.2 1.5.3-.2-1-3.2-3-3.2-2.1Zm904.1 5.6c-.5.3-1.1.4-1.4.3-.3-.2-.7 0-1 .3-.1.3 0 .5.5.5.7 0 .7.2 0 .5-1.4.7-.5 1.3 1.2.9.8-.2 1.3-.5 1.1-.7-.2-.2.1-.6.7-1 1.3-.7.3-1.4-1-.8Zm175 1.3c0 .7 3.3 1.9 5.1 1.9 2.1 0 2-.9-.3-1.3l-3.3-.7c-.8-.2-1.5-.1-1.5.1Zm-841.3-2.1c-.3.3-.3.7-.1.8.5.4 1.8-.3 1.8-1 0-.6-1.2-.6-1.7.2ZM850 23.2c-2 .3-1.3 1.2 1 1.2l5.9.3 3.6.4L859 24c-1.6-1-5.8-1.4-8.9-.8Zm-690.4-2.6c0 .3.3.6.7.6.3 0 .6-.1.6-.3l-.6-.6c-.4-.1-.7 0-.7.3ZM954 25c0 .5.9 1.1 2 1.4l2 .4a9 9 0 0 0-2-1.4c-1.6-.9-2-1-2-.4Zm-52.7.2c-1.5.6-1.6 1.7-.3 2.6 1.1.8 5 1.7 5 1.2-.3-1.6.2-2.2 2-2.2 2.6 0 4-1.4 2-1.8-2.4-.6-7.4-.5-8.7.2ZM-114 20.8c.4.4 1 .6 1.2.4.2-.2-.2-.5-.8-.7-1-.3-1-.2-.4.3Zm1039.7 5.6c-.2.3.2.6 1 .6s1.2-.3 1-.6c-.2-.3-.7-.5-1-.5-.3 0-.8.2-1 .5ZM-121.6 21c.2.2.8.2 1.2 0 .6 0 .4-.2-.4-.3-.7 0-1 .1-.8.3Zm156.8 1.6c-.8.6-1.4 1.3-1.4 1.6 0 .2.6.9 1.4 1.4.7.6 1.3 1.3 1.3 1.7 0 .9.6 1 1.9.3.5-.3.8-1 .6-1.6-.2-.7-.1-1.3.2-1.5.7-.3-1.2-3-2-3a5 5 0 0 0-2 1.1Zm-150 .7c.3.8.8 1.7 1.2 1.9.4.2.2.5-.6.7-3.3.9-3.3 1-1.2 1.5 1.4.3 2.2 1 2.3 1.7.1.6.6 1 1 1 1-.1 1.1 1.3.2 1.8-.9.4-1 1.9-.1 1.9.3 0 .7-.5.9-1 .3-.8.8-1 2.5-.8 2 .3 2 .2 1.4-.8-.4-.6-.7-1.4-.7-1.6.4-1.4-.2-2.3-1.6-2.6-1-.2-2-.8-2.5-1.2-.7-.8-.7-.9.3-.6 1.7.6 1.4-.2-.7-2-2.3-1.8-3-1.8-2.4.1Zm347.2 1c-.5.7.3 1.7 1 1.3.9-.4.9-1.9 0-1.9-.3 0-.7.3-1 .6Zm-162-.2c0 .4.5.7 1 .7s1.1-.3 1.3-.7c.2-.4-.1-.7-1-.7-.7 0-1.3.3-1.3.7Zm807.8 4.3c-2 .6-1.7 2.3.6 2.5 1 .1 2-.2 2.5-1 1.5-1.8.1-2.5-3-1.5Zm-974.4-4.5c-1.6.9-1.2 1.8.6 1.8 1 0 1.7-.2 1.7-.5 0-.2.6-.5 1.4-.6.8-.1 1.6-.5 1.8-.9.3-.8-4-.7-5.5.2Zm6.4 1.6c.7.6 1.6.8 2.2.6 1.5-.4 1.2-.6-1.3-1.1-1.9-.4-2-.3-1 .5Zm-71.6-.3c-1 .9-.3 1.8 1.6 1.8 1.2 0 2-.2 1.7-.5-.6-.8-2.8-1.7-3.3-1.3Zm323 2c0 .2.4.5 1 .5s.8-.3.6-.6c-.2-.3-.7-.5-1-.5-.4 0-.6.2-.6.5Zm625.3 3.4c0 .3 1.2.5 2.5.5 1.9 0 2.3-.1 1.5-.5-1.3-.7-4-.7-4 0ZM199 28c.4.5.8.9 1 .9l-.2-.8c-.2-.5-.7-.9-1-.9-.4 0-.4.4.1.8Zm22.2.4c-1 .4-.8.5 1.2.6 1.3 0 2.5-.2 2.5-.5 0-.7-1.9-.7-3.7 0Zm587.1 3.3c-.8.4-.7.5.6.5.8 0 1.3-.2 1-.5-.4-.7-.3-.7-1.6 0Zm-767-4c0 .1.2.4.6.6.4.2.7 0 .7-.3s-.3-.5-.7-.5c-.4 0-.7 0-.7.2Zm203.5 1.4c0 .6 1.9 1.2 2.3.6.2-.3-.1-.6-.7-.8-1.4-.4-1.6-.4-1.6.2Zm749 4h2c.6-.2.2-.3-.9-.3-1 0-1.6 0-1.1.2Zm-1124.9-5.5c0 .3-1 .5-2.3.5a7.7 7.7 0 0 0-6.2 3.5c-.8 1.2-7.2 2.7-9 2-2.5-.7-1 .5 1.8 1.6a11 11 0 0 1 3.5 1.8c.5.7 2.9 1.3 6.8 1.7l2.3.2-2.4-.6c-3.4-1-3.7-1.4-2-2.6.8-.6 2-1.9 2.5-2.8 1-1.5 1.3-1.6 3.7-1.4 1.9.3 2.4.2 2.2-.4-.2-.4.8-.9 3-1.4 4-.8 5-2.3 1.1-1.8-1.5.3-2.3.2-2.3-.2s-.6-.6-1.4-.6c-.7 0-1.3.2-1.3.5Zm-9.8 7.5c.5 0 .4.2-.2.5-1 .6-2.7.2-2.7-.6 0-.3.5-.4 1-.2.6.2 1.5.3 1.9.3ZM39.8 29c0 .6-.3 1-.9 1.4-.3.2.2.4 1.1.4 2.3 0 2.7-.6 1-1.4-.6-.4-1.2-.6-1.2-.4ZM809 33.6c-1 .4-1.3.9-1 1 .4.2 1.2 0 1.9-.7 1.4-1.2 1.2-1.3-1-.3Zm-894.3-4.3-3.5.5-2.4.3 1.3 1.2c1.2 1 2 1 4.4.8 1.8-.2 3.4-.1 3.9.3.6.4 1.3.3 2.4-.6l1.5-1.1-1.5-.4c-.8-.1-1.3-.5-1-.8.3-.4-2.9-.5-5.1-.2Zm21.6 1c1.8.6 3.6 1 4 1 1.2 0-4.6-2-6-2-.7-.1.2.4 2 1Zm79.5-.3c0 .3-.8.8-1.8 1.2-1 .4-1.5.8-1 1 .4 0 1.5-.3 2.4-.8 1.8-1 2.2-1.8 1.1-1.8-.4 0-.7.2-.7.4Zm253.5 1.7c0 .4.4 1 1 1.4.7.5.8.5.5-.5-.4-1.3-1.5-2-1.5-1Zm-365.7-1.9c.2.2.8.2 1.2 0 .6 0 .4-.2-.4-.2-.7 0-1 0-.8.2Zm304.2 2c-.3.2 0 .3.6.1 1.1-.3 1.4-.7.4-.7-.3 0-.8.2-1 .5ZM802.2 36c-1 .2-3.4.3-5.4.3-2.6 0-3.6.2-3.2.6.3.3 2 .4 4.4.2l5.7-.4c1 0 1.8-.3 1.8-.6 0-.6-.9-.7-3.3-.1Zm-895.1-4.2c.2.2.6.5 1 .5.3 0 .6-.2.6-.5 0-.2-.4-.4-1-.5-.5 0-.8.2-.6.5Zm-12 1c.4 1.2 2.7 3.2 3.7 3.2.3 0 .5-.5.6-1 0-.8.4-1.2 1.3-1.2 2.1 0 1-.9-1.5-1.2l-3.4-.7c-1-.4-1.2-.2-.8.9ZM203.6 34c.5.5 1.3.9 1.7.9.6 0 .6-.2 0-.8a3 3 0 0 0-1.8-.9c-.8 0-.8.1 0 .8Zm42.5-.2c.2.2.8.2 1.3 0 .5-.1.3-.3-.4-.3s-1.1.1-1 .3Zm498.6 2.7c.4.2 1.3.2 2 0 .6 0 .3-.2-.8-.2s-1.7 0-1.2.2Zm-919.7-2.9a4 4 0 0 0-.1 2.2c.2.7 0 1.4-.4 1.5-.5.2-.1.2.7.2 1.8-.2 2.8-.9 1.2-1-1 0-1-.2-.7-1.8.4-2 0-2.6-.7-1Zm921 4.6h2c.7-.1.3-.2-.8-.3-1.1 0-1.6.1-1.2.3Zm-10.1 1c-1.3 1-.7 1.7 1.6 2 1.4 0 1.7-.2 1.9-1.4.2-1.2 0-1.5-1.1-1.5-.7 0-1.8.4-2.4.9Zm-17.1-.1c-.3.2-1.5.5-2.7.7-1.6.4-1 .4 2.3.3 2.5 0 4.7-.2 5-.4.2-.2 0-.4-.6-.4-.5 0-1.5-.1-2.2-.3-.8-.2-1.6-.1-1.8 0Zm-919.3-4.5c0 1 1.5 2.4 2.8 2.3 1 0 1.2 0 .3-.3-.6-.1-1.3-.7-1.5-1.3-.4-1-1.6-1.5-1.6-.7Zm132 1c-.2.2.2.7 1 1 1.3.6 2.4 0 1.7-1-.5-.7-2.1-.8-2.7 0Zm771.8 5.2c-2.7 1-2.7 1-1 1.4l2 .5 1 .4a4 4 0 0 0 1.8.2c2.2-.3 1.1.7-1.2 1-1.3.2-2.3.6-2.3 1 0 .6 1 .6 2.7-.1.8-.4 3-.8 4.8-.9 4-.3 4.5-.5 2.7-1l-2.7-1a8 8 0 0 0-3.5-.2c-1.5.3-2 .2-2-.4 0-.5.5-.8 1-.8.6 0 .9-.3.7-.6-.6-.7-.8-.6-4 .5Zm27.6-.3c-.8.4-.6.5.8.5 1.1 0 1.7-.2 1.5-.5-.5-.7-1-.7-2.3 0Zm-12.4 2.7c-.3.4 3.2 1 8.7 1.3l4 .2-3.4-.4a24 24 0 0 1-4.7-1c-1.4-.7-4.1-.7-4.6-.1Zm-39.2 1c-2.5 1-2.5 1-1.2 1.6.8.2 2 .3 2.6 0 .7-.2 1.6-.3 2-.2.5 0 .9-.2.9-.5l.4-1.3c.6-1.2-1.3-1-4.7.3Zm52.4 1h1.3c.5-.2.3-.3-.4-.4-.7 0-1.1.1-1 .3Zm-71.4 2.5c0 .3.5.5 1 .5.6 0 .9-.2.7-.5-.3-.3-.7-.6-1-.6-.4 0-.7.3-.7.6ZM-160.4 45c.8 2 2.2 3.1 3.7 3.2.7 0 .7-.3-.2-1-.7-.7-1-1.4-.8-1.6.2-.3-.5-1-1.6-1.4l-1.8-1 .7 1.8Zm31-1c0 .3.5.5 1 .5.6 0 1 0 1-.2l-1-.5c-.5-.2-1 0-1 .2Zm-21.7 1c1.4 1.9 3 2 2.6.3-.2-1-.7-1.4-2-1.4-1.5 0-1.6 0-.6 1.2Zm13.1.2c0 .6 2.1 2 3 2 .4 0 .8-.4.8-.8 0-.5-.4-.8-.9-.8l-1.8-.4c-.6-.1-1-.2-1 0Zm12.6.7c0 .1.3.4.7.5.4.2.7.1.7-.2 0-.3-.3-.6-.7-.6-.4 0-.7.1-.7.3Zm-18.6.7c0 .3.3.6.7.6.3 0 .6-.1.6-.3l-.6-.6c-.4-.1-.7 0-.7.3Zm-11 .7c-.2.4 0 1.3.3 2 .6.8.6 1-.3 1-.5 0-1 .3-1 .6 0 .6.4.6 2.5.2 2-.4 2.6-2.2 1.1-3.5-1.3-1.2-2.1-1.3-2.6-.3Zm16.5 1.3c-.8.6-.7.8.6.8.9 0 2.2.1 3 .3 1.1.3 1.5.1 1.5-.5 0-.4.4-1 .9-1 .4-.2-.5-.4-2.2-.4-1.8 0-3.3.3-3.8.8Zm7.5-.3c.2.3.8.6 1.3.6.6 0 1-.3 1-.6s-.6-.5-1.4-.5c-.7 0-1.2.2-1 .5Zm-56.2.5c0 .5.1.9.3.7.3-.2.3-.7.1-1-.2-.5-.4-.4-.4.3Zm11.2 2c-1.7 1.5-1.9 3.2-.3 3.2.6 0 1 .3 1 .6s.6.5 1.3.5c1.3 0 1.7-.8 1.4-2.7v-2c0-1.7-1.3-1.5-3.4.3Zm18.9-1.2c.2.2.8.2 1.2 0 .6-.1.4-.3-.4-.3-.7 0-1 .1-.8.3Zm-11.8.9c.2.5.7.9 1 .9 1 0 .4-1.3-.6-1.5-.5-.2-.6 0-.4.6Zm-46.7 2.8c-.3.4-.2.5.2.3s.9 0 1 .4c.3.4.4.5.4 0 .1-1-1-1.4-1.6-.7Zm67.9.3c.2.3.7.6 1 .6.4 0 .5-.2.3-.5s-.7-.6-1-.6c-.4 0-.5.2-.3.5Zm1163.6 10.8a59.3 59.3 0 0 1-14 2.8c-7.5.2-9 .3-8.7.7.1.3-.3 1-1.1 1.7l-1.4 1.2 4-.2c8.4-.6 15-1.4 17.9-2.2 1.6-.4 5.2-.8 8-.8 5.6 0 6.3-.6 2.3-2-1.5-.5-2.7-1.3-2.7-1.6 0-1-.4-.9-4.3.4Zm-1194-6.1c0 .6.5 1.3 1 1.6 1.1.8 2.4-.2 2-1.6-.5-1.3-3-1.4-3 0Zm-44.5.6c0 .4 1.3 2 2.8 3.3a367 367 0 0 1 6.1 5.4c3.1 2.8 5 3.8 5 2.5 0-.3-.3-.5-.6-.5-.4 0-.9-.6-1.1-1.2a11 11 0 0 0-1.7-2.7c-1.4-1.6-.6-2.6 2-2.6 1.6 0 1.6 0 .4-1.1-1.4-1.4-2.8-1.4-2.7-.2 0 .6-.5 1-1.4 1.1-1.1.2-1.6-.1-1.9-1.2-.3-1-.8-1.4-1.9-1.4-.8 0-2.3-.5-3.2-1.1-1.5-1-1.8-1-1.8-.3Zm40.2 1.8c0 1.5.5 2.9 1.3 3.6 1.2 1 1.2 1.1 0 1.1l-2.6.3c-.8.1-2.4.3-3.7.3-1.3 0-2.7.5-3.1 1-1 1-1.2 3.4-.2 3 1.3-.7 4 .2 4 1.3 0 1.7 2.5 2.8 6.7 2.8 2.1 0 3.8.2 3.8.4 0 .3 1 .4 2.3.3 1.9-.2 2.3 0 2.7 1 .3.7.4 1.5.4 1.8-.3 1.1 1.9 1.9 3.6 1.2 2-.7 2.2-1.4.5-1.4-.7 0-.8-.2-.3-.4 1.3-.4 1-1.2-.8-1.8-2.2-.7-2.1-1.9.1-2.6 5-1.4 4.7-1.3 3.1-1.5-.8-.2-1.8-.6-2.2-1-.5-.5-1.5-.8-2.3-.8-1.7 0-4.3-1.5-4.3-2.5 0-1.5-2.1-1.4-4 .3-1.5 1.3-2 1.5-2.6.8-1.2-1.1 4.8-3.4 9.5-3.5.6 0 1-.3.7-.6-.2-.3-.9-.4-1.5-.3l-3.2.6c-2 .3-2 .2-1.8-.8.3-.8 0-1.3-.8-1.5-.7-.3-1.3-1-1.3-1.5 0-.8-.3-1-1.2-1-.6.1-1.6 0-2-.4-.7-.5-.9-.1-.8 1.8Zm-.7 8.8c.6.5 1 1 .7 1.1-.4.4-3-.9-3-1.5 0-.7 1-.6 2.3.4Zm-8.9-10.4c0 .5 1.3.8 1.7.3.2-.3 0-.6-.7-.6-.5 0-1 .1-1 .3Zm1180.2 9.4c0 .3.2.6.3.6.2 0 .5-.3.7-.6.3-.3.1-.5-.3-.5s-.7.2-.7.5Zm-2.5.3c.3.2.8.3 1.3.1.5-.2.4-.3-.4-.3-.7 0-1 0-.9.2Zm40.8 2.7c.3.5 0 .6-1 .4-.7-.2-1.5-.1-1.8.1-.4.6 3 .7 4.7.2 1.6-.5 1.2-1.3-.7-1.3-1 0-1.5.2-1.2.6Zm-1190.9-5.8c.3.6 0 .8-1 .6-2-.3-1.7 0 1.3 1.5 3.5 1.7 6.6 1.5 6.1-.4-.3-1.5-.8-1.7-2-.8-.5.5-1 .3-2-.5-1.6-1.3-2.9-1.5-2.4-.4ZM-226 68c0 .7.6 1.5 1.3 2 .7.3 1.3 1 1.3 1.6 0 .5.6 1.4 1.2 1.9 1.5 1 4.8 1.2 4.8.2s-3-3.1-4.3-3.1a1 1 0 0 1-1-1c0-.6-.7-1.5-1.6-2-1.6-.8-1.7-.8-1.7.4Zm20.5-.8c-.9.7.3 1.9 1.9 1.9 1.4 0 1.5-.1.7-1.1s-1.9-1.4-2.6-.8Zm1192 7c-1.6 1-.8 1.7 1.2 1 .8-.4 1-.6.6-.7-.5 0-.7-.2-.5-.5.6-.8.3-.7-1.2.2Zm63.5 5c-1.3.3-3.4.4-4.7.2-1.8-.3-2.5-.1-2.8.5-.3.5-1.2.9-2.3.9-3.5 0-6.7 1-6.5 2 0 .7.6.9 2.4.7 1.2 0 2.5-.3 2.9-.6.4-.2 3-.6 6-1 5.3-.6 11-2 11-2.8 0-.5-3-.5-6 .1Zm-1258-6.6c0 .5 2.8 3.5 3.3 3.5 1 0 .6-3.1-.4-3.5-1.3-.4-3-.4-3 0Zm11.9.8c-1 .3-1.3.5-.8.5 1 .1 1 1.7 0 1.7-.3 0-1.2-.2-1.8-.5-1.3-.6-4-.2-4 .5 0 .2.8.7 2 1 2.4 1 4.1 3 4.2 5 0 1 .4 1.4 1.5 1.5.8.1 1.5 0 1.5-.3 0-.4.7-.3 2 0 1.6.6 2.2.5 3-.2 1.3-1 .8-2-1-2-.8 0-1.3-.3-1.3-.6s-.4-.6-1-.6c-2 0-2.6-1.5-1.5-4 1.1-2.7.9-2.9-2.8-2Zm1238 10.3c-.2.2-1.5.4-2.8.5-3.2.3-3.7.7-1.7 1.3a5 5 0 0 0 3.6-.3c2.5-1 2.5-1 1.8-1.4-.3-.2-.8-.2-1 0Zm-1219-4.6c.4 1.9 1.5 2.8 2.4 2.1.6-.5-1.3-3.8-2.2-3.9-.5 0-.5.7-.3 1.8Zm5.6.7c-.6.5-.4.8.8 1 2 .5 3-.4 1.3-1.2-1-.4-1.5-.4-2 .2Zm-16.2 6c.4.1 1.2.1 1.6 0 .5-.2.1-.3-.8-.3s-1.3.1-.8.3Zm-7.4 2.4c.5.3 1 .5 1.2.3.2-.1-.1-.4-.8-.6-1-.3-1-.3-.4.3Zm1.6 3.1c.5.6 1.2 1 1.7.8 1.2-.4 1.1-1-.2-1.5-1.8-.6-2.3-.4-1.5.7ZM1031 100c.5.2 1.3.2 1.7 0 .5 0 .1-.2-.8-.2-1 0-1.3 0-.9.2Zm-1227.3-5.4c-1.3.7-.3 1.3 1 .7.7-.3 1-.7.6-.9-.4-.1-1 0-1.6.2Zm.7 2.2c0 .2.9.9 2 1.4 1.7.7 2.2.7 2.7.2.4-.6 1-.6 2.8 0 2.7.7 4.7.8 4.1 0-.2-.2-1.3-.5-2.3-.5-1 0-2.2-.4-2.7-.8-.9-1-6.6-1.2-6.6-.3Zm19.5 6.6c-1.2.3-1.2.4.3.8 1.7.4 2.2.3 1.5-.6-.2-.3-1-.4-1.8-.2Zm-12.1 3.5c.2.2.8.2 1.3 0 .5-.1.3-.2-.4-.3-.7 0-1.1.1-1 .3Zm1230.7 8.8c-.6.6-.6.8.3 1 1.1.4 3-.4 3-1.3 0-.7-2.5-.5-3.3.3Zm-19.4 2.1c-.5.5-1.1.8-1.5.8-.3 0-1 .4-1.6.8-.5.4-1.3.8-1.8 1-.5.1-.6.4-.1.8 1.6 1.5 10.5-2 9.2-3.7-.5-.8-3.3-.6-4.2.3Zm12 3.2c-1 .2-2.5.3-3.5 0a6 6 0 0 0-3 .3c-1 .5-.9.6 1 .6 1.8 0 2.2.2 1.8.9-.3.7 0 .8 1.3.5 2.6-.5 5.9-2.2 4.9-2.6-.5-.1-1.6 0-2.5.3Zm-22.2.6c.5.2 1.2.2 1.7 0 .4-.1 0-.2-.9-.2s-1.3 0-.8.2Zm-1176.8-6c0 .4 5.2 2.5 6.2 2.5.4 0 .2-.3-.5-.6l-2.2-1.4c-.8-.7-3.4-1-3.5-.5Zm-9.2.9c-.9.2-1.4.6-1.2.8.2.1 1.2 0 2.2-.5 2.1-1 1.5-1.1-1-.3Zm1196.1 8c0 .4.1.6.3.6.2 0 .5-.2.7-.5.3-.3.1-.5-.3-.5s-.7.2-.7.5Zm-1178.2-5c.9 1 1.3 1 1.3.3 0-.2-.5-.6-1-.8-1-.3-1-.2-.3.5Zm1146.3 14c-2.5 2.4-3.7 4.8-2.6 5.2 1.2.3 3.8-.6 3.8-1.4 0-.4 1-.7 3-.7 4 0 5.3-1 3-2.4l-2.7-1.9c-1.5-1.2-2.3-1-4.5 1.2Zm-1095.6-4.7c-.5.7.5 3.2 1.3 3 1.1-.3 1.1-3.4 0-3.4-.5 0-1 .2-1.3.4Zm1042.3 8.9c0 .3 0 .5.2.5s.5-.2.8-.5c.2-.3 0-.6-.3-.6-.4 0-.7.3-.7.6Zm-21.3 3c-1.2 1-1.8 2-1.5 2.2 1 .3 4-1.7 3.6-2.5-.1-.3.2-.7.8-.6.6 0 1-.3 1-.6 0-1.2-1.9-.4-4 1.5Zm7-1c-.7.7-1 1.2-.6 1.2a6 6 0 0 0 2.2-1.1c1-.8 1.3-1 .5-1.1-.5 0-1.5.5-2.2 1Zm-1019.3-5.5c-.2.3-.3.5-.1.5l1.4.4c.7.2 1 0 1-.6 0-1-1.6-1.2-2.3-.3Zm-12.3.5c0 .3.6.5 1.3.5.7 0 1.3-.2 1.3-.5s-.6-.6-1.3-.6c-.7 0-1.3.3-1.3.6ZM940.2 141c-.6.3-1.6.5-2.2.4-.8-.1-1.2.3-1.3 1.4-.2 1-.6 1.7-1 1.8-1.1.3-.8 1.2.5 1.2 2 0 2.3.7.7 1.5l-1.6.6h1.5c1.4 0 7-2.6 7.9-3.6.2-.3-1-.2-2.6.2-2.4.6-2.9.6-2.8 0 0-.5.4-.8.8-.8.5 0 1-.3 1-.6s.7-.6 1.6-.8c1-.2 1.5-.6 1.2-1.1-.4-.9-2-1-3.7-.2Zm27.4.2-.3 1.2c-.2.7 0 .8.7.3.6-.3.8-.8.6-1.1-.3-.5-.9-.7-1-.4ZM-121 136.8c-.7 1 0 1.2 2.1.8 1.7-.4 1.8-.4.5-.8-1.8-.7-2.1-.7-2.6 0Zm21.6.3c0 1 .4 1.1 1 .4.2-.3 0-.7-.3-.9-.4-.2-.7 0-.7.5Zm1022.3 6.4c-1 1-2.7 1.8-3.7 2-2.2.3-6.4 2.7-5.6 3 .3.2 2.1.1 4-.1 3.5-.4 6.1-2 6.2-3.5 0-.3.8-.9 1.7-1.2 1-.4 1.6-.9 1.3-1.2-.7-1-2-.6-4 1Zm-1020-5.5c-.8.3-1 .5-.3.5.5 0 1.4-.2 2-.5 1.2-.6.2-.6-1.7 0Zm1008.3 5.5c0 .3.7.5 1.5.5 1.2 0 1.3 0 .5-.5-1.3-.7-2-.7-2 0Zm-18.7.1c-.2.2-2.6.5-5.3.7-2.7.2-5 .6-5 1 0 .2 2.3.6 5.2.6 4 .2 5.3 0 5.6-.6.4-.9 0-2.1-.5-1.7Zm32.6 3.7c0 .3.6.4 1.4.2.7-.1 1.3-.3 1.3-.4 0-.2-.6-.3-1.3-.3-.8 0-1.4.3-1.4.5Zm-30.6.5c-1.2.6-.7 1 2 1.4 1.6.3 2.1.2 1.9-.3-.4-1-2.8-1.7-4-1.1Zm32 3.4c-.7.8-1.4 2-1.4 2.7 0 .6-.5 1-1 1-.6 0-1 .3-1 .6s.7.5 1.6.6c1.2 0 1.7.3 1.7 1 0 .5.5 1.4 1.2 2 1.3.8 1.4.8 2.8-.3 1.8-1.5 2.6-5.3 1.2-6-.6-.4-.6-.5 0-.5.4 0 .8-.2.8-.5s-.6-.6-1.3-.6c-.7 0-1.3-.4-1.3-.8 0-1.3-1.7-1-3.2.8ZM-66 147.7c.2.2.8.2 1.2 0 .6-.1.4-.2-.4-.3-.7 0-1 .1-.8.3Zm976.2 6.7c-1.1.5-2.2.9-2.5.7-.2-.1-.6.1-.8.6-.5 1 .8 1 3.3 0 1-.4 2.5-.8 3.1-.8 1 0 1.1-.1.5-.8-1-1-1.2-1-3.6.3Zm-39.7 3.8c0 1.2.2 1.4 3 1.4 1.6 0 3-.1 3-.3 0-.7-3.1-2.4-4.5-2.5-1.2 0-1.5.3-1.5 1.4Zm-914-4.4c.3.2.8.2 1.3 0 .5-.1.4-.3-.4-.3-.7 0-1 .1-.9.3Zm8.2 1 4 1.6 2.6 1.2c3.7 1.7 9.6 5 9.6 5.4 0 .2 1 1.1 2 2 2 1.5 6.6 3 6.6 2.2 0-.8-7.3-6.5-8.3-6.5-.5 0-1.5-.5-2-1.1-.7-.6-1.8-1.1-2.4-1.1-2.2 0-4-1.1-3.5-2.2.3-.8-.1-1-3.1-1.3l-5.9-.7-2.3-.3 2.7.9Zm969.3 5.7c-.7 1 0 1.1 1 .2.5-.5.6-.8.1-.8-.4 0-.9.3-1.1.6Zm-11 2c0 .4.3.6.7.6.3 0 .6-.2.6-.5s-.3-.6-.6-.6c-.4 0-.7.3-.7.6ZM817 164.3c-.6.3-.2.5 1.2.5 1.2 0 2.3-.2 2.5-.4.4-.6-2.6-.7-3.7-.1Zm95.2.7c0 .5.5.9 1 .9.6 0 .8-.4.6-.9-.2-.4-.6-.8-1-.8-.3 0-.5.4-.6.8Zm-38.3 1c-.9 1-1 1.5-.4 2 1 .8 3.8-1.3 3.3-2.6-.6-1.2-1.6-1-2.9.5Zm-75-.4h2c.7-.1.3-.2-.8-.3-1 0-1.6.1-1.1.3Zm81.4 1.1c0 .3.6.6 1.3.8.8.1 1.4 0 1.4-.2s-.6-.5-1.4-.7c-.7-.2-1.3 0-1.3.1Zm-56.9 1.4c-.2.3-.1.5.3.5.3 0 .8-.2 1-.5.3-.3.1-.6-.2-.6-.4 0-.9.3-1.1.6ZM40 169.4c0 .4.2.8.6.8.3 0 .7-.4 1-.8.2-.5 0-.8-.7-.8-.5 0-1 .3-1 .8Zm771.7 3.8c0 .2.3.8.7 1.2.4.6.8.7 1.3.2.5-.3.6-.9.4-1.2-.5-.7-2.4-.8-2.4-.2Zm95.9 1.7-1.6 1 1.6.4 1.8.5c.2 0 .4-.6.5-1.4.2-1.8-.1-1.9-2.3-.5Zm-850.7-4.6c-.2.3-1.7.5-3.3.5-1.8 0-3 .2-3 .6 0 .4.7.5 2 .3 1.2-.2 3.8-.3 5.9-.3h3.7l-2.2-.8c-2.6-1-2.6-1-3-.3Zm621.3 3.7c.2.2.8.2 1.2 0 .6-.1.4-.2-.4-.3-.7 0-1 .1-.8.3Zm-7.5.8-4.7.7c-3.3.4-3.3.8-.2.8 1.5 0 3-.2 3.2-.5.2-.3 1.3-.5 2.4-.5 1 0 2-.3 2-.6s-.2-.5-.2-.4l-2.5.5Zm-629-3-2.8.4 3.5.1c1.9 0 3.6-.1 3.9-.4.4-.6-.6-.6-4.7 0Zm612 5.6c-.5.6 1.4.6 3.3 0 1.1-.4 1-.5-.8-.5-1.2 0-2.3.2-2.5.5Zm-12.3 1.6c-4.7.7-4.7 1 0 .7 3.8-.3 4.1-.2 3.1.5-1.6 1-1.5 1.4.3 1.4 1.5 0 4.2-1 2.7-1-.4 0-1-.5-1.2-1.1-.4-1.2-.5-1.2-5-.5Zm-8.2 1.3c.4.2 1.2.2 1.6 0 .5-.1.1-.3-.8-.3s-1.3.2-.8.3Zm76.2 1h1.2c.6-.2.4-.3-.4-.3-.7 0-1 0-.8.2Zm-85.9 0c-.8.2-1.3.5-1.1.8.2.3.6.4 1 .2a14 14 0 0 1 3.2-.3c1.5 0 2.5-.3 2.3-.5-.3-.5-2.7-.5-5.4-.1Zm15.3.6c.3.2.8.2 1.3 0 .5 0 .4-.2-.4-.2-.7 0-1 0-.9.2Zm-578.3-2c0 .4.4.7.8.6 1.2-.3 1.4-1.5.3-1.5-.6 0-1 .4-1.1.8Zm550 2.5c-2.3.2-3.6 1.2-1.6 1.2 3 0 7.1-.7 6.3-1.1-.4-.3-1.1-.4-1.5-.4l-3.2.3Zm6.6 0c-.2.3.5.4 1.6.3 1.1-.1 2-.3 2-.4 0-.5-3.3-.3-3.6.2Zm-14.6 1c-.8.7-.5 1.2.7 1a35 35 0 0 1 2.2-.3c.7 0 .6-.2-.4-.5-1.7-.6-2-.6-2.5-.2Zm-169.3.1c.3.2.8.2 1.3 0 .5-.1.4-.2-.4-.3-.7 0-1 .1-.9.3Zm92.2 1.6c.4.2 1.2.2 1.6 0 .5 0 .1-.2-.8-.2-1 0-1.3 0-.8.2Zm-339.2 0c0 .3.7.5 1.5.5 1.2 0 1.3 0 .5-.5-1.3-.7-2-.7-2 0Zm-13.3 1c0 .3.3.6.7.6.3 0 .6-.1.6-.3l-.6-.6c-.4-.1-.7 0-.7.3Zm-111.8.7c0 .1.5.4 1 .5.6.2.9.1.7-.2-.4-.5-1.7-.7-1.7-.3Zm111.1 1c.6.2 1.5.5 2 .5.9 0 .9 0 0-.6-.5-.2-1.4-.5-2-.5-.9 0-.9 0 0 .5Zm209.9 1.1c-.7.9 0 1.2 1.7.8 1.2-.3 1.3-.5.6-.9-1.2-.6-1.8-.6-2.3.1Zm-215.1.7-1.6.7 2.1.4c1.2.2 2.3.2 2.5 0 .2-.1 0-.3-.7-.3-1.3 0-1.5-.8-.3-1.2.5-.2.6-.3.2-.3-.4 0-1.4.3-2.2.7Zm434.6 2.2c-1 .3-.7.4 1.2.4l2.5-.1c0-.5-2.4-.7-3.7-.3Zm-220.3-.2c-2 .7-2 1 .3.8 3.9-.2 4-.2 2.8-.8-1.1-.6-1.2-.6-3.1 0Zm36.2.3c.5.3 1 .5 1.2.3.2-.1-.2-.4-.8-.6-1-.3-1-.3-.4.3Zm-40.4.2c0 .3.3.6.7.6.3 0 .6-.3.6-.6s-.3-.5-.6-.5c-.4 0-.7.2-.7.5Zm-152.8-.5c.2.2.8.2 1.2 0 .6-.1.4-.2-.4-.3-.7 0-1 .1-.8.3Zm178 .9.7.6c.4.2.7 0 .7-.3s-.3-.5-.7-.5c-.3 0-.6 0-.6.2Zm22.4.4c2.7.6 7.6.7 7.6.2 0-.3-2.2-.5-4.8-.6-3.5 0-4.3.1-2.8.4Zm-124.1 1.5a29 29 0 0 0 11 0c.2-.3-1.9-.5-5.8-.5-4.3 0-6 .1-5.2.5Zm121.4.6c-1.1.4-.8.5 1.4.9 1.7.2 3.3.1 4-.2 1-.5 1-.6-.5-.6-1 0-2.2-.1-2.7-.3-.5 0-1.5 0-2.2.2Zm23.8 0c.2.2.8.2 1.3 0 .5-.1.3-.3-.4-.3s-1.1.1-1 .3Zm8.2.1c-.1.2.4.4 1.3.4s1.6-.2 1.6-.4-.6-.4-1.3-.4c-.7 0-1.4.2-1.6.4Zm-35.8.3c.4.2 1.2.2 1.6 0 .5-.1.1-.3-.8-.3-1 0-1.3.2-.8.3Z"/>
  </g>
</svg>
