<svg xmlns="http://www.w3.org/2000/svg" width="24" height="24" viewBox="0 0 24 24" aria-labelledby="icon-linkedin-title" role="img">
  <title id="icon-linkedin-title">Check my LinkedIn profile</title>
  <path fill-rule="evenodd" d="m4.5 17.7.4.2c.2 0 .3 0 .4-.2l.2-.4V5.7l-.2-.4-.4-.2-.4.2-.1.4v12ZM4.2 1.6l.7.2c.3 0 .5 0 .7-.2l.2-.7c0-.3 0-.5-.2-.7L4.9 0a1 1 0 0 0-.7.2L4 1c0 .3 0 .5.2.7ZM10 17.8l.4.2c.4 0 .6-.2.6-.6v-6.8c0-1.4.4-2.5 1.2-3.3C13 6.4 14 6 15.4 6c1.2 0 2 .3 2.6 1 .5.6.8 1.6.8 3v7.4l.1.4.4.2c.2 0 .3 0 .4-.2l.2-.4V9.8c0-1-.2-2-.5-2.7-.3-.7-.8-1.2-1.5-1.6a6.2 6.2 0 0 0-5.5.3A4 4 0 0 0 11 7.6V5.2l-.5-.1-.4.1-.1.4v11.8l.1.4Z"/>
</svg>