<svg xmlns="http://www.w3.org/2000/svg" height="24" width="24" viewBox="0 0 24 24" aria-aria-labelledby="icon-cv-title" role="img">
  <title id="icon-cv-title">Check my Curriculum</title>
  <path clip-rule="evenodd" d="m3.7 17.2a6.4 6.4 0 0 0 5 .5c.7-.3 1.4-.7 1.9-1.2l.1-.3v-.2l-.2-.2h-.3l-.4.1a4.4 4.4 0 0 1 -3 1.2c-1.6 0-2.7-.5-3.5-1.5s-1.2-2.3-1.2-4c0-1 .1-1.7.3-2.4.2-.6.5-1.2.9-1.7.4-.4.9-.8 1.4-1a5 5 0 0 1 5.1.8l.4.2h.3l.2-.3v-.3l-.1-.3c-.5-.5-1.2-1-1.9-1.1-.6-.3-1.3-.4-2-.4a6 6 0 0 0 -2.4.4 5 5 0 0 0 -3 3.3c-.2.8-.3 1.7-.3 2.7 0 1.3.2 2.5.7 3.5a5 5 0 0 0 2 2.3zm13.8.6.5.1.5-.1.4-.5 4.8-11.4v-.7l-.4-.1h-.4l-.2.4-4.7 11.2-4.6-11.2a1 1 0 0 0 -.3-.3l-.3-.1h-.4l-.2.4.1.5 4.8 11.3z"/>
</svg>