<svg xmlns="http://www.w3.org/2000/svg" width="23" height="13" viewBox="0 0 23 13" aria-aria-labelledby="icon-cv-title" role="img">
  <title id="icon-cv-title">Check my Curriculum</title>
  <path d="M2.65 12.17c.87.55 1.9.83 3.1.83a6.3 6.3 0 0 0 2-.34c.7-.24 1.3-.63 1.84-1.17a.4.4 0 0 0 .13-.28.4.4 0 0 0-.05-.29.41.41 0 0 0-.18-.23.47.47 0 0 0-.31-.06c-.12 0-.24.06-.37.19a4.35 4.35 0 0 1-3.09 1.17c-1.47 0-2.6-.5-3.4-1.49-.8-.98-1.2-2.34-1.2-4.08 0-.86.1-1.63.28-2.29.21-.67.5-1.24.89-1.69.4-.46.88-.82 1.45-1.06a5.02 5.02 0 0 1 5.07.8c.13.13.25.2.37.21a.6.6 0 0 0 .31-.08.42.42 0 0 0 .18-.2.5.5 0 0 0 .05-.32.4.4 0 0 0-.13-.28A4.59 4.59 0 0 0 7.75.36a6.26 6.26 0 0 0-4.42.08 5.01 5.01 0 0 0-2.94 3.3A8.37 8.37 0 0 0 0 6.4c0 1.3.23 2.47.68 3.45a5.5 5.5 0 0 0 1.97 2.32Zm13.86.62c.14.1.3.16.5.16a.8.8 0 0 0 .49-.16c.16-.12.28-.3.36-.52L22.67.94c.07-.16.1-.3.08-.42a.46.46 0 0 0-.13-.34c-.07-.08-.19-.13-.36-.13a.6.6 0 0 0-.4.13c-.06.07-.13.18-.2.31l-4.65 11.16L12.38.5a.92.92 0 0 0-.24-.3c-.07-.1-.18-.14-.33-.14a.63.63 0 0 0-.42.13.56.56 0 0 0-.16.34c-.01.12.01.27.08.44l4.84 11.31c.1.23.22.4.36.52Z" clip-rule="evenodd"/>
</svg>
