<svg xmlns="http://www.w3.org/2000/svg" width="16" height="18" viewBox="0 0 16 18" aria-aria-labelledby="icon-linkedin-title" role="img">
  <title id="icon-linkedin-title">Check my LinkedIn profile</title>
  <path d="M.5 17.73c.1.1.24.16.41.16.2 0 .33-.05.42-.16.08-.1.13-.24.13-.41V5.72c0-.2-.06-.33-.16-.42-.09-.1-.22-.15-.39-.15a.56.56 0 0 0-.42.15.64.64 0 0 0-.13.42v11.6c0 .17.05.3.13.41ZM.22 1.56c.18.16.4.23.68.23.3 0 .52-.07.68-.23a1 1 0 0 0 .23-.68c0-.3-.08-.5-.23-.65C1.43.08 1.2 0 .9 0a1 1 0 0 0-.67.23C.08.37 0 .6 0 .88s.08.5.23.68ZM6 17.81c.1.1.25.16.42.16.36 0 .55-.2.55-.58v-6.8c0-1.4.4-2.5 1.2-3.31a4.3 4.3 0 0 1 3.22-1.25c1.2 0 2.06.31 2.6.94.53.62.8 1.6.8 2.94v7.48c0 .18.04.32.13.42.1.1.24.16.42.16a.5.5 0 0 0 .39-.16c.1-.1.15-.24.15-.42V9.8c0-1.07-.16-1.97-.5-2.68a3.27 3.27 0 0 0-1.5-1.58 5.33 5.33 0 0 0-2.5-.52 5.2 5.2 0 0 0-2.93.83c-.65.41-1.15.98-1.51 1.72V5.64c0-.19-.04-.33-.13-.41a.5.5 0 0 0-.39-.16.56.56 0 0 0-.42.16c-.08.08-.13.22-.13.41V17.4c0 .18.05.32.13.42Z" clip-rule="evenodd"/>
</svg>
