<svg xmlns="http://www.w3.org/2000/svg" height="11" viewBox="0 1 118 12" aria-labelledby="beachbody-logo-title" role="img">
  <title id="beachbody-logo-title">Beachbody logo</title>
  <path d="M5.1 4C.3 6.8 9 5.3 12 6.2h.2a6.1 6.1 0 0 0-10-3.9c3.1.3 4.9.8 3 1.9Z"/>
  <path d="M9.2 6.9C6 5.6-1.8 6.9 3 4.2c1.9-1 1-1.5-1-1.8a6 6 0 0 0 .6 9.5c5.7-2.2 8.7-4.2 6.6-5ZM6.1 13a6 6 0 0 0 6-5.3c-1.2 1.2-4.6 3-9.3 4.4 1 .6 2.1 1 3.3 1Zm9.1-10h7C24 3 25 3.4 25 5c0 1.4-.5 1.6-1.1 1.8 1 .2 1.4.8 1.4 2 0 1.7-1 2-2.4 2h-7.7V3Zm2.4 3h4.3c.4 0 .7 0 .7-.5s-.3-.7-.7-.7h-4.3v1.3Zm0 3h4.3c.6 0 1-.2 1-.6 0-.6-.4-.7-1-.7h-4.3V9Zm9.2-6h8.7v1.8h-6.3V6h6v1.7h-6V9h6.4v1.9h-8.8v-8Zm13.8 0h3.2l4.3 7.9h-2.7l-.7-1.4h-5l-.7 1.4h-2.7l4.3-8Zm0 4.8h3.2l-1.6-3-1.6 3Zm7.9-2.1c0-2.3 1.3-2.9 3.5-2.9h3c3.4 0 3.9.8 3.9 3h-2.5v-.2c0-.6-.4-.7-1.1-.7h-2.7c-1.2 0-1.5.6-1.5 1.6v.8c0 1.2.3 1.6 1.4 1.6H55c1.1 0 1.4-.1 1.4-1H59v.7c0 1.3-.5 2.3-3 2.3h-4c-2.2 0-3.5-.5-3.5-2.8V5.7ZM60.3 3h2.5v2.8h5V2.9h2.5v8H68v-3h-5.1v3h-2.5v-8ZM72 3h7c2 0 2.9.5 2.9 2 0 1.4-.5 1.6-1.2 1.8 1 .2 1.4.8 1.4 2 0 1.7-1 2-2.4 2H72V3Zm2.4 3h4.3c.5 0 .7 0 .7-.5s-.2-.7-.7-.7h-4.3v1.3Zm0 3h4.4c.5 0 .8-.2.8-.6 0-.6-.3-.7-.8-.7h-4.4V9Zm9-3.3c0-2.3 1.3-2.9 3.5-2.9h4c2.1 0 3.4.6 3.4 3V8c0 2.3-1.3 2.9-3.5 2.9H87c-2.2 0-3.5-.6-3.5-3V5.8ZM86 7.3c0 1.2.3 1.6 1.4 1.6h3.1c1.2 0 1.4-.4 1.4-1.6v-.8c0-1-.2-1.6-1.5-1.6h-2.9c-1.2 0-1.5.6-1.5 1.6v.8ZM95.9 3h7.3c2.5 0 3.3.7 3.3 2.7v2.4c0 2-.8 2.8-3.3 2.8H96v-8Zm2.4 5.8h4.3c1 0 1.5-.3 1.5-1.4v-1c0-1.2-.4-1.5-1.5-1.5h-4.3v4Zm12.7-.7L106.6 3h3l2.6 3.3 2.7-3.3h3l-4.5 5.2V11H111V8Z"/>
</svg>
