<svg xmlns="http://www.w3.org/2000/svg" width="96" height="14" viewBox="0 0 96 14" aria-labelledby="cochesnet-logo-title" role="img">
  <title id="cochesnet-logo-title">cochesnet logo</title>
  <path d="M10.7 10H8.4C8 11 7 11.7 5.8 11.7a3 3 0 0 1-3-3c0-1.8 1.4-3.2 3-3.2 1.2 0 2.3.7 2.5 1.7h2.4A4.7 4.7 0 0 0 6 3.3 5.3 5.3 0 0 0 .6 8.6 5.2 5.2 0 0 0 5.9 14c2.5 0 4.6-1.6 4.8-4ZM21 4.8a5.3 5.3 0 0 0-4-1.5 5.3 5.3 0 1 0 0 10.6 5.3 5.3 0 0 0 5-7.3c-.3-.7-.7-1.2-1.2-1.7Zm-4 7a3 3 0 0 1-3-3.2 3 3 0 0 1 3-3.1 3 3 0 0 1 3 3.1 3 3 0 0 1-3 3.2Zm16.6-1.9h-2.4c-.2 1-1.2 1.8-2.5 1.8a3 3 0 0 1-3-3c0-1.8 1.3-3.2 3-3.2 1.2 0 2.3.7 2.5 1.7h2.4C33.4 5 31.3 3.3 29 3.3c-3 0-5.3 2.4-5.3 5.3a5.2 5.2 0 0 0 5.3 5.3c2.5 0 4.6-1.6 4.8-4ZM40 5.5c1.3 0 2.1 1 2.1 2.4v5.8h2.4V7.9c0-2.8-1.6-4.6-4-4.6-1.1 0-2.1.5-2.9 1.2V0h-2.4v13.7h2.4V8c0-1.6 1-2.6 2.4-2.6Zm11.3-2.2A5.4 5.4 0 0 0 46 8.7c0 3 2.3 5.2 5.3 5.2 2.4 0 4.4-1.3 4.9-3.4h-2.3c-.3.9-1.3 1.4-2.5 1.4a3 3 0 0 1-3-2.6h7.8l.1-1a5 5 0 0 0-5-5Zm-2.8 4a3 3 0 0 1 2.8-2c1.4 0 2.5.9 2.6 2h-5.4Zm13.6.2c-1.2-.2-2.2-.5-2.2-1.3s.9-1.1 1.6-1.1c1 0 1.7.5 1.8 1.3h2.3c-.2-1.9-1.8-3-4.1-3-2.2 0-3.8 1.2-3.8 3 0 2.2 2 2.7 3.5 3 1.2.3 2.3.5 2.3 1.4 0 .8-.7 1.3-1.8 1.3s-1.9-.6-2-1.5h-2.2c.2 2 1.8 3.4 4.2 3.4 2.4 0 4-1.4 4-3.4 0-2.3-2-2.8-3.6-3.1ZM84 3.3c-3 0-5.4 2.5-5.4 5.4 0 3 2.3 5.2 5.2 5.2 2.5 0 4.4-1.3 5-3.4h-2.4c-.2.9-1.2 1.4-2.4 1.4a3 3 0 0 1-3-2.6h7.8v-1c0-2.8-2.1-5-4.9-5Zm-3 4h.1a3 3 0 0 1 2.8-2c1.3 0 2.4.9 2.5 2h-5.3Zm13 6.4h1.5v-2h-1.2c-1 0-1.5-.6-1.5-1.6V5.6h2.7v-2h-2.7V.7h-2.3v9.6c0 2.3 1.1 3.4 3.5 3.4Zm-23-1.6a1.9 1.9 0 0 1-3.1 1.4 1.9 1.9 0 1 1 2.6-2.7A1.9 1.9 0 0 1 71 12Zm-3-8.5h2.3v1a4 4 0 0 1 3-1.3c2.4 0 4 1.8 4 4.6v5.8H75V7.9c0-1.4-.8-2.4-2.3-2.4-1.4 0-2.4 1-2.4 2.6v.5H68v-5Z"/>
</svg>
