<svg xmlns="http://www.w3.org/2000/svg" height="22" viewBox="0 -3 58 20" aria-labelledby="eazle-logo-title" role="img">
  <title id="eazle-logo-title">eazle</title>
  <path d="M27.8 15.1c0 .6.3 1 1 1h8.6c.7 0 1-.3 1-1v-.7c0-.6-.4-1-1-1h-5.2l5-5.7c.5-.7.9-1 .9-1.6v-1c0-.6-.4-1-1-1h-8.2c-.6 0-1 .3-1 1v.7c0 .6.4 1 1 1h5l-5.2 5.8c-.6.6-1 1-1 1.5v1m12-2c0 2.2 1.2 3.3 3.3 3.3a4 4 0 0 0 2-.5c.4-.2.5-.4.3-1l-.3-1.2c-.2-.5-.5-.7-.9-.6l-.4.1c-.3 0-.3-.2-.3-.4V1c0-.7-.4-1.2-1-1l-1.7.3c-.7.1-1 .4-1 1V13m-28.2-.3c-.4-.5-.7-.3-1.2 0-1 .7-1.9 1-2.8 1-.9 0-3.5-.4-3.5-3.9a3 3 0 0 1 3-3.3c.8 0 1.4.3 1.9.8.4.4.7.9.8 1.6H5c-.2 0-.3 0-.3.2 0 1 .9 1.9 2 1.9h4s2.7 0 2-3a5 5 0 0 0-1.4-2.4c-1-1-2.6-1.7-4.5-1.7a6.1 6.1 0 0 0-6.3 6.3c0 3.7 2.8 6.2 6.5 6.2 1.8 0 4-.6 5.1-1.8.3-.2.5-.6 0-1.1l-.7-.7Zm44.6 0c-.4-.5-.8-.3-1.2 0-1 .7-1.9 1-2.8 1-.9 0-3.5-.4-3.5-3.9 0-3 2.1-3.4 2.8-3.4.8 0 1.5.3 2 .8.4.4.6.9.7 1.6h-4.4c-.2 0-.3 0-.3.2a2 2 0 0 0 1.9 1.9h4s2.7 0 2.1-3A5 5 0 0 0 56 5.6c-1-1-2.6-1.7-4.5-1.7a6.1 6.1 0 0 0-6.3 6.3c0 3.7 2.8 6.2 6.5 6.2 1.8 0 4-.6 5.1-1.8.3-.2.5-.6 0-1.1l-.7-.7Z"/>
  <path d="M14 10c0-3.6 2.8-6.5 6.4-6.5a6 6 0 0 1 6.2 6.1v5.7c0 .5-.4.8-.9.8h-5.6a6 6 0 0 1-6.2-6.1Zm6.2 3.6c1.7 0 3.3-1.1 3.7-3 0-.1-.1-.2-.3-.2-.7.4-2 .6-3.4.6s-2.6-.2-3.3-.6c-.2 0-.4 0-.3.3.3 1.8 2 2.9 3.6 2.9Z" clip-rule="evenodd"/>
</svg>
