<svg xmlns="http://www.w3.org/2000/svg" width="80" height="14" viewBox="0 0 80 14" aria-aria-labelledby="fotocasa-logo-title" role="img">
  <title id="fotocasa-logo-title">fotocasa logo</title>
  <path d="M1.7 14V6.2H0V4.1h1.7v-.5c0-1.5.3-2.3 1.1-3A5 5 0 0 1 5.3 0h1.1v2.1h-1c-.9 0-1.3.3-1.3 1.3v.7h2v2.1H4V14H1.7m4.7-5.3A5 5 0 0 1 8 4.9c1-1 2.3-1.6 3.9-1.6a5.4 5.4 0 0 1 3.8 9.2c-1 1-2.3 1.5-3.8 1.5a5.4 5.4 0 0 1-5.5-5.3m7.7 2.2a3 3 0 0 0 .9-2.2 3 3 0 0 0-1-2.3 3 3 0 0 0-2.1-.9 3 3 0 0 0-2.3 1c-.5.5-.8 1.3-.8 2.2 0 .9.3 1.6.8 2.2a3 3 0 0 0 2.3 1 3 3 0 0 0 2.2-1Zm5.2-5H18V3.8h1.3V0h2.3v3.8h2.1v2.1h-2.1v4.5c0 1 .3 1.5 1.2 1.5l.8-.1v2c-.3.2-.7.2-1.2.2-2.1 0-3.1-1.1-3.1-3.4V6Zm5.4 2.8a5 5 0 0 1 1.6-3.8c1-1 2.3-1.6 3.8-1.6a5.4 5.4 0 0 1 3.9 9.2c-1 1-2.3 1.5-3.9 1.5a5.4 5.4 0 0 1-5.4-5.3m7.6 2.2a3 3 0 0 0 1-2.2 3 3 0 0 0-1-2.3 3 3 0 0 0-2.2-.9 3 3 0 0 0-2.2 1c-.6.5-.9 1.3-.9 2.2 0 .9.3 1.6 1 2.2a3 3 0 0 0 2.1 1 3 3 0 0 0 2.2-1ZM46 5.1l-1.4 1.5A3.4 3.4 0 0 0 42 5.5a3 3 0 0 0-2.2.9c-.6.6-.9 1.4-.9 2.3 0 .9.3 1.6.9 2.2a3 3 0 0 0 2.2 1c1 0 1.9-.4 2.6-1.2l1.4 1.6a5.3 5.3 0 0 1-4 1.7c-1.5 0-2.8-.5-3.9-1.5a5 5 0 0 1-1.6-3.8 5 5 0 0 1 1.6-3.8c1-1 2.4-1.6 3.9-1.6a5 5 0 0 1 4 1.8Zm8.7-.1V3.5h2.4v7c0 .9.2 1.2.8 1.2h.5v1.9l-1.2.1c-.6 0-1 0-1.4-.3a2 2 0 0 1-.8-1.2c-.7 1-1.9 1.6-3.5 1.6-1.4 0-2.6-.5-3.6-1.5s-1.4-2.3-1.4-3.8.5-2.7 1.4-3.7a5 5 0 0 1 3.6-1.5c1.6 0 2.9.7 3.2 1.7Zm-.7 5.7a3 3 0 0 0 1-2.2c0-.8-.4-1.6-1-2.1a3 3 0 0 0-2.2-1c-.8 0-1.5.4-2 1a3 3 0 0 0-1 2.1 3 3 0 0 0 1 2.2c.5.6 1.2.9 2 .9a3 3 0 0 0 2.2-.9Zm6.6 0a3 3 0 0 0 2.6 1.2c1.2 0 1.7-.5 1.7-1 0-.4-.2-.7-.6-.9l-.9-.4-1.2-.4c-1.5-.6-2.4-1.4-2.4-2.8 0-1 .3-1.7 1-2.3.7-.5 1.5-.8 2.5-.8 1.4 0 2.4.5 3.1 1.5l-1.3 1.4c-.4-.5-1-.8-1.9-.8-.7 0-1.1.4-1.1.9 0 .3.1.5.4.7l.8.4 1.2.4c1.8.6 2.6 1.5 2.6 3 0 1.9-1.3 3.2-4 3.2-2 0-3.4-.8-4-2l1.5-1.4ZM76.3 5V3.5h2.4v7c0 .9.2 1.2.8 1.2h.5v1.9l-1.2.1c-.6 0-1 0-1.4-.3-.5-.3-.7-.7-.8-1.2-.7 1-1.9 1.6-3.5 1.6-1.4 0-2.6-.5-3.6-1.5s-1.4-2.3-1.4-3.8.5-2.7 1.4-3.7a5 5 0 0 1 3.6-1.5c1.6 0 2.9.7 3.2 1.7Zm-.7 5.7a3 3 0 0 0 1-2.2c0-.8-.4-1.6-1-2.1a3 3 0 0 0-2.2-1c-.8 0-1.5.4-2 1a3 3 0 0 0-1 2.1c0 .9.3 1.6 1 2.2.5.6 1.2.9 2 .9a3 3 0 0 0 2.2-.9Z" clip-rule="evenodd"/>
</svg>
