<svg xmlns="http://www.w3.org/2000/svg" width="86" height="10" viewBox="0 0 86 10" aria-aria-labelledby="haufe-logo-title" role="img">
  <title id="haufe-logo-title">haufe logo</title>
  <path d="M43.3 10C37.8 10 36 8.5 36 6.7V.1h3.6v6.2c0 1.5 1.6 2 3.8 2 1.4 0 2.5 0 3.3-.2v-8h3.6v9.5c-1.3.2-4 .4-7.1.4Zm-32.1-.3v-4H4v4H.5V0h3.6v4h7V0h3.7v9.7h-3.6ZM58.7 2h9.7V0H57.9c-2.8 0-3.8.6-3.8 2v7.8h3.6v-4h10.7V4H57.7V2.6c0-.4.2-.6 1-.6Zm17.1 0c-.8 0-1 .2-1 .6V4h10.7v1.7H74.8v1.5c0 .4.2.6 1 .6h9.7v2H75c-2.8 0-3.8-.6-3.8-2V2c0-1.5 1-2 3.8-2h10.5v2h-9.7ZM25.5 3.8a36 36 0 0 0-5.8.4c-1 .2-1.5.6-1.5 1.5V8c0 .9.5 1.3 1.5 1.4a47.6 47.6 0 0 0 12.8 0v-6c0-3-1.1-3.2-5.1-3.2h-8v1.6h7.9c1.5 0 1.6.4 1.6 1.3v.8h-3.4Zm0 4.6-3-.2c-.4-.1-.7-.3-.7-.7V6.3c0-.4.3-.6.8-.7l3-.2h3.3v2.9h-3.4Z"/>
</svg>
