<svg xmlns="http://www.w3.org/2000/svg" width="98" height="24" viewBox="0 0 98 24" aria-labelledby="heineken-logo-title" role="img">
  <title id="heineken-logo-title">heineken logo</title>
  <path d="M97.8 10.8v.4s-.6.2-.6.9v10.2c0 .4-.3.7-.6.7h-2L90 16l.1 1.3V23h-2.5V10.8h1.7c.8 0 1.4.3 1.8 1l3.7 5.8-.1-1.3v-5.5h3Zm-47.4 0v11.5c0 .4-.3.7-.6.7h-2.1l-4.4-7v7H41V10.8h1.6c.8 0 1.4.3 1.8 1l3.7 5.8-.1-1.3v-5.5h2.5Zm-30.5 0h-3.3v4.6h-2.9v-4.6H10v.4s.5.2.5.9V23h3.3v-5.3h2.9V23H20V10.8Zm10.7 0h-7.3v11c0 .7.5 1.2 1.2 1.2h6.1c.4 0 .7-.3.7-.7v-1.5H27a.5.5 0 0 1-.5-.5v-2.6h3.8v-2.3h-3.8V13h4.7v-1.6c0-.3-.3-.6-.6-.6Zm7 0h-3.4v11.5c0 .4.4.7.7.7h2.7V10.8Zm46.7 0H77v11c0 .7.5 1.2 1.2 1.2h6.1c.4 0 .6-.3.6-.7v-1.5h-4.2a.5.5 0 0 1-.5-.5v-2.6H84v-2.3h-3.8V13h4.7v-1.6c0-.3-.3-.6-.6-.6Zm-23.2 0h-7.4v11c0 .7.6 1.2 1.3 1.2h6c.5 0 .7-.3.7-.7v-1.5h-4.2a.5.5 0 0 1-.5-.5v-2.6h3.8v-2.3H57V13h4.7v-1.6c0-.3-.3-.6-.6-.6Zm13.9 0h-2.4c-.6 0-1 0-1.5.6l-3.4 3.8v-4.5h-3.3v11.6c0 .4.3.6.7.6h2.6v-5.5l3 4.5c.4.7.8 1 1.8 1h2.8l-4.7-7.1 4.4-5ZM3.5 15.3h-.3V15L5 9.5.3 6.1l.1-.3h5.8L7.9.2l.3-.1.1.1 1.8 5.6h5.7c.2 0 .2.2.1.3l-2.7 2H9.9l-1-3-1 3H4.8l2.7 2-1 3.1-2.9 2.1Z" clip-rule="evenodd"/>
</svg>