<svg xmlns="http://www.w3.org/2000/svg" width="72" height="18" fill="none">
  <g fill="#394C77" clip-path="url(#a)">
    <path d="M.5 13.8c0 .2 0 .3.2.3h2.6c.2 0 .3-.2.4-.3L5.3.3c0-.2 0-.3-.2-.3H2.3c-.2 0-.2.1-.2.3L.5 13.8Zm15.2-7.7-.1 1.2-.8 6.5a.3.3 0 0 1-.4.3h-2.3c-.2 0-.3-.1-.3-.3l.8-6.3v-.8l-.1-.7c-.2-.3-.5-.4-1-.4-1 0-2 .3-2 .3l-1 7.9c0 .1-.1.3-.3.3H5.8c-.2 0-.3-.1-.3-.3l1-8.5c.2-.7.7-1 1.8-1.2 1-.2 2.6-.4 3.8-.4 1.4 0 2.4.1 3 .7.4.4.6 1 .6 1.6ZM40.2.2l-.3-.2h-2.7c-.2 0-.2.1-.3.3l-1.7 14c-.2 1.5-.8 1.5-1.9 1.6h-1c-.3 0-.4.1-.5.5l-.1 1.1c0 .4.2.4.4.4l1.8.1c2.3 0 4.1-.7 4.5-3.7l1.8-14Z"/>
    <path d="M33.5 11.3c-.7 1.7-2 3-5 3-1.8 0-3-.4-3.6-1-.6-.8-.9-1.7-.9-2.8 0-1.3.3-3.1.8-4.2.6-1.6 2-2.7 5-2.7 1.7 0 2.8.4 3.4 1 .7.7.9 1.6.9 2.7 0 1.2-.2 2.9-.6 4ZM30.8 6c-.3-.3-.7-.4-1.3-.4-1.4 0-1.9.6-2.1 2l-.3 3c0 .6 0 1 .3 1.3.3.2.7.3 1.3.3 1.4 0 1.8-.7 2-2.1.2-1 .4-2 .4-2.9 0-.5-.1-1-.3-1.2ZM50 11.3c-.6 1.7-2 3-5 3-1.8 0-2.9-.4-3.5-1a4 4 0 0 1-1-2.8c0-1.3.3-3.1.8-4.2.7-1.6 2-2.7 5-2.7 1.7 0 2.8.4 3.5 1 .6.7.8 1.6.8 2.7 0 1.2-.2 2.9-.6 4ZM47.4 6c-.3-.3-.6-.4-1.3-.4-1.4 0-1.8.6-2 2-.2 1-.4 2-.4 3 0 .6 0 1 .4 1.3.2.2.6.3 1.2.3 1.5 0 1.9-.7 2.1-2.1l.3-2.9c0-.5 0-1-.3-1.2Zm14 5c-.6 2.2-2 3.2-5 3.2a12 12 0 0 1-3.6-.4c-.7-.3-1-.6-1-1.1l.2-1L53.3.5c0-.3.2-.5.4-.5H56c.2 0 .4 0 .4.3L56 2.8v1.1s1.2-.3 2.4-.3c1.3 0 2.2.2 2.8.8.6.6.9 1.5.9 2.8a14 14 0 0 1-.5 3.8Zm-2.7-5c-.2-.3-.6-.4-1.3-.4a9 9 0 0 0-1.8.3L55 12l1.5.1c1.4 0 2-.4 2.3-2.4.2-.9.3-1.7.3-2.6 0-.6-.1-1-.3-1.2Zm12.5-.3-.3.1h-.1l-2.3-.2c-.5 0-1 0-1.5.3a1 1 0 0 0-.3.8c0 .9.9 1 1.8 1 .7.2 1.5.4 2 .9.4.4.6 1 .6 1.8 0 1-.3 1.9-1 2.6-.8.9-2.2 1.2-3.7 1.2-1.6 0-3.1-.4-3.5-.5l-.1-.3v-.1l.4-1.3c0-.2.1-.2.2-.2h.1c.3 0 1.6.4 2.8.4.5 0 1 0 1.4-.3.3-.3.4-.6.4-1 0-.3-.2-.5-.4-.7l-1.1-.3c-.7 0-1.7-.2-2.3-.8-.4-.4-.6-1-.6-1.8s.2-1.7.7-2.4c1-1.1 2.6-1.3 3.9-1.3 1.5 0 2.7.3 3 .4.2 0 .2.2.2.3l-.3 1.4ZM24.3.3c-.2 0-1.1-.3-2.5-.3-2.3 0-3.4 1-3.7 3l-.2 1.4-.2 2.1-1 6.8v.5c0 .2.1.3.3.3h2.2c.2 0 .4-.1.4-.3v-.2l1-7h2.5c.2 0 .3-.2.4-.4l.2-1.5c0-.2-.1-.3-.3-.3h-2.5l.2-1.2c.1-.9.4-1 1.4-1a9 9 0 0 1 1.3 0c.2 0 .3 0 .3-.2l.4-1.3V.6c0-.1 0-.2-.2-.3Z"/>
  </g>
  <defs>
    <clipPath id="a">
      <path fill="#fff" d="M0 0h71.1v18H0z" transform="translate(.5)"/>
    </clipPath>
  </defs>
</svg>
