<svg xmlns="http://www.w3.org/2000/svg" viewBox="0 0 138 39" aria-labelledby="ivanpla-logo-title" role="img">
  <title id="ivanpla-logo-title">Ivan Pla's portfolio logo. Logo is Ivan Pla's handwriting, rounded, lowercase letters used as a mask with a vibrant gradient as background.</title>
  <mask id="ivanpla-logo-mask" width="138" height="39" x="0" y="0" maskUnits="userSpaceOnUse" style="mask-type:alpha">
    <path fill-rule="evenodd" d="M113.041.129c1.522.4696 2.375 2.0844 1.906 3.6067-1.641 5.3184-3.867 14.5064-4.266 16.3255-.357 1.6243-.497 3.4018-.249 4.6166.108.5299.249.7476.295.8053.025.006.074.0145.154.0167a.6422.6422 0 0 0 .035-.0363c.198-.2129.492-.6812.868-1.6202.326-.8135.63-1.7533.994-2.8827l.145-.4486c.329-1.017.7-2.1417 1.144-3.2921.314-.9153.723-1.8174 1.225-2.6876 1.579-2.7341 3.891-4.828 6.47-5.9313 2.581-1.1037 5.616-1.2683 8.263.2598 2.646 1.5282 4.021 4.2388 4.356 7.0255.156 1.3012.096 2.6598-.174 4.017a3.4393 3.4393 0 0 1-.035.2219l-.001.005-.009.046c-.008.0455-.021.1196-.037.2181-.032.1977-.074.4893-.111.8421-.075.7232-.12 1.6224-.042 2.4696.084.9004.279 1.435.442 1.6737.006.0083.01.0164.015.0243.031.0536.055.0962.333.0962 1.594 0 2.885 1.2914 2.885 2.8845 0 1.5932-1.291 2.8846-2.885 2.8846-2.284 0-4.028-1.0473-5.113-2.6379a6.5763 6.5763 0 0 1-.253-.3992c-1.039.9098-2.184 1.6398-3.387 2.1544-2.581 1.1036-5.615 1.2682-8.262-.2599a8.2408 8.2408 0 0 1-1.946-1.5555c-.2.2857-.418.5608-.658.8187-1.029 1.1079-2.442 1.8796-4.222 1.8796-1.717 0-3.23-.6116-4.352-1.7855-1.044-1.0922-1.546-2.4546-1.79-3.6529-.362-1.773-.271-3.7323-.023-5.4242-.326 1.3837-.87 2.7585-1.622 4.0618-1.58 2.7363-3.8935 4.8318-6.4751 5.9359-2.5825 1.1046-5.6194 1.2691-8.2678-.2599a8.3447 8.3447 0 0 1-.7199-.4664c-.4048 1.9282-.6534 3.3028-.8042 4.2748-.1656 1.0667-.2047 1.5939-.2122 1.8053l-.0004.0121c.1591 1.3154-.6096 2.6105-1.9116 3.0662-1.5037.5264-3.1493-.2659-3.6756-1.7696l2.7213-.9525c-2.7213.9525-2.724.9449-2.7266.9372l-.0052-.0151-.0099-.0299a3.1617 3.1617 0 0 1-.0328-.1079 3.095 3.095 0 0 1-.062-.2624 3.5845 3.5845 0 0 1-.0492-.3569c-.0195-.2196-.0229-.4585-.0135-.7239.0185-.5272.0927-1.3017.2768-2.4875.3639-2.3443 1.1915-6.5107 3.0359-13.9552.3066-1.5558.888-3.1101 1.7332-4.574 1.5798-2.7363 3.8935-4.8318 6.4751-5.936 2.5824-1.1045 5.6193-1.269 8.2677.26 2.648 1.5291 4.024 4.2414 4.359 7.0302.119.9912.113 2.0158-.016 3.0478.008-.0392.017-.0781.025-.1167.418-1.9048 2.683-11.2618 4.388-16.7893.47-1.5223 2.084-2.3757 3.607-1.906Zm6.45 19.0614c-.381 1.157-.487 2.2726-.372 3.2234.171 1.4312.793 2.3012 1.512 2.7167.72.4154 1.784.5185 3.109-.0483 1.327-.5672 2.728-1.7529 3.743-3.5115 1.015-1.7587 1.342-3.5648 1.17-4.9969-.172-1.4312-.793-2.3013-1.513-2.7167-.72-.4155-1.784-.5186-3.109.0482-1.326.5673-2.727 1.7529-3.743 3.5116a9.7248 9.7248 0 0 0-.432.8392c-.029.095-.062.1895-.102.283-.09.216-.178.4331-.263.6513ZM14.8888 2.8851c0 1.593-1.2915 2.8845-2.8846 2.8845-1.5931 0-2.8846-1.2914-2.8846-2.8845 0-1.5932 1.2915-2.8846 2.8846-2.8846 1.5931 0 2.8846 1.2914 2.8846 2.8846ZM9.696 12.222c.8869-1.3234.533-3.1152-.7904-4.002-1.3234-.887-3.1152-.533-4.002.7904C1.065 14.7384-.41 19.6505.0961 23.5792c.5313 4.1241 3.2416 6.8383 6.6363 7.5192.0206.0041.0413.008.0619.0117 1.5389.2982 3.006.1907 4.3608-.3291 1.3475-.517 2.4098-1.3744 3.2515-2.3078 1.5914-1.7648 2.7042-4.181 3.5882-6.1004l.0133-.0289c.9874-2.1439 1.7435-3.7854 2.6521-4.8978.7682-.9404 1.3231-1.1357 2.0774-1.0309.4511.0627.8659.2788 1.4001 1.1187.607.9543 1.0787 2.26 1.7084 4.035l.0213.06c.5689 1.6039 1.2773 3.601 2.3575 5.2903 1.1497 1.7979 2.8593 3.473 5.4853 4.1041.1294.0311.2588.053.3877.066 1.9267.3708 3.9119.0557 5.683-.7018 1.203-.5145 2.3478-1.2445 3.3872-2.1544.0789.135.1629.2682.2523.3993 1.0853 1.5905 2.8293 2.6379 5.1139 2.6379.0344 0 .0686-.0006.1027-.0018 1.5383-.0306 2.7474-.7472 3.6094-1.6193.8251-.8348 1.4096-1.8794 1.8493-2.8369.6666-1.4517 1.2493-3.2974 1.7874-5.0019v-.0001l.0002-.0008.0007-.0022c.1535-.4862.3034-.9609.4505-1.4116.7263-2.2249 1.4418-4.0782 2.3301-5.3613.8255-1.1923 1.531-1.5338 2.3158-1.5338.7848 0 1.4575.3407 2.1649 1.4464.766 1.1972 1.3342 2.9843 1.7045 5.0601.3616 2.0269.4943 4.0907.5332 5.6724.0193.7844.0152 1.4357.0065 1.8861a29.1746 29.1746 0 0 1-.0141.5133 14.4851 14.4851 0 0 1-.0051.1258l-.0012.0272-.0001.0024-.0001.001v.0009c-.0822 1.5901 1.1397 2.9462 2.73 3.0294 1.5909.0832 2.9481-1.139 3.0313-2.7299l-2.8806-.1507c2.8806.1507 2.8806.1499 2.8807.1492l.0003-.007.0008-.0149.0012-.0255.0011-.0235a34.6913 34.6913 0 0 0 .0238-.786 49.0716 49.0716 0 0 0-.0071-2.1396c-.043-1.75-.1903-4.1285-.6211-6.5438-.4222-2.3665-1.1588-5.0217-2.5244-7.1561-1.4242-2.226-3.7098-4.1063-7.0245-4.1063-3.3145 0-5.5779 1.8795-7.0591 4.0189-1.4183 2.0486-2.3472 4.6376-3.0711 6.8549a197.0298 197.0298 0 0 0-.5571 1.7414c-.5113 1.6159-.9381 2.9648-1.4402 4.0581-.2502.5449-.4553.8739-.5982 1.0591-.0294-.0162-.0411-.0366-.054-.0589a.3689.3689 0 0 0-.0148-.0243c-.1629-.2388-.3584-.7733-.4416-1.6737-.0783-.8472-.0336-1.7464.0419-2.4697a15.601 15.601 0 0 1 .1105-.842 10.396 10.396 0 0 1 .0372-.2181l.0086-.046.001-.005a2.9155 2.9155 0 0 0 .0357-.2219c.2694-1.3572.3296-2.7159.1734-4.0171-.3344-2.7867-1.7094-5.4972-4.3562-7.0254-2.6468-1.5281-5.6817-1.3635-8.2623-.2599-2.5792 1.1032-4.8908 3.1966-6.4692 5.93a12.58 12.58 0 0 0-.0594-.0943c-1.1045-1.7366-2.8099-3.3666-5.4742-3.7367-3.3313-.4626-5.7202 1.1136-7.3391 3.0956-1.388 1.6993-2.4197 3.9465-3.2618 5.7807-.0549.1196-.109.2375-.1624.3533-.9727 2.1121-1.7441 3.6792-2.6458 4.6791-.4088.4534-.7506.6764-1.0336.785-.2576.0989-.6264.1662-1.2217.0468l-.0352-.0068c-.8687-.1868-1.7897-.8533-2.0138-2.5925-.2522-1.9579.4096-5.4442 3.878-10.62Zm24.3644 5.1957c1.0153-1.7586 2.4162-2.9443 3.7425-3.5115 1.3253-.5668 2.3895-.4637 3.1091-.0483.7196.4155 1.3409 1.2855 1.5127 2.7167.1719 1.4322-.1544 3.2383-1.1698 4.9969-1.0154 1.7587-2.4163 2.9443-3.7425 3.5116-1.3254.5668-2.3895.4637-3.1091.0482-.7196-.4154-1.341-1.2855-1.5128-2.7167-.1719-1.4321.1545-3.2382 1.1699-4.9969Zm60.6185-3.5104c-1.3282.568-2.7309 1.7553-3.7475 3.5161-.4767.8257-.8017 1.6618-.9948 2.4649a2.9043 2.9043 0 0 1-.059.3063l-.0375.1511c-.1348.7425-.156 1.4483-.08 2.0812.172 1.4333.7944 2.305 1.5156 2.7215.7212.4164 1.7874.5194 3.1146-.0482 1.3282-.5681 2.7309-1.7553 3.7475-3.5161 1.0166-1.7609 1.3434-3.5693 1.1713-5.0035-.172-1.4333-.7944-2.3051-1.5156-2.7215-.7212-.4164-1.7874-.5194-3.1146.0482Z" clip-rule="evenodd"/>
  </mask>
  <g mask="url(#ivanpla-logo-mask)">
    <path fill="url(#gradient-primary)" d="M0 0h138v39H0z"/>
  </g>
  <defs>
    <linearGradient id="gradient-primary" x1="0" x2="138" y1="19.5" y2="19.5" gradientUnits="userSpaceOnUse">
      <stop stop-color="var(--color-gradient-1)"/>
      <stop offset=".5" stop-color="var(--color-gradient-2)"/>
      <stop offset="1" stop-color="var(--color-gradient-3)"/>
    </linearGradient>
  </defs>
</svg>
