<svg xmlns="http://www.w3.org/2000/svg" width="153" height="39" viewBox="0 0 153 39" aria-aria-labelledby="ivanpla-logo-title" role="img">
  <title id="ivanpla-logo-title">Ivan Pla's portfolio logo. Logo is Ivan Pla's handwriting, rounded, lowercase letters used as a mask with a vibrant gradient as background.</title>
  <mask id="ivanpla-logo-mask" width="153" height="39" x="0" y="0" maskUnits="userSpaceOnUse" style="mask-type:alpha">
    <path fill-rule="evenodd" d="M113 .1a3 3 0 0 1 2 3.6c-1.7 5.4-4 14.5-4.3 16.4-.4 1.6-.5 3.4-.3 4.6l.3.8h.2a46 46 0 0 0 1.9-4.5l.1-.5a62.4 62.4 0 0 1 2.4-6 14 14 0 0 1 6.5-5.9 9.2 9.2 0 0 1 8.2.3c2.7 1.5 4 4.2 4.4 7a12.8 12.8 0 0 1-.2 4.2 16.1 16.1 0 0 0-.2 3.6c0 1 .3 1.4.4 1.7l.4.1a2.9 2.9 0 1 1 0 5.8 6 6 0 0 1-5.4-3c-1 .8-2.2 1.6-3.4 2a9.2 9.2 0 0 1-8.3-.2c-.7-.4-1.3-1-1.9-1.5l-.7.8a5.6 5.6 0 0 1-4.2 1.9c-1.7 0-3.2-.6-4.3-1.8a7.5 7.5 0 0 1-1.8-3.7 14 14 0 0 1 0-5.4 15 15 0 0 1-8.1 10 9.2 9.2 0 0 1-9-.7 84.1 84.1 0 0 0-1 6 2.9 2.9 0 0 1-5.6 1.4l2.7-1-2.7 1a3.2 3.2 0 0 1-.2-.8v-.7c0-.6 0-1.3.3-2.5.3-2.4 1.2-6.5 3-14a15 15 0 0 1 8.2-10.5 9.2 9.2 0 0 1 8.3.3 9 9 0 0 1 4.3 7c.2 1 .2 2 0 3 .5-2 2.7-11.3 4.4-16.9A3 3 0 0 1 113 .1Zm6.5 19a7.5 7.5 0 0 0-.4 3.3c.2 1.4.8 2.3 1.5 2.7.8.4 1.8.5 3.1 0a8.3 8.3 0 0 0 3.8-3.5c1-1.8 1.3-3.6 1.2-5-.2-1.5-.8-2.3-1.6-2.7-.7-.5-1.7-.6-3 0a8.3 8.3 0 0 0-4.3 4.6l-.3.7ZM14.9 3a2.9 2.9 0 1 1-5.8 0 2.9 2.9 0 0 1 5.8 0Zm-6 5.3c1.3 1 1.7 2.7.8 4-3.5 5.2-4.1 8.7-3.9 10.6.2 1.8 1.2 2.4 2 2.6.7.2 1 0 1.3 0 .3-.1.6-.3 1-.8 1-1 1.7-2.6 2.7-4.7l.1-.3c.9-1.9 1.9-4.1 3.3-5.8 1.6-2 4-3.6 7.3-3.1a7.6 7.6 0 0 1 5.6 3.8 14 14 0 0 1 6.4-5.9 9.2 9.2 0 0 1 8.3.3c2.6 1.5 4 4.2 4.4 7a12.8 12.8 0 0 1-.3 4.2 10.4 10.4 0 0 0-.1 1.1v2.5a3.8 3.8 0 0 0 .4 1.7c.2-.1.4-.5.7-1 .5-1 .9-2.4 1.4-4l.6-1.8c.7-2.2 1.6-4.8 3-6.8 1.5-2.2 3.8-4 7-4 3.4 0 5.7 1.8 7.1 4a20 20 0 0 1 2.5 7.2 44.3 44.3 0 0 1 .6 9.5l-2.9-.1 3 .1a2.9 2.9 0 0 1-5.8-.3 14.5 14.5 0 0 0 0-.6 43.4 43.4 0 0 0-.6-7.6c-.3-2-.9-3.9-1.7-5-.7-1.2-1.3-1.5-2.1-1.5s-1.5.3-2.3 1.5a21.6 21.6 0 0 0-2.8 6.8c-.6 1.7-1.1 3.6-1.8 5-.4 1-1 2-1.9 2.8a5.2 5.2 0 0 1-3.7 1.7 6 6 0 0 1-5.3-3c-1 .8-2.2 1.6-3.4 2a9.8 9.8 0 0 1-6 .7 9 9 0 0 1-5.6-4 26 26 0 0 1-2.3-5.4 21 21 0 0 0-1.8-4c-.5-1-1-1.1-1.4-1.2-.7 0-1.3.1-2 1-1 1.2-1.7 2.8-2.7 5-.9 1.9-2 4.3-3.6 6-.8 1-1.9 1.9-3.2 2.4a7.8 7.8 0 0 1-4.5.3 8.4 8.4 0 0 1-6.6-7.5c-.5-4 1-8.9 4.8-14.6a2.9 2.9 0 0 1 4-.8Zm143.6 20.1a2.9 2.9 0 1 1-5.7 0 2.9 2.9 0 0 1 5.7 0Zm-118.4-11c1-1.7 2.4-3 3.7-3.5 1.3-.6 2.4-.5 3.1 0 .7.4 1.4 1.2 1.5 2.7.2 1.4-.1 3.2-1.1 5-1 1.7-2.5 3-3.8 3.5-1.3.5-2.4.4-3.1 0-.7-.4-1.3-1.3-1.5-2.7-.2-1.4.1-3.2 1.2-5ZM94.7 14a8.3 8.3 0 0 0-3.8 3.5 9.3 9.3 0 0 0-1 2.8v.1a7 7 0 0 0-.1 2.1c.1 1.5.8 2.3 1.5 2.7.7.5 1.8.6 3 0a8.3 8.3 0 0 0 3.8-3.5c1-1.8 1.4-3.6 1.2-5-.2-1.5-.8-2.3-1.5-2.7-.7-.5-1.8-.6-3.1 0Z" clip-rule="evenodd"/>
  </mask>
  <g mask="url(#ivanpla-logo-mask)">
    <path fill="url(#gradient-primary)" d="M0 0h152.6v39H0z"/>
  </g>
  <defs>
    <linearGradient id="gradient-primary" x1="0" x2="152.6" y1="19.5" y2="19.5" gradientUnits="userSpaceOnUse">
      <stop stop-color="var(--color-gradient-1)"/>
      <stop offset=".5" stop-color="var(--color-gradient-2)"/>
      <stop offset="1" stop-color="var(--color-gradient-3)"/>
    </linearGradient>
  </defs>
</svg>
