<svg xmlns="http://www.w3.org/2000/svg" width="54" height="16" viewBox="0 0 54 16" aria-aria-labelledby="ivoox-logo-title" role="img">
  <title id="ivoox-logo-title">ivoox logo</title>
  <path d="M3.8 4.2C5 4.2 6 5.2 6 6.3v8.2H3.7V6.3H.3V4.2h3.5Zm24.8 0c1 0 1.9.8 1.9 1.9v6.5c0 1-.8 1.8-1.9 1.9H22c-1 0-2-.9-2-2V6.2c0-1 1-2 2-2h6.5Zm12 0c1 0 1.9.8 1.9 1.9v6.5a2 2 0 0 1-1.8 1.9H34c-1 0-2-.9-2-2V6.2c0-1 1-2 2-2h6.5ZM17 4.2c.4 0 .7 0 1 .3.2.2.3.5.3.7v.4l-.2.4-.2.5-2.8 6a47.6 47.6 0 0 1-.7 1.3 1.6 1.6 0 0 1-1.3.6H13c-.4 0-.8 0-1-.2l-.6-.6-.6-1.1-2.7-6-.2-.4-.2-.4v-.4l.1-.6.5-.4.7-.1c.5 0 .8 0 1 .3l.6 1.2 2.4 5.8 2.5-6 .6-1c.2-.2.5-.3.9-.3Zm35 0c.4 0 .7 0 .9.3.2.1.3.4.3.6l-.1.6c0 .2-.2.4-.4.6L50.5 9l2.5 3.3c.4.5.6.9.6 1.2l-.3.6c-.3.2-.5.3-.8.3h-.1c-.4 0-.6 0-.8-.2l-.8-.8-2-2.7-2 2.7a5 5 0 0 1-.8.8l-.7.2c-.4 0-.7 0-1-.3a.9.9 0 0 1-.3-.7l.5-1L47 9l-2.2-2.7c-.4-.4-.6-.8-.6-1.2 0-.2.2-.5.4-.6.2-.2.5-.3.9-.3.3 0 .6 0 .8.2l.7.8 1.8 2.2 1.7-2.2.8-.8c.2-.2.5-.2.8-.2ZM28.3 6.3h-6v6h6v-6Zm12 0h-6v6h6v-6ZM4.6.6C5.4.6 6 1 6 1.9c0 .7-.6 1.2-1.3 1.3-.8 0-1.4-.6-1.4-1.3C3.3 1 4 .6 4.6.6Z" clip-rule="evenodd"/>
</svg>