<svg xmlns="http://www.w3.org/2000/svg" width="88" height="14" fill="none">
  <g fill="#394C77" clip-path="url(#a)">
    <path d="M.7 3h2.5v.9A4 4 0 0 1 6 2.7c1.3 0 2.4.6 3 1.6.9-1 2.2-1.6 3.7-1.6 2.3 0 3.8 1.6 3.8 4.1v6.5h-2.3v-6c0-1.5-.8-2.4-2.1-2.4-1.2 0-2.3.8-2.3 2.5v5.9H7.4v-6C7.4 5.9 6.6 5 5.2 5 4.1 4.9 3 5.7 3 7.6v5.7H.7V3ZM18 8a5.4 5.4 0 1 1 10.9 0A5.4 5.4 0 0 1 18 8Zm5.4 3.3c1.8 0 3.2-1.4 3.2-3.3 0-1.8-1.4-3.2-3.2-3.2A3 3 0 0 0 20.3 8c0 1.9 1.3 3.3 3.1 3.3Zm10.8 1.9h1.5v-2.1h-1.2c-1 0-1.5-.5-1.5-1.6V5h2.7V3H33V0h-2.4v9.8c0 2.3 1.2 3.5 3.6 3.5ZM36.6 8a5.4 5.4 0 1 1 10.8 0 5.4 5.4 0 0 1-10.8 0Zm5.4 3.3c1.7.1 3-1.3 3-3.3.1-1.7-1.3-3-3-3a3 3 0 0 0-3.1 3.2c0 1.9 1.3 3.3 3 3.3ZM53.4 7c-1.1-.3-2.2-.5-2.2-1.3 0-.9.9-1.2 1.6-1.2 1 0 1.7.6 1.9 1.4H57c-.2-2-1.8-3.2-4.2-3.2C50.6 2.7 49 4 49 5.9c0 2.2 2 2.7 3.6 3 1.2.3 2.3.6 2.3 1.5 0 .8-.7 1.3-1.8 1.3-1.2 0-2-.7-2-1.6h-2.3c.2 2.1 1.8 3.4 4.3 3.4 2.4 0 4-1.4 4-3.4.1-2.3-2-2.8-3.7-3.1Zm22.2-4.3c-3 0-5.4 2.5-5.4 5.5s2.3 5.4 5.3 5.4c2.5 0 4.5-1.5 5-3.6h-2.3c-.3.9-1.3 1.5-2.5 1.5a3 3 0 0 1-3.1-2.7h8V7.6a5 5 0 0 0-5-5Zm-2.8 4.1a3 3 0 0 1 2.8-2c1.4 0 2.5.8 2.6 2h-5.4Zm13 6.5h1.5v-2.1h-1.2c-1 0-1.5-.5-1.5-1.6V5.1h2.7V3h-2.7V0h-2.4v9.8c0 2.3 1.2 3.5 3.6 3.5Zm-25.2.3a2 2 0 1 0 0-3.8 2 2 0 0 0 0 3.8ZM59.4 3h2.3v1a4.1 4.1 0 0 1 3-1.3c2.4 0 4 1.8 4 4.7v5.9h-2.3V7.4c0-1.4-.8-2.5-2.3-2.5-1.4 0-2.4 1-2.4 2.7V8h-2.3V3Z"/>
  </g>
  <defs>
    <clipPath id="a">
      <path fill="#fff" d="M0 0h86.7v14H0z" transform="translate(.7)"/>
    </clipPath>
  </defs>
</svg>
