<svg xmlns="http://www.w3.org/2000/svg" width="112" height="18" viewBox="0 0 112 18" aria-labelledby="mundoanimalia-logo-title" role="img">
  <title id="mundoanimalia-logo-title">mundoanimalia logo</title>
  <path d="M15.9 8.4h2.7l2 6.7 2.1-6.7h2.7V18h-1.7v-7.6L21.4 17H20l-2.3-6.8v7.6H16V8.4Zm14 8.1c1 0 1.7-.7 1.7-1.9v-3.5h1.7V18h-1.7v-1.4c-.4 1-1.2 1.5-2.3 1.5-1.6 0-2.6-1-2.6-2.7V11h1.7v4c0 1 .6 1.5 1.5 1.5Zm8-4.1c-1 0-1.7.8-1.7 2v3.5h-1.7V11h1.7v1.3c.4-.9 1.2-1.4 2.3-1.4 1.6 0 2.5 1 2.5 2.7V18h-1.7v-4c0-1-.5-1.6-1.4-1.6Zm9.6 5.5v-1.4c-.4 1-1.3 1.5-2.4 1.5-2 0-3.4-1.5-3.4-3.5s1.5-3.5 3.4-3.5c1 0 2 .5 2.4 1.5V8.2h1.7v9.7h-1.7Zm-2-1.4a2 2 0 0 0 2.1-2 2 2 0 0 0-2-2 2 2 0 0 0-2.1 2c0 1.2.9 2 2 2Zm4.6-2c0-2 1.6-3.5 3.8-3.5 2.2 0 3.7 1.5 3.7 3.5S56.1 18 54 18s-4-1.5-4-3.5Zm3.8 2a2 2 0 0 0 2-2 2 2 0 0 0-2-2 2 2 0 0 0-2 2c0 1.2.8 2 2 2Zm7.5-8.1h2.3l4 9.5h-2l-1.2-3.3h-3.8l-1.3 3.3h-1.9l4-9.5Zm2.5 4.8-.7-2-.6-1.4-.6 1.4-.8 2h2.7Zm7.6-.8c-1 0-1.7.8-1.7 2v3.5H68V11h1.7v1.3c.4-.9 1.2-1.4 2.3-1.4 1.6 0 2.5 1 2.5 2.7V18H73v-4c0-1-.5-1.6-1.4-1.6Zm5.1-4.7c.8 0 1.3.5 1.3 1.2s-.5 1.2-1.3 1.2c-.7 0-1.3-.5-1.3-1.2s.6-1.2 1.3-1.2Zm-.8 3.4h1.7V18h-1.7v-7ZM86 12.4c-.8 0-1.3.7-1.3 1.7V18H83v-4c0-1-.4-1.5-1.2-1.5-.9 0-1.4.7-1.4 1.7V18h-1.7v-7h1.7v1.3c.4-1 1.1-1.4 2-1.4 1 0 1.8.5 2 1.4.5-.9 1.3-1.4 2.3-1.4 1.4 0 2.3 1 2.3 2.6V18h-1.7v-4c0-1-.5-1.5-1.2-1.5Zm9.5 4.1C95 17.5 94 18 93 18c-1.9 0-3.3-1.5-3.3-3.5S91 11 93 11c1.1 0 2 .5 2.4 1.5V11h1.8v7h-1.7v-1.4Zm-2 0a2 2 0 0 0 2-2 2 2 0 0 0-2-2 2 2 0 0 0-2 2c0 1.2.8 2 2 2Zm4.9-8.3h1.7v9.7h-1.7V8.2Zm3.9-.5c.7 0 1.3.5 1.3 1.2s-.6 1.2-1.3 1.2c-.8 0-1.3-.5-1.3-1.2s.5-1.2 1.3-1.2Zm-.9 3.4h1.7V18h-1.7v-7Zm8.4 5.4c-.5 1-1.3 1.5-2.5 1.5-1.8 0-3.3-1.5-3.3-3.5s1.4-3.5 3.3-3.5c1.2 0 2 .5 2.5 1.5V11h1.7v7h-1.7v-1.4Zm-2 0a2 2 0 0 0 2-2 2 2 0 0 0-2-2 2 2 0 0 0-2 2c0 1.2.8 2 2 2ZM14 1.8 12.3 0 9.6 2.6 8.8 2c-1-1-2.6-1-3.7 0L1.7 5.3v2C1.7 8.9 3 10 4.4 10c-.8 0-1.4.3-1.9.8L1.2 9.5c-1 .9-1 2.2 0 3l.5.6V18H6v-3.7a.5.5 0 0 1 1 0V18h4.3V8.4L14 5.5c1-1 1-2.7 0-3.7ZM6 10V6.3a.5.5 0 1 1 1 0V10H6Zm2-5.8a.5.5 0 1 1 0-1 .5.5 0 0 1 0 1Z"/>
</svg>