<svg xmlns="http://www.w3.org/2000/svg" width="120" height="23" viewBox="0 0 120 23" aria-aria-labelledby="purplecarrot-logo-title" role="img">
  <title id="purplecarrot-logo-title">purplecarrot logo</title>
  <path d="M3 8.6c2.3 0 3.1 1 3.1 2.9s-.8 2.8-3 2.8h-.6c-.3 0-.4.1-.4.3v2c0 .2-.1.3-.4.3H.4c-.3 0-.4-.1-.4-.4V9c0-.2.1-.3.4-.4H3Zm.1 2h-.6c-.3 0-.4.2-.4.4v1c0 .1.1.3.4.3H3c.6 0 1-.1 1-.8 0-.8-.4-.8-1-.8Zm7.6-2c.2 0 .4.2.4.4v4.6c0 1 0 1.5 1 1.5.8 0 .9-.6.9-1.5V9c0-.2.1-.4.4-.4h1.3c.3 0 .4.2.4.4v5.2c0 .8-.2 2.9-3 2.9-3 0-3.2-2-3.2-2.9V9c0-.2.2-.4.4-.4h1.4Zm10.6 0c2.2 0 3 1 3 2.9 0 1-.2 1.8-.9 2.3v.1l1.3 2.3c.2.4 0 .7-.4.7h-1.4c-.1 0-.2 0-.3-.2l-1.3-2.3v-.1h-.6c-.2 0-.3.1-.3.4v1.8c0 .2-.2.4-.4.4h-1.4a.4.4 0 0 1-.4-.4V9c0-.2.2-.4.4-.4h2.7Zm0 2h-.6c-.2 0-.3.2-.3.4v.9c0 .2.1.4.3.4h.7c.6 0 .9-.1.9-.8 0-.8-.3-.8-1-.8Zm9.6-2c2.2 0 3 1 3 2.9s-.8 2.8-3 2.8h-.6c-.2 0-.4.1-.4.3v2c0 .2 0 .3-.3.3h-1.4c-.2 0-.4-.1-.4-.4V9c0-.2.1-.3.4-.4h2.7Zm0 2h-.6c-.2 0-.4.2-.4.4v1c0 .1.2.3.4.3h.7c.6 0 .8-.1.8-.8 0-.8-.2-.8-.8-.8Zm7.7-2c.2 0 .3.2.3.4v5.5c0 .2.2.4.4.4h2.8c.2 0 .3 0 .3.3v1.3c0 .3-.1.4-.3.4h-4.9c-.2 0-.4-.1-.4-.4V9c0-.2.2-.4.4-.4h1.4Zm12.2 0c.2 0 .3.2.3.4v1.3c0 .2-.1.4-.3.4h-3c-.3 0-.4 0-.4.3v.4c0 .2.1.4.4.4h1.9c.2 0 .4 0 .4.3v1.3c0 .2-.2.4-.4.4h-2c-.2 0-.3 0-.3.3v.4c0 .2.1.4.4.4h3c.2 0 .3 0 .3.3v1.3c0 .3-.1.4-.3.4h-5.2c-.2 0-.4-.1-.4-.4V9c0-.2.2-.4.4-.4h5.2Zm15.9 2.7c0-.8.2-2.9 3-2.9 2.7 0 3.1 1.7 3.1 2.6 0 .2 0 .3-.2.3l-1.4.3c-.2 0-.4 0-.5-.3 0-.5-.3-.8-1-.8-.8 0-.9.5-.9 1.4v1.7c0 1 0 1.5 1 1.5.6 0 .8-.3 1-.9 0-.2.1-.4.4-.3l1.4.3c.1 0 .3.1.2.3 0 1-.4 2.6-3 2.6-3 0-3.1-2-3.1-2.9v-3Zm12.5-2.9c2.7 0 3 1.5 3 3v5c0 .3-.1.5-.3.5h-1.4c-.3 0-.4-.1-.4-.4v-1c0-.2-.1-.3-.4-.3h-1c-.2 0-.4 0-.4.3v1c0 .3-.1.4-.4.4h-1.3c-.3 0-.4-.2-.4-.4v-5c0-1.5.3-3 3-3Zm0 2.2c-.8 0-.9.3-.9.9v1.3c0 .2.2.3.4.3h1c.3 0 .4-.1.4-.3v-1.3c0-.6 0-.9-.9-.9Zm9.6-2c2.2 0 3 1 3 2.9 0 1-.2 1.8-.9 2.3v.1l1.3 2.3c.2.4 0 .7-.4.7h-1.4c-.1 0-.2 0-.3-.2l-1.3-2.3v-.1h-.5c-.3 0-.4.1-.4.4v1.8c0 .2-.2.4-.4.4H86a.4.4 0 0 1-.4-.4V9c0-.2.2-.4.4-.4h2.7Zm0 2h-.5c-.3 0-.4.2-.4.4v.9c0 .2.1.4.4.4h.6c.6 0 .9-.1.9-.8 0-.8-.3-.8-1-.8Zm9.4-2c2.2 0 3.1 1 3.1 2.9 0 1-.3 1.8-1 2.3v.1l1.3 2.3c.2.4 0 .7-.4.7h-1.4s-.2 0-.2-.2l-1.3-2.3-.1-.1h-.5c-.2 0-.4.1-.4.4v1.8c0 .2-.1.4-.4.4h-1.3c-.3 0-.4-.2-.4-.4V9c0-.2.1-.4.4-.4h2.6Zm.1 2h-.6c-.2 0-.4.2-.4.4v.9c0 .2.2.4.4.4h.6c.6 0 .9-.1.9-.8 0-.8-.3-.8-.9-.8Zm9.2-2.2c2.9 0 3 2 3.1 2.8v3c0 .8-.2 2.9-3 2.9-3 0-3.2-2-3.2-2.8v-3c0-.8.2-2.9 3.1-2.9Zm0 2c-.9 0-1 .6-1 1.5v1.7c0 1 .1 1.5 1 1.5 1 0 1-.6 1-1.5V12c0-.9 0-1.4-1-1.4Zm7.9.6c0-.2 0-.3-.3-.3h-1.8c-.2 0-.3-.2-.3-.4V9c0-.2.1-.4.3-.4h6.3c.3 0 .4.2.4.4v1.3c0 .2-.1.4-.4.4H118c-.2 0-.4 0-.4.3v5.5c0 .3 0 .4-.3.4h-1.4c-.2 0-.4-.1-.4-.4V11ZM58.6 21c.1 1.2.5 1.7.7 1.7.3 0 .6-.6.8-1.4l.4-2.7c.3-1.4.4-3.1.6-4.6v-.3l.2-2.6.2-1.2c0-.5 0-1.1-.4-1.5-.3-.3-.6-.3-1-.4l-.9-.2c-.5 0-1 .2-1.3.7-.2.4-.1 1-.1 1V11l.1 1a179.3 179.3 0 0 0 .2 2.7v.8l.5 5.5Z" clip-rule="evenodd"/>
  <path d="m60.4 19.3.1-1.2v-.2M59.7 6v.3s.3.5.2 1c-.2.6-1-1.3-1.2-1.4l-.4-.7-.9-1.8c0-.2-.4-.6-.3-.8.1-.3.5 0 .6-.4l-.4-.7L57 1c-.1-.3-.3-.6 0-.8h.7c.2 0 1-.2 1.1 0 .2.2.2.8.3 1l.6 1.8c.1.5 0 .6-.4.6-.3.1-.3.2-.1.7l.5 1.8Zm.6-1.3-.1.2s-.2.3-.2.7c0 .4.8-.8.8-.9.2-.3.2 0 .4-.4l.7-1.1.2-.5c0-.3-.3-.1-.3-.3l.3-.5.2-.4c.1-.2.3-.3 0-.5h-1l-.2.6-.5 1.2c-.2.3-.1.3.1.4a36.8 36.8 0 0 1-.4 1.6Z" clip-rule="evenodd"/>
</svg>