<svg xmlns="http://www.w3.org/2000/svg" height="19" viewBox="0 0 106 19" aria-labelledby="santander-logo-title" role="img">
  <title id="santander-logo-title">santander</title>
  <path d="M14.4 9c0-.6-.2-1.3-.6-1.9l-3-5.2-.5-1.3-.1.2a4 4 0 0 0 0 4.2l2.4 4.2a4 4 0 0 1 0 4.2l-.1.2-.5-1.2-2.2-3.9L8.4 6l-.5-1.2-.1.2a4.2 4.2 0 0 0 0 4.2l2.4 4.2c.7 1.2.7 2.9 0 4.2l-.1.2-.5-1.3-3-5.3C6 10.5 6 9.7 6 9 2.7 9.8.5 11.6.5 13.7c0 2.9 4.3 5.2 9.7 5.2 5.3 0 9.6-2.3 9.6-5.2 0-2-2.2-3.8-5.4-4.7Zm9.1 9c0-.8.1-1.2.4-1.9 1 .5 2.3.7 3.3.7 1.6 0 2.6-.5 2.6-1.6 0-1-.7-1.5-2.4-2.3l-.9-.3c-1.7-.8-2.9-1.7-2.9-3.6 0-2.1 1.5-3.4 4.4-3.4 1.2 0 2.3.1 3.3.5a7 7 0 0 1-.3 1.8c-1-.4-2.2-.5-3-.5-1.6 0-2.3.6-2.3 1.6 0 .9.7 1.5 2 2l1 .4c2.2 1 3.2 2 3.2 3.8 0 2-1.6 3.5-4.7 3.5-1.4 0-2.7-.2-3.7-.7Zm18.1-8.7v9h-1.8l-.1-1c-.5.8-1.3 1.3-2.6 1.3-2.3 0-4-1.8-4-4.8 0-3.2 1.7-5 5-5 1.4 0 2.5.2 3.5.5Zm-2 7v-5.7h-1.4c-2 0-3 1.2-3 3.2 0 1.9.7 3.2 2.5 3.2.8 0 1.4-.3 2-.7Zm12.3-4v6h-2v-5.6c0-1.5-.5-2.2-2.5-2.2-.5 0-1 0-1.6.2v7.7h-2v-9c1.3-.4 2.7-.6 3.6-.6 3.4 0 4.5 1.3 4.5 3.5Zm5.5 4.6a4 4 0 0 0 1.6-.2l-.3 1.6c-.5.3-1.1.4-1.6.4-2 0-3.2-1-3.2-3.1V6c.6-.2 1.3-.3 2-.3V9H59v2h-3v4.4c0 1.1.5 1.6 1.5 1.6Zm10.7-7.6v9h-1.8l-.1-1c-.5.8-1.3 1.3-2.6 1.3-2.4 0-4-1.8-4-4.8 0-3.2 1.7-5 5-5 1.4 0 2.5.2 3.5.5Zm-2 7v-5.7h-1.5c-2 0-3 1.2-3 3.2 0 1.9.7 3.2 2.5 3.2.8 0 1.5-.3 2-.7Zm12.2-4v6h-2v-5.6c0-1.5-.5-2.2-2.4-2.2-.5 0-1 0-1.6.2v7.7h-2v-9c1.3-.4 2.7-.6 3.6-.6 3.3 0 4.4 1.3 4.4 3.5Zm10.1-6.6v12.7h-1.8l-.1-1.2c-.5.9-1.3 1.4-2.6 1.4-2.4 0-4-1.8-4-4.8 0-3.2 1.7-5 5-5l1.6.1V6c.6-.2 1.3-.2 2-.2Zm-2 10.6v-5.6l-1.5-.2c-2 0-3 1.3-3 3.3 0 1.9.8 3.2 2.6 3.2.8 0 1.4-.3 2-.7Zm12-1.8h-6.3c.3 1.6 1.2 2.4 3 2.4 1.1 0 2.2-.2 3.2-.7L98 18c-1 .4-1.9.6-3 .6-3.3 0-5-1.9-5-5 0-2.7 1.3-4.8 4.5-4.8 2.8 0 4 1.8 4 4.1v1.6Zm-6.3-1.7h4.5c0-1.5-.8-2.3-2.2-2.3-1.4 0-2.2.8-2.3 2.3ZM105.5 9a9 9 0 0 1-.2 1.7h-2.9v7.8h-2v-9a9 9 0 0 1 3.4-.6l1.7.1Z"/>
</svg>