<svg xmlns="http://www.w3.org/2000/svg" width="92" height="14" fill="none">
  <g fill="#394C77" clip-path="url(#a)">
    <path d="m1 11 1.6-2a5 5 0 0 0 4 1.9c1.3 0 1.8-.8 1.8-1.4 0-1.7-5.8-1.4-5.8-5 0-2 1.7-4 4.7-4 1.9 0 3.7.8 4.7 2l-1.6 2a4.6 4.6 0 0 0-3.6-1.6c-.9 0-1.5.5-1.5 1.2C5.3 5.7 11 5.5 11 9c0 2.2-1.8 4.2-4.7 4.2a7 7 0 0 1-5.4-2.3Zm11.2-1.8c0-2.8 2.1-5.3 5-5.3 2.8 0 4.4 1.7 4.4 4 0 2.8-2.1 5.3-5 5.3-2.8 0-4.4-1.7-4.4-4Zm7-1.2c0-1.2-.8-2-2-2-1.5 0-2.6 1.5-2.6 3 0 1.3.8 2.1 2 2.1 1.5 0 2.6-1.4 2.6-3Zm3 5L25 .8h2L24.5 13h-2.3Zm4.9-3.8c0-2.8 2.1-5.3 5-5.3 2.8 0 4.3 1.7 4.3 4 0 2.8-2 5.3-5 5.3-2.8 0-4.3-1.7-4.3-4Zm7-1.2c0-1.2-.8-2-2-2-1.6 0-2.7 1.5-2.7 3 0 1.3.8 2.1 2 2.1 1.6 0 2.6-1.4 2.6-3Zm2.8 3 1.6-2a5 5 0 0 0 4 1.9c1.3 0 1.8-.8 1.8-1.4 0-1.7-5.8-1.4-5.8-5 0-2 1.7-3.9 4.7-3.9 1.9 0 3.7.8 4.7 2l-1.6 1.9c-.8-1-2.3-1.6-3.5-1.6-1 0-1.6.5-1.6 1.2 0 1.6 5.8 1.4 5.8 5 0 2.1-1.7 4.1-4.7 4.1a7 7 0 0 1-5.4-2.3Zm11.8.3v-.6l1-4.5h-1.4l.5-2h1.4l.5-2.5H53l-.5 2.4h1.7l-.4 2h-1.7l-.9 4v.3c0 .4.2.7.8.7.2 0 .5 0 .7-.2v1.9c-.3.3-.8.4-1.4.4-1.5 0-2.6-.6-2.6-2Zm5.5-2.1c0-2.8 2.1-5.3 5-5.3 2.8 0 4.3 1.7 4.3 4 0 2.8-2 5.3-5 5.3-2.8 0-4.3-1.7-4.3-4Zm7-1.2c0-1.2-.8-2-2-2-1.6 0-2.6 1.5-2.6 3 0 1.3.8 2.1 2 2.1 1.5 0 2.6-1.4 2.6-3Zm3.3 1.2c0-3 2.3-5.3 5-5.3 1.9 0 3 .8 3.6 1.8L71.4 7a2 2 0 0 0-1.8-1c-1.6 0-2.7 1.4-2.7 3 0 1.4 1 2.1 2.1 2.1.7 0 1.4-.4 1.8-.9l1.3 1.6c-.7.7-1.8 1.4-3.3 1.4-2.6 0-4.3-1.6-4.3-4ZM78.8 13l-1.5-3.5-1.4 1.2-.4 2.3h-2.3L75.8.8h2.3L76.5 8l4-3.9h3l-4.4 4 2.5 4.9h-2.8Zm3.7-1.4 1.2-1.6c.5.6 1.8 1.4 3 1.4.8 0 1.3-.4 1.3-1 0-1.1-4.4-.8-4.4-3.5 0-1.5 1.3-3 3.6-3a5 5 0 0 1 3.7 1.5l-1.2 1.5a3.5 3.5 0 0 0-2.5-1.1c-.8 0-1.3.3-1.3.8 0 1 4.4.8 4.4 3.5 0 1.7-1.4 3.1-3.7 3.1-1.6 0-3.2-.6-4.1-1.6Z"/>
  </g>
  <defs>
    <clipPath id="a">
      <path fill="#fff" d="M0 0h90v13H0z" transform="translate(1 .5)"/>
    </clipPath>
  </defs>
</svg>
