<svg xmlns="http://www.w3.org/2000/svg" width="96" height="28" viewBox="0 0 96 28" aria-labelledby="spoton-logo-title" role="img">
  <title id="spoton-logo-title">spoton logo</title>
  <path d="M14.1 25.3c-.6 0-1.2 0-1.8-.2.2-3.8-.1-7.3 2.5-8.5 1.6-.8 6.9.3 7.8-3l.5-2.3c0-.5-.3-.9-.7-1a231.7 231.7 0 0 1-4.3-.8l-1.4-1.1a3 3 0 0 0-1.5-.7L13 7.3h-.4A3.3 3.3 0 0 0 8.2 10 490 490 0 0 0 3 16.4a11.4 11.4 0 1 1 11 8.9Zm-3.8-15a1.2 1.2 0 1 1 2.3 0 1.2 1.2 0 0 1-2.3 0Zm1.5 8.7-.2 1.5A7 7 0 0 1 6.9 13l1.4-1.7c.6 2 2.5 4.5 3 5.2h.3c.6-.8 3.1-4 3.1-6.2 0-.8-.2-1.4-.6-2l1 .2c.3 0 .7.3 1 .5l.9.8-.9 1.7c0 .2.1.3.3.2l1.4-1.3.5.2 2.6.4.4 1c0 .3.3.5.5.6l-.2.7c-.4 1.4-2 1.7-4.5 1.8-1.1.1-2 .2-2.7.5-1.3.6-2.1 1.7-2.6 3.3Zm-.4 3.7a9 9 0 0 1-6.5-7.1l1-1.3a8 8 0 0 0 5.6 7.2l-.1 1.2ZM22.9 5.2a12.3 12.3 0 0 0-17.5 0A12.2 12.2 0 0 0 2 16.6a1 1 0 0 0 1.7.4l.4-.5c1 3.4 3.7 6.2 7.3 7.1l-.1 1.5c0 .5.3.9.8 1A12.5 12.5 0 0 0 23 22.6a12.2 12.2 0 0 0 0-17.4Zm8.8 14.4c-1-.3-1.8-.8-2.5-1.5l1-3c.5.7 1.1 1.2 2 1.6.7.4 1.5.6 2.4.6 1.1 0 1.7-.4 1.7-1.1 0-.2 0-.4-.2-.6l-.8-.5-1.5-.5a12 12 0 0 1-1.7-.8c-.5-.2-1-.6-1.2-1-.3-.4-.5-1-.5-1.6a4 4 0 0 1 1.3-3.1c.8-.8 2-1.1 3.5-1.1 1 0 1.9.1 2.9.4a5 5 0 0 1 2.4 1.5l-1.2 2.6c-.6-.6-1.2-1-2-1.4a5 5 0 0 0-2-.5c-.6 0-1 .1-1.3.3-.2.2-.4.5-.4.8 0 .3.2.5.5.7l1.7.7c1.2.4 2.1.9 2.8 1.4.7.5 1 1.3 1 2.2 0 2.9-1.7 4.3-5 4.3-1 0-2-.2-3-.4Zm15.5-3.1a3 3 0 0 0 .6-2c0-.6-.2-1.1-.5-1.5-.4-.4-.8-.6-1.4-.6a2.2 2.2 0 0 0-1.9 1l-.5 2.8c.1.3.4.5.7.8.4.2.8.3 1.3.3a2 2 0 0 0 1.7-.8ZM41.7 10h3v.6c.2-.3.6-.5 1-.6l1.2-.2a3.7 3.7 0 0 1 3.6 2.2c.3.6.4 1.4.4 2.3 0 1-.2 2-.6 2.8-.3.8-1 1.5-1.7 2S47 20 46 20a5 5 0 0 1-1.7-.3c-.5-.2-1-.5-1.2-.9l-.8 4h-3l2.4-12.7Zm16.7 6.8c.3-.2.6-.5.8-1 .2-.4.3-.8.3-1.3 0-.6-.2-1-.5-1.4a2 2 0 0 0-1.5-.5c-.5 0-1 .1-1.3.3-.4.3-.7.6-.9 1a3 3 0 0 0-.3 1.4c0 .6.2 1 .6 1.4.4.3.9.5 1.5.5.5 0 1-.1 1.3-.4Zm-4 2.6c-.8-.3-1.4-.8-1.8-1.5a4 4 0 0 1-.7-2.4c0-1 .2-2 .7-3a5 5 0 0 1 2-2c.8-.4 1.8-.7 3-.7.9 0 1.8.2 2.6.6.7.3 1.3.8 1.8 1.5.4.7.7 1.5.7 2.4 0 1.1-.3 2-.7 3-.5.8-1.1 1.4-2 2-.8.4-1.8.7-3 .7-1 0-1.8-.2-2.6-.6Zm10.5 0c-.6-.4-1-1-1-2l.1-1 .8-3.7h-1.3l.5-2.6h1.2l.8-3.7h3l-.7 3.7h2.5l-.5 2.6h-2.5l-.6 3.2v.6c0 .3 0 .6.2.7.2.2.4.3.8.3l1.2-.3-.5 2.6-1.3.2a5 5 0 0 1-2.7-.6Zm14.9-2.9c.6-.3 1-.8 1.4-1.4.3-.7.4-1.4.4-2.1a3 3 0 0 0-.9-2.3c-.6-.6-1.4-.9-2.4-.9A3.6 3.6 0 0 0 75 12c-.3.6-.5 1.3-.5 2 0 1 .3 1.8 1 2.3.5.6 1.3.9 2.3.9.8 0 1.4-.2 2-.6Zm-5.4 2.7a5 5 0 0 1-2.3-2c-.5-1-.8-2-.8-3.1 0-1.4.3-2.6.9-3.7.6-1 1.4-1.9 2.5-2.5a7.5 7.5 0 0 1 7-.2c1 .5 1.7 1.2 2.3 2 .6 1 .8 2 .8 3.2 0 1.3-.2 2.5-.8 3.6-.6 1.1-1.4 2-2.5 2.6-1 .6-2.3.9-3.7.9-1.3 0-2.4-.3-3.4-.8Zm12.1-9.1h3l-.2.6c.4-.3.8-.5 1.3-.6a5 5 0 0 1 1.6-.3c1 0 1.8.3 2.3.8.5.5.7 1.3.7 2.3v1.3L94 19.7h-3l1-4.9v-1c0-.5 0-.9-.3-1-.2-.3-.5-.4-1-.4a2 2 0 0 0-1.6.7l-1.3 6.6h-3.1l1.8-9.6ZM66.6 25l-.8-.2a1 1 0 0 1-.4-.5 2 2 0 0 1-.2-.9c0-.4 0-.6.2-.9 0-.2.2-.4.4-.5l.8-.1a2.6 2.6 0 0 1 1 .2v.5a4 4 0 0 0-.5-.2h-.4a1 1 0 0 0-.5 0l-.3.4-.1.6.1.6c0 .2.2.3.3.3l.5.1a1.6 1.6 0 0 0 .4 0v-.7h-.5v-.4h1.1v1.3a2.5 2.5 0 0 1-1.1.3Zm2.4-1.6h.8l.2-.2v-.6l-.2-.1H69v.9Zm0 .5v1h-.6v-3h1.2c.4 0 .6.1.8.3.2.1.3.4.3.7 0 .3 0 .5-.3.7-.2.2-.4.3-.8.3H69Zm3.2 1.1a3.2 3.2 0 0 1-.7-.2 2 2 0 0 1-.3-.1v-.6l.4.3h.9l.1-.3v-.2l-.4-.2a11.4 11.4 0 0 0-.6-.2l-.2-.2-.2-.2v-.3a.9.9 0 0 1 .2-.6l.3-.3h1.1l.3.2v.6l-.3-.2-.2-.1a1 1 0 0 0-.6 0l-.2.1v.4l.3.1.3.1.3.2.3.1.2.3v.8c-.2 0-.3.2-.4.3l-.6.1Zm2.8-.1v-3h2v.5h-1.4v.8h1.2v.5h-1.2v1.2H75Zm2.5 0v-3h2v.5H78v.8h1.1v.4H78v.8h1.3v.5h-2Zm2.5 0v-3h.6l1.6 2.2-.2.4v-2.6h.6v3H82l-1.7-2.2.2-.3v2.5H80Zm4.5.1c-.5 0-.8-.2-1-.5-.3-.2-.4-.6-.4-1.1 0-.5.1-.9.3-1.1.3-.3.6-.4 1.1-.4h.5l.4.2v.5a1.7 1.7 0 0 0-.8-.2 1 1 0 0 0-.5 0l-.3.4V24c0 .2.2.3.3.3l.5.1h.4l.4-.2v.5a2.1 2.1 0 0 1-.9.2Zm1.5-.1v-3h2v.5h-1.4v.8h1.2v.4h-1.2v.8H88v.5h-2Z"/>
</svg>