<svg xmlns="http://www.w3.org/2000/svg" height="14" viewBox="0 0 110 14" aria-labelledby="stelladot-logo-title" role="img">
  <title id="stelladot-logo-title">stelladot</title>
  <path d="m7.5 7-.9-.5-.7-.2-1.8-.6c-.3 0-.6-.2-.8-.3-.3 0-.5-.2-.7-.3L2 4.5c-.2-.3-.3-.5-.3-.8 0-.4.1-.7.3-1l.6-.6.9-.3.8-.1c.4 0 .8 0 1.1.2l.9.6.6.9.3 1h.2V1.7h-.2L7 2h-.3a1 1 0 0 1-.4 0l-.5-.3-.6-.2h-.9c-.5 0-1 0-1.4.2-.4.1-.7.4-1 .6l-.7 1c-.2.4-.3.8-.3 1.3 0 .6.2 1.2.7 1.6a4 4 0 0 0 1.8 1l1.8.5.7.2.6.5c.3.1.4.4.6.6l.2.9-.2.8A2.1 2.1 0 0 1 6 12c-.4.2-.9.3-1.4.3H4a3.5 3.5 0 0 1-1.4-.4l-.7-.6-.6-.9L1 9.1H.7v3.2H1V12h1a11.5 11.5 0 0 0 1 .4h1.5c.6.1 1.1 0 1.6-.2s1-.4 1.3-.8a3.3 3.3 0 0 0 1-2.4c0-.4 0-.9-.3-1.3L7.5 7Zm22.2 2.9a3.6 3.6 0 0 1-1.5 1.8l-.8.3H24V6.7h1.6c.4 0 .8.3 1 .7l.4.7.2.8h.2V4.3h-.2c0 .4-.2.8-.3 1.1a2 2 0 0 1-.5.7c-.1.1-.3.3-.6.3H24V2h3.6l.7.5c.3.2.4.5.6.8l.4 1h.2V1.7h-8.8V2h1.7v10h-1.7v.3H30V9l-.2.9Zm10.2 1.3c-.4.4-.9.7-1.4.8H35V2h1.7v-.3h-4.9V2h1.7v10h-1.7v.3h9.4V9H41a5 5 0 0 1-1.1 2.2Zm10.8 0c-.4.4-.9.7-1.4.8h-3.5V2h1.7v-.3h-4.9V2h1.7v10h-1.7v.3H52V9h-.2a5 5 0 0 1-1.1 2.2ZM97 3c-.4-.4-1-.8-1.6-1.1-.6-.3-1.3-.4-2-.4s-1.3.1-1.9.4a5.8 5.8 0 0 0-3.4 5c0 .8.1 1.5.4 2.1a4.4 4.4 0 0 0 2.8 3 5 5 0 0 0 4.2 0 5.7 5.7 0 0 0 3.2-5c0-.8-.1-1.5-.4-2.2A4 4 0 0 0 97 3Zm-.2 6.3c-.1.6-.3 1.1-.6 1.7L95 12a5 5 0 0 1-3.4 0c-.4-.3-.8-.6-1-1-.3-.6-.6-1.1-.6-1.7A13 13 0 0 1 90 5c0-.6.3-1.2.5-1.7A3 3 0 0 1 91.6 2a4 4 0 0 1 3.7 0c.4.3.8.7 1 1.2.3.5.5 1.1.6 1.7a13.8 13.8 0 0 1-.1 4.3Zm3.2-7.6v2.7h.1c.1-.5.4-1 .6-1.4l.8-.7c.2-.2.4-.3.7-.3h1.6v10h-1.7v.3h5V12h-1.7V2h1.6c.3 0 .5.1.7.3l.8.7c.3.4.5 1 .6 1.4h.2V1.7h-9.4ZM85.3 4c-.3-.5-.7-.9-1.1-1.2a5.6 5.6 0 0 0-2.2-1 5.4 5.4 0 0 0-1.3-.1h-5.4v.2H77v6l-.2-.2-.2-.2L76 7l.1-.6V5.3l-.2-.1h-.4c-.1.3-.2.5-.1.7l.1.6.1.1.1.2V7a14.2 14.2 0 0 1-1.3 2.3l-.8 1-.2.3-.8 1c-.5-.5-1-1-1.3-1.5a17.5 17.5 0 0 1-3.5-6.5l.6-.5a6 6 0 0 0 1.1-1.3l.4-1c0-.1 0-.3-.2-.4a.8.8 0 0 0-.5-.4h-.4c-.3 0-.5.2-.6.4H68l-.2.2-.1.3c-.5.7-.6 1.5-.5 2.3v.1l-1.3 1c-.7.6-1.3 1.2-1.8 1.9a6 6 0 0 0-1 2.4c-.2.8 0 1.7.3 2.5l.5.9h-1L58.7 1.5h-.4l-4 10.5h-1.4v.3h3.3V12h-1.6L56 8h3.6l1.6 4h-1.7v.3h4.6l.7.5a5.7 5.7 0 0 0 6.3.4 8 8 0 0 0 1.6-1.3c.5.4 1.1.7 1.8 1l1 .2h.5c.3 0 .6-.2.8-.4l-.2.1.1-.1v.1l-.3.1-.4.1h-.8a5.9 5.9 0 0 1-2.4-1.3l.8-.9a15.3 15.3 0 0 0 2.1-3.6L76 7a3.6 3.6 0 0 0 1.1.8V12h-1.7v.3H81l.7-.1a5 5 0 0 0 1.4-.4c.5-.2.9-.4 1.2-.7.4-.3.8-.6 1-1a4.9 4.9 0 0 0 1-3.1L86 5.4 85.3 4Zm-29 3.7 1.6-4.2 1.7 4.2h-3.4ZM68 1.3l.5-.6.5-.2.2.3c0 .3 0 .4-.2.6 0 .2-.2.3-.3.5l-.8.8-.3.2c0-.6.2-1.1.4-1.6Zm3 11.5a5.3 5.3 0 0 1-6-.6 3.8 3.8 0 0 1-1.3-2.8c0-1 .4-2 1-3 .7-.8 1.5-1.6 2.4-2.2l.3-.3.5 1.5a18.3 18.3 0 0 0 4.4 6.1l.2.2-1.5 1.1Zm4.8-6.1a2 2 0 0 1-.2-.4 1 1 0 0 1 0-.8l.2-.2.2.3v.6l-.2.5Zm8.4 2.2c-.1.5-.4 1-.7 1.6A3.2 3.2 0 0 1 81 12h-2.4V2l.6-.1h.7c.7 0 1.4.1 2.1.4.6.2 1 .6 1.4 1 .4.5.7 1 .8 1.6a9 9 0 0 1 0 4ZM10 4.4h.2L11 3l.7-.7c.2-.2.5-.3.7-.3H14v10h-1.7v.3h4.9V12h-1.7V2h1.6c.3 0 .5.1.7.3l.8.7.6 1.4h.2V1.7H10v2.7Z"/>
</svg>