<svg xmlns="http://www.w3.org/2000/svg" height="17" viewBox="0 0 110 20" aria-labelledby="unaplauso-logo-title" role="img">
  <title id="unaplauso-logo-title">unaplauso logo</title>
  <path d="M33.3 8.6v5.5l1.3.3v.7l-2.6.2-.2-1.8a4.5 4.5 0 0 1-3.5 1.9c-1.6 0-2.6-1-2.6-3.6V7l-1.3-.3V6l2.8-.3.2.2-.1 2.7v3c0 1.8.5 2.4 1.6 2.4 1 0 1.9-.4 2.8-1.3V7l-1.4-.3V6l2.8-.2.2.2v2.7ZM44.8 11v3.1l1.5.3v.7h-4.5v-.7l1.5-.2V9.3c0-1.8-.5-2.4-1.7-2.4-1 0-1.7.4-2.7 1.3V14l1.4.3v.7h-4.9v-.7l1.9-.2V7.6l-2-.2v-.7l3-1.1.3.1.2 1.6c1-1 2.3-1.7 3.5-1.7 1.7 0 2.5 1 2.5 3.6V11ZM9 15.8a6 6 0 0 0 3.8 1.8c.8.1 1.5.6 2.2 1-.5.7-1.2.6-2 .2a6 6 0 0 0-2.2-.7 5 5 0 0 1-3-1.3L1.6 11c-.4-.4-.7-.9-.3-1.4a1 1 0 0 1 1.5-.4c.2.5.5 1 .9 1.3L9 15.8ZM3 8.7 1.9 7.6C1.3 7 1 6.6 1.5 6A1 1 0 0 1 3 5.8c.4.9 1.2 1.5 1.8 2.1l3.3 3.3c.2.2.5.4.2.6-.2.2-.4-.1-.5-.2L5 8.8C4.2 8 4 8 3 8.7Zm0-3.8c-.5-.5-.8-1-.3-1.6.4-.6 1-.6 1.6-.2.4.8 1.2 1.4 1.8 2L9.7 9c.2.2.5.3.3.6-.3.3-.5 0-.6-.2l-4-4c-.8-.8-1.1-.8-2.1 0L2.9 5Zm3.6-2.3C6 2 5.4 1.8 4.8 2.4c.1-1.2.8-1.5 2-.9 0 .5.3.9.6 1.2l4 3.9c.2.2 1 .6.6 1-.5.3-.8-.4-1-.7C9.4 5.5 8 4 6.6 2.6Zm6.7 2 2.4 2.6c-1.9-1-3.2-2.6-4.6-4.1.5-.4 1-.2 1.4.1 0 .7.4 1 .8 1.5ZM20 1.3 18.2 3c-.2.2-.4.5-.8.4a.5.5 0 0 1-.3-.7c0-.2.2-.3.4-.5l.4-.4 1-.9c.1-.2.4-.6.8-.5.3.2.5.5.3.8ZM4.3 16a.5.5 0 0 1 .2.7A17.7 17.7 0 0 1 2 18.9a.6.6 0 0 1-.5-.3.5.5 0 0 1 0-.6l2-2h.7ZM3 14.8l-1.3.4A.5.5 0 0 1 1 15a.5.5 0 0 1 .3-.7l1.5-.5c.4 0 .6.2.6.5s-.1.5-.4.6Zm3.8 2.8L6.3 19a.5.5 0 0 1-.7.3.5.5 0 0 1-.4-.6l.6-1.5c.2-.3.5-.3.8-.2.2.2.3.5.2.7ZM16.3.8l-.5 1.3a.5.5 0 0 1-.7.3.5.5 0 0 1-.3-.6l.6-1.5c.1-.4.5-.4.8-.2.2.2.2.5.1.7Zm3.8 4.4-1.3.4a.5.5 0 0 1-.6-.4.5.5 0 0 1 .2-.6l1.6-.5c.4 0 .6.2.6.6 0 .2-.2.4-.5.5Z" clip-rule="evenodd"/>
  <path d="M55.2 14.3c.3 0 .6-.1.8-.4l.4.4c-.5.8-1 1-1.7 1-1 0-1.7-.6-1.8-1.5-1 1-1.7 1.6-2.9 1.6-1.4 0-3-.8-3-2.5 0-1 1-2 3.6-3l2.3-.6v-.5c0-1.9-.6-2.4-1.9-2.4-.3 0-.7 0-1 .2l-.5 1.3c-.1.5-.4.9-1 .9-.5 0-1.1-.3-1.2-.8.4-1.5 2.2-2.4 4.2-2.4s3 .9 3 3.4v4c0 .9.2 1.2.7 1.2ZM49 12.6c0 1 .7 1.5 1.6 1.5.6 0 1-.2 2.2-1v-3l-1.9.5c-1.7.7-2 1.5-2 2Zm13.5-7c2 0 3.7 1.8 3.7 4.8s-1.7 5-4 5c-1 0-2-.5-2.7-1.3v4.7l2 .3v.7h-5.1v-.7L58 19V7.6l-1.6-.2v-.7l2.7-1.1.3.2V7c1-1 2-1.4 3-1.4Zm-.7 8.7c1.5 0 2.7-1.2 2.7-3.7s-1-4-2.5-4c-.6 0-1.3.3-2.4 1.2v5.5c.8.7 1.5 1 2.2 1Zm8.3-3.3v3.2l1.6.2v.7H67v-.7l1.6-.2V2.4L67 2.2v-.7l3-1 .3.2V11Zm10.1 3.3c.3 0 .6-.1.8-.4l.4.4c-.5.8-1 1-1.7 1-.9 0-1.6-.6-1.7-1.5-1.1 1-1.8 1.6-3 1.6-1.4 0-2.6-.8-2.6-2.5 0-1 .6-2 3.3-3l2.2-.6v-.5c0-1.9-.5-2.4-1.8-2.4-.4 0-.8 0-1.1.2l-.4 1.3c-.2.5-.5.9-1 .9a.8.8 0 0 1-.9-.8c.4-1.5 1.8-2.4 3.8-2.4 2 0 3 .9 3 3.4v4c0 .9.3 1.2.7 1.2Zm-6-1.7c0 1 .6 1.5 1.5 1.5.7 0 1-.2 2.2-1v-3l-1.8.5c-1.8.7-2 1.5-2 2Zm16-4v5.5l1.4.3v.7l-2.7.2-.2-1.8a4.5 4.5 0 0 1-3.5 1.9c-1.6 0-2.5-1-2.5-3.6V7l-1.4-.3V6l2.8-.3.2.2v5.7c0 1.8.5 2.4 1.5 2.4s2-.4 2.9-1.3V7l-1.4-.3V6l2.8-.2.2.2v2.7Zm6.4 1.1c2 .7 2.7 1.7 2.7 2.9 0 1.4-1.3 2.7-3.8 2.7-1 0-2-.2-2.9-.7v-2.1h1L94 14c.5.3 1 .4 1.6.4 1.5 0 2.2-.6 2.2-1.5s-.6-1.3-1.8-1.8l-1-.3c-1.4-.5-2.3-1.3-2.3-2.6 0-1.5 1.2-2.8 3.4-2.8 1 0 1.9.3 2.7.8v2h-1l-.4-1.5a3 3 0 0 0-1.4-.4c-1.2 0-1.8.6-1.8 1.4 0 .9.5 1.2 1.8 1.7l.6.2Zm8.2-4.1c2.2 0 4.5 1.6 4.5 4.9 0 3.3-2.3 4.9-4.5 4.9-2.3 0-4.5-1.6-4.5-4.9 0-3.3 2.2-5 4.5-5Zm0 8.9c1.7 0 2.7-1.4 2.7-4s-1-4-2.7-4c-1.8 0-2.7 1.3-2.7 4 0 2.6 1 4 2.7 4Z"/>
</svg>