<svg xmlns="http://www.w3.org/2000/svg" height="22" viewBox="0 0 92 25" aria-labelledby="yumping-logo-title" role="img">
  <title id="yumping-logo-title">yumping logo</title>
  <path d="m10.3 20.3.1.3.2.3.5-.2.2-.3h-1Zm.3 1.8-.4-.1-.6-1-.4-.7a.5.5 0 0 1 .2-.7l.8-.2 1 .1.9.1h.2a.4.4 0 0 1 .4.7l-.4.4c-.3.2-.3.2-.3.4s-.1.3-.3.4l-.4.1-.3.1a.5.5 0 0 1-.4.4Z"/>
  <path d="M2 2Zm6.6 22.2.3.1a2 2 0 0 0 1-.3 6.3 6.3 0 0 1 .8-.4l.4-.1-.1-.2-.4-.7a.4.4 0 0 1 .4-.6c.4 0 .6.2.9.3l.4.2.5-.4a2.8 2.8 0 0 1 .5-.4l1-1.3.1-.2c1.4-.7 2.7-1.6 3.7-2.4.3-.3.7-.8.7-1 0-.5-.4-.7-.4-.7h-.5c-.6 0-1.4.2-2.2.4-.7.3-1.5.5-2.2.5H13a.5.5 0 0 1-.2-.8l.8-2.2a88.6 88.6 0 0 1 1.8-5 41.3 41.3 0 0 0 6-5c1-.2 1.6-.5 1.9-.7v-.9l-.2-.1-.4.4-.2.1-.6.3a.6.6 0 0 1-.4 0l-.2-.3v.5L21 4l-.4.3-.3.2-.4.3a14.2 14.2 0 0 1-4.2 2.6l-1.2.3-.8.2-.5-.1c-.5-.6-.1-1.2 0-1.4l.2-.4v-.1c0-.3-.2-.6-.1-1a2 2 0 0 0-1.3-.5h-.3l-.2.2c-.2 0-.7.4-.8.6v1.1c0 .1.2.4.1.7l-.1.4a1 1 0 0 1-.7.3c-.2 0-.4 0-.5-.2-.2-.2-1.7-.7-2.7-.9-.1 0-.2 0-.3-.2A15 15 0 0 0 4 4a.4.4 0 0 1-.2-.3v-.3L4 3l-.6-.1a.9.9 0 0 1-.3-.4L2.8 2l-.1-.2-.1-.1L2 2v.2l-.3.3v.7H2l.2.2.5.1.3.3a114.4 114.4 0 0 1 1 .9l1.7 1.8 1 1 .5.4.7.8c1 1.3 1 3.2.9 5v2a.5.5 0 0 1-.7.5l-.9-.5c-.4-.3-.9-.6-1.4-.6a1.6 1.6 0 0 0-.5 0l-.2.4c-.1.2 0 .4.1.7l.1.3c.6 1.1 1.4 2.3 2.3 3.4l.9 1.3v.7l.1.4c.4.1 1 .4 1 .6.2.2.2.4 0 .5l-.5.5c-.4.1-.5.2-.5.3Zm.3 1c-.4 0-.8-.1-1-.5l-.2-.2c-.1-.7.4-1.1.7-1.3a2 2 0 0 0-.2-.1.4.4 0 0 1-.3-.3c-.2-.4-.2-.6-.2-1v-.2l-.9-1.2c-.8-1-1.7-2.3-2.3-3.6v-.2c-.3-.3-.5-.8-.2-1.5.2-.4.4-.7.9-.8h.6c.8 0 1.4.3 2 .7v-1.4c.1-1.6.2-3.3-.6-4.4l-.6-.6-.5-.4-1-1-1.8-1.9-.5-.5-.3-.3-.3-.2H2L1.6 4h-.2S1 4 .9 3.6V3c0-.3 0-1 .3-1.2v-.2l.5-.5L2 1c.1-.2.4-.3.7-.3H3l.3.4v.1a1.2 1.2 0 0 1 .3.5l.1.2.4-.2a.4.4 0 0 1 .7.3c.2.6 0 1 0 1.2h-.1L7 5.6a11.8 11.8 0 0 1 2.6.8v-.9c0-.2 0-.5.2-.7.2-.5.8-1 1.2-1.1h.1c.3-.2.5-.3.8-.3a3 3 0 0 1 2.1 1 .5.5 0 0 1 0 .6l.2.6v.1c.1.5-.1.9-.3 1.1h.3l1-.3h.2a15.9 15.9 0 0 0 4.3-2.8l.2-.2.3-.2.2-.8v-.7c.1-.2.3-.4.5-.4.4 0 .6.2.7.3.1.1.3.2.3.4l.2-.1.2-.3.3-.3.4-.1c.3 0 1 .4 1 1l.1.6-.2 1h-.1c-.1.2-1 .7-2.1 1-1.5 1.6-3.4 3-5.8 4.8l-1.6 4.5-.6 2 1.7-.5a8 8 0 0 1 2.4-.6h.7c.5.2 1.2.9 1 1.8 0 .6-.7 1.4-1 1.5-.9.9-2.2 1.8-3.6 2.5l-.7 1c-.3.4-.5.6-.7.6l-.2.2c-.2.3-.5.6-1 .7H12v.2c0 .6-.6.7-1 .9h-.2l-.5.3c-.4.2-.9.4-1.4.4Zm15.5-4.6-1-.6-.2-.3.1-.2.5-1 .3-.1h.2c.2.2.4.4.6.4l.7.2c.4 0 .7-.2 1-.4l.6-1.3-3.8-8.5-.1-.2c0-.2.1-.3.3-.3h2l.2.4 2.5 6.1 2.5-6.1c0-.2.2-.3.2-.3l.4-.1H33c.2 0 .3 0 .3.3v.2l-3.6 8a25 25 0 0 1-1.3 2.4c-.3.5-.7 1-1 1.2a3 3 0 0 1-1.7.4c-.4 0-.9 0-1.3-.2Zm10.4-3.5c-.7-.6-1-1.5-1-2.6V9c0-.2 0-.4.2-.5 0-.2.3-.2.5-.2h1c.3 0 .4 0 .6.2l.1.5v5.4c0 .6.2 1 .5 1.4.3.3.8.4 1.4.4.6 0 1.2-.2 1.6-.5.5-.4.7-1 .7-1.5V9c0-.2 0-.4.2-.5 0-.2.3-.2.5-.2h1c.2 0 .4 0 .5.2.2 0 .2.3.2.5v8.6l-.5.1H41l-.2-.4v-.8c-.9 1-2 1.5-3.6 1.5-1 0-1.8-.3-2.4-.9Zm9 .4-.1-.5V8.4l.4-.1h1.3l.2.4v.8a3.4 3.4 0 0 1 3-1.5c.5 0 1 .1 1.4.4.4.2.7.6.9 1.1.7-1 1.7-1.5 3-1.5.9 0 1.6.3 2.1.8.5.6.8 1.4.8 2.6V17c0 .3 0 .4-.2.5 0 .2-.3.2-.5.2h-.9c-.2 0-.4 0-.5-.2-.1 0-.2-.2-.2-.5v-5.5c0-.6 0-1-.3-1.3-.3-.3-.6-.4-1.1-.4-.6 0-1 .2-1.3.5a2 2 0 0 0-.5 1.5V17l-.1.5c-.2.2-.3.2-.6.2h-.8c-.2 0-.4 0-.5-.2-.1 0-.2-.2-.2-.5v-5.6c0-.6 0-1-.3-1.2-.2-.3-.6-.4-1-.4-.6 0-1 .2-1.4.6a2 2 0 0 0-.5 1.4V17l-.1.5c-.1.2-.3.2-.6.2h-.8c-.3 0-.5 0-.6-.2Zm20.5-2.1c.4-.6.6-1.4.6-2.5 0-1-.2-1.9-.7-2.4-.5-.5-1.3-.7-2.4-.7-.8 0-1.4.1-1.9.4V14c0 .7.3 1.2.7 1.6.5.4 1 .6 1.7.6.9 0 1.5-.3 2-.8Zm-6.6 6.1-.1-.5V9.2c.4-.3 1-.6 1.9-.9l2.4-.3c3.6 0 5.4 1.7 5.4 5 0 1.6-.4 2.8-1.2 3.7-.8.9-1.9 1.3-3.3 1.3a4 4 0 0 1-2.9-1.1v4l-.1.6-.6.2h-1c-.2 0-.4 0-.5-.2Zm13.8-4-.1-.5V8.4l.5-.1h1c.3 0 .5.1.5.4v.8c.9-1 2-1.5 3.7-1.5 1 0 1.8.3 2.4.8.7.6 1 1.5 1 2.6V17c0 .3 0 .4-.2.5 0 .2-.3.2-.5.2h-1c-.3 0-.5 0-.6-.2l-.1-.5v-5.4c0-.7-.2-1.1-.5-1.4-.2-.3-.7-.4-1.3-.4-.7 0-1.3.2-1.8.6-.5.3-.7.8-.7 1.4V17c0 .3 0 .4-.2.5 0 .2-.3.2-.5.2h-1c-.3 0-.4 0-.6-.2Zm16.6-2.2c.5-.4.7-1 .7-1.6v-3.5l-1-.3-1-.1c-2 0-3 1-3 3.2 0 1 .2 1.7.6 2.1.5.5 1.1.8 2 .8.7 0 1.3-.2 1.7-.6Zm-3.7 5.5a5 5 0 0 1-1.6-.5c-.2-.1-.2-.3-.1-.5l.5-1 .3-.1h.2c.7.4 1.5.6 2.7.6.8 0 1.4-.2 1.8-.6.4-.5.6-1.2.6-2.2l-1.2 1-1.8.2c-1.4 0-2.5-.4-3.2-1.2-.8-.8-1.2-2-1.2-3.4 0-1.6.4-2.9 1.4-3.8 1-.9 2.3-1.3 4-1.3a8.3 8.3 0 0 1 4.4 1.2V16c0 1.6-.4 2.8-1.1 3.7-.8 1-2 1.4-3.5 1.4-.8 0-1.5-.1-2.2-.3ZM68.9 5.3l1 .1a1.3 1.3 0 0 1 .4 1.8l-1 1.8s-.2.1-.2 0l-1-1.7a1.3 1.3 0 0 1 .8-2Z"/>
  <path d="M70.4 9v8c0 .3 0 .4-.2.5-.1.2-.3.2-.5.2h-1c-.3 0-.5 0-.6-.2L68 17V9l.1-.5.3-.2.5.8c0 .2.2.2.3.2h.1l.2-.2.4-.8c.2 0 .2 0 .3.2l.2.5Z"/>
</svg>