<svg xmlns="http://www.w3.org/2000/svg" width="393" height="300" fill="none">
  <path fill="url(#a)" d="M82.3 299.2c-.4-.8-.4-1 0-2.8.4-1.1.7-1.9 1-2 .4 0 .5.2.3 1v2.1c.2 1.2 0 2.5-.6 2.5-.1 0-.5-.4-.7-.8Zm-17.7-2.5-.9-.4c-.4 0-.7-.4-.7-.8-.1-.9.8-3.7 1-3 0 .3.2.3.6 0 .7-.4.8 0 .8 1.6 0 1.4-.5 3-.8 2.6Zm12.8-1c0-1 1-4 1-3.2 0 .2.2.4.3.3.4-.4.5 1.8.2 2.7-.5 1-1.6 1.1-1.5.1Zm14-4.8c-.4-.6 0-2.1.7-2.3.7-.3.8 0 .8 1.3s-.8 1.9-1.4 1Zm-.7-9.3c-.3-.2-.7-.7-.8-1.2 0-.5-.6-1.4-1-2-1-1-1-1-1.2-.3l-.2 1.8c0 1-.4 1.6-.7 1 0-.2-.3-.4-.5-.4s-.1.2.1.4c.4.3.4.3 0 .3-.7 0-1.6-2.2-1.8-4.2-.2-1.8 0-2.4 1.3-3.4.3-.2.5-.7.6-1.2 0-1.1-.8-1.3-1.7-.3-.5.5-.7.6-1.3.3-.6-.3-.8-.3-.6 0 .1.3 0 .4-.3.2-1.1-.6-1.4-.4-1.5.7 0 .5-.2 1.2-.4 1.3-.1.2-.1 0 0-.4 0-.4 0-.8-.3-1-.2-.2-.3 0-.1.3l-.1.6c-.2 0-.3-.4-.3-.9 0-1-.6-1.4-1.4-1-.2.1-.7.3-1.1.3-.6 0-.6 0-.5-.8l.9-2.7c.3-1 .6-1.8.5-2l-.3-1.6a4 4 0 0 0-.3-1.6c-.2-.4-1.7-.3-2 0 0 .4-2-.4-2.3-1-.6-1-1.1-1.1-2-.6-1.1.8-1.3.8-2.3-.5-.5-.5-1.2-1-1.5-1-1 0-3-1-2.8-1.2.1-.2 0-.3-.3-.1-.6.2-1-.6-.8-1.7.1-1 1.4-2.6 2.2-2.8.4 0 .5-.4.6-1.4 0-.7.2-1.7.5-2.2.6-1.1.4-2.5-.5-2.9-.6-.2-2.8 1.4-2.8 2.1 0 .6-1 1.8-1.5 1.9-.8.1-.8-1.3-.2-2.2.7-.8.6-1.7-.1-1.3-.2 0-.6 0-1-.2-.4-.3-.7-.1-1.5.9l-1.1 1.2.6.9c.8 1 .7 1-1 .4-1.8-.5-2.2 0-1.1 1.3.7.8.7 1 .4 1.3-.7.5-3 .4-3.2-.2-.1-.3-.5-.6-1-.6s-1.1-.2-1.5-.6c-1-1-1.7-1.2-2.1-.7-.7.6-1-.1-1-2.4 0-4 .1-4.9 1-6.6a9 9 0 0 1 1.3-1.9c.5-.4.2-2.3-.4-2.7-1-.6-3-1-4.6-1-1 0-1.5-.1-1.6-.5-.3-.8-.8-.7-.8 0 0 1-.4 1.6-1.2 1.7-1 .1-2-1.2-2-2.5 0-.4 0-.8-.2-.8-.1 0-.3.2-.3.5s-.1.5-.4.5c-.2 0-.5.3-.7.6-.4.5-.4.5-.6 0a1 1 0 0 0-1-.6c-.3 0-.8-.3-1-.6-.5-.7-.5-.7 0-1.1.8-.6.5-1.4-.8-1.8-3.2-1-5.8-.7-6.8.8-.3.5-1.4.9-1.4.5l.4-1.6c.4-1.7.3-2.5-.4-2.5-.6 0-3 3.3-4 5.9a19.6 19.6 0 0 1-3.6 5.7c-.5 0-.5-.3.2-1.8.3-.7.6-2 .7-2.6.1-1.4.8-2.2 1.7-2.3.4 0 .8-.4 1.1-1.1l1.2-2.2c.4-.5.9-1.5 1.1-2.2l.7-1.2c.3 0 .3-.6.4-3.9 0-1.5.3-3.4.4-4.4.2-1 .3-1.8.1-2-.5-.4-.4-.7.4-1.7l.7-1.3c-.1-.1 0-1.3.3-2.7.3-2 .6-2.6 1-2.7.7-.2 1.5-1.5 1.5-2.6 0-.5.4-1.5.9-2.3.7-1.2 1-1.7.8-2l.4-1.2 1-3 1.5-3.2a6 6 0 0 0 .8-1.8c0-.3.3-.8.6-1.2.3-.3.6-.8.6-1 0-.2.4-1 1-1.8l1-1.7 1.4-2.8c1.4-2.6 1.6-3.7.7-4.8-.4-.6-3.8.4-4.6 1.3-.3.4-.8.7-1 .7-.6 0-2.2 1.4-2.2 1.8 0 .2-1 1.6-2.3 3.3A29.2 29.2 0 0 0 26 198l-1.2 3.2c-.1.6-.5.8-.8.3-.6-1.3.8-6 3.4-11.4.4-.7.5-1.4.4-1.5-.5-.3 0-1.5.6-1.7.3-.2 1-.8 1.3-1.6l.9-1.5a54.2 54.2 0 0 0 3.6-5.7c1-1.5 1.5-2.2 1.5-2.5 0-.1.3-.8.8-1.4.5-.7.9-1.3.9-1.5 0-.4.6-1 1.4-1.5.5-.3.9-1 1.1-1.8.2-.8.5-1.7.8-2 .5-1 .4-1.3 0-1.3-.3 0-.5-.1-.5-.2l.4-.7c.3-.4.4-1.2.4-2.3 0-1 .2-1.8.4-2 .1-.1.2-.6 0-1 0-1 .7-1.8 1.4-1.4.5.2 1.2-.7 1-1.3-.3-.5-2.2-.1-2.5.5-.1.2-.7.1-1.6-.4a8 8 0 0 0-2-.8c-.7 0-2 1.4-1.5 1.7.5.2.1.8-.5.8-.4 0-.5.2-.4.6 0 .4.3.7.4.8v.7c-.2.4-.5.5-1 .2-1-.4-1.3-1.8-.5-2 .3-.2.4-.2 0-.3-.8 0-1.4-2.8-.5-2.8l1.7-1.4c1.1-1.1 1.6-1.4 2-1.1.3.2.7.2 1.2 0 1-.7 1-2.2 0-2.9-.5-.2-1-.7-1.3-1-.3-.2-.7-.4-1-.3-.6.2-.6.1-.5-1a182.5 182.5 0 0 0 .4-4.2c-.2-.4-.2-.5.4-.7 1.2-.4.8-1.3-.6-2-1.3-.4-1.3-.4-.6-.9l1.2-.5c.5 0 .7-.7.2-.7-.2 0-.3-.1-.3-.3 0-.2.5-.4 1.1-.4.9 0 1.2-.1 1.2-.5 0-.7-.6-1-2.2-1-1.8-.1-1.8-.9 0-1.7 2.5-1 3.7-1.9 3.7-2.6 0-1-2.6-1.6-3.1-.7-.2.3-.6.5-.8.4-.7-.3-.6.4.1.8.6.4.8 1.4.3 1.4-.7 0-1.5-.8-1.3-1.3 0-.3 0-.4-.2-.2-.5.4-3.9.4-3.9 0 0-.2-.2-.2-.4-.1l-.8.4c-.2.1-.6 0-1-.4-.3-.5-.5-.6-1-.2-.2.2-.9.4-1.4.4-.9 0-.9 0-.2-.4.4-.2.6-.4.3-.6-.2-.2-.2-.4 0-.8.4-.9.3-1.3-.7-1.9-1.1-.6-2-2-1.2-2 .2 0 .6-.2.9-.5.5-.5.5-.5 0-1.2-.4-.6-.5-.8-.2-1.3.3-.4.3-.5 0-.5-.2 0-.2-.3-.1-.6 0-.3-.1-.6-.7-.7-1-.3-1.6-1.3-1-1.9.5-.5 2.3.1 2.6 1 .2.2.5.3.7.2.3-.1.4-.4.4-.5-.1-.2.3-.7.8-1.1 1-.7 1-.9 1-1.9l-.3-1 .6.8c.7 1 1.3.8 1.7-.5.2-.6.4-.8.7-.7.3.2.4 0 .5-.6v-.8l.4.8c.3.4.6.8.8.8.5 0 2-1.7 1.6-2l-3.6-.4c-2.4-.2-3.7-.4-4.4-.9l-1.4-.7-1.8-.8c-1.6-1-3.3-1.2-4.6-.5-.6.3-3 .4-12.4.5-12.9.1 3.8-3.4 2.5-2.6a85 85 0 0 1-6.3 2.4c-1.8.2-2.5-.5-2.3-2.1.4-2.7 1.5-3 8.5-2.6 2 .2 2 .4 2.5.6 1.2.5 2 2.4 4.1 2 1-.2 3-.5 4.6-.6 2.4-.2 3 0 4.5.6 4 1.8 6.6 2.1 9.4 1.2 1-.3 2-.5 2.5-.4 1 .3 3.6-.6 4.6-1.4.4-.3.9-.5 1-.4.2.1.7 0 1-.1.6-.3.7-.5.5-1.2-.1-.7 0-.9.3-.7l.4.5c0 .5.8.4 1.2-.1.4-.5 1.4-.4 1.4.1 0 .2.6.3 1.3.3l1.7.1h2c1-.2 2.3-.2 2.8 0 4.5 1.7 9.7 2.2 11 1 1-1 1.5-1 2.1-.2.4.7.8 1 1.6 1 1.6-.1 2-.5 1.8-2.1-.1-.8-.4-2-.7-2.7-.7-1.8-.3-2.5 1.2-2.5h1.1v3.2c-.2 2.9-.1 3.3.3 3.3.2 0 .5-.2.6-.5 0-.3.5-.6 1-.7.8-.3.8-.4.8-1.5-.1-1.5 1-4 1.9-4 .8 0 1.1.6 1 2.7 0 2 .3 2.4.8 1 .2-.5.5-.9.7-.9.2 0 .6-.4.9-1 .8-1.6 1.6-2.5 2.2-2.5.4 0 .5.1.3.8a12 12 0 0 0-.3 2.5l-.2 1.7.8-.2c.5-.2 1-.5 1.2-.8.6-1 .7-.2 0 1-.7 1.7-.7 1.8.5 1.5.8-.2 1 0 1.7.7.4.5 1.3 1.2 2 1.5 1 .4 1.1.4 1.5-.1.2-.4.3-1.2.3-2-.1-1.4 1-4.3 2-4.9.8-.5 1.7-.4 1.7.2 0 .3.2.4.6.3.3-.1.5 0 .5.2 0 .6-1.2 2.5-1.5 2.5-.5 0-1.8 1.5-2 2.4-.1.4 0 1.1.1 1.5.3.7.5.8 1.3.6l1.2-.3c.3 0 .3-.3.3-.7-.2-.8.9-2.4 1.6-2.5h.8c.2 0 .3.5.3 2-.1 1.2 0 2 .2 2 .1 0 .3.2.3.5s.4.4 2 .3c2-.2 2-.2 2 .7a2 2 0 0 1-.8 1.5l-.7.6.6.5c.6.5.8.5 2 0 .7-.2 1.4-.4 1.6-.3.4.2.5 2 0 2.4-.2.2 0 3.3.4 3.8.3.4 2.5-.5 2.5-1 0-.7 1-1.3 2.2-1.2 1 .1 1 .3 1 1 0 .6 0 .7 1.3.6 1.1 0 1.6-.3 2.4-1.2.6-.6 1.3-1.1 1.6-1.1.7 0 1.6 1.2 1.9 2.4.2 1 .2 1.1 1.7 1.1.9 0 1.9-.2 2.3-.5l2-.7c2.4-.3 3.4-1 3.8-2.7.4-2 1.7-3.2 3.5-3.2 1.5 0 2 .3 3.1 1.6.8 1 1.6 1.2 2.2.3.2-.3.8-.8 1.3-1 1-.6 1-.6 1.8.5.6.8.8 1.5.8 2.3 0 1 .1 1.2.8 1.4h1.4c1-.3 2 .2 1.9.8-.2.6.8 2.5 1.5 2.8.3 0 .6.5.8 1 .1.4.5.8.7 1 1.5.8 1.6.9 1.6 2.7 0 2 .8 3.8 2 4.2 1.4.3 1.7 1 1 2.3l-.7 1.1.6.7c.5.7 1.1.8 5 1 3.8.4 4.5.4 4.9-.1 1.7-1.9 4.7-2.6 8-1.8 2 .4 2.5.6 3 1.4.2.5 1 1.2 1.5 1.6l1.9 1.3c2 1.5 5.3 2.4 10.9 3a54.8 54.8 0 0 1 14.7 3l3.4.5c3.8.3 5.1 1 5.1 2.6 0 1.1.1 1.2 1.3 1.4l-3.7 1s-9 1.4-6.5 1.4c5.2 0-21.2-2.5-21-2.4h3.7l8.9.4c.8 0-12.2 0-9.1.1 5.2.2-6 .4-6.1-.2-.1-.8 1.2-1.1 3.6-.8 1 .2 5 .5 8.6.7 9 .6 10.3.7 10.7 1.3.3.3.8.5 1.3.5a343.6 343.6 0 0 1 26 2c3 .2 3.4.1 3.6-.4.2-.7.7-.7 1.1 0 .3.5 1 .6 5 .5 4.4 0 4.6 0 5 .7.6.8.8.8 7.6.8 3 0 3.4-.2 3.7-.8.4-.7.7-.7 5.6-.7 4.6.1 5.3 0 6.3-.6 2.1-1.3 9-1.6 18.6-.6 3.7.3 5.5.4 6 .1 1.2-.5 2.8-.4 3.9.3.6.4 1.3.5 2.3.3 1.3-.2 1.5 0 2.3.9.8 1 .9 1 3.3 1 2.5 0 3.8.2 4.5.8.2.2.5.2.8 0 .2-.2 1-.2 1.8 0l4.9.7c3.2.3 3.7.3 4.1-.1.4-.5 1-.5 3.5-.3l4.4.4c.7 0 2.2.3 3.2.6 1 .4 2.9.9 4.1 1 3 .5 4.8 1 5.3 1.3l1.6 1.8c1.5 1.7 1.9 1.9 4.2 2 2 0 2.4.4 1.7 1.4-.3.4-.4.7-.2.9.6.4.3.8-.7 1-1 0-1.1.2-1.5 1.6-.3 1.4-.3 1.5.2 2 .3.2.8.4 1.2.3.6-.2 1 0 1.7 1 .7.7.9 1.1.6 1.3-.4.3-1.7.1-2.2-.3-.3-.3-1.7.4-1.5.7l-.2 1c-.3.6-.3.7.4 1 .4.3 2.4.5 4.4.6 2 .1 3.7.3 3.9.4.5.4.3.9-.3.9-.7 0-2.8 1.1-2.8 1.5h-2.3c-1.4 0-2.3 0-2.4.2-.3.6 2.7 1.4 6.2 1.7a5404.2 5404.2 0 0 1 10.5.7c3.7.2 3.7.3 4.5 1.3.4.6.8 1.4.8 1.7 0 1 1.5 2 3.2 2.3.8.2 1.6.6 2 1 .9 1.1 2.4 1.4 11.5 2.3 3.6.4 6.7.8 6.8 1 .6.7.6 2 0 3-.6.8-.7.8-3.9.7-2.8 0-3.2 0-3 .4l1 .8c.5 0 1.1.6 1.5 1l.8 1h-1c-1 0-1 0-.8 1.3 0 1.3 0 1.5-.7 1.7a5 5 0 0 1-2.4-.4l-2.5-.5c-.8 0-1.5.5-1.5 1.1 0 .4 1.4 1 2.7 1.2 1.4.2 1.5.3 1.7 1.2.1.7 0 .7-2 .7-2.4 0-3.3.5-1.5 1a7 7 0 0 0 1.9.1c.4 0 1 .2 1.4.5l.6.4 1 .2 3.2.8c1.9.5 2.3.7 3 1.6.3.6 1 1.2 1.4 1.3.4.1.8.3.8.5 0 .4-1.5.8-3 .8a4 4 0 0 0-1.8.6c-.3.2-1 .4-1.5.3h-.9c0 .3 1 2 1.7 3.1 1 1.3.8 1.5-.8 1.3-3.4-.4-3.6-.3-4.3.8-.5.7-.9 1-1.4.8-.4-.1-1 0-1.5.5-1 .8-2.4.8-4.2 0-1.5-.6-1.9-.4-1.2.6.3.3.5.9.5 1.1 0 .4 1.2 1.3 2.8 2.3l3.3 2.3c.5.8.1 1.4-1.1 1.7-.8.1-1.5 0-3.1-1a45.8 45.8 0 0 0-11.3-4.3l-2.2.2c-1 .2-1.4 0-2-.5-1-.8-3.1-1-3.2-.3 0 1 .1 2 .4 2.2.5.8.1 1-1.7 1-2-.2-2.2-.1-2 .5.2.7 3.3 3.7 3.7 3.7.3 0 .5.2.5.3 0 .2.5 1 1.2 1.8 1 1.2 1.1 1.5.8 1.8-.9.7-1.7.8-2.5.2-1.1-.7-1.1-.7-1.4.5-.4 1.3-1.1 1.4-3 .1-4.3-2.7-4.2-2.7-4.6-2-.3.2-.3.5-.2.5a13 13 0 0 1 2.3 3.6c0 .6-2 1.4-2.9 1.1l-2-.3c-.7 0-1.7-.2-2.2-.4a3 3 0 0 0-2 .2c-.6.4-.9.4-1.3 0-.2-.3-.5-.4-.5-.3-.1.2-3.5-2.2-3.5-2.6 0-.2-2.4-1.7-2.8-1.7-.2 0-1-.4-1.7-.9-1.9-1.2-3.5-1.2-4.6.3-.7.8-1.3 1.2-2.3 1.4-1.9.3-2.4.9-1.8 1.7l.4 1.2c0 .6-.9.5-2.6-.3-1.2-.6-1.3-.5-.6.3.2.4.4.7.3.8-.3.4-3.4-1.4-5-2.9-1.7-1.4-2.7-1.6-2.5-.5.1.5 0 .7-.2.6l-1.5-.4a12 12 0 0 1-2.5-1c-1-.5-2.1-.8-4.2-.8a13 13 0 0 1-3.6-.6c-.6-.2-2-.3-4-.2l-4.5-.1c-.8-.2-1.3-.2-1.5 0-.4.5-2 .5-3.1-.1a18 18 0 0 0-6.2-.7c-5 0-5.3 0-6 .7-.7.6-1.7.9-3.9 1.2-1.6.2-3.5.6-4.1 1-.7.2-2.7.5-4.4.6a42.7 42.7 0 0 0-7.7.9c-1.7.1-3.2.4-3.3.4a208.1 208.1 0 0 1-47.4-1.3l-1.8-.3.8.8.9.8-2.3-.2c-1.3-.1-2 0-2 .1.1.2.3.3.4.2h.3c0 .3-2.9.4-6.6.4-3.6 0-8.4.2-10.5.4-5.1.6 17.6 1 9.1 1.5-7.8.4-8 .5-10 1.2-1.2.5-3.9.6-24.2.5-31.3 0 43.2-.2 34.7-1.3a216.8 216.8 0 0 0-7.7-1c-.3-.2-7.2-.2-7.8 0-.4.2-.6.5-.5.8.2.6-.4.8-1.7.6h-11a182.2 182.2 0 0 1-8.3 0c-1 .3-1.2 0-.5-.7.5-.4.5-.4-.2-.4-.4 0-1-.3-1.2-.6-.3-.3-.5-.4-.5-.2s-.1.3-.2.2c-.2 0-.4 0-.5.2-.3.6-2.2.3-2.3-.4-.1-.4-.3-.7-.6-.7-.2 0-.4-.2-.5-.4 0-.3-.7-.5-1.3-.6-1 0-1 0-1 .6.3.9 1.3 2.2 1.8 2.2s1.3 1.6 1 2.1c0 .2-.3.4-.5.4-.8 0-.7.7.1 3l.9 2.3.7 1.8c.4 1 .7 2.1.7 2.8 0 .7-.1 1-.2.8-.2-.7-3-2.6-5-3.3l-1.9-.6-.3.7c-.2.6-.2.8.1 1.2.6.4.4.9-.2.6-.2 0-.6.4-1 1.1-.5 1.2-.7 1.3-1.8 1.3-.7 0-1.4.1-1.4.3-.3.5-1.6.1-2.2-.6-1.2-1.3-1.8-.1-1.7 3.4 0 1.7 0 2.2-.4 2.4-.2.1-.4.3-.3.4.2.5-1.1.3-1.4-.1a12 12 0 0 0-4.1-2c-.3 0 .1.7.8 1.5 1.5 1.6 1.2 1.8-.8.5-1.6-1-4-1.6-4-1 0 .3.3.6.6.8.9.6.5.8-.6.4-.5-.2-1.9-.4-3-.5-1.6 0-2 0-2.9.8-1 .8-1 .8-3.6.4-3.6-.5-3.6-.5-3.5.4 0 .5.4.9.8 1 1.4.4 0 .8-1.8.5-1.7-.2-1.8-.2-2 .5v1.5c.2.6.4.6 1.4.5 1-.2 1.3-.1 2 .9.5.8.7 1.5.7 2.4 0 1.2 0 1.2-1 1a10 10 0 0 1-1.8-.4c-.5-.2-.6-.1-.6.7a48.5 48.5 0 0 0-.7 8c0 3-.2 5.5-.4 5.7-.4.6-1.3.2-1.6-.8-.2-.7-.1-1.5.1-2.6a18.8 18.8 0 0 0-.6-8.6c-.1-.2-.2-.4 0-.4.1 0 0-.2-.2-.3-.3-.3-.3-.5.1-1.3.3-.5.5-1.4.4-2.2 0-1.3-.1-1.4-.9-1.3-.6.1-.8 0-1-.6 0-.3-.4-.8-.8-1-1.1-.6-2.9.3-3.3 1.7-.1.6-.5 1-.7 1-.3.1-.1.3.3.6.7.5 3.4 3.6 3.4 4 0 .4-1.8 0-3-.8-1.6-1-3-1.2-2.4-.4.5.8-.4 1.6-1.7 1.6-.6 0-1.2.2-1.4.4-.3.2-.8.1-1.4-.2-1-.6-1.9-.7-1.3-.3.2.2.4 1 .5 1.6.1.9.3 1.4.6 1.4.2 0 .4.3.4.7 0 .4.2.7.4.7.3 0 .5.2.5.5s-.3.5-.7.5c-.6 0-.9.4-1.5 1.9-.5 1-1.2 2.2-1.8 2.7-.5.4-1 1.1-1.3 1.5-.3 1-.6 1-1.5.7Zm-3-9.2c.1-.5 0-.7-.3-.7s-.4.3-.4.9c0 1 .6 1 .8-.2Zm6.6-4.7c-.2-.7-.8-.8-.8-.1 0 .3.2.5.4.5.3 0 .4-.2.4-.4ZM81.9 259c0-.5 0-.8.2-.8.4 0 .6-1.6.3-2.2-.1-.3-.4-.3-1.2.2-.8.5-1 .7-.8 1.2.2.3.4 1 .5 1.6.2 1.3 1.2 1.2 1 0Zm44.3-4c.2-.3-.5-.7-1.3-.7-.3 0-.5.2-.5.5 0 .6 1.5.8 1.8.2Zm5.3-2-.8-1.7c-.7-1.5-1.4-2.2-1.7-1.8-.3.3.2 1.3.8 1.5.4.1.6.4.5.9-.1.4 0 .8.3 1 .5.4.9.4.9.1Zm74.6-19.4-.5-.3c-.2-.1-.4 0-.4.1 0 .2.2.4.4.4.3 0 .5-.1.5-.2Zm2-.1H207c-.3.1 0 .2.6.2s.9-.1.5-.2Zm-4.5 0c0-.3-.2-.3-.4-.2-.2 0-.4.2-.4.3l.4.2c.2 0 .4-.2.4-.4Zm.8-.4H203c-.4.1-.1.2.6.2.8 0 1.2 0 .8-.2Zm-52.9-1c.2-.7-1.6-1.3-3.7-1.2-.6 0-.7.1-.4.7.4 1 3.9 1.4 4.1.5Zm156.6-72.5-.8-.2c-.3 0-.4.1-.4.3.1.2.4.3.7.3.3 0 .5-.2.4-.4Zm-10.2-1.9c3-1 1.3-1.4-1.8-.4l-1.2.7c0 .5 1.4.3 3-.3ZM157.1 156v-.6c-.4-.3-4 .2-4 .5 0 .7 3.5.7 4 0Zm8.1-.8c0-.2-.5-.3-1.1-.3-.6 0-1.1.1-1.1.3 0 .2.5.4 1 .4.7 0 1.2-.2 1.2-.4Zm-1-1.7c0-.2-1-.8-2-1.3-1.7-.8-2.1-1-2.5-.5-1 1-.4 1.6 2.1 1.8l2 .2c.3 0 .5 0 .4-.2Zm-10.4-.4c.6 0-2.4-1.1-3-1.2-1.5 0-2 .2-2 .7 0 .5.2.6 1.7.4 1-.1 1.8 0 1.9.1 0 .2.3.3.5.2l1-.2Zm20.8 0-.3-.6c-.2 0-.3-.5-.3-.9 0-.7 1.2-1.3 1.7-.8l1.5.4a45.9 45.9 0 0 0 15.2 1.4c2 .2 2.1.1 1.6-.4-.6-.6-.8-1.8-.2-2.4.4-.4 4-.1 5.3.4.4.2 2.2.4 4 .4 3 0 3.3 0 3-.5-.2-.3-.6-.6-1-.6-.2 0-.5-.1-.6-.4-.1-.2-.7-.3-1.3-.2-.6.1-1.3 0-1.7-.3-.4-.2-1.3-.5-2-.5-.8 0-2.1-.3-3-.6-2-.9-9-1-11.2-.4-1.2.4-1.6.4-2.7-.1a7 7 0 0 0-2.6-.5c-.8 0-1.8-.2-2.6-.6-1.3-.6-1.3-.6-2.6 0-1.6 1-2.4 1-4.5 0-1.5-.6-2-.6-2.7-.3-1.2.6-2.1.5-3.6-.3-1.3-.7-2.2-1.9-2.2-3 0-2-.2-2-7-1.5-4 .3-5 .5-4 .9l1 1c.8 1 1 1 2.6 0 1.5-1.1 1.8-.7.4.7-1 1-1 1.2-.6 2 .3.5.9 1 1.4 1 .6.1 1.8.7 2.9 1.3 1 .6 2 1.1 2.3 1.1a21 21 0 0 1 4.6 2.8l1.7 1.4c.7.5 7.5.6 7.5.1Zm-3-2.8c-.4-.5 0-.8 1-.8.7 0 1.2.1 1 .2-.2.4-1.8.8-2 .6Zm-23.2-8.2.8-.5c.3 0 0-.1-.8 0-.8 0-1.5.1-1.5.4-.2.5 1 .6 1.5.1Zm-4-7.1c.3-.7 0-1.8-.6-1.8-.2 0-.5.4-.6 1-.3 1.4.5 2 1.1.8Zm-.7-4.5c.4-1.3.2-1.3-.9-.1-.5.5-.8 1.1-.7 1.4.3.6 1.3-.2 1.6-1.3Zm-103.4 0c0-.3-.4-.4-.8-.4-.5 0-.5 0-.2.3.6.5 1.3.5 1 0Zm1.9-7.6c1.4-1 2-2.2.9-2-.3 0-.8-.2-1.2-.5-.4-.6-.8-.7-2-.4-1 .2-1.2.3-.6.5.6.3.7.6.6 2.2 0 .8 0 1 .6 1 .4 0 1.1-.4 1.7-.8Zm20-3.3v-1.8l-2.7-.4c-3-.4-3.4-.3-3.2.6 0 .5.5.7 1.5.9.8.1 1.6.5 1.9.8 1 1.3 2.2 2.2 2.4 1.9l.2-2Zm-7.3-2.3c0-.5-1.1-1.4-1.7-1.4-.4 0-.4.1-.2.9.3.6.6.8 1.2.9.4 0 .7-.2.7-.4Zm-16.5-.4c-.1-.1-.4-.3-.7-.3-.4 0-.4 0 0 .3.5.5.9.5.7 0Zm37.9 159.6c0-.2-.1-.6-.4-1-.3-.3-.5-.4-.5-.2s-.4.1-.8-.2c-.3-.3-.7-.4-.7-.2s-.3.5-.6.6c-.4.1-.7.4-.8.6-.1.2-.7 0-1.3-.5l-1.6-1.1a1 1 0 0 1-.5-.8c0-.3-.1-.5-.3-.5-.1 0-.3-.2-.3-.4s.2-.3.3-.2c.2.2.2-.6 0-1.7-.1-.8 0-1.2 1-2.4.7-1 1.2-1.3 2.5-1.5 1.6-.2 3 .3 3.2 1.3.6 3 .7 4.3.2 4.7-.4.4-.3.5.5.7.9.2 1 .3.7 1.3a4 4 0 0 1-.5 1.5c-.2.3-.2.3-.1 0ZM54.7 275c0-.6.6-3.1 1.5-6.1.3-1.3.6-1.8.9-1.7.2.1.5 0 .6-.2 0-.3 0-.3-.2-.1-.3.2-.3.1-.2-.1.2-.4 1-.2 1 .2l-.5 2.7-.6 3.2c0 1-.8 2.2-1.8 2.4-.6.2-.7.1-.7-.3Zm.7-.5-.3-.4-.2.4c0 .2.2.3.3.3.2 0 .3-.1.2-.3Zm9.1-6.8c.2-2.1.4-2.8.7-2.6.1.1.2 0 .2-.2s-.2-.3-.4-.3-.3-.3-.2-.8c.1-.7.2-.8.4 0 .1.4.2.4.2 0l.3 1.8c.3 2.4.2 3-.8 3.1-.4 0-.5 0-.4-1Zm-50.8-4.5c-.2-.4.3-.9.7-.6.3.3.1 1-.3 1l-.4-.4Zm22.2-3.2c0-.2.2-.4.5-.5.7-.4.8-.3.4.3s-.9.7-.9.2Zm8.5-1.3.5-.5-.2.5-.5.6.2-.6Zm-5.8-.5-.5-2.7-.3-.8c-.1-.2 0-.4.3-.4 3.4-.3 3.6-.3 3.2 0-.3.2-.7.3-.8.2-.2-.1-.6 0-.9.2-.4.3-.5.5-.3.8.2.3.2.6 0 .8-.2.3-.2.4.3.2.7-.2.7-.1.3 1.1-.3 1-1 1.3-1.3.6Zm238.6-3.4h.5c.3 0 .2.2-.1.2-.3 0-.5 0-.4-.2ZM9.8 252c0-.2 0-.4.3-.4.5 0 .6.2.2.5-.2.1-.4 0-.5-.1Zm143.7-1.8.1-.5c.2 0 .3.2.3.5l-.1.6-.3-.6Zm-111-.8c-.7-2 .2-4.2 1.7-4.5.7-.1.8 0 1 1 0 .8.3 1.3.5 1.3.6 0 .6.1-.6 1.8s-2.2 1.9-2.7.4Zm-32.7-3.2c-.2-.5.2-1.2 1.5-2.3 1.6-1.4 5.5-3.8 5.7-3.5.2.2-.5 1.6-.8 1.6-.2 0-.9.7-1.7 1.6-.7.9-1.4 1.6-1.6 1.6-.2 0-.6.3-1 .7-.7.7-1.8.8-2 .3Zm-6.7.6c0-.2.5-.7 1-1l1.5-1.1c.6-.7 3.3-2.4 3.6-2.4.8 0-.1 1-2.3 2.6l-2.6 2c-.2.5-1.3.4-1.2-.1Zm149.4-8.8c0-.2.4-.2 1-.2 1.5.3 1.6.6.1.6-.6 0-1.1-.2-1.1-.4ZM6.2 216.8l-.2-1.2c0-.9.2-1 1.7-1.8 1-.5 1.9-1.1 2-1.5.2-.3.6-.6 1-.6 1 0 1.4-.3 3.7-2.5 1.7-1.6 3-2.2 3.3-1.4.4.7-.2 2.5-1.2 3.7a8.5 8.5 0 0 1-4.2 3c-.6 0-1.8.6-2.8 1.3-1.6 1.1-2.9 1.5-3.3 1ZM206 235c0-.2.3-.2.5 0 .2 0 .2.1-.2.1-.3 0-.4 0-.3-.1ZM9.2 231.4c.1-.5 2.4-1.7 3.4-1.7 1.5-.1-.6 1.6-2.5 2-.8.1-1 0-1-.3Zm6.4-1c-.2-.8 0-.9 1.2-1.2l1.1-.2-.4.9c-.6 1-1.6 1.3-1.9.5Zm-1.2-3.7c0-.3 1.7-1.8 2-1.8l-.6 1c-.8 1.1-1.4 1.4-1.4.8Zm-8-24.7v-.4c1.5-1.4 3-1.7 3-.6s-2.5 2-3 1Zm3.5-11.8c0-.3.2-.9.4-1.1.3-.3.7-1.2 1-2a17 17 0 0 1 5-6.3c.8-.3 2.1-1 3-1.6 1-.5 2.6-1 3.6-1.2 1-.2 2-.4 2.2-.6.3-.4 3.4-1 4.9-1.2.5 0 .8.3 1 1 .8 1.7 0 2.5-4.3 3.6-3.8 1-5.4 1.8-6.6 3.2a5 5 0 0 1-1.3 1.2 7 7 0 0 0-1.6 1.4c-.7.8-1.8 1.6-2.4 2L13 190c-1 1.1-3 1.3-3 .2Zm8.8-13.4c-1.3-.3-1-3.2.3-3.3 3-.3 4.7.9 2.8 1.7l-1.6 1c-.5.4-1.1.7-1.5.6Zm3.4-6.8c.2-.4.6-.7 1-.7s.4 0 0 .7c-.3.4-.7.7-1 .7-.3 0-.3-.1 0-.7Zm-3.5-2.2c0-.5 1.2-1 2.4-.7 1.4.2 1.6.3 1 .8-.5.4-3.4.4-3.4 0Zm12.6-3.7-.3-.7c.3-.3 2 .6 2 1 0 .5-1.3.3-1.7-.3Zm7 0c-.3-.5-.3-.5.3-.4.4 0 .7.3.8.5.1.7-.7.6-1.1 0Zm-14.2-5c-.6-.8.4-2.8 1.7-3.5 1.2-.6 1.3-.7 2.9-2 .8-.8 1.2-1 1.5-.7.2.3.1.6-.4 1.3-.6.8-.6 1-.3 1.8.4 1.2.2 1.6-1.6 2.7s-3.2 1.3-3.8.5Zm-13.3-3.8c0-.2.2-.5.6-.8.4-.2.7-.6.7-.7 0-.1.3-.2.6 0l2.4-.6c.9-.4 1.7-.7 1.8-.6.1.2 0 .2-1.7 1.2-2 1-4.2 1.8-4.4 1.5Zm311.9.6c-.3-.4-.2-.8.2-.8.3 0 .5.2.5.5 0 .6-.4.7-.7.3ZM6 153l.3-.3c.2-.1.3 0 .3.1 0 .2-.1.4-.3.4-.2 0-.3 0-.3-.2Zm-4.9-4c-.8-.2-.4-1.2.5-1.5a4 4 0 0 1 1.9 0c.5.2 1.8.4 2.8.4 1.9 0 2.8.3 2.5 1-.2.3-6.7.5-7.7.2Zm3.8-1.5c.4-.5 1.6-.9 1.6-.5s-.7.8-1.4.8c-.3 0-.4-.2-.2-.3Zm2.3-1.1c.5-.8 2-1 2-.4l-.1.4-.8.1c-.3 0-.8.2-1.1.4-.5.3-.5.2 0-.5Zm187.4-4.4c-.5-.4-.5-.6-.1-.8.5-.4 1.4-.6 1.8-.4.3.2.3.4.1 1-.3.8-1 .9-1.8.2ZM31 141.4c-.3 0-.5-.3-.5-.5s.2-.2.5 0l.6.6v.1l-.6-.2Zm-10.9-3c-1.2 0-1.4-.2-1.5-1-.2-1.9 1.5-2 3.1 0 1.4 1.6 1.4 1.5-1.6 1Zm166.1.2-1.2-.3c-.4-.2-.6-.5-.6-1 0-1.1.7-1.7 2.1-1.7 2 0 2.9 1.5 1.5 2.7-.6.5-.7.5-1.8.3Zm-153.9-.9c0-.1.5-.3.9-.3.3 0 .7.2.7.3 0 .2-.4.4-1 .4-.4 0-.7-.1-.6-.4Zm147.6-7.2c-.3-.4-.2-.6.5-1 1-.6 2-.8 2.1-.3l-.1 1c-.2.6-.5.8-1.2.8-.5 0-1.1-.2-1.3-.5Zm-3.6-.6-1.5-.7c-.6-.1-1.7-.6-2.6-1-.8-.3-2.2-.7-3-.8l-1.8-.4c-.5-.4-9.5-.5-10.8-.1-2.3.6-3.8-.8-3.5-3.2.1-.7 0-.8-.7-.8-.4 0-1-.3-1.4-.6-.6-.5-.7-.8-.5-2.2 0-1 0-2-.3-2.5-.2-.6-.3-1 0-1.5.2-.6.1-.7-.9-.5a62.7 62.7 0 0 1-5.5.7c-1.4.3-1.7.2-2-.4-.5-.7-.4-1.3.5-2.8l.7-1.1-1.2-.5c-1.5-.5-3.7 0-5.4 1-.8.5-1.3.7-1.8.5-.5-.2-2.2-.3-3.8-.2-3.2 0-3.4.2-5.7 2.5-1 1-2 1-3.2.4-.6-.3-.9-.3-1.3 0a2 2 0 0 1-1 .4c-.3 0-.3-.1 0-.8.1-.6.5-1 1-1 .4 0 .6-.2.8-1 .3-2 1-2.3 4.6-2.6 1 0 1.9-.3 2-.5 0-.3.2-.4.4-.4.3 0 .4.2.3.5-.3.8.8.7 1.6-.2.6-.6.6-.7.2-1-.7-.6-.7-1.4 0-1.8.7-.5 3-.5 3.3 0 0 .2.3.2.6.1.2-.1 1 0 1.6.3 2.1 1 3.9 1.4 5 1.1 1-.2 1.2-.3 1.2-1.2 0-.5-.2-1.2-.5-1.4-.4-.4-.4-.5 0-.7.3-.1 1.6 0 3 .1 1.7.3 2.9.2 4 0a22 22 0 0 1 8.1.1c1.2.2 1.2.1 1.2-.6 0-.5.3-1.2.6-1.5.5-.6 1.1-.7 5-.7 4.6 0 5.5-.3 5-1.1-.3-.4-1-.4-2.8-.3-2.3.1-2.3 0-3-.8-.7-1.3-.7-2 .3-4.3l.9-2.2c0-.1-.4-.2-.8-.1-.5 0-1 0-1.3-.2-.4-.3-.2-.5 1.1-1.3s1.8-.9 2.2-.6c.8.6 1.8.5 2.3-.3.9-1.1 2.1-1.7 4.4-2 1.2 0 2.4-.4 2.8-.7.4-.3 1.6-.7 2.6-.8 1.8-.1 2.4 0 4 1.2.5.3 1 .3 3 0a24 24 0 0 0 6.5-2.1 16.7 16.7 0 0 1 8.6-1.6c.7 0 2.7-.3 4.4-.7a28 28 0 0 1 4.7-.8c.9 0 2-.1 2.7-.3.6-.2 2-.4 3.1-.5 3-.4 3.9-.6 4.5-1.1 1.5-1.2 4.8-1.4 6-.3.4.3.4.7.2 2-.3 2-1.2 2.4-4.9 2-2.6-.3-3.4-.2-9.8.9l-4.8.7c-1 .1-2.3.5-3 .8-.8.3-2.6.6-5 .7-2.3.1-3.8.4-4.2.7-.4.2-1.2.6-1.9.7-2 .3-4.2 1.2-5.6 2a7 7 0 0 1-2.7 1.1 4 4 0 0 0-1.8.7c-.4.5-1.7 1.4-3.7 2.6-.5.3-2 .6-3.3.7-1.7.2-2.5.4-3.4 1.1-1.5 1.3-2 1.8-1.6 2.2.2.1.3.5.2.8-.2.5 0 .6.8.4l1.8-.6c.6-.1 2-.4 3-.4 1.7-.1 2.4-.3 3.3-1 .6-.6 1.5-1 1.9-1 .4 0 1-.1 1.3-.3 1-.4 1.8 0 2.4 1.6.5 1.2.5 1.3 0 1.8-.3.3-1.2.5-2.3.5a7 7 0 0 0-2.7.4c-.5.2-2.1.3-3.5.3-2 0-2.8.1-3.6.7-.6.3-1.5.8-2.1.9l-1.6.4-3 .3c-3.2 0-4.7.6-5.3 1.8-.4.6-.7.8-1.5.8-.6 0-1.8.5-2.6 1-2.1 1.3-3.7.7-3.7-1.6 0-.7-.2-.7-1.4-.6-.7 0-1.6.3-2 .5l-1.6.5a3 3 0 0 0-1.4 1c-.5.6-.5.7 0 1.2.4.3 1 .5 1.9.4 1.1-.2 1.3 0 1.5.6.1.6.3.7 2.2.4 2.7-.3 5.1-.8 6.7-1.5a18 18 0 0 1 3.2-.8l3-.6c.8 0 1.8-.6 2.4-1 1-.8 1.4-.9 4.4-1 2.5 0 3.7-.1 4.8-.7.9-.3 1.8-.6 2.1-.5.3.1.9-.1 1.3-.6.8-.7 1.1-.7 7.5-.8 4.6 0 7.5-.2 9.5-.6 2.5-.6 4-.8 7.8-1.5 1.6-.3 2.6.7 2.5 2.4-.2 1.8-.6 1.9-5.6 1.4a22 22 0 0 0-6.4 0c-3.6.6-6.4.8-7.6.3-.8-.3-1.4-.3-2.7.2-1 .3-2 .4-2.3.3-.4-.1-1 0-1.6.5-2 1.5-10.4 4.7-12.5 4.8a3 3 0 0 0-1.8.7c-.7.8-2 1.1-2.8.6-.4-.2-.9-.2-1.8.2-2 .8-4.6 1.2-6.1 1H153l-.8.3.7.4c.4.3 1.2.6 1.8.7 1.3.3 1.6.8 1 1.6-.8 1-.6 2 .4 2.3.7.2 1.2 1 .5 1s-.1.6 1.5 1.6c2.6 1.6 3.3 1.8 8.4 2.4a51 51 0 0 1 9.2 1.6 8 8 0 0 1 3 .9c1.7 1.5-.5 4-2.4 2.6Zm-171-4c0-.3.2-.4.3-.4.2 0 .3.1.3.3 0 .2-.1.4-.3.4-.1 0-.3-.2-.3-.4Zm17 .9c0-.2.3-.4.6-.4.4 0 .8.1.8.3 0 .1-.4.3-.8.3-.3 0-.7 0-.7-.2Zm156-1.8c-.2-.3-2-.5-3.8-.6-3.2-.2-5.1-.8-5.1-1.5 0-.2.3-.8.7-1.3.7-.9.9-1 2.6-.7 3.3.4 6.7 1 7.2 1.4.6.5.8 1.7.3 2.5-.5.6-1 .7-1.8.2Zm-7-5.7c-.2-.2 0-.4.2-.6.5-.2.8 0 .6.6-.3.5-.6.5-.9 0Zm-56.6-2.3c-.7-.7-.8-1.4-.2-1.7.8-.4 1.3-.3 1.7.3.5.6.5.7 0 1.4s-.7.7-1.5 0Zm-101.5-9.4c-.8-.4-1-.9-.4-1.5.9-1.2 3-.4 2.9 1-.1.8-1.4 1-2.5.5Zm9.2-.8c-.3-.3-.5-.6-.3-.6l.9.5c.3.3.4.6.2.6s-.5-.3-.8-.5Zm63.2-2c-.3-.6.2-1.8.7-1.8.7 0 .8 1.6.1 2-.6.2-.6.2-.8-.2Zm5.4-3.1.5-2c.3-.7-.3-3.4-.8-3.4-.1 0 0-.2.3-.5s.7-.4.8-.3c.2.1.9.2 1.6.1 1.5 0 1.9.5 1 1.4l-.4.8-.8 1.2-.9 1.7c-.2 1.4-.6 2.3-1 2.3s-.4-.3-.3-1.3Zm42.5.6c-.6-.8-.3-2.3.6-2.8.9-.5 2.1-.5 2.7 0 .3.3.3.5-.1 1.6-.8 1.7-2.4 2.3-3.2 1.2Zm-19.7-1.3c-.3-.3-.3-.8-.1-1.4.3-1.2 1.1-1.5 1.3-.6.3 1.8-.5 3-1.2 2Zm32 0c-.4-.4-.3-1.5.1-2 .5-.6 2.8-1.3 3.4-1 .6.3.2 1.6-.7 2.4-.8.6-2.5 1-2.8.7Zm-71.4-1.5c0-.2.1-.4.3-.4.1 0 .3.2.3.4s-.2.3-.3.3c-.2 0-.3-.1-.3-.3Zm13.2-.8c-.2-.3.6-1.3 1-1.3s.6.7.3 1.1c-.4.5-1.1.7-1.3.2Zm-79.2-.2c-.2 0-.3-.4-.3-.8 0-.6.5-1 1.4-1 .6 0 1.5 1.2 1.3 1.7-.2.4-1.7.5-2.4.1Zm132.8 0c-.1-.3.2-.6.6-.8a5 5 0 0 0 1.4-1c.3-.5 1.2-.7 2.6-1 3.1-.2 3.9-.5 5.5-1.4 1.4-.8 2.6-.9 3 0 .2.6-1 1.6-2 1.6-.5 0-1.3.3-1.7.6-.4.2-1.3.5-1.8.5-.6 0-2.1.4-3.3.9-2.4 1-4 1.1-4.3.5ZM85 95.7a10 10 0 0 1-2.7-2.2c0-.3-.5-.8-1-1.2-1.4-.8-2-2-1.5-2.5.6-.5.8-.4 2 1 .7.9 1.4 1.5 1.6 1.5.2 0 .4.1.4.3 0 .2.7.8 1.7 1.4a6 6 0 0 1 2 2.2c.9 1.9.8 1.9-2.5-.5Zm12-9c-.1-.2 0-.8.2-1.4a3 3 0 0 0 .1-2.2c-.2-.7-.4-1.5-.6-1.7a58 58 0 0 1-2.3-5.3c-.4-1-.5-1.2-.2-1.7 1-1.4 2 .1 2 3.2 0 .8.3 2 .6 2.6.6 1.2.6 1.2 2.3 1 1.5-.1 1.7-.1 1.7.5 0 .4-.3.9-.6 1.1-.3.3-.6.7-.6 1 0 .2 0 .4-.2.4a4 4 0 0 0-1 1.4c-1 1.4-1.2 1.6-1.4 1Zm-16.7-.6L78.2 84l-2.8-2.7a8.9 8.9 0 0 0-2-1.5 8 8 0 0 1-1.7-1.5c-1.2-1.5-3-3.4-4-4.3-.9-.8-.9-.8-.4-1.5.7-.9 1.6-.5 3.2 1.5l1.5 1.4c.2 0 .2.1.1.3 0 .2.4.8 1 1.3.7.6 1.7 1.7 2.4 2.6a11 11 0 0 0 2.4 2.3c1.3.8 2.8 2.6 3.2 3.8.2.9-.2 1.2-.7.5Zm1.6-2c-3.3-3-5-6-3.6-6 .3 0 1.4 1 2.5 2.3a13 13 0 0 0 2.3 2.3c.1 0 .6.4 1 1 .5.6.6 1 .3 1.4-.4 1-.7.9-2.5-1Zm34.2-.1c0-.8.3-1.5.5-1.5.5-.2.4 1.8-.1 2.4-.4.4-.5.3-.4-1ZM37 81.7c0-.2-.3-.4-.6-.4-.2 0-.7-.2-.9-.5-.2-.3-.7-.6-1.2-.5-1.4 0-1.5 0-1.5-.6 0-.4-.2-.8-.5-1a1 1 0 0 1-.5-1c0-.5-.1-.7-.8-.9-.8-.2-.8-.2-.4-.8.4-.5.4-.6 0-1.1a7 7 0 0 0-1.2-1c-.6-.4-.6-.4 0-1 .7-1.1.6-2-.4-2.7-.8-.4-.9-.5-.3-.5.4 0 .7-.4.9-1.4.2-.9.2-1.4 0-1.7-.5-.6-.3-1 .4-.8.9.3 1.6-.5 1.4-1.4-.1-.7 0-.8.5-.8h1.2c.5 0 .5 0 .2-.4-.8-.6.3-1 2.2-.8 1.7.2 1.8.2 1.8-.7 0-1.1.3-1.4 1-1 .4.3.7.3.8 0 .3-.6 1-.3 1.1.5.2.8.2.8.6.1.4-.6.9-.5.9.3 0 .2.2.4.5.4s.7.3.8.5c.2.2.8.4 1.4.4.9 0 1.1.2 1.6 1.2.8 1.6 1.2 1.8 2.4 1.1.5-.3 1-.4 1-.3.1.1 0 .3-.2.4-.6.2-1.2 1.2-1 1.6 0 .2.5.7 1 1 .5.3.9.7.8.9 0 .1.2.5.6.7l.5.5-.5.2H50c-.6.2-.5 1.3.1 1.8.3.3.5.6.4.8 0 .2 0 .4.2.5.4.4.3 1.5-.1 2-.2.2-.9.4-1.5.4-.8.1-1.1.3-1.1.7 0 .7-.4 1-1.5 1-.7 0-1 .2-1.3 1a3 3 0 0 0-.3 1.4c.1.3 0 .3-.7.1-.8-.3-1-.2-1.2.5-.3.7-.4.8-.9.5-.4-.4-.6-.4-.7 0-.2.3-.4.4-.6.3-.3-.2-2.3.2-3.2.6-.3.2-.5.1-.5 0Zm93.7-2.1 1.3-1.3c1-1.5 2-2.4 4.2-3.8 1-.6 3.3-2.7 3.5-3 0-.4 3-2.1 4-2.4.4-.1.7 0 .9.2.3.7-.7 2-2.3 2.7l-2.1 1.2-3.1 2c-1.5 1-3.4 2.5-4.1 3.3-.9.9-1.7 1.4-2.1 1.4-.7 0-.7 0-.2-.3Zm-20.4-6.9a21 21 0 0 1 0-6c.6-.5 2-4.5 2.1-5.5 0-1 .6-2.2 1-2.2.5 0 .5 1 .2 4.3a13 13 0 0 1-1.2 4.1 7 7 0 0 0-1 3c.2 2.6-.7 4.3-1.1 2.3Zm-34.7-5.2c-1-.6-2.3-2.2-2.3-2.9a15 15 0 0 0-3-5.1c-.4-.3-.7-.7-.7-.8 0-.2-.4-.5-.9-.8-.8-.4-2.3-2.4-1.8-2.4.2 0-.1-.4-.7-.8A5.2 5.2 0 0 1 65 53a6 6 0 0 0-2-2.4 234.7 234.7 0 0 1-9.7-7.7 3 3 0 0 1-1.2-1.3c-.4-.4-1.8-1.5-3.3-2.5a22.2 22.2 0 0 1-5-4.4 90 90 0 0 0-6.7-7 81.8 81.8 0 0 1-7.5-7.9 115 115 0 0 1-5-4.6 6 6 0 0 1-1.6-1.6 51.7 51.7 0 0 0-8-8.4c-1.4-1.4-2.2-3.1-1.7-4 .7-1.6 3.3-1.4 4.6.2a4920.4 4920.4 0 0 0 4.7 5.9l3.6 4c3.6 4.5 4 5 4.8 5.2.4.1 1 .7 1.3 1.3a6 6 0 0 0 1.3 1.4c1.8 1.3 5.7 5 7.7 7.7a24.7 24.7 0 0 0 3.1 3.5c.2 1 2.4 3.6 3.2 3.9 1.1.3 2 1 3 2a25 25 0 0 0 2.3 2.1 16 16 0 0 1 2.3 2.3 14 14 0 0 0 2.7 2.5c1.1.7 2 1.4 2 1.5 0 .1.8.7 1.9 1.2a14 14 0 0 1 3.7 3c1 1.2 2.4 2.3 3 2.6.5.3 1 .8 1.2 1.1 0 .3.6.9 1.1 1.3.6.4 1 .9.8 1 0 .2 0 .3.3.2.2-.1.4 0 .4.2s.2.4.5.4c.2 0 .3.1.3.3-.2.3 1.9 1 3 1l1.6.8c.6.4 1.4.7 1.7.7.3 0 1 .5 1.5 1 .8 1 1 1.3 1 3.5.1 2.4.1 2.4-.9 3.6a4.2 4.2 0 0 1-5.2 1Zm61.3-7c-.3-1.3 0-2.5.9-2.8.4 0 .7-.3.7-.5s.1-.3.3-.1l.2.5c0 .2 0 .3-.3.1-.1 0-.2 0-.2.3 0 .4 0 1-.6 2.7-.3 1-.8 1-1-.1Zm2.2-3.4c-.8-.7-.6-1.5.5-1.8.5-.1.9-.5 1-1.2.2-.5.8-1.6 1.4-2.4a133 133 0 0 0 5.7-8.3c.2-.7 1.4-1.6 1.8-1.2.2 0 .3.4.3.7 0 .7-1.7 3.3-2.2 3.3-.2 0-.3.2-.3.4s-.8 1.1-1.8 2a8.1 8.1 0 0 0-2.3 3.8c-.4 1-.6 2-.6 2.1.1.1-.3.5-1 1-.5.5-1.2 1.1-1.4 1.5-.4.6-.5.6-1 0Zm-95.8-6.9c-.8-1.5-.3-3 .7-1.8.4.5.5 2.8.1 2.8-.1 0-.5-.4-.8-1Z"/>
  <defs>
    <linearGradient id="a" x1="-27" x2="501.2" y1="150" y2="150" gradientUnits="userSpaceOnUse">
      <stop stop-color="#00AD28"/>
      <stop offset="1" stop-color="#375B47"/>
    </linearGradient>
  </defs>
</svg>
