<svg xmlns="http://www.w3.org/2000/svg" width="523" height="273" fill="none">
  <path fill="url(#a)" d="m31.6 1.2.4 1.2c.4.9.4 1-.3 1.6-.8.6-1.3 2.9-1.1 4.6.1 1.2.6 1.4 1.2.4.3-.3.7-.5 1-.3.3.2.3 1 0 3.6-.6 4.5-1 5.2-3.2 4.6-1.7-.5-2.4.1-1.6 1.3.5.7 1 3.5.8 4l-1.6.7-2.2.7c-1.6.7-2.9-.3-2.5-1.9.2-.9 1.7-2.3 2-2 .2.3.3.2.2 0 0-.3 0-.7.2-1 .2-.4.2-.9 0-1.3-.1-.4 0-.8.2-1.3.6-1-.3-2-2.6-2.5-1.5-.3-2-.3-2.4.2-1 1-3 2.3-3.2 2-.2-.2-.2-.7 0-1.3.1-.7 0-1.2-.9-2.3-.6-.7-1-1.7-1-2 .2-1.8-1.4-3.9-2.4-3.2-.3.3-.3.7.3 2s.7 2 .5 4.3c-.2 2-.2 3.2.1 3.7.4.9.5 1.8.4 3.1v.8c.2 0 .7.7 1.2 1.5 1 1.7.7 2.2-1 2-.5 0-.7.2-.7.6.2.8-.5 1.3-.7.6-.2-.5-.7-.6-.7-.1 0 .2.4.9.9 1.4 1.6 1.8 3.6 5 3.3 5.5 0 .3-.5.8-1 1-.4.3-.7.7-.7 1.1.1.4 0 .5-.3.3s-.5-.6-.5-1c-.2-.8-2-2.1-3.2-2.2A3 3 0 0 1 9 31c-.5-.5-2-.6-2.6-.2l-.2 2c.1 2.2-.1 3.3-1 4.4-.7 1-.6 1.4.3.8.4-.2 1-.3 1.4-.3.7.1 4.2 2.9 4.4 3.5.1.5-.3 1.2-1 1.5-.4.1-.7.6-.7 1.4-.2 1.6.3 3 1 2.8.6-.3 1.2.9.8 1.7-.2.5-.7.6-1.7.5l-1.4-.2-.1 2.3c-.2 2-.1 2.3.5 2.6.4 0 1 .6 1 1 .3.6.8 1 1.2 1 1.2.2 1.3.6.5 1.5-.4.4-.6 1-.6 1.2.1.3-.3.7-1 1-.8.3-1.2.9-1.8 2.3-1.2 3-1.4 4-1 4.6.5.6 2.2.7 3.4.2 1-.4.5 1.1-.7 2.4-.6.6-1.2 1.1-1.4 1.1-.1 0-.2.2-.1.4 0 .3 0 .5-.3.4-.2 0-.3.1-.2.2 0 .2.7 0 1.4-.5 1.2-.8 3.5-.9 4 0 .2.4-1.3 3.5-2 3.9-1.6 1-1.6 1.2-1 2.7.8 1.6.8 2.4.1 3.2-.3.3-.3.6 0 1 .3.9-.6 1.8-2 2.1-.5.1-.9.5-1.1 1.2-.2.8-.5 1-1 1-1-.1-1 .8.1 1.8 1.2 1 .8 1.6-1.3 2.4-2.3.8-3 1.7-3.1 3.3 0 .9-.3 1.5-.8 2-.7.8-.7.8.1 1.1 1 .4 2.8 1 6 1.8 1.7.3 2.4.3 2.8 0 .5-.4.9-.4 2.2.2 1.9 1 2.2 1.8 1 2.8-.6.6-.6.7-.3 1.3.6.8.2 2.6-.8 4-.5.6-.9 1.4-1 1.7 0 .4-.3.9-.6 1.1-1.6 1.3-.8 2 1.2 1 2-.8 2.7-.8 2.8.3 0 1-.4 2.6-.7 2.6-.2 0-.4 1.4-.5 3.3 0 .8.8.3 1.1-.6.2-.6.6-.8 1.2-.7.5 0 1.2 0 1.5-.2.6-.2.6-.1.2.4-.5.6-.4.8 0 1 .4.3.6.6.6.8 0 .3.3 1 .7 1.7.5.8.6 1.2.3 1.3-.3.2-.3.4 0 1 .2.3.3 1.2.3 1.8-.2 1.9-.2 2 .4 3.2.3.6.6 1.5.6 2 0 .3.3.6.6.5.2 0 .4.2.5.6 0 .4.5.7 1.1.8 1 0 1.1.3 1.3 1.4.1.7.4 1.5.6 1.6.3.2.4.7.3 1.2l.4 2.1c.3.7.4 1.3.3 1.5 0 .2.2.3.6.2.5 0 1 .2 1.2.6.2.5.7.8 1 .9.6 0 1 1.8.8 3.4-.1 1.3.4 1.6 1.7 1l1.2-.5c.2 0 1.7 2.8 1.7 3 0 .2-.4.2-.8 0-.5-.3-.7-.2-.8.2 0 .5-.1.4-.3 0-.1-.7-.2-.7-.5 0-.1.4-.2.8-.1 1 0 .2 0 .6-.3 1-.3.6-.2.8.4 1.1.4.2.6.6.5.8-.1.2 0 .4.4.4.7.1 1 1 .6 1.4-.5.4-.6 1.3-.1 1.4.7 0 2.3 3 2.4 4.5v2.5c-.3.8-.2 1.2.4 2 .5.7.8 1.5.7 2.2 0 .7 0 1 .5 1.1.3 0 .7.5 1 1 .2.5.8 1 1.4 1.3.7.3 1 .7 1.1 1.7.1.7.4 1.3.5 1.4.2 0 .5.8.7 1.8.2 1.7.3 1.8 1.7 2 1.2.1 1.6.4 2.3 1.5a8 8 0 0 0 2.4 2.3c.9.5 1.7 1.1 1.7 1.4.1.2.6.4 1 .5.7 0 1 .4 1.2 1.2.1.7.4 1.2.6 1.2.2 0 .4.5.6 1 .1.5.5.9.7 1 .5 0 .6 1.5.2 2.2-.4.7-.6 1.8-.2 1.5.1 0 .5 0 .9.3.7.6.7 2.7-.1 2.6-.5 0-.8 1-.3 1.5v1c-.2.3-.1.6 0 .6.3 0 .3.3.2.5-.2.3-.2.4 0 .3.4-.3 2.3 2.6 2.2 3.4 0 .4-1.6 1.6-2 1.5-.4-.2-2.6.9-2.7 1.2 0 .1.4.3.9.2.4 0 .6 0 .4.1-.2.1-.4.4-.5.8 0 .7.9 1.3 1.2.8.1-.3.8-.5 1.5-.6 1.6-.1 2.7 1.2 2 2.2-.4.5-.3.6 1 .4 3.4-.3 6 1 5.8 3 0 .7 0 .7.5 0 .3-.4.5-.6.5-.4 0 .2.2 0 .5-.4s.5-1.2.5-1.8c0-.6.1-1 .6-1.3.7-.5 2.8-.2 3.5.4.2.3.7.2 1.2-.2.9-.7 3.4-.8 3.6-.2 0 .3 0 .5-.2.5-.8-.1-2.6 1.7-2.5 2.5 0 .4-.3 1-.6 1.2-.7.4-.7 1 0 1.6.3.3 1 .3 2 0 .9-.2 1.4-.4 1.2-.5-.3 0-.4-.2-.1-.3.5-.2 2.1 1.3 2 1.9 0 .2.4.3.9.2a13 13 0 0 1 3-.2l.5-1c.3-1.3 1-1.8 2.7-1.8h1.2l-.2 1.7c0 1-.3 1.9-.5 2-.2.2-.3.7-.1 1.3.1.8 0 1.3-.2 1.8-.8 1.2-.1 1.6 2 1.3a7 7 0 0 0 2.5-.8c.9-.8 4.4 1 4.3 2 0 .4-.5 1-1 1.3-.6.4-1 .8-1.1 1 0 .2-.2.2-.3 0-.2 0-.4 0-.6.3-.1.3 0 .4.6.3.5 0 .8 0 .9.2 0 .6 2.3 1.3 2.3.8 0-.7 1.4-2.1 2-2 .2 0 .5-.4.6-.8.2-.5.5-.9.8-.8.4 0 .5-.2.4-.7v-1c0-.3-.3-.5-.6-.6-1 0-1.6-1.3-1-2 .2-.4.6-.5.8-.4.2.2.7 0 1.2-.2.9-.5 1-.6.3-.9-.8-.4-.5-1.6.7-2.4 1.3-.9 2-1 1.7 0-.2.5 0 .6.8.7.7.1 1 .4 1 .8-.1 1 1.2 2.6 2.2 2.4.9-.2 2.8-2 2.8-2.9 0-.3.7-.4 1.6-.3.8.2 3.1.4 5.2.6 3.3.4 7 1.4 7 2l-.7 1c-.4.4-.8 1-.8 1.2 0 .7 1 .7 1.8 0 .7-.6.8-.5 1.5 1l.7 1.8c0 .2.1.4.3.4.2 0 .3-.2.2-.4 0-.2 0-.6.3-.7.2-.2.2-.4 0-.7-.7-.7.8-.4 2 .5 1.4 1.1 1.7 2 .6 2.7-1 .7-1.2 2.2-.4 2.2.3 0 .9-.3 1.3-.8s.7-.8.8-.7c.1.2.5 0 1-.3l.7-.6-.8-.5a4 4 0 0 0-1-.6c-.2 0-.3-.5-.2-1 0-1 .3-1.1 1.4-1.2.8-.1 1.7 0 2.2.3.9.4 3.3 4.4 3.9 6.5.4 1.3.4 1.3-.4 1.8-.7.4-.7.5.2.6 1 .1 3.2 3.8 3.5 5.9.5 3.5.9 4.3 2 5 1.7.7 2.8 1.7 2.8 2.1-.1 1 2.3 3.9 3.8 4.6 1.8.8 2.4.8 2.5 0 0-.4.2-.5.3-.1 0 .3 1 .6 2.2.7 1.7.3 2.3.1 2.9-.4.5-.6 1-.7 1.7-.4a7 7 0 0 0 2.9 0c1.8-.2 2-.2 3.8 1.4a7.3 7.3 0 0 0 4 2c1.5.3 2 .2 2-.2s0-.5-.2-.4c-.2.1-.3-.2 0-.8l.4-1.8c.1-1.2 1.6-.8 1.8.4 0 .6.2.8.2.6 0-.3.8-.5 1.8-.6 1 0 2-.3 2.6-.6.9-.7 2-3.5 1.9-5-.1-1 .7-1.5 1.2-.7.2.4.4.4.9.1.4-.2 1.7-.1 3.6.3 1.6.4 4.4.9 6.1 1l3.3.4 2.6-1.7c2-1.4 2.8-1.7 4-1.6 1 .1 1.3.3 1.2.7-.2.7 1 .6 1.7-.2.3-.3 1.2-.4 2.2-.3 1.7.2 4.5-.3 4.3-.8-.1-.5 4.3 0 5.5.7 1.9 1 5.2 4 5.7 5.1l1.2 2.1c.8 1 .9 1 1.3.4s.4-.8-.3-1.6c-.7-.7-.9-1.5-.7-2.6 0-.3-5.2-5.1-6.3-5.8-.3-.2-2-.6-3.9-1a19 19 0 0 1-3.5-.8c-.3-.6 1-1.1 2.4-1 1.2.2 1.7 0 1.5-.2l-.2-.8c0-.6 1.8-1 2.7-.6l.8.4-.8.4c-.4.3-1 .5-1.4.6l1 .1c.8 0 2-.2 2.6-.4 1.3-.4 5.2.5 5.7 1.4l.8.4c.3 0 .8.4 1.1.8.3.4.8.7 1 .7.3 0 .9.4 1.3.8.7.7.8.7 1 .2.3-.7-.4-2.8-1.1-3.3-.3-.1-1-.4-1.7-.5-.7-.1-1-.3-.9-.5.2-.1.4-.6.3-1 0-.5-.6-.7-2.2-1-1.4 0-2.3-.4-2.9-1a6.7 6.7 0 0 0-2-1.7c-1-.6-1-.8-.8-2 .4-2 1-2.2 3.2-1.3 1 .4 2.2 1.1 2.5 1.5.5.6 1 .8 2 .7.6 0 1.6.2 2.2.4 1.8.8 1.6 0-.2-1.1l-2-1.4a8 8 0 0 0-2.2-1.3c-2.5-1.4-2.7-1.9-.6-1.6 3.2.3 11.2 5 12.2 7.2.2.5.7.9 1 1 1 0 5.2 4.5 5 5.3 0 .4.2.5.5.4.3-.1 1.2.2 2 .7 2 1.2 3.5.8 4.5-1.1.4-.8 1.1-1.8 1.5-2.3l1.5-2c1.1-1.7 2.7-2.1 6.5-1.7 2.2.3 4.4.2 6.5-.1 3.3-.6 4.3-.4 7 1.1 2 1.2 4.4 1.6 7.3 1.3 1.2-.2 2.6-.1 3.2 0 1.9.7 3.9.7 3.9 0 0-.3-.4-.9-.9-1.3l-.6-1c.2-.3-.7-1.8-1-1.8-.2 0-.4-.2-.3-.5 0-.6-1-1.5-2-1.6-.5-.1-.8-.3-.7-.5.3-.5-4.3-.8-6-.4-1 .3-2.2 1-3 1.5-1.2.9-1.4.9-3.7.3-1.3-.3-3-.9-3.9-1.3-2-1-5.3-1.4-7.1-.8-2.2.7-5 2.7-5.7 4-.8 1.4-3.9 4.9-5 5.6-1.4 1-2.3.3-4.3-3.3-1.4-2.6-1.7-3.4-1.3-3.6.3-.3.2-.6-.5-1.3-1.4-1.3-2.8-3.8-2.4-4.4.2-.4 0-.5-.3-.3-1.3.5-1.7-1.8-.5-3l.7-1.7c0-.5.3-1.3.5-1.9.3-.7.2-1-.1-1-.3 0-.5.2-.6.5 0 .3-.1.3-.2.1-.1-.1.3-.7.8-1.2 1-.9 1-1 .8-2-.4-1-.4-1 1-1.8 1.1-.6 2.2-.3 1.7.4-.1.3 0 .3.7 0 .8-.2 2.6.5 3.2 1.5.1.2.7.4 1.3.5.5 0 1.3.3 1.8.7.8.6 3.4 1 3.7.4.1-.2 1-.5 1.8-.7 1.2-.3 1.6-.3 2.2.2.5.6.8.6 1.4 0 .5-.3 1.2-.5 1.7-.5.8.1.9 0 .6-.6-.3-.7-.2-.8 1-.5 1 .3 1.2.2 1.1-.2 0-.3.2-.7.4-.8.3-.1.6-.5.6-.8 0-.6 1.2-.7 2.4 0 .6.2.6.3 0 1.5-.6 1.3-.6 2.3 0 1.2.3-.3.4-.4.4-.2s.3 0 .6-.4c1-1.2 1.9-1 3.6.7 3.9 4 10.7 5.7 11 2.8 0-.3.4-.5.9-.5.4 0 .7.4.7.7-.1.7.7 1.4.9.8 0-.2.5-.4.9-.3 4.4.4 6.4.9 8.8 2 4.3 1.8 10.3 2 11.9.5.5-.5 1.2-.5 4 0l4.8.7c1.3.2 5-.3 6-.7.3-.1 4.9.2 10.2.8 10.3 1.2 19.6 2 20 1.6.2-.1 2.3 0 4.6.3l20.7 2.6c17.7 2.2 19.6 2.4 19.3 2.7 0 0-2.7.2-5.9.2h-7l-8.6-.7c-4.1-.4-7.9-.7-8.4-.6-1 .2-1 .2.4.9.8.4 2.1.8 3 .9a66.5 66.5 0 0 0 21.6 3c4.1.1 10 .9 15.2 2l16.4 2.7c7.7 1.3 18.5 3.3 21 3.9 2.2.5 2.5.2.8-.9-.6-.4-1-1-.9-1.5 0-.8-.3-1-1.8-1.5-1-.2-1.8-.6-1.7-.8 0-.2-.7-.6-1.6-.9-.8-.2-1.3-.5-1-.6l1-1c.6-.8 1-.9 4-.4l7.1 1.3c2.1.4 4.9.7 6.2.7 1.3 0 2.9.2 3.6.5a94.3 94.3 0 0 0 11.3 4c1 .1 3.5 1.4 5.8 3.2 2.3 1.7 3.2 2.2 3 1.4 0-.2-.6-.8-1.1-1.2-1.7-1.5-1-2 2.2-1.8 3.1.3 3.8.2 3.7-.8 0-.4 0-.5.3-.3.6.4.7-.4.2-1a9.6 9.6 0 0 1-1-3.5l1.9-.2h1.7l1 2.3a7.6 7.6 0 0 0 2 2.9c.6.3 1.2 1 1.4 1.3.3.6.2.8-.4 1.3-1 .9-.1 1.7 2 1.8.5 0 .8-.3.9-.6 0-.8 1.5-1.8 2.4-1.7.6 0 .6 0 0 .8-.5.7-.5.8.4 1.5.5.4 1.4 1 2 1.2.9.4 1.1.6.8.8-.4.3-.3.5.3.9.5.4.7.8.6 1.2-.3.7-.3.7.7.4 1-.4 2.1.3 2 1.2 0 .7 1.2 2.2 2 2.3.3 0 .7.4 1 .9.4.5 1 1 1.5 1.3.5.2.8.6.8.8 0 .2.3.5.7.5.4 0 .8 0 .8-.2 0-.4-1.4-1.9-2.5-2.4-1.2-.7.1-1.1 1.8-.6 1 .3 1.8.3 2.3 0 .8-.5.8-.5.3-1.3-.8-1.1-.8-2.7 0-3.1.3-.2.6-.7.7-1 0-.8-1.2-1-3.3-.6-1.1.3-1.5.2-1.6-.1 0-.3-.3-1.2-.7-2-.5-1-.9-1.4-1.8-1.5-.7-.1-1.1-.3-1-.6 0-.3-.2-.8-.5-1.1l-.7-.7 1-1.1c2.1-3 1.1-4-2.1-2.2-2 1-4.6 2.9-5 3.4-.3.2-1 .4-2.1.5-.9.1-1 0-.6-1 .2-.8.2-1.2-.2-1.6-.4-.4-.4-.5.2-.4 1 0 1-.6 0-1-.5-.4-.6-.7-.5-1.7.1-1.2 0-1.3-1.1-1.7-2-.7-2.4-1-2.2-1.7.2-.6-.1-.8-1.8-1-1.8-.3-2.2-.5-2.7-1.6-.9-1.5-1.3-3-1-3.4.3-.3 2.2-.2 9.5.4 3 .3 5.8.3 6.3.1l1.2-.3c.8 0 .3-.8-.5-1.1a25 25 0 0 1-2.2-1c-.6-.2-4.3-1-8.2-1.6-6.2-1-7-1.2-7.3-1.9-.2-.4-.3-.8-.2-.9.2-.2 1.7-.4 3.3-.4 2 0 3-.7 2.4-1.9-.2-.5-.2-.7.1-.6.2 0 .3-.2.2-.5 0-.2-.5-.5-1-.5-.7-.1-.9-.3-.7-1 .3-2 .9-2.5 2.9-2.5l2.2-.1c.3-.2 2.7 0 6.9.6l2.6.2 2.4.3c.9.2 1.6.2 1.6 0 0-.3.2-.7.4-1 .3-.6-.1-.7-1.6-.3h-1c.4-1.5.2-2.2-.6-2.9-.5-.3-.8-.7-.6-.8.2 0 .3-.6.2-1.7 0-1.4 0-1.7.5-2.1.6-.5.6-.5-.3-.6l-2-.7c-1.8-1-3.5-1.3-3.8-.6-.1.3-.6.5-1.2.4-.8-.1-.9-.2-.2-.4l1-.7c.2-.6 0-1.9-.4-2-.3 0-1-2.3-.8-2.4l1-.4c.6-.3.6-.4-.6-.6-2.6-.4-4.8-1.2-5.3-1.8-.3-.4-.4-1.2-.3-2.7.2-1.6.1-2.3-.3-2.7-.7-.8-.2-1 2.8-1 1.9 0 2.7.2 2.9.5.1.7 1.5.9 1.8.3.4-.6 1.6 0 1.4.8 0 .4.2.7.6.8.3 0 .8.3 1 .5.3.4.2.5-.5.9a2 2 0 0 0-1 1c0 .4.5.5 2.3.5 1.2 0 2.3-.1 2.5-.3 0-.2.6-.5 1.1-.6.6-.2 1-.5 1-1a8 8 0 0 1 .7-2c.7-1.4.4-2.6-.6-2.7a.5.5 0 0 1-.5-.7c0-.4.2-.6.4-.6.5 0 .6-2.4.1-3.2a5 5 0 0 0-1.7-1.4 6.3 6.3 0 0 1-3.6-5.5v-1.3l-7.2-.5c-5.9-.5-7.3-.8-7.9-1.3-.4-.5-1.7-.8-3.2-1-2.5-.3-2.6-.4-2.8-1.5 0-.6-.3-1.1-.6-1.2-.7 0-.8-1-.1-1.5.3-.3 1.1-.4 2-.2 1.3.3 1.7.3 2.1-.3.4-.6 1-.7 3.6-.4 3.4.3 5.4-.3 5.5-1.8.1-.8-.3-1-1.5-1-.3 0-.5-.3-.3-.5.2-.3-.3-.5-4-1.6-.9-.2-2.2-.8-3-1.4l-1.3-1h1.3a48 48 0 0 0 7.3-1.2c1.1-.5 1-1 0-1.1-3.7 0-13.7-1-14.2-1.3a3 3 0 0 1-.9-1.2c-.1-.8 0-1 .5-1.5s.2-.6-2.6-1l-3.7-.4a78 78 0 0 1-5.1-.5c-3.3-.4-5.2-.8-6.6-1.4-2.6-1.3-4.8-3-4.5-3.3 0-.2-.2-.5-.6-.6-.4-.1-1-.7-1-1.2l-.4-1 3.2.7c1.7.4 4.3 1.2 5.6 1.8 4.9 2.3 6 2.6 6.8 2.2.7-.5 4.6 0 4.3.5-.3.5 3 1 6.8.9h4.6c1 .1 1 .1-.4.8-.7.3-1.4.5-1.5.3-.2-.1-.2 0-.1.2 0 .5 1 .8 5.3 2 2 .5 3.8 0 3.7-1.1v-1.3c0-.3-.2-.6-.4-.6-1-.1-.7-1 .4-2 1-1.1 1-1.1.4-1.6-.3-.2-1.4-.5-2.4-.5-1-.1-2.2-.5-2.8-.8-1-.6-1-.8-.8-1.6l.4-1 2.2-.3c1.2 0 2.3-.4 2.5-.6.5-.5.3-.6-5-1.2-3.6-.5-4.1-.6-4.6-1.5-.8-1.4-.9-2.5-.1-2.4.3 0 .6-.2.6-.5s0-.4-.1-.2c-.3.2-.6-.3-1.5-1.8-.3-.6-.5-.7-.6-.4 0 .2-.2.5-.4.4-.1 0-.2-.2 0-.4l-.1-.5c-.2 0-.4.6-.4 1.5s-.1 1.6-.4 1.8c-.5.3-1.7-.9-1.6-1.6 0-.4-.2-.7-.6-.7-.4 0-.6-.3-.4-.7.2-.4 0-.8-.8-1.2-1-.7-1.7-2.5-1.1-3.2.2-.2 1.8-.3 3.7-.3 1.8 0 3.3 0 3.3-.2s.5-.2 1 0 1.4.2 2 .1c1.2-.1 1.2-.2.7-.7-.4-.3-.5-.8-.4-1.1.1-.4-.2-.6-1-.7-2.3-.3-.4-.8 2.2-.6 1.2.1 1.8-.7.7-.8-.3 0-.7-.5-1-1-.3-.9-.6-1-2.3-1l-5.6-.1c-3.2-.2-3.6-.3-3.6-.9.2-1.4-.9-1.8-3.1-1.1-1.8.5-2.1.5-2.4 0-.2-.5-1-.8-2.3-1-3-.3-3.4-.7-1.7-1.5.8-.4 1.7-.7 2-.6.5 0 .9 0 1-.3.1-.4 3.4-.5 3.3 0l1.9.5 2 .5h.6c.3-.3-.3-.6-1.3-.9-2-.5-3.4-1.5-3-2 0-.2-.1-.4-.4-.4-.2 0-.4-.2-.3-.4.2-.3-.2-.6-.8-.8-.6-.3-1-.7-1-1 .1-.6-.4-.8-2.8-1-1.6-.2-3-.6-3-.8-.1-.3-1.7-.6-4.4-.7l-4.2-.2-3.2-2.3-5.9-3.9c-3.7-2.3-3.1-2.7 2-1.5 3.2.7 9.4 1.5 10.4 1.4.1 0 0-.3-.2-.5-.5-.6-3.2-1.2-9.1-2.2-7-1.2-8.8-1.8-8.7-3 .1-.9-1-1.2-10.2-2.8a110.8 110.8 0 0 1-18.2-4.4l-6-1.5a350 350 0 0 0-20.8-2.7c-4-.4-7.5-1-7.9-1a119 119 0 0 0-24.4-4.3l-2.5.1a153 153 0 0 1-16.4-1.1 149.1 149.1 0 0 0-35.3-4 15 15 0 0 1-6.2-2.3c-.2-.2-1.5-.5-2.9-.7l-4.3-.8c-1.6-.5-1.7-.4-2 .4-.4 1-1.6 1-2.8-.1-.9-.8-3-.8-7.3 0-1.3.2-1.8 0-2.3-.4-.8-.8-.7-1.3.4-1.8.5-.2-.2-.4-2.1-.5-2-.1-3-.3-3.2-.7-.3-.5-4.7-1.8-6.6-2a49.7 49.7 0 0 0-12.4.8c-.8 0-2.9-1.6-4.1-3-.1-.1 0-.5.3-1 .7-1.2.5-1.4-1.2-1.2-.9 0-1.4.3-1.5.7 0 .5-.4.6-1.2.5a5 5 0 0 0-2.2.4c-1.1.6-3.8.3-4-.5-.1-.3-.8-.7-1.5-.9l-2.1-.7c-2.3-1-4.4-1-7.7.5l-3.2 1.4-1.5-1a103.8 103.8 0 0 0-5.7-4.2c-1.2-.7-1.4-1.4-.5-1.5h1c.2 0 .6-.2.8-.6.3-.4 1-.5 2.1-.4.9.2 1.7.1 1.8 0 .8-1.3-7.9-1.8-14-.8a65 65 0 0 1-7 .8c-2.7 0-5.5.3-5.8.8-.8 1.4-4.4 1.5-5.2.2-.3-.5-1-.9-1.9-1a7 7 0 0 1-2.2-.7c-1.7-1-4-1.6-5-1.4-2.2.3-5.8.1-6-.4-.5-.7-2-.2-2 .7.2 1.3-1.4 1.5-3.8.6-1.1-.5-2-1-2.1-1.3 0-.2-.3-.4-.6-.5-.3 0-.9-.5-1.2-1-.6-.8-1-.9-2.7-.8-1.7.2-2.1 0-3-.8-1.3-1.1-1.3-1.1-3.9 0-2.8 1-3.6 1-5-.1a6 6 0 0 0-2.6-1.2 326 326 0 0 1-6.3-.6c-2-.3-2.6-.7-3.1-2.5-.6-2-.4-2.1 2.2-1.9.9 0 1.7 0 1.7-.2 0-.1 0-.3-.2-.3l-3.6-1.1c-.6-.2-1-.6-1-1 .2-1-2-1.8-5-2.1A203 203 0 0 1 98 32c-.5-.3-1.7-.7-2.7-1-1-.3-2-.7-2-1a10 10 0 0 0-2.5-.7l-2.2-.4.9-.9.9-1.2c0-1-2.5-1.8-7.8-2.7-5.2-.8-5.6-.9-5.4-1.6.2-.6 0-.9-.5-1.2-1.1-.7-1.2-.6-1.8.5-.4 1-.7 1-2.6 1-2-.2-2.1-.3-3.4-2-1.4-1.7-2.8-2.2-2.7-1 0 .3-.3.7-.7.8-.3 0-.6.3-.7.5 0 .5-2.5.2-5.3-.6-1.2-.4-2.3-.5-2.5-.3-.5.4-5.8-.8-5.4-1.2a4 4 0 0 1 1.5-.6c1.2-.2 1.2-.3.4-.4-2.1-.4-3-1.4-1.3-1.8 1-.2 1.7-1.5 1-2-.7-.6-1.8-.5-2 .2 0 .7-1.1 1.2-1.6.7-.5-.7 0-2.3.9-2.8.8-.4.8-.5.4-.9-.3-.3-.4-.7-.2-.9.4-.7-.4-1.7-1.6-1.9-.8 0-1.2-.4-1.5-1.1-.3-.8-.4-.9-.8-.4-.3.3-.7.9-.8 1.3-.4 1-2.3.9-3-.2-.4-.6-4.5-.6-5.2 0-.6.5-1.5-.3-1.8-1.6-.2-.5-.5-.9-.7-1-.2 0-.4-.4-.4-.8.1-.6-.1-1-.6-1.3-.4-.2-.7-.6-.7-.9 0-.3-.3-.8-.8-1.1-1-.7-1.1-.8-1.2-.4Zm4.6 8c.4.5.4.7 0 .6-.6 0 .5 1.4 1.2 1.5 1 .1.5.4-1 .5-1.3.1-1.4.1-1.1-1V9c-.2-.8.2-.7.9.2Zm6.8.4c.4.2.7.6.6.9 0 .6-1.4 1.3-1.9 1a.8.8 0 0 1-.3-.7c0-.2-.1-.7-.4-1.1-.4-.6-.4-.6.5-.5.5 0 1.2.2 1.5.4Zm.2 3.2c0 .3.5.4 1.2.2l1-.3c.4 0 .7 3 .5 3.5-.2.4-.4 1.5-.5 2.6-.2 1.4-.4 1.8-.8 1.7l-1.4.4c-1.2.6-3-1-2.5-2.2.2-.6.1-1-.4-1.2-.7-.4-.7-.8.3-1.3l.7-.4-.7-.4c-.5-.3-.6-.6-.3-1.3l.3-1c1-.8 2.4-1 2.6-.3ZM23 16.6c.9 1.2.9 2.5 0 2.2-.5-.1-.7 0-.7.3 0 .7-2 1.8-2 1.3-.2-.3-.1-.8 0-1.1.2-.4.2-.7 0-.7s-.3-.3-.2-.5c.2-.2.1-.4 0-.4-.4 0-.1-2 .4-2.3.4-.4 1.7.2 2.5 1.2Zm11.5 5.2c.7.7.7.7-.6.6-1-.1-1.2-.3-1-.8.3-.8.7-.7 1.6.2Zm-14.9.5c.2 1.3 0 2-.5 1.6-1-.7-1.1-2.5-.2-2.4.4 0 .7.4.7.8Zm-2 1c-.1.4-.3.7-.5.6-.1 0-.3-.3-.2-.7 0-.3.2-.6.4-.6l.2.7Zm100.6 16c2.6.4 3 .6 3 2.3 0 .8 0 1.2-.2 1-.1-.2-2.4-.7-5-1.3a75 75 0 0 1-6.6-1.9c-.6-.2-1.2-.7-1.4-1-.2-.6.4-.6 3.8 0l6.4.9Zm8.2 1 .3 1.4c.2 1.1.1 1.4-.3 1.7-.2.2-.6.2-.7 0-.2-.2-.9-.4-1.5-.5-1-.1-1.3-.3-1.2-1.1 0-.6.2-1.1.5-1.2.3-.2.4-.4.4-.7-.1-.3 2 0 2.5.4ZM25.2 33.9c.6 1 1.5 1 2.5.3 1-.8 2.7-.4 2.7.6 0 .5-.3 1-.8 1.4-1 .7-3.1 1-3 .3 0-.2-.1-.4-.3-.5-.2 0-.2.3-.2.7l-.1.6c-1.3-.5-1.8 1-.8 1.8l.8.6h-.8c-.8.1-2 1.7-1.7 2.6 0 .2.8.4 1.6.4 1.4 0 2.6.7 2.4 1.5-.1.2-.9.4-1.7.4l-2.5.1c-1.1.2-2-.7-2.4-2.9-.1-.7-.5-1.4-.7-1.6l-1-1c-.4-.3-1-.6-1.5-.6-.5-.1-1.2-.6-1.7-1.1-.5-.6-.7-1-.5-1 .2 0 .9-.5 1.5-1.2 1-1 1.6-1.4 3.7-1.7 3.4-.6 3.8-.6 4.5.3Zm149.1 19c.2.3 0 .8-.7 1.5-1.1 1.1-1.4 1.2-1.6.5 0-.2-.7-.5-1.5-.6-1.6-.2-2-1-.8-2 .7-.6 1.2-.7 2.6-.3 1 .2 2 .6 2 .9Zm2 1.1c0 .2.4.6 1 .8.9.4.9.5.2 1-1 .9-1.8.6-1.5-.4.2-.6.2-.9-.1-1a.8.8 0 0 1-.7-.4c0-.3.2-.5.5-.4.4 0 .7.2.6.4Zm46.5 5.8c.5.2.7.5.6.7 0 .2.3.5.9.7.6.3 1 .6 1 .8-.1.7-1.5.7-2.1 0l-.7-.5s-.3 0-.8-.4l-.8-.5.7 1.2c.4.6.7 1.3.7 1.5 0 .5-1.7 1.2-2.5 1.2h-1.6c-.7.2-1.3-.2-2.4-1.1-1.8-1.6-1.9-2-.7-2.6a7 7 0 0 0 1.5-1.2c.5-.5.8-.5 1.9-.1l1.7.9c.3.2.6.1.6-.2 0-.2-.1-.5-.4-.5a.5.5 0 0 1-.4-.5c0-.3.4-.4 1-.1l1.8.7ZM29.8 38c.4.4.5.7.2.7-.7-.1-1.7-.7-1.7-1.2s.7-.3 1.5.5ZM198 58.1c1.4.6 4.1 2.8 4 3.3 0 .6-3.6 2-4.4 1.7-.4-.2-.6-.1-.5.3.1 1-1.2.8-3-.6-.6-.6-1.3-1-1.4-1-.2 0-.3-.3-.3-.5 0-.3-.3-.5-.7-.6-.4 0-.7-.3-.7-.5s.2-.4.3-.4c.2 0 .4-.2.4-.4s-.4-.5-.9-.5c-.9-.1-1.4-.8-.8-1.2a8 8 0 0 1 2.5-.1c1.3 0 2.4 0 2.5-.2.2-.3 1.1 0 3 .7Zm5 2.2c0 .2 0 .4-.3.4a.8.8 0 0 1-.6-.5c-.1-.3 0-.5.3-.4.2 0 .5.2.6.5Zm-12.1 1 1.8 1.3 1 1 .6 1-1.5-.1-3-.2c-.7 0-2.2.1-3.2.4-3.1.8-4.2.2-3.9-2.2.2-1 .1-1.3-.5-1.2-.4 0-.7-.2-.6-.4 0-.3.3-.4.7-.4.4 0 1.5-.2 2.5-.6 2.3-.8 4-.4 6 1.3Zm14.5.6c.4.4.3.5-.4.4-.5 0-.8-.3-.8-.5 0-.6.7-.5 1.2.1Zm44.7 5.7c.2.3 0 .7-.4 1.2s-.8 1.5-1 2.2c-.4 1.3-.5 1.4-1.3 1.3-1.3-.2-4.4-1.6-4.8-2-.1-.3-1-.3-1.8-.2-1.5.2-1.7.2-2.2-.7-.6-1.1-.4-1.5.8-1.3.5 0 .8.3.8.7 0 .4 0 .7.3.7s.6-.3.6-.8c.1-.9.2-.9 1.7-.4 1.4.4 1.5.4 1-.2-.5-.8-.3-1 1.3-1.6 1-.3 4.6.4 5 1Zm-221-25c-.1.5-.5.4-1.5-.3-.6-.4-.6-.6-.3-.8.5-.4 1.8.5 1.8 1.1Zm202.7 23.6c1.9 1.6 1.9 1.6 1.3 2-.4.3-.3.4.5.5.6.1 1.5.6 2 1 1.3 1.3.6 1.9-1.9 1.5l-1.9-.2.9 1.2c.5.5.6.9.3.7-1.5-1-5.9-4.2-6.3-4.8-.8-1-.1-1.3 1-.6 3.5 2.7 3.6 2.7 3.7 1.9 0-.5.3-1 .5-1 .2-.1 0-.3-.5-.3-1.2-.2-4.1-2-4.2-2.7 0-.4.8-.6 2.5-.6.3 0 1.3.6 2.1 1.4Zm25.4 4.1c1 .7 1.5 1.4 1.4 1.5-.1.2-.9.2-1.6.1-.8 0-1.6 0-1.8.2a3 3 0 0 1-1.6.5c-1 .1-1.4 0-2-.8-.5-.7-.5-1-.1-1.5.2-.3.3-.7.2-1 0 0 .1-.2.4-.2.3 0 .5-.1.4-.4-.3-.9 2.8.2 4.7 1.6Zm-4.1-.5c.1.3.4.4.5.3 0-.1 0-.4-.3-.6-.4-.3-.5-.2-.2.3Zm24.3 4.9 2 1.7c1.3 1 1.1 1.5-.3 1a31 31 0 0 0-6-1.5 7.5 7.5 0 0 1-3.2-1.3l-.9-.7 1.2-.2c.7-.1 1.4 0 1.6.1.3.2.5 0 .6-.4 0-.6.3-.6 2-.2a7 7 0 0 1 3 1.5Zm66.5 7.8c5.7 1.3 26.7 4.2 31 4.3 2.6 0 4.8.4 7 1L387 89c3.8.6 10 2 11 2.8 1.6 1 6.2 2 10.6 2.4 2 .1 4.2.6 5 1 2 1 6.2 1.7 6.2 1.2 0-.3.3-.4.6-.2l2.5.7c3.8 1 12 3.8 12.5 4.3.4.4-.4.4-2.6 0l-9.4-1.6c-6-1-8-1.4-14.8-3.3-7.1-2-9-2.2-24.2-3.6-7.9-.8-12.3-1.7-12.9-2.7a95.7 95.7 0 0 0-24.4-3.2c-9.7 0-22.3-1.8-22-3.4 0-.2-.4-.5-.9-.6-.6 0-.7-.1-.1-.2.4 0 .8-.5.9-.9.3-1 1.6-1 6.7-.8h3.8l8.3 1.6ZM28.3 45.8h-.6c0-.2.2-.3.5-.2.3 0 .4.1.1.2Zm291.4 34.6c0 .1-.4.2-1 .1-.6 0-1-.3-1-.5.3-.4 1.8 0 2 .4Zm-25.3-2.6c-.2.6-2.2.7-2 .1 0-.5.6-.8 1.5-.7.4 0 .7.2.5.6Zm21.9 2.3c-.7 0-1.6-.1-2.2-.3h1.2c1.2.1 1.6.3 1 .3ZM22.5 46.8c.3.2.3.3-.1.1-.3 0-.6-.4-.6-.8s0-.5.1-.2l.6.9Zm283 32.8c3.8.6 5 1.4 2.2 1.5-2 .1-5.1 1-7.8 2-1.2.5-2 .5-2.9.1-1.5-.5-1.7-.8-1-1.6.3-.5.3-.6 0-.7-.4 0-.7.1-.8.4-.4.6-2.2.3-2.8-.5-.4-.6-.3-.7 1-.8 1.1-.1 1.9-.5 2.5-1.2.8-1 .9-1 3.5-.3l6 1.1ZM267 75.7c0 .3-.2.3-.5.2l-.4-.5c0-.1.2-.2.5-.1.2 0 .4.2.4.4Zm23 2.8c.5.4.9.8.9 1 0 .2-1.9.1-4-.2-3.5-.4-4-.5-3.7-1 .3-.3 1.3-.5 2.7-.4h2.6c.3 0 1 .3 1.5.6Zm-115.4-12h-.7c-.2-.2 0-.3.4-.2.4 0 .6.1.3.2Zm55.8 9.9c0 .5-.5.4-1.2-.3-.8-.7-.3-1.4.6-.7.4.4.7.8.6 1Zm28 4.2c1 .6 1 .6.1.8-.7.2-2.7-.2-4.2-.8a1 1 0 0 1-.5-1c0-.5.3-.6 1.8-.1 1 .2 2.3.7 2.8 1Zm21.2 6.3c0 .3-.2.5-.5.4-.4 0-.6-.3-.6-.5s.2-.4.5-.4c.2 0 .5.3.6.5Zm145.2 20.2c9.8 2.2 10.9 3.2 2.1 1.8-8-1.2-10.8-2-10.7-2.8 0-.5 2.2-.6 3.6-.2l5 1.2Zm55.4 12c-.2.2-.5.1-.6 0 0-.2.1-.3.4-.2.4 0 .5.1.2.3ZM265 107c1.3 1.2 1 1.7-.7.8-.6-.3-1.4-.5-1.9-.5-.5.1-1-.1-1.4-.6-.4-.6-.4-.8 0-1.1.7-.6 2.6.1 4 1.4Zm3.2-.5c.6.3 1 .7 1 1 0 .8-3.3-.3-4-1.5-.4-.6 1.6-.3 3 .5Zm89 11.6c.5.4.5.5 0 1-1 .8-9.6.1-9.4-.8 0-.9 1.8-1 4.3-.4 1.5.3 2 .3 1.6 0-.3-.5 0-.5 1.3-.4 1 .2 2 .4 2.2.6Zm-83.6-8.1c1.1.6 2.3 1 4 1 2.6 0 2.6.3.6 1.4-1.1.6-1.5.6-3.1 0l-2.8-1-2-1c-1.2-.4-1.2-1.2 0-.9.5.2.8 0 .9-.1 0-.6.6-.4 2.4.6Zm104.7 14c-.2.2-.5.1-.6 0 0-.2.1-.3.5-.2.3 0 .4.2.1.3Zm2.4.6c0 .2-.4.3-.8.2-.5 0-.7-.2-.6-.4.3-.5 1.4-.3 1.4.2Zm-366.9-42c-.3 1.8-1.4 2.3-2.3 1-.4-.6-.4-.7.8-1.4 1.7-1 1.8-1 1.5.4ZM389.1 126c4.3 1.3 4 1.8-.4 1-4-.7-4.7-.9-6.5-1.8-1.6-.8 3.4-.3 6.9.8Zm35.8 7c.3.7.2.8-1.4.3l-4.2-1c-1.4-.4-2.2-.7-2-1 0-.3 1.4-.2 3.7.3 2.7.5 3.6.8 3.9 1.4Zm3.2 1c-.2.2-.6.4-.9.4-.3 0-.6-.3-.5-.5 0-.3.4-.4.8-.4.5 0 .7.3.6.5Zm-144.6-15.1c-.4.5-3.8.5-3.8 0 0-.2.3-.5.5-.6.6-.3 3.6.3 3.3.6Zm34.4 4.4c-.1.8-1 .9-2.5.3l-1.4-.5h1.7l2-.2.2.4Zm-80.4-9c.5.5.3.6-2.2 1-1.3.3-1.8.2-2.4-.4-.6-.5-.7-.8-.3-.9 1.5-.5 4.4-.4 5 .3Zm205.2 24.6c2.7.8 3.4 1.4 2.4 1.8-.3 0-2-.3-3.9-1l-4.8-1.2c-1 0-1.6-.4-1.8-.9-.3-.7 0-.7 2.4-.2l5.7 1.5Zm21.8 2.4c-.1.8-.3.8-1.8.6-3.5-.7-3.6-2 0-1.6 1.6.2 1.8.3 1.8 1Zm4 .2c-.7.3-1.1.2-1.3-.2-.2-.4 0-.5 1-.3l1.4.2-1 .3Zm-182.9-20.9c.2 1 0 1.2-1 .7-.9-.4-1-1-.1-1.2 1-.2 1-.2 1.1.5Zm60.2 7.2 3.1.5c2.2.2 3 .4 3.2 1 .3.7-.2.6-5.2-.2a22.7 22.7 0 0 1-8-2.3c0 .1-.6 0-1-.3-.6-.3.7-.2 3.4.3 2.3.4 4.4.8 4.5 1Zm-33-3.5h-1.1c-.6 0-1.1-.3-1-.4 0-.2.4-.3 1 0 .6 0 1 .3 1 .4Zm55.8 6.6a16 16 0 0 1-2.9-.3c-.8-.2-.1-.2 1.5 0s2.3.3 1.4.3Zm-34-3.5c-.1.2-1.3.4-2.5.4-1.9 0-2.3-.2-2.2-.7 0-.5.6-.6 2.6-.3 1.6.2 2.4.4 2.2.6ZM242.2 117c.3.3.2.5-.3 1-.7.8-1.2.7-3-.8-.8-.7-1-.7-1.5-.1-.4.4-.8.4-1 .1-.4-.3-.4-.4 0-.5l1-.4c.8-.2 4.5.3 4.8.7Zm78.2 9.2c0 .3-.3.4-.7.4-.3 0-.5-.3-.4-.5l.7-.4c.3 0 .5.3.4.5Zm61.4 7.9c.3.4-2.6-.1-3-.6-.3-.4 0-.4 1.2-.1a5 5 0 0 1 1.8.7Zm-70.1-7.5a50.2 50.2 0 0 1 3 1.1l-.4.4c-.7.5-5.8 0-6.4-.8l-.6-.6.7-.4c.9-.5 1.3-.5 3.7.3Zm-32.4-2.1c1.6 1.4 1.7 1.4.8 1.5a4 4 0 0 1-2-.6c-.5-.4-1.6-1-2.3-1.3-.6-.4-1.1-.8-1-1 .5-.8 2.8 0 4.5 1.4ZM8 94.5c.3.6.2.9-.5 1.5-.8.7-1.9.6-3.7-.2l-.7-.3.8-.6c.8-.6 2.2-1.1 3.3-1 .3 0 .6.3.8.6Zm20.5 7c0 .3-.6.4-1 .3-.7 0-.7-.1-.2-.2l1-.5c.4-.5.6-.1.2.5ZM458.8 152c0 .4-.4.5-1.5.3-1.5-.1-1.9-.5-1.3-1.2.4-.4 2.7.3 2.8.9ZM35.4 106.9c0 1-2.2 3.3-2.6 3-.2-.2-.6 0-.8.1-.5.6-3 .2-3-.4 0-.2-.3-.5-.5-.5-.6 0-.4-1.6.3-2.8.6-1 .8-1 3.7-.6 2.6.4 3 .5 3 1.2Zm249.5 41c.1.7-1.3 1.7-2.2 1.6-.7 0-.8-.2-.2-1.4.5-.8 2.1-1 2.4-.1Zm37 5.5c0 .3-.4.5-.9.5-.6 0-.8-.1-.7-.6 0-.6.3-.7.9-.5.4.1.8.4.8.6Zm-30-2.4c.3.7-1.5 1.7-2.6 1.6-.6 0-1.5-.4-2.1-.8-1-.6-1-.7-.4-1.2.7-.6 5-.3 5.2.4Zm174.5 29.8c-.6.2-1.4.1-2-.2-.8-.5-.7-.5 1-.3 1.8.2 2 .3 1 .5Zm14.5 3.4c0 .3-.3.4-.6.4a1 1 0 0 1-.8-.5c0-.3.2-.4.7-.4.4 0 .8.3.7.5Zm-214.5-10.7c1 .5.7 1.2-.4.8-1.2-.5-1.8-1.4-.9-1.3.3 0 .9.3 1.3.5Zm-49-4.7c0 .2-.2.4-.5.3h-.7l-.3-.5c0-.3.3-.4.8-.4.4 0 .8.3.7.6Zm273.6 33c.5 1 2.4 1.2 2.5.4 0-.7 1.6-.3 3.2 1 .6.3 1.1.6 1.3.4.2 0 .3 0 .3.3 0 .2.1.5.4.5.2 0 .4.4.3 1 0 1 0 1-7.3.1-4.3-.4-4.7-.7-3.4-2 .5-.4.7-.5.8 0 0 .2.1.1.2-.3 0-.4-.1-.8-.4-.8-.2 0-.4-.5-.3-1 0-.8.2-.8 1-.5.6.3 1.2.7 1.4 1Zm-168.5-18.2c.9.4.5 1-.6 1-.4 0-1.5 0-2.4.4-4.1 1.2-11.2-.6-7.4-2 1.3-.5 3.6-.2 5 .6 1.3.8 3 .9 3.6.2.6-.7.9-.7 1.8-.2Zm33.5 4.1c-.8.6-10.4-.1-10-.7.6-.6 1.8-.6 6.5-.1 3 .3 4 .5 3.5.8Zm-63.6-7.1c.4.2.6.5.4.6-.2.1-.8 0-1.5-.5-.9-.5-1-.6-.4-.6a5 5 0 0 1 1.5.5ZM43.2 152.3c.2 0 .1.4 0 .9-.2.6-.1.8.3.9.3 0 .9.5 1.3 1 .3.5.8 1 1 1 .2 0 .4.2.3.4 0 .2.3.7.7 1 .4.4.7 1 .6 1.3 0 .6 1.5 1.7 2.7 1.8.6 0 .8.3.8 1-.2 1-1 1.4-1.6.6-.3-.5-.5-.5-.6-.1-.1.3-.5.5-1 .4-.4 0-.7-.3-.7-.6v-2.1c0-.5-.4-.7-1.8-1-1.5-.3-2-.5-2.5-1.4l-1-1.7c-.5-.8-.3-1.8.5-2.1.6-.3.6-.4.2-.7-.3-.1-.4-.5-.4-.8 0-.3.3-.3.5-.2l.7.4Zm441.2 51.6c1.2.9-.1 1-4.6.5-3.2-.4-4.9-.7-4.9-1 0-.3.9-.4 2-.2 1.2.2 2.2.2 2.3 0 .3-.2 4.5.2 5.2.7ZM264.9 179c0 .2-.7.6-1.4 1-.7.3-2 1.4-3 2.3-1.8 1.9-2.2 2-3 1.2-.6-.5-.6-.6.2-1.7.7-1 1-1.2 2.2-1 1.3 0 1.4 0 .9-.6-.5-.7-.5-.7.3-1l1.3-.5c.8-.3 2.5-.1 2.5.3Zm73 9.5c.7.2.7.2.1.5-.9.4-9.8-.6-10.3-1.2-.3-.4.1-.5 1.3-.3h3.3c.8 0 2.3.1 3.2.4l2.4.6Zm33.4 3.4-.8-.1c-.2-.2 0-.3.4-.2.5 0 .6.2.4.3Zm14.1 1.6c1 .4 1 .5.7 1.5l-.4 1.1c.7.9 1.7 1.2 5 1.4 2 .1 3.9.2 4.1 0 .8-.1.2-.7-1.3-1.2-.8-.2 2.6 0 7.5.6 5.8.6 8.7 1 8.6 1.4-.1.2-.6.2-1 0-.3-.2-1 0-1.7.5-.6.4-1.3.6-1.5.5-.2-.2-.5 0-.7.2-.2.4 0 .5.8.3.8 0 1 0 .5.3-.3.2-1 .1-1.8-.1-1-.4-1.2-.5-.6-.7.4-.2.8-.6.8-.9 0-.4 0-.4-.2 0-.1.3-.5.5-.8.5-.3 0-.6.1-.7.4-.1.3-1.1.4-2.5.3l-4.5-.1a38 38 0 0 1-13.4-1.5c-1-.7-1.1-.7-1.6-.2-.3.6-1 .5-4 0a126 126 0 0 0-19.5-2.1c-4 0-5.5-.3-4.7-1.3.4-.3 1.6-.5 3.5-.4h3c.1-.2-.3-.4-.9-.6-1-.4-1.4-1.1-.6-1.2a26 26 0 0 1 10.1.8c4 .5 4.7.5 5.3-.4.6-.7 1-.7 6-.1 3 .3 6 .8 6.5 1Zm-103.3-11c.2.8-.7 1.2-1.7.8-1.1-.5-1.4-.8-1-1.2.2-.6 2.5-.2 2.7.4Zm-8.6.2c1.1 0 4.5 1.5 5.3 2.2.6.7.4.7-1.9.2a16.6 16.6 0 0 1-5.1-1.9c-.6-.2-.8-.6-.8-1.2.1-.8.2-.8 1-.1a3 3 0 0 0 1.5.8Zm19 2.4c1.2 1 1.4 1.3 1.2 2-.2 1-.1 1 .6.6 1-.4 3.5 0 4 .6.1.3.4.5.5.4.7-.1 1.6.8 1.5 1.7 0 .8-.2.8-1.7.3-.8-.2-1.9-.7-2.3-1l-1-.5h-2.4c-1 0-2.1.2-2.3.4-.6.6-1.9.3-1.6-.4.4-.8-.6-2.3-1.2-1.8-.8.8-5 .2-6.7-.9l-1.3-.8 1.2.4 2.2.7c.7.3 1 .2 1.8-.7 1-1.5 3.8-2.8 5-2.4a9 9 0 0 1 2.4 1.4Zm15.2.8c-.6.6-2.6 1-4.3.8-2-.3-2.5-.6-1.9-1.4.3-.3 1.4-.3 3.5 0 1.6.2 2.9.5 2.7.6Zm124.5 14.6c.8.2 1.2.5 1 .5a2 2 0 0 1-.8 0c-.1 0-.2.2-.2.5s-.2.5-.4.4c-.2-.1-.3.2-.4.8 0 1-.1 1-2.3.9-2.2-.2-2.3-.2-2-1 .2-.8.2-1-.2-.8-.3.1-.4 0-.3-.2.4-.5-.5-1.5-1.7-2-1.3-.6 5.4.3 7.3 1Zm-3.7 2c.2.2.5.2.8.1.2 0 0-.2-.4-.2s-.6 0-.4.1ZM229 177h-.6c0-.2.1-.3.4-.3.4.1.4.2.2.3Zm38 4.9c.3.5-.6 1-1.7.9-1.2-.2-1.6-1.3-.5-1.6.6-.1 2 .3 2.2.7Zm167.7 19.4c-.1.5-.8 1-1 .6-.1-.3.3-1.1.7-1 .2 0 .3.2.3.4Zm3.4.9c-.1.2 0 .4 0 .4.3 0 .5-.2.6-.5.1-.4.3-.3.7.4.2.5.5.7.6.4.2-.5 1.3 0 1.3.6 0 .2-.6.3-1.3.2a5 5 0 0 0-1.8 0c-.3.2-.5.2-.3 0 .3-.5-.2-1.7-.7-1.4-.2.2-.2 0 0-.2.1-.3.5-.4.7-.4.3 0 .4.2.2.5Zm10.6 1.2c.8 0 1.6.4 1.8.7.8.8-.4 1.2-2.4.8l-3.6-.7c-1-.2-1.8-.5-1.9-.7 0-.2-.2-.3-.4-.2-.2.1-.2 0 0-.4.1-.5.7-.6 2.7-.2l3.8.7Zm24.2 4c1.8.5 3.8 1.8 3.4 2.2-.1.1-2.1-.3-4.5-.9-3.4-.8-4.1-1.1-4-1.6.4-.9 1.5-1.2 2.6-.7l2.5 1Zm-63.1-7.4c1.2.6.6 1.1-1 .7l-1.9-.4s-.2-.3-.1-.5c0-.5 2-.4 3 .2Zm72.3 8.5-1.1-.1c-.3-.2 0-.2.5-.2.6.1.9.2.6.3Zm-46.8-4.5c-.1 1-1.2 1.2-1.5.3 0-.2.2-.2.5 0 .4.1.6 0 .7-.5 0-.4.1-.7.2-.7v1Zm-109.7-12.4c.1.3-.9.3-2.4.1-2.4-.3-2.5-.3-1.6-.8 1-.5 3.5 0 4 .7Zm22.1 2.8c-3 2-3.3 2-6 1.7-1.6-.2-2.5-.6-2.6-1 0-.3-.9-.5-2.9-.7-3.3-.3-4-.6-2.6-1.2 1.3-.6 3.7-.6 3.7 0 0 .2 1 .8 2 1.2 1.8.6 2.2.6 3 .1 1.4-1 2.7-1.4 4.7-1.2l2 .2-1.3.9Zm73.5 7.8c-.2.1-.6 0-.8 0-.2-.2 0-.3.5-.2.4 0 .5.1.3.2Zm3.3.6c0 .2-.5.3-1 .2-.9 0-1-.1-.4-.4 1-.4 1.5-.4 1.4.2Zm2.2.1c0 .2-.5.4-1 .4s-1-.3-.9-.5c0-.2.5-.4 1-.3.5 0 .9.2.9.4Zm6.3.9c0 .2-.2.4-.6.3-.6 0-.6-.1-.2-.4.6-.5.6-.5.8 0Zm-116.5-13h-.6c0-.2.2-.3.5-.2.3 0 .4.1.1.2Zm122.6 14.9h-.8c-.6-.2-1-.5-1-.7 0-.3 1.5.2 1.8.7ZM244.5 183c0 .7 2.3 1 2.4.3 0-.3.5-.4 1.1-.4 1.4.2 1.3.6 0 1.4l-2 1.5c-1 1.2-2.6.6-3-1.2-.3-.8-.4-1.7-.3-2 .4-.5 1.7-.3 1.8.4Zm22.8 2.4c-.3.1-.5 0-.6-.1-.1-.2.1-.2.4-.2.4 0 .4.2.2.3Zm43.6 5.1h-.5c-.1-.2 0-.3.4-.3.3.1.4.2.1.3Zm143.9 18.1c1 1 1.3 1 2 .2.7-.6.7-.6.4.1-.2.6-.1.7.1.5.2-.1.4 0 .4.2-.1.6-1.3.7-3.3.3-4-1-5.3-1.6-4.1-2 1-.5 3.6 0 4.5.7Zm17.6 2.1c1.6.5 2.2 1.2 2.2 2.7 0 1.2-1 1.2-2.5 0-.9-.6-1.6-.8-1.8-.6-1.2 1-3.6.5-5-1.2l-.7-.8.7-.4c.4-.3.7-.6.6-.7-.1-.3 4 .4 6.5 1Zm-221.3-25.4c.1.5.5 1 .9 1.2.4.2.4.3-.2.3-.5 0-1-.4-1.2-.7-.2-.3-.3-.4-.2 0 0 .3-.2.5-.7.6l-1.8.3-1 .3.9-1c.8-.8 2.3-1.9 2.8-1.8l.5.8Zm59 7.3c-.2.1-.6 0-.8 0-.2-.2 0-.3.4-.2.5 0 .6.1.4.2Zm167.2 20c-.3.5-2.3 0-2.6-.6-.2-.3.3-.3 1.3-.1.8.2 1.4.5 1.3.7ZM297 191.8c-.2.3-1.4.5-2.7.4-2 0-2.2-.1-1.6-.7.9-.7 5-.4 4.3.3Zm-76.6-7.5.7.6-1.3 1c-1.4 1-2.3 1.2-3.5.6-.6-.4-.6-.4 0-1 1.8-2 3-2.4 4.1-1.2Zm223.7 31.1 7.3 2c.6 0 .6.2.2.5-.6.5-12.6-1.4-14-2.2-1.3-.7-1.9-1-4.6-1.6-1.4-.3-2.6-.7-2.7-.8a138 138 0 0 1 13.8 2.1Zm-173.5-20c.5 0 .5 0 0 .4-.7.4-1.6 0-1.5-.8 0-.2.3-.3.5 0l1 .3ZM333 203c.1.2 3.2.8 6.8 1.2 3.7.5 6.9 1 7.2 1.2.3.2.7.1.8-.1.2-.4 1.3-.3 4.5.4 2.3.6 4.6 1 5 1 .7.1.7.1.3-.5-.4-.6-.4-.7 0-.9.6-.2 10.3 1.3 12.4 2 1.3.3 1.3.4.7.9a12 12 0 0 1-6 1.5c-9.5-.2-17.6-.9-20.5-1.8a49.2 49.2 0 0 0-15.6-2.1c-5.1.6-18-.3-20-1.5-1.6-1-3.5-1.2-6.4-.5-1.4.4-2.9.6-3.3.5-1-.4-.9-1.3.2-1.5l2-.4c2.4-.6 5.4-.4 7.3.6 2.6 1.3 7.2 2.1 9.2 1.5a8 8 0 0 1 2.2-.3c.4 0 .7-.2.8-.4.1-.3 2.5-.5 5.3-.2.7 0 1.5-.3 2.1-1 1-.9 1.2-1 2.9-.4 1 .2 2 .6 2 .8Zm61.3 7.3 6.3 1.2c2.8.4 4 1.2 1.3 1-1.2-.1-2.3-.2-2.7-.1-2 .3-14.5-1.7-23.5-4h3.6c4.7 0 9 .5 15 1.9Zm-96.7-9.8h-.6c0-.2.1-.3.5-.3.3.1.4.2.1.3Zm-.8 1.5c-.2 1-1 1.5-2.2 1.4l-1.3-.2 1.1-1c1.1-1 2.5-1.1 2.4-.2Zm168.4 20c-.3 0-.7 0-1-.2-.1-.1.1-.2.6-.1.5 0 .7.2.4.3Zm3.6 1c.2 0 .3.2.2.4-.2.4-1.7-.2-1.6-.7 0-.2.2-.3.5-.1.2.2.6.3.9.4Zm-250.4-28.1c.6.7.1 1-1.5.9-.9-.1-1.5-.4-1.5-.7-.1-.8 2.3-1 3-.2Zm2.9.8c0 .2.3.4.5.2.1 0 .7 0 1.2.2 1 .5 1 .5.2.7-1 .3-3.2.2-3.1-.1l.3-.9c.3-.7.7-.8.9-.1Zm250.5 31.5c0 .2.7.6 1.4.8.7.2 1.3.5 1.5.7.4.4.4 2 0 2.1-1 .5-7-2.3-7-3.1 0-.2-.2-.6-.6-.8-.6-.3-.4-.4.8-.7 1.5-.3 3.6.2 3.9 1Zm-245.4-28.9c0 .1-.2.2-.5.1a.4.4 0 0 1-.4-.4c0-.3.3-.3.5-.2.3.2.4.4.4.5Zm195 24.8c0 .3-.1.3-.4.2-.5-.4-.5-.7-.1-.7.2 0 .4.3.4.5Zm12 1.5-2.1.1c-3.2 0-9.3-1-9.2-1.5 0-.3 10.3 1 11.4 1.4Zm-203-23c0 .2-.3.4-.5.4-.3 0-.4-.3-.3-.5.2-.2.4-.4.6-.4l.2.5Zm247.2 30.1c-.2 1.4.2 2.5 1.1 2.6.5 0 1.1.3 1.4.6.5.3.3.4-.7.3-.6 0-1.4-.4-1.7-.8-.3-.4-.8-.8-1-.8-.3 0-.7-.5-1-1-.4-.8-.4-1 0-1.6.7-.9 2.1-.4 2 .7Zm-274.9-32.6c-.2.1-.5 0-.6-.1 0-.2.1-.2.4-.2.4 0 .5.2.2.3Zm25 3.9c0 .6-.8 1.3-1.4 1.2-.5 0-.7-1-.2-1.5.4-.4 1.7-.1 1.7.3Zm50.7 6.4c1 .5.9 1 0 1.6-.5.2-1.1.7-1.5 1.1-.5.6-1 .6-1.8.3-3-1.1-3.5-2.6-1-2.5 1 0 1.5-.1 1.5-.6.1-.7 1.5-.6 2.8.1Zm-80.6-8.5c-1.5.8-2.6.5-2.5-.6 0-.5.5-.5 2-.3l2 .2-1.5.7Zm34.9 4.4c-.8 2.3-1 2.6-1.2 2.6-.4 0-.1-1.6.4-2.6.6-1 1.1-1 .8 0Zm161.6 18.4-.7.3c-.3 0-.6 0-.6-.3 0-.2.4-.3.7-.3.3 0 .6.2.6.3Zm-94.7-9.8c0 .2-.7.7-1.5 1-1.2.4-1.6.4-2.8-.2-1.8-1-1.9-2 0-2s4.3.7 4.3 1.2ZM195 202.3c-.7.5-2 .4-1.8-.2 0-.2.5-.4 1.2-.3.8.1 1 .2.6.5Zm5.4 1.5-.5 1c-.4.6-.6.6-.7.3-.2-.8-1-.8-1.1 0 0 .7-.8 1-2.2.9-1-.2-1.2-.4-.6-1.4.5-.8 5.2-1.6 5.1-.8Zm16.8 4.4c1 1 1.6 1 1 .1-.7-.9-.4-.8 1 .2 1.2 1 1.8 1 1.9.2 0-.5.3-.6.7-.4l1.2.4c1 .1.5.8-.6 1-2 .2-3.2.6-3.2 1 .3 1-1.5 1.4-4 .9-2.7-.6-3.3-.4-5.7 1.5-3 2.4-12.2 5-12.6 3.6l.1-.5c.1 0 .9-.4 1.6-1 1.5-1 1.2-1-1.7 0-1.6.4-2 .4-2.8-.2-1-.8-1-1.2 0-2 .7-.8 3.2-1.7 3.6-1.3.1.2 1.1.2 7-.3 7-.5 8-.8 5.9-1.9-.5-.2-1-.8-1-1.1 0-.6.6-.8 2.5-1.1 2.7-.5 3.7-.3 5 1Zm-28.2-1.7c0 .5.5.5 1.8.3l2 .1c0 .4-3.4 2.3-4.1 2.2-.4 0-1-.3-1.6-.5-.8-.3-.8-.4-.4-1.2.7-1.5 2.1-2 2.3-.9Zm6.5 2.5c0 .2-.4.4-.7.3-.4 0-.5-.2-.4-.4.1-.3.4-.4.7-.4.2 0 .4.2.4.5ZM94.8 199c0 .2-.2.3-.3.3-.2 0-.4-.2-.5-.5 0-.2.1-.4.4-.4.2 0 .4.3.4.5Zm86.8 11.8c.1.6.2 1.2 0 1.3-.3.4-2.5 0-2.4-.4l.3-1c.1-.5 0-.8-.6-1-.8-.2-1-.6-.6-1 0-.2.8 0 1.6.4 1.1.4 1.6.9 1.7 1.7Zm4.8-1.2c0 .8-1 1.3-1.6 1-.9-.5-.3-1.6.8-1.5.5.1.9.3.8.5ZM66 197.6c.9.6.8.8-.3.7-1.3-.2-1.7-.4-1.6-1 .1-.8.5-.7 1.9.2Zm12.5 2.4-.6-.1c0-.2.1-.3.5-.2.3 0 .4.2.1.3Zm21.4 3.3c.5 1-2.9 1-5.4.2-1.2-.5-1.4-1-.5-1.3.8-.1 5.7.8 5.9 1.1Zm19 2.3-1-.1c-.1-.2.1-.2.6-.2.5.1.7.2.4.3Zm63.6 8.3c0 .7-.5.7-1.3 0-.6-.6-.6-.6 0-.9.8-.3 1.4.1 1.3.9Zm-49-6.1c.8.3 1.2.7 1.1 1.1 0 .5-.6.6-2.9.3-1.5-.1-3-.2-3 0-.2.2-1 .2-1.7.1-1.1-.1-1.3-.3-1.1-.9.1-.5.4-.7 1.1-.5.6.2 1.2 0 1.6-.3.6-.7 2.8-.6 4.9.2Zm-18-1.3h-.6c0-.3.1-.3.4-.3.4 0 .4.2.2.3Zm5.1.7c0 .6-1.8 1.1-2.5.8-.7-.4-.8-1-.1-1.2.7-.3 2.7 0 2.6.4Zm60.2 7.3.7.7-1.4.8c-.8.4-1.7.7-1.9.6-.5 0-.4-1 .2-2.2.5-1 1.3-.9 2.4.1Zm-24.3-.8c1.3 1.2 2 1.5 2.4 1.2.3-.1 1.1-.3 1.8-.2 1 0 1.1.1 1 1-.2 2-1.9 4-2.3 2.7-.1-.2-.6-.5-1-.5a2 2 0 0 1-1.3-.9c-.2-.4-.7-.7-1-.7a3 3 0 0 1-1.4-.6l-1.2-.8c-.2-.2-.3-.9-.2-1.6.2-1.7.8-1.6 3.2.4Zm7.7 2.2c0 .6-.7.9-.8.4-.1-.4.2-1 .6-.9.1 0 .2.2.2.5Zm9.4 1c.7.5.4 1-.6 1a3 3 0 0 0-1.6.2c-.5.3-.6.2-.6-.2.2-1.4 1.6-2 2.8-1Zm-85-8.2c0 .3-2.3 1.6-2.3 1.3l.5-1c.4-.8 2-1 1.9-.3Zm5.5 1.2c0 .2-.2.4-.3.4-.2 0-.3-.3-.3-.5 0-.3-.1-.4-.3-.2-.3.2-.3 0-.1-.2.3-.5 1.1 0 1 .5Zm-4.5-.7c-.2.1-.5 0-.6-.1 0-.2.1-.2.4-.2.4 0 .5.2.2.3Zm83 9.9c0 .2-.3.4-.6.3-.5 0-.5 0 0-.4.6-.5.6-.4.6 0Zm18.8 2.5c2 .7 2.3.9 2.2 1.7 0 .4-.4.9-.8 1-1 .2-4.7-2-4.6-2.8 0-.7.7-1 1.6-.6l1.6.7Zm-63.2-7.4-.5.8c-.5.5-1 0-.6-.7.2-.4 1.2-.4 1.1 0Zm-53-5.2c0 .3-.2.3-.3.2l-.3-.5.4-.2.2.5Zm120.6 16.3c-.3 1-1.2.8-1-.2l-.1-.8c-.2 0-.3-.2-.3-.4 0-.3.4-.2.8.1.4.4.7 1 .6 1.3Zm-106.6-13c-.1.8-1.9 1-2.6.5l-.7-.5 1-.2 1.3-.4c.3-.3 1 .2 1 .7Zm5.5 2.6c.5.8.3 1.6-.5 1.8-.7.3-1.4-.6-1.3-1.7.1-1 1.3-1 1.8-.1Zm110.7 12.9c-.2.2-.4.4-.6.4-.2 0-.2-.3 0-.5 0-.2.3-.4.5-.4s.2.3 0 .5ZM88.5 215.4c0 .2-.3.4-.7.4-.3 0-.6-.3-.7-.6 0-.2.2-.4.7-.3.4 0 .7.3.7.5Zm2.9.2-.8-.1c-.2-.2 0-.2.4-.2s.6.2.4.3Zm109.2 15.1c.1.2-.2.5-.6.6-1 .3-1.2.2-1-.5 0-.7 1.4-.8 1.6 0Zm-3.7.5c0 .7-3 2.1-3.5 1.6-.1-.2-.6-.1-1 0-1.3.5-1.4-.3-.2-1 .6-.3 1.3-.6 1.7-.5.3 0 .9-.2 1.2-.6.7-.7 1.8-.4 1.8.5Zm9.9 1.7c0 .2-.6.3-1.3.2-.7 0-1.2-.3-1.2-.5 0-.3.6-.3 1.3-.2.7 0 1.2.3 1.2.5Zm-41.3-3.8c2 1.3 3.4 2.5 3.4 2.8-.2 1.2-2.9.8-4.4-.6-1.8-1.6-2-2-1.5-2.6.6-.7 1-.6 2.5.4Zm-18 1c.4.2.6.6.6.8 0 .3.2 1.1.6 1.8.7 1.5.7 2.2 0 2.1-.7 0-1.3-1.2-1-1.6.2-.1 0-.4-.4-.6a4 4 0 0 1-1-1.6c-.3-1.5-.1-1.6 1.2-1Zm13.3 7.7c.2.5-1 2.3-1.5 2.2-.3 0-.9-1.3-.8-2 0-.2.8-.4 1.8-.4.2 0 .4 0 .5.2Zm2.6 2.1c1.1 1 1.2 1.3.4 2-.3.3-.8.3-1.5-.1-.6-.3-1.1-.5-1.2-.4 0 0-.3-.2-.5-.6-.2-.6-.2-.7.4-.9.4 0 .7-.3.8-.5 0-.6.5-.4 1.6.5ZM3.6 23.2c-.1.5 0 1 .3 1.1.3.2.1.2-.3 0-.5 0-.9 0-.9.3 0 .2-.4.2-1 0-.5-.2-.8-.1-1 .4-.2.3-.2.9 0 1.1.4.8 1.3 1 1.6.3.1-.4.5-.6.9-.6.3 0 .6-.1.5-.4 0-.2 0-.4.3-.4 1 0 1.1 0 1.4-.4.3-.3-.8-2.1-1.4-2.2-.1 0-.3.3-.4.8Zm4 89.5c-.3.6-.3.6 0 .2.3-.2.4-.6.4-.7-.1-.2-.3 0-.5.5Zm500 75-.7.3.8.9c.7.8.8.8 1.9.3.6-.3 1-.8 1-1-.2-.6-1.7-.8-3-.4Zm-.4 14.2a2 2 0 0 1-1.2.3c-.5 0-.6.1-.6.8l.1 1.2c.2.3 2.9-1.5 2.8-2 0-.6-.5-.7-1-.3Zm11.3 9.6c-.3 1 .2 2 .8 1.4.5-.6.7-2 .2-2-.1-.1-.3.2-.2.7 0 .7 0 .7-.2 0-.4-.9-.4-.9-.6-.1ZM27.6 158.3c-.3.6-.3.8 0 .8s.5-.3.6-.7v-.8l-.6.7Zm469 59.6c.1.3.3.5.4.3.2 0 0-.3-.3-.5-.4-.3-.4-.3-.2.2Zm15.6 9.6c-.4 0-1 .5-1.6.9-.5.4-1.1.7-1.4.6-.2 0-.6.2-.9.6-.2.3-.7.6-1 .5-.4 0-.6 0-.5.2 0 .2 1 .2 2 .2s1.6-.2 1.4-.4c-.5-.3-.3-1 .2-1 .3 0 .5 0 .5-.3s.4-.4.8-.4c1 .1 2.1-.2 2-.7-.2-.4-.5-.4-1.5-.2Zm-3.4 5.9c-1.2 0-2.2 0-2.3.2-.2.2-.2.7 0 1.2.3 1.2 2 2.1 2.5 1.4.3-.3.5-.6.4-.7l.8-1 .8-1-2.2-.1Zm11.4 5.6-1.9.8c-1.5.5-1.7.7-1.8 1.8-.2 1 0 1.3.8 1.7 1.3.6 2.6.4 2.5-.4 0-.3.5-1.2 1.3-2a12 12 0 0 0 1.4-1.7c0-.3-2-.5-2.3-.2Zm-260.1-29c-.6.2-1.2.5-1.3.7l-.8.2c-.4 0-.4 0 0-.4.3-.2.4-.4.2-.4-.4 0-1.7 1.5-2 2.5-.4.8 0 1 .5.2.4-.6 1.8-1.6 2.3-1.6l1.5-.5c1.4-.6 1-1.2-.4-.7ZM47 187.8c-.2.4-.4.8-.3 1 .2.3 1.5-.5 1.6-1 0-.7-.7-.7-1.3 0ZM262.4 215c-1.6.1-1.5.9 0 1 .8.1 1.4.5 1.6 1 .2.6.3.6 1.1-.1.5-.4.8-1 .7-1.1-.2-.5-1.9-.8-3.4-.8Zm251 30.3c0 .4-.2.6-.3.5 0-.2-.4 0-.7.5-.4.5-.7.7-1.1.5-.5-.3-.6-.1-.7 1.6-.2 2 .1 3.5.3 1.8 0-.6.6-1.4 1.3-2 .7-.6 1.2-1.2 1.1-1.4 0-.2.2-.5.6-.6.8-.2 1-1.4.2-1.5-.4 0-.7.2-.7.6ZM44.2 191.7c0 .2.3.8.8 1.3.4.5.8 1.2.7 1.6 0 .6.2.7 1.9.7 3.2 0 3.6-1.4.6-2-.8-.2-1.6-.7-1.8-1.1-.6-.9-2.1-1.2-2.2-.5Zm223.6 26.8c-.7.4-.8.5-.4.8.3.2 1.1.3 1.9.3a4 4 0 0 1 2.2.4c.7.5.9.4 1-.3 0-.5 0-.8-.4-.9l-2-.4c-1-.3-1.8-.3-2.3 0ZM439 241.3c-.5.4-.6.6-.4.8.3.2 0 .2-.6 0-.6-.1-1 0-1 .3s-.3.6-.6.7c-.3 0 0 .2.9.3.8 0 1.4 0 1.3-.2 0-.2 0-.3.3 0 .3 0 .4.4.4.7 0 .2.3.3.8.2.5-.1.7 0 .7.4s0 .4.4 0c.5-.6 1.3-.5 1 .1-.2.3-.1.4.3.3.4 0 .8.2 1 .7.3 1 0 1.2-2.1 1.1-1.3 0-1.8 0-1.8.5-.1.6 1.5 2 2 1.8l1.8.7c.8.5 1.3.8 1 .8-.3 0-.6.1-.6.3 0 .2.9.6 2 .7 2.8.5 4 .9 5 1.7a9 9 0 0 0 2.7 1.3c2.3.6 3 1.2 2 2l-.6.6c0 .1.8.2 1.8.2 2.4 0 5.6.9 6.7 1.9 1 .9 3 1.6 2.8.9-.1-.4 1.3-.1 3.6.7.5.2.5 0-.4-.7-.5-.6-1-1.2-1-1.4 0-.3.8-.5 1.7-.6 1.7 0 1.8-.4.2-1.3-.6-.3-1-.8-1-1 .1-.4-.4-.6-1.5-.8a5 5 0 0 1-2.8-1c-.6-.3-1.7-.9-2.6-1.2a43.8 43.8 0 0 1-6-2.6c0-.3-.7-.6-1.2-.8a23 23 0 0 1-6.4-2.4c-.5-.5-.5-.5 0-1 1-.5 5.5.3 7.5 1.3l5 2.1a58.8 58.8 0 0 1 6.3 3l-1.7-2.2a8.7 8.7 0 0 0-2.5-2.3c-1-.1-4.2-2-5-3a6 6 0 0 0-2.4-1.1l-3.5-1c-3.4-.9-12.7-2-13.5-1.5Zm54.8 8.4v.8c-.1.2 0 .3.3.3.2 0 .4.3.5.6.2.3.3.3.5 0l1-1c.8-.6.8-.6-.7-.9-.9-.1-1.6 0-1.6.2Zm-167-17.1c-.4.5-1.8.7-3.8.7-.5 0-1.8 1.3-2 2 0 .3.3.6.7.7 1 .1 3.3.9 6 2a52.4 52.4 0 0 0 16.1 1.3c2 0 3.2-.3 3-.8 0-.3 0-.3.3 0 .4.6.5.6.9.2.3-.3.8-.4 1.4-.3l.9.3-.6-1c-.6-1-2.5-1.3-3.4-.7-.2.2-.5.1-.7 0-.2-.3-1.6-.6-3-.8-1.6-.2-3-.6-3.2-.8-.5-.6-5.9-1.4-6-1 0 .3-.2.2-.4-.3-.3-.5-.7-.7-1.3-.6-.4 0-1.2-.2-1.6-.6-1-1-2.6-1.1-3.3-.3ZM437.6 246c-.6.2-.7 1.8-.2 1.8.2 0 .5-.4.6-1v-1l-.4.2Zm-82.9-9.4-1.7.2c-.9 0-2 .2-2.3.3-.8.3-.8.4.4 1.2 1.2 1 2.5 1.2 5.1 1 1.6 0 2.4-.7 1.1-.8-.3 0-.6-.3-.7-.6 0-.2 0-.4.3-.4s.3 0 0-.4c-.4-.5-1.9-.8-2.2-.5Zm64.5 8.3c0 .7 0 .8.7.4.5-.3.6-.5.3-.8-.6-.7-.8-.6-1 .4Zm5 0c0 .3.2.5.4.6.3 0 .5-.2.4-.4-.1-.3-.3-.5-.4-.5-.2 0-.4.1-.4.4Zm2.7.3c-.8.2-.7.8.1 1.1.4.2.8.1.8 0 0-.2 1.2-.2 2.6 0 2 .3 2.5.2 2.4-.2-.3-.5-4.7-1.2-5.9-1Zm8.6 1c-.8 0-1.4 1.3-.7 1.4.2 0 .3-.2.2-.5 0-.2.1-.4.4-.4.2 0 .5.3.6.5 0 .3.2.5.4.5s.3-.1 0-.6c0-.3-.1-.7 0-.8.2-.2.2-.3.1-.3l-1 .2Zm-137.2-15.5c.2.3.4.5.5.4.1-.2 0-.4-.3-.6-.4-.3-.5-.3-.2.2ZM412.2 244c-.3.2-.4.4-.2.4s.5-.1.6-.3c.3-.5.2-.6-.4 0Zm1.6.1c-1.2.1-.9.8.4.7a4 4 0 0 0 1.2-.2c.3-.2-.9-.6-1.6-.5Zm2.2.4c-.1.2 0 .4.1.4.2 0 .3-.1.4-.4l-.1-.4s-.3.1-.4.4Zm.8 0c0 .2.1.5.4.7.2.2.4.2.4.1 0 0-.1-.4-.4-.7-.2-.3-.4-.4-.4-.2Zm76.9 9c0 .3-.7.5-1.5.6-.8 0-1.4.2-1.5.4 0 .4 2.7 1.5 3.6 1.4 1 0 1-2.3.1-2.6-.4-.1-.7 0-.7.2Zm-194-22.3c-.1.3 0 .4.3.3.6-.3.7-.6.2-.6-.1 0-.4.1-.5.3Zm110.5 13.1c-.2.4 0 .6.3.7.3 0 .7-.1.8-.5.1-.4 0-.6-.3-.6-.4 0-.7.1-.8.4Zm-12.2-.6c-.1.2-.5.4-.7.3-.8-.2-2.6.2-2.8.6-.3.5 0 .6 2.4.7 1.8.2 2.4-.2 2.3-1.3-.1-.8-.8-1-1.2-.3Zm4 .6c-.5 1-.3 1.2 1.6.6 2-.5 2.1-1 .4-.6-.8.2-1.3 0-1.5-.2-.2-.4-.3-.3-.5.2Zm-82-9.6.3.5c.1.2.3.1.3-.1 0-.3 0-.5-.2-.5l-.4.1Zm79.8 10c-.2.3-.1.5 0 .5.2 0 .4-.1.4-.4v-.4c-.1 0-.3.1-.4.4Zm14.8 2.3c0 .2-.2.3-.5.2-.2-.2-.4 0-.5.3 0 .8 1.4 1 2 .2.2-.2.3-.2.4.2 0 .3.2.4.4.3.4-.3.4-.9 0-1-.2 0-.7-.1-1-.4-.5-.2-.7-.2-.8.2Zm-372-43.3c-.1.3 0 .6.2.8.6.4 1 0 .8-.6-.2-.6-.7-.7-1-.2ZM411 247c-1 0-.9 1 .2 1.5.6.3.7.2.7-.2s.1-.6.6-.4c.5.1.8 0 .8-.4 0-.5-.5-.7-2.3-.5Zm-305.2-31.4c-.2.3 0 .6.2.8.2.2.4.7.3 1.2 0 .4 0 .7.3.6.2-.2.2-.5.2-.8-.1-.2.2-.7.6-1 .7-.7.7-.7-.3-1-.6 0-1.2 0-1.3.2ZM502 262.8c-.6.4-.6.5.2.9.4.2 1 .2 1.5 0 .7-.5.7-.5.2-1-.9-.5-1.2-.5-1.9 0ZM102 217c-.2.3-.9.7-1.6 1l-1.3.7 1.1.4 2.3.6c.6 0 1.8.8 2.8 1.7 1.2 1 1.9 1.4 2.2 1.2 1-.8 5.7-.6 9.5.4 2.4.6 6.1 1.1 6.5.9.4-.3-1-.9-4.4-1.6-3.2-.8-3.6-1-3-1.8.4-.5.3-.6-1-.5-1 0-2.1-.1-2.6-.5-.7-.3-1.2-.4-1.5-.1-.2.2-1.4.2-2.6 0l-4.2-.3c-2.1-.2-2.5-.5-1.9-1.4.3-.3.4-.7.2-.9-.2-.1-.4 0-.5.2Zm344 41.7c-.2.7-.5.9-1.2.6-.5-.2-1-.2-1.1 0a147.5 147.5 0 0 0-19-2.1c-2.6-.4-3.3-.4-3.2-.1 0 .2.5.4 1 .5.6 0 1.1.3 1.2.5.2.5 2.7.8 2.6.3-.2-.5 1 0 1.4.6.6.8 1.9 1.2 9.1 2.8a83.3 83.3 0 0 1 22.3 8c.2 0 .6 0 .7-.3.5-.8-.7-2.7-1.7-2.8-.5 0-1.8-.9-2.9-1.9-1-1-2.7-2-3.5-2.2-2-.5-3.5-1.1-3.8-1.4-.4-.3.7-1.3 1.2-1 .3 0 .6 0 .7-.2.2-.2.5-.2 1 0 .6.5 1.7.2 1.2-.4-.3-.3-2-1-4.2-1.4-1.4-.3-1.6-.3-1.8.5Zm.9 0c-.1.2 0 .5.1.7.2.1.2.2-.2.2-.3 0-.5-.3-.4-.7 0-.3.2-.6.4-.6s.2.2 0 .4Zm6.8 1.8c-.4.2-.7.4-.6.6.3.5 1.7.7 1.7.3 0-.3.2-.3.5 0 .2.5.4.5.6.2.1-.2.4-.3.5-.1.2.2.3.1.2-.2-.1-.4-.4-.5-.6-.4-.3 0-.6 0-.6-.3-.2-.5-.7-.6-1.7-.1Zm-225-25.3c.1.1.2.5 0 .8 0 .4.2.7.7.9.4.2.9.3 1 .2.2-.2-.7-1.6-1.3-1.9-.4-.2-.6-.2-.4 0ZM413 257c-.1.2 0 .3.4.2.8-.2 1-.5.3-.6-.3 0-.6.2-.7.4Zm2.4 6c-.5.5-.2 1.2.5 1.3.6 0 .8-.1.7-.6 0-.5 0-.6.2-.2.4.6 1.6 1 5 2 3 1 2.3.8 6.9 1.3l4.2.5c.3 0 .6.3.7.5.1.6 3.1 1 3.8.5.2-.2.8-.1 1.3.2 1.2.6 2.4 1 4.3 1.3l5 1.3c4.3 1.4 5.4 1.6 5.3 1.2 0-.2-.8-.8-1.7-1.2-1.5-.9-2.6-1.2-6-2.1l-3-1a19 19 0 0 0-3.8-.9c-1.5-.2-3.3-.6-4-.9-.8-.3-1.6-.4-1.8-.2-.2.1-1-.1-1.7-.6-.9-.5-1.5-.7-2-.5-.4.2-1.6.2-2.6 0a156.1 156.1 0 0 0-11.3-2Zm-245.1-16.4v.5l.4-.4c.2-.3.1-.5 0-.5-.2 0-.4.2-.4.4Z"/>
  <defs>
    <linearGradient id="a" x1="-9.5" x2="530.1" y1="111.2" y2="174.5" gradientUnits="userSpaceOnUse">
      <stop stop-color="#12C2E9"/>
      <stop offset=".5" stop-color="#C471ED"/>
      <stop offset="1" stop-color="#F64F59"/>
    </linearGradient>
  </defs>
</svg>
