<svg xmlns="http://www.w3.org/2000/svg" width="265" height="463" fill="none">
  <path fill="url(#a)" d="M32 322c.4.2.6.4.5.5-.2 0 0 .5.6 1 .5.4.9 1 .8 1.2-.2.3 0 .4.3.2.4 0 .6 0 .6.3s.1.3.7.2c.5-.2.7-.1.7.2 0 .2.1.4.3.5.1 0 .2 0 .2-.3h.3c.2.2.5.2.5 0 .1-.1.3 0 .6.3.4.4.6.4.7 0 .1-.2.2-.2.4.1.3.5-.3 1-.8.8h-.5c-.2.2 0 .4.5.4.4 0 .6.2.4.3l-.2.8c0 .5.2.4.7-.4.4-.7.8-1 1-.9.3 0 .5 0 .6-.3.1-.3.6-.6 1-.7.7-.1 2-1.1 2-1.6l1-1.5 1.8-2.9c.4-.8 1-1.5 1.1-1.6.2 0 .5-.3.6-.6.1-.3.9-1 1.7-1.8.8-.6 1.5-1.4 1.6-1.6.1-.2.3-.5.5-.5s.4.1.3.3c-.1.3 1.3.7 1.4.3l1-1.2a4 4 0 0 0 .8-1.7c0-.4.3-1 .6-1.4l1.5-2c1.3-2 2.2-3 2.5-3 .2.2-5 13.4-6.5 16.5-.8 1.7-1 2.4-1 3.2a22.2 22.2 0 0 1 .3 2.3c0 .5 0 1-.3 1.2a97 97 0 0 0-3.1 7.5 85.8 85.8 0 0 1-8.6 17.4c-.2.7-.5 1.3-.7 1.3-.2 0-.3.2-.2.4 0 .1 0 .2-.3.2h-.3c0 .5-1.4 2.5-1.6 2.5-.3-.2-1.6 1.6-1.7 2.4 0 .3-.5.6-1 .8-.4.1-.8.4-1 .7a93 93 0 0 0-.8 2c-.3.8-1 1.9-1.3 2.4l-1.3 1.8c-.3.5-.6.8-.8.6-.3-.4-.7.2-2.8 4.5 0 .2-.3.4-.4.3-.2-.1-.5 0-.7.3l-1.1.9c-.5.3-1.1 1.2-2 3.2l-1.5 3.4c0 .3-.5.9-1 1.2-.4.4-.6.7-.5.9.3.3.3 1.4 0 1-.3-.3-.4 0-.2.8.4 1.7-2.7 8-4 8.3-.5.1-.7 0-.7-.1 0-.2-.2-.4-.3-.4-.2 0-.3 0-.3.3 0 .2-.1.4-.3.5-.6 0 0-1.5.9-2.1.4-.3 1-1 1.3-1.7l1-1.5c0-.2 0-.4-.2-.5-.3-.1-.2-.5.1-1.2.4-.9.4-1 0-.8-.2.2-.5.3-.6.2-.3-.3-1 1-2.4 3.7-.7 1.6-.8 2.1-.6 2.4.3.3.2.3 0 .2-.6-.2-1 1.4-.7 2.2.2.4.2.6 0 .6-.1-.1-.5.7-.8 2l-1.2 4.3c-.3 1-.5 2.4-.5 3 0 .5-.1 1.2-.4 1.5-.2.4-.2.7-.1.9.2.2.2.1.1-.2 0-.2 0-.3.2-.1.3.3.1 1.7-.3 3.2-.3.9-.3 1 .3 1.3.5.2.7.1 1.5-1.4.5-.8 1-1.9 1-2.2l.2-.7.2.8c.3 1.5.2 2.8-.5 5.1a23 23 0 0 0-.7 4.2 28 28 0 0 1-3.7 9.8c-.2 0-.4.2-.3.5a15 15 0 0 1-1.8 5c-.2-.2-.2-.2-1.6 3.1-1 2.4-1.5 3.4-3.3 6.7-.9 1.6-1.1 2.6-.8 3.8 0 .4.2.4 1.3-.3A7 7 0 0 0 4 443l3.6-5.9c.6-.9.9-1 1.3-.7.3.2.4.4.2.6-.2.2-.1.4 0 .4.2 0 .5 0 .6-.3.1-.4.1-.4.3 0 0 .4.2.4.2.2h.6c.2.3.6.1 1.3-.4l.8-.9-.7 2.6a60.7 60.7 0 0 1-2 5.7l1-.2c.5-.2.8-.3.7-.4-.2 0 0-.2.4-.4A8 8 0 0 0 14 441c.6-1 1.5-2.1 1.9-2.6.4-.5 1-1.3 1.2-1.8.5-1.4 3-4.7 2.7-3.6l-.1.8-.1 1c0 .6.2.8.6.3a3 3 0 0 1 1.4-.9 3 3 0 0 0 1.2-1c.1-.3.4-.6.7-.7.5-.1.5.2.2 1.4l-.5 2.4a27 27 0 0 1-2 5.4c-.5.2-1.7 3.1-1.4 3.2l.7-.1c.3-.2.7-.2.9-.2.1.1.2.2 0 .3-.1 0-.2.3 0 .5 0 .3 0 .5-.1.4-.2 0-.4 0-.5.3-.2.6.2.5 1-.1.8-.8 1-.6.8 1-.2 1.6.3 2.1 1.1 1.3 1-.9 3.4-5.6 4.5-8.4a19 19 0 0 1 1.3-3l.5-.6.4 1c.2.6.4 1.2.3 1.4-.2.7.2 1 1 1 .9 0 3.1-1.8 3.4-2.7.2-.4.4-.6.5-.4.2.1.2.4 0 .7 0 .4.5 1.2 1 1.3.6.1-1.5 4-2.2 4.1a27 27 0 0 0-4.1 7v.8l.6-.5a24 24 0 0 0 3-4.3c2.4-4 3.3-4.7 2.3-2-.3.9-.4 1.7-.3 2 .2.6 0 1-1 3-2 3.7-3.2 5.8-3.6 6.2-.3.3-.2.5.2.6.5 0 1.5-.5 2.5-1.6.8-.9 1 0 .2 1.2l-1.3 2.1-.6 1.1 1.4-.6 1.6-.5-.3 1.7c-.5 2.2-.3 3.6.7 4 .6.1 1.9-1.3 2.6-2.8l1.8-3c.7-1 1.6-2.7 2-3.7l1.8-3.1c3-5 3.7-6 4-6.2.1-.1.2.4.1 1 0 .8.1 1.4.3 1.5.5.2 2.6-2 4-4.2.7-1 1.3-1.7 1.8-1.9.4-.1 1.1-.8 1.7-1.6 1.1-1.8 1.5-1.6 1.7.9 0 .5.2 1 .4 1 .5 0 1.6-1 1.8-1.6.1-.3.3-.4.5-.2.1.1-.1 1-.5 2.2-.7 1.7-.6 2.5 0 1.8.7-.6-.9 3.1-2 4.8-1.4 2.1-1.6 3.5-.7 3.8.4.2 1.2-.3 3-1.7 1.7-1.4 2.5-1.9 2.6-1.6.1.6.6.3 2-1.2 1.8-2.1 4.1-3.5 4.9-2.9.5.4 1.2-.4 3.3-4.1 1-1.9 2.3-3.7 2.7-4 .4-.3 1-1.2 1.4-1.8 1-1.9 3.4-5.1 4.1-5.5.4-.2.8-.7 1-1.2.1-.4.5-1 .7-1.1.4-.4.4-.3.1.6-.7 2.2-.9 3.5-.6 4 .3.3.3.6 0 1-.4.4-.4.4 0 .1.3-.1.6-.5.7-.8 0-.2.2-.6.4-.7.2-.1.3-.6.2-1 0-.6 0-.9.4-1.2.4-.2.5-.4.3-.6-.1-.1 0-1 .3-1.7.3-.9.5-1.9.4-2.3-.2-1-.2-1.3.2-1.1.2 0 .2.3.2.5-.1.2 0 .4.1.4.2 0 .3.2.3.5 0 .4.2.6.4.7.5 0 1.1-1 2.8-4.5 1.5-3.1 2-4 2.4-3.9.1 0 .2.3 0 .5 0 .2.2.5.5.6.5.2.7 0 .9-.4.3-.7.8-.7.7 0 0 .4-.5 1.7-1 3-1.8 3.8-2.3 5.4-2 6.4v1c-.2.1.1.3.6.4 1.1.3 1.1.7.2 3.4-.5 1.6-.5 1.7 0 1.3 1-.7 3-3.7 3.8-5.7.5-1 1-1.8 1.5-2 .9-.6 1-1 .6-1.7-.1-.4-.1-1 .1-1.7.8-1.9 4.3-8.7 5-9.6.6-.8.7-.8 1.6-.2.6.3 1.1.5 1.4.4.3 0 .5 0 .7.3.6 1 1.1.2 2.4-3.6 1-3 1.4-3.9 2-4.3.5-.5 2.1-3.2 3-5 0-.3.5-1.1.9-1.8l.8-1.2-.3 1.3c0 .7-.8 2.6-1.5 4.3-.7 1.7-1.7 4-2.1 5.4a44 44 0 0 1-2.6 5.4 77.6 77.6 0 0 0-4.8 9.4c-.2 0-.5.4-.7.9-.2.4-.4.7-.6.7 0-.1-.2.2-.2.5 0 .5-.1.6-.2.2-.2-.5-.2-.5-.4-.1 0 .3-.3.4-.5.3-.2 0-.2.2 0 .7.2 1 .2 1.3-.2 1 0-.2-.3-.1-.5.1-.2.3-.2.5 0 .6.2 0 .2.5 0 1.1-.3.6-.5 1-.7.8-.3-.2-.4.1-.6.8-.2 1.1 0 2.5.6 2.7.3 0 .2.1-.1.2-.5 0-.4.1.3.4 1 .4 2.1.3 2.3-.2 0-.2.3-.2.4-.1.1.2.3 0 .4-.2a4 4 0 0 1 1.4-1.7c.6-.4 1-1.6.5-1.8-.1 0-.2.1-.2.3 0 .3-.2.5-.6.6-.6.1-.6.1-.3-.1.4-.2.3-.3-.2-.3a.8.8 0 0 1-.7-.4c-.2-.7 0-1 .2-.5.2.4.3.3.4-.5a3 3 0 0 1 .7-1.4c.4-.3.5-.5.3-.9-.1-.4 0-.5.4-.5l.8.1c.2.1.3 0 .4-.2 0-.2.3-.4.5-.3.2 0 .6-.3.8-.7.2-.4.6-.8 1-.9.2 0 .4-.2.3-.4 0-.2.1-.1.4 0 .5.5.8 0 .2-.4-.3-.3-.3-.4.3-.6.7-.3.7-.3.1-.5-.4-.2-.5-.3 0-.3.8-.2 1 0 .9.7 0 .5.1.8.6 1 .7.1 1.6-.6 1.9-1.6.3-1 1-1.7 1.5-1.6.3.2.5 0 .7-.8a8 8 0 0 1 2-3.2c.3-.2.3-.2.2.3l-.5 1.8a31.7 31.7 0 0 1-2.6 7.1c.3 0 .3 0 .2.2-.2.2 0 .6.3 1.1.5.6.7.7 1 .5 0-.2.2 0 .4.4.2.5.3.5.4-.2 0-.5.1-.7.2-.5 0 .8.6.6 1-.4.2-.7.2-1.1 0-1.2-.3-.1-.3-.2.1-.2.3 0 .4-.2.2-.4-.2-.3 0-.6.6-1.2l.8-1.3c.4-1 1.3-1.1 1 0-.2.4-.2.8 0 1 .3.2.5.2.6-.2.1-.3.4-.5.7-.5.6-.1 1.6-1 1.6-1.3 0-.2 0-.3.2-.3s.5-.4.7-.8c.1-.4.7-1.3 1.3-2 .8-1 1-1 1-.5 0 .4-.7 2.6-1.6 4.9-.9 2.3-1.5 4.4-1.5 4.6 0 .3 0 .5-.3.5a33.2 33.2 0 0 0-3.6 8.9c-.2.2-.3.2-.4 0 0-.2-.2 0-.4.4s-.2.8 0 .9c.2 0 0 .2-.2.3-.3.2-.5.4-.4.5 0 .2.5.1 1-.1l.7-.4-.3.5c-.4.6-.4.6 0 .2.7-.6 1.2-1.8 1-2.7-.2-.9.3-1.7.8-1.5.3.1.6-.3 1-1.5.4-1 .6-1.7.3-1.8-.1 0 0-.2.3-.3.5 0 1-.7 1.7-2.2a20 20 0 0 1 2-3.6l1.4-2.3c.2-.5.7-1.4 1.2-2 .9-1 .8-1-.6 2.3l-1.6 3.8-3 5.7a161.5 161.5 0 0 0-4.4 8.7 31 31 0 0 1-2.4 4.2c-1.2 2-3.6 7-3 6.5.1-.2.3-.2.5 0 0 0 .3-.1.5-.5.1-.4.7-1 1.2-1.4.5-.4 1.1-1 1.4-1.1a222.3 222.3 0 0 0 18.4-32.6l2.3-4c.7-.7.8-1.1.6-1.3-.2-.3.9-3 2.5-6.1l1.6-3.4a61.1 61.1 0 0 1 5.3-9.4c0-.2.8-2 2-3.8 1.6-2.9 2-3.7 1.9-4.3-.1-.6.1-1.2 1.5-3.3a7422.4 7422.4 0 0 0 11.7-17.9c.8-.9 2-3 5.3-8.5l3.8-6.2a258.5 258.5 0 0 0 5-7.9c1.6-2.8 1.8-3.4 1.4-4.2-.2-.5-.6-.9-.8-1-.1 0-.3-.2-.2-.3l.3-.8c.2-.5 0-.6-.5-.5-.8 0-1-.3-.4-.7.7-.3.2-.3-.9 0a3 3 0 0 0-1.5 1.2c-.5.8-.6.8-.9.4-.4-.6-.6-.3 8-16l2-4.3a148.5 148.5 0 0 1 6.3-12.6 31 31 0 0 0 2.2-4.8l1.7-4.3c.4-.4 3-6.3 3.5-7.7.2-.7.2-1.5 0-1.8-.3-.7.2-2 2.6-7.6 1-2.6 2.3-5 2.8-5.6a30 30 0 0 0 3.2-7.3l4.7-12.1c2.8-6.8 2.7-6.5 5-13.8a105.9 105.9 0 0 1 4.8-12.1c0 .3 0 .5.2.6.2 0 .6-.6 1-2l2.4-8 2.7-9.2a612.2 612.2 0 0 1 13.5-44.4 173.4 173.4 0 0 1 4.8-14.9 95.6 95.6 0 0 0 4.3-15.3c.2-1.6 1-4 2.1-7.6a120.6 120.6 0 0 0 3.6-13.1 656.2 656.2 0 0 0 2.8-11.1l.3-2 .7-2.8c1.2-3.5 1.2-3.5.7-3.6-.2-.1-.4-.3-.3-.5h.3c.2.3.3.2.3-.1 0-.3 0-.8.2-1.1.1-.4 0-.7-.4-.9-.7-.3-.8-.2-.4.6s.2 1.3-.4 1c-.3-.3-.4-.3-.2 0 .1.1-.1.9-.8 2.3a32 32 0 0 0-2.5 7.7 330 330 0 0 1-1.4 5.9c0 .2-.2.3-.5.3-.4 0-.5.2-.6.8-.1 1-.2 1.7-.9 4.3l-.4 2a81 81 0 0 1-3 8.4c-1.3 3-1.9 5.2-2 7a40 40 0 0 1-2.6 7.1l.2-1.9.5-2.4c.3-2.1 1.8-7.7 3.3-12l.5-2.2a81.3 81.3 0 0 1 3-11l2-7.2c.2-.4-.2-.6-.6-.3-.3.1-1 2-1.6 3.9v1.4c.3.2.2.7-.4 1.8-.4.8-.8 1.5-1 1.5 0 .1 0 .4.2.7.2.4.2.6 0 .6a29.7 29.7 0 0 0-3 9c0 .6-.2 1.4 0 1.8 0 .6 0 .7-.4.6-.2-.1-.5.1-.8.6-1 2-2 4.9-2.6 7.2-.4 1.7-.7 2.4-.8 2-.4-1.3-1.5.5-2.3 3.6a13 13 0 0 1-1.4 4.4 5 5 0 0 0-.6 1.8 69.7 69.7 0 0 1-3.8 13.8l-1.1 4.3a265.3 265.3 0 0 1-4.6 16c-1.1 3.5-1.3 3.9-1.8 3.9s-.7.4-1.6 2.8a29 29 0 0 1-1.8 4l-.6 1 .3-2 .8-3 1.2-4.7a192.4 192.4 0 0 1 3.9-14.2c0-.4.8-3 1.7-6a489.3 489.3 0 0 0 6.8-24.1c0-.3 0-1 .2-1.6.2-.6.1-1.3 0-1.5-.4-.4-.2-1.1.6-3.5l1-3.3a315 315 0 0 1 4.2-15.2c.4-1.5 1.3-4.6 1.8-7l1.8-6.7a303 303 0 0 0 8-28.3c0-.1-.3.1-.5.6l-.7 1.6c-.2.3-.3.7-.2.9.1 0-.1.5-.5 1a239.2 239.2 0 0 1-4.9 13.7c-1.8 5.2-4 11.3-4.7 13.7-1.4 4.3-2 5.4-1.3 2.5l.3-1.6c-.2-.3-1 .5-1.5 1.2-.4.9-1 1-.7.2l1.2-4c.5-2 1.7-5.7 2.6-8.3 1.4-4.3 1.5-4.8 1-5-.6-.2-.4-1.3 1.7-7.7a26 26 0 0 0 1.5-6.3c.8-2.1-.3-1.8-2 .5-.4.7-.9 1.6-1 2.1-1 3.2-1.3 2.2-.5-1.5a107 107 0 0 1 2.2-8.8l1.6-5.6c.7-2.2.9-3.4.7-3.7-.2-.2-.1-1.3.2-2.3.2-1 .3-2 .2-2.3-.2-.2 0-1.3.2-2.3.3-1.1.4-2.3.3-2.8-.2-.4 0-1.6.5-3.2a27 27 0 0 0 1.5-6.4c-.2-.2-1.5 1.9-1.4 2.3 0 .2 0 .3-.2.3-.1-.1-.2-.6-.1-1.1.2-1.1-.2-1.4-.7-.8-.7.7-.9-.7-.5-3.6.4-2.4.4-4 0-3s-.4-.7 0-2.4c.2-1 .4-1.9.3-2.1v-2.2c.5-2.7.2-2.8-1-.3-.5 1-1 1.7-1.4 1.8-.5.3-.8.7-1.2 2.4-.9 3.5-1.2 4.1-2.2 4.3h-1s0-1 .3-2c.2-1 .4-2 .3-2.2l.1-1.6c.4-2-.2-1.8-1 .4-.4 1-.8 2-1 2-.2 0-.7 1-1.1 2.3-.6 1.5-1 2.2-1.3 2.2-.3 0-.3-.3 0-1l.4-2c0-.6.3-2 .7-3.3.3-1.2.5-2.4.4-2.7l.1-.4.2-.8c0-.6-.2-.3-.9 1a28 28 0 0 1-2.7 4.2c-.6.5-.5-.6.2-3.7l.4-2.9c-.1 0 .1-.8.5-1.7.6-1.3.7-1.7.4-1.8-.6-.2-1.8.3-2 .8 0 .3 0 .3.3 0 .4-.2.4-.1.3.3 0 .2-.4.4-.7.4-.4 0-.7.4-1.5 3-1 3.3-1.5 4-2.1 3.1-1-1.5-1-6 0-8.9.6-1.6.6-2.7-.1-3-.3 0-.6.3-1.2 2-.4 1-.8 2.5-.8 3 0 .7-.8 3.5-1.8 6.2-1.6 4.9-1.7 5-2.3 4.8-.6-.2-.9-.6-.8-1.2l.4-2.7A79 79 0 0 1 231.9 8c1-3.5 1-4.8.3-4.7-.2 0-.3.2-.2.4 0 .2-.1.2-.3 0-.2 0-.5 0-.5.3s-.2.4-.3.3c-.1-.1-.5.1-.7.6-.7 1-1.3 1-2 .1-.4-.4-.6-.6-1-.5-.6.2-.8-.2-.6-.8V3l-.5-.5c-.4-.3-.5-.1-1.1 2l-.9 3.5c-.1.8-.3 1-.6.8a1 1 0 0 0-1 .2c-.5.4-2.1-.6-2.2-1.5 0-.6 0-.6-.3-.1-.2.5-.2.5-.3-.1 0-.6-.4 0-1.5 2.7-.4 1-1.2 1.7-1.7 1.6-.2-.1-.5 0-.7.5l-.6 1.2c-.4.5-.5.5-.7 0V12c.2-.4.1-1.6-.1-2.8a7.4 7.4 0 0 1-.1-3c.6-1.5 1.1-4.1.8-4-.1 0-.2-.2 0-.5 0-.2 0-.5-.3-.7-.6-.3-2.4.8-2.5 1.6 0 .4-.2.6-.4.6-.5 0-1.8 3-1.8 4.3 0 .6-.9 3.3-1.9 6-1.6 4.6-2.3 6-2 4l.2-2c0-.7.3-1.8.5-2.4.2-.6.3-1.1.1-1.2-.2 0-.2-.3-.1-.5v-1c-.2-.7-.2-.7-.7-.2-1 .8-1.5.3-1.5-1.8 0-1-.2-2-.4-2.2l-.5-.5c-.1-.5-1.2-.4-1.2.1 0 .3 0 .4-.1.3 0-.2-.6-.1-1.1.1-.8.3-1.2.7-1.5 1.5-.3.6-.5 1-.6.9-.1-.1-.5 1-1 2.3-.6 2-.9 2.6-1.4 2.8-.6.3-1.8 2.8-2 4.2 0 .6-.2 1-.4 1s-.5.3-.6.6c-.3.8-.9 1.3-1.2 1.2-.2 0-.2-.3-.1-.5 0-.2 0-.5-.3-.7-.2-.3-.2-1.4 0-3 .4-3.3.2-5.9-.5-6-.3 0-.5.3-.4.5 0 .2-.1.3-.2.2-.2-.2-.8-.1-1.5 0-.8.3-1.1.5-1.1 1 0 .3-.1.5-.3.3 0-.1-.4.2-.6.7l-1.5 2.5-1.2 1.6-.5-.9c-.3-.4-.5-1-.4-1L184 14c-.2-1-.2-1-1-.9-.5 0-.9 0-1-.2 0-.2-.2-.3-.4-.3s-.3.2 0 .5c.2.2.1.4-.1.4s-.7.4-1.1.7l-.7.6.2-.8c.2-1-.4-1.7-1-1.2l-.2.5c.1.2-.2.5-.7.9a7 7 0 0 0-1.5 1.5c-.3.5-.8 1-1.1 1.1-.7.3-.8.5-1 3.2-.1 2.4-.4 3-1.7 3.5-.7.3-.8.5-1 2-.3 1.8-1.5 5.2-1.8 4.9 0-.2 0-1.2.2-2.3.4-2.8.4-3.2 0-2.8-.9.5-.9-3.3-.1-6.8.2-1 .3-1.8.2-1.9H169c-1 .2-1 .2-1.4-.4l-.5-.6c-.4-.2-1.5 4.4-1.5 6 0 2.4-1 6.8-1.6 7-.3.2-.5 0-.7-.2-.3-.4-.3-.9 0-4.8 0-1.2-.1-1.8-.4-2-.4 0-.5.2-1 1.9-.3 1.3-.6 2-.9 2-.2 0-.3 0-.2-.2l-.1-.3a14 14 0 0 0-.6 4.6c.2.4-.5 4.4-.9 5.2-.1.2-.4.4-.6.3l-.8-.2c-.5 0 0-3.4 1-9.2l.3-2.7c-.1-.6 0-1.5.1-2 .5-1 .5-3 0-2.8l-1.6 3.3-1.3 3.2-.2-1.6c0-1.4 0-1.4-.6-1-.5.3-.7.8-.8 1.9-.2 1.7-.3 1.9-.6 1.8-.2-.1-.2-.5-.2-1 .2-1.5-.3-1.4-1 .3-.3 1-.9 2-1.4 2.3-.4.4-.7.9-.7 1.3 0 .8-4.5 13-4.7 12.8-.5-.5-1.7 2.9-2.2 6-1 6.3-2.3 11.5-3.4 14.7a45 45 0 0 0-1.8 6.1 140.7 140.7 0 0 1-2.3 9.7l-.5 2.3-.7 3c-.3 1-1.7 5.9-2.9 9.3-.8 2.6-2 6.4-2.6 9-.2 1-1.4 4.3-2.5 7.6l-2.7 8.5c-.4 1.5-1.8 5.4-3 8.8-2 5.1-2.5 6.2-3 6.2-.4.1-.4.2-.2.5.3.3.2.6 0 1.1-.4.4-.5.9-.3 1.1v1.3l-.3 1.5c0 1.7-.5 3.4-1 4-.5.3-.7 1.8-.3 1.7.1 0-.2 1.3-.7 2.9-1.5 4.3-1.6 4.8-1.4 5.4.3.6.3.6-.2.3-.4-.2-.6-.1-.6.1l-.3 1v.7c.2 0 .3.3.3.6 0 .4 0 .4-.4.2-.3-.3-.4-.2-.3 0 0 .3-.2 1.6-.7 3l-5.8 15.7a212 212 0 0 0-5 14c-.4.3-4 8.6-4.8 11.3-.7 2-3 3.8-3 2.3 0-.2-.3-.2-.7.1-.3.3-.7.6-.9.6-.6 0-1.7 2.2-1.6 3 .1.4-.2 1.5-.9 3.1l-4 9.9a118.7 118.7 0 0 1-6.3 14.1c-.5.4-2 2.6-2 3 0 .6-.4 1.5-1 2.3a5.7 5.7 0 0 0-1 2.4c0 .3-.7 1.6-1.4 2.8l-1.6 3.5c-.3.6-.6 1.2-.8 1.3-.3.1-.7.5-1 1-.4.6-.4.8 0 1 .5 0 .4.3-.4 2-.5.9-1.6 3.6-2.5 5.8a38.8 38.8 0 0 1-3.4 6.8l-.4-.4c-.2-.3-.2-.9 0-1.4.2-.4.3-.8.2-.9l-.6-.4c-.5-.4-.8.3-.3 1.1.2.5.2.7 0 .7-.3 0-.5 0-.4.2 0 .2 0 .3-.2.2l-.5.5-1.8 3.8a95 95 0 0 0-3.6 8.1c-1 2.7-2.1 5.2-2.3 5.5-.8 1-4 7.4-5.5 10.9-2.9 6.4-5.8 11-7.5 11.6-.5.1-1 .6-1.2 1a108.3 108.3 0 0 1-8.8 17l.8.4Zm2.7 1c.3.2.3.3 0 .6-.4.2-.8.2-1 0-.3-.2-.3-.3 0-.5.4-.1.8-.2 1 0Zm20.8-41.9c.8-.8.8-.8-.2 1.3-2.2 4.8-3 6.3-3.1 6.2-.4-.2 2.4-6.6 3.3-7.5ZM14.2 402.6v.5c-.1.2-.3.3-.5.2-.1 0-.1-.2 0-.4l.5-.3Zm8-18.3c.2 0 .3.2.2.6l-.6.7c-.2 0-.3-.3-.2-.6.2-.4.4-.7.6-.7Zm-3 12.8c.3.1.2.5-.3 1s-.8.2-.4-.5c.3-.3.5-.5.7-.5Zm54.7-146.3c.7-.8.8-.9.8-.4-.1.8-3.6 8.9-5.7 13.1-.5 1.2 2.6-8.2 3.4-10a13 13 0 0 1 1.5-2.7Zm4.3-8.6c.2-.3 0 .3-.3 1.2-.9 2.2-1.5 3-1.2 1.5l.7-1.7.8-1Zm-61.8 165c.3-.5.3-.5.3.2 0 .8-.3 1.4-.8 1.2-.2-.1-.2-.3 0-.5l.5-.9ZM80 238.4l-.2 1c-.2.7-.5 1.3-.7 1.3-.3 0-.3-.3.1-1.1l.8-1.2Zm79.2-201c.2 0 .1.5-.2 1.2-.4 1.1-.5 1.2-.4.4 0-1.3.2-1.5.6-1.5ZM14.5 437.8c0 .2 0 .4-.2.5-.1 0-.1-.2 0-.4.1-.3.2-.4.2-.1Zm1.5-3c.4-.4.5-.4.3 0 0 .3-.3.7-.6 1-.6.5-.3-.2.3-1Zm1.2-3.5c.2-.1.6-.2 1-.1.4.2.4.4-.1 1.2-.6 1.2-1.4 1.8-1.1.8.1-.3.1-.6 0-.8-.3-.3-.2-.6.2-1ZM179.5 13.1c.2 0 .2.3.1.6-.1.4-.2.3-.3 0-.2-.7-.2-.7.2-.6ZM37.1 431.5c0 .2 0 .4-.2.5-.1 0-.1-.2 0-.4.1-.3.2-.4.2-.1Zm.1 2.4c.5.2.3 1-.5 1.7-.8.9-1 .5-.4-.7.3-.8.6-1 1-1Zm1.6-4.9c.4.5.2 1.5-.3 1.3-.2-.1-.3-.4-.2-.8.2-.4.4-.6.5-.5Zm-.4 2.1c.3-.2.4 0 0 .7-.1.6-.4 1-.6.9-.4-.2 0-1.2.6-1.6Zm196.4-418c.2.1.3.3.2.4 0 .2-.2.2-.4.2l-.2-.4c0-.2.3-.2.4-.2Zm6.4.3c0 .2-.1.5-.3.6-.1.2-.1 0 0-.4.1-.3.2-.4.3-.2Zm2.1 5.2c0 .4-.2.9-.4 1.2-.2.3-.1 0 0-.7.3-.6.5-.8.4-.5Zm-2 12.9-.2 2.3-.5 3c0 .4 0 .6-.2.4-.2-.1 0-1.3.2-2.7l.5-2.7v-.3h.2ZM103.1 409.8c.4-.4.4-.4.2.2-.1.4-.4.8-.6.8-.4 0-.2-.5.4-1ZM245.1 35c.2 0 0 1.3-.3 2.8-.8 3.4-1 4-1.2 3.5-.1-.2.1-1.7.6-3.3a66.7 66.7 0 0 0 1-3Zm-142 391.3c.1 0 .2.1.1.3 0 .2-.2.4-.4.3a.3.3 0 0 1-.1-.3c0-.2.2-.3.4-.3Zm13.4-34.4c0 .2 0 .4-.2.5 0 0-.1-.2 0-.4.1-.3.2-.4.2-.1ZM102 432.2c.2 0 .3.3.2.5-.2.4-.2.4-.4 0-.1-.6-.1-.7.2-.5Zm.9-.9v.3c0 .2-.2.2-.4.2-.2-.1-.2-.2 0-.3l.4-.2Zm7.6-14 1.4-2.2a19.5 19.5 0 0 1 2.2-3.3 13 13 0 0 1 2-2.3c1.1-1.1 1.7-1 1.2.2-.2.7-.2 1 .1 1.1.5.2 1.1-1 1.7-2.9.2-.9 1.6-3 2.2-3.5.4-.3.2 1.2-.4 2.9-.4 1-1 2-1.9 3-.7.7-1.5 1.5-1.6 1.8-.1.4-.2.5-.3 0v-.6c.2 0 .2-.2 0-.2-.2-.1-.6.4-1.8 2.2-.3.4-.7.8-1 .8-.3 0-.4 0-.2.5s.2.5-.2.2c-.3-.2-.4-.1-.6.3 0 .3-.4.9-.7 1.3-.4.5-.5 1-.4 1.3.1.3.1.4 0 .4-.4-.2-2 1.5-2.3 2.1-.1.3-.4.4-.6.3-.3 0-.3-.5.2-1.4l1-2Zm15-6.5c0 .2-.3.5-.5.5-.3.2-.3 0 0-.3.2-.4.4-.4.4-.2Zm117.9-312v1c-.2.4-.4.6-.5.5-.3-.3.1-1.6.5-1.5ZM128.7 411.2l.3-.6v.7c0 .8-.6 1.9-1 1.7-.2 0-.2-.3 0-.6l.7-1.2Zm115.6-309.6c.2 0 .2.3.1.5 0 .2-.2.3-.4.3v-.5c0-.2.2-.4.3-.3Zm.4-1.1c0 .2 0 .4-.2.5-.1 0-.2-.2 0-.4 0-.3.2-.3.2-.1ZM130.8 407c0 .2 0 .4-.2.4 0 .1-.1 0 0-.4.1-.2.2-.3.2 0Zm-10.4 29c.2 0 .3.3.2.4 0 .1-.2.2-.4.1-.2 0-.3-.2-.2-.3 0-.2.2-.2.4-.2Zm3.3-6.4c.3.1-.1.5-.6.5s-.5 0 0-.3l.6-.2Zm1-2.6c.2 0 .4.2.3.3h-.5c-.3 0-.5 0-.4-.2 0-.2.3-.2.5-.1ZM261.4 92.3c0 .2 0 .5-.2.5-.1 0-.2-.1 0-.4 0-.3.2-.3.2 0Zm-82.9 240.5c.2 0 .4 0 .4.2s-.1.3-.4.3c-.6 0-.6-.5 0-.5ZM3.3 407.2c.1.2.3.3.4.1l.2.4c.2.9.8.4 1.3-1 .2-.6.2-.8 0-.5-.4.4-1.3.5-1.1 0 .3-.7.9-1 1.3-.8.3.3.4.3 0-.2-.4-.7.2-2.7.8-2.7.4 0 .4 0 .2-.5-.3-.7-1.4-1.4-1.3-1 0 .3.2.5.4.5.3 0 .3.2-.2.4-.6.2-.9.7-1.5 2.5-.5 1.5-.7 2.5-.5 2.8Zm-.7 3.8c.1.4.9.5 1 0 .1-.2-.6-.8-.9-.6v.6Zm4.5-4.6c.4.5.5.5.7 0l.5-1c.3-.6.1-.9-.6-.6-1 .3-1.2.9-.6 1.6Zm60.8-155.9h.4c.2-.2.2-.3 0-.4l-.4.1v.3Zm1.3-3c.3 0 .5-.2.4-.3 0-.1-.3 0-.5.2-.3.3-.3.3.1.2Zm-51 139.2.8-.1c.4-.2.5-.4.3-.7-.2-.4-.4-.4-.7-.2-.5.4-.8.9-.4 1ZM130 95.7c.1.1.3 0 .4-.2v-.7c-.2-.1-.4 0-.5.3v.6Zm-1.3 4.6c.3 0 .6-.6.3-.9 0-.1-.3 0-.4.3v.6ZM33.3 356.9c.6.5.8.2.6-.9 0-.5-.2-.9-.3-.8-.6 1-.7 1.5-.3 1.7Zm84.3-223.4h.3s0-.2-.2-.3c-.1-.2-.3-.2-.3 0 0 .1 0 .3.2.3Zm-1.2 3.9c.2.2.4.3.6.2.3-.1 0-.5-.5-.5-.3 0-.3 0 0 .3Zm.3-1c0 .6.5.6.6 0l-.2-.7c-.3 0-.4.1-.4.7Zm48-123.4c.2.4.6.4.8 0 0-.2-.1-.5-.3-.5-.5-.2-.8 0-.5.5ZM46.6 334.6c0 .2.3 0 .4-.2.1-.3 0-.5-.1-.5-.4 0-.6.5-.3.7Zm1.3-2c.3 0 .6-.3.7-.5l.8-1.5c.4-.8.4-1 .1-.9-.4.3-.4.3-.3 0 0-.3 0-.4-.1-.3-.2 0-.6.7-1 1.6-.5 1.2-.6 1.5-.2 1.5ZM9.2 438.2c.3.4.9 0 .7-.4 0-.4-.7-.4-.8 0l.1.4Zm8.8.5h.5c.2-.2.1-.3-.2-.3-.6 0-.8.2-.3.3Zm.8-1.8c.3 0 .5 0 .4-.1 0-.2-.2-.3-.4-.3-.5.1-.5.2 0 .4ZM226.7 1c0 .2.2.3.2.2V.4c-.1-.2-.2-.3-.3-.2V1ZM90.2 434.3c.2 0 .4-.2.5-.4l-.1-.7c-.2 0-.4.2-.5.5l.1.6Zm8.5-9.2.4.8.8-1.4 1.3-2.8c.3-.8.6-1.4.7-1.3.3 0 .4-1.6.2-2-.1-.1-.2.2-.3.6 0 .6-.4 1.1-.9 1.5-.4.3-1 1.2-1.2 1.9-.3.7-.7 1.3-.8 1.3-.5-.2-.5.6-.2 1.4Zm-1.3 3.2c.1 0 .2-.2.2-.5 0-.2-.1-.2-.2.1-.1.3-.1.5 0 .4Zm2.4 6.3h.5l-.6-.2c-.3 0-.2 0 .1.2Zm5.2-6.1c.1 0 .4.3.6.7.3.7.4.7 1.8-.6 1.8-1.5 1.9-1.6 1-2-.3 0-.6 0-.7.3-.1.3-.2.3-.3 0l.1-1c.2-.2.2-.4 0-.5-.2 0-.4.3-.6.8 0 .4-.3 1-.4 1.3-.2.4-.3.4-.4 0-.1-.4-.2-.4-.3 0-.1.2-.3.4-.5.3-.2 0-.4 0-.5.3 0 .2 0 .4.2.4Zm3.7-2.4c0 .3.2.3.6.2.5-.3.3-.8-.3-.7-.3 0-.4.2-.3.5Zm9.3 13.7c.1.1.3 0 .4-.1l-.1-.7c-.1-.1-.3 0-.4.1l.1.7Zm3.3-4.8c.7-.2.8-.3.4-.4-.1-.1-.4 0-.6.2-.3.3-.3.3.2.2ZM262.8 71.3c.5-.2 1.4-1.8 1.3-2.2-.1-.2-.2-.3-.3-.2-.7 1.3-1.2 2.4-1 2.4Zm-.2 1.7c0 .3.2.1.4-.4.2-.4.2-.8 0-.9-.3 0-.6.7-.4 1.3Zm-2.1 6.8c-.1 1.2-1 4-2.6 9a15 15 0 0 0-1 3.9 8 8 0 0 1-.8 3l-.8 2.3 1.6-1.3-.3-.1c-.2 0-.3-.3 0-.8 0-.4.3-.7.5-.6.2 0 .4 0 .4-.2 0-.1 0-.2-.3-.2-.4 0-.4 0 0-.2.2-.2.5-.5.6-.8l.6-2 .2-1.3c-.2 0 0-.7.4-1.5l.5-2.2c0-.3 0-.5.2-.4.2 0 .3 0 .2-.3l.7-2.6a36.6 36.6 0 0 0 1.4-5.9c0-.2-1.3.7-1.4.9l-.1 1.3Zm-2.4 11c.1 0 .2.3 0 .6 0 .3-.3.5-.4.6-.2 0-.2-.3-.1-.6.1-.4.3-.6.5-.6Zm6-13.5c.2.2.2.4 0 .5-.1 0-.1.2 0 .2.6.3.8-.1.3-.7-.2-.3-.4-.5-.5-.4l.2.4Zm-.9 6c.3.4.3.7.2.8l-.7 1.3c-.6 1.1-.5 2.8 0 2.6.6-.1 1.1-2 .9-2.5-.2-.5 0-1.3.5-1.5.4-.1.9-1.5.6-1.8-.4-.4-1.6-.4-1.7 0 0 .2 0 .7.2 1Zm.8-2.8c.2.2.2.2.2 0s0-.4.3-.4c.5 0 .5-.4 0-.6-.5-.2-.9.6-.5 1ZM153.2 383.8c.2 0 .3-.3.2-.5 0-.3 0-.2-.2 0v.5Zm28.1-49h.3s0-.3-.2-.4c0-.2-.2-.2-.3 0 0 .1 0 .3.2.4Zm2.2-6c.2.5.8.6.8 0 0-.3.2-.4.5-.3l1 .3c.2 0 .6-.1.7-.4l.3-.6.7-.9c.6-.8 1.3-1.2 1.6-.8 0 .1.3 0 .4-.3 0-.3 0-.6-.2-.8-.2-.2-.2-.3.1-.4.7-.1 1.2-.8 1-1.4-.2-.5-.2-.5 0-.2.3.3.4.3.4-.1v-.9c.2-.2 0-.5-.3-.7-.3-.3-.4-.5-.2-.8.5-.6 1.2-.2.8.4-.3.5-.3.5.1 0 .3-.2.7-.7.9-1.2l1.2-2.4a157.3 157.3 0 0 0 6.9-13.2 363.2 363.2 0 0 0 7.6-17.5c0-.2 0-1 .2-1.6v-1.3l-1.3.3c-.8.3-1 .6-1.4 1.7-.3.8-.6 1.2-.7 1-.2 0 0-1 .4-2.1.6-1.7.7-3 .1-2.8-.3.1-1.7 3.5-1.5 3.5l-.6 1.8c-.4 1-.9 2.4-1 3.3l-.5 1.6-.7 1.2c-.3.6-.7 1.4-1 1.7-.3.4-.4.8-.3 1a9 9 0 0 1-.6 3c-.6 1.8-.8 2.6-.5 2.5.2 0 .1.1-.2.3-.4.2-.7.6-.8 1.4-.1.7-.3 1-.4.8-.3-.3-.3-.2-1.3 2l-1.1 2.2c-.3.3-.4.6-.2.6.1 0 .1.4 0 .8-.2.3-.4.6-.5.5l-.4.3c0 .3 0 .4.2.4.4 0-1.1 2.4-1.5 2.5-.8.1-3.2 4.7-2.6 5l.2.3c0 .2-.2.2-.3 0-.4-.4-.9.1-.7.7.2.3.1.4-.2.4-.3 0-.6.4-.8 1-.2.7-.4 1.1-.6 1-.5-.1-.6 1.3-.2 1.8.3.3.3.5.2.6h-1c-.2.3-.2.5 0 .7 0 .1-.1.4-.5.8-.9.6-2.3 2.8-2.2 3.2Zm0 4.2c.5.2.7 0 .3-.3a.4.4 0 0 0-.5-.1c-.1.1 0 .3.2.4Zm.9-.8c.2-.1.4-.4.4-.6 0-.2-.2-.1-.4.2-.3.4-.3.5 0 .4Zm34-88.8c0 .3 0 .6.2.7.4.1.6-1 .2-1.3-.1-.2-.3-.2-.3-.2v.8Zm-1.3 5.6c.7-.6.8-1 .3-.7l-.6.7c0 .3 0 .3.3 0Zm.6-1.6c.1.1.2 0 .3-.3 0-.7-.2-.8-.4-.3l.1.6ZM205.9 281c.4.6.5.4 1.7-2.8a43.8 43.8 0 0 1 1.8-4.7c-.1-.1 0-.6.1-1 .6-1.1.1-1.3-.4-.2-.3.6-.4 1-.3 1 .5-.1.2.2-.4.5-.7.2-1.2 1.3-.8 1.7.2.2 0 .4-.3.6-.5.5-.5 1.1 0 1 .4 0 .3 0 0 .3a6 6 0 0 0-1 1.6c-.6 1-.6 1.5-.4 2Zm7.4-20.9h.4l-.2-.4a.3.3 0 0 0-.4 0c0 .2 0 .3.2.4Zm-3.2 10.6c0 .3.2.3.2.2v-.6c-.4-.4-.4-.3-.2.4Zm37.8-101c.3 0 .2 1-.1 1.1-.4.2-1 1.3-.6 1.4.2.1 0 .9-.6 2-.8 1.6-1 2.3-.8 3.1 0 .6.2.9.2.6 0-.3.1-.5.3-.5.1 0 .4-.1.5-.3.2-.2.4-.4.6-.4.2 0 .1-.2-.2-.4-.7-.2-.7-.2 0-.8.6-.4.7-.6.3-1-.4-.6-.4-.6 0-.3s.6.2.8-.2c.1-.4 0-.9-.2-1.1-.3-.3-.3-.4 0-.3.3 0 .8-.6.4-.8-.1 0 0-1 .5-2 .4-1 .7-2 .6-2.2-.2-.1-.2-.4 0-.8.1-.4 0-.5-.3-.3-.5.2-1.9 3.2-1.4 3.2Zm1.6-4.3h.3l.5-1c.6-1 .2-1.6-.4-.7-.6 1-.7 1.6-.4 1.7Zm-6 19c.2 0 .2.6 0 1.1-.2.5-.6 1-.8 1-.2 0-.3.2 0 .2.3.2-.2 1.8-.5 1.6-.2 0-.3 0-.2.2 0 .3-.5 2.7-1.3 5.2l-.3 1.5c.2 0-1.1 3.5-1.4 3.6-.5.2-1.7 2.7-1.4 2.9.2 0 .2.2.1.5 0 .2-.2.3-.4.2-.2 0-1 1.8-2 4.8a446 446 0 0 1-1.9 5.6l-.2 1.5c0 .6-.2 1-.4 1-.2-.2-.5.7-.3 1 0 .2-.4 1.4-1 2.7-.7 1.6-1 2.6-.8 3 .2.3.1.4-.2.3-.2 0-.3 0-.2.2.2.1-.2 1.7-1 3.8a2762 2762 0 0 0-12.8 36.2l-.3.1c0 .2 0 .3.2.3s.3.1.2.3c0 .2 0 .5.2.5.2.1.2.3.2.4 0 .2-.2.2-.4 0-.1-.1-.3.1-.5.6-.3.7-.2.8.1.6.3-.2.4-.2.3 0 0 .3 0 .4.5.2.3-.1.7-.5.8-.8.1-.3.3-.5.5-.4.2 0 .3-.1.3-.5s.1-.5.3-.3l.3.1-.5-.5-.5-.5.9-.4c.6-.3.8-.6.6-.8-.2-.2-.1-.3.2-.4.4 0 1.1-1.8 4-9.3a491.3 491.3 0 0 0 12.8-39.6c-.3-.2-.2-.3.2-.4.3 0 .4-.1.3-.2-.2 0 .3-1.7 1.3-4.4a70.8 70.8 0 0 0 4.2-14c.8-2 2-6.4 2-7.3 0-.3-.1-.4-.6-.3-.5.2-.5.1-.3-.1l.7-1c.3-.4.6-.5.8-.4.2.2.1.1 0-.1-.3-.4-.3-.8.4-1.9.4-.7.7-1.6.6-1.9l.1-1.3c.2-.7.2-.7-.1-.2-.3.5-.4.5-.5.1-.2-.5-.3-.1-1.8 3.5-.4 1.2-.7 2.1-.5 2.2Zm-25.4 76.2c.3.2.3.4.2.5-.4.3-.9 0-.7-.4 0-.3.3-.3.5-.1Zm-6.6 14.7c.6 0 .7 0 .4.3-.3.3-.2.3.4.3h.8l-.6-.6c-.6-.6-.5-1.1.2-1.1.3 0 .5.1.4.2l.4.4c.4.1.5 0 .7-1.2.2-.9.4-1.2.7-1.1.2 0 .5-.3.6-.8.3-.6.3-1 0-1-.3.1-.2 0 .1-.3.5-.3.5-.4 0-.4-.2 0-.5 0-.5.2 0 .1-.3.2-.4.1-.7-.2-.1-.5.9-.5 1.1 0 1.1 0 1-.8-.1-.4-.4-.6-1-.8-.4 0-.7-.2-.6-.3l-.1-.4c-.2-.2-.5.4-1 1.3-.5 1.5-.5 1.7 0 2.2.6.5.6 1.6 0 1.4-.2 0-.2-.2 0-.3.1-.1 0-.2-.3-.2s-.5.1-.5.4c0 .3 0 .4-.2.2-.3-.4-1 .4-1.2 1.4 0 .4-.3.9-.6 1-.4.4-.3.5.4.4Zm3.7-6.7c.2 0 .3.2.2.4 0 .2-.2.2-.3.1l-.2-.3.3-.2Zm-5 10.2s.3 0 .5-.3.5-.3.7 0c.3.1.5.2.6 0 0-.3-1-.6-1.5-.4-.6.2-.7.3-.4.7Zm1.3-1.3h.5l-.3-.4c-.2-.2-.4-.2-.5 0 0 .2 0 .4.3.4Zm1.3-.7c.3-.2.7-.6.8-.9.2-.6 0-1.2-.5-.9-.1.1-.1.3 0 .4.3.2.2.4-.2.7-.8.6-.9 1.1-.1.7Zm-1.3 3.5.2-.5c0-.3 0-.2-.2 0v.5Zm5.2-13.6c.2.4.2.4.3 0v-.6c-.4 0-.5 0-.3.6Zm0 1.5c.3.3.3.2.2-.3-.1-.7-.3-.9-.5-.4 0 .2 0 .6.3.7Z"/>
  <defs>
    <linearGradient id="a" x1="58.6" x2="233.6" y1="471.2" y2="2.7" gradientUnits="userSpaceOnUse">
      <stop stop-color="#081A4B"/>
      <stop offset="1" stop-color="#305DE9"/>
    </linearGradient>
  </defs>
</svg>
