<svg xmlns="http://www.w3.org/2000/svg" width="542" height="224" fill="none">
  <path fill="url(#a)" d="M285.3 223.2c.6-.4 1-.4 1.5-.2.6.3.6.3-.1.3l-1.6.3c-.7.2-.7.2.2-.4Zm2.7-.2c.2-.2 1.6-.5 2.9-.6 1.5-.2 2.2-.1 1.8 0-.9.5-5.4 1-4.7.6Zm-28.8-2c-.2-.3 1.6-.8 2-.5.2.2-.6.8-1.3.8-.3 0-.6-.1-.7-.3Zm-34-1.1-1.4-.4c-.2-.2 2.2-.6 4-.6l3.2-.2c1-.2 1.5-.1 1.3 0-.2.2-.7.3-1 .3-.4 0-.8.2-1 .4-.4.4-3.6.7-5.1.5Zm95.7-6.9c2-.6 2.3-.7 2-.4-.1.2-.9.4-1.6.6-1.4.2-1.4.2-.4-.2Zm-70.8 2c-.5-.1-.5-.2-.1-.6.7-.8.5-1.1-.8-1-1.4.2-2.4-.4-1.5-.8.3-.1.4-.4.3-.8-.2-.6.6-.8 1-.2.1.2 0 .2-.2.1s-.3 0-.3.2c0 .5 2 1.1 2.4.7a5 5 0 0 1 1.9-.4c1-.1 1.7-.4 1.9-.6.2-.4.3-.4.6 0 .2.4.7.4 2 .3 1.6-.2 1.8-.2 1.6.3-.1.3 0 .5.5.4.4 0 1.3 0 2 .2 1 0 1.4 0 1.3-.3 0-.2.1-.3.3-.2l2.4-.2c1.1-.2 3.4-.3 4.9-.2 1.8.1 3 0 3.3-.2l3.1-.6c1.4 0 2.7-.3 3-.5.2-.1 1.5-.4 2.7-.5 1.5-.2 2.5-.5 2.9-.8.4-.4.6-.5 1-.2.5.4 3.9 0 5.5-.6a8 8 0 0 1 3.4-.4c1.9 0 2.5-.1 3.5-.7 1.3-.7 2.6-.6 2.3.1 0 .2-.5.4-.9.5-.6 0-.7.1-.6.6.2.5 0 .6-.8.8-1 .2-1 .2-4.4.4-1.5.1-2.7.4-3 .6-.4.5-2.3.6-2.3.1 0-.1-.2-.2-.4 0l-1.3.2c-.6 0-1.1.2-1 .3 0 .2-.4.3-.7.2-.4-.1-.6 0-.6.1 0 .2-.3.4-.7.4-1 0-6.5.8-9.2 1.3-1.2.2-4.4.5-7 .5-8.4.3-10.3.4-11.4 1-.9.4-3.2.6-3 .2l-.7-.5c-.6-.3-.8-.2-1.3.3-.4.6-.6.7-1.6.5Zm74-3c-.1-.1 0-.4.2-.5.2-.1.3 0 .3.1 0 .2-.1.4-.3.5h-.3Zm-80.6 2.8h-2.7c-1 .2-1.5.1-1.5 0 0-.3.2-.4.5-.5.5 0 .5 0 .1-.3-.7-.4-1.2-.3-1.2.2 0 .3-.1.5-.3.5-.2 0-.3-.2-.3-.4 0-.3-.3-.5-.6-.5-.5 0-.5 0 0-.3l3.3-.2c2.2 0 2.7.1 2.7.5s.3.6 1 .7c.4 0 .7.2.5.3h-1.5Zm2 0c0-.2.3-.4.6-.5h.6c0 .2.6.4 1.4.4 1 0 .9.1-.7.2l-1.9-.1Zm-39.6.3c.2-.2.8-.4 1.2-.4 1 0 .7.1-.6.4-.7.2-1 .2-.6 0Zm20.2-1c-.3-.6 0-.8.4-.3.3.2.3.5.1.6-.2.1-.4 0-.5-.3Zm7.3 0c0-.5.8-.8 1-.5.2.1 0 .4-.3.5-.6.2-.7.2-.7 0Zm1.8-.2c.2-.1.3-.3.2-.4-.2 0-.1 0 0 0h1c.2 0 .3.2.2.3 0 .2-.5.4-1 .4-.6 0-.7 0-.4-.3Zm58.7-3c.2-.2.4-.3.5-.2.1.1 0 .3-.4.4-.4.2-.4.2-.1-.1Zm-67.5 2.1c-.6-.6-.6-.6 0-.6.5 0 .8.2.8.6l-.1.6-.7-.6Zm-39.2 1.6c-.4-.1-.5-.3-.3-.4h.7c.2.1.6.2.9 0 .3 0 .4 0 .2.2-.2.4-.6.5-1.5.2Zm28.8-1.3c0-.3-.2-.7-.5-1-.6-.5-.6-.5 0-.3a88.5 88.5 0 0 1 5.5.8 4 4 0 0 1-1.7.3c-1-.1-1.4 0-1.4.2s-.4.4-1 .4c-.5 0-.8-.1-.9-.4Zm21.7-.7c-.9 0-1-.1-.5-.3.7-.3 2.4-.1 2.2.2-.1.2-.3.3-.4.3l-1.3-.2Zm-5.4-.1c-.2-.2 0-.3.4-.4.4 0 .6.2.5.3-.1.2-.3.4-.5.4l-.4-.3Zm7.5-.3c0-.2.2-.3.3-.3h.3c0 .2 0 .3-.3.4-.1.1-.3 0-.3-.1Zm-63.3 2.2c-.5 0-1-.2-1-.4 0-.1-.5-.2-1.1-.2-2.3.3-3.4.2-3-.2.3-.4 3.5-.6 5-.4h2.6c1.1 0 1.7.2 1.6.4 0 .1-.5.3-1 .3-.3 0-.7.2-.7.3 0 .3-.4.4-2.4.2Zm18.2-.6.3-.3c.2-.2.3-.1.3 0 0 .3-.1.4-.3.4l-.3-.1Zm69.5-3.3c.4-.3 1.2-.5 1.8-.6 1.6 0 .8.5-1 .8-1.5.3-1.5.3-.8-.2Zm-127.6 4.2a7 7 0 0 1-1.8-1.1c-.5-.7-.5-.7.2-1 .8-.4 2-.2 2.1.3 0 .3-.3.6-.6.7-.6.2-.6.3-.2.5.3.2.8.2 1 0 .8-.2 1.5.2 1 .7-.2.2-.7.2-1.7-.1Zm2.2.3h.6c.3 0 .2.1-.2.1-.3 0-.5 0-.4-.1Zm82.6-3.3c-.1-.2-.2-.5 0-.6.2-.3.5.1.4.6-.1.3-.2.3-.4 0Zm-32.8 1h.6c.2 0 .1.2-.2.2-.4 0-.5 0-.4-.1Zm19.9-1c-1.2-.3-.5-.7 1-.7 1 0 1.7 0 1.9-.3 0-.2.2-.3.3-.2.7.6-1.6 1.4-3.2 1.1Zm11.6-.6c.2-.3.1-.4-.2-.2-.3.1-.5 0-.6-.1 0-.4.9-.4 1.1 0 .1.1 0 .3-.1.5-.3.1-.3 0-.2-.2Zm13-.4c-1 0-1.7-.2-1.7-.4s-.4-.3-.8-.2c-1.4.4-.7-.6.7-1.1 1.7-.6 3-.8 3-.6-.1.2-.4.3-.6.3-.2 0-.7.3-1 .6-1 .8-.4 1.1 1 .5.6-.3 1-.4 1-.2 0 .1.2.5.6.7.6.5.6.5 0 .4H233Zm69.4-2.9c0-.1-.2-.2-.5-.2-.8 0-.6-1.2.2-1.4 1-.3 1.5 0 1.2.7-.3.7-.2.8 1 .6.4 0 .5 0 .4.2-.2.4-2.3.5-2.3.1Zm3.3-.5c-.2-1 1-2 2-1.5.2.2.8.2 1.2.1 1.7-.4 4.3-.6 4.1-.3l-2.2.7c-1 .2-2.5.7-3 1-1.4 1-1.9.9-2.1 0ZM187.4 212c-.1-.2 0-.4.2-.4.6 0 .7.2.3.5l-.5-.1Zm15.1-.6c-.1-.2 0-.3.3-.4.5 0 .6.2.2.5l-.5-.1Zm26.2-1c-.2 0-.3-.2-.2-.4.1-.3 1 0 1 .3s-.2.4-.8.1Zm17.5-.7c-.3-.3-.3-.3.3-.4.4 0 .6.2.5.3-.2.4-.2.4-.8 0Zm-61.7 2.1c-.4 0-.7-.2-.7-.4s.3-.2.7-.1l1.2.1c.3 0 .6 0 .6.2 0 .3-.7.4-1.8.2Zm51.5-2.5c0-.3.2-.5.5-.5.4 0 .4 0 .1.5l-.5.4v-.4Zm-43.2 1.2c-.6-.3.2-.6 1.5-.7.8 0 .9 0 .5.5-.5.5-1.4.6-2 .2Zm25.7-1.3-1.5-.2c-.4 0-.8-.2-.8-.3 0-.2.7-.3 1.6-.2 2 .1 2.4.2 2.4.6 0 .4-.8.4-1.7 0Zm-68.8 2a8 8 0 0 0-2-.6c-.7-.1-1.4-.3-1.6-.5-.3-.2-.8-.2-1.2-.1l-1-.1-1.4-.2c-.8 0-1.6-.2-2.1-.6-.7-.4-.7-.5-.3-.6.3 0 .5-.1.4-.3-.1-.1 0-.4.3-.6.7-.3 2.3-.4 2.3-.1 0 .1.7.2 1.6.1 1.3 0 1.6 0 1.8.5 0 .4-.1.5-.8.5-1.3 0-.4.7 1.1.8.7 0 1.3.3 1.3.4 0 .1.2.2.5 0 .2 0 .5.1.6.4.1.3.4.4.7.3.5-.1 2 .6 2 1s-1.6.2-2.2-.2Zm171.4-6.6c-.1-.2 0-.3.4-.4.4 0 .7.2.7.3 0 .2-.2.3-.5.4l-.6-.3Zm-97.4 3.1c.3-.2.6-.2.8 0 .2 0 0 .2-.5.3-.8 0-.8 0-.3-.3Zm-63.9 2.1c-.3-.2-.5-.4-.4-.5 0-.1-.3-.1-.8 0h-1c-.2-1.3-.1-1.7.2-1.8l-.2-.3h-.7c-.4.5-1.6.5-1.9.2 0-.2-.7-.4-1.3-.5-.6 0-1-.2-1-.4 0-.1-.3-.3-.7-.4-.4 0-.5-.3-.4-.7 0-.5.3-.6 1.2-.6 1.4 0 1.1-.6-.4-1-1-.1-1.3-.3-1.2-.7.1-.7 0-.7-.9-.2-.4.2-.7.3-1 0h-1.1l-2.7-.5-2.4-.6c-.3 0-.9-.4-1.3-.8a3 3 0 0 0-2.8-.8l-1.3-.4c-.6-.3-1.5-.4-1.9-.3h-1c-.2-.5-1-.3-1 .2 0 .2.3.4.6.4.4 0 .7.1.8.3.4.5-3.3.4-4.4-.2-.6-.3-1.3-.4-1.5-.3l-.4-.1c0-.5-2.8-1-3.5-.6-.7.4-1.6.5-1.4 0 .1 0 0-.3-.4-.4-.6-.1-.7-.6-.3-1.2 0-.2-.1-.7-.5-1.1-.8-.9-1.6-1-4.6-1.3-.4 0-.4 0-.1-.3.6-.4-1.3-1-2-.5-.3.2-.9.1-1.9-.3l-2-.6c-.5 0-1 0-1-.2l-3.2-1c-1.5-.4-3-1-3.3-1.2-.3-.3-.8-.4-1.2-.4-.4.1-1 0-1.5-.2-.4-.2-1-.2-1.2-.1-.9.3-2.3 0-2.4-.7 0-.4-.1-.5-.5-.3-.3 0-.4 0-.3-.2.2-.4-.3-.6-2.3-.8-1 0-2-.4-2.5-.8-1-.7-1-.7-1.9-.2-.8.6-1 .6-2 .1l-1.5-.4-1.4-.4c-.7-.4-1.1-.4-1.7-.1-.9.3-.9 1.3 0 1.5.4 0 .8.2 1 .3.3.4 1.7.3 1.6 0 0-.2-.2-.4-.5-.4-.5 0-.5 0 0-.2.7-.2 1.8.4 1.8 1 0 .2.3.4.6.4s.7.1.8.3c.2.2.8.2 1.5 0a7 7 0 0 1 3 .2c.8.2 1.6.3 1.8.2l-.2.3c-.5.7-.4.8 1 1 .6.1.9 0 .8-.1-.2-.2 0-.4.2-.5h.6c.1.2 0 .4-.2.5-.6.2 1.4 1.6 2.6 1.8.5.1 1 .3 1 .5 0 .1.3.2.8.2.4 0 .7.1.8.3 0 .3 2 .5 2.2.1 0-.1 1 .1 2 .7 2.3 1.1 2.4 1.2 1.2 1-1.5-.2-2.3-.4-2.3-.7 0-.2-.7-.3-1.4-.3l-2-.1c-.8-.4-2.6-.6-2.4-.3.2.2 0 .3-.4.3s-.6-.2-.6-.4c0-.3-.2-.5-.5-.5a2 2 0 0 1-.8-.2c-.4-.3-.4-.4 0-.6.3-.3 0-.3-1-.3-1.9.1-3.4-.2-6.2-1.4-1.3-.6-2.8-1-3.4-1.2-.6 0-1-.3-1-.4l-.8-.4c-.4-.1-.8-.3-.8-.5s-.7-.3-1.5-.2c-.9 0-1.7-.1-1.8-.3 0-.1-.5-.3-1-.2-.8 0-.8 0-.2.4.4.3.5.5.4.5l-1 .3-.8.2c-.6.2-1 0-1.2-.4-.2-.4-.5-.6-.7-.6-.9.2-1.5 0-1.4-.2.1-.2 0-.4-.2-.5-.2 0-.1-.1.3-.2l1.5.4c.7.3 1 .3 1.3 0 .4-.3.3-.4-.1-.7-.3-.2-.5-.5-.3-.7.1-.3.3-.3.6 0 .2.2.7.3 1 .2l1.6.1c1.8.4 2-.8.2-1.8a4 4 0 0 0-1.4-.4l-1.9-.5c-1.6-.5-3-.2-2.6.5.1.4 0 .5-.3.4-.7-.2-1 .1-.5.6.3.3.2.4-.3.4-.3 0-.6-.1-.6-.3 0-.2-.2-.2-.4 0-.2 0-.2 0 0-.5.2-.4.2-.9.1-1-.1-.2 0-.5.4-.8.7-.6 0-1.3-1.7-1.5-.7-.1-1-.2-.9-.3.7-.3.4-1-.8-1.7-1.3-.8-3.9-1.5-4.6-1.2h-.5c0-.4-1.6-1-2.6-.9l-1 .1 1 .4c1.6.6 1 1.1-1 1-1-.1-1.9 0-2.2.2-.4.2-.6.2-.7 0 0-.2-.4-.2-1 0-.6.3-1 .3-1.2.1-.4-.4-.8-.4-.8 0 0 .2.2.3.4.3.3 0 .7.3 1 .6.7 1 2.1 1.8 3 1.7.5 0 1.4.3 2.1.6.7.3 1.6.5 2 .5.3 0 .6.1.8.3 0 .2.4.3.6.3.8 0-.1-.9-1.2-1-.5-.2-.9-.3-.9-.5 0-.5 1-.6 1.8-.2 1.7.8 3 1.3 3.5 1.3s1.6.6 1.6 1l-.7.2c-.4 0-.5 0-.3.2.8.2 0 .7-1.1.7-.8 0-1.5-.1-1.8-.4-1-.9-3.9-.4-4.4.7-.3.6-.3.6.8.4.7-.2 1-.1 1 0 0 .2.4.5.8.6l.7.2-.7.3c-.5.3-.8.3-1 0-.1-.3-.5-.3-1-.2h-2c-1.1 0-1.3-.2-1.4-.8 0-1 .3-1.7 1-1.7.3 0 .5-.2.5-.3 0-.2.2-.3.5-.4.3 0 .4-.1.3-.4 0-.2-.7-.3-1.6-.3-2.5 0-3.1 0-2.7-.3.4-.3-.4-1-1.5-1.4-.4 0-.9-.3-1.1-.5a29 29 0 0 0-2.6-1.7c-1.1-.8-2-1.4-1.8-1.6h.6l.7-.5c.5-.5.4-.6-1.3-.7-1 0-2-.3-2.4-.5-.6-.4-.5-.4.2-.7a4 4 0 0 1 1.2-.1 2 2 0 0 0 1-.3h1.5c.7.3 1 .3 1 0-.1-.8-2.5-2.1-3-1.8-.2.2-.3.1-.2 0 .3-.5-1.3-1-2-.8-.8.2-.7 1 .2 1.5l.7.4h-.7c-.4 0-.8.4-1 .7-.4.6-.5.6-1.5.2-2.5-1-2.8-1.1-3-1.7-.3-1 .3-1.3 2-.8 2 .7 2.1.6 2-.7 0-1 .2-1.5.8-2.3l.8-1-1-.4a5 5 0 0 0-1.3-.3c-.7 0-3.5-1.3-4-1.9-.1-.2-.6-.5-1-.6-.7-.2-.8-.6-.4-1.4.4-.6-.3-1-1.2-.6-.6.1-.9 0-1.3-.5-.6-.7-1.4-.5-1.1.2.1.3 0 .4-.7.1a12 12 0 0 0-2.8-.2c-1.5 0-1.9 0-1.8.4.3.6-.6.4-3-.6-1.3-.6-2.7-1-3.2-1-.9 0-1-.4-.2-.7.3-.2.1-.3-.9-.5-1.5-.2-1.7-.3-1.5-.8.4-.6 1.7-.4 2.4.2.4.3.8.5 1 .4.4-.3 1.8.4 1.8.8 0 .6.8.8 1.8.5 1-.3 1.1-1.3.2-1.7-1.1-.5-.6-1.1 1-1.2.8 0 1.1-.2.7-.2-.4 0-.7-.3-.7-.6s.4-.4 1.5-.5c.9 0 1.6.1 1.6.3 0 .1.3.3.7.4l1.1.6c.4.4.3.5-.2.5h-.7l.7.7c.4.4 1.2.9 1.7 1l1.8.8 1.3.4 1.4.4c1.2.6 2 .5 2.7-.3.5-.6.5-.6-.6-.6-.9 0-1.1 0-1-.4.2-.5-.4-1-1-1-.7 0-2.8-1.5-3.2-2.4-.5-.9-2-1.8-2.9-1.7a4 4 0 0 1-1.4-.4c-.5-.3-1.2-.5-1.5-.4-.3 0-.6-.2-.6-.3 0-.2.8-.3 1.7-.3 1 0 1.7 0 1.7.2l.4.2 1.7.6c.6.3 1.5.5 1.9.5.3 0 1.2.2 1.9.5l2.2.6c1.5.2 1.7.9.4 1h-1l.7.5 1.4 1c.3.3.6.5.8.5l1.8.6c1.4.5 1.8.5 2.1.2.3-.2.4-.5.3-.7-.2-.3 1-.7 2.2-.7 1 0 1.8.6 1 .6-.5 0-.4.2.4.5 1 .4 1.6.3 1.5-.4 0-.4.2-.4 1.3 0 1.4.4 2.5.5 2.5.1 0-.1.7-.6 1.5-1 1-.7 1.4-1 1-1-.7 0-1.4-.6-.9-.6.2 0 .4-.3.5-.7 0-.3.4-.6.8-.6s.6-.2.4-.2a.7.7 0 0 1-.4-.6c0-.6-2.2-1.5-2.5-1.1-.3.4-3 .5-3.5 0-.5-.4-1.5 0-1.5.6l-.1.8c-.2.2-1.4-.3-1.7-.7l-.8-.5c-.6-.3-.6-.3-.1-.4 1 0 .5-.5-1.4-1.2-1-.3-1.8-.8-1.7-.9 0-.1.4-.2.7 0 .3 0 0-.3-.5-.8-.9-.8-1-1-.5-1 .3 0 .8-.2 1-.5.2-.3.1-.4-.7-.6-1-.2-1.6-.7-.7-.7.4 0 .7-.2.8-.4 0-.3.1-.3.2 0 0 .1.3.2.6.1.4-.1.6 0 .6.2 0 .1.4.2.7.1l1-.1c.1 0 .1-.2 0-.4 0-.1.1-.3.4-.3.4 0 .7-.2.8-.3.1-.2-.1-.3-.6-.3-.4 0-.8-.1-.8-.3 0-.2-.2-.3-.4-.3l-2.8-1c-2.2-1-2.7-1.1-3.4-.9-.4.2-.7.6-.7.8.1.2.1.3 0 .2-.3-.5-1.2-.2-1.7.5-.3.5-.5.6-.8.3-.3-.2-.8-.2-1.2-.1-.5.1-.6 0-.5-.3.1-.3-.2-.5-1.2-.7-1.2-.3-1.4-.4-1.3-1 .2-.7-.1-.8-1.7-.9-.8 0-1.3-.1-1.3-.2l-.8-.5c-.7-.3-.7-.3.2-.4 1 0 1.5-.7.6-.6-.4 0-.7-.2-.8-.5a.8.8 0 0 0-.7-.4c-.4 0-.5-.2-.4-.6.2-.4 0-.6-.5-.7-.4 0-1 .1-1.2.3-.3.2-.7.1-1.2-.2l-.7-.4.7-.6c.4-.5.6-.5.8-.2.3.4 1.6.7 1.6.3 0-.2-.2-.3-.5-.3-.5 0-.5 0 0-.3.6-.3.6-.3 0-.6-1-.4-.3-.8.8-.5 1 .4 1.2 0 .4-.5-.5-.4-.5-.6-.2-.6l.9-.3.7-.5-.7-.6c-.6-.5-.6-.6-.3-.8.2 0 .7-.4 1.1-.8.7-.6.7-.7 1.1-.2.3.3.8.6 1.3.6.8 0 .8 0 .3.2-.3.2-.7.2-.9.2-.2-.1 0 .2.6.6.7.6 1 .7 1.3.4.3-.2.4-.7.3-1l.1-.7c.2-.1 0-.4-.2-.6-.6-.4-.4-.4 1-.3 1.6.1 2.5-.4 1.3-.7-1-.3-.8-.8.3-1.6 1-.6 1-.6.3-.8-.4-.1-.8-.5-1-1-.2-.3-.7-.8-1.1-1-.8-.4-.8-.5-.4-.8.5-.4.5-.4 0-.6l-1.6-.3c-.6 0-1.4-.3-2-.6-.5-.4-1.1-.6-1.4-.6-.8 0-1.4-.3-1.3-.8.2-.4 0-.5-1.5-.4-.9.1-1.2-.3-.4-.7.3-.1.4 0 .3.2-.1.2 0 .2.4 0 .6-.1 1.8.2 3.5 1l1.5.4c.6.1 1 .3.9.4-.1.2 0 .4.4.5 1 .4 3.2.6 3.3.3.1-.2.4-.3.8-.3.3 0 .6-.3.7-.5.1-.3.4-.5.7-.4.2.1.8 0 1.2-.3.7-.6.8-.5 2.4 0l2.6.8c1 .1 1 0 1-.7 0-.5-.2-.8-.5-.8s-.5 0-.5-.3c0-.1-.4-.3-.8-.2a3 3 0 0 1-1.4-.3c-.4-.2-.4-.3 0-.3.3 0 0-.5-.8-1-.7-.6-1.5-1-1.8-1-.5 0-.8-.6-.3-.7 1-.1 2.1-.7 1.3-.6-.2 0-.2-.3-.2-.7.1-.4 0-.6-.6-.6-1.8 0-2.2-.3-1.8-1.2.4-.8.2-1-1.1-1a3 3 0 0 1-1.6-.5c-.6-.5-.6-.8 0-.6.2 0 .5-.1.7-.5.2-.5.1-.7-.7-1.5-1-1-2.5-1.2-7-1.2-2.5 0-4.5-.2-4.5-.6 0-.2-.3-.2-.6 0-.3 0-.6 0-.6-.2 0-.4.8-.6 3.2-.7 2.2-.1 2.7-.3 2-.8-.4-.2 0-.3 1-.3 1.8 0 4 .3 4.2.7l.9.6c.5.3.3.3-1.1.2h-1.5c.3.4 3.8 1 4.8.9l.9-.2-1-.2c-1.2-.2-1.6-.9-.8-1.3.4-.3.4-.4 0-.4-.9 0-1 0-1.8-.3-.4-.1-.7-.3-.7-.4.1-.8-.1-1-1-1-1.4 0-4.7-.7-5.5-1.3-.4-.3-1.2-.6-1.8-.7-.6 0-1.2-.3-1.4-.5-.3-.4-.1-.5 1-.7.7-.1 1.3-.4 1.4-.6.3-.5 6.7-.7 7.2-.3.2.2 1.1.3 2 .3 1 0 1.5-.2 1.2-.3-.5 0-.5-.1.1-.9.4-.4 1-.7 1.3-.8.7 0 1.4-.5 1.4-1l-1-.2c-.8 0-1 .1-.6.3.3.2.4.3.2.3-.8 0-.8-.5 0-1 .5-.4 1-.5 1.7-.4.7.1 1 0 .8-.2 0-.2-.3-.4-.6-.5l-1.1-.3c-.5-.3-.5-.4.2-.4h1l.7-.7c.6-.7 1.5-.9 1.7-.3.1.3.3.3.9 0 .9-.5 3.6-.2 3.5.3 0 .2.4.5 1 .7 1.5.3 2.4.3 2.2 0 0-.3.2-.4 1-.5.4 0 .4 0 .1.3-.3.2-.3.3 0 .4.6.2 1-.6.5-.9-.2 0-.1-.4.2-.8.3-.3.4-.6.3-.6v-.3c.1-.2.3-.2.5 0 .1.3.3.4.5.1 0-.2.4-.4.8-.6.5-.2.4-.3-.7-.4-.7-.2-1.3-.1-1.4 0 0 .3-.5.3-.9.2-.7-.1-.7-.1-.2.3.6.4.6.4 0 1-.7.9-1.5 1-3.3.4-.8-.2-1.6-.3-1.8-.2-.3.1-.5 0-.5-.1 0-.2-.3-.4-.7-.5-.7-.2-.7-.2.2-.5.5-.2 1.2-.3 1.5-.2.3 0 .5 0 .5-.2s-.2-.3-.5-.3-.5-.2-.4-.6c0-.5.3-.8 1-1l.9-.1-.9-.7c-1.3-1-1.1-1.4.6-1.5 1.2-.1 1.5 0 1.4.3-.1.4 0 .6 1.3.8.6.1.8 0 .6-.3-.2-.4.3-.6 1.5-.5.3 0 .5-.1.5-.3 0-.2-.2-.3-.5-.3s-.4-.2-.3-.6c0-.4 0-.6-.4-.6-.2 0-.3-.2-.2-.3 0-.2-.2-.3-.5-.3-.6 0-.6 0-.4-.4.3-.4.3-.5-.1-.6-.4-.2-.4-.3.2-1 .6-.7 1-.9 1.6-.8.6.1.5 0-.5-.4s-1.3-.6-1-1c.2-.2.5-.2 1.2.2 1 .5 1 .5 1-.4v-1c-.5-.2-.3-1.2.1-1.2.3 0 .4.1.3.3-.1.1 0 .3.1.4.2.1.4 0 .4-.2 0-1 1-1.7 2.6-1.7 1.1 0 1.8-.2 1.8-.5 0-.2.4-.4.8-.4.5 0 .5 0 .2.5-.3.4-.3.5.2.8 1 .5 3.7 3.3 3.4 3.5-.3.2.3.6.8.6.4 0 0-1.2-.4-1.8-.4-.6-.5-.8-.2-1 .5-.3-.1-.6-.7-.4-.3.1-.5 0-.5-.1 0-.2 0-.3.2-.2.2 0 .4-.4.5-1.1.1-.9.3-1.3.7-1.3.7 0 1.6-.9 1.4-1.2-.1-.2-.7-.4-1.3-.5-.7-.1-1-.3-.9-.6.1-.3.5-.4.8-.4 1 .1.9-1-.1-1.3-1-.2-1-1 0-1.2.5 0 .8 0 .9.3 0 .3.5.4 1.9.3 1.6 0 2-.1 2.3-.8 1.2-2 1.3-2 2.7-1.7 1 .3 1.4.3 1.7 0 .3-.3.2-.5-.3-.8-.3-.2-.5-.4-.4-.5a8 8 0 0 1 2.8-1.3c1 0 1.5-.5 1.3-1.3 0-.6 0-.8.8-.9.4 0 .8 0 .8.2s.4.3.8.3.8-.2.8-.3c0-.2-.2-.3-.4-.3s-.1-.3.2-.7c.3-.3.8-.6 1-.6a5 5 0 0 0 1.9-.7c2.2-1.2 2.3-.8.6 1.6l-1.1 2c0 .3-.1.4-.2.4-.8 0-1 .6-.7 1.3.3.4.3.6 0 .6-.1 0-.2.2-.1.3.1.2 0 .3 0 .4-.5 0-.4 1 .1 1.4.8.8 3.6 0 3-.9 0-.2 0-.5.3-.7.2-.2.5-.2.6 0 .3.3.2 2.1-.1 2-.2-.1-.8.1-1.5.5-1.3.8-1.6.9-1.4.4.2-.2-.1-.3-.6-.3-.6 0-.8 0-.7-.4.2-.4 0-.5-.5-.5-.3 0-.8-.2-1-.5-.4-.5-.4-.4-.4.3 0 .4.3.9.6 1 .4.4.9 3.4.5 3.1-.2 0-.5 0-.7.2-.3.2-.2.4.6.6l1 .4-.7.5c-.6.6-.6.6.3.3.5-.1.9-.4.8-.6 0-.2.1-.4.4-.4.4 0 .3-.1-.2-.6-.8-.8-.9-1.5-.2-1.5.2 0 .4-.2.4-.4s.2-.3.5-.2c.2.1.5 0 .6-.1.4-.6.8 0 .8 1.2 0 1.3.7 2 1.5 1.6.5-.2.5-.2 0-.6-.6-.4-.5-.4.6-.5 1.2 0 1.4-.1 1.5-.8.2-.9 1.1-1.9 1.6-1.6.1 0 .4 0 .5-.2 0-.2-.2-.3-.6-.3-.4 0-.5 0-.3-.2.3-.1.3-.2-.2-.5-.9-.6-1.2-1.6-.4-1.5.4.1.5 0 .4-.5-.2-.6.3-1 .6-.4.4.7.7.3.5-.7l-.2-1 1 .8c.5.5 1 .8 1.3.8.5 0 .7.6.4 1.3-.2.4-.2.6.1.6.3 0 .3 0 0 .3-.3.2-.4.3-.2.3l.7-.4c.2-.3.6-.2 1.5.3 1.4.8 1.5.7 1.9-.3.4-1 0-1.3-1.1-1.3-.4 0-.7 0-.7-.2s.2-.4.4-.4c.3 0 .4-.1.3-.2-.2-.4 1.2-1.2 1.8-1 .3.1.5.6.5 1.6 0 1.2.2 1.4.6 1.3.4 0 1-.8 1.2-1.5l.9.4c.5.2 1 .3 1.2.1.3-.2 1.7-.7 2.3-.8l.8-.6c.2-.4.7-.6.9-.5.2 0 .7-.4 1-1.3.4-.7.9-1.4 1.1-1.4l.4-.2c0-.2.6-1 1.5-2 .8-1 1.4-2 1.4-2.1 0-.2.4-.5.8-.8.6-.3.7-.4.4-.6-.3-.2-.2-.3.3-.6.4-.3.6-.6.4-1-.2-.7.9-2.5 1.5-2.5.3 0 .9-.6 1.4-1.2.6-.7 1-1 1.2-.8.4.3.1 1.2-.7 2.3a41.7 41.7 0 0 0-4.3 6.8c-.2.7-.5 1.3-.7 1.3-1 0-1.4.2-2 1.1-.8 1.2-1.4 3.3-.8 2.5.6-.6 1.6-.5 1.8.2 0 .4.4.6 1 .6.3 0 .6.1.5.3-.1.2-.4.3-.8.3-.3 0-.6.3-.7.5-.1.3-.4.5-.7.4-.4 0-.8 0-1.1.2-.4.2-.5.2-.5-.2 0-.6-.6-.6-.8.1l-.3 1c-.2.4 1.1.6 1.8.2.7-.4.7-.3 1 .6.2.5.1.7-.2.7-1 0-.7.5.3.5.6 0 1.2-.2 1.7-.6.7-.7 1.8-1 1.8-.4 0 .2-.1.3-.4.4-.7.3.1.7 1.5.7 1 0 1.4-.2 1.5-.5.1-.2.4-.4.7-.4.6 0 .6-.5 0-.7-.4-.1-.4-.3-.2-1 .5-1 .6-1 1.4-.2.4.5.5.7.2.8-.2.1-.4.4-.4.7 0 .2.2.3.4.2l1-.4c.6-.2.6-1 0-1s.8-.6 1.6-.7c1 0 .9.7 0 1.2-.5.3-.8.6-.8.7 0 .2-.2.3-.5.3s-.8.3-1 .7c-.4.3-.8.6-1 .6-.2 0-.4.3-.4.6 0 .8.3.8 1.2 0a2 2 0 0 1 1.5-.7c.6 0 .9-.1 1-.7.2-.4.2-.8.2-1-.1-.3.5-.8.9-.8l.2.4c0 .2.6.6 1.3.9 1.3.4 1.6 1 1 1.7a3 3 0 0 0-.6 1.1c-.2.6 0 .7.4.7.3 0 .7-.2.8-.5.1-.4.3-.3 1 .1.5.4 1 .6 1.2.6.2 0 .4.2.5.5.1.2.4.3.7.2.3-.1.4-.3.1-.7-.2-.4-.2-.6 0-.8.3 0 .2-.1 0-.1-.4 0-.6.1-.7.3 0 .2-.4 0-.9-.4-.4-.4-1-.8-1.2-.8-.3 0-.3-.2-.2-.5l.1-.7a13 13 0 0 1 2.9-2.3c.4 0 0 .6-.4.7-.5.2-.5.2 0 .4.4.1.9 0 1.2-.1a3 3 0 0 1 1.4-.5c1 0 .8.8-.3 1-.5 0-1 .2-1.1.4-.1.2-.7.4-1.2.4-1 0-1 0-.4.4.4.3.5.4.1.4-.3 0-.1.2.3.5.5.2 1.1.3 1.5.2.7-.2.7-.2.4.6-.2.8-.2.9.5.7.6-.2.8-.1.8.2 0 .3.2.5.5.5s.4-.2.3-.4v-.3c.2 0 .5.3.7.6.3.5.3.6-.1.8-.4.2-.4.3.2.7.8.7.9 1.3.2 1.3-.4 0-.5.1-.2.3.3.3.6.3 1.2 0 1-.6 2.8-.3 3.1.5.1.3.4.6.7.6.3 0 .7.1 1 .3.3.3.5.3 1 0 .3-.3.6-.3.7-.2.1.2.5.2.8.1.5-.1.8-.8.6-1.7 0-.1 0-.2.2-.2.1 0 .3 0 .3-.2.1-.2-.4-.4-1.1-.4-1.2 0-1.3-.1-1.4-.8 0-.5.2-.7.6-.8.6 0 .6-.1.4-.5-.4-1-.6-2.9-.3-2.9.2 0 .5.5.6 1.2.4 2 .7 2.7 1.4 2.5.3 0 .7-.4 1-.7.2-.4.5-.6.7-.6.5 0 2.1-1.6 1.9-1.9-.4-.3.7-1.3 1.5-1.4.4 0 .7-.1.7-.3 0-.2.3-.3.6-.3.6 0 .6 0 .3.6-1 1.8-.6 3.2.8 2.5.4-.2.5-.4.3-.4-.6 0-.5-.5.2-1 .8-.4 1.8-.1 2 .5 0 .5 0 .5 0 0 .2-.7 1-.7 1.1-.1 0 .3.2.5.4.4.6 0 0 .5-.7.6-1.2.2-1.5.4-1.3.9.1.3 0 .6-.5.8l-1 .8c-.2.4-.8-.4-.7-1 .1-.3 0-.3-.4 0-.4.2-.6.5-.6.6 0 .2 0 .5-.2.8-.1.5 0 .5.4.4.7-.4 3 .2 3 .7 0 .3.3.6.6.8.5.2.6.2.6-.3 0-.4 0-.9.2-1.1 0-.4 0-.5-.5-.5-1 0-1-.5 0-.7l1 .1c.2.2.3.1.5-.1.2-.4.2-.3.3 0 0 .3-.2.8-.5 1-.3.5-.4.7 0 1.2.1.4.5.6.7.5.7-.3.8.5.3 1.7-.4.9-.6 1.1-1.1 1-1-.2-1.3.5-.4.7.4 0 1 .4 1.3.7.3.3.9.6 1.2.6.3 0 .6.1.6.3 0 .2.1.3.2.2.1-.1.5 0 .8 0 .6.3.7.3 1-.2.2-.4.3-.4.6.2.2.4.7.8 1 1 .6.3.6.4.3 1-.3.9-.3.9-.4.2 0-.8-.1-.8-1-.4-.7.3-.7.3 0 .5.8.2 1 .6.4.9-.4.3-.3.7.4 1 .8.1.8.7 0 .7-1 0-1.3 1-.7 1.8v1c0 .4 0 .6.3.6.6 0 1 .8.5 1-.2.1.1.2.8.2l1.7.1c.4.2.5.1.3-.3s0-.5.5-.5 1-.3 1.3-.5c.5-.6 1-.4 1 .3 0 .4.4.5 2.1.2 1.1-.1 2.2-.4 2.3-.5a11 11 0 0 1 3.5-.3c2.8 0 3.2 0 3.2-.5 0-.6.6-1 1-.6.2.2.6.4.9.4.3 0 .8.3 1 .7.4.4.8.7 1 .7.3 0 .5.1.5.3 0 .6-1.5 1.6-2.9 1.8-2 .4-1.6 1 .6 1 2.8 0 3 0 1.7.5-.7.3-1.5.5-1.8.5-.8 0-.6.6.2.8 1.8.3 6.6.4 6.8.1.2-.3 2.3 0 2.6.3 0 .2-.2.4-.7.5-1.6.4-1.5.5.5.3 2.3-.2 2.7.4.5.8a2 2 0 0 0-1 .4c-.3.4 3.2-.3 3.6-.7.4-.3.5-.3.6 0 0 .2.4.4.7.4.7 0-1.1 1-2.4 1.3a28 28 0 0 0 6.7-.4c1.2-.2 2-.1 2 0 .3.4 3.1.4 3.5 0 .1-.1 2.5-.3 5.2-.4a52.4 52.4 0 0 0 12.8-1.7c.7-.7 5.6-1.3 6.6-.8l1.1.4c.3 0-.4.3-1.5.6l-2 .5 5-.1a192 192 0 0 0 15-.8c0 .2-.3.3-.6.4-.4.1-.3.2.2.2.4 0 .7-.2.8-.3.3-.5 1.1-.4 1.1 0s.4.5 1.5.4c1.3 0 1.4 0 .6-.5-.6-.3-.5-.4 1.1-.3 1.2 0 2.2-.1 2.7-.4.5-.3 1.8-.7 3-.9a22 22 0 0 0 3-.7c.4-.2 1.6-.4 2.5-.4 1.8-.1 4.4-1 2.8-1-1.5 0-.3-.3 2-.6 2.7-.2 4-.7 4.3-1.3.2-.6 1.8-.6 1.8 0 0 .2-.2.5-.5.5-.4 0-.7.2-.8.4 0 .2-1 .5-1.9.7a25 25 0 0 0-5.5 1.6l-1.4.3c-.4 0-.7.1-.5.3 0 .2 0 .4-.4.6-.3 0-.6 0-.6-.2-.2-.4-3.4-.3-3.7.1 0 .2-.7.3-1.4.4-.7 0-1.2.1-1 .2 0 .1 1.8.2 3.8.1 2.6 0 3.7-.2 4-.5.3-.3.5-.3 1-.1.5.2 1.4.2 3.1-.1 1.4-.3 2.6-.4 2.8-.3.1 0 .6 0 1.1-.4.5-.2 1.2-.4 1.5-.3.3.1.4 0 .3-.1-.3-.5.8-.7 2.2-.6.8 0 1.3.3 1.3.6 0 .2.2.4.4.4s.2-.3.1-.7c-.2-.6.2-.9.5-.3.2.6 1.2 0 1-.8 0-.6 0-.6 1.7-.6a9 9 0 0 0 3-.5l2.5-.7c.6 0 1.4-.3 1.8-.5.7-.5.8-.3.3.6-.3.7.1.8.7 0 .2-.2.4-.4.6-.4.4 0 .4 1 0 1.5-.3.3-.2.4.3.3.6 0 .7.1.5.6-.1.6.5 1.2.8.7.4-.6 1.8-1.1 2.3-.9 1 .6 3.8-.7 2.8-1.3-.2-.1 0-.3.6-.3 1.3-.1 1.4-.1 2.2-.6.4-.3.8-.4 1-.3.1.1.3 0 .4-.2.1-.1.6-.2 1-.1.7 0 1.1-.1 1.8-.7 1.2-1.2 2-1.4 2.5-.7.3.4.5.4.9 0 .2-.1.7-.3 1-.2.4 0 .8 0 1-.3.2-.2.7-.4 1.1-.4.5 0 1.1-.2 1.5-.4.4-.2.8-.4 1-.3.6 0 .9-.2 1-.7 0-.4.4-.7.6-.7.7 0 3.6-2 3.5-2.3 0-.2.4-.3.9-.3.4 0 .7 0 .4.2-.2 0-.3.3-.3.6s.2.4.7.2a2 2 0 0 0 1-.3c.3 0 .9-.5 1.4-1l1.1-.8.9-.8c.3-.5.8-.9 1-.9l.6-.1.6-.2c.1 0 .3-.2.3-.5s.1-.4.3-.4c.2 0 .7-.1 1-.5.6-.6 1.2-.7 1.5-.3.3.3 1.1 0 1.1-.4 0-.1-.8-.2-1.9-.2-1 0-1.8 0-1.7-.1 0-.2 1.4-.3 3-.4 1.5 0 2.7-.1 2.6-.2 0-.1.3-.5.8-.8.9-.6 2-.7 5.9-.7 1 0 2-.2 2.1-.4l1.3-.5c.5-.2 1.3-.7 1.8-1.2a94 94 0 0 1 2.3-2.3 7 7 0 0 0 1.6-1.9c0-.3.4-.6.6-.6.2 0 .4-.2.4-.3 0-.2.3-.4.6-.5.4-.1.6-.4.5-.5-.1-.2 0-.4.3-.5l1-.8c.1-.3.6-.6 1-.7l.8-.2-.7 1a3 3 0 0 0-.7 1.1c0 .2-.5.6-1 1-.7.3-1.1.8-1.1 1.1 0 .3-.2.5-.4.5-.3 0-1 .5-1.6 1-.8.8-1 1.1-.7 1.4.3.2.6 0 1.3-.8.7-.8 1-1 1.1-.7.2.3.2.6 0 1-.3.3-.3.4.2.2l.7-.3V76c0-.3.4-.5.8-.6.3 0 .6-.3.6-.6 0-.2.4-.5 1-.7.8-.2 1.2-.1 1.7.3.7.7.9.7.9 0 0-.8 1.2-2.4 2-2.7 1-.3 1.5.2 1 1-.4.8.3 1 1.5.5.6-.2.9-.2 1 0 .3.4.4.4.5 0 .2-.5 1-.4 1 .1l.2.8.2.6c0 .7 1.2.1 2.8-1.5 1-1 2.2-2 2.8-2.1.6-.2 1-.6 1-.8 0-.2.7-.7 1.4-1a18 18 0 0 0 3.7-2.6 26 26 0 0 1 3.5-2.8c.7-.3 1.5-1 1.8-1.4.4-.7.6-.7 1.2-.5.4.2.7.5.6.7 0 .2.1.3.4.3.2 0 .5-.3.6-.6.1-.3.5-.6.8-.6.3 0 1-.2 1.5-.5s1-.4 1.4-.3c.4.1.4.2 0 .7l-1 .8c-.4 0-.4.2-.1.2.2 0 .3.1.2.3-.4.7 1.4.2 2-.6.8-1 1.5-1.5 2.6-2l1-.9c.4-.6 1-.6 1.4-.1.1.1.1.2 0 .1a3 3 0 0 0-1.6 1c-.6.5-1.2 1-1.4 1-.2 0-.3.1-.4.4 0 .2 0 .3.2.2.2-.1.3-.1.4 0 0 .6 1.2.6 1.8.2.3-.3.8-.4 1-.3.3 0 .7 0 1-.2l1-.5c.4 0 .9-.3 1-.6.2-.3.3-.3.3 0 0 .5.7.4 1.3-.4.4-.5.6-.6 1-.3.3.2.5.3.5.1l1-1c.7-.3 1.8-1 2.6-1.6.8-.6 1.6-1.1 1.9-1.1.3 0 .5-.2.5-.3 0-.5 2.5-2.2 3.7-2.5a4 4 0 0 0 1.7-.8c.3-.4.9-.8 1.3-.9.4-.1 1-.5 1.2-.7l1.2-1c.4-.1.7-.5.6-.7a6 6 0 0 1 1.3-2c1-1.3 1.3-1.4 1.2-.8 0 .8.7.9 1.4.1.3-.3.8-.5 1.2-.4.5.1.6.3.5 1-.2.8-.1.9.3.7.2 0 .4-.3.3-.4-.2-.3 2.2-1.2 2.5-1 .1.2 0 .5-.4.8-.5.6-.7 1-.7 2.1 0 .4-.3.9-.5 1.1-.3.3-.4.5-.3.5 0 0 .3 0 .5.2.3.2.6.2 1 0 .5-.4.8-.4 1-.2 0 .2.3.2.6 0 .7-.4 1-.3.6.3-.6 1.4 0 1.3 2-.5.8-.7 1.9-1.5 2.3-1.6.4-.1 1.3-.8 2-1.5 1.1-1.2 1.3-1.3 2-1 .5.2.9.5.9.6l-1.2 1.4c-1 1-2 2.7-2.2 3.3 0 .1-.1.2-.2.1-.2 0-.3.2-.3.4 0 .6-.3 1-1.5 2.4-.5.6-.7 1-.5 1 .4 0 .4 0 0 .3-.2.1-.5.2-.7.1-.3-.2-2.6 1.6-2.6 2 0 .3.2.5.3.5.2 0 .3-.2.2-.4 0-.3.3-.5.9-.5l1.6-.5c.3-.2.9-.3 1.2-.2l1.1.3c.6 0 .6 0 1 1.2.4.7.6 1 1.8 1.1 2 .3 3.8.2 4-.2 0-.2.2-.4.5-.4.2 0 .4-.1.4-.3 0-.2.1-.3.3-.3.2 0 .3.2.3.4 0 .3.2.5.3.5.5 0 3.4-1.8 3.2-2 0-.2-.3-.2-.6-.1s-.4 0-.3-.3c.1-.3.4-.5.6-.4l.5-.1c0-.5.9-.7 1.6-.4.6.3 1 .2 1.3-.1.6-.5 1-1.4.4-1-.4.2-.4-.4 0-.8l1.3-.5c.7-.2.9-.2.6.1-.4.5-.3 1.5 0 1.5.2 0 .3.3.2.6-.2 1 .8.7 1.2-.3.1-.3.5-.7.8-.7.7 0 1 1 .5 1.5-.3.3-.5 1-.5 1.4 0 1 1.3 1.2 2.8.4.6-.4 1.2-.6 1.5-.7.5 0 0-.8-.5-1-.7 0-.3-.3 1.7-.9 1-.3 1.2-.5 1-1 0-.4 0-.6.4-.6.7 0 1.6-.6 2.9-1.8 1.2-1.1 2.3-1.9 2.6-1.7l.7-.1c.8-.5.8.1 0 1-.8 1-.7 1.2.4 1 .5 0 1 0 1 .2l-1 1.4c-.7.8-.8 1-.4.8l.9-.7c0-.2.7-.4 1.3-.5.8-.2 1.3-.5 1.3-.8 0-.3.6-.8 1.3-1.2a3 3 0 0 0 1.6-1.7c.2-.6.6-1 .8-1 .2 0 .7-.3 1-.7a4 4 0 0 1 1.4-.7c1-.2.9-1-.2-1l1.4-.4c2.9-.7 4.4-1.2 4.4-1.6 0-.1.2-.3.6-.4.3-.1.7-.6.8-1 .4-1 1.3-1.1 1.2-.2l-.2.8c-.1.1-.2.3 0 .5 0 .1.7-.1 1.4-.6 1.5-.9 2.3-1 2.3-.5 0 .2.2 0 .4-.3.7-1.4 5.1-2.7 4.7-1.4 0 .2 0 .8.2 1.2.3 1 .2 1-2.1 1.4l-2.4.8-1.1.5 1.2.2h1.5l1.4-.2 1.4-.3c.6-.1 1.1 0 1 .3-.1.1.6.3 1.7.4 1.7.1 1.8.2 2 1 0 .8 0 .8 3 .8l3-.1c0-.2.5-.3 1-.5.8-.2 1-.3.8-.9a1 1 0 0 1 .3-1c.4-.5.4-.5-.4-.3l-1.3.7c-.3.5-3.6 1.3-4 1-.2 0-.4-.4-.5-.8-.2-.6 0-1 .7-1.8.6-.7.8-1.1.5-1.4-.3-.4-1.7-.2-2 .3-.1.1-.5.3-.8.3-.6 0-.7 0-.1-.6a2 2 0 0 1 1.4-.7c1 0 2.5-1 2.2-1.4-.1-.1.2-.4.7-.7l1.5-1.1c.8-.8 1-.8 2.2-.8a4 4 0 0 0 1.7-.5l1.6-.7.8-.2-.7.5c-.3.3-.5.7-.5.9.4.8-.3 1.2-2.3 1.4-1 .2-2 .4-2.2.6-.2.2-.2.3 0 .2.1-.1.5 0 .7.2.3.3.3.5-.2.8-.4.2-.6.7-.6 1 0 .4-.6.9-2.3 1.5-1.4.6-.3 1 2.5.9 1.7-.1 2.4-.2 2.4-.5s0-.3.1 0c.3.5 2 .4 2-.1 0-.6 1-.9 2.8-1 1.6 0 2 .4.7.8-1 .3-.8 1.3.2 1.1.4 0 .7 0 .7.2s-.3.4-.6.4c-.4 0-.6.2-.4.5 0 .2.4.4.6.4l1.2.4c.6.4 1 .4 2 0 1.2-.3 1.4-.2 1.7.2.2.3.4.4.8.1.9-.5 2-.5 1.8 0-.1.3 0 .6.2.7l-2.3.2c-2.8 0-3.7.4-5.3 1.6-1.3 1.1-2.1 1.3-2.8.7-.5-.4-.5-.5.2-.9.6-.4.5-.4-1-.2-1 0-2 .3-2.2.5-.2.2-.6.4-.9.4-.2 0-.7.3-1 .6-.3.4-.7.7-1 .7-.4 0-2.4 2.2-2.3 2.5l-.4.2c-1 .2-1.3.2-1.3.5 0 .2.3.3.7.3 1 0 1 .5 0 1.1-.6.3-1.3.5-1.8.4-.6-.1-1 0-1 .1 0 .2-.4.4-.9.4s-.9.2-.9.3c0 .2.2.3.5.2.7-.3.6.3-.1.9-.5.3-.6.5-.3.6.9.3-.7 1.2-2 1.2-1.7 0-2 0-1.8.4.1.2.4.2.7.1l1 .1c.3.2.3.3.2.4-.2 0 0 .1.3.2h1.1c.4-.3.6-.2.6 0 0 .8.7 1.2 1.4.9 1.5-.7 2.2-.7 2.2-.3 0 .2 0 .4-.2.3-.2 0-.3.2-.4.6-.1.5-.5.9-1 1-.4.1-.6.4-.5.5 0 .2.4.2.6.1.6-.3 1.8.4 1.6.9 0 .3.3.4 1.3.3l1.7-.2c.1 0 .6-.4 1-.9.5-.5 1.3-.9 2.3-1l1.5-.5.6-.2c.4 0 .6 0 .6.2 0 .1 0 .3-.2.3s-.6.5-.9 1c-.3.7-1 1.4-1.6 1.6-.6.3-1.2.7-1.3 1-.1.2-.1.2 0 .1h.8c.3.2 0 .4-.7.7-.7.3-1 .6-.9.9.2.5 1.6.2 2.4-.7.4-.3.9-.6 1.2-.6.5 0 1-.2 4.9-2.2 1.6-.8 3.2-1.4 3.2-1 0 1-2 2.4-3.5 2.4-.7 0-.7.2-.6 1 .1.7.3 1 .6 1 .6-.2 3.4-1.8 3.6-2.1.1-.3.8-.4 1.6-.4.9 0 .3.8-1.1 1.5-.9.4-1.3.7-1.2 1 .2.4-.6 2.1-1 1.9l-.8.2-.9.4-1.7.5-1.7.6c-.2 0-.3.3-.2.6.2.4 1.3.3 2.1-.2a79.6 79.6 0 0 0 15.3-2.7c-.1 0-.5 0-.8-.2-.5-.4-.5-.4.2-.6.6-.1 1 0 1 .3.4.8.8 1 1.5.6.4-.3.7-.2 1 0 .5.5.5.6 0 1.3-.2.5-.6.8-.8.8-1 0-1.4.2-1.6.7-.3 1.2-2.3 1.7-5.5 1.4-3.6-.3-4.5-.3-4.5.2v.6c0 .4-1.6 1.4-2 1.4-.8 0-1.8 1-2 2-.2.4-.1.6.1.4.2 0 .4 0 .4.3 0 .4.2.4 1.2-.2 1-.6 1.7-1.4 1.5-2 0-.3 1-1 1.8-1.4.7-.2.7-.2.3.3-.2.3-.3.5-.1.5l-.2.5c-.3.4-.3.6 0 .7.7.2.4.6-.7 1-.6.2-1 .5-1 .7 0 .2-.2.2-.4.1s-.3 0-.1.5c.1.5 0 1-.5 1.4-.6.7-.6.8-.2.9.9.2 2.8-.7 3.7-1.7.8-.8 3.3-1.6 2.9-.8v.3c.4 0 1.9-1.3 1.5-1.3-.6 0 .6-1 1.2-1 1.2 0 1.8-.4 1.3-.8-.3-.4-.2-.5.5-.8a4 4 0 0 1 1.5-.3h.7l-.6.8c-.3.4-.8.7-1 .7-.4 0-.4.1 0 .5.4.5.2 1.4-.5 1.4a5 5 0 0 0-1.7.7c-1 .7-1.1.9-1 1.6.2.8.2.9-.5 1-.4 0-.9 0-1.1.3-.4.2-.4.3.1.3a24.5 24.5 0 0 1 2.2.2c.9 0 .3.5-1.2 1-.7.2-1.4.4-1.4.6 0 0-.7.6-1.5 1-1.5.8-1.5.9-.7 1 .5 0 1-.1 1-.3.3-.4 4.4-.6 4.4-.2 0 .1.2.2.4 0 .2 0 .4 0 .5.3l.2 1.4c0 .8 0 1.1-.5 1.4-.5.3-.5.4.6.9l2.9.6c1.3.1 2 .4 2.4.9.4.4.9.7 1.1.7.4 0 .4 0 .2.3-.5.5-.1 1.2.6 1.2.6 0 1 .5.7.9-.4.4-1.6 0-1.5-.5.1-.3 0-.4-.5-.4-.3 0-.6.2-.6.4 0 .3 0 .3-.3 0-.2-.3-.4-.3-.9 0-.3.2-1 .4-1.4.4-.5 0-1.2.4-1.6 1-1 1-1.5 1.1-3.7 1-1.5-.3-1.6-.2-2.7.9-.6.6-.9 1.2-.7 1.3.4.2.5 2 .1 2-.1 0-.4-.1-.5-.3 0-.2-.6-.3-1.2-.3s-1.2 0-1.3-.3c-.1-.2-.3-.2-.4 0-.1.3-.9.5-1.7.6-1.8.2-4.8 1.3-5 1.8 0 .5 4.9.2 5.2-.3.1-.3.3-.3.8 0 .5.4.7.3 1.3-.2 1-.8 1.5-.8 1.9 0 .4.6 0 .9-1.6 1-.9 0-1 0-.9.6.1.3 0 .6-.1.8-.2 0-.4.3-.4.5s.7.2 2 0c1.2-.1 1.7-.1 1.6.1 0 .2 0 .3.3.3.7 0 .6.3-.4 1.7-.6.7-1.2 1.2-2 1.4-.9.2-1 .3-.9 1 .2.6.2.6-1.4.5-.9 0-1.7-.2-1.8-.4h-.7c-.3.1-.5 0-.6-.3 0-.4-.4-.6-1-.6-1.3-.1-1.5.2-.8.8.6.5.6.6.3 1.4-.3.8-.4.8-2 .8-3.2 0-5 .2-4.8.5 0 .2.4.2.6.1.6-.2.6.4 0 .8-.5.4-.4.4.4.2l1.6-.4c.7-.3 1 .3.2.7-.5.2-.6 1 0 1.1.2 0 0 .2-.4.2h-.7l.7.6c.5.2 1.2.4 1.7.3.7 0 .9 0 .7.4a3 3 0 0 0-.1.8c0 .2-.3.3-.7.3-.5 0-.6.2-.3.3.5.3.3 1.6-.3 2.1-.3.2-.4.5-.2.6.1.1-.1.2-.5.1-.6-.1-.7 0-.6.3.1.5 1.5.9 1.5.4 0-.4 3-.9 4-.7.3.1.6.4.6.6 0 .6-2.4 1.8-3.6 1.9-.5 0-1 .2-1 .3 0 .2-.2.4-.5.4-.4 0-.3 0 .2.3.7.2.7.3.4.7-.3.4-.2.5.6.5.6 0 1.1-.3 1.4-.8a2 2 0 0 1 1.3-.7c1-.1 2.3-.5 4.1-1 1.2-.3 1.6-1 .7-1-.5.1-.6-.2-.2-.8.2-.3.6-.4 1.7-.2 1.9.2 2.4.9 1.6 2-.5.8-.7.8-2.2.7-1.1 0-1.8 0-2.5.4l-1.3.6c-.5 0-1.2 1-1 1.2.2.2.3.3.5.2l.6.1c.3.2.3.3-.2.5-.8.2-.9.7-.2 1 .3 0 .4.2.3.4 0 .2 0 .3.2.3s.3-.2.3-.3c0-.4 1.8-.2 2.3.2.3.2-2.4 1.7-2.8 1.5-.4-.3-5 .6-5.5 1-.6.6-.4.7.6.8h2c1.3.1 1.4.3.4.9-.8.4-2 .3-2-.3-.1-.4-3.5-.1-4 .3-.2.2-.7.3-1 .2-.4 0-.7 0-.8.2-.1.2 0 .2.1 0h.4c0 .3-2.2 1.2-3.1 1.2-.5 0-1.2.2-1.5.4-.4.3-.6.3-.6 0s-1-.3-3.5 0c-2 .1-3.8.4-4.2.5l-4.9.5c-2.3.1-4.2.4-4.4.5l-.2.9c0 .6.2.7.7.5.5-.1.6 0 .2.2-.3.2-.8.4-1.2.4-1.4 0-2.2 1.6-.8 1.6.5 0 .5 0-.3.4-.6.2-1 .5-1 .6 0 .1-.2.2-.4.1l-.6.1c-.1.2.3.3.8.3a2 2 0 0 1 1.5.6c.4.5.6.5.7.3.1-.4.3-.4.8 0 .4.1 1.3.3 2 .2h1.7c.2.2 1 .1 1.7-.1 1.7-.6 3-.8 3-.5v.8c0 .6.2.6 3 0 .4-.1.9 0 1 .2.6.6-.7 2.1-1.5 1.9-.3 0-1.3.1-2.1.4-1 .4-2.1.6-3.3.5-1 0-2.1.1-2.5.3l-1.2.4-2.5.6c-2 .4-3 1-2.2 1.2.2 0 .3.3.2.5 0 .2.2.6.6.7.6.3.3.4-1.9.5-2.5 0-2.7.1-4.1 1.2a5 5 0 0 1-2 1.2c-1 0-2.1.8-2.1 1.3 0 .4-.5.7-1.8 1.2-2 .6-2.6 1.1-1.6 1.1s1.7-.1 2.1-.6l1.4-.5c.5 0 1-.2 1.1-.5.2-.4.4-.5.6-.3.1.2.5.3.9.2 2.5-.5 3.9-.6 3.7-.2-.1.1-.4.2-.5.1-.2 0-.2 0-.1.4.1.2 0 .4-.2.4s-.3.3-.2.5c.2.3 0 .4-.1.4-.2 0-.5.3-.7.6a2 2 0 0 1-.8 1c-.3 0-.5.3-.4.4.1.2-.1.5-.5.7-.9.4-1.6 1.6-1 1.5.2 0 .3.1 0 .3-.2.1-.4.6-.5 1l-.2.8.5-.7c.3-.4.7-.8 1-.8.5 0 4.6-2.7 4.4-3a14 14 0 0 1 4-2.3c1.1-.4 1.1-.4.6-1.3-.2-.3-.2-.5 0-.4.3.1.7 0 3.8-1.2 2-.8 2.4-.9 2.4-.4 0 .2-.2.3-.4.3-.3 0-.5.2-.6.5-.1.3-.4.5-.7.5-.7 0-3.2 1.3-3.1 1.6l-.1.8-.3.9a61.3 61.3 0 0 0-5 3.4 11 11 0 0 1-2.9 1.8c-.6 0-1.6.6-2.4 1.3-.3.3-1.3.8-2.2 1.2-.9.3-1.6.7-1.6 1 0 .2-.7.7-1.6 1.1l-2.7 1.4-2 .7c-.4 0-.7.1-.7.3 0 .2 0 .3-.2.2-.1-.1-.4 0-.7.3-.4.4-2 1-4.2 1.4l-1.2.3c-.8.3-3-.1-3-.5.1-.6-1-.4-2.2.3-.6.4-2.2.9-3.5 1l-2.6.7c-.5.3 1.1.6 2.5.4l1.2-.2-1 .5c-.6.3-1.4.6-1.8.6a9 9 0 0 0-2.3.8 20 20 0 0 1-4 1.5c-.4 0-1.6.4-2.7.7a65 65 0 0 1-15.2 1.8c-8.8.4-11.4.7-11 1.3h-.5c-.6-.3-.9-.3-1.5 0-.5.4-1.7.6-2.6.7-1 0-1.9.4-2.2.6-.6.6-.6 1.6 0 1.7.2.1 0 .3-.3.4l-1.1.6c-.4.2-.6.1-.6-.2 0-.2.2-.5.4-.6.2 0 0-.2-.4-.2-1 0-1.6.6-1.3 1.2.2.4 0 .4-.1.3-.3-.1-.4 0-.4.1 0 .2.2.3.4.2.5-.1 1.5.3 1.5.7 0 .2-.3.5-.7.6-.5.3-.6.3-.1.3.3 0 .5.2.4.3-.3.5-2.6 1.1-3.2 1-.3-.2-.8-.3-1.1-.3-.4 0-.7-.2-.8-.4-.2-.5-1.8-1.2-2.6-1.2-.4 0-.9 0-1-.2l-1-.2h-1c-.2 0-.4-.4-.4-.8 0-.6-.3-.9-1.3-1.3-1-.3-1.2-.6-1-.9.5-.5.2-1-.9-1-.6-.1-1 0-1.2.4-.1.3-.9.6-1.6.8-1 .2-1.2.4-1.2.8.2 1 0 1.3-.4 1.3-.3 0-.5.2-.6.5-.1.3-.4.4-1 .3-.6 0-1 0-1.4.4-.7.8-1.7.7-1.7-.2 0-1 .3-1.3 1-.7.4.3.5.3 1 0 .6-.5.6-.6.2-1-.2-.2-.9-.5-1.5-.6a4 4 0 0 1-1.4-.4c-.3-.3-1.3.5-1.3 1 0 .2-.3.3-.7.4-.4 0-.8.2-1 .4-.3.2-.4.2-.6-.2-.1-.3-.6-.5-1-.5a5 5 0 0 1-1.5-.2c-.3-.1-.7 0-1 .1-.2.2-.5.2-.9 0a3 3 0 0 0-1.5-.1c-.7.1-.7.1-.2 0 1.2-.6.3-1-2-1-1.2-.1-2.2-.3-2.2-.5-.2-.5-1.2-.4-1.7.2-.2.2-.6.5-.9.5-.3 0-.6.1-.6.3 0 .2-.2.3-.4.3-.4 0-.4.2-.2.6.5.8 1 .9 4.4 1 2 .2 2.7.1 3-.2.3-.4.4-.4.4.1s.3.7 1.6.8c1 0 1.8 0 2.2-.3.5-.2.6-.4.3-.5-.6-.2-.1-.7.6-.7 1 0 1 1.2 0 2.2-.6.8-.6.8 0 1.4.5.5.5.5-.4.4-.8-.2-2.5.3-2.9.7a9 9 0 0 1-2.2 1.2c-.3.1-.6 0-.7-.3a.8.8 0 0 0-.7-.4c-.6 0-.5-.5.1-.7.5-.1.4-.2-.3-.4-.5-.3-1.2-.2-2.5.1-1 .3-1.7.4-1.6.3.2-.5-.8-.7-1.4-.3-.6.3-1.4 0-1.1-.5 0-.2.4-.3.6-.2.3 0 .5 0 .5-.2 0-.4-.7-.4-1.1 0l-1.2.5c-.7.2-.9.1-1-.4-.3-1-2.7-1.6-2.6-.7 0 .4-.5.5-2.7.5-1.6 0-2.8.2-2.8.4 0 .1.3.3.6.2l1 .2c0 .2.6.6 1.2 1 1.1.8.6 1-.6.3-.5-.3-1.6-.5-3.8-.5-3.4 0-3.7.1-3.6 1.5 0 .8.1.8-2.4.5-1.2-.2-1.9-.4-1.8-.7.2-.5-1.2-1.2-1.4-.7-.2.3-.3.3-.4 0-.2-.4-.2-.4-.2 0 0 .3.1.6.4.8.5.6 0 .8-.9.5-1-.3-1.4-1-.5-1 .6 0 .6 0 .3-.7-.9-1.4-1.7-1.4-2 0-.3.8-.2 1.2 0 1.4.3.2 0 .3-.7.4h-1l1.2.4c1.9.4 1.9.6 0 .7-1 0-1.8.2-1.9.3l-1 .2c-.7 0-1 0-1-.6 0-.3-.2-.6-.4-.6-2.2 0-3-.1-4-.3-.6 0-1.2 0-1.3.2-.1.2-.5.4-.8.4-.3 0-.6.1-.6.3 0 .2.3.3.6.3.8 0 .9.5.1.7-.3.1-.2.2.5.3.9.2 1 .3.6.7l-.5.7c-.1.5-2.1.1-2.1-.4 0-.2.1-.4.3-.4.2 0 .2-.2.1-.3-.1-.2-.7-.3-1.3-.3l-1.8-.2c-.5-.2 0-.3 1.4-.4 1 0 1.8-.2 1.6-.3-.2 0-.3-.2-.3-.4.4-.5-.8-.7-3.3-.5-2 .2-2.6.4-2.4.7.2.3.5.3 1.3 0l1.6-.4c1.3 0-.6.9-2 1-.8 0-.6 1 .2 1s2 1.3 1.5 1.6c-.3.2-2.8-.2-5.3-.9-2.2-.6-4.3-.8-4.9-.3-.2.2-.4.2-.6.1 0 0 0-.2.2-.2s.3-.2.3-.5c0-.4-.5-.5-1.4-.4-.3 0-.4 0-.4-.2s.2-.4.5-.4c.4 0 .3-.1-.3-.4-.4-.2-.8-.2-.8-.1-.1.1-.5.3-1 .3-.7 0-.9-.1-.8-.4.1-.3 0-.4-.6-.4-.5 0-.9.1-1 .3l-1.8.8c-1 .3-1.7.7-1.6.9 0 .2-.3.6-.7 1-.5.4-.5.5-.2.4h.7c.2.4-1.3 1.5-1.5 1.3-.1-.1-.1-.2 0-.2.2 0 0-.3-.4-.6-.9-.7-1.6-.8-1.6-.2 0 .3-.4.6-1.1.7a21 21 0 0 0-4.8 1.3c-.6.4-1.1.2-.7-.2l1.7-.8c.7-.2 1.5-.6 1.7-.9.2-.3.7-.4 1-.3.5 0 .6 0 .6-.3 0-.4-.2-.5-.8-.3l-.7-.1c0-.3.4-.4 1.2-.4.2 0 .3 0 .2-.2-.3-.5-2 0-2.8.7-.5.6-1.6.5-3.1-.3-.5-.2-.7-.2-1 .3-.2.4-.4.4-.5 0-.1-.2-.2-.1-.2.2 0 .3-.2.5-.5.4h-.9c-.2 0 0-.3.5-.6.7-.4.7-.4-.5-.2-1.7.3-2 .4-2 .8 0 .2.2.3.3.1l.3.1c0 .2.3.4.6.5.4.1.6.4.5.8 0 .3-.2.6-.3.6l-1 .2c-.5.1-1.5.5-2.3 1-1.1.7-1.4.8-1.2.4.1-.5 0-.5-.6-.4-.6.1-.8 0-1-.4-.1-.6-1-.6-2.4 0-.5.2-.6.2-.5-.2.2-.3 0-.5-.8-.5-.9 0-3.7.8-4.8 1.4l-1.4.5c-.6.2-1 .4-.8.6.1.2 0 .2-.2.1-1-.6-2.2-.6-2.8 0-.4.4-1 .5-2 .4-.9 0-1.6-.1-1.7-.2-.4-.3.7-.7 2.7-1 2.9-.3 3.5-.6 3-1.2l-.8-.4c-.7 0-.9-1.1-.3-1.6.6-.4.7-.4 2 0 .5.2.5.2-.2.5-.8.3-.8.9 0 .9.6 0 .7 0 .4.3-.5.6-.4.9.4.9.7 0 3.4-1 2.7-1-.2 0-.4-.2-.4-.4s.1-.2.3-.1c.2 0 .2-.2 0-.8-.3-.8-.2-1 .3-1.3 1-.6 1.2-.6 1.7-.1.3.3.3.4 0 .6a1 1 0 0 0-.4 1c.2.8 2 .4 3-.7.8-.8 1.7-1.2 3-1 .2 0 .4-.2.3-.3 0-.2-.1-.4-.3-.4-.2 0-.6-.1-.8-.4-.4-.3-.4-.6-.2-.9.3-.3.3-.5 0-.6h-.3c0 .3-.4.5-1.6.5-.3 0-.5.2-.3.4.1.2 0 .3-.3.2-.6-.2-1.5.7-1.3 1.2.1.3 0 .4-.1.3-.2-.1-.3-.4-.2-.8.3-1-1-.9-2.6.3-1.2.8-1.5 1-1 1.2.7.3.3.8-.6.6-.6 0-1-1-.5-1 .2 0 .3-.1.3-.3 0-.5-3-.2-4 .3-.5.3-1.4.5-2 .5-.8 0-1.2.2-1.5.6-.3.5-.9.6-2.7.7-1.5 0-2.5.3-3 .7l-1.7.8c-.5.1-.8.3-.5.3.3.1.2.3-.2.6-.5.4-.5.5 0 .6.6.2.5.8 0 .8-.2 0-.3-.1-.2-.3.3-.4-1-.7-1.5-.3-.3.3-3 1-4 1a29.9 29.9 0 0 0-5.7 1c-.4 0-.4 0 0-.4.3-.2.2-.3-.7-.1-.7.1-1.2 0-1.2-.1 0-.2-.9-.2-2.4 0l-2.7-.1c-.3-.4-2.6 0-5 .7-2.3.7-3.4.9-3.4.6 0-.3.4-.4 2.8-1 1.1-.2 1.5-.5.7-.8a13 13 0 0 0-2.4 0 8 8 0 0 1-2.8-.3c-.5-.3-2-.4-3.8-.3-2.7 0-3 0-2.9-.5 0-.3 0-.5-.2-.5l-.2.4c0 .3-.1.3-.4 0-.3-.3-.3-.5 0-.7.3-.2.4-.3.1-.3a.4.4 0 0 1-.4-.4c0-.3-.2-.5-.5-.6-.3-.1-.5 0-.4.6 0 .7-.1.8-1.4.8-.8 0-1.4.2-1.3.3.1.7 0 1.3-.5 1.3s-.6-1-.1-1.5c.2-.3.2-.3-.2-.3s-.8.3-1 .6c-.3.4-.8.5-1.8.5s-1.4.2-1.3.5v.6c-.6.3 0 .7.8.7.9 0 .9 0-.1.5-.8.3-1.5.4-2.9.3-1.5-.2-2-.1-2.8.4-.6.4-1 .5-1.3.4-.2-.2-.5-.2-.7.1-.3.4 0 .5 1.8.4 1.1 0 2.2-.2 2.3-.4 0-.2.3-.3.5-.3.3 0 .3 0 0 .2-.5.4 0 .5 2.6.8a43.4 43.4 0 0 1 3.6.5c0 .2-1.6.3-3.6.4-2.9 0-3.6.1-3.8.5-.2.4-.5.5-2 .3-2.2-.3-3-.1-3 .5.1.4-.1.4-.8.3a19 19 0 0 0-2.3-.3c-.8 0-1.8-.2-2.2-.3-.4-.1-.8-.2-.9-.1a29 29 0 0 1-11.2-.5 157 157 0 0 0-5.2-.8 5 5 0 0 1-2 0c-.7-.2-2-.3-2.8-.2l-1.5.2 1.9.8c2.6 1 2.8 1.2 2.7 1.7 0 .2.4.6.8.7l1 .3-.9.1c-.4 0-1-.2-1.2-.5-.7-.9-2.6-1.3-3.9-.8-.5.2-2 .4-3.4.6-2.1.2-2.4.1-2.6-.4-.1-.6-2-.8-3.9-.5l-.9.1.9.4a4 4 0 0 0 1.9.4c.7 0 1 .1 1 .5 0 .3-.2.7-.3.8-.2 0 .2.3.8.5.9.3 1.2.6 1.2 1.1 0 .8 0 .8-.7.3Zm3-5.2c.5 0 0-.7-.7-.8l-.9-.2c-1.8-.6-2-.5-.8.6.4.5 1 .7 1.3.6l1-.2Zm21.4-2.1c.1-.3.3-.3.7 0 .6.5 3.2 0 3.2-.6 0-.3.3-.5.9-.5.5 0 .9 0 .9.2s.3.3.7.3c.4 0 .5.1.4.4-.2.2 0 .3.8 0l1.6-.2c.6 0 .7 0 .1-.3-.3-.2-.4-.5-.3-.6 0-.2.4-.2.9.1.8.5 2.5.6 2.8 0 .3-.5 0-.6-1.6-.6-.9 0-1.4-.1-1.4-.4 0-.2-.3-.5-.7-.6-.3-.2-.5-.5-.4-.7.1-.2 0-.3-.3-.1l-1.3.2c-.5 0-.8.2-.8.5s-.1.5-.3.4c-.2 0-.4-.5-.4-1 0-.7 0-.7-1.8-.6-1.5 0-1.8.1-2 .6 0 .5-.2.6-.8.4a2 2 0 0 0-1.5.2c-1.1.6-2.9 1-2.6.6 0-.2.6-.4 1.2-.6.8-.1 1-.3 1-.7-.2-.8-4-.7-4.2.1 0 .3-.2.6-.4.6s-.2-.2-.1-.5c.2-.8-.9-.3-1.2.5-.3.6-.5.7-2 .7-1.2 0-2-.2-2-.4-.1-.3-.3-.3-.8 0-.8.4-.4 1.1.6 1l.8-.3-.8.8c-1 .8-.9 1.2.6 1l1-.4c-.1-.1.4-.2 1-.2 2.1 0 2.6 0 2.2.2-1 .5 0 .7 2.3.6h2.8c.4.3 1 .2 1.2-.1Zm1.3-.7.5-.3c.1.1 0 .3-.3.4-.5.2-.5.2-.2-.1Zm-4.9-.6c0-.2.2-.4.5-.4.4 0 .4 0 .1.4l-.5.5-.1-.5Zm-21.3 1.8c0-.3-1-.4-1-.1-.2.2 0 .3.4.3l.6-.2Zm11.2-1.1c-.2-.2-.5-.6-.6-1-.2-1-1.3-1.5-2.4-1.2-.7.3-.7.3.3.5.9.1 1 .2.7.6-.3.4-.2.6.2.9.4.2 1 .4 1.4.4.5 0 .6-.1.4-.2Zm29.4-1.3c-.1-.2-.3-.2-.5 0-.4.2-.3.3.2.3.3 0 .4-.2.3-.3Zm39.7-2.6 1.1-.3c1.6-.4 2.6-.9 2.5-1.4 0-.6-.3-.6-.7 0-.2.4-1.3.8-3 1-3.1.7-4.4 1.4-1.8 1a10 10 0 0 0 1.9-.3Zm-87.7 3.4h-.6c-.1.1 0 .2.4.2s.4-.1.2-.2Zm43.6-2c.3-.1.5-.3.5-.5 0-.4-1.3-.5-2.1-.1-.8.3-.8.3-.2.5.8.3 1.2.3 1.8 0Zm31.7-1.7c0-.2-.2-.2-.3-.1-.2 0-.3.2-.3.3l.3.1c.2 0 .3-.1.3-.3Zm7.2-.4.8-.4-.8-.1c-.7-.1-1 0-.9.4 0 .7 0 .7 1 .1Zm-13.9.2c.3-.3.4-.6.4-.7-.3-.3-1.5.3-1.4.8 0 .6.4.5 1-.1Zm8 0c-.2-.1-.6-.1-.8 0l.4.1c.4 0 .6 0 .4-.1Zm2.8-.5a1 1 0 0 0-.1-.8c-.3-.2-.4-.2-.3 0 .1.7 0 1-.7.9-.4-.1-.6 0-.4.2.3.5 1.3.3 1.5-.3Zm-54.2 1.9-.6-.1c-.4 0-.6.1-.6.3 0 .1.3.2.6 0l.6-.2Zm7.5-.5-.6-.2c-.3 0-.4 0-.3.2.1.2.4.3.6.3.3 0 .4-.2.3-.3Zm56.1-2.9c-.2-.2-.4-.1-.7.1-.3.3-.2.5.1.7.6.3 1-.4.6-.8Zm33.7-.6c0-.1-.1-.3-.3-.3-.2 0-.2.2-.1.4l.3.3.1-.4Zm2.3-.2a.8.8 0 0 0-.7-.4c-.4 0-.3 0 .2.4.7.6.7.6.5 0Zm-60 1.9c0-.2-.5-.3-1-.3s-1 .2-1 .3c0 .2.5.3 1 .3s1-.2 1-.3Zm29.5-1.4c-.4-.3-2-.2-2 0s0 .3.2.2h.6c.5.3 1.5 0 1.2-.2Zm-113.8 4.3s.2 0 .2-.2c0-.4-1.2-.8-2.7-1-.7-.2-1.1-.1-1 .1 0 .3.6.5 1.3.3l.4.6c.1.5.3.5.9.3.4-.2.8-.2.9-.1Zm158.1-6.6c.1-.4 0-.8 0-.8-.4 0-1 1.2-.7 1.4.4.4.6.2.7-.6Zm17.3-.7h-.6c0 .1.1.2.4.2.4 0 .5-.1.2-.2Zm-28.1.4c-.3 0-.6 0-.8.3-.2.2 0 .2.4 0 .5 0 .6-.2.4-.3Zm4-.3c.1-.2.2-.2.2 0 0 .4.2.4.7 0 1-.5 1-.5.4-1-.5-.5-.6-.5-1.1.1-.4.4-.9.7-1.2.7l-1.1.3c-.5.2-.5.3.2.4.9.2 1.6 0 1.9-.5Zm20.1-1c-.1-.2-1.3 0-1.3.3h.7c.4 0 .7-.2.6-.3Zm-52.6 2c0-.3-1.3-.4-1.4-.2-.1.2.1.3.6.3l.8-.1Zm37-2 .6-.9.6-.7h-1c-.6 0-1.2.2-1.3.4-.1.2-.5.4-.9.4h-.6l.7.3c.4.2.7.5.7.6 0 .1.3.3.6.2.4 0 .6-.1.6-.2Zm47-2.3c.3-.3-1.2-1-1.9-1-.4 0-.4.1 0 .2l.9.6c.5.4.8.5 1 .2Zm-42.1.1-.6-.1-1-.1c-.6-.2-1.3.3-1 1 .1.4.2.4 1.3-.1l1.3-.7Zm19.6-.1c.7 0 1.1-.2 1.1-.5l-.2-.4c-1.7-.1-3-.2-4.7 0-1 0-2.1-.1-2.4-.3-.5-.4-1.3 0-1.5.6-.1.4 0 .5 1.1.3s1.3-.2 1.5.4c.1.6.3.6 2 .3l3-.4Zm-30.1.8c0-.2-.3-.4-.6-.4s-.7.2-1 .5c-.3.4-.2.5.7.4.6 0 1-.2.9-.5Zm34.6-1.3c.4-.5.3-.6-.4-.3-.3.1-.5.3-.5.5 0 .4.5.3 1-.2Zm11-1.5c0-.4-.4-.8-.8-1-.6-.2-.7-.1-.5.4.2.5 0 .6-.7.5-1.8-.3-1.4.9.5 1.3 1.1.3 1.7-.2 1.5-1.2Zm-44 2.6c.2-.2 0-.3-.2-.3l-.6.3c-.1.2 0 .3.3.3.2 0 .5-.1.6-.3Zm109.6-4.9-.2-.6c-.2 0-.4.3-.6.6-.4.6-.3.7.2.7.4 0 .6-.3.6-.7ZM286.6 189c0-.1-.3-.2-.6 0-.4 0-.6.2-.6.2l.6.1c.3 0 .6-.1.6-.3Zm104.7-4.4c0-.2-.2-.3-.5-.3-.2 0-.4.2-.2.3 0 .2.3.3.5.3.1 0 .2-.1.2-.3Zm-97 3.5c0-.2-.2-.3-.5-.3s-.4.1-.3.3c.1.2.3.3.5.3s.3-.2.3-.3Zm47.3-1.9c0-.1.2-.3.6-.3 1 0 .7-.5-.5-.8-1-.2-1.2-.2-1.6.2-.4.4-.4.5.3.8 1 .5 1.2.5 1.2.1Zm-4-1.2c-.6-.3-.8 0-.5.6.1.4.3.4.6 0 .3-.2.3-.4-.1-.6Zm51.5-1.2s-.3-.5-.8-.8l-.8-.7.8-.1h1c0 .2.3.3.6.3.8 0 .4-.6-1-1.2l-1.3-.6-.1 1c-.2 1.2.3 2.4 1 2.4.4 0 .6-.1.6-.3Zm-273 8.4-.7-.2c-.2 0-.1 0 0 .2.3 0 .5.4.5.8 0 .6 0 .6.4 0 .2-.4.2-.6-.2-.8Zm-3.2.1c.3-.7-.3-1.2-1.2-1-.3 0-.6 0-.8-.4-.4-.7-1.4-.8-1-.1 0 .2.2.4.4.3.1-.1.3 0 .3.4s.3.6.8.7c.4.1.8.3.8.5 0 .6.6.3.7-.4Zm279-11.7c0-.2-.3-.3-.4-.3-.2 0-.3.1-.3.3 0 .2.2.3.5.3.2 0 .4-.2.2-.3Zm-284.8 2.8c-.6-.5-2.7-1.1-3-.9-.4.2-.3.4.3.6 1.5.5 3 .7 2.7.3Zm-4-1.5c-.4-.5-1.8-1-2.3-.6l-.2.6c0 .4.6.6 2 .6.7 0 .8 0 .4-.6Zm-12.4-.6.6-.1s0-.2-.3-.3a7 7 0 0 0-2.1-.2c-1 0-2.2-.2-2.8-.5-1.5-.5-2.2-.5-1.7 0 .2.3 1 .6 1.9.6.8.1 1.8.4 2.2.6.5.2 1 .3 1.3.2a8 8 0 0 1 .9-.3Zm16.7-.7h-.6c0 .2.1.2.5.2.3 0 .4-.1.1-.2Zm336-14c1.8-.5 4.6-1.4 5.2-1.9a27 27 0 0 1 4-1.6c.3 0 .7-.3 1-.5.2-.3 1-.8 1.9-1.2.7-.4 1.5-.8 1.6-1 .2-.4-.8-.8-1-.4-.2.2-.5.2-.9.1-.5-.1-.5-.2.4-.7.5-.3 1.4-.6 2-.6.9 0 1 0 .4.4-.8.7-.6.8.7.6 3-.5 3.7-1.7 1.2-2.1-1.8-.2-2.6 0-6 1.4-1.8.8-2.7 1.4-2.7 1.7 0 .2.1.4.3.4l-.1.5c-.3.4-.3.5 0 .3h.3c0 .6-1.8 1-3.9 1.2a8 8 0 0 0-2.5.4c-.3.2-1 .4-1.5.4-.6 0-1 .2-1 .6-.1.4-.4.7-.7.7-.3 0-.8.4-1.1.8-.4.5-.8.8-1.2.7-.3 0-.7 0-1 .2-.4.3 2.1 0 4.6-.5Zm15.2-1.4a4 4 0 0 1 1.6-.6c.3 0 .6-.2.6-.4 0-.1.6-.6 1.4-1l2.8-1.8c1.1-1 1.2-1 .6-1.2-.6-.2-3.8 1.3-4.9 2.3-.2.3-1.4 1-2.6 1.7l-2.7 1.6c-.5.4-.4.4.8.2l2.4-.8ZM89 180c0-.6-.6-1-2-1.3-1-.2-1.9-.6-2.2-.9-.7-.6-2.1-.6-2 0 0 .6 2 1.4 3 1.2.4 0 .8 0 1 .2.4.7 2.2 1.3 2.2.8Zm7-1.1c-.3-1-.5-1-2.3-1.3-2.8-.5-3-.6-2.8-.9 0-.2-.4-.3-1-.2-.7 0-1.4-.1-1.5-.3l-1.3-.4c-.8-.1-.8 0-.3.2.6.3.6.3 0 .6-.5.2-.4.3.3.3.5 0 .8 0 .9.2 0 .2.2.3.4.3.8 0 1.5.9 1.2 1.6-.3.5-.2.6.3.5.4 0 .6-.1.5-.4 0-.2.2-.4.8-.4.6 0 .8 0 .5.2-.3.2 0 .3.7.2 1.2 0 2.2 0 3 .5.9.5 1 .4.6-.7Zm8.2.5h-.8c-.2.1 0 .2.4.2.5 0 .6-.1.4-.2Zm-22.6 0H81c0 .1 0 .2.4.1.4 0 .4 0 .2-.1Zm-2-.4c0-.2 0-.3-.3-.3-.1 0-.2.2 0 .3 0 .2.2.3.2.3.1 0 .2-.1.2-.3Zm354.5-14c.3-.3.1-.4-.4-.3-.5 0-1 .1-1 .3-.2.3.8.3 1.4 0ZM59.6 178.5l-.7-.5c-.5-.3-.5-.3-.5.1 0 .3.3.5.7.5.3 0 .6 0 .5-.1Zm37.7-1.7c0-.2-.1-.3-.3-.2l-.3.4.3.1c.2 0 .3-.2.3-.3ZM444.6 163c.1-.6-.5-.4-.7.1 0 .3 0 .5.2.4.2 0 .4-.3.5-.5Zm-361 13.7c0-.1.3-.2.6-.1.4.1.4 0 0-.6-.7-1.2-1.6-1.9-2.6-1.8-.7 0-1-.2-1-.5.1-.4 0-.5-.4-.3-.3 0-.4 0-.2-.2 0-.2 0-.4-.2-.4l-1.5-.1c-.6 0-.9 0-.8.2.4.6-3 0-4.7-.7-1.7-.9-3-1.3-4.2-1.2-.8 0-1.3-.8-.5-.8.5 0 .5 0 0-.5l-.7-.4c-.4 0-.7-.8-.6-1.4.1-.2.5-.5.9-.5.5 0 .5 0-.3-.5l-1.2-.7c-.2-.4-2.3-.8-4-.7-1.1 0-1.2 0-.9.5.4.4.3.4-.5.1-.7-.2-1-.2-1.2.2l-1 .8c-.8.5-.8.9.2 1.1l1.6.4c.7.3.8.4.3 1-.4.5-.4.5 0 .9 2 1.5 6.1 2.8 8.6 2.7.7 0 1.3.1 1.3.3 0 .1.5.4 1.2.4.7.2 1.5.6 2.4 1.4l1.2 1.3 3.8-.3c3.7-.2 4.8 0 3.7.5-.5.2-.5.2 0 .2.2 0 .5-.1.6-.3ZM65.3 170c.1-.2.5-.3.8-.3 1 .2 1 .4 0 .5-.6 0-.9 0-.8-.2Zm-2.3-2c-.7-.4-1-1.6-.4-1.6.1 0 .3.1.3.3 0 .1.2.5.5.7.8.7.5 1.2-.4.7Zm-1.4 8.8c-.7-.5-2-.6-1.6-.1.3.2 1.1.4 1.9.5.1 0 0-.2-.3-.4Zm371.6-14.4-.3-.3a.3.3 0 1 0 .3.3Zm17.4-1.6-.3-.3-.2.3c0 .2.2.4.4.3.2 0 .2-.1.1-.3ZM68.3 175.3a4.3 4.3 0 0 0-2.6-1.2c-.5 0-.5 0 0 .4.5.3.5.5.2.6h.3c.4 0 .7 0 .7.2s.5.4 1.7.5c.2 0 0-.2-.3-.5Zm13.2-2.1c0-.2-.2-.3-.3-.3l-.1.3c0 .2.1.3.3.3.2 0 .3-.2.1-.3Zm-33.8 1c0-.2-.1-.3-.3-.3l-1.3-.1-1-.2 1 .4c1.4.5 1.6.6 1.6.2Zm8.3-.9c-.2 0-.6-.4-.8-.6-.3-.3-.4-.4-.4-.2 0 .5.7 1 1.2 1 .4 0 .4 0 0-.2Zm22-1.2c-.3-.2-.4-.3-.2-.4.4 0-1.2-.4-1.9-.4-.8 0-.3.3 1 .7 1.1.4 1.7.4 1 0Zm370.3-15.3c-.1-.2 0-.3.3-.2.2 0 .4 0 .4-.2 0-.4-2.7-.2-3.3.2-.6.4-.4.9.3.6h.6c-.1.7 0 .7 1 .4.5-.3.8-.6.7-.8Zm17.5 0-.4-.2c-.1 0-.3.2-.2.4 0 .2.1.2.3.1l.3-.3Zm-28.1.8c.5 0 .8 0 1-.3 0-.3.4-.6.7-.7.4 0 .6 0 .5.1-.2.5 1 .3 3.4-.3 3-.8 3.2-1.2.7-1a16 16 0 0 1-2.3 0c-.1 0-.6 0-1 .3l-1.4.5c-.4 0-.8.2-.8.3l-1.4.5c-1.7.3-2.3.5-2.2.8 0 .2.4.1 1 0 .5-.2 1.3-.3 1.8-.2ZM75 170.9c0-.1-.3-.4-.7-.5-.4-.2-.5-.3-.3-.3.8-.1 0-.6-1.6-1l-2.2-.8c-.3-.1-.6-.2-.5 0 0 .4 1 1.3 1.4 1.2.3 0 .5.2.5.3 0 .3 2.4 1.5 3 1.5.3 0 .4-.2.4-.4Zm391.5-15.4c2.4-.5 2.4-1.2 0-1-1.5 0-4.3 1-4.3 1.6l4.3-.6Zm-16 0c.2-.2.3-.2.5.1.3.3.3.3.5-.1 0-.3.5-.5 1.3-.6a5 5 0 0 0 2.2-.5c.9-.4 1-.5.3-.4-.4 0-.8 0-.8-.2s.1-.3.4-.3c.2 0 .3 0 .2-.3-.1-.2 0-.2.4-.1.6 0 .6 0 .3-.6-.4-.8-1-1-.7-.3.1.2-.1.7-.6 1-.4.3-.7.4-.7.3 0-.2-.2 0-.3.1-.1.3-.8.6-1.6.7-1.6.3-2.4.7-2.4 1.3 0 .5.9.5 1 0Zm-8.5-1c0-.4-.3-.4-1-.1-.8.3-.6.7.3.5.4-.1.8-.3.7-.5Zm15.7-3c.4.2.4.2.1-.1-.3-.4-1.3-.1-1.3.4 0 .3.1.3.3 0 .2-.2.6-.3.9-.2ZM56.4 167c0-.1.3-.4.7-.5.9-.2 1-.9.4-1.3-1.8-1.3-2.9-2.4-3-3 0-.7-1.4-1-2.4-.6-.7.5-.7 1 0 1 .2 0 .4 0 .3.3-.1.1 0 .3.2.3.7 0 1 1 .4 1.6l-.6.3v.2s.6.2 1.2.1c1 0 1.2 0 1.2.5 0 .3.2.6.3.6.2 0 .4.2.4.4 0 .3.2.5.4.5.3 0 .5-.2.5-.4Zm-10.5-1c.2-.1-.4-.5-1.2-.9-1.8-.7-2.2-.6-.9.4 1 .7 1.8 1 2.1.5Zm3.5-1.9c-.2-.4-.5-.8-.7-.8-.1 0-.1-.2 0-.4.4-.4.3-.5-.6-.7-1.3-.1-2.8.5-2 1 .3.1.2.2-.3.2-.4 0-.6.2-.5.4l1.2.2a5 5 0 0 1 2.1.5c.6.4 1 .6 1.1.5 0 0 0-.4-.3-.9Zm382.8-14.8s.5-.2 1.3-.1c1.1 0 1.3 0 1.1-.5-.2-.4.3-.6 1.3-.5.2 0 .3-.3.2-.6-.2-.7-.6-.8-.8-.3a52.6 52.6 0 0 1-5.7 1.1c-.4 0-.7.2-.7.4s.4.4.8.6c.8.3 2.8.3 2.6 0ZM56.4 163a.7.7 0 0 0-.6-.3c-.2 0-.2.2.1.3.6.4.7.4.5 0Zm383.9-15c.8 0 1-.5.5-1-.6-.3-1.4 0-2.4.8l-.7.7 1-.2a5 5 0 0 1 1.6-.3ZM66.6 161.8l-1.1-.2-1.1-.1.7.6c.6.4.9.5 1.2.2.2-.2.4-.4.3-.5Zm377.7-15.3c-.2-.2-.6-.3-.8-.2-.5.2-.4.2 0 .4 1 .3 1.3.3.8-.2Zm-409.5 15-.6-.2c-.3 0-.5 0-.4.1.1.3 1 .4 1 .2Zm17.7-.7h-.6c0 .1 0 .2.4.2s.4-.1.2-.2Zm436.3-17.6h-1c-.5 0-.8.1-.7.2.1.2 1.7 0 1.7-.2Zm-424 16.2s-.4-.1-.8 0c-.5 0-.7 0-.6.2.1.3 1.4 0 1.4-.2Zm379.8-15.8h-.6c-.1.2 0 .2.4.2s.4 0 .2-.2Zm29.5-1.9c-.2-.4-.1-.5.6-.7.5 0 .2-.1-.7-.1-1.2 0-1.4 0-1.4.5 0 .8.6 1.3 1.3 1 .4 0 .5-.2.2-.7ZM32.3 159.4h-.6c0 .2.1.2.4.2.4 0 .5-.1.2-.2Zm440-18-.3-.2c-.2 0-.3.2-.3.4 0 .1.1.2.3 0l.3-.3Zm-20.7.4h-.7c-.2.1 0 .2.4.2s.6-.1.3-.2Zm4-.9c.4 0 .6 0 .5-.1-.2-.3-1.8-.4-2-.2l-1 .4c-1 .2-1.2.4-.2.3.4 0 .8.2.8.3 0 .2.3.1.7-.1a3 3 0 0 1 1.3-.6Zm2.4-.8-.6-.3c-.4 0-.6 0-.5.2.2.2 1.1.3 1 .1Zm-398 14c.5-.2 1-.5 1-.7 0-.2.3-.4.6-.6.2 0 .3-.2 0-.2-.1 0-.3-.1-.3-.3 0-.2.1-.3.3-.2.2.1.3 0 .3-.1 0-.2-.3-.3-.6-.2-3.4 1-3.4 1-3 1.7.2.3.4.6.3.7v.2c0 .3.5.2 1.4-.3Zm-6.1-1c.2-.3.2-.7.1-.9-.1-.1 0-.4.2-.6.3-.2.1-.3-.5-.2-.6 0-.8 0-.5.2.3.2.3.4-.1.7-.4.3-.6.3-1 0a1 1 0 0 0-1-.1c-.4.2-.4.3.2.6.5.3 1.2.6 2 .7l.6-.4Zm2.8-2.7H56c-.2.1 0 .2.4.2s.6-.1.4-.2Zm4-.3c0-.1-.2-.3-.3-.2l-.1.3c0 .1.1.3.3.3.2 0 .3-.2.1-.4Zm-6.8-.3c0-.2-.2-.3-.3-.3l-.1.3c0 .2.1.3.3.3.2 0 .2-.1.1-.3Zm444.5-17.5c0-.1-.2-.2-.4-.1-.3 0-.5.1-.5.3 0 .1.2.2.5 0l.4-.2Zm-13.6 0c.2-.2.3-.2.2 0-.1.2 0 .4.4.3.4 0 .7-.1.7-.3 0-.1.4-.3 1-.3l1.7-.2c.5-.2.7-.2.5 0-.2.4 0 .4.3.1.7-.3 1.5-.2 1.2.3-.2.4 4 0 4.3-.3 0-.2.7-.4 1.4-.5 2.4-.4 1.2-.7-2.2-.5h-5.1a8 8 0 0 0-3.5.2c-2.6.6-3.5 1-3 1.6.5.5 1.5.3 2-.3Zm5-1.9h-.6c-.1.2 0 .2.4.2.3 0 .4-.1.2-.2Zm4.9-1h-1.6c-1.6.4-1.3.7.6.5 1.3-.2 1.6-.2 1-.4Zm.8-.6c0-.2-.1-.2-.3 0-.2 0-.3.2-.3.2l.3.2c.2 0 .3-.2.3-.4Zm-446 14c0-.1-.2-.2-.3 0-.2 0-.3.2-.3.2 0 .1.1.2.3.2.1 0 .3-.2.3-.4Zm-9.7-.2c.7 0 .7 0 .4-.3l-.3-.3c.2 0 0-.2-.2-.5-.5-.5-1.3-.5-1.6 0-.1.2-.3.2-.7 0-.5-.5-1.9-.4-2.4 0-.1.3.2.4.8.3.6 0 1.3.1 1.6.3.3.2.3.3 0 .3-.2 0-.3.2-.3.4s.3.2 1 0l1.7-.2Zm.1-2.2a4 4 0 0 0-1.2-.2c-.5 0-.4.1.3.4.5.2 1 .3 1.2.2.2-.1 0-.3-.3-.4Zm459.5-18.8c-.1-.2 0-.3.4-.3s.7-.2.9-.4c.1-.3 0-.3-.4-.2-.3.1-.5 0-.6-.2-.2-.3-.4-.3-.9 0-1.4.8-1.5 1-1 1.2.6.3 1.9.2 1.6-.1ZM42.1 137.3c0-.2 0-.3-.3-.3s-.5-.2-.4-.3c.2-.2-.4-.3-1.4-.2-1 0-1.3.1-.7.2.5 0 1.2.3 1.5.5.8.5 1 .5 1.3 0Zm3.7-.8c0-.2-.2-.3-.6-.3-.5 0-.8.2-.8.4 0 .1.3.3.6.2.3 0 .7-.1.8-.3Zm-2.5-.5c-.9-.4-1.4-.3-.8 0 .3.2.7.3 1 .3.2 0 .2-.2-.2-.3Zm-7.3-.3c-.2 0-.5 0-.7.2-.2.3 0 .3.4.1.4 0 .6-.2.3-.3Zm10-.1c.3-.4-.1-.4-.7 0-.4.3-.4.3 0 .3.3 0 .6-.2.7-.3Zm-3.4-.5c.1-.2-.2-.3-.8-.3-.5 0-.8.2-.7.3 0 .2.4.3.8.3.3 0 .6-.2.7-.3Zm460.8-18.5h-.5c-.3.2-.3.4 0 .5.5.3.9-.2.5-.5Zm-2.8-2-.9-1.2c-.4-.5-.4-.5 0-.3.3 0 .6 0 .6-.2 0-.3-.5-.4-1-.3-.2 0-.3-.1-.3-.3 0-.2-.2-.3-.3-.3-.2 0-.3.4-.2.8v1c-.5.5-.2.9.8.7.8-.1 1 0 1 .4 0 .2.2.4.4.4s.2-.2 0-.7Zm1.7-.6c-.2-.3-.8 0-.7.4 0 .1.2.2.4 0 .3 0 .4-.2.3-.4ZM54.8 126.9c.4-.3.4-.4 0-.7a2 2 0 0 0-.7-.2c-.3 0-.6.6-.4 1 .3.3.6.3 1.1-.1Zm-9-1.3c0-.4-2-.2-2.4.3-.3.4-.2.5.6.5 1 0 1.8-.3 1.8-.8Zm6 .5c-.3-.2-.8-.3-1-.3-.3 0-.3.1.1.3l1.1.2c.3 0 .3-.1-.1-.3Zm5-2.1c-.4-.5-1.2-.3-1.1.2 0 .3.2.3.6.2.3 0 .5-.3.4-.4Zm-6.2-2.2c0-.4-.3-.4-1 0-.3.3-.2.3.3.3.4 0 .7-.2.7-.3Zm457.6-18.6c0-.1-.1-.2-.3-.2l-.4.3c0 .1 0 .2.3.2.2 0 .4-.1.4-.3ZM50.7 119.4c-.9-.6-3-.7-3.4-.2-.7.7-.3.8 1.9.7 1.6-.1 1.9-.2 1.5-.5Zm3.5-.3c0-.4-1.1-.3-1.3.2-.1.3 0 .4.6.3.4-.1.7-.3.7-.5Zm3.3 0c0-.5-.6-.4-.7.2 0 .2 0 .4.3.4.2 0 .4-.3.4-.5Zm442.1-18.8c0-.1-.3 0-.5.2-.3.3-.3.4.2.2.3-.2.4-.3.3-.4ZM45.3 116.7c.1-.2 0-.3-.3-.3s-.5.2-.5.3c0 .2.2.3.3.3.2 0 .4-.1.5-.3Zm462.1-20.6c.5-.3.4-.4-.4-.3-1.4.1-1.4.1-.9.5.6.3.7.3 1.3-.2ZM46.4 114c.2-.2-.8-.6-1.6-.6-.6 0-.5.6.2.7.9.2 1.2.2 1.4 0Zm477-19.4c.2.2.3 0 .3-.1 0-.3-.3-.3-.9-.2-1 .3-1 .4-.8.8.2.3.4.2.7-.2.3-.2.7-.4.8-.3ZM44.2 113c0-.1-.3-.2-.7-.2-.7 0-.7 0-.1.3l.7.2v-.3ZM525 94h-.5c-.2 0-.4.1-.4.3 0 .2.2.2.5.1l.4-.3Zm-13.3-1.7c0-.6 0-.6.2-.3s.3.3.3 0c0-.1.3-.3.7-.4.7 0 .7 0 0-.2-.3-.2-.6-.1-.6 0 0 .2-.4.2-.7 0-.3-.1-.6-.1-.8 0-.5.3-.5 1.4 0 1.6.6.4 1 .1.9-.7ZM250 102.8c-.2-.3-1.4-.3-1.3 0 0 .2.3.3.7.3.5 0 .7-.1.6-.3Zm-4.9-1-.9.1c-.2.1 0 .2.6.2.5 0 .6-.1.3-.2Zm-19.3.5h-.6c0 .2 0 .3.4.2.4 0 .4 0 .2-.2Zm294.8-11.5h-.6c0 .2.1.3.4.2.4 0 .5 0 .2-.2ZM186.7 102h-.6c-.1.2 0 .2.4.2s.4-.1.2-.2Zm95.5-4.4c.2-.2-.2-.3-.8-.2-.6 0-1 .2-1 .3.3.3 1.6.2 1.8-.1Zm17-.8c-.4-.2-.5-.2-.8 0-.3.4-.2.4.4.4.6 0 .6 0 .3-.4ZM521 88c0-.2-.3-.3-.5-.3-.3 0-.5.2-.5.3 0 .2.2.3.5.3s.5-.2.5-.3Zm-232.6 8.7c.2-.4-.2-.4-.8 0-.4.3-.4.3.1.3.3 0 .6-.1.7-.3ZM37.2 105c.3-.5.1-.6-1.5-.8-1.4-.2-1.9-.1-2 .2-.2.6.8 1 2.7 1.2.3 0 .7-.3.8-.6Zm467-19c.7-.6.7-.7.3-1.1-.4-.5-.6-.5-1.3-.2-1 .4-1.4 1-1 1.5.3.4 1 .3 2-.3ZM32.8 103.8c.3-.2.2-.3-.6-.3-.9 0-1 .1-.6.3l.6.3.6-.3ZM176 97.6c-.1-.1.7-.2 1.8 0 1.5 0 2 0 2-.3s-.5-.4-1.6-.3c-.9 0-2 0-2.6-.2-1.4-.3-2.2 0-2 .7.1.4.4.5 1.3.4.7 0 1.1-.1 1-.3Zm333.3-13.2c0-.2.1-.4.4-.4.5 0 1.2-.8.8-1-.1 0-1 0-1.9.3-3.2.8-3.5 1.4-.9 1.4 1 0 1.6-.1 1.6-.3ZM167.2 96l-.5-.1c-.2 0-.4.1-.4.3 0 .2.2.2.5.1l.4-.3Zm-120.4 4c-.9-.4-1.2-.4-1 0 .2.1.6.3 1 .2.6 0 .6 0 0-.3Zm24.4-1.6c0-.1-.1-.3-.5-.4-.6-.1-.8.1-.4.5.3.3.7.2.9 0Zm-11.3-.2c0-.4-.6-.7-.8-.5-.3.2.2.8.5.8.2 0 .3-.1.3-.3Zm442-17.3a.7.7 0 0 0-.5-.2c-.2 0-.2 0 0 .3.7.3.8.3.6 0ZM72 96.6c-.3-.2-.4-.4-.2-.4s.4-.2.4-.5c0-.2-.5-.4-1.1-.5-.8 0-1.1 0-1 .3 0 .3 0 .4.2.4l1 .6 1 .6c.2 0 0-.2-.3-.5Zm439.5-17.2c-.1-.1-.3 0-.5.2-.3.3-.3.4.1.2.3-.1.5-.3.4-.4Zm-1.7 0c0-.2-.2-.3-.3-.1-.2 0-.3 0-.3-.2s-.2-.5-.5-.7c-.3-.4-.5-.3-1.1.2-.4.3-.6.6-.4.6l.6-.3c.2-.5.8-.4.6 0-.1.5.2.8 1 .8.2 0 .4-.1.4-.3Zm-354 12.5c-.1-.9-1.2-.9-1.3 0-.1.8.1 1 .8.8.5-.1.6-.4.5-.8Zm350-13.1c.6-.3 1.2-.7 1.4-1 .2-.3.6-.5.9-.5.2 0 .3-.1.2-.3-.2-.4.8-1 1.8-1 .8 0 1.2-.5 1.2-1.5 0-.7-.1-.7-1.8-.6-1 .1-1.8.3-1.8.4 0 .1 0 .2-.3.1-.1-.1-.3 0-.4.2-.1.1-.5.3-.8.3-.3 0-.6.1-.6.3 0 .3-3 1.7-3.7 1.7-.3 0-.6.2-.7.3 0 .2-.6.4-1 .6-1.1.2-1.2.6-.4.9 1 .4 1.9.4 2.7 0 .4-.1.8-.2.8 0s.3.3.7.4l.7.1 1.1-.4Zm-345 13.1c0-.2-.2-.4-.4-.4-.5 0-.9.5-.6.7.4.4 1 .2 1-.3ZM50.7 95.6H50c-.1.1 0 .2.4.2s.4-.2.2-.2Zm279.1-11.2c.3-.2.5-.5.4-.6 0 0-.5.1-.9.5-.7.7-.4.8.5.1Zm-172.6 6c0-.4-.2-.6-.5-.6s-.5.1-.5.3c0 .2.2.3.4.3s.2.1.1.3c0 .2 0 .3.2.3s.3-.3.3-.6Zm344.9-14h-.6c-.1.1 0 .2.4.2s.4-.1.2-.2ZM55.6 93.5h-1c-.1.1.1.2.6.2s.7-.1.4-.2Zm4.3-.3c.7 0 .5-.4-.4-.8-1-.4-2 0-2 .8 0 .4.3.5 1 .3a10 10 0 0 1 1.4-.3Zm-1.8-.2c0-.2.3-.3.5-.3.3 0 .4.1.3.3l-.4.3c-.2 0-.3-.1-.4-.3Zm4.4.1c0-.1-.3-.2-.7-.2-.7 0-.7 0 0 .3l.6.2v-.3Zm1.8 0c-.6-.4-.9-.4-.9 0 0 .2.3.3.7.3.6 0 .6-.1.2-.3Zm275-11.6h-.8c-.4.3-.5.3 0 .6.4.2 1.1-.2.8-.6ZM76 91.5c0-.4-.1-.7-.3-.6-.2.1-.3 0-.3-.3 0-.2-.2-.4-.5-.4a.8.8 0 0 1-.7-.5c0-.2-.5-.4-1-.4-.4 0-.6.2-.5.3.1.2-.2.4-.7.4-1.8 0-.9.8 1 .8 1.6 0 1.8.1 2 .8.3 1 1 1 1 0Zm84.4-3.1c0-.2-.1-.3-.3-.3a.3.3 0 0 0 0 .6c.2 0 .3-.1.3-.3Zm-15.6-.3-.8-.4c-.5-.1-.6 0-.5.3l.2.8c0 .1.3.1.6-.1.4-.2.6-.5.5-.6Zm347.5-13c0-.2-.2-.2-.3-.1l-.3.3c0 .1.1.2.3.1.2 0 .3-.1.3-.3Zm-423.6 16c.1 0 0-.4-.3-.7-.3-.3-.4-.6-.2-.6.1 0 .2-.3.1-.6s-.3-.6-.5-.6-.2-.1 0-.3c.7-.4.2-.7-.9-.7-1 0-1.3.7-.3 1 .4 0 .6.2.5.4 0 .1-.3.2-.5.1l-1.7-.2c-1.8-.1-1.6.5.4 1.1l1.3.5c-.2 0 0 .2.6.5 1.1.4 1.2.4 1.5.1Zm14.6-.6c0-.2-.1-.4-.4-.4-.8-.3-1-.2-1 .3s1 .6 1.4.1Zm-23.7.4c0-.2-.3-.4-.6-.4-.6 0-.8.4-.4.7.4.4 1 .2 1-.3Zm85.9-4c0-.2-.2-.4-.5-.5-.3-.1-.4 0-.4.4s.1.6.4.4c.3 0 .5-.3.5-.4Zm6.6 0-.6.1c-.1.1 0 .2.4.2.3 0 .4-.2.2-.2Zm4.1-.9c-.5-.2-1 .2-.7.7.2.3.4.3.7 0 .4-.4.4-.5 0-.7Zm-94 4a.5.5 0 0 0-.7-.3c-.3.1-.4.2 0 .4.6.4.9.3.7-.2Zm18.2-.7c0-.1-.3-.3-.5-.2-.1 0-.2.1 0 .3l.4.3c.2 0 .3-.2.1-.4ZM59 88.7c-.7 0-1.6.1-1.9.3-.4.4-.4.4.2.2.3 0 .9 0 1.2.3.5.3.6.3 1.1-.2.6-.5.6-.6-.6-.6Zm15.8-.2c-.2-.9-1.2-1-1.9-.3-.4.5-.3.5.3.5.4 0 1 .1 1.2.3l.5.2-.1-.7Zm65.1-2c0-.3-.2-.4-.3-.4-.2 0-.3.2-.2.3l.4.3.1-.3Zm1.8-.6c0-.3-.2-.5-.4-.5-.5 0-.6.7-.3 1 .3.3.8 0 .7-.5ZM80 88l-.4-.3c-.3 0-.5 0-.5.2 0 .1.2.3.5.2h.4Zm3.5-.3c-.4-.2-.4-.4-.2-.9.3-.5.3-.7-.1-1-.3-.2-.4-.6-.3-1.2 0-.7 0-1-.4-1.1a.8.8 0 0 0-.8.2c-.3.7-.7-.2-.3-.9.3-.7.3-1 0-1s-.3.2-.2.4c.2.3-.7.7-1.2.5-.2-.1 0 0 .3.4.5.6.5.7.1 1.3-.4.6-.4.8 0 1.4.5.6.5.7.2.8-.3 0 0 .3.6.7a4 4 0 0 0 2 .7c.5 0 .6-.1.3-.3ZM82 86.2c0-.2.2-.3.3-.3.2 0 .3 0 .3.3 0 .1 0 .3-.3.3a.3.3 0 0 1-.3-.3Zm72-1.4c1 0 1.6-.6 1.6-1.2 0-.5-1.7-.2-2.7.5-1 .8-1.3 1.5-.4 1l1.5-.3Zm-81.2 2.7c0-.2.2-.3.5-.4.4 0 .4 0-.1-.6-.6-.6-.6-.6-1 0-.2.2-.2.6-.1.9.2.5.7.5.7 0Zm15.9-.6c0-.2 0-.4-.2-.5-.1-.1-.3-.5-.3-1 0-.3-.2-.7-.4-.7-.3 0-.3.8 0 1.8.2.7.6.9.9.4Zm-17.3.3a.7.7 0 0 0-.6-.3c-.2 0-.2.2.1.3.6.4.7.4.5 0Zm40.6-1.5c.1 0-.2-.3-.7-.5-.5-.2-1-.4-1.1-.3 0 .1 0 .2.2.2s.3.1.2.3c0 .2-.3.2-.5.1-.1 0-.2 0-.2.2s.8.2 2.1 0Zm14.3-.7c.3.1.3 0 0-.2-.1-.2-.5-.2-.8-.1-.4.2-.5.3-.1.4.2.2.4.2.5 0 0-.2.2-.2.4-.1ZM66 86.5c0-.4-.2-.6-.5-.6-1 0-1-.2-.6-1.4.3-1 .3-1.3 0-1.5l-1.3-1.3c-.9-1-1.5-.8-.8.3.3.6.3.7-.4.5-.6-.1-.8 0-.8.2 0 .3-.1.3-.4 0-.2-.4-.4-.4-.5 0 0 .1-.6.3-1.2.3-1 0-1 .2-1 .8.2.5.4.7 1.3.7a3 3 0 0 0 1.9-.4c.8-.6 2-.8 2-.2 0 .2-.1.6-.4 1-.4.4-.4.6-.1.8.2 0 .3.4.2.7-.2.5.3.7 1.8.7.7 0 .9-.1.8-.6Zm78.6-3h-.6c0 .2 0 .3.4.2.4 0 .4 0 .2-.2Zm2.7-.4c0-.2-.3-.2-.8-.1-.4 0-.7.2-.7.3h.7c.5 0 .8 0 .8-.2Zm-76.4 2.1c0-.4-.1-.7-.3-.7-.2 0-.3.3-.3.8 0 .4.2.7.4.7.1 0 .3-.3.2-.8Zm44-1c.3-.3-.2-1.7-.6-1.8-.2 0-.3.3-.4.7 0 .4-.2.9-.4 1-.2.1 0 .2.5.2.4 0 .8 0 1-.2Zm12.5-.9c.5-.4.5-.4-.1-.4-.4 0-.7.2-.8.5-.2.6.1.6.9 0Zm11.5-.3c0-.3-1.5-.7-1.8-.4-.2.3.6.8 1.3.8.3 0 .6-.2.5-.4Zm361.6-14.2c0-.3-.2-.5-.4-.5l-1.1-.1c-.8-.1-1 .7-.3 1 .9.2 1.8 0 1.8-.4Zm-428 16.4c0-.3 0-.5-.2-.5l-.7-.1c-.5-.2-.5-.2 0 .2.5.2.6.4.2.6-.3.2-.3.3.2.3.3 0 .5-.3.5-.5Zm53.6-2.8h-.5c-.3.3-.2.4 0 .6.5.2.9-.3.5-.6Zm13-.8c-.1-.1-.2 0-.2.4 0 .3.1.4.2.2v-.6Zm-30.3 1.3c.1-.2 0-.3-.3-.1-.3.1-.5 0-.5-.1 0-.4-1.2-.4-1.4 0v.5c.4.2 2 0 2.2-.3Zm-35.1.7c-.2-.2-.5-.2-.6 0-.2.2-.1.3.3.3s.5-.1.3-.3Zm15.6-.5c0-.1 0-.3-.3-.3s-.5.2-.5.4c0 .1.1.3.3.3.2 0 .4-.2.5-.4Zm-14.9-.3c-.2-.4.7-.7 1.2-.5.3.1.7 0 1-.5.2-.3.7-.7 1.2-.8.7-.2.9-.4.9-1 0-.3 0-1 .2-1.5.1-.6 0-.9-.2-.8-.4 0-.4-.1 0-.4.4-.2.4-.3-.1-.3-.3 0-.6-.1-.6-.4 0-.3.2-.5.3-.5.2 0 .3-.2.3-.5 0-.2.1-.4.3-.4l.6.4c.6.7 1 .5 1-.3 0-.5-.2-.8-.4-.8-.3 0-.3-.1 0-.4l.3-.7v-1.5l.2-.9-1 1c-.5.5-1.6 1.2-2.4 1.5-1.8.8-2.3 1.3-1.6 2 .7.6.7.7 0 .5-.8-.1-1.6.5-1.6 1.1 0 .3-.1.7-.4 1-.6.6-.3 1 1 1.6 1.4.7 1.5 1.3.1 1-1 0-1 0-.9.6.2.6.1.6-1 .6-1.1-.1-1.3 0-.7 1 .2.3.6.4 1.4.3.6-.1 1-.3 1-.4Zm2.8-4.8c0-.1.1-.4.3-.5.2-.1.3 0 .2.1-.2.2 0 .4.5.5.6 0 .6 0-.2.2-.4 0-.8-.1-.8-.3Zm33.2 2.7c-.2-.2-.3-.2-.3 0 0 .4.4.7.6.5 0 0 0-.3-.3-.5Zm5.2 0c.1-.1 0-.3-.1-.4-.5-.3-.6-1-.2-1.3.2-.1.2-.3-.2-.4-.3 0-.6 0-.8.5-.2.4-.4.5-.8.3-.3-.1-.9-.2-1.2-.1h-.2l.4-.5c0-.2.3-.3.7-.3.6 0 .8-.2.7-.6L113 76a9 9 0 0 0-2.7 1.6c.3 0 .4.3.3.6-.1.4 0 .9.6 1.4.6.6 1 .8 1.6.6.6-.2.8-.2.6 0-.3.7.2 1 1 .8a4 4 0 0 0 1-.4Zm-3-2.7c-.3-.3-.2-.7 0-.7s.5.2.6.4c.2.5-.2.6-.5.3Zm21.4 1.3c0-.2-.3-.3-.8-.3-.6 0-.8.2-.5.3.5.3 1 .3 1.3 0Zm-27.2.5c0-.1 0-.4.4-.7.4-.3.4-.4-.4-.4-.5 0-.8.2-.8.5 0 .5.3.8.7.8.2 0 .3-.1.1-.2Zm-16.6-.3-.8-.1c-.4 0-.7.2-.7.3 0 .1.3.2.8 0 .4 0 .7-.1.7-.2Zm6.3-.7c-.6-.6-.8-.6-1.1-.3-.2.2-.6.4-1 .4l-.6.3c-.1.2.5.3 1.6.3H97l-.7-.7Zm22.4-1.2c0-.1-.1-.3-.3-.3-.2 0-.2.2-.1.4 0 .1.2.3.3.2l.1-.3ZM384 66.5c.4-.6.5-.8.1-.8-.5 0-1 .7-1 1.2 0 .6.3.5 1-.4ZM104.2 77.3c.3-.2.3-.4.2-.6-.1-.2 0-.4.2-.4s.3 0 .2-.2l-1.2.1c-.8.2-.8.3-.5.8.5.7.5.7 1.1.3Zm-12.2 0c0-.2 0-.5.4-.6.3-.1.3-.1-.2 0-.9 0-1.3 1.1-.5 1 .3 0 .4-.1.3-.4ZM378.4 66l1.4-1.2c.3-.5.4-.5.2 0-.1.2-.1.3 0 .2.2-.2.3-.5.3-.9 0-.6 0-.6-.8 0l-2 2c-.6.8-.2.8 1-.1Zm11.7-.4.9-.5c.5 0 1-.4.9-.6 0-.3-.2-.4-.6-.3l-.8.1c-.4 0-1 1.6-.7 1.6.2 0 .3-.1.3-.3ZM108.9 76.2c0-.2-.2-.2-.5-.1-.3 0-.5.2-.5.3h.5c.3 0 .5 0 .5-.2Zm17.6-.7c0-.2-.3-.4-.6-.6-.3-.1-.5-.4-.4-.5 0-.1 0-.3-.2-.3-.3-.1-.4.2-.4.8 0 .8.2 1 .8 1 .4-.1.8-.2.8-.4Zm-31.7.6c-.1-.2-.3-.3-.5-.3s-.3.2-.3.3c0 .2.2.3.5.3s.4-.1.3-.3Zm15.6-.8-.8-.6c-.3-.6-.8-.5-.8.2 0 .5.2.6 1 .6.6 0 .8-.1.6-.2Zm-4.4-.4c0-.7-.4-1.4-.7-1.4-.2 0-.2.2-.1.5s0 .6-.3.7c-.6.2-.2.7.6.7.3 0 .5-.2.5-.5Zm279.4-11 .2-.4-.5.5-.2.5.5-.5Zm3.3-.6c.2 0 .5-.3.7-.5.7-.7-.8-.4-1.6.3-.6.6-.6.7-.1.5l1-.3ZM103.4 74c.4-.3.7-.7.7-1 0-.6-1-.4-1.1.3-.1.5-.3.6-.6.3-.2-.2-.7 0-1.5.4l-1.2.7 1.5-.2a5 5 0 0 0 2.2-.5Zm-8.9-.2-.4-.2c-.3 0-.4.2-.3.4.2.3.8 0 .7-.2Zm393.9-16.2c.2-.4.3-1.5.1-1.5-.3 0-1.5 1-1.7 1.5-.2.5 1.3.5 1.6 0Zm-380.6 14c.4-.4.3-.4-.4-.2-1.3.5-1.7.8-.8.8.4 0 1-.2 1.2-.5Zm4.5-1-.7-.4c-.5 0-.6 0-.2.4.5.6 1.1.6.9 0Zm378.2-17.2c0-.1-.1-.2-.3-.2-.2 0-.3.2-.3.4s.1.2.3.1l.3-.3Zm-2.5 0c.4-.3.4-.4 0-.8-.6-.7-1-.6-1 .3.1.8.3 1 1 .4ZM418.2 55c.4-.5.6-1 .4-1-.3 0-.7.5-1 1l-.5 1a4 4 0 0 0 1-1Zm60.8-3.4c0-.3-1-.4-1.1-.1-.1.1.1.3.5.2l.6-.1Zm6.5-4.8c0-.2-.1-.3-.5-.3-.3 0-.7.2-.8.4 0 .1.1.3.5.3.3 0 .7-.2.8-.4ZM352 202.2c1-1 1.2-1.5 1-1.6-.2-.3 2.3-.7 3-.5.4.2.4.1.1-.3-.3-.4-.3-.5.2-.6.5-.2.6 0 .5.2 0 .2.2.5.6.6.6.2.6.2-.1.5l-.8.3h.8c.5 0 1-.3 1.2-.5a2 2 0 0 1 1-.6c.4 0 .7-.3.7-.5 0-.6.3-.8 1.3-.6 1.4.2 1.1.7-.8 1.6a10 10 0 0 1-4 .9c-2.2.1-2.5.2-2.5.7 0 .4-.2.6-.9.8-1.7.4-2 .3-1.3-.4Zm-170 6.6c.3-.3.6-.3 1.1 0 .7.2.7.3-.3.3-.8 0-1 0-.7-.3Zm32.3-1.5c0-.2.2-.3.3-.3h1.4c1.4-.1 1.3 0-.4.3-.8.2-1.3.1-1.3 0Zm3.2-.1c-.1-.2 0-.3.3-.4.5 0 .6.2.2.5l-.5-.1Zm25.7-1.2c.2-.1.6-.2 1 0h-1Zm75-3c0-.2 0-.4.2-.4.1 0 .3.1.3.3l-.1.3-.4-.3Zm29-1.3v-.4c.2 0 .2.3.1.5 0 .3-.1.2-.2-.1Zm-174 6.4-.9-.4h.9c.5 0 .8.2.9.3 0 .1.2.3.5.3.5.1.5.1 0 .2-.4 0-1-.2-1.5-.4Zm23.2-1.3c.1-.2-.1-.4-.6-.5-.8-.2-1-.3-.5-1 .2-.5.3-.4.3 0 0 .5.2.6 1 .5.6-.2.9 0 .9.2s.2.3.5.2c.4-.2.4-.3 0-.5-.3-.2-.3-.2 0-.2.6 0 2 .9 2 1.2 0 .1-.8.3-1.9.3-1 0-1.8 0-1.7-.2Zm121.7-4.6c0-.3.5-.5.7-.2.1.1 0 .3-.3.3l-.4-.1Zm32.4-1.4-.8-.2.7-.3c.7-.3 1.3 0 1.3.4 0 .3 0 .3-1.2 0Zm-128.3 4.8.8-.3.8.1c0 .2-.4.3-.8.3h-.8Zm-86.4 2.4c-.5-.2-.8-.4-.6-.4.4 0-.6-.6-1-.6-.3 0-.4.2-.3.3.2.2-.1.3-.7.4-.5 0-1-.1-1.1-.3-.1-.2.1-.3.6-.3.4 0 .8-.2.9-.3 0-.2.8-.3 1.5-.2.8 0 1.5 0 1.6-.3.2-.4 1-.4 1.8 0 .6.5.6.5.1 1-.2.3-.4.6-.3.8.3.4-1.5.3-2.5 0Zm3 0c0-.3 0-.6.2-.6s.5.2.7.5c.3.4.3.4-.3.5-.3 0-.6-.2-.6-.5Zm70.7-3-1-.4.8-.1c1-.2 1.8 0 1.8.4s-.1.4-1.6 0Zm38.2-2.1c1.2-.4 2.3-.5 2.2-.2-.1.2-.8.3-1.7.4-1.2 0-1.3 0-.5-.2Zm-31.4 1c.2-.3.7-.4 1-.4.6 0 .6 0 .2.3l-1 .3c-.6 0-.6 0-.2-.3Zm99.5-4.1v-.5c.2 0 .3.2.4.5.1.2 0 .4 0 .4-.3 0-.4-.2-.4-.4Zm-102 3.9c0-.2-.3-.4-.6-.4-.4 0-.6-.1-.7-.3 0-.1.2-.3.4-.3.7 0 1.3.5 1.1 1 0 .2-.1.2-.2 0Zm-82.6 2.3c-.4-.2-1.1-.3-1.6-.2-.9.1-2.4-.1-6.3-.9-2.2-.5-4-1-4.6-1.6-.6-.4-.5-.5 1-.7h2l1.2.5c.6.2.8.2.7 0v-.9c.2-.3.5-.3 1 0 .3 0 .7.4.7.5 0 .2.5.5 1.2.6.7.2 1.4.5 1.6.8.2.2.6.3 1 .3.2 0 .6.1.7.3.2.1 1 .3 1.7.3 1 0 1.4.2 1.6.7.2.5.1.6-.4.6l-1.5-.3Zm141.6-5.3a2 2 0 0 1 1-.3c.2 0 .2 0-.2.2-.9.4-1.3.5-.8 0Zm62.4-2.6c0-.3 1.3-.4 1.4-.2.1.2-.1.3-.6.3h-.8Zm-127.4 4.6c-.7 0-1.2-.3-1.2-.5 0-.3-.3-.5-1-.5-.6 0-.8 0-.8-.3.2-.5 2.2-.5 2.4 0 0 .1.5.3 1 .3.4 0 1 .1 1.3.3.5.4.5.5 0 .6-.2.2-.4.2-.5.2l-1.2-.1Zm2.9 0 .3-.4c.1-.1.3 0 .3.1 0 .2-.1.4-.3.4l-.3-.1Zm30.4-1.3c-.4-.4-.1-.6 1-.6.6 0 1.2 0 1.3-.2.2-.3 1.5-.1 1.6.2 0 .3-.3.3-2.2.6H241Zm33.2-1.3c0-.4 1.1-1 1.8-1.1.9 0 2.3-1 1.5-1-.2 0-.2-.1.2-.3.8-.4 2.8-.3 2.8 0 .1.4-.8.8-1.4.6-.3 0-.3 0-.1.3.2.3 0 .3-.6.2l-.8.1c0 .2-.3.4-.7.5-1.6.6-2.7.8-2.7.7Zm41-1.8c-.2-.2-.2-.3 0-.2 0 .2.5.1 1 0 .3-.2.7-.3.7-.1 0 .3-.7.7-1.3.7l-.5-.4Zm-167.5 5.5c.2 0 .6-.1.8 0l-.4.1c-.4 0-.6 0-.4-.1Zm104.5-4.8c0-.4 1-1 1.3-.8.3.3-.3 1-.8 1-.3.1-.5 0-.5-.2Zm-36 1.2h.9l-.4.1c-.5 0-.6 0-.4-.1Zm65.2-2.6c-.2-.3.6-1.1 1.2-1.2.7-.1.6.7 0 1.1-.8.4-1 .4-1.2 0Zm-72.1 2c.1-.1.4-.2.6 0l-.2.1c-.3 0-.5 0-.4-.1Zm1.1-.4c-.3-.3-.3-.4.1-.4.6 0 1 .4.6.7-.1.1-.4 0-.7-.3Zm43.3-2.4c.6-.4 1.6-.5 1.4 0a2 2 0 0 1-1 .3c-.7 0-.8 0-.4-.3Zm26.4-1c-.3-.5 0-.8.6-.6.5 0 .5 0 0 .5-.2.3-.4.3-.6 0Zm88.2-3.7c-3.9-.3-3.8-.3 1-.5 2.1 0 3.9-.2 4.2-.4.5-.3.8-.3 1-.1.3.2.9.3 1.4.4l1.2.2c.7 0-2.5.6-4 .7l-4.8-.3Zm10.2-.5c0-.2.4-.3.8-.3s.7 0 .6.2c-.1.2-.5.4-.8.4-.3 0-.6-.1-.6-.3Zm-26.4.7c-.1-.1 0-.3.3-.3.5 0 .6.2.2.4h-.5Zm10.2-.4c-.3-.4 1.7-.4 2.3 0 .3.1.1.2-.8.3-.7 0-1.4-.1-1.5-.3Zm-253.2 9.5c-1.3-.4-1.8-1-1.5-1.4.1-.3.2-.3.4 0s1.6.4 2.6.1c.3 0 .5 0 .5.2s-.3.3-.5.3c-.6-.1-.4.5.2.8.5.3.5.3 0 .3a7 7 0 0 1-1.7-.3Zm274-10.8c.1-.3.6-.7 1.2-1 1.3-.4 3.2-2.2 2.9-2.8v-.5c.1 0 1.4 1.1 1.4 1.3 0 .5-2.6 2.6-3.6 3-1.5.6-2 .6-1.8 0Zm-36 1.3c-.5-.2-.5-.3-.1-.3.3 0 .6.1.7.3.3.3.2.3-.6 0Zm-8.5 0-1.4-.1 1.5-.3c.9-.2 1.6-.2 1.8 0 .4.4-.3.6-2 .4Zm-42.6 1.2v-.6c-.3-.2 0-.3 1-.2 1.1 0 1.2 0 .4.3l-1.2.5c-.2.2-.3.2-.2 0Zm80.9-3.3c0-.2.3-.5.7-.6.4-.2.4-.3.2-.3-.3 0 0-.3.4-.5.5-.3 1-.5 1.1-.4.2.1.3 0 .3-.1 0-.2.3-.3.6-.2.7.2 1.2 1.2.7 1.7-.4.5-4 .8-4 .4Zm-262 10c-.4 0-.7-.2-.7-.4 0-.4.7-.4 1.4.1.6.5.6.5-.7.3Zm246-9.7c-.1-.2 0-.3.2-.3a.3.3 0 1 1-.3.3Zm4.5-.6.5-.3c.2-.1.4 0 .4 0 0 .3-.1.4-.4.4h-.5Zm-264.7 10c-.4-.1-.7-.3-.8-.5 0-.3 1.2-.1 1.6.2.2.2-.1.3-.8.2Zm19.3-1.3-1-.6c-.5-.2-.6-.3-.3-.7.6-.7 1.8-.6 2 .1l.5.6c.1 0 .3.2.3.5 0 .5-1 .6-1.5 0Zm231.3-9.4c-.1-.3-.6-.5-1.3-.4-.5 0-1-.1-1.2-.3-.3-.4 1.8-.2 3.2.4 1.2.5 1.3.7.3.7-.5 0-1-.2-1-.4Zm24-1c-.6-.6-.3-.8.8-.4.6.3 1 .5.8.6-.3.4-1.2.3-1.6-.2Zm-272.1 9.4c-.5-.2-.8-.2-.7 0 .2.2 0 0-.5-.2-.4-.2-1.1-.5-1.6-.4-1 0-2.7-.5-2.7-.8 0-.4 1.8-.5 2.3-.1.4.3 1.8.6 4.3 1 1.5.2 2 .9.6 1a4 4 0 0 1-1.7-.5Zm13.8-.3c-.6-.4-.5-1.3.1-1.3.5 0 .7.2.7.8 0 .7-.2.9-.8.5Zm281.7-11.7a30 30 0 0 1 3.7-.6c2-.2 2.5-.2 2 .1-.3.2-2 .5-3.7.6-2.2.2-2.8.2-2 0Zm-30.9.7h.6c.3 0 .2.2-.1.2-.4 0-.6 0-.5-.2Zm42.1-2c1.4-.3 2.3-.3 2.5-.1.2.2-.5.3-2.2.3H408l2.1-.3ZM88.1 196.2s-.4-.2-.9-.2c-1.5-.2-3.7-.8-3.7-1 0-.6.9-.6 1.7-.1.4.3 1.2.4 1.6.4l.9.1c.1.2.4.3.8.3.3 0 .6.1.8.3.1.3-.9.5-1.2.2Zm15.8-.8c0-.2.1-.3.3-.3.2 0 .4.1.5.3.1.1 0 .3-.3.3-.2 0-.5-.1-.5-.3Zm311-12c-.1-.2 1.1-.4 1.5-.2.3.2.1.3-.6.3h-1Zm13.6-1.3a52.8 52.8 0 0 1 6.5-1.2c2.3-.4 3.5-.5 1.8 0-1.9.5-7.5 1.5-8.7 1.5-1 0-1 0 .4-.3Zm-25.1-.2c0-.6 1.3-1.3 2-1.1 1 .3 0 1.6-1.5 1.7-.4 0-.6-.2-.5-.6Zm40.9-3 .9-.2c.4.1.3.2-.3.4-.6.1-.8 0-.6-.1Zm-361.8 12c-.2-.4.5-.4 1.1 0 .4.2.4.2-.2.2-.3 0-.7 0-.9-.2Zm-36 .4a5 5 0 0 0-1.8-.5 14 14 0 0 1-2.9-.8l-3.5-1c-1.1-.1-1.7-.7-.7-.7 1.7 0-2-1.4-4.6-1.6-1.6-.2-1.5-.3.1-.4.8 0 1.8-.3 2.2-.6.7-.4.8-.4 2 .2.7.4 1.3.8 1.3 1 0 .3 3 1.2 4 1.2a6 6 0 0 1 2.5 1.4c.3.2.6.2.9.1.5-.2 2.7 1.3 2.7 1.9 0 .5-1 .5-2.2-.2Zm21.9-2.8c0-.3.2-.5.4-.5.3 0 .5.1.5.3 0 .1-.2.3-.5.4-.2.2-.4 0-.4-.2Zm394.3-16.2c0-.2 2.9-1.3 3.7-1.3.6 0-1 .9-1.8 1-.4 0-.8.1-.9.3-.2.4-1 .4-1 0ZM53.3 187.7c-.4 0-.7-.3-.6-.5 0-.2-.5-.6-1.2-1-.7-.2-1.6-.6-1.8-.8-.3-.2-1.6-.7-3-1-1.4-.3-2.9-.8-3.3-1.1-.5-.3-1-.4-1-.3-.2.1-.2 0-.1-.1 0-.2 0-.5-.3-.6-.3 0-.5-.3-.4-.5 0-.4-.7-.5-1.7-.2-.3.1-.4 0-.3-.4 0-.6-.5-.7-.8-.2 0 .2-.4.2-.8 0a4 4 0 0 0-2 0c-1.1.2-1.3.4-1.3 1 0 .4.2.7.4.7s.3 0 .2.2c-.2.2-1.6-.4-2-.9-.3-.5-.2-1 .5-1.7.5-.6.9-.7 1.8-.6 1.9.3 2 .3 2.2.6.1.2.2.1.2-.1s-.5-.6-1.2-.9c-1-.3-1.2-.5-1-1 .2-.3.5-.6.8-.6.7 0 1.3-.6 2-1.6.2-.5.9-1 1.4-1.3.8-.4 1-.4 1.6.1.4.4.6.8.5 1.3-.2.7.5 1.3 1.6 1.2.8 0 2.5 1.3 2 1.6-.2.2-.7.2-1.2 0-2-.7-2.5-.6-3 .3-.3.9-.3 1 .4 1.5.5.3.8.7.7 1-.3.7 2.8 1 5.3.6h.5c-.6.3 0 .7.9.7.7 0 .8 0 .7.6 0 .4 0 .6.8.8a4 4 0 0 1 1.4.5c.3.3.8.5 1.2.6.4 0 .8.2.9.4 0 .2.4.3.7.3.7 0 .8.3.2.8-.5.5-1.2.6-2 .6ZM39 179h-.6c-.1.1 0 .2.4.1.3 0 .4 0 .2-.1Zm2-3c0-.2-.2-.3-.3-.3-.2 0-.4.1-.5.3 0 .1 0 .2.3.2s.5-.1.5-.3Zm36.3 10.4c-.3-.2-.3-.4-.1-.5.2-.1.4 0 .5.3.2.5.2.5-.4.2Zm-4.8-1c-.3-.3-.3-.7 0-.7.2 0 .4.2.5.4.2.5-.1.6-.5.3Zm-43.3 1.4c.2-.1.6-.1.8 0l-.4.1c-.4 0-.6 0-.4-.1Zm27.4-2.3c-.6-.4-.6-.5 0-.2l.8.5c0 .2-.2.2-.8-.3Zm-5.9-1.2c-.2-.9-.1-1 1-.8.8.2 1 .3.7.8-.4.8-1.4.8-1.7 0Zm-22-2c-.3-.6.2-1.1 1-1.2.6 0 1 .8.8 1.3-.3.5-1.6.4-1.8-.2Zm.7-.4H29c-.1.1 0 .2.4.2.3 0 .4-.1.1-.2Zm20.4-.6c-.4-.4-.6-.7-.5-.8.2-.3 1.3.1 1.5.6.3.7-.3.8-1 .2ZM30.5 179c-1.1-.5-1.2-.8-.1-.6.4 0 .8 0 .9-.2.3-.5 1-.4 1.2.2.2.5-.2 1-.8 1l-1.2-.4Zm453.4-18.4a.3.3 0 1 1 .6 0 .3.3 0 0 1-.6 0Zm-453.4 15-1.3-.6c0-.6.5-1 1.5-1.2.8-.2 1.3 0 2.3.5 1.1.6 1.2.7.7.9l-1.2.5-.6.3-1.4-.4Zm-3.7-5c-.3-.4-.2-.8.1-1.4.3-.4.6-.7.8-.7.2 0 .2-.2 0-.4 0-.3 0-.3.4-.1 2.4.8 3.3 1 3.7.6.6-.5.9 0 .4.7-.3.4-.6.5-1 .4-.4 0-1 0-1.1.2-.3.2-.6.4-.9.3-.6 0-1.8.5-1.6.8.1.1 0 .2-.1.3-.2 0-.5-.3-.7-.7Zm446.4-17h.5c.3.1.2.2-.1.2-.4 0-.5 0-.4-.1Zm1.6-.1c.7-.4 1.5-.5 1.2-.2 0 .2-.5.3-1 .4-.7 0-.8 0-.2-.2Zm15-2.1c.5-.5 6.4-1 6.4-.6l-.6.4c-5 .4-6 .5-5.7.2Zm6.7-.6.1-.3.3.3c.2.1.1.3 0 .3-.3 0-.4-.1-.4-.3ZM34 168.4l-1-.5 1.2.2a3 3 0 0 0 1.7-.3c.4-.2.9-.3 1.1-.2.9.3.6.7-.4.6-.5 0-.9 0-.9.2 0 .5-.5.5-1.7 0Zm-8.6-1.6-.9-.6c-.3-.3-.3-.4.3-.4.3 0 .6.1.6.3 0 .1.1.3.3.2.5 0 1 0 1 .3 0 .4-.5.4-1.3.2Zm8.1-.4-.7-.5c-.3-1.4-.2-1.7.4-1.6.9.1 5.2 1.8 5.2 2 0 .2-4.3.3-4.9 0ZM477 148.5l.3-.6c.3-.3.3-.4-.1-.4-.3 0-.5 0-.4-.3.3-.5 1.3-.2 1.3.3s-1 1.5-1.1 1Zm4.6-1.8c0-.4 2.4-1.1 2.8-.7.5.4.3.5-1.4.8h-1.4Zm-463 15.6c-.1-.2.4-.3 1.2-.3.8 0 1.4 0 1.4.2s-.5.3-1.2.4c-.6 0-1.3-.1-1.4-.3Zm473-19.5c.3-.3 2.7-.6 2.5-.3 0 .2-.7.4-1.4.4h-1.1Zm3.3-.6c0-.2.3-.5.6-.6.3 0 .6-.3.6-.4 0-.2.1-.3.3-.2.2.1.4 0 .5-.3 0-.2.4-.5.7-.5.3 0 .4.1.1.4-.5.5 0 1.2.7 1.2.6 0 .6 0-.1.3-1.2.4-3.4.4-3.4 0Zm-2.7-.4c.7-.5 1-.4.7.1-.1.2-.4.4-.7.4-.5 0-.5 0 0-.5ZM52.8 158.4c-.2-.3-.7-.5-1.8-.4-1.5 0-4-.7-6.6-2a7 7 0 0 0-2.3-.4c-1.9 0-2.3-.1-1.3-.5 1-.4 0-1-1.4-1-1.2 0-1.3 0-.7-.5.4-.3 1-.4 2.1-.3a6 6 0 0 1 1.9.3c.1.2.8.1 1.6 0 1.5-.5 2.4-.3 2.1.2-.1.3.5.4 1.2.3.1 0 .5.4.8 1 .7 1.3 1 1.5 1.4 1 .3-.5.6-.5 2.5.1.3.1.5.4.4.8 0 .3 0 .8.2 1.2l.2.6-.3-.4ZM26 159c.1-.2.4-.2.6-.1.3 0 .2.2-.1.2-.4 0-.6 0-.5-.1Zm10.8-.6c.2-.5.7-.5.8-.1.1.2 0 .4-.3.4s-.5-.1-.5-.3Zm441.3-18.3c.1-.1.4-.2.6 0l-.2.1c-.3 0-.5 0-.4-.1Zm5-.2c.3-.1.6-.2.9 0l-.4.1c-.4 0-.6 0-.4-.1ZM27.5 157.3c-.1-.1 0-.3.2-.3.6 0-1-.8-2.8-1.3-1-.2-1.7-.6-1.7-.7 0-.2.6-.3 1.4-.3.8 0 1.4 0 1.4.2s.3.3.6.3c.4 0 .7.1.7.3 0 .1.7.6 1.5.9.9.4 1.5.8 1.4.9-.2.4-2.5.4-2.7 0Zm476.2-18.5c0-.2 2.3-.2 2.3 0 0 .1-.5.2-1.2.2s-1.2 0-1.1-.2Zm-24.6-.3a2 2 0 0 1 .9-.4c.4 0 .4 0 0 .3a2 2 0 0 1-1 .4c-.3 0-.3 0 0-.3Zm35-2s.2-.2.6-.2c.4 0 .7 0 .6.2 0 .1-.3.3-.5.3l-.6-.2Zm-17-1.2-1.3-.2 1.6-.1c3.4-.3 5.4-.3 5.4 0s-4.1.5-5.7.3ZM22.8 153.5c0-.1-.5-.3-1-.3-1 0-1-.1-.4-.5.5-.3.8-.3 1.4-.1.6.2 1 .2 1.8 0 1.2-.5 2.4-.6 2.4-.2 0 .2-.2.3-.4.3-.3 0-.4.2-.4.4s-.5.4-1.7.5c-1 .2-1.7.1-1.7 0Zm-10.6.2h.7l-.3.1c-.5 0-.6 0-.4-.1Zm22.8-1.2h1l-.4.1c-.5 0-.8 0-.6-.1Zm453.5-17.7h1l-.4.1c-.6 0-.9 0-.6-.1ZM38 152c-.1-.2.2-.3.6-.4.5 0 .8.1.6.3 0 .2-.3.3-.6.4l-.6-.3Zm464.7-19c.2-.2.8-.5 1.3-.6.6-.2.8-.2.6 0-.2.2-.7.5-1.2.6-.6.2-.9.2-.7 0ZM33.5 150.5a3 3 0 0 1-1.2-1c-.3-.2-.7-.4-.9-.3h-.5c0-.5-1.9-.8-2.2-.4-.2.2 0 .4.4.6.3.2.6.5.6.8 0 .5-.1.6-.7.2a30.8 30.8 0 0 0-9.5-3.8c-1.2-.2-1.2-.2-.7.9.3.6.2.8 0 1-.5.2-3-1.2-3.1-1.6 0-.4-2.8-1.5-3.8-1.4-.7 0-1-.1-.8-.5.1-.3-.1-.6-.6-.7-.5-.2-.8-.4-.8-.6 0-.4.9-.7 1.5-.5.4 0 .8-.1 1.2-.6.3-.3.6-.5.8-.3 0 .1 0 .3-.3.4-.6.3-.6 1 0 1.4.7.6 1.7.6 3.5 0 1.1-.2 1.7-.3 1.8 0 .2.1 0 .4-.2.5-.2.2-.3.4-.1.5 0 .1.7-.1 1.3-.6l2.4-1c.9-.1 1.2-.3 1.2-.7 0-.3.1-.6.3-.8.1-.1.1 0 0 .2s0 .3.4.3.7-.2.7-.4c0-.3.1-.5.3-.6.3-.1 0-.3-.4-.5l-.8-.2 1-.5 1.3-.6c.5-.3 1.9 0 1.9.4h-.3c-.2-.1-.3 0-.3.2 0 .3-.3.4-1.2.3h-1.1l.6.6.4.6c-.2 0 0 .3.3.7.6.6.6.6 0 1.2-.4.3-1 .5-1.2.4-.2 0-.7 0-1 .3-.7.3-.7.4-.2 1l1 .5.4.2c0 .4 2.6 1.9 2.9 1.7.1-.1.3 0 .4 0 .3.4 2.6.8 3.3.6 1.2-.2 2.7-1.2 2.9-1.9.2-.8.3-.8 1.6-.4.8.2.8.3.2.7-.3.2-.7.4-.9.3-.2 0-.4 0-.5.2-.1.2.7.3 1.8.4 3 0 3.1.6.4.7-1.2 0-2.2.2-2 .4.4.9.8 1.3 1.4 1.3.7 0 1.6.4 1.4.7H36c-.9-.2-1.6-.1-1.7 0 0 .1-.4 0-.8-.3Zm11.6-1.3c.2-.5.6-.5 1.8 0l1 .3-1.5.1c-1.1 0-1.4 0-1.3-.4Zm-31.5.6c-1-.4-1-.5-.4-.6.7-.2 2.2.6 1.8.9-.2 0-.8 0-1.4-.3Zm29.4-1.1-1.1-.4 1 .1 1.5.1c.3 0 .4.1.5.3 0 .3-.7.3-2-.1Zm-3-.3c-.5-.2-.3-.3.6-.3.7 0 1.1 0 1 .2-.2.4-.7.4-1.6 0Zm11-.4c-.6-.2-.6-.2.2-.2s1 0 .6.3c-.1.1-.5 0-.8 0Zm-5.6 0c-.1-.2.1-.4.6-.5.4-.2.7-.4.6-.5-.2-.3 1.1-.5 1.5-.2 0 .1-.1.5-.5.8-.6.7-1.9.9-2.2.4Zm469.2-19 1.1-.6c.3 0 .4-.2.4-.3 0-.2.2-.4.4-.4.5 0 1.5-1.2 1.8-2 .2-.7 1-1 1.5-.6.3.3.2.6-.7 1.3l-1.5 1.4c-.5.5-2 1.3-3.1 1.7-.5.2-.5 0 .1-.5ZM33.3 147c0-.2.2-.3.3-.3a.3.3 0 0 1 0 .6.3.3 0 0 1-.3-.3ZM.2 148c.2-.3.4-.3.9-.1.5.3.4.3-.4.4-.6 0-.8-.1-.5-.4Zm31.4-1.3v-.5c.2-.2 1.4.2 1.4.5 0 .4-1.1.4-1.4 0ZM522.2 122c-.5-.4-.2-1 .4-1 1 .1 1.2 1.2.4 1.2-.3 0-.7 0-.8-.2ZM9.8 141.4c-.2-.2 0-.7.4-.7.2 0 .3.2.3.4 0 .5-.3.7-.7.3Zm14.7-2c-.1 0 .1-.2.5-.2.3 0 .6 0 .6.2 0 .1-.2.3-.5.3-.2 0-.5-.1-.6-.3Zm490.5-21c0-.4 0-.5.2-.4v.5c0 .3-.1.2-.2-.1ZM29.8 137.2h.8c.2 0 0 .2-.4.2-.5 0-.6 0-.4-.2Zm481.5-20c0-.2 1.2-.4 1.4-.1 0 .1-.2.3-.6.3l-.8-.1Zm-2.4-.3c0-.2.1-.3.5-.3.7 0 .8 0 .2.4l-.7-.1ZM23.4 134.5c.4-.2.6-.2.9 0 .2.3 0 .4-.6.4-.8 0-.8 0-.3-.4Zm507.3-19.8c0-.5 1.4-1 1.7-.8.1.1 0 .4-.2.7-.5.6-1.5.6-1.5 0Zm-18.2.1c-.6-.5-.5-.7.3-.8.9 0 1 .3.4.8-.3.3-.5.3-.7 0Zm-7.9-.6c0-.1.2-.3.5-.3l.5.1-.5.4c-.2 0-.4 0-.5-.2Zm7.7-.9c0-.1.2-.3.5-.3s.5.1.5.3c0 .2-.2.3-.5.3-.2 0-.4 0-.5-.3Zm-478 18.4c0-.4.3-.6.8-.5.6.3.5.6-.2.6l-.6-.1ZM509.6 113l.7-.3c.2 0 .1.1-.1.3l-.8.3c-.2 0 0 0 .2-.3Zm-4.4 0 .5-.2c.2-.1.4 0 .4 0 0 .2-.2.4-.4.4l-.5-.1ZM37 130.4c-.2-.1-.1-.3 0-.3.3 0 .4.2.4.3l-.1.3s-.2 0-.3-.3ZM508.5 110l.8-.3.7.1-.7.3c-.4.1-.8 0-.8 0ZM36.8 126.6c-.3-.5-.2-.6.1-.5l1 .4c.7.2.7.7 0 .7-.4 0-.8-.2-1-.6Zm494.6-19.9c-.6 0-1.1-.2-1-.4 0-.2-.4-.3-1-.4-.5 0-1-.2-1-.5 0-.5.6-.7 2.4-.8.7 0 1.7-.3 2.2-.6.6-.3 1.1-.5 1.3-.4.5.1-1.2 1.8-1.8 1.7l-.8-.1c-1.5-.3-1.4.5.2 1 .7 0 1.2.4 1.2.5 0 .1 0 .2-.2.2-.1 0-.8 0-1.5-.2ZM35 126c.2-.1.6-.1.8 0l-.4.1c-.4 0-.6 0-.4-.1Zm-26.8 0c-.5-.2-1-.5-1-.7 0-.4.1-.4.5-.2l2.1.6c1.5.4 1.6.4.5.5a9 9 0 0 1-2-.2Zm3.4 0h.6c.3 0 .2.1-.1.1-.4 0-.6 0-.5-.1Zm506-21c0-.4.7-1 1.3-1 .7 0 .7.5 0 1-.7.3-1.3.4-1.3 0ZM44.9 123c-.1-.2 0-.5.1-.7.3-.3.4-.2.4.3 0 .8-.2.9-.5.4Zm482.4-19.6c-.9-.3-1.5-.7-1.3-.7.2 0 .1-.1-.2-.3a3 3 0 0 0-2.2.2c-.3.2-.6.2-.7.1-.2-.1 0-.2.2-.2.8 0 1.3-.9.8-1.4-.3-.4-.2-.5.5-.8l1.9-.6c1-.2 1.3 0 2 .6.6.6.6.8.3 1.2-.4.5-.3.6.3 1 .7.5 1 1.6.3 1.6a10 10 0 0 1-2-.7ZM29.9 122.1c-.6-.3-.6-.4-.3-.4s.7.1.9.4c.5.5.4.5-.6 0Zm-8.4-.4c0-.4.8-.4 1.7-.1.5.2.4.3-.5.3-.7 0-1.2 0-1.2-.2ZM519.3 102c0-.3-.1-.5-.4-.5-.2 0-.2 0 0-.3.4-.5 2 .1 1.9.7-.2.6-1.4.7-1.5.1ZM20 121.4c-.3-.1-.6-.2-.7 0-.2 0-.3 0-.3-.2 0-.1-.6-.5-1.3-.8-.7-.3-1.2-.6-1.1-.8.2-.7.7-.5 1.9.5.7.5 1.4 1 1.7 1 .2 0 .4.1.4.3 0 .4 0 .4-.6 0Zm22.2-1.8c-.4 0-.8-.3-1-.5 0-.5.4-.5 1.4 0 1 .5.7.8-.4.5Zm470.1-18.4c-.1-.2 0-.2.2-.1s.5 0 .8-.2c.4-.4 1.2-.2.9.3-.3.4-1.6.4-1.9 0Zm-472.2 17c-.2-.4.4-.4 1.2 0 .6.1.6.2-.2.2-.4 0-.9 0-1-.2Zm-25.7.7h1.5l-.8.1h-.7Zm24.3-1.3c-.4-.3-.4-.3 0-.3.3 0 .6 0 .6.3s0 .3-.6 0Zm-.7-1.8c0-.2.1-.4.3-.4.2 0 .3 0 .3.2l-.3.3c-.2.1-.3 0-.3-.1Zm-4.2-.8-1.3-.1 1-.3c.6-.2 1.2-.2 1.5 0 .8.4.2.6-1.2.4Zm-7.4-.3c-.1-.1-1-.4-2.2-.6-1-.1-2.4-.5-3-.7a6 6 0 0 0-2.3-.5c-3 0-8.3-1.4-8.3-2.2 0-.4.3-.4 1.7-.3 1 0 1.9.2 2 .3l1.8.6c1 .3 1.4.3 1.7 0 .2-.2.7-.3 1.1-.3.7 0 .7 0 .2.2-.5.2-.4.3.6.7.6.3 1.5.5 2.1.5.6 0 1.6.1 2.3.4.7.2 2 .3 2.7.3.8 0 1.5 0 1.5.2 0 .1.4.4.9.5.7.3.8.4.2.4-.4 0-.8.2-.9.4-.2.4-1.9.5-2.1.1Zm183.8-12.1c0-.5.5-.8 1-.5.2.1.1.2-.1.4-.6.4-1 .4-1 0Zm-204 7.6a.3.3 0 0 1 .6 0c0 .1-.1.3-.3.3a.3.3 0 0 1-.3-.3ZM526 89.9c.3-.2.7-.6.8-1 .3-.8 1-.8 1.1.1 0 .8-.5 1.2-1.8 1.2-.7 0-.7 0-.1-.3Zm-327 10.3c0-.2 0-.3.2-.3l.3.3c.1.1 0 .3-.1.3-.2 0-.4-.1-.4-.3Zm-177.5 6.2c-1.6-.4-3.6-1.3-3.6-1.7 0-.4.7-.3 1.4.2l1 .4h.4l1.5.2c.4 0 .6.2.5.3-.1.2.2.3.8.3.5 0 1 .1 1 .3 0 .4-1.3.4-3 0ZM195 99.7l.4-.3c.2 0 .3.1.2.3-.1.2-.3.3-.5.3s-.2-.1-.1-.3Zm43-2c0-.2.5-.3 1-.3 1 0 1-.1.5-.5-.4-.2-1-.3-1.9 0h-2c-.8-.2-.7-.2.4-.4 1.6-.4 5.7-.4 6.3 0 .4.2.3.3-.4.5-1.5.5-4.1 1-4 .7Zm18.5-1.2-2.1-.1c-2.3-.1-4-.3-5.6-.5l-1-.2.8-.2c.5-.1 1.7-.2 2.6 0l1.9-.1c.3-.5 1.1-.7 1.6-.5.3.3.3.3-.1.3-.3 0-.5.2-.4.3.1.2.9.3 1.7.2 1.3 0 1.4-.1 1-.4-.4-.3-.1-.4 1.5-.6 1.5-.3 2-.2 2.4.1.4.4.4.5-.2.5-.4 0-.6.1-.5.3.1.2-3.4 1.1-3.6 1Zm268.4-11c0-.7 0-.7-.6-.5-1 .4-1 .2.2-1 1-1.2 2.5-1.9 4-2 .8 0 .9 0 .4.5-.4.5-.4.6.2 1.2.8.7.5 1-1.6 1.9-2.2.8-2.8.8-2.6-.1Zm-291.2 11c0-.3.1-.4.4-.3.3.1.4.3.3.5-.2.4-.7.3-.7-.2Zm28.6-1.4c-.2-.5 1.2-.9 1.5-.5.1.2.3.2.5 0 .6-.4 1.4-.4 1.6-.1.2.3-.5.5-2.3.8-.7 0-1.2 0-1.3-.2Zm13.4-.5c0-.3.2-.5.5-.5s.4 0 .2.2l-.5.6c0 .1-.2 0-.2-.3Zm2.1-.6c.6-.3 2.8-.4 2.8 0l-1.6.3c-1.1 0-1.5 0-1.2-.3Zm7.6-.7c-.6-1.4-.4-1.6 1-1.5 1.6 0 2.5.5 1.2.6-1 0-2.2.6-1.9 1v.3l-.3-.4ZM534 83.6c-.2-.3-.2-.4 0-.4l3.8-.4c2.4-.3 3.3-.3 3.3 0s-1.9.6-4.1.5c-.7 0-1.2.1-1.2.3 0 .5-1.3.5-1.8 0ZM23.7 103.3c-.5-.2-.7-.5-.7-1 0-.6.2-.7 1.2-.7a3 3 0 0 1 1.7.5c.5.5.5.6 0 1-.7.5-1.2.6-2.2.2Zm252.6-10.2c0-.1.3-.3.7-.3.6 0 .6 0 .3.3-.6.4-1 .4-1 0Zm-18-.2c0-.1.4-.3.9-.3.4 0 .7 0 .6.3-.1.1-.5.3-.8.3-.3 0-.6-.1-.6-.3Zm31.6-1.7c.3-.3 1.3-.6 2.5-.8 1.8-.2 2-.2 1.5.3-.3.4-.6.5-1.2.4-.4 0-.6 0-.5.1 0 .2-.5.3-1.3.4-1.3.1-1.4 0-1-.4ZM39.3 101c0-.3 1.1-.9 1.4-.6 0 0-.2.3-.7.5-.4.2-.7.2-.7 0Zm-1.7-.9c-.4-.4.8-.7 1.2-.3.4.3.3.4-.3.5-.4 0-.9 0-1-.2Zm224.2-8.6c.1-.1.4-.2.6 0 .3 0 .2 0-.2.1-.3 0-.5 0-.4-.1Zm9.8-.8c-.2-.2-.9-.3-1.5-.3s-.9-.1-.6-.2c.3 0 .5-.3.5-.5 0-.1.4-.2 1-.1.5 0 .9 0 1-.2.2-.3 2-.3 3.8 0 1.3.3.6.9-1.6 1.3-1.7.3-2.3.3-2.6 0ZM29.3 100c-.3-.2-.5-.5-.4-1 .1-.5.2-.5.7 0 .6.4.9 1.3.4 1.3l-.7-.3Zm6.8-.3c0-.1.2-.3.5-.3.2 0 .4.1.5.3 0 .2-.2.3-.5.3-.2 0-.5 0-.5-.3ZM276.8 90c0-.2 1.3-.5 1.4-.3 0 .2-.2.3-.6.3h-.8Zm-236 7.6c-.3-.4-.1-.8.3-.5.2.2.5.3.6.1.1 0 .2 0 .2.2 0 .4-.7.5-1 .2Zm127.4-5c-1.2-.1-1-.5.3-.8 1.7-.4 1.8-.4 2 .3.2.7-.1.7-2.3.5Zm131-5.4c.6-.9 1-1 1-.3 0 .3 0 .5-.2.5s-.6 0-.9.2c-.5.2-.5.2 0-.4Zm11.9-.6c0-.1 0-.3.3-.3.1 0 .3.1.3.3 0 .2-.1.3-.3.3a.3.3 0 0 1-.3-.3Zm204.8-8c-.4-.2-.3-.4.5-1 1-1 1.2-1 1.5-.6.1.2-.2.5-.6.7-.4.2-.8.6-.8.8 0 .3-.2.3-.6.1ZM42.2 96.7c0-.4.3-.4 1 0 .3.2.3.3-.3.3-.4 0-.7-.1-.7-.3Zm488.2-19.2c0-.2.3-.7.6-1 .4-.5.5-.5.6 0 .1.5-.4 1.4-.9 1.5l-.3-.5Zm-233.9 8.8c0-.3.1-.4.3-.3.2.1.3.3.3.5 0 .1-.1.3-.3.3-.1 0-.3-.2-.3-.5Zm4 0 .5-.7c.4-.3.5-.3.3 0-.1.3 0 .4.4.4.3 0 .7 0 1 .2.3.2.1.3-.8.4-.8 0-1.4 0-1.4-.2Zm-8.2 0c-.2-.3.5-.4 1.1 0 .4.2.4.3-.2.3-.4 0-.8-.1-.9-.3Zm27.4-1.2c0-.2.2-.5.5-.5.4 0 .7-.2.8-.4 0-.2.8-.4 2-.6 1.1 0 2.1-.2 2.3-.3.2-.1.1 0 0 .3-.4.5-.4.5 0 .5.2 0 .1.2-.2.3a3 3 0 0 1-1.7.2c-.6 0-1.1 0-1.2.2-.1.1-.7.4-1.4.5-.8.2-1.1.1-1.1-.2ZM164 90.9c-.1-.3 0-.5.1-.5.2 0 .3.2.3.5v.4l-.4-.4Zm351.1-14.3c.4-.5 1-.4 1 0 0 .3-.3.4-.7.4-.5 0-.6 0-.3-.4ZM174.4 89.7a.3.3 0 0 1 .6 0 .3.3 0 0 1-.6 0Zm140.3-5.6-.8-.5h1c.7 0 1.1.2 1 .4 0 .5-.4.5-1.2 0Zm-12.5.1h1l-.4.1c-.5 0-.8 0-.6-.1Zm-270 9.2c-.4-.7-.4-.7.7-.2.4.2.7.4.6.6-.3.3-.8.2-1.3-.4Zm186-7c0-.3.4-.3 1 0 .3.2.3.3-.3.2-.4 0-.7 0-.7-.2Zm307-12c-.3-.5 1.1-2 2.8-3 1.2-.6 1.5-1 1.3-1.2-.6-.7 2.4-1.6 5-1.5 2.3.1 3.1.5 2.3 1-.6.4-2.3.5-3 0-.6-.3-.8-.2-1.6.9-.6.6-1.2 1.2-1.4 1.2-.2 0-.5.3-.7.6-.1.4-.8.8-1.5 1l-2.2.9c-.5.3-.8.4-1 .2ZM46.4 92.7c-1-.7-.8-1 .6-1 1 0 1.4.2 1.5.7 0 .5 0 .6-.7.7a3 3 0 0 1-1.4-.4ZM34 93c0-.2.2-.3.5-.3.2 0 .4.1.4.3 0 .1-.2.3-.4.3-.3 0-.5-.1-.5-.3Zm134-5.4c-.1-.1-.6-.2-1.1-.1-.5 0-.9-.1-.8-.3.1-.1.7-.3 1.4-.3.9 0 1.2 0 1.2.4 0 .5-.3.6-.7.3Zm149.2-7.4a24 24 0 0 1 6.3-1.6c.4 0 1.4-.4 2.1-.8 1-.6 2.1-.9 4.6-1.1a19 19 0 0 0 3.8-.7c.5-.3 2.3-.2 2.3.2 0 .1-.3.3-.8.3-1.7.1-4.7.9-5.1 1.2-.2.2-1.7.5-3.4.8l-3.4.7c-.4.4-3 1-5.5 1.3l-1.8.3.9-.6Zm-154 4.7c0-.2-.6-.2-1.2 0-.9.1-1.1 0-1.1-.3 0-.4-.4-.5-1-.6-1.2 0-1.8-1-.7-1.1.5 0 .6-.2.5-.5-.3-.7.7-1 1.3-.4.3.2 1.2.5 2 .5s1.6.2 1.8.3c.7.3.4.8-.5.8-1.2 0-1.5.6-.8 1.2.4.2.5.4.3.4a.7.7 0 0 1-.6-.3Zm357.3-16c0-.7.1-.8 1.1-.8 1.2 0 1.2 0 .6.5-1.3 1.1-1.6 1.2-1.7.3Zm-3.1-1.9c0-.1 0-.3.2-.3s.4.1.4.3c0 .2-.2.3-.3.3a.3.3 0 0 1-.3-.3Zm-163.8 6.3c0-.1.2-.3.6-.5.3-.2.6-.2.6 0l-.6.4h-.6Zm171.4-7v-.6c0-.3-1.1-.5-3.3-.5-1.2 0-1.8 0-1.9-.3 0-.5 1.9-1 2.4-.7h.3c0-.2.4-.6 1-.9 1-.5 4-.6 4.6 0 .4.2.1 1.4-.5 2.3-.6.8-2.5 1.4-2.6.8ZM32 85.4c0-.1 0-.3.3-.3.1 0 .3 0 .3.2l-.3.3c-.2.1-.3 0-.3-.1Zm20.2-1c.5-.7 1-.6 1 0 0 .2-.3.4-.7.5-.8 0-.8 0-.3-.6Zm107-3.9c-.2-.1-.1-.4 0-.5.2 0 .4 0 .4.3 0 .6-.2.6-.5.2Zm356.7-13.8c0-.5.9-1.5.9-1.1 0 .2-.2.6-.5.8-.2.3-.4.4-.4.3Zm1.5-.5c0-.2.1-.3.3-.3l.3.1-.3.3c-.1.2-.3.1-.3 0Zm-14.4.4h.6c.2 0 .1.1-.2.1-.3 0-.5 0-.4-.1ZM163 79.3c-.6-.3-.8-.9-.3-1 .2 0 .5.4.6.7.5.7.4.7-.3.3Zm-1.7-1.2c.1-.1 0-.3-.1-.3a.4.4 0 0 1-.4-.4c0-.3.3-.5.6-.5.5 0 .6.1.5.5l-.1.7c0 .2-.2.3-.3.3-.2 0-.3 0-.2-.3Zm351.7-14c.2-.3.6-.5.8-.5l1.1-.4c.5-.1.3 0-.4.5-1.3.8-2 1-1.5.3Zm6-.2c0-.2.2-.3.4-.4l.5.1-.4.4-.5-.1Zm-1.6-.3c0-.1.2-.2.5-.1.2 0 .5.2.5.3l-.5.1c-.3 0-.5-.1-.5-.3Zm-19.1.5c0-.2.4-.8.9-1.3.9-1 1-1 .4-1.5-.4-.2-1-.3-1.3-.2-.5.2-.7 0-.9-.4-.1-.4-.3-.6-.5-.5-.2.2-.3 0-.3-.1 0-.2-.3-.3-.5-.2-.6.3-1-.3-.4-.6.2-.1.6-.6.7-1 .3-.4.6-.6 1-.5.6.2 2.4-.8 2.4-1.2 0-.2.3-.3.7-.4.5 0 .6 0 .3.5-.3.4-.3.5 0 .5.2 0-.2.3-1 .6-2 1-2.2 1.2-2.3 1.8 0 .7.7.6 1.3-.2.7-.7 2-1.1 2.5-.7.4.3 1.2-.2 1-.7-.3-.2 0-.3.5-.2 1.3 0 1.3.5 0 1.5-.7.6-.9.9-.6.9.3 0 .7.2 1 .6.2.3.7.6 1 .5.8 0 .8 0 .3.6-.3.3-1 .5-2 .6-1.4 0-1.8.2-2.5 1-.8.8-1.7 1.2-1.7.6Zm-449 17c-.2-.2-.3-.4-.1-.4.1 0 .4.1.6.4.6.6 0 .6-.5 0ZM354 69.2c0-.2.4-.6.8-.9 1.1-.6 2-1.7 1.8-2-.2-.3-.2-.4 0-.4 1.4-.2 1.9-.2 1.7 0-.3.8-1.4 1.8-1.7 1.8-.2 0-.6.4-1 .7-.8 1-1.6 1.4-1.6.8ZM65.4 79.7c0-.3 0-.6.3-.6.1 0 .3.2.3.4 0 .3-.1.6-.3.7-.2 0-.3-.1-.3-.5Zm-32.5.5c-.4-.5-.3-.5.8-.3.4.1.7.3.6.5-.3.4-1 .3-1.4-.2ZM508.3 61c1-1 1.1-1 .4-1-.7 0-.6-.2.4-.7.8-.4 1.6-.5 2.5-.5 1.3.1 4.3-1.1 4-1.6-.3-.4.8-1 1.6-1 .6.1.7.1.2.5a2 2 0 0 1-1 .5c-.2 0-.3 0-.2.2.2.3-7 4.3-8.2 4.6l-.9.1 1.2-1Zm-452 18c-.2-.3-.5-.5-.8-.4a.4.4 0 0 1-.4-.4c0-.1.2-.2.4-.1l.9.3c.6.2 1 1 .6 1l-.6-.4Zm10.4-.2c-.3-.2-.8-.2-1 0-.3 0-.4 0-.3-.3.4-.5 2-.5 2 0v.5l-.7-.2Zm66.2-3.5c0-.2.2-.4.4-.4l.7-.2c.3-.1.5 0 .5.2 0 .3-.3.6-.9.7-.6 0-.8 0-.7-.3ZM62 77.7c-.4-.2-.4-.3-.1-.3.2 0 .7.1 1 .3.5.3 0 .3-.9 0Zm460.6-18.1c1.4-.7 2.2-.7 1.3 0-.4.2-1.1.4-1.6.4-.6 0-.6 0 .3-.4ZM89.2 75.9c-.4-.3-.5-.5-.4-.6.2-.3 1.2 0 1.2.6 0 .5 0 .5-.8 0Zm436-16.8c-.4-.1-.4-.3-.1-.6.4-.6.9-.6.9 0 0 .5-.3.7-.8.6Zm-368 13.4c-.3-.3 0-.6.7-.5.4 0 .6.3.5.4-.2.3-.9.4-1.2.1ZM54.6 76c-.3-.7 0-.8 1-.4s1 .6 0 .8c-.5 0-1-.1-1-.4Zm90.5-3.3c0-.2.5-.3.8-.4.3 0 .5.2.4.3 0 .2-.4.4-.8.4-.3 0-.5-.1-.4-.3Zm-28.6.2c0-.5.2-.6.6-.7.7 0 .7 0 .2.4-.3.1-.4.4-.3.6 0 .1 0 .3-.2.3s-.3-.3-.3-.6Zm18.3-.6.2-.6c0-.3 1.2-.2 1.4.1.3.4.2.5-.9.8-.7.2-.8.1-.7-.3Zm377-14.5c0-.2 0-.4.2-.5.2-.1.2 0 .1.3-.1.5-.4.6-.4.2ZM155.2 71.3c-1.4-.2-1.6-.4-.7-.7h1.2c.4.4.1.8-.5.7Zm348.2-14c-.1-.1 0-.3.4-.3s.7.1.7.3c0 .2-.2.3-.4.3-.3 0-.6 0-.7-.2Zm-373 14.4c-.3-.1-.2-.3.4-.4.4-.2.8-.4.8-.6 0-.1.2-.3.4-.3.8 0 .6.8-.3 1.2-.9.5-.8.5-1.3.1Zm390.3-15.2c-.4-.2-.7-.4-.6-.5.3-.3 2.4-.5 2.4-.2 0 .2.2.3.5.3.2 0 .4.1.3.3-.2.4-1.6.4-2.6 0ZM62 74c0-.2 0-.3.2-.4l.4.2-.3.3c-.2.1-.3 0-.3-.1Zm3.2 0c-.3-.3-.2-.8 0-.8s.5.2.6.5c.2.4-.2.6-.6.2Zm81-4.4c-.2-.6-.3-1.1-.2-1.2l.8-.5c.7-.4 1.1-.3.8.2 0 .2-.3.3-.5.2-.1 0-.3 0-.3.2s.3.3.5.3c.6 0 .9 1.4.3 1.7-.8.3-1 .2-1.3-1Zm356.8-13c-.7-.3-.4-.7.9-1.5l1.7-1c1-1 3-.9 2.2 0l-.2.7c.2.8-3.6 2.2-4.6 1.8ZM155.5 69.3c-.3-1.1-.3-1.4.4-1.5.8 0 1 .4.6 1.4-.4 1-.7 1-1 .1ZM51 73.3c0-.4 0-.4.6-.2l.6.5-.6.2c-.3 0-.6-.2-.6-.5Zm51.5-2.8-.4-.8c.2-.5 1.3-.1 1.4.5 0 .7-.3.8-1 .3ZM73 71l.1-.3c.2 0 .4 0 .4.3l-.1.3-.4-.3Zm30.1-2.3c0-.2.1-.5.3-.5.2 0 .3.2.3.5 0 .2 0 .5-.3.5-.1 0-.3-.2-.3-.5Zm54.3-2c-.2-.1-.1-.3 0-.3.3 0 .4.2.4.3l-.1.3s-.2 0-.3-.2Zm-85.5 3c0-.4 0-.6.2-.5v.6c0 .3-.2.2-.2-.2ZM504.1 53c0-.1.2-.3.5-.4.7-.3.7-.3.5.2-.1.5-1 .7-1 .2ZM76.8 69.1c-.3-.4-.3-.6-.1-.7.2 0 .7-.3 1.2-.7.5-.4 1-.6 1.1-.5.1.1-.2.5-.7.8-.5.3-1 .9-1 1.2-.1.6-.1.6-.5 0Zm28.6-1.3c-.8-.5-.7-.8.2-.7.6 0 1 .2 1 .6.2.6-.4.7-1.2.1Zm16-.7c.4-.2.9-.4 1-.3.6.3 0 .8-.8.8h-.8l.6-.5Zm5.8 0 .1-.3.6.3-.1.3-.6-.3Zm307.5-12.3c-.3-.4 1.1-1 2.8-1 1.7-.1 1.5.4-.3.7l-1.8.4c-.2.1-.6 0-.7-.1Zm68.5-2.7c0-.2.3-.3.8-.3.7 0 .7 0 .4.3-.6.4-1.2.4-1.2 0Zm-436.7 17c0-.2.1-.3.3-.4.2-.1.3 0 .3.1 0 .2-.1.3-.3.3h-.3Zm5.6-.5c0-.5.9-2.2 1.2-2.2l-.2 1.1-.4 1.3-.3.1c-.2 0-.3-.1-.3-.3Zm376.7-14.5s0-.2.3-.3c.1-.2.3-.1.3 0 0 .3-.2.4-.3.4l-.3-.1ZM94.8 67c0-.3.2-.5.4-.5s.3.2.3.4c0 .3-.1.5-.3.5-.2 0-.3-.2-.3-.4Zm61.9-2.2c-.7-.1-.5-1.3.1-1.3.3 0 .5-.3.5-.5 0-.7.9-2.4 1.3-2.4.2 0 .4-.1.4-.3 0-.2.2-.3.5-.3.2 0 .4.2.4.7 0 .4.2.8.4 1 .5.2.4.7 0 .7-.3 0-.7.6-1 1.3-.3 1-.5 1.2-1.2 1.2h-1.4ZM441 53.3c0-.4.8-.7 1.4-.5.5.2.5.3 0 .5-.9.3-1.4.4-1.4 0Zm80.7-3s0-.2.2-.3c.2-.1.4 0 .4.1 0 .2-.2.3-.3.4-.2 0-.3-.1-.3-.2Zm-66.4 2.1c0-.2-.2-.7-.5-1-.8-.8-.6-1.3.4-1.2 1.6.1 2.5-1.1 1.3-1.8-.4-.3-.6-.2-.7.1-.1.3-.3.5-.4.4-.2-.1-.5.2-.8.6-.2.5-.6.8-.8.8-.3 0-.3 0 0-.3.2-.3.3-.7.3-1 0-.4.5-.8 1.4-1l1.1-.4c.7-.2.9-.2.9.2s.2.5.7.3c.4-.1.8-.4 1-.7.1-.2 1.4-.9 2.7-1.4 1.3-.6 2.5-1.2 2.6-1.4.1-.2.7-.4 1.3-.4.7 0 1.1-.1 1.1-.3 0-.3.1-.3.4 0 .3.3.1.6-.9 1.6-1.3 1.2-1.5 1.8-.7 1.5.7-.3.5.3-.2.8-.4.3-.5.5-.3.5s.4.2.4.5c0 .4-.6.6-2.2.5-.5 0-1 .2-1 .4-.1.2-.5.3-.8.2-.4-.1-.7 0-1 .4-.3.5-1 .8-2 1a6 6 0 0 0-2.2.6c-.9.8-1.3 1-1.1.5Zm-375 14.2c0-.6.5-1 1.3-1.4.7-.3.8-.3 1 .4 0 .6 0 .8-.6.8a4 4 0 0 0-1.2.2h-.5Zm370.2-14.8c0-.4.7-1 1-1 .1 0 .2.2.2.5 0 .4-.1.7-.5.7s-.7-.1-.7-.2Zm-327.7 12c-.1-.1 0-.2.4-.3.4 0 .7.2.7.3 0 .2-.2.3-.5.3-.2 0-.5 0-.6-.2Zm-54.9 2 .5-.2c.3-.2.4-.1.3 0-.2.4-.8.5-.8.3Zm319.5-12.6c0-.1.2-.3.5-.3s.4.1.3.3c0 .2-.3.3-.5.3l-.3-.3ZM84.6 64.6c0-.3.2-.5.4-.5.3 0 .5.2.5.4 0 .3-.2.5-.4.5a.5.5 0 0 1-.5-.4ZM435 50.9c-.5-.1-.3-.4.6-1.3 1.1-1.1 2.2-1.5 2-.7-.2.3-.5.6-.8.7-.3.1-.6.5-.7.8-.1.6-.2.7-1.1.5Zm-342 13c0-.2.1-.4.4-.5.2-.2.4 0 .4.2 0 .5-.4.6-.7.2Zm348.8-14.2c.3-.3.6-.5.8-.4l-.6.6c-.6.3-.6.3-.2-.2Zm9.6-.3c0-.3.9-.5 1-.2.1.1 0 .3-.4.3l-.6-.1ZM94 62.4c.2-.3.5-.5.7-.5.1 0 .1.2 0 .4-.3.3-.6.5-.8.5-.1 0-.1-.2 0-.4Zm350-14.2c.2-.2.5-.3.6-.2l-.4.4c-.4.1-.5.1-.2-.2Zm23-.8c0-.5.6-.6 2.4-.5 1.5 0 1.6.1.8.3-1.4.4-3.2.5-3.2.2ZM70 62.7l.3-.3c.1-.2.3-.1.3 0 0 .3-.1.4-.3.4l-.3-.1Zm378.5-15.2c0-.3 1.2-1.1 1.4-1 0 .1-.2.4-.6.7-.4.3-.8.5-.8.3Zm62-2.8c-.2-.2 0-.3.4-.3.7 0 .8.1.2.4-.3.1-.6 0-.7-.1ZM71.6 61.4c-.2-.4-.1-.5.3-.4.3 0 .5.2.5.3-.1.6-.6.6-.8 0Zm24.7-1.2-1-.7.7-.7c.4-.4 1.1-.7 1.5-.8 1.1 0 1.8-1.4 1-2-.5-.6-.4-1 .3-1.1.3 0 .4.2.3.6-.2.7.3.8.8.1.4-.4 1.5-.7 1.6-.3l-.6 1c-.4.6-.6 1.1-.5 1.2.3.4-.6 1.4-1.5 1.7-.5.2-.8.5-.8.8 0 .9-.8 1-1.8.2Zm12.3-.8.4-2.7c.2-1 .5-1.7.6-1.6.2 0 .3.4.3.8v2.3c0 1.6-.2 2.1-1 2.2-.4 0-.5-.3-.3-1ZM438 46.9l.6-.7 1.7-1.2 1.8-1.6c.5-.4 1-1 1-1.3 0-.4.3-.7.9-1 1-.4 3.2-2.5 3.2-3.1 0-.2.2-.4.4-.4a3 3 0 0 0 1.1-.6l1.2-.7c.3 0 .6-.3.8-.6.3-.3.4-.4.5 0 .1.2.4.1 1.1-.4 1-.7 2.2-1 2.2-.5a43.3 43.3 0 0 1-7.2 6.2c0 .1-.5.5-1.2.7-.6.2-1.6.9-2.2 1.5-.5.5-1 1-1.2 1l-2.3 1.5c-2.2 1.6-2.4 1.7-2.4 1.2Zm8.3-1c.1-.5.6-.9 1.3-.9.6 0 .6 0 0 .6-.9.8-1.3.9-1.3.3Zm-11.5.4c0-.5 1-2 1.2-2 .5-.1.4.7-.3 1.4-.6.7-.9.9-.9.6Zm-369.3 14c0-.2.2-.5.5-.7l.4-.8c0-.3.3-.6.6-.8.6-.4.6-.3.5.3-.4 1.3-2 2.8-2 2Zm425.9-17.1.4-.4c.3 0 .4 0 .3.2-.2.3-.7.4-.7.2Zm-42.2 1.2c-.4-.4-.2-1.2.3-1.7.6-.5.7-.5 1 0 .2.4.1.7-.4 1.2-.4.4-.8.6-.9.5Zm3.2-.1c0-.3.7-.9 2.2-1.8.5-.3 1-.8 1.1-1.3.1-.4.2-.5.2-.3.1.5 1.7-.2 2.4-1 .5-.6 2-.9 2-.3 0 .1-.6.6-1.2.9-.7.3-1.7 1.1-2.3 1.8-.8.9-1.2 1-1.5.9-.4-.4-2 .2-2 .7l-.4.4h-.5ZM105.4 57v-.3l.4.3c.1.2 0 .3-.1.3a.3.3 0 0 1-.4-.3Zm402.1-16.9c-.1-.1 0-.4.3-.5.6-.2.9 0 .6.4-.2.4-.6.5-.9.1Zm-19 .5c0-.4 1-1.4 1.4-1.4.2 0 .4.2.3.4 0 .2-.4.4-.7.3-.3 0-.4 0-.3.2.1.2 0 .4-.3.5-.2.1-.4 0-.4 0Zm-12.7 0c0-.1-.3-.2-.7 0-.6.2-.6.1.1-.6.5-.5 1-.8 1.2-.7.1 0 .6 0 1-.2l.6-.4-.6.7c-.4.3-.6.9-.5 1.1.1.3 0 .5-.5.5-.3 0-.6-.1-.6-.3ZM68.4 56c.2-1 1-1.5 1.5-1.2.3.3.2.5-.5 1.1-1 1-1.2 1-1 .1ZM473 40c-.1-.4-.4-.6-.5-.6-.2 0-.3-.2-.3-.4s.1-.2.5 0c.3.3.8.3 1.3.2l.8-.3-.7.9c-.8 1-1 1-1.1.2Zm-32 1.2c0-.6 2.9-3 4.5-3.9.6-.3 1.6-1.1 2.1-1.9.6-.7 1.5-1.4 2-1.6l1-.2a9 9 0 0 1-2.8 2.7c-.2 0-.4.2-.4.5 0 .2-.5.7-1 1a8 8 0 0 0-1.7 1.1c-.3.4-.7.7-.9.7-.4 0-1.6 1.4-1.4 1.6.1.1-.1.2-.6.2-.4 0-.8 0-.8-.2Zm19.7-4.5 2.1-1.9c.2 0-.5.9-1.5 2l-2.1 1.9c-.2 0 .5-.9 1.5-2ZM67.6 51.1c-.3-.7-.3-.7.2-.2.3.3.5.6.4.7 0 .1-.3-.1-.6-.5Zm401.8-15.8.4-1c.4-.6.4-.7 0-.7l-1 .5-.8.5c-.4 0 .9-1.1 2-1.8.8-.5.9-.5.7 0 0 .3 0 .9.3 1.4.6 1 .7 1.6.2 1-.2-.4-.4-.4-1-.1l-.8.2Zm2.7-1.6c0-.7 2.5-2.7 3-2.3.2.3-.9 1.1-1.5 1.1-.3 0-.7.3-.7.7-.2.5-.8 1-.8.5Zm1.3-3.2c.3-.1.6-.1.8 0l-.4.1c-.4 0-.6 0-.4-.1Zm37.7-1.6a11 11 0 0 1 3.5-2.2c.9-.2.9-.2.5.4-.2.4-.8 1-1.4 1.4-1.2.7-3 1-2.6.4ZM488 27c0-.2.5-.3.8-.3.6 0 .6 0 .3.3-.6.4-1.3.4-1.1 0Zm-26.6-.4c.1-.2.4-.6.8-.8.5-.3.5-.2.5.2 0 .3-.4.7-.8.8-.5.2-.6.2-.5-.2Zm-1-5.6c0-.2 1.9-1.6 2.2-1.7.5 0 0 .7-.8 1.3-1.1.7-1.4.8-1.4.4Zm14.1-2c0-.2.5-.6 1.2-1 .6-.4 1.4-1 1.7-1.4.3-.3 1.2-1 2.1-1.3 1-.4 3-1.6 4.5-2.7 1.6-1 3-2 3.2-2 .6 0 .3.6-.4 1a39.4 39.4 0 0 0-5.4 4.4c-.6.4-.6.4 0 .4.7 0-1.6 1-2.4 1-.3 0-.5.2-.3.4.1.2-.7.5-1.5.4l-1.3.5c-1.2.5-1.4.6-1.4.2ZM481 8c.7-1 4.8-3.7 4.8-3.2 0 .2-1 1.1-3.1 2.5l-1.7 1-.7.6.7-1Zm-2.6.2c-.1-.2 0-.3.3-.3.5 0 .6.1.2.4h-.5Zm-14-5.2c0-.3 2.4-2 3-2.1.6 0 0 1-1 1.5-1.4 1-2 1.1-2 .6Z"/>
  <defs>
    <linearGradient id="a" x1="260.7" x2="283.6" y1="23.1" y2="235.9" gradientUnits="userSpaceOnUse">
      <stop stop-color="#01FFC4"/>
      <stop offset="1" stop-color="#3D4AFE"/>
    </linearGradient>
  </defs>
</svg>
