<svg xmlns="http://www.w3.org/2000/svg" width="283" height="442" fill="none">
  <path fill="url(#a)" d="M244.7 303.5c-.4.2-.7.4-.5.5.2 0-.1.5-.6 1-.5.4-.8 1-.7 1.2.1.3 0 .4-.4.3-.4 0-.5 0-.5.3s-.1.3-.7.2c-.5 0-.7 0-.7.3 0 .2 0 .4-.2.4-.2.1-.3 0-.2-.1 0-.2-.1-.2-.4 0-.2.2-.4.2-.5 0 0-.2-.2-.1-.6.3-.4.4-.5.4-.6.1-.2-.3-.2-.3-.5.1-.2.5.4 1 1 .7 0-.1.3-.1.4 0 .2.2 0 .3-.4.4-.4 0-.6.2-.5.3.1.1.3.4.3.8s-.2.3-.7-.4c-.4-.6-.8-.9-1.1-.8-.2.1-.5 0-.6-.3-.2-.2-.6-.5-1-.5-.7-.1-2-1-2-1.5a8 8 0 0 0-1.2-1.5 25 25 0 0 1-1.9-2.6c-.5-.8-1-1.5-1.2-1.5-.2 0-.4-.3-.6-.6-.1-.3-.9-1-1.7-1.6a8 8 0 0 1-1.8-1.5c0-.2-.3-.4-.5-.5-.2 0-.3.2-.2.3.1.3-1.3.8-1.4.5l-1-1.2c-.5-.5-1-1.2-1-1.6 0-.4-.3-1-.7-1.3l-1.5-2c-1.4-1.8-2.3-2.7-2.6-2.6-.3.1 5.5 12.7 7.2 15.7 1 1.6 1.1 2.2 1 3a21 21 0 0 0 0 2.3c0 .5.1 1 .3 1.2.2.2 1.8 3.4 3.5 7.2a82.3 82.3 0 0 0 9.5 16.4c.2.7.5 1.3.7 1.3.2 0 .3.2.2.3 0 .2.1.3.3.2h.3c0 .5 1.5 2.4 1.8 2.3.3-.1 1.6 1.5 1.8 2.3 0 .3.5.6.9.7.4.1.9.4 1 .6l1 1.9 1.4 2.3c.5.4 1 1.2 1.4 1.7.3.5.7.7.8.6.3-.4.7 0 3 4.2.1.2.3.3.5.2.1 0 .4 0 .6.3l1.2.8c.6.3 1.2 1.1 2.2 3l1.6 3.2c0 .3.6.9 1 1.2.5.3.7.6.6.8-.3.4-.3 1.4 0 1 .3-.3.4 0 .3.8-.3 1.7 3.1 7.7 4.5 7.9.4 0 .6 0 .6-.2s.1-.4.3-.5c.1 0 .2.1.2.3 0 .3.2.5.4.5.6 0-.1-1.4-1-2l-1.4-1.5-1-1.4c-.1-.2-.1-.5.1-.6.3-.1.2-.5-.2-1.2s-.4-.9 0-.7c.2.2.5.2.6.1.3-.3 1.2 1 2.6 3.6.8 1.4 1 2 .7 2.2-.2.3-.2.4 0 .3.6-.3 1.2 1.3.8 2v.6c.2 0 .6.7 1 2l1.3 4c.4 1.1.7 2.4.7 3 0 .5.2 1.2.4 1.5.3.3.4.6.2.8-.1.2-.2.1-.1-.1 0-.3 0-.4-.2-.2-.2.4 0 1.7.5 3.1.3.9.3 1-.2 1.3-.6.3-.8.2-1.6-1.2a15 15 0 0 1-1.2-2.2l-.2-.6-.1.8c-.2 1.5 0 2.7.7 5 .4 1.2.9 3 1 4 .3 2.3 3.3 9.4 4 9.4.3 0 .5.2.4.4a15 15 0 0 0 2 4.9c.3-.3.3-.2 1.8 3a52 52 0 0 0 3.7 6.3c.9 1.5 1.1 2.4 1 3.6-.1.5-.3.4-1.4-.2a6.8 6.8 0 0 1-2.4-2.4 63.4 63.4 0 0 0-3.8-5.5c-.7-.9-1-1-1.3-.7-.3.2-.4.5-.2.7.2.1.2.3 0 .4-.2 0-.4 0-.5-.3-.2-.4-.3-.4-.4 0 0 .4-.1.4-.2.3 0-.2-.3-.2-.5 0-.3.2-.7.1-1.3-.4l-1-.7 1 2.5a58 58 0 0 0 2.1 5.4l-.9-.2c-.5 0-.8-.2-.7-.3l-.5-.4a8.4 8.4 0 0 1-1.8-2c-.6-1-1.5-2.1-2-2.5a6 6 0 0 1-1.2-1.7c-.7-1.4-3.3-4.4-3-3.4l.2.8.2 1c0 .6-.2.7-.6.3-.3-.3-1-.6-1.5-.8a3 3 0 0 1-1.2-.9c-.1-.3-.5-.6-.8-.6-.4-.1-.4.1 0 1.4l.6 2.3c.2 1 2 5 2.2 5 .5.3 1.8 3.1 1.6 3.2h-.8c-.3-.2-.7-.2-.8-.2-.2.1-.2.2 0 .3v.5l.1.4c.2-.1.4 0 .5.2.2.6-.2.6-1 0-.8-.8-1-.5-.7 1.1.2 1.5-.2 2-1.1 1.3-1-.8-3.6-5.3-4.8-8l-1.5-2.8-.5-.6-.4 1c-.2.6-.3 1.2-.2 1.5.3.5-.1 1-1 1s-3.1-1.6-3.5-2.5c-.2-.4-.4-.5-.5-.4-.1.2-.2.5 0 .8.1.4-.4 1.2-1 1.3-.5.1 1.8 3.8 2.5 3.9.5 0 4.4 5.9 4.4 6.6v.7l-.6-.4c-.3-.2-1.7-2-3.1-4-2.6-3.7-3.6-4.4-2.4-1.8.3.8.5 1.6.3 2-.1.5 0 1 1.2 2.8 2.2 3.5 3.5 5.4 4 5.9.2.2.1.4-.3.5-.5.1-1.5-.4-2.5-1.3-.9-.9-1 0-.2 1.1l1.4 2 .7 1-1.5-.4-1.5-.5s0 .8.3 1.7c.6 2.1.4 3.5-.5 3.9-.5.2-2-1-2.7-2.5l-2-2.9a32 32 0 0 1-2.2-3.4l-1.8-3-4.3-5.8c-.2-.1-.2.4-.2 1 .1.8 0 1.4-.2 1.5-.5.2-2.6-1.8-4.1-3.8-.7-1-1.4-1.7-2-1.8-.3-.1-1.1-.8-1.6-1.5-1.3-1.7-1.7-1.4-1.7 1 0 .5-.2 1-.4 1-.5 0-1.6-.9-1.9-1.5-.1-.2-.3-.3-.4-.2-.2.2.1 1.2.6 2.2.7 1.6.7 2.4 0 1.8-.7-.6 1 3 2.2 4.6 1.5 2 1.8 3.3 1 3.7-.4.1-1.3-.3-3.1-1.6-1.8-1.2-2.6-1.6-2.7-1.3 0 .5-.6.3-2-1.1-2-2-4.3-3.1-5-2.5-.5.4-1.2-.4-3.5-3.9a22.4 22.4 0 0 0-3-3.7 7 7 0 0 1-1.4-1.7c-1-1.7-3.7-4.7-4.4-5-.3-.3-.8-.7-1-1.1-.2-.4-.5-1-.8-1.2-.4-.3-.4-.1 0 .7.8 2.1 1 3.3.7 3.8-.2.3-.2.7.1 1 .4.4.4.4 0 .2-.3-.2-.6-.5-.7-.8 0-.2-.3-.5-.5-.7-.2 0-.3-.5-.3-1 .1-.6 0-.8-.4-1-.3-.3-.5-.5-.3-.6.1-.2 0-1-.4-1.7a5 5 0 0 1-.5-2.3c.2-1 .1-1.2-.3-1-.1 0-.2.3 0 .5 0 .2 0 .4-.2.4s-.3.2-.3.5c0 .4-.1.7-.4.7-.4 0-1.1-1-3-4.2-1.6-3-2.2-3.8-2.5-3.6-.1 0-.2.2 0 .4 0 .3-.2.5-.5.7-.4.2-.7 0-.9-.4-.3-.7-.8-.6-.7.1 0 .3.6 1.6 1.2 2.8 2 3.6 2.5 5.2 2.4 6.2v1s-.2.3-.7.4c-1 .3-1 .7 0 3.3.6 1.5.6 1.7 0 1.3-.9-.6-3-3.5-4-5.3a5 5 0 0 0-1.6-2c-.9-.4-1-.8-.7-1.6.2-.3 0-1-.2-1.6-.8-1.8-4.7-8.3-5.4-9-.7-.8-.7-.8-1.6-.2-.6.4-1.1.6-1.4.5-.2 0-.5 0-.6.4-.6 1-1.1.2-2.6-3.4-1.1-2.9-1.6-3.7-2.2-4.1a23 23 0 0 1-3.2-4.8l-1-1.6-.9-1.1.3 1.2 1.8 4.1 2.4 5.1a42 42 0 0 0 2.7 5.2 74.2 74.2 0 0 1 5.3 9c.2 0 .5.3.7.7.2.4.5.7.6.7.2-.1.3.1.4.5 0 .5 0 .5.2.1 0-.4.1-.4.3 0 .1.2.3.3.5.2.2 0 .3.2.1.7-.2 1-.1 1.2.2.9 0-.2.3-.1.5.1.3.3.3.5 0 .6-.1.1-.1.6.1 1 .3.7.6 1 .8.8.2-.1.4 0 .6.8.3 1 0 2.4-.5 2.6-.2.1-.2.2.2.2s.3.2-.3.4c-1 .5-2.2.5-2.4 0 0-.2-.2-.2-.4 0 0 0-.3 0-.4-.2-.4-.8-.8-1.3-1.5-1.6-.6-.3-1-1.6-.5-1.8l.1.4c0 .2.3.4.7.5.6 0 .6 0 .3-.1-.4-.2-.3-.3.2-.3.3 0 .6-.3.7-.5.1-.7-.1-1-.3-.4-.1.4-.2.2-.4-.5-.1-.6-.5-1.2-.8-1.4-.4-.2-.5-.4-.3-.8.1-.4 0-.5-.4-.5l-.9.2s-.2 0-.3-.2a.5.5 0 0 0-.5-.3c-.3 0-.6-.3-.8-.6-.3-.4-.7-.8-1-.8-.3 0-.5-.2-.5-.4l-.3.1c-.5.5-.8 0-.3-.4.4-.3.4-.4-.3-.6-.6-.3-.6-.3-.1-.5s.5-.3 0-.3c-.8 0-1 0-.8.8 0 .4-.2.7-.6.9-.7.3-1.6-.4-2-1.4-.3-1-1-1.6-1.5-1.4-.4.1-.6 0-.8-.8-.4-1-1.4-2.5-2.1-3-.3-.2-.4-.1-.2.3l.6 1.8a31.5 31.5 0 0 0 2.9 6.7c-.3 0-.3.1-.1.3.1.1 0 .6-.3 1-.5.6-.7.8-1 .6 0-.2-.2 0-.4.4-.2.6-.2.6-.4-.2 0-.4-.2-.6-.2-.4 0 .8-.6.6-1-.4-.3-.6-.3-1 0-1.1.2-.2.2-.2-.2-.2-.3 0-.4-.2-.3-.4.3-.3.1-.6-.6-1.2a4 4 0 0 1-.8-1.1c-.5-1-1.4-1-1 0 .2.3.2.8 0 1-.3.2-.5.2-.6-.1-.1-.3-.4-.5-.7-.6-.6 0-1.7-.7-1.6-1 0-.2-.1-.4-.3-.4-.2 0-.5-.3-.7-.7a9 9 0 0 0-1.4-1.8c-.9-1-1-1-1-.5 0 .4.8 2.5 1.8 4.7s1.8 4.2 1.7 4.4a32 32 0 0 1 4.3 9c.3.2.4.2.5-.1 0-.2.2 0 .4.4s.2.8 0 .9c-.1 0 0 .2.3.3.3.1.5.3.4.5l-1-.1-.8-.4.4.6c.4.5.4.5 0 .2a3 3 0 0 1-1.1-2.7c.1-.8-.4-1.6-1-1.4-.2.2-.5-.3-1-1.4-.5-1-.6-1.7-.4-1.7.2-.1 0-.2-.3-.3-.5 0-1-.6-1.7-2.1l-2.3-3.4-1.4-2.1a7 7 0 0 0-1.4-1.9c-.9-1-.8-.8.7 2.2 1 1.8 1.7 3.5 1.8 3.7l3.2 5.3a155.6 155.6 0 0 1 5 8.3l.6.9c.3.5 1.1 2 1.9 3 1.3 2 4 6.7 3.3 6.2a.3.3 0 0 0-.4 0c-.2.1-.4 0-.6-.4a4 4 0 0 0-1.2-1.3l-1.5-1a213.5 213.5 0 0 1-20-30.7 29 29 0 0 0-2.4-3.8c-.7-.7-.9-1-.7-1.3.2-.3-1-2.8-2.8-5.8-.3-.5-1-2-1.8-3.2a58.7 58.7 0 0 0-5.7-9s-.9-1.7-2.1-3.5c-1.8-2.7-2.2-3.5-2.1-4 0-.7-.3-1.2-1.8-3.2a6837.8 6837.8 0 0 1-12.4-16.8c-.9-.9-2.2-2.8-5.7-8l-4.1-5.8-3.3-4.5-2-3c-1.9-2.6-2-3.2-1.7-4 .2-.5.5-1 .7-1 .2 0 .3-.2.2-.3l-.3-.8c-.2-.5-.1-.5.4-.5.8 0 1.1-.4.5-.7-.8-.3-.3-.4.8-.1.6 0 1.2.5 1.6 1 .5.8.6.9.9.4.4-.6.6-.3-8.7-15.1l-2.3-4.2a143.2 143.2 0 0 0-6.8-11.9c-.4-.5-1.5-2.5-2.4-4.6-1-2-1.8-3.9-2-4-.4-.4-3.3-6-3.8-7.4-.3-.6-.4-1.4-.2-1.7.3-.7-.2-2-2.9-7.3a33.1 33.1 0 0 0-3-5.4c-.9-.8-1.7-2.4-3.6-6.9-1.3-3.1-3.7-8.4-5.3-11.6-3.2-6.5-3-6.1-5.7-13.1a101.4 101.4 0 0 0-5.3-11.6c0 .2 0 .5-.2.6-.2 0-.6-.6-1-2l-2.9-7.7c-1.2-3-2.6-7-3.2-8.8a591.4 591.4 0 0 0-15.5-42.6A166 166 0 0 0 21 145a91.7 91.7 0 0 1-5-14.7 52 52 0 0 0-2.6-7.3 115.6 115.6 0 0 1-4.2-12.7 601.7 601.7 0 0 1-3.7-12.6c0-.2-.4-1.4-1-2.6-1.2-3.4-1.2-3.4-.8-3.6.3-.1.4-.3.4-.5 0-.1-.3 0-.4 0-.2.3-.3.3-.3 0a3 3 0 0 0-.2-1.2c-.2-.3 0-.6.3-.8.7-.4.8-.2.4.5-.4.8 0 1.4.5 1 .3-.3.4-.3.2-.1-.1.2.1 1 .9 2.2 1.2 2.3 2 4 3 7.5a308.8 308.8 0 0 0 1.5 5.6c0 .2.3.4.6.3.3 0 .5.2.6.8.2 1 .3 1.6 1.1 4.1l.5 2c0 .2 1.4 3.6 3.5 8 1.3 2.9 2 5 2.3 6.7.1 1 2.7 7 2.9 6.9.1 0 0-1-.3-1.9l-.7-2.3a86 86 0 0 0-3.8-11.6 77.8 77.8 0 0 0-4.2-12.8l-2.3-6.8c-.2-.4.2-.6.6-.4.3.2 1.1 2 1.7 3.8.2.5.2 1.1 0 1.3-.1.3 0 .7.6 1.7l1 1.5c.2 0 .1.4 0 .7-.2.3-.2.6 0 .6a28.4 28.4 0 0 1 3.3 8.6c.2.6.4 1.4.3 1.8 0 .5 0 .6.3.5.2-.1.6.1.8.6 1 1.8 2.2 4.6 3 6.9.5 1.6.8 2.2 1 2 .3-1.4 1.5.3 2.3 3.3a11 11 0 0 0 1.7 4.1l.7 1.8a66.9 66.9 0 0 0 4.4 13.3l1.4 4a254.8 254.8 0 0 0 5.3 15.4c1.3 3.4 1.5 3.8 2 3.8s.7.3 1.7 2.7a27 27 0 0 0 2 3.7l.7 1-.5-2c-.3-1-.6-2.3-.9-2.8l-1.4-4.5a183.3 183.3 0 0 0-4.6-13.8l-2-5.7a469.3 469.3 0 0 1-7.9-23.2l-.3-1.6c-.2-.5-.2-1.2 0-1.4.2-.4 0-1.1-.9-3.4-.6-1.6-1.1-3-1-3.2l-.6-2.3-4.4-12.4c-.6-1.4-1.6-4.4-2.2-6.7l-2.2-6.4A290.5 290.5 0 0 1 7 65.2c.1-.2.4 0 .6.5l.7 1.5c.2.4.3.8.2.9l.6 1a8 8 0 0 1 1.2 2.4c.3 1 2.2 5.8 4.3 10.7 2.1 5 4.6 10.8 5.4 13.1 1.6 4.1 2.2 5.2 1.4 2.4-.2-.8-.4-1.5-.3-1.6.1-.2 1 .4 1.5 1.1.5.9 1 1 .7.2l-1.4-4-3-7.9c-1.6-4.1-1.7-4.6-1.2-4.8.6-.3.3-1.3-2-7.5a25 25 0 0 1-1.9-6c-.9-2 .2-1.8 2 .4a9 9 0 0 1 1.2 2c1.1 3 1.3 2 .3-1.6a103.8 103.8 0 0 0-2.6-8.4l-1.8-5.4c-.8-2.2-1-3.3-1-3.6.2-.3.1-1.3-.2-2.3-.3-1-.5-2-.3-2.2.1-.2 0-1.2-.4-2.3a7 7 0 0 1-.4-2.6c.1-.5-.1-1.7-.7-3.2-1.2-3.2-2-5.9-1.8-6.1.2-.3 1.6 1.7 1.5 2.1 0 .2 0 .3.2.3.2-.1.2-.6 0-1.1-.1-1 .2-1.4.8-.8.7.6.8-.8.2-3.6-.5-2.3-.5-3.9 0-3 .4 1 .3-.7-.2-2.2-.3-1-.4-2-.4-2.1.1-.3 0-1.2-.2-2.1-.6-2.6-.2-2.8 1.1-.4.5.8 1.1 1.6 1.5 1.7.5.2.7.6 1.3 2.2 1 3.4 1.4 4 2.3 4.1h1c.1-.2 0-1-.3-2a7 7 0 0 1-.4-2.1c0-.2 0-1-.2-1.6-.5-2 .1-1.8 1 .3a6 6 0 0 0 1.1 1.9c.2 0 .7 1 1.2 2.2.7 1.5 1.1 2.1 1.4 2 .3 0 .3-.3 0-1a8 8 0 0 1-.5-1.9l-.9-3.1A8.2 8.2 0 0 1 19 19v-.5c-.2 0-.3-.4-.3-.7 0-.6.2-.3 1 1a18 18 0 0 0 2.9 3.8c.5.5.4-.6-.4-3.6a11 11 0 0 1-.5-2.8s-.2-.8-.7-1.6c-.7-1.3-.7-1.6-.4-1.8.5-.2 1.8.2 2 .7 0 .3 0 .3-.3.1-.4-.2-.5-.2-.3.2.1.2.4.4.7.4.5 0 .7.4 1.7 2.9 1.1 3.1 1.7 3.8 2.2 2.9 1-1.6.7-6-.4-8.7-.8-1.7-.8-2.6 0-3 .3-.1.5.3 1.2 1.8.5 1 .9 2.4 1 3 0 .6 1 3.3 2 6 2 4.6 2 4.7 2.6 4.5.6-.2.8-.7.7-1.3l-.5-2.6c-.9-4.2-1.8-7.8-3-11.4-1.3-3.4-1.4-4.6-.6-4.6.2 0 .3.2.2.4 0 .2.1.2.3 0 .2 0 .5 0 .5.3.1.2.3.3.4.2 0-.1.4.1.7.5.7 1 1.3 1 2 0 .3-.4.5-.6 1-.5.5.1.7-.2.5-.9-.2-.2-.2-.4-.1-.5l.5-.4c.4-.4.5-.2 1.3 1.9l1 3.3c.1.8.3 1 .7.8h.9c.6.5 2.1-.6 2.2-1.5 0-.6 0-.6.2-.2.3.5.3.5.3 0 0-.7.5 0 1.7 2.4.5 1 1.2 1.7 1.7 1.5.3-.1.5 0 .7.5l.7 1.1c.4.5.5.5.7 0l-.1-1.4c-.2-.3-.2-1.6 0-2.7.2-1.2.2-2.5 0-3-.7-1.4-1.3-4-1-4v-.3c-.2-.2 0-.6.2-.7.6-.4 2.4.5 2.5 1.4.1.3.3.5.5.5.5 0 1.9 2.8 2 4.1.1.6 1 3.2 2.2 5.8 1.8 4.4 2.5 5.7 2.2 3.8l-.3-2c-.1-.6-.4-1.7-.7-2.3-.2-.5-.3-1-.1-1.2.2 0 .2-.3.1-.5v-1c0-.6 0-.7.6-.2 1.1.7 1.5.2 1.4-1.8 0-1 0-2 .3-2.2l.5-.6c0-.5 1.2-.4 1.2 0v.3h1.2c.8.3 1.2.7 1.6 1.4.2.6.5 1 .6.9.1-.1.6.9 1 2.2.8 2 1 2.5 1.6 2.7.7.2 2 2.5 2.2 4 0 .5.3.8.5.9.2 0 .5.2.7.6.3.7.8 1.2 1.2 1 .1 0 .2-.2 0-.4 0-.2 0-.6.3-.8.2-.2.2-1.4-.2-3-.5-3.1-.5-5.7.2-5.7.3 0 .5.1.5.3 0 .3.1.3.2.2h1.4c1 .2 1.2.4 1.3.8 0 .3.1.5.2.3.1-.1.4.2.6.6.2.5 1 1.5 1.7 2.4l1.3 1.5.4-.9c.3-.4.4-1 .4-1v-1.3c.1-1 .1-1.1 1-1 .5 0 .8 0 .9-.3 0-.2.2-.3.4-.3.3 0 .3.2 0 .4-.1.3 0 .4.2.5l1.1.6.8.5-.3-.8c-.3-.9.3-1.7.9-1.2l.2.5c0 .1.3.5.8.8.5.3 1.2 1 1.5 1.4.4.5 1 1 1.2 1 .7.3.8.4 1 3 .4 2.4.7 3 2 3.4.7.2.8.4 1.1 1.8.4 1.9 1.7 5 2 4.8.1-.2 0-1.2-.2-2.2-.6-2.8-.6-3.1-.2-2.9.9.5.7-3.2-.3-6.6l-.3-1.8c.1-.2.7-.2 1.2 0 1 0 1 0 1.4-.5l.5-.7c.4-.2 1.7 4.2 1.8 5.8 0 2.4 1.3 6.6 1.9 6.8.3 0 .5 0 .7-.3.2-.4.2-1-.2-4.7 0-1.1 0-1.8.3-2 .4 0 .5.2 1 1.8.4 1.2.8 2 1 2 .2 0 .3-.2.3-.3v-.3c.3.1 1 4 .8 4.5-.1.4.8 4.3 1.2 5 .1.2.4.4.6.3l.8-.2c.5 0-.1-3.4-1.5-9a9 9 0 0 1-.3-2.7 5 5 0 0 0-.3-1.8c-.5-1.2-.6-3-.2-2.9.2 0 1 1.5 1.8 3.2l1.5 3v-1.5c.1-1.4.1-1.5.7-1 .5.2.7.7.8 1.7.3 1.7.4 1.9.7 1.7.2 0 .3-.5.2-1-.3-1.4.3-1.3 1 .3.4 1 1 1.8 1.5 2.2.5.3.8.8.8 1.2 0 .8 5 12.5 5.3 12.2.4-.5 1.8 2.7 2.5 5.7a88.8 88.8 0 0 0 4.1 14.3c.7 1.7 1.7 4.3 2 5.9a136.8 136.8 0 0 0 2.9 9.3l.5 2.2 1 2.8c.2 1.1 2 5.7 3.2 9a158.3 158.3 0 0 0 5.9 15.9l3.2 8.2a99 99 0 0 0 6.6 14.5c.5 0 .5 0 .3.4-.3.2-.2.6.1 1 .3.4.4.9.3 1l.1 1.3.4 1.5c0 1.7.6 3.3 1.2 3.8.5.4.7 1.7.3 1.7-.1 0 .3 1.3.9 2.8 1.7 4.1 1.8 4.6 1.6 5.2-.2.6-.2.6.3.3.3-.2.5-.2.6.1 0 .2.1.7.3 1v.6c-.2 0-.3.4-.3.6 0 .4.1.4.4.1.3-.2.4-.2.3.1l.9 2.8c1 2.8.9 2.4 6.6 15.1a202.2 202.2 0 0 1 5.6 13.3c.4.4 4.3 8.3 5.4 10.8.8 2 3.1 3.6 3 2.1 0-.2.3-.2.7.1l1 .5c.6 0 1.8 2 1.7 2.8-.1.5.3 1.5 1 3a677.8 677.8 0 0 1 8.2 17c.3.3 1 1.7 1.6 3 .7 1.4 1.4 2.7 1.7 2.9.6.3 2.1 2.4 2.2 2.8a5 5 0 0 0 1 2.1 5.6 5.6 0 0 1 1.1 2.4l1.6 2.7a34 34 0 0 1 1.8 3.2c.3.6.7 1.2.9 1.3.2 0 .6.5 1 .9.4.5.4.7 0 .9-.4.2-.4.4.5 2a87 87 0 0 1 2.8 5.5 37.1 37.1 0 0 0 3.7 6.5l.4-.4c.2-.3.1-1 0-1.4-.3-.4-.4-.8-.3-.9l.5-.4c.6-.5.8.3.4 1.1-.2.5-.2.6.1.6.2 0 .4 0 .4.2s0 .3.1.2c.2 0 .4.2.6.5l2 3.6a167.7 167.7 0 0 1 6.6 12.9c.8 1 4.3 7 6 10.3 3 6.2 6.3 10.5 8 10.9.5.1 1 .5 1.2 1a103.8 103.8 0 0 0 9.6 16l-.7.5Zm-2.7 1.2c-.3.1-.3.2.1.5.3.2.7.2 1 0 .2-.3.2-.4-.2-.5h-1Zm-22.8-39.8c-.8-.8-.8-.7.3 1.3 2.4 4.5 3.2 6 3.4 5.8.4-.1-2.8-6.2-3.7-7Zm47.1 116.5v.4c.2.2.4.3.5.2.2 0 .2-.2 0-.4l-.5-.2Zm-8.9-17.5c-.2 0-.2.2 0 .6 0 .3.4.6.6.6.2 0 .2-.2 0-.6-.1-.3-.4-.6-.6-.6Zm3.7 12.4c-.3.1-.2.4.3.9s.8.2.4-.5c-.3-.3-.6-.5-.7-.4Zm-61.7-140c-.7-.7-.9-.7-.8-.3.1.8 4 8.5 6.3 12.5.6 1.1-3-7.9-4-9.7a9 9 0 0 0-1.5-2.4Zm-4.7-8.1c-.2-.2 0 .3.3 1.2 1 2 1.6 2.8 1.3 1.3-.2-.6-.5-1.3-.8-1.6-.3-.2-.6-.7-.8-1ZM264.3 386c-.2-.5-.2-.5-.2.2 0 .8.3 1.3.9 1.1v-.5c-.3-.1-.5-.5-.7-.8Zm-71.5-161.4.2 1c.3.7.6 1.2.9 1.2.3 0 .2-.3-.3-1-.3-.7-.7-1.2-.8-1.2ZM104 32.6c-.3 0-.2.5.2 1.2.5 1 .5 1.1.4.4-.1-1.3-.2-1.5-.6-1.5Zm163.7 383.2c0 .3 0 .5.2.5.1 0 .1-.1 0-.4-.1-.3-.2-.3-.2 0Zm-1.7-2.7c-.4-.4-.5-.4-.3 0 .1.3.4.6.7.9.6.4.3-.2-.4-1Zm-1.4-3.4c-.2-.1-.5-.2-.8 0-.5.1-.5.3 0 1.2.7 1 1.5 1.5 1.2.7-.2-.3-.2-.7 0-.9.2-.3.1-.5-.4-1ZM82.5 10.1c-.1.1-.2.4 0 .6 0 .4.1.4.2 0 .2-.7.2-.7-.2-.6Zm162.4 401c0 .3.1.5.3.5.1 0 .1-.1 0-.4-.2-.3-.3-.3-.3 0Zm0 2.4c-.4.3-.2 1 .6 1.7 1 .8 1.1.4.5-.8-.4-.7-.8-1-1-.9Zm-1.7-4.6c-.4.4-.1 1.3.3 1.2.2-.2.3-.5.1-.9-.1-.3-.3-.5-.4-.3Zm.4 2c-.3-.2-.3 0 0 .7.2.5.5.8.7.8.4-.2 0-1.2-.7-1.5ZM27.5 13.7c-.2.1-.3.3-.2.4 0 .1.2.2.4.1l.2-.4c-.1 0-.3-.1-.4 0Zm-6.3.7c0 .2 0 .4.2.6.2.1.2 0 0-.4-.1-.3-.2-.4-.2-.2Zm-2 5.2.5 1.1c.2.3.2 0 0-.6-.3-.6-.5-.8-.4-.5ZM22 32.1c-.1 0 0 1.1.3 2.3l.6 2.9c0 .4.2.6.3.4.2-.2 0-1.3-.3-2.6a40.3 40.3 0 0 1-.9-3Zm156.3 362c-.4-.4-.4-.3-.2.3.1.3.4.7.6.7.5 0 .3-.5-.4-1ZM18.2 35.8c-.1 0 .1 1.3.5 2.8 1 3.2 1.2 3.8 1.5 3.3 0-.2-.3-1.7-.8-3.2a63.7 63.7 0 0 1-1.2-2.9Zm160.9 374.5c-.2 0-.3.1-.2.3.1.2.3.3.4.3.2-.1.2-.2.2-.4l-.4-.2Zm-15.2-32.9c0 .2.1.4.3.5 0 0 .1-.2 0-.4-.2-.3-.3-.3-.3 0Zm16.6 38.6c-.2 0-.2.3-.1.5.1.4.2.4.3 0 .1-.7.1-.7-.2-.5Zm-1-.8v.3c.1.1.3.2.5.1v-.3l-.4-.1Zm-8.2-13.2-1.5-2.2a18.8 18.8 0 0 0-2.4-3c.2-.1-1.2-1.5-2-2.2-1.2-1-1.8-.8-1.2.3.2.7.2 1-.1 1.1-.5.2-1.1-.8-1.8-2.7-.3-.9-1.8-3-2.4-3.3-.4-.3-.2 1.1.5 2.8.5 1 1 1.9 2 2.7.9.7 1.6 1.5 1.7 1.8.2.4.3.4.4 0l-.1-.6c-.2 0-.1-.2 0-.2.3-.2.7.3 2 2 .2.4.7.8 1 .7.3 0 .4 0 .2.5s-.1.5.2.2c.3-.2.4-.2.6.2 0 .3.4 1 .8 1.3.4.5.6.9.4 1.2 0 .3 0 .5.1.4.3-.2 2.1 1.3 2.4 2 .1.2.4.3.6.2.3-.1.2-.5-.3-1.4a11 11 0 0 0-1.1-1.8Zm-15.2-5.5c0 .2.2.5.5.5.3.1.3 0 0-.4-.3-.2-.5-.3-.5 0ZM23.3 98.3v.9c.2.4.4.6.5.5.3-.4-.2-1.6-.5-1.4ZM152.8 397l-.3-.6v.7c0 .8.7 1.8 1.1 1.6.2 0 .1-.3 0-.6-.3-.2-.6-.7-.8-1ZM22.4 101c-.2 0-.2.2-.1.4 0 .2.3.3.4.3.1 0 .2-.3 0-.5 0-.2-.2-.3-.3-.3Zm-.4-1c0 .2 0 .4.2.5.1 0 .1-.2 0-.4-.1-.3-.2-.4-.2-.1Zm128.4 293c0 .2.1.4.3.5.1 0 .1-.2 0-.4-.2-.3-.3-.3-.3 0Zm11.9 28c-.2 0-.3.2-.2.3 0 .1.2.2.4.1.2 0 .2-.2.2-.4 0 0-.3-.1-.4 0Zm-3.6-6.2c-.4.2.1.5.6.5s.5-.1 0-.3l-.6-.2Zm-1-2.4c-.3 0-.5.2-.5.2h.6c.2 0 .4 0 .4-.2 0-.1-.3-.2-.6 0ZM4.7 93c0 .2.1.4.3.4.1 0 .1-.1 0-.4-.2-.2-.3-.3-.3 0Zm94.4 230.3-.4.3c0 .2.2.3.5.3.5-.1.5-.5 0-.6ZM277.3 385c-.1.2-.3.3-.3.2-.1 0-.2 0-.3.4-.1.9-.8.5-1.3-.8-.3-.7-.3-.9 0-.6.4.4 1.3.4 1.1 0-.3-.7-1-1-1.3-.8-.4.3-.4.3 0-.2.3-.7-.4-2.6-1-2.5-.4 0-.4-.1-.2-.5.2-.7 1.2-1.5 1.2-1 0 .2-.1.4-.4.4-.3 0-.2.2.3.3.5.2.9.7 1.6 2.5.5 1.4.8 2.3.6 2.6Zm.9 3.7c-.1.4-.9.6-1 .2-.2-.3.6-1 .8-.8.2.1.2.4.2.6Zm-4.7-4.2c-.4.5-.5.5-.8 0-.1-.3-.3-.7-.5-.8-.3-.7-.1-1 .6-.7 1 .2 1.3.8.7 1.5Zm-68.2-148.9h-.5c-.1-.2-.1-.3 0-.4l.5.1v.3Zm-1.5-2.8c-.3 0-.5-.2-.4-.3l.5.1c.3.3.3.3-.1.2ZM261.6 366c-.2.1-.5 0-.8 0-.4-.2-.5-.4-.3-.7.1-.4.3-.4.6-.2.6.3.8.8.5 1ZM135.8 88c-.1 0-.4 0-.4-.3v-.6c.2-.2.4 0 .5.2v.7Zm1.6 4.3c-.4.2-.7-.5-.5-.8.1-.1.3 0 .5.2v.6ZM245 337.8c-.6.5-.9.3-.7-.8 0-.6.2-1 .2-.8.7 1 .8 1.3.5 1.6Zm-95-213.6h-.3s0-.2.2-.3c.1-.2.3-.2.3 0 0 0 0 .3-.2.3Zm1.4 3.7-.6.3c-.3-.1 0-.5.4-.6.4 0 .4 0 .2.3Zm-.4-1c0 .7-.5.7-.5.1 0-.3 0-.6.2-.7.2 0 .3 0 .3.7ZM97.3 9c-.2.5-.6.5-.8.1 0-.2 0-.4.3-.5.4-.2.7 0 .5.4Zm133.5 307.8c-.1.1-.3 0-.5-.2-.1-.3 0-.5.1-.5.4 0 .6.4.4.7Zm-1.5-2c-.3 0-.6-.1-.7-.3l-.9-1.5c-.4-.7-.4-1-.1-.8.4.2.4.2.3-.1l.1-.3c.1 0 .6.7 1 1.5.7 1.2.7 1.5.3 1.5ZM273 416.1c-.3.3-.9 0-.8-.4.1-.4.7-.5.9-.1l-.1.5Zm-8.7 1h-.6c-.2-.1 0-.2.2-.3.6 0 .8.1.4.3Zm-1-1.7-.4-.1c0-.2.3-.3.4-.3.5 0 .5.1 0 .4ZM35 1.3c0 .2-.2.3-.3.2V.8c.1-.3.2-.4.3-.3v.8Zm157.2 416c-.1 0-.3-.1-.4-.4v-.6c.2 0 .4 0 .5.4v.6Zm-8.9-8.5-.3.9-.9-1.4-1.4-2.7-.8-1.2c-.3.1-.4-1.6-.2-2 0 0 .2.2.2.7.1.5.5 1 1 1.3a7 7 0 0 1 1.4 1.8c.3.8.7 1.3.8 1.2.4-.2.5.6.2 1.4Zm1.5 3.1-.2-.4c0-.3 0-.3.2 0 .1.3.1.5 0 .4Zm-2 6.3c-.4.2-.6.2-.5 0l.5-.2c.3 0 .2 0 0 .2Zm-5.5-5.7c-.2 0-.5.4-.6.8-.3.7-.4.7-1.9-.5-1.8-1.3-1.9-1.5-1.1-1.8.3-.2.7-.1.8.2.1.3.2.3.3 0 0-.3 0-.7-.2-1-.2-.2-.2-.4 0-.5.1 0 .4.2.6.7l.5 1.3c.2.4.3.4.4 0 .1-.4.2-.4.3 0 .1.2.4.3.5.2.2 0 .4 0 .5.3 0 .2 0 .4-.1.3Zm-3.8-2c0 .3-.2.3-.6.1-.6-.2-.4-.7.3-.6.2 0 .3.2.3.4Zm-8.6 14c-.2.1-.3 0-.4-.1v-.7c.2-.1.3 0 .4.1v.7Zm-3.6-4.5c-.7-.1-.8-.3-.4-.4.1 0 .4 0 .6.2.3.3.3.3-.2.2ZM2.5 72.5C2 72.4 1 71 1 70.5c.1-.3.2-.4.3-.2.8 1.2 1.3 2.3 1 2.2Zm.3 1.7c0 .2-.2.1-.5-.4-.1-.4-.2-.8 0-.8.3-.2.6.6.5 1.2Zm2.4 6.5c.2 1.2 1.1 3.8 3 8.7.7 1.7 1.2 3.4 1.2 3.7-.1.4.3 1.6 1 3l1 2.1A7 7 0 0 1 9.6 97h.3c.3 0 .3-.4 0-.8-.1-.4-.4-.7-.6-.6-.1 0-.3 0-.4-.2 0-.1.1-.2.4-.2.3 0 .3 0 0-.2-.3-.1-.6-.5-.7-.7 0-.3-.4-1.2-.7-1.9-.3-.7-.4-1.3-.3-1.3.2 0 0-.7-.4-1.5s-.7-1.7-.6-2c0-.4 0-.6-.3-.5-.2.1-.3 0-.2-.2 0-.2-.3-1.4-.8-2.6a35.3 35.3 0 0 1-1.7-5.6c0-.3 1.3.5 1.4.8l.2 1.2Zm3 10.7c-.2 0-.2.3-.1.6l.5.5c.2 0 .2-.3 0-.6 0-.4-.3-.6-.5-.5ZM1.4 78.5c-.2.2-.1.4 0 .4.2.1.1.3 0 .3-.6.3-.8-.1-.3-.7l.4-.4-.1.4Zm1.1 5.8-.1.8.8 1.2c.6 1.1.6 2.8 0 2.6-.4-.1-1.1-1.9-.9-2.4.2-.5 0-1.2-.6-1.4-.4-.1-1-1.4-.6-1.7.3-.5 1.5-.6 1.6-.2.1.2 0 .7-.2 1.1Zm-.9-2.6c-.1.1-.2.1-.1 0 0-.3-.1-.4-.3-.5-.6 0-.6-.3-.1-.6.5-.2 1 .6.5 1ZM127 371.8c-.1 0-.2-.2-.2-.5 0-.2 0-.2.2.1.1.3.1.4 0 .4Zm-30.4-46.2h-.3l.2-.4h.3c0 .1 0 .3-.2.4Zm-2.5-5.8c-.1.6-.7.7-.7.2 0-.3-.3-.5-.6-.3l-1 .3c-.2 0-.5 0-.6-.3l-.4-.6-.7-.8c-.7-.8-1.3-1-1.6-.8-.1.2-.3 0-.4-.2-.1-.3-.1-.6 0-.8.3-.2.3-.3 0-.3-.7-.1-1.3-.8-1-1.4.1-.4.1-.5-.2-.1-.2.3-.3.2-.3-.2l-.1-.8c-.1-.2 0-.5.3-.7.3-.3.4-.6.2-.8-.5-.6-1.2-.2-.8.4.4.4.4.4-.1 0-.3-.1-.7-.7-1-1.1a151.2 151.2 0 0 1-8.8-14.8 348.9 348.9 0 0 1-8.4-16.6l-.3-1.6v-1.2c.1-.1.7 0 1.2.1.8.3 1.1.6 1.5 1.6.3.7.7 1.2.8 1 .2 0 0-1-.5-2-.7-1.7-.8-3-.3-2.8.3 0 2 3.3 1.8 3.3l.6 1.7c.5 1 1 2.4 1.2 3.2l.6 1.6.7 1c.3.7.7 1.4 1 1.7.4.3.5.8.4 1-.1.3.3 1.6.8 3 .7 1.6.9 2.3.6 2.3-.2 0-.1.1.2.2.4.2.7.6.9 1.4.1.7.3 1 .4.8.3-.4.3-.3 1.4 1.9.4.9 1 1.8 1.2 2 .3.3.4.5.3.6-.2 0-.2.4 0 .7.1.3.4.6.5.5l.4.3c0 .2 0 .4-.2.4-.4 0 1.2 2.3 1.6 2.3.8 0 3.5 4.4 2.9 4.7-.2 0-.3.3-.2.4h.3c.4-.4.9 0 .7.6-.2.3-.1.4.2.4.3 0 .6.3.9 1 .2.6.5 1 .6 1 .5-.3.7 1.1.3 1.6-.2.3-.3.5-.1.6.1.1.3 0 .4 0 .1-.2.4-.1.5 0 .2.2.3.4.1.6-.1.2.1.4.5.7.9.6 2.5 2.7 2.3 3.1Zm.3 4.1c-.6.3-.7.2-.4-.2.1-.2.4-.2.5-.1.2 0 .1.2-.1.3Zm-1-.7c-.2 0-.4-.3-.4-.5s.2-.1.4.2c.3.3.3.4 0 .3Zm-38.3-84.8v.7c-.4.1-.7-1-.4-1.3l.3-.2.1.8Zm1.6 5.4c-.6-.5-.8-1-.2-.6.2.1.5.4.5.6.1.2 0 .2-.3 0Zm-.6-1.5c-.1.1-.2 0-.3-.3 0-.7.1-.8.3-.3v.6Zm13.4 32.1c-.3.6-.4.4-1.8-2.6a42 42 0 0 0-2-4.5l-.2-1c-.6-1-.2-1.2.4-.2.3.6.4 1 .3 1-.5 0-.2.2.5.4.6.2 1.2 1.2.8 1.7-.1.1 0 .4.3.6.6.4.6 1 0 1-.2 0-.2 0 0 .2.3.1.8.8 1.2 1.5.6 1 .7 1.4.5 2Zm-8.4-20c-.2.1-.4.1-.4 0 0 0 0-.2.2-.3.1-.2.3-.2.3 0l-.1.3Zm3.7 10.2c0 .3-.1.4-.2.2v-.6c.4-.3.4-.3.2.4ZM22.2 168c-.3 0-.2 1 .1 1.1.5.2 1 1.2.7 1.4-.2 0 .1.8.7 2 .8 1.4 1 2 1 2.9 0 .5-.2.8-.2.6 0-.3-.2-.5-.3-.5l-.6-.3c-.1-.2-.4-.3-.6-.4-.2 0 0-.1.3-.3.6-.3.6-.3-.1-.8-.7-.4-.7-.5-.4-1 .4-.6.4-.6 0-.2-.4.3-.6.2-.8-.3-.1-.3 0-.8.2-1 .2-.3.2-.4 0-.4-.4.2-.9-.5-.5-.6.1-.1-.1-1-.6-2s-.8-2-.7-2v-.9c-.2-.4-.1-.5.3-.3.5.1 2 3 1.5 3Zm-1.8-4-.3-.1-.6-1c-.6-.9-.2-1.4.4-.6.6.9.8 1.5.5 1.6Zm6.9 18.2c-.2 0-.1.5.1 1s.6 1 .8 1c.2 0 .3.1 0 .2-.3.2.3 1.7.6 1.5.2 0 .3 0 .2.2 0 .3.6 2.6 1.5 5l.5 1.4c-.2.1 1.2 3.4 1.5 3.5.5.2 1.8 2.6 1.5 2.7-.1 0-.2.3 0 .5 0 .2.2.3.4.2.1 0 1 1.7 2.1 4.6l2.2 5.3c.2.3.3 1 .4 1.6 0 .5.2.9.3.8.3-.1.6.7.5 1.1l1 2.5c.8 1.6 1.1 2.5 1 2.9-.2.4-.1.4.2.3.3-.1.3 0 .2.1-.2.2.3 1.7 1.2 3.7A2550.7 2550.7 0 0 1 58 256.9c.2 0 .3 0 .4.2 0 .2 0 .3-.3.3-.2 0-.3.1-.2.3v.5c-.3.1-.3.3-.3.4.1.2.3.2.4 0 .1-.2.3 0 .6.5.2.7.2.8-.1.6-.4-.2-.4-.1-.3.1 0 .3 0 .3-.5.1-.3 0-.7-.4-.8-.6-.2-.3-.4-.5-.6-.4-.2 0-.3-.1-.3-.5s-.1-.5-.3-.3l-.3.2c0-.1.1-.4.4-.6l.6-.5-1-.4c-.6-.2-.8-.4-.6-.7.2-.2.1-.3-.2-.3-.4 0-1.2-1.7-4.4-8.9a471.9 471.9 0 0 1-14.7-38c.2-.2.1-.3-.3-.4-.3 0-.4 0-.3-.2.2 0-.3-1.6-1.5-4.2a67.8 67.8 0 0 1-5-13.5c-.7-1.8-2.2-6.1-2.2-7 0-.3 0-.4.5-.3.5.1.6 0 .3-.2a15 15 0 0 1-.7-.9c-.3-.3-.6-.5-.8-.3-.2.2-.2.1 0-.2.3-.4.2-.7-.5-1.7-.4-.8-.8-1.5-.7-1.9 0-.3 0-.8-.2-1.2-.2-.7-.2-.7.1-.2.4.4.5.4.6 0 0-.4.2-.1 1.8 3.3.6 1.2.9 2.1.7 2.2Zm29 73c-.2.2-.2.4-.1.5.4.3.8 0 .7-.4-.1-.3-.4-.3-.6 0Zm7.4 14c-.7 0-.8 0-.4.3.3.3.2.4-.5.4h-.7l.5-.6c.6-.6.5-1.2-.2-1-.3 0-.5 0-.4.2 0 0-.1.3-.4.4-.3.1-.5 0-.8-1.1-.2-.9-.4-1.3-.6-1.2-.2.1-.5-.2-.8-.7-.2-.6-.2-.9 0-.8.3 0 .3-.1-.1-.4-.5-.3-.5-.4 0-.4.2 0 .5 0 .6.2h.3c.7-.2.1-.5-.9-.4-1.1 0-1.1 0-1-.7 0-.4.3-.7.9-.8.4-.1.7-.3.6-.4v-.5c.2-.1.6.4 1 1.3.7 1.4.7 1.6.2 2.2-.6.5-.5 1.6.1 1.3.2 0 .2-.2 0-.3-.1 0 0-.2.3-.2s.5.1.5.4c0 .3 0 .4.2.2.3-.4 1 .3 1.3 1.3 0 .4.4.8.6 1 .4.3.4.3-.3.3Zm-4.1-6.3c-.2 0-.2.2-.2.4.1.2.3.2.4 0l.1-.2c0-.1-.1-.2-.3-.2Zm5.6 9.6c-.1.2-.4 0-.6-.1-.2-.3-.5-.4-.7-.1-.3.2-.5.2-.5.1-.2-.3.8-.7 1.4-.5.6.1.7.3.4.6Zm-1.5-1.1h-.5l.3-.4c.2-.2.4-.2.5 0 .1.2 0 .3-.3.4Zm-1.2-.6a2 2 0 0 1-1-.8c-.2-.6 0-1.2.5-1 .2.1.2.3 0 .4-.2.2-.2.4.3.7.8.5 1 1 .2.7Zm1.4 3.3c-.2 0-.3-.3-.2-.5 0-.2 0-.2.2 0v.5ZM58 261c0 .4-.1.4-.3 0-.1-.2 0-.4.1-.5.4-.2.4-.1.2.5Zm.2 1.5c-.4.3-.4.2-.3-.3 0-.7.3-.9.5-.4 0 .2 0 .5-.2.7Z"/>
  <defs>
    <linearGradient id="a" x1="225.6" x2="28.1" y1="451.5" y2="3.5" gradientUnits="userSpaceOnUse">
      <stop stop-color="#9F87C2"/>
      <stop offset=".4" stop-color="#9575C8"/>
      <stop offset=".8" stop-color="#983794"/>
      <stop offset="1" stop-color="#DE2ED7"/>
    </linearGradient>
  </defs>
</svg>
