<svg xmlns="http://www.w3.org/2000/svg" width="453" height="521" fill="none">
  <path fill="url(#a)" d="M283 38.6c0 1-2.2 2.3-2.6 1.5-.3-.6 1-2.3 2-2.8.6-.3.6-.2.6 1.3Zm-8.1-11c-1 .8-3.1.7-2.7-.1.1-.4.8-1 1.4-1.3 1.4-.6 2.4.6 1.3 1.5Zm3 11.1c-.4 0-.6-.4-.5-.7 0-.4.3-.3.6 0 .2.5.1.8-.2.7Zm141.9 271c-.5.3-.9.4-1 .3 0-.1.3-.5.7-.8.4-.3.8-.5.9-.3 0 0-.2.5-.6.8ZM272.6 41.2c-.6.4-1 .4-1 .2.3-.7 1.8-1.6 2-1.1.2.2-.3.6-1 1ZM259 19.8c-.5.6-.7.6-.9.1v-1.7c.3-1 .3-1 1-.1.3.5.2 1.3 0 1.7Zm-.2 3c-.3 0-.5-.3-.3-.6.1-.3.4-.3.6 0 .2.4 0 .7-.3.6Zm-1.9-3.2c-.4.2-1.2 0-1.8-.3-1.7-1.2-3.2-.3-2 1.2.6.7.8 1.8.5 2.5a18 18 0 0 0-1 3.9c-.2 1.4-.8 3.2-1.3 3.9-.5.7-.8 1.9-.8 2.6.1 1.9-2 3-2.7 1.6-.3-.7-.2-1.2.3-1.4.6-.1.9-.5.8-.9a4.4 4.4 0 0 1 0-2.8c.4-1.4.4-1.7.2-2.3 0-.3.3-.7 1-1 1.1-.5 1.6-3.9.7-5.9-.6-1.5.9-3.3 3.5-4 1.3-.5 1.9-.3 2.5 1 .5.8.5 1.7.1 2Zm2 5.3c0 .1 0 1 .2 1.8.2 1 0 2-.4 2.6-.5.7-.7.7-.8-.4-.4-2.6-.2-4 .3-4.4.5-.4 1.2 0 .8.4Zm154.3 300.4c-.5.4-.5.7 0 .9.4.1.3.3-.5.6-1.8.7-3.4 3.2-2.3 3.4 1.5.2 1.6.6.2 1.3-.7.4-1.4.5-1.5.3-.1-.2-.6-.2-1 0-.5.3-.8.6-.7.8.1.2-.1.6-.6.8-.4.2-.4.8 0 1.2.5.5.6 1 .1 1.3-.4.2-.8.3-.9.1 0-.1-1 .2-2.2.8-1.2.6-2.2 1-2.3.8-.1-.3-3.3 1.3-3.8 2-.6.8 1.8.3 4-.8 2.4-1.2 2.9-1 1 .4-1.2.9-1.2 1 .2.7 1.4-.3 1.6-.4 1.9-1a9 9 0 0 1 2.3-1.8c1-.8 1.9-1.5 1.8-1.7-.3-.6 2-1.9 2.7-1.5.6.4.6.4 1.2-.6.5-1 .5-1.1 1.4-.9.4.2.8.4.7.6 0 .2.4.4.9.5.6.2.5.6-.6 1.6l-1.4 1.4-.6-1c-.5-1-2.3-.4-2.7 1-.2.6-1.6 1.6-5.1 3.3l-2.6 1.6c-.5.5-1.2 1-1.6 1-.5.2-1.7.9-2.7 1.7-1.5 1-1.6 1.2-.4.6 1.8-.9 2.5 0 .7 1-.8.3-1 .6-.7.6.3 0 .2.2-.4.5-.5.3-.9.2-.8-.2.1-.4 0-.6-.4-.4-1.2.6-1 2.2.6 3.3 1.4 1.1 1.2 1.7-1.3 3-1.7.9-2.3.6-1.5-.8 1.2-2 0-1.8-3.5.4a27 27 0 0 1-4.3 2.3c-.8.4-1.4.7-1.3.9.2.4 4.2 0 5-.5.2-.2.6-.3.9-.2.2 0 0 .3-.5.5-.5.3-.8.8-.6 1.1.3.6 1.7.2 2-.6.1-.3 1-.8 2.7-1.5l2.4-1-3.7 3.3c-3.6 3.2-4 4-2.5 4.4 1 .1 1.7-.3 4.4-2.7 2.3-2.1 4.4-3.3 4.2-2.4v1.4c.2.7-.1 1-2 1.9-3.2 1.4-1.8 1.6 1.6.1 1.4-.6 3-1 3.4-1 .4.2 1.5 0 2.5-.2 2.4-.6 3 .9 1 2.2-1.3.7-1.8.8-2 .5 0-.3.2-.7.6-1 .5-.1.2-.2-.6-.1l-2.9.3a6 6 0 0 0-4.7 3c-.6 1.4-2.6 2.7-3 2-.3-.6-2.8 1-3.3 2.2-.2.6.3.4 2.4-.7 2.1-1 2.7-1.3 3.2-1 .4.4 1 .3 2-.4 1-.6 1.9-.8 2.9-.8 1.2 0 1.3.3.4 1.8-.6.9-1.3 1.6-1.6 1.5-.3 0-1.3.3-2.1.7-1.1.6-1.7.7-2 .3-.3-.7-2.2.6-2.2 1.4 0 .8-1.9 2-2.8 1.8-.5-.1-.8 0-1.3.7-.6.7-.9.7-1.7.3-.7-.4-1.2-.4-1.7.1s-.4.7.4.6c.7-.1 1 .1.9.5-.2.3.7 1 2 1.3 2.1.7 4 .8 3.7.2-.1-.2.3-.5.8-.7.7-.2.8 0 .2.5-.4.4-.6 1-.5 1.1.3.6 2.4 0 2.6-.6.1-.4.6-.6 1.3-.8 1.2-.3 5.7-2.7 5.5-3l1.6-1c1.8-.7 2.6-.3 1.7.7-.2.4-2 1.6-3.9 2.8a17 17 0 0 0-3.3 2.3c.1.1-.3.5-1 .7l-2.4 1.5c-1.9 1.2-5 1.9-4.8 1 .2-.9-1.3-.2-4.7 2-1.7 1.1-1.9 1.4-.9 1 .9-.2 1.7-.6 2.3-1.1.7-.6 1-.8 1.5-.7 4.6 1.4 7.5 2.8 7.4 3.9 0 .3.4.4.8.1.5-.2.6-.5.3-.6-.9-.1 0-.6 1.9-1 1-.2 1.1-.3.5-.3-.8 0 .6-.8 1.5-.8.3 0 .5.8.4 1.7-.4 3.3 0 4.3 1.6 4.4 1.5 0 1.7 0 1.9-.7.6-2.1.3-4.5-.7-4.5-1.3 0-1.8-1-.9-1.4.4-.2 0-.8-.7-1.2-1.1-.6-1.4-1.2-.9-1.9.6-1 .7-1 .7-.4 0 .4.5.3 1.8-.4s2.1-.8 3.9-.4c2.8.6 4.1 2.5 2.6 3.8-1.7 1.4-2 2.4-.6 2 1.6-.5 3 .5 2.3 1.5-.8 1.3 1.3 1 3.8-.6 2.2-1.3 2.7-1 1.4 1-1.3 1.7-.9 2.1 1.1 1.1 1-.5 1.8-.7 1.8-.6.1.1-.7.7-1.8 1.2-1.8 1-1.9 1.1-1.2 2 .5.5 1 1 1 1.2.1.1.8 0 1.4-.5.7-.4 1.3-.7 1.4-.6 1.9 1.7 2.2 2.5 1.2 2.9-.6.2-1.3.1-1.5-.2-.3-.6-2.9-.7-4-.1-.4.2-.5.6-.3 1s0 1-.4 1.4c-.4.4-.6 1.2-.4 1.7.2.6-.1 1.2-.7 1.5-.7.4-.5.5.8.5 2.4 0 3.2-.4 2.7-1.4l-.4-.8 2-.2 2-.2-1-.7c-1.3-.8 0-1.6 2-1.3 1.4.2 3.2-.3 2.9-.7l1.6-1.1c.9-.5 1.7-.8 1.8-.6.1.2 1 .2 2 0 2-.4 2-.5 2.3-1.2.2-.5 0-.6-.7-.4-1.7.7-1.4 0 .5-.8 1.6-.7 1.7-.7 1.8.6 0 .7-.2 1.7-.6 2-.3.3-.4 1-.2 1.3.5 1-1 1.6-2.7 1.1a4 4 0 0 0-2.2 0c-.4.2-.9.1-1-.2-.3-.5-.4-.4-1.2.8-.5.8-.8 1.5-.7 1.7 0 .2-.2.6-.7.8-.5.2-1 .2-1.1 0-.2-.4-.8-.3-1.9.2-2 1-2.9 3.1-1.7 4.1.5.4.7 1.2.5 1.7-.5 1-.3 1 3-.6 3.3-1.4 3.8-1.7 5.4-3.4 1.9-2 3-2.5 3.5-1.7.1.3-.2.7-1.1 1-1 .3-1.4.8-1.6 1.3 0 .5-.6 1-1.3 1.3-.7.3-1.4.7-1.6 1-.3.4-.8.7-1.8 1-2.1.4-3.5 2.2-2.1 2.6 1.3.5.2 1-2.1 1.2-1 0-1.9-.4-2-1-.2-.7-1-1-1.8-1-.7.2-1.5-.2-1.6-.7-.2-1.3-1.5-1.6-3-.8-1.4.7-1.3 1.4 0 1 .6-.1.8.2.6.7-.3.5.1 1 .8 1 1.5.4.9 1.1-1.2 1.6-1.6.4-1.6.4-2.6 1.8-.6.9-.7.9-2 .6-1-.2-2 0-3.4.7-1.6.8-1.8 1-1.5 1.8.3.4 0 1.4-.5 2.2-.5.8-.6 1.4-.3 1.3.4 0 .2.1-.3.4-1.3.6-.9 3.8.5 3.6.8 0 .9.1.3.6-.5.5 0 .3 1.4-.5 2.5-1.4 3-1.2 1.4.7-.9 1-.8 1.4.5 1.8l1.5.7 1.1.5c1.3.2.6 2.3-1.7 5.8-.4.7-.6 1.7-.3 2.1.3.5-.1 1.5-1 2.3-1.5 1.6-1.4 2.2.4 2.6.8.1 1 .4.5 1-.4.3-.6 1-.6 1.4.2.8-.6 1.5-1.5 1.2-.3 0-1 .6-1.7 1.5-.7 1-1.5 1.8-1.8 2-.4.1-.5.5-.4.8.4.7-3 2.3-4.7 2.2h-2.6c-1.9.3-.5-1.1 1.7-1.6 3.2-.7 3.7-2.3 1-2.7-1.3-.2-2.2 0-4 .9-2.1 1-2.2 1.2-1.3 1.7.5.3.6.8 0 1.2-.6.5-.9.4-.7-.1.1-.5-.2-.6-1-.1-1.1.5-1.1.8-.2 1.5.7.5 1.6.8 2 .8 1.1-.2.6.9-.5 1.2-.5.1-.5.4 0 .6.5.2.5.6 0 .8-.9.5-2 2.5-1.8 3 .3.6 1.5-.5 1.6-1.5.1-.6.2-.6 1-.5 1.4.1 0 2.4-2 3.2-1.4.6-1.7.8-1.4 1.4.2.3-.2 1-.9 1.4-1 .7-1 1-.2 1.6.8.6.8.8 0 .8a2 2 0 0 1-1.5-.7c-.4-.7-.7-.7-1.7 0l-1.6 1c-.1 0-.3.7-.2 1.5 0 1 .4 1.4 1.7 1.3 2.2 0 3.1-.5 3.4-1.7.1-.7.5-1 1-1a5 5 0 0 0 2.1-.9c.8-.5 1.4-.7 1.5-.6 0 .2.5 0 1-.1.5-.3.7-.6.6-.9-.2-.3 0-.4 1.2-.7 2.3-.5 2 0-.7 1.2-3 1.4-4.7 3-4.8 4.5 0 1 .1 1.1 1.2.6.8-.4 1.5-.6 1.6-.4.1.2-.1.6-.6.8-.4.2-.6 1-.4 1.6l.3 1.3 3.2-1.6c2.6-1.3 3.2-1.5 2.6-.9-.4.4-.4 1 0 1 .5.3.4.6-.2.9-.5.2-.8.7-.6 1 .2.3-.3.7-2.3 1.7-1.4.7-2.5 1.4-2.5 1.6 0 .2-.4.3-1 .1-.8-.2-.8 0-.3.8 1 1.2-.7 2.6-2.8 2.5-1.6 0-2.2-.6-1.4-1.4.7-.7 1.7-3.3 1.4-4-.2-.3-.7-.3-1.2-.1-.4.2-.9.3-1 0-.2-.3-.5-.1-1.8.8-.8.6-1.4 1.3-1.3 1.4.3.7-1.3 1.5-4.1 2.2-2.2.6-3.1.6-4 0-1-.8-1.3-.8-1.7 0-.4.7-1.1 1.1-3.9 2.4-3.7 1.7-4 2.1-1.5 1.7 1.5-.2 1.5-.1-1 1.3-3 1.7-3.8 2.8-2 2.5.8 0 1 .1.5.9-.8 1.2-1.8 1.7-3.6 1.8-1.2.1-2 .4-4 1.6-1.5.8-2.6 1.6-2.5 1.8 0 .1-.6.3-1.5.4-1.3 0-1.9.3-2.7 1-.8.7-1.3.8-2.4.6-.7-.2-1.6-.1-2 .2-.4.3-1.4.6-2.2.7-.7 0-1.4.2-1.6.4l-1.6 2c-1.7 2-1.3 3.7.8 3.3 1-.2 1.4-.4 1.9-1.3.8-1.4 3.4-3.3 4.5-3.3 1 0 1.6 2 .7 3-.4.4-.4 1 0 1.2.7.3.5.7-.5 1.5-1.2 1-2.1 3.7-1.3 4 .1 0-.2.3-.8.6-1.5.8-7.3.6-6.9-.2.2-.3-.4-.6-1.2-.5-.8 0-1.3-.2-1.1-.5.1-.4 0-.4-.6 0-1.2.9-2.4.8-1.5-.1 1.2-1.1 0-2.7-1.6-2.3-.8.2-1.5.2-1.6 0 0-.2-.8-.1-1.5.1-1.5.6-2.6-.6-1.3-1.3.5-.3 1-.2 1.1 0 .2.3 1.1.4 2.2.3l1.9-.3-1-.9c-1.3-1-.8-1.5 4-4 2.3-1.2 3.7-1.8 4.3-1.7.7 0 1-.2 1.5-1s.4-1-.6-1.2c-1 0-1.1-.3-.6-.7.4-.4.9-1 1-1.3.4-.8 2-1.8 2.2-1.4.3.5 2.8-2.2 3-3.2.3-1.1-2.9-1.5-4.7-.6-1.4.7-2.3 2.2-2 3 .3.3 0 .8-.3 1a2 2 0 0 0-1 1c0 .5-.5 1-1 1.3-.6.2-1.1.2-1.2 0-.2-.3-.8-.3-1.5 0-.6.4-1.5.6-1.8.5-.4 0-1.3.2-2 .5-1.7.9-1 2.5 1 2s2.9.2 1.1 1c-1.7 1-4.6 1.4-5 .9-.1-.4-3 0-3 .5.2.4 0 1.3-.3 2.1-.3 1-1.9 1.6-1.6.6.1-.7-.1-.6-2 .5-1.6 1-2.2 1.2-2.3.9-.4-.8-1.6.3-2 1.8-.2 1.3.1 2.2 1.2 3 .1.2 1.4-.2 2.8-.7 2.1-.8 2.5-.8 2.5 0 0 .7.5.7 2.3 0 2-.6 2.3-.6 2.3.4 0 .8.5 1 1.5 1 2.2-.4 3.4.6 2.3 1.8-1.3 1.5-1 1.6 1 .4 1.4-.9 1.6-.9 1.5 0-.2.7.5 1.2 1.6 1.3 2.4.4 2.4.4-1.3 1.3a26 26 0 0 0-4.5 1.5c-1.7.9-2.1.3-.7-1 1.2-1 1.2-1.8 0-1.2l-1.6 1.3a11 11 0 0 1-4.8 2.5c-1.4.3-2-.6-1-1.4.9-1 .6-2.3-.4-1.9l-2.4.9a10 10 0 0 0-3.8 2.3c-1.2 1-2.6 2.2-3.2 2.4-.6.4-.7.7-.1 1 .8.4.8.4-.6.6-1.8.1-2.5.7-6.7 4.8-3.1 3-4.1 3.1-2.3.2 1.7-2.6 1.5-3-.6-2-2.2 1.1-5.7 1.4-5.4.5.1-.6.4-.8 1.1-.8.8 0 1-.2 1.3-.6.2-.5.4-.6 1.1-.6 1.4 0 3.4-2.1 3-3-.4-.6-4.1-.3-5.9.6-1.4.7-3.4.1-3.1-1 .2-1-1.2-.8-5.3.8-2 .7-2.3.3-.7-.7.9-.6 1-1 .1-1.6-.8-.6-.7-1 .2-1.6a3 3 0 0 0 1.2-2.1c0-.7.3-1.4.7-1.6.3-.2.5-.6.4-1-.2-.5-.2-.5-1.1.5-1 1-1 1-1.7 0-.7-1.3-5-4.3-4.8-3.4.1.4-2.1 2-5.2 3.6-.9.5-2.3 1.6-3.2 2.4-2 1.9-2.4 2-3.7 1-.6-.5-.7-1.3 0-2.2 1-1.7 1-2.4-.3-1.8-.5.3-1 .3-1 0-.2-.1-.6-.1-1 .1-.5.3-1 .3-1 .2-.1-.1.9-.6 2.2-1 2.7-.7 8-.3 7 .6-.8.8-.6 1 .5.5.5-.2.6-.4.3-.4s0-.4.7-.8c1-.7 1-1 0-2-1.3-1.1-4.6-1.9-5.8-1.3a2 2 0 0 0-.7 1c-.1.7-.4 1-1.4 1-.9.2-1 0-.4-.9.5-.6.5-1.2.2-1.3-1-.1-1-.5-.1-.9 1-.4.8-.8-.6-.9-1.2 0-1.2 0-2.6 1.5-1.6 1.8-5 3.7-4 2.2.8-1.1-.3-1.3-2.4-.4-1.8.7-3.2-.2-1.6-1 1.4-.7.7-1-.8-.5-.7.3-2 1-2.7 1.7-2 1.8-2.3 1.8-2.7 0l-.3-1.6-1.4 1.4c-.8.8-1.4 1.6-1.3 1.8.1.1-.2.8-.8 1.4-1 1-1 1-1 .2.1-1.4-2.2-1.4-5 0-3 1.3-6 2.3-6.2 2-.1-.3.4-1.4 1-2.7 1.4-2.9-.1-5.6-2.5-4.4-1.7.8-3.7.7-4.2-.4-.2-.6-.6-.7-1.6-.1-1.5 1-3.3 1.3-3.1.5.1-.4 0-.4-.6.3-.5.7-1 1-2.4 1.4-1.3.3-2 .7-2.6 1.2-.6.6-.8.7-1 .4-.1-.3-1-.1-2.3.6-2 1-3.6.9-1.7-.1l1.5-.9 2.8-2c2-1.7 2-1.8.7-2.4-1.5-.6-1.8-2-.5-2.5 1.4-.4.8-2.1-1.2-3.3-1.4-.8-2-1.7-2-3 0-1-.3-1.7-.6-1.7s-.3-.4 0-1c.5-.6.3-1-.7-1-.7-.2-1.3-.4-1.3-.6 0-.2-.1-.2-.4.1-.3.3-1.1.6-1.8.7-1.8.3-2 0-.3-.5 1.6-.6 2-1.3.8-1.8-.7-.3-1-.2-1.5.4-1.3 1.7-2 3-1.9 3.4.1.2-.2.5-.7.6-.6.2-.9 0-.7-.5.2-.8.2-.8-.9.4-.5.6-1 1-1.1 1l-1.2-1.6c-.8-1-1.6-1.4-2.8-1.2-1 .1-1.8.1-1.9-.1 0-.2-.5-.2-1 0-.5.3-.7.7-.6.8a9 9 0 0 1-2.5 2.4l-2.7 2-.5-.6-.4-1c.3-1.4-1.7-3.4-3.5-3.4-1.5 0-1.7-.2-1-.8.6-.7.8-.7 1-.4.3.5 2 0 3.2-1 .7-.6.7-1 .1-1-2-.2-3.5-.8-2.6-1.2.8-.5 0-1.6-1.7-2.2l-2-1.3c-1.7-1.3-2.4-1.5-3.5-.7-.8.5-1.2.3-1.4-1-.3-1.2-.9-1.6-2.8-1.9a5 5 0 0 1-3.9-2.2c-1.5-2.1-2.2-2.3-3.8-1-.9.7-1.1.8-1.3.4-.4-.7-1.7 0-2.6 1.2a6 6 0 0 1-2 1.7c-1 .5-1.3.4-1.2-.5 0-.7-.3-1-.9-.8-.5.1-.9.4-.9.6 0 .2-.4 0-1.1-.4l-1.2-.8.5 1.2c.3.7 1 1.1 1.4 1 .5-.2 1-.2 1 0 .2.1-2.6.7-6 1.3-4.3.7-6.8 1.3-7.6 1.9-1.4.9-1.4.8-2.9-1.7-.4-.8-.4-1.7 0-2 .5-.4 1.1-1.2 1.4-1.9.5-1 .8-1.2 1.6-1.2s1-.1.8-.5c-.1-.2-.7-.3-1.3-.2-.8.2-1-.1-.6-1 .5-1.5.2-1.9-.9-1.2-.4.2-.6 0-.6-.4 0-.6-.4-.7-1.5-.2-1.4.5-1.6.5-1-.5a7 7 0 0 1 1.3-1.8c.4-.3.4-.6 0-.7a36 36 0 0 0-9 4c-.5.2-.9.2-.7 0 .1-.4-.5-1-1.5-1.5-1.3-.7-2.2-.7-3.4-.2-1.3.5-1.8.4-2.4-.5-1-1.4-1.6-2-3-2.6-.7-.4-.7-.6 0-.8.6-.2 1-.5 1-.6h-1c-.6.2-1.1 0-1.3-.2-.1-.3.2-.6.8-.8.8-.2.9-.4.2-.6-2.3-1-4.4-2.8-3.9-3.5.5-.7 1.2-.8 3.7-.5 1.7.2 3.4.1 3.8-.2 1-.8.1-2.1-2.2-3-1-.5-2.1-1.1-2.3-1.5-.3-.6-.2-.6 1.2-.7.8-.1 2.3 0 3.5.4 3.1.8 4.3.4 2.5-1a7.2 7.2 0 0 1-2-2.4c-.3-.7-1.4-1.6-2.4-2-1.8-.7-1.8-1-.6-2.2 1.1-1.3 1.3-1.4 2.4-1.4 1 0 1-.1.4-.5-.5-.2-1.4-.8-2-1.3-1-.7-1.4-.7-3.2.2-1.8.9-2 1-2.2 0 0-.6.3-1.1 1.5-1.8s1.4-.7.9-.1c-.4.4-.9 1-1 1.5-.3.5 0 .4 1.7-.7 1.3-.9 2.5-1.4 3.2-1.6.6-.1 1.5-.6 2.1-1 .9-.7.8-1-.7-1.6L128 434a5 5 0 0 0-1.9-.6l-2.2-.4c-1-.2-1.7 0-4.3 1.3-2.3 1.2-3 1.7-3.2 2.2-.3 1-1.2 1.4-3.3 1.1-2.7-.3-4.7-1.6-4-2.6.6-.8.8-.9 2.5-1 1.4 0 1.9-.2 2-.6.2-.3 0-.8-.4-1-.6-.1-.5-.3.3-.6 1.5-.4.9-1.2-1.2-1.5-1-.1-2.6 0-3.6.3-2.4.8-2.5.3-.4-1.6 1.4-1.2 1.7-1.9 1.4-3.5v-3.4c.3-.8 0-2.2-.5-3.1-.6-1-.7-1.8-.3-2 .8-.4 1.8 0 3.6 1.5 1.3 1.1 3.6 1.8 4.5 1.4.3-.2.9-.2 1.3 0 .4.1 1.2 0 1.8-.4 1.5-1 .4-3.2-1.5-3.4-.9 0-1.4-.3-1.2-.6.3-.3 0-.3-.4 0-.6.5-1.2.6-1.8.3-.4-.2-1.6-.6-2.6-.8-2-.5-2.4-.9-.8-1 .8 0 .8-.3 0-.8-.6-.4-2-.5-3-.2s-1.7.2-1.5-.1c.1-.4-.3-.6-.9-.5-.6 0-1-.2-1-.6.2-.4 0-.6-.4-.4-1.5.8-7.2-5.8-7-8.3 0-.5-.8-1.7-1.8-2.5-1-1-1.6-2-1.4-2.5.4-.8.4-.8.8-.4l.4.7c0 .3 1-.2 2.2-1.2 1.3-.9 2.4-4.3 1.4-4-1 .3-2.5-2.4-1.6-2.8.4-.2 1-.8 1.3-1.4l.6-1 .5.5c.9.9 1 1 2.3 1.2.8.2 2 .9 2.8 1.6 1.4 1.5 3 1.6 3.5.3.2-.4-.6-1-1.7-1.4-1.3-.5-1.9-1-1.4-1.4.4-.4.7-.5.8-.3 0 .1.5 0 .9-.3 1.4-1-8.1-15.2-11-16.2-.8-.3-1.5-1-1.6-1.5-.2-.7-.8-.8-2-.4-1.7.4-2 .1-3.7-2.6-1-1.7-2.1-3.1-2.4-3.1-.3 0-1.2-1.2-2-2.6-.8-1.5-2-2.7-2.5-2.9-.5 0-.7-.4-.3-.7.8-.6-.3-1.7-2-2-.7-.2-1-.4-.6-.6.6-.3-1-3-3-4.7-.8-.8-.8-1.3-.1-1.6.6-.3.7-.6.3-.8-.5-.2-.3-.5.6-1 1-.4 1-.7.4-1-.6-.2-.6-.4 0-.6.6-.1 1.1 0 1.3.3.2.3 1 .4 1.7.3.9-.2 1.7 0 2 .6.3.6.8.8 1.3.4.4-.3.8-.4 1-.2 0 .2.5.2 1 0 .8-.4.3-.8-1.6-1.5-.4-.2-.2-.6.4-1 .8-.7.7-1-1-1.3-1.5-.4-1.7-.6-1-1.2 1.1-1-.3-4.6-1.6-4-.4.3-.7.7-.6 1 .2.6.2.7-.7.4-.8-.3-5.3-8.7-11.5-21.8-.6-1.3-1.7-2.4-2.4-2.5-.7-.2-.9-.4-.4-.7.4-.3.3-1.4-.2-2.5-.4-1.1-.6-2.1-.3-2.3.2 0-.1-1-.8-2.2-.7-1-1-3-.8-4.1.2-1.2-.1-3-.7-4.1-.5-1-1-3.2-1-4.8 0-1.5-.2-3.8-.4-5a19 19 0 0 1-.5-4c0-5.1-1.5-12.6-2.3-11.9-.8.8-1.6 6.4-1.2 9.2.3 2.4 3 17.2 3.4 18.4.3 1 0 3.8-.5 4.2-.3.3-.7-.3-.8-1.3a50 50 0 0 0-7.4-14.2c-.7-.2-.6-.3.5-.7 1.1-.5 1-1-.5-3.3-1-1.5-1.5-3-1-3.1.3-.2.6-.5.5-.8-.2-.2.1-.5.6-.6 1.1-.3 1.4-2.2.5-3.6-.5-.7-.4-1.4.3-2 .9-.7.7-1.6-.8-4.3-1-2-1.7-3.7-1.5-3.9.3-.2 1 .4 1.6 1.4 1.3 2.2 1.4 2.3 2.1 2.1.3 0 .3-.7 0-1.6-.3-.8-.2-2.1.2-3 1-1.8.8-6.2-.5-8.9-.5-1.2-.7-2.6-.3-3.2.4-.5.3-2.4-.3-4-1.6-5-2-8.6-1.3-10.5.8-1.8-.2-4.5-1.4-3.9-.4.2-.9.7-1 1 0 .6-.1.6-.4.3-.2-.3.2-.8.9-1.3.9-.5 1-.7.2-.5-.9.3-1 0-.9-1.6.2-1-.1-2.2-.6-2.5-.5-.4-.7-.8-.3-1 .9-.8-.3-3.2-1.4-2.9-.5.2-.9.4-.8.6 0 .1-.4.5-1.1.9-1.7.8-2 0-.6-1.3 1-.8 1.3-1 2-1 .5 0 .6-.5.3-1.2-.2-.6-.4-1.5-.3-2 0-.4-.5-2-1.2-3.4s-1-2.8-.7-3c.4-.3.4-.6 0-.8-.4-.2-.4-.7.1-1.2s.5-1.2-.1-1.8c-.6-.5-.7-1-.3-1.3.4-.2.6-.5.5-.7-.1-.2-.5-.1-1 .3-1.3 1-1-1 .6-4a25 25 0 0 0 1.6-3.8c.6-2-.5-5.5-1.3-4.5-.8 1.2-2.3 1.8-2.3 1 0-.4.5-1 1.5-1.4 1.6-.8 2-2.4 1-3.4-1-.9-2.7.4-2.4 1.6.2.8-1 2-1.3 1.4 0-.2-.6 0-1.3.3-.6.3-1.5.5-1.8.5-.5-.1-.2-.4.6-.8 1.2-.6 1.2-.9.3-1.6-1.3-1-1.3-2.4 0-2.8.5-.2 1.9-1 3.1-2 2.2-1.6 2.3-1.7 1.2-3.3-.6-1-.7-2.2-.2-2.9.4-.7.2-2.4-.6-4.4-.7-1.7-1-3.6-.6-4.1.4-.8.2-1-1-.7-1.2.2-1.4.3-1.2.6 0 .2-.3.8-.9 1.3-.9.7-1 .7-1.3-.4l-.4-1.6c-.1-.3 1-1.4 2.6-2.4 4.2-3 4.6-5 .5-3-.5.3-.4.1.2-.3.8-.7.6-.7-1-.4-2.5.4-3.5.9-3.9 1.7-.2.4.2.4.9 0 1.4-.7 2.2-.5 2 .5 0 .8-1.2 1.6-1.4.9 0-.3-.6-.2-1.2.1-.6.4-1.7.8-2.4 1-.8.2-1.3.4-1.3.5 0 0-.6.3-1.4.4-1.7.3-4.6 1.7-6.3 3-1.8 1.3-2.7 1.4-1.4 0 1.5-1.4 5.3-3.8 4.6-2.9-.3.5-.2.5.4 0 1.2-.9 0-.8-3.9.4l-2.8.9.3.7c.2.5 0 .7-.4.5-.5-.2-.8 0-2 1.3-.9 1-1.7 1.6-2.3 1.7-.6 0-1.4.4-2 .8-.8.5-2.5.6-4 .2-.3-.1-2.2.5-4.3 1.3-3.2 1.3-3.7 1.3-3.7.6-.1-.5.4-1 1.7-1.8 1.5-.9 1.7-1.1 1-1.4-.6-.2-.4-.5.6-1 2.1-1.1 1.3-1.3-1.4-.3-4.7 1.7-5.5 1-2.1-2 1.6-1.5 3.1-2.6 5.2-3.6a25 25 0 0 0 4.3-2.7c.9-.8 1.5-1.2 2-1.2s2.3-.7 4.2-1.6a95.3 95.3 0 0 1 10-3.7c.1 0 .7.2 1.3.6l1.2.8-6.3 3.1c-9.8 4.9-16.8 9-13.8 8 .6 0 .9 0 .7.2-.2.3.9.2 2.4 0a21 21 0 0 0 6-2.2c4.5-2.3 7-4 6.8-4.3-.1-.2.4-.7 1-1 .8-.4 1.4-.6 1.5-.4 0 .1 1 0 2-.4 1.3-.4 1.8-.7 2-1 .6-2.5 1.2-3.8 1.6-4 .3-.1.8-1.5 1-3 .6-2.5.8-2.9 2-3.1.8-.2 1.7.3 2.3 1.2.9 1.4 1 1.4 2.7.2 1-.8 1.6-1.4 1.4-1.8-.2-.4.2-.8 1.3-1.4 1.9-1 2.3-2.2.8-2.5-.7-.2-.7-.8.1-2a5 5 0 0 0 .5-4.3c-.4-2-.3-2.9.8-3.8 2-1.8 2.4-1.7 2.3.5-.2 2.4.3 3.4 1.5 2.8a4 4 0 0 0 1.3-1.5c.8-1.6 1.8-1.5 2.8.3.5.9 1.3 1.4 2 1.3.5-.2 1 0 .9.6 0 .6-.4 1-1 1-.4 0-.6.2-.4.6.2.3 0 1.6-.2 2.9-.8 3-.6 4.6.4 4.3 1.1-.3 2-2 1.3-2.7-.4-.5.2-4 1-5 .3-.3.4-.8.4-1l-.2-4.2a20 20 0 0 1 .6-6.2c.2-.8.2-2 0-2.9a35 35 0 0 1-.5-3l-.2-1.6-2 1.6c-1 .8-1.9 1.6-1.8 1.7 0 .1-.8.5-1.8.8-2.4.7-2.6.1-.5-2l1.8-1.6 1.2-.8c.6-.5 1.5-1 2-1.2.6-.1.9-.4.8-.7-.2-.3 0-.7.4-1 .3-.4.5-1.4.4-2.2v-7.3c0-1-.2-2.4-.4-3-.5-1.4.3-2.8 1.3-2.7 1 .2 3-2.3 3-3.8 0-1.6-2-1.7-2 0-.2.5-.5 1.3-.9 1.5-.4.3-.3.7.2.9.5.2.5.5-.1.8-.5.3-1 .4-1 .2-.2-.1-.6 0-1 .3-.4.4-.9.3-1 0-.3-.4 0-.8.3-1 .9-.5 1.7-1.8 1-1.7-.2 0-1.3.7-2.3 1.5-2.5 2-3.8 2-5.4.5-.6-.7-1.4-1.2-1.6-1.2a43 43 0 0 0-7.3 8.6A8.5 8.5 0 0 1 40 122a5.4 5.4 0 0 0-2.8 3.4l-.8 2.2-1-1.3-1-1.3-2.8 1.6c-2.1 1.2-3 1.6-3.6 1.5-1-.2-4.6 1.7-6.3 3.1-.7.6-2.6 2-4.4 3l-3.2 1.7 2.2-2 3-2.3c.6-.3 1.6-1.1 2.4-1.9l4-3.8c1.5-1.3 2.7-2.5 2.6-2.6-.1-.2.6-.6 1.5-1 1.9-.7 4.8-3.2 4.5-3.7 0-.2.8-.8 2.5-1.6 2.3-1.2 2.6-1.2 2.6-.4 0 .6.4.6 1.5 0 2-1 2.6-1.8 1.1-1.6-.6 0-1-.1-.7-.4.4-.5.7-.6 1.2-.7.5 0 1.3-.6 2.1-1.8a9 9 0 0 0 1.3-2s.7-.8 1.8-1.7c1-.8 1.7-1.7 1.7-2-.1-.2.3-.3 1-.2.6.1 1.2.7 1.2 1.2 0 1.3 1.7 1.5 3.7.4 2-1 2-.9.3-4.4-1-2.6-2-3-3.5-1.6-.7.6-.6.8.3.7.8-.1.9.1.2.9-1.9 2.2-3.7 1.6-3.8-1.2 0-1 0-1.2 1.6-1.5a17 17 0 0 0 6.4-3.1c2-1.3 2-1.5 1-3.3-.9-1.7-.8-2 .5-3 .8-.4 1.6-1.2 1.7-1.7.2-.6.7-1 1.9-1.5 1.8-.8 5-4 4-4.2-.5 0-.6 0-.6.2.1.2-.3.6-.8.9-.6.2-.8 0-.7-.5 0-.5-.2-.7-.7-.4-.5.2-.8.5-.7.7l-.5.5c-.4.1-1.5.8-2.4 1.5-1.6 1.2-1.9 1.3-2.8 1-.6 0-1.2-.8-1.3-1.6-.1-1-.4-1.2-1-.7-.5.3-.8.9-.6 1.2.4.8 0 1.8-1 2.3-1 .5-2.1-1.7-1.4-2.8a25 25 0 0 1 2.4-2.7c1.4-1.3 2-1.7 2.7-1.8.6 0 1-.2 1.1-.8.3-.9 2.5-2.2 3-1.8.2.1.9 1.2 1.6 2.4.7 1.3 1.6 2 2.4 1.9 1-.2 1-.5.5-1.5-.8-1.7 1-5 3.4-6.2.4-.2 1 .3 1.4 1 .4.8 1 1.3 1.5 1.1 2.2-.6 3.2-1.8 3.3-4 .1-3.7.1-3.8 1.5-4.5 2-1 2.7-.5 1.4 1-.7 1-.9 2-.5 3 .5.8.3 1.8-.4 2.7-1.4 1.6-.6 3.6 1.2 3 1.1-.5 4.2-3.1 3.6-3-.2 0-.4-.2-.5-.4-.1-.3.3-.5 2.2-1.2 2-.7 2.3-.7 2.5.5.2 1.3 1.5 1 1.8-.5l.4-2c.3-1 .4-1 1.2-.8 1.3.4 2.4-.4 2-1.3-.3-.5 0-1.3.4-2 .5-.5.8-1.6.7-2.4l-.2-1.4-2.8 3.2a97.9 97.9 0 0 0-3.5 4.2c-.6 1-.7 1-1.1.2-.3-.4-.9-.6-1.4-.5-.5.2-1.1 0-1.3-.5-.4-.7 0-6 .5-8.4l.2-.9 1.1.4c.7.3 1 1 .8 1.8-.6 2.2.3 6 1.3 5.5 1.5-.8 3.3-4.5 3-6.5-.1-1.3.2-2 1-2.4.8-.4 1-1 .6-1.6-.3-.7 0-1.3.7-1.8.6-.4 1-1 1-1.3-.2-.2.3-1.1 1-2l1.4-1.4.6 1.1c.3.6 1.1 1 1.8 1 1.5-.3 1.4.7-.3 3.5s-1.5 4.7.4 5.2c1.3.3 1.4.6.6 2.3-.6 1-1.5 2.2-2 2.5-.5.2-1.2 1-1.5 1.6-.3 1-.2 1.1.7.7.6-.3 1.5-1 2-1.6.8-.8 1-1 2.1-1 2-.2 2.6-1.3 2.4-4.5l-.2-3.5c.1-.8 0-1.7-.2-4.6-.2-2 0-1.7 2.6 2.1 1.6 2.3 2.7 4.6 2.4 5-.3.5 0 1 .7 1.2 1.1.4 1.2.4 1-.2-.2-.4.1-1.2.7-1.8.5-.6.8-1.5.5-2-.4-.9-.2-1 1.7-1.9 2-.8 2.2-1 1.9-1.6-.2-.3-1-.6-1.6-.6-2.2 0-2-5 .2-7 1-1 1.7-1.9 1.6-2 0-.2.5-.8 1.4-1.4.8-.7 1.4-1.2 1.3-1.3l-.2-.6c0-.5 3.3.2 3.7.8 0 .2.6.2 1.1-.1.5-.3 2-.2 3.2.2 1.3.4 2.2.4 2.1 0-.1-.3.2-.6.9-.8.7-.2.8-.4.3-.5-.8-.1 0-2.7 1-3.2.4-.2.5-.2.3.1-.2.3.2.2.9-.3.7-.4 1.1-1 1-1.1 0-.2.3-.6.7-.8.5-.3.8-.3.6 0-.1.1.1.3.7.3.8 0 1-.1.7-.5-.1-.2.1-.5.5-.7.8-.2.7-.6-.2-3.2-.8-2 .6-2.5 1.7-.5.7 1.3.9 1.3 1.7.3 1.3-1.5 3.3-3.4 3.7-3.5.2 0 0 .7-.5 1.5-1 2-2 8-1.3 8.7.7 1 1.2.5 1.1-1l.1-2c.4-1 1.5-.8 2 .3.4 1 .4 1 1.3-.1.8-1.1.9-1.2 1.3-.8.6.6.9.7 1.9.8 1.3.2 2.4 5.1 1.5 6.8-.8 1.4-.8 1.4-1.9-.5-.6-1-1.4-1.7-1.9-1.5-.4.3-.8.6-.7.8l1 2.5c1 3 .5 5.3-1.7 6.8-1 .6-1.5 1.2-1.3 1.4.8.3.2 1.8-1 2.2-.6.1-.7.3-.2.2.4 0 .3.2-.2.5-.5.2-.7.6-.6.9.2.3.6 0 2-1.4 1-1 1.6-1.9 1.5-2-.1-.3.2-.6.6-.9 1.1-.5 1.5.2.5.8-1 .6.8 1.4 2.8 1.3.9 0 2.6-.6 3.9-1.1 2-.9 2.3-1.2 3-2.7 1.5-3.5 2.2-5 2.5-4.6.5.7 2.3-1.6 2-2.7-.2-.6.1-1.4.6-1.7.5-.4.7-1.7.5-2.8-.7-3.2-.6-4.4.5-6.4.5-1 .7-2.7.5-4-.4-1.8.4-5.1 1.3-5.6l2.4-1 5.7-2.1 3.6-1.5-1.4 2.2c-1.6 2.7-1.4 3.5.3 1.2 1-1.4 1.6-1.8 2.3-1.8.7 0 .8-.3.5-.8-.2-.5 0-1.1.5-1.5.6-.5.8-.4.7.2-.1.5.3 2.3 1 4l1 3.3.8-2a6 6 0 0 1 2.1-2.9c.9-.5 1.4-1.3 1.4-2.1a4 4 0 0 1 1-2.3c.8-1 1-1 1 .1 0 .7-.2 2-.6 2.8-.8 2.1-.3 4 1 3.4.5-.2 1-.7 1-1 .2-.4 1.1-1.2 2.2-1.8 1.4-.8 2-1.5 2.3-2.5.5-1.5.5-1.6 3.3-2.7 1.6-.7 2-.7 1.4-.1-.3.4-.2.8.3 1 1 .3 1 .3.8-.5-.2-.7-.1-.8.4-.5.4.2.4.8 0 1.2-.8.8.2 2 1.9 2.4 1 .3 2-1.7 1.3-2.7-.5-.7-.5-1 .3-.8.7 0 .6-.7-.3-2.3a14 14 0 0 1-1.2-2.8c0-.2-.5-.7-1-1-.8-.3-.8-.6 0-1 .5-.3.8-.2.7.1-.2.4 0 .5.3.2.3-.2 1.3-.2 2.2.2 1.3.5 1.9.4 2.3-.1.7-1 1.3-1 2.4-.2.8.6.8.7 0 .5-1-.2-1-.2-.8.6.3.7.7.7 1.6.1 1-.6 1.1-.6 1 .3 0 1.3 0 1.2.7 1.9.3.3.5-.2.5-1l-.1-1.6.8 1.2c.5.7.5 1.5 0 1.9-.5.4-.3 1.1.8 2.2 1.8 1.8 4.3 2.3 5.6 1 .5-.5.3-.8-1-1.1-2.2-.7-2.2-1.2 0-5.6 2-4 3.6-6 4-5 .2.2-.2 1.2-.9 2.2-1.5 2.2-1.5 2.2 1.3 1.2 2.2-.8 2.4-.8 2.5.5 0 .8.2 1.8.4 2.2.2.4 0 .9-.8 1.3-1.6.8-2 2-.8 2.6.8.4 1.3.3 2.6-.5 1.1-.7 1.5-.8 1.3-.4-.2.4.1.4.6.2 1-.5 1.3 1 .7 3.1-.4 1.3-.5 1.3-1.8-.1-.3-.4-1-.5-1.6-.4-.8.1-1 .5-1.1 1.5 0 .8-.7 2.2-1.6 3.2-1.4 1.6-1.5 2.1-.6 3.8 1.2 2.3 1 3.3-.8 4.3-.9.4-1 .6-.2.3.6-.2 1.3-.2 1.5 0 .2.4.7-.4 1.1-1.5.9-2.5 2.8-3.8 3.7-2.5 1.1 1.7 1.4 1.8 2.6 1.2.7-.4 1.8-.6 2.4-.5h2c1.6-.5 1.8.5.2 1.1-.7.3-1.3.6-1.2.8.1.2-.3.4-.8.6-.5.1-.8.3-.7.4.1 0 .3.3.3.6s0 .4-1 .4c-.8 0-.9.2-.6.5.3.2.6 1 .8 1.5.3.8.1 1-.6 1.1-.7 0-.8.2-.4.8.2.4.1 1-.3 1.5-.3.3-.3.8 0 1 .6.4 1.1.2 2.3-.5 1.3-.8 1.5-.8 1.4.1 0 .6 0 1.3-.2 1.6 0 .2.4.2 1.1-.2.7-.3 1.3-.5 1.4-.3 0 .1-.3.4-.8.5-.5.2-.5.6.1 1.2.9.8.8 1-.7 1.8-1.4.7-1.5.9-.5 1.8.6.6.8 1.2.4 1.4-1.1.6 1.7 3.9 3.1 3.7.9 0 1 0 .1.6-.8.5-.8.6.3.5 1-.2 1-.1.1.2-.8.2-1.1.4-.9.6.8.6.6 1.3-.4 1.5-.6.2-.8.5-.6.7.3.2.6.8.7 1.4.2 1 .2 1-1 .1-1-.7-1.1-.7-.8.2.2.5.2 1.3.1 1.8 0 .6 0 .7.6 0s.7-.8 1-.5c0 .3-.3 1-.8 1.5-.6.8-.5 1.3.3 2 .6.4 1 1.3.9 2-.2.7-.4 2-.4 3.1-.2 1.8 0 2 1.6 1.5a6 6 0 0 0 2.4-1.1c1.3-1.2 3-1.8 3.1-1.2.2.5 0 .6-.4.4-.3-.1-.9 0-1.2.2-.3.3.2.8 1.2 1.2 2.4 1 3.4 2.5 2.8 4.3-.3.8-.3 1.6 0 1.8.6.3 1 0 2-1.9a9.3 9.3 0 0 1 2-2.6c.7-.4 1.6.3 2 1.6 0 .6.5.6 1.8-.1 1.9-1 2.3-.8 1.4.6-.3.4-.2 1.9.4 3 .6 1.3 1 2.8.9 3.4l-.1 1-1.6-.2c-1.2-.2-1.8-.1-2.6.6-1.3 1.1-2.5 1-2.4-.5 0-1.5-2-1-3.9.9-2.4 2.4-4.6 5.9-4.3 6.6.2.4.1 1.1-.3 1.7-.4.5-.3 1.8 0 2.7.5 1 .3 2.6-.4 4-.6 1.3-.9 2.7-.6 3.2.3.5.4 1.7.3 2.5-.2 1.6.6 6.5 1.9 10.7l.6 2.2.7-1.8c.3-1 .8-2 1-2.1.6-.3 1.8 2.6 1.5 3.3-.3.8-1.7 1.3-2 .9-.3-.4-.4-.3-.8.4-.5.9-.5.9-.8.5-.6-.8-1.5 1.4-1 2.5.2.5 0 1.5-.2 2.3-.3.8 0 2.3.7 3.5.6 1.1.8 2.1.4 2.1-.5 0-.8.2-.9.6-.4 1.1-.7 6.2-.4 8.6a46 46 0 0 1-.2 10.1c-.2.3-.1 1.6.2 3 .3 1.2.5 2.6.4 2.8-.2.8.8 4.7 2 7.6.9 2.4 1.5 5.3 1.5 7.2 0 .6 0 1.6.2 2.5v4.8c-.1 2 0 4.3.2 5.3.2 1.1.5 3.5.5 5.3.2 4.4.3 5.2 1.2 8.1a30 30 0 0 1 1.1 5.2c.4 3 1.2 6 2 8.6.3 1 .4 2.4.1 3.2-.2.8.7 4 2.1 7.3 3.7 8.4 4.9 11.7 4.4 12.3-.2.2 0 .5.6.5s1.9 1 3 2.3c5.1 5.9 5.8 6.8 5.5 7.4-.2.3.6 1.7 1.8 3a89.7 89.7 0 0 1 7.7 10.8l1.5 2 3 3.7c1 1.1 2.8 3.5 4 5.3 3.6 4.9 5.4 6.1 8.2 5.7.8-.2 1.4-.1 1.2.1-.1.2 0 .3.5.2.5-.1.6-.9.2-1.7-.3-.8-.9-1.2-1.3-.9-.7.6-2.7-4-2.8-6.6-.1-1-.5-2-4.3-11.6-1-2.3-1.5-4.5-1.3-4.9.3-.3-.1-1.7-1-3-.8-1.5-1-2.3-.4-2.2.6.2 2 2 3.3 4.2 3.2 5.4 4.1 6.6 6 7.2 2 .8 8.9 15 7.6 16-2 1.6.5 9.2 3 9.2 1.3 0 1.6 0 1.4-.4-.2-.5 1.4-1.5 1.6-1 .1 0-.2 1.2-.7 2.5-1 2.5-.2 3.2 1.4 1.3.8-1 .9-1 1.1-.5.2.3-.2 1-.8 1.4-1.5 1-1.1 4.6.4 4.1.7-.2 1.1.3 1.2 1.3.2 1.3.6 1.6 1.7 1.5.8-.2 1.8-.2 2.2-.1 1.4.3-1.5-5.4-3.5-6.8-.7-.5-.7-.7.3-.8 1.3-.3 2.8.9 4.1 3 .4.7 1 1.1 1.2 1 .7-.4 1-.1 2.8 2.4 1 1.3 2 2 2.6 1.8.8-.2.9-.2.1.3-1 .6 1 5.6 2.2 5.4.3 0 .2-1-.3-1.9-1-1.8-1-6.4 0-7.2.2-.3 1.3 1.8 2.4 4.7 2.2 5.5 3 6 4.7 2.6 1.3-2.6 2.4-2.7 2.7-.3.4 2.9 1.6 4.7 3 4.5 1.5-.3 1.5 0 0 .8-1 .6-1.1.8-.4 1 .6 0 1.7 1.3 2.5 2.7 1.6 3 2 3.3 2.5 2 .2-.7.7-.2 1.5 1.3 1.3 2.4 2 2.7 3.5 1 1.2-1.4 2-1.3 2.8.3a4 4 0 0 0 2 1.7c.8.1 1.7.6 2.2 1.2.5.5 1.5.7 2.1.5 2.3-.6 5-2.1 5.2-3 .6-1.4 1.7-1.3 3.3.4 2 2.3 1.8 3.5-1.5 5.5-2.7 1.6-3.3 2.9-1.7 3.2 1.6.3 2 1.9.7 2.6-1.4.7-1.5 1.2-.1.8.5-.2.2.6-.8 1.8-1.3 1.8-1.4 2.2-.3 2.3.9 0 1.1.6.8 1.7-.2 1.2 0 1.8 1 2.1 4.2 1.5 4.3 1.7 2.2 3.6-1.3 1.3-1.8 2.1-1.6 2.7.2.5.7.7 1 .5a5 5 0 0 1 2 0c1.8.1 3.3-.4 2.9-1.2-.2-.2.1-.7.7-1 .5-.2-.2-.1-1.6.2-3 .7-2.7 0 .5-1.3 2.2-.9 2.2-1 1.3-1.6-.8-.5-.8-.8.2-1.1.9-.3 1.6-1 2.2-2 .8-1.4 3.6-4.3 3.8-4 .4.8-.4 3.9-1 4.4-.7.4-.6.6.2.6 1 0 1.2 0 1.5-.7.2-.5.9-1 2.2-1.5 1-.4 3-1.2 4.2-1.9 2.1-1 2.4-1.1 2.8-.3.5 1 .2 1.6-2 3.2-.9.6-1.5 1.2-1.4 1.3 0 .1-.3.6-.8 1.1-.5.5-.7 1-.4.9.3 0-.6.8-2 1.8-1.5 1-1.8 1.4-.8.8 1.4-.8 1.7-.9 1.6-.4-.1.5-.7 1-2.7 1.8s-2.5 1.1-2.3 1.5c.1.2.9.3 1.7.1 1-.2 1.3 0 1 .8-.4.6-.2 1 .1 1 .5 0 .2.2-.7.6-1 .3-1.7 1-2.3 2-1.2 1.7-1.2 1.7.7.8a7 7 0 0 0 2.4-2.1c1-1.5 3.1-4 3.2-3.8l2.1-1.4c2-1.6 2-1.6 1.9-.8-.2.6.2.6 1 .2.6-.3 1.3-.4 1.4-.1.3.5-1.4 2-2.4 2.3-.3 0-.3-.3.2-.7 1.2-1.4-.6-.2-2.8 1.7-2 1.7-2 1.9-.5 2 1.5 0 1.5.2-.1 1.5-2.4 2-2 2.1 1 .6 1.7-.9 2.4-1.4 2.3-1.7-.1-.2.2-.5.7-.7.5-.2 1.5-1.4 2.1-2.7a6.9 6.9 0 0 1 3-3.4c1-.5 1.8-1 1.7-1.2-.1-.2 0-.4.4-.4.3 0 .2.6-.3 1.5s-.7 1.6-.5 1.5c.6 0 3-1.7 2.9-2a29 29 0 0 1 6.1-5.8c.4 0 .1.5-.7 1.2-3.2 3-5.1 5.2-4.9 5.6.2.4.6.3 1.5-.2 1.2-.9 1.7-.6 2.3 1.1.3 1 1.5.5 3.7-1.6 1-1 2-1.8 2.4-2 .3-.2.3 0-.2.5-.5.4-.7 1.1-.4 1.6.2.4 0 1-.3 1.3-.4.3-.5.9-.3 1.2.6.9 0 1.7-2 2.6-1 .5-1.6 1.3-2 2.2-.5 2-.5 2 1.2 1.1 2.1-1 5.6-4.7 4.8-5.1-.5-.3-.2-.7 1.3-1.5 2-1.2 3.8-1.6 4.1-1 .6 1-3.3 6.3-8.3 11.2-.7.6-1 1.2-.7 1a2 2 0 0 0 1-.6 54.2 54.2 0 0 1 6.6-5 7 7 0 0 1 1.7-1.4c.4-.3 1.1-1 1.5-1.6.7-1.3 2.3-2 2.8-1 .2.3 1 .5 1.9.4 1-.2 1.3 0 .7.4Zm-19.7 11.5c-1.5 1-2.6 3-1.8 3.1.4.1 1.3-.3 3.3-1.6 3.4-2.1 4.6-4.1 1.7-3-1 .3-2.4 1-3.2 1.5Zm1 1.5a3 3 0 0 1-1.5.5c-.3 0-.2-.2.2-.4.5-.3 1.2-.5 1.5-.5.4 0 .3.2-.2.4Zm-1.9-13.7c-.3.3-1.7.9-3 1.3-2 .7-2.4.7-2.3 0 .1-.6-.2-.8-.7-.6-1 .5-1.6 1.8-1 2.1.3.1 0 .4-.6.7a3 3 0 0 0-1.3 1.2c-.1.4-.6.9-1 1.1-.4.2-.8.9-.8 1.5a5 5 0 0 1-1.5 2.4c-1.6 1.6-1.6 1.8 0 1 .9-.4 1.2-.4 1 0-.2.5.1.5 1.3-.2.8-.5 1.4-1 1.4-1.3-.1-.2.3-.6.8-.8.6-.2 1.3-1.1 1.5-2 .3-.8.8-1.6 1.2-1.8.4-.2 1.4-1 2.3-1.9l2.2-1.8c1.3-.8 1.5-.9 1.3-1.1 0-.2-.4 0-.8.2Zm-3.9-1c-.4.2-.7.5-.7.7.1.1.5 0 1-.3l.7-.7s-.5 0-1 .3ZM218.1 13.7c-.8.6-.4 1.5.6 1.3.4-.1.5-.6.4-1-.2-.4-.6-.5-1-.3Zm195 372.7c.1-.5 0-.5-.7 0-1.3 1-.7 1.5 1 .6.8-.4 1-.6.4-.4-.6.3-1 .1-.8-.2Zm-20-39c-1 .2-3.5 2.2-3.3 2.6.2.3.4.2 1.3-.6.8-.7 1.1-.8 1.3-.6 0 .2.5 0 .9-.3.8-.6.7-1.3-.2-1Zm14 32.2c-.3.2.3.1 1.1-.2 1.3-.5 1.4-.6.4-.4a4 4 0 0 0-1.6.6Zm7.6 13.3c-.4.3-.5.6-.1.6 1 .2 1.4 0 1-.7-.1-.3-.5-.3-1 0Zm-184.4-347c-.2.2 0 .4.3.4.3-.1.4-.4.2-.6-.1-.3-.4-.2-.5.1Zm179.4 345.3c-.2.2.3 0 1.2-.4 1-.5 1.2-.7.5-.4a6 6 0 0 0-1.7.8ZM239 66.4c-.4 1-1 2-1.2 2.1-.3.2-.4.6-.4.8.2.8 0 1-.8 1.2-.5.2-.6.4-.2.4.3.1.2.8-.3 1.7-1.3 1.9-.5 1.7 2.2-.6 2.3-2 2.8-3.6 1.8-6.2l-.4-1.2-.7 1.8Zm174.5 332.3c-1.6.5-2 .7-2.5 1.5-.6.9.9 1.5 2 .9 3.1-1.6 3.4-3.2.5-2.4ZM216.7 24c-.4 1 .6 3.3 1 2.7.3-.4.3-1.2-.1-1.9s-.8-1-.9-.8Zm-5.3-7.4c-.2.2.1.2.8.1 1-.2 1-.2.4-.4-.4 0-1 0-1.2.3ZM369.6 320c-.9.5-2 1.3-2.5 1.8a9 9 0 0 1-1.9 1.3c-1.5.8-1.3.9 1 .5 1.8-.4 1.8-.4 3.7-2 2.2-2.1 2.1-2.9-.3-1.6Zm39.5 75c0-.4-.6-.5-1-.4-.6.2-.8.6-.6 1 .5 1 1.6 1.2 2.7.6.5-.2.5-.5 0-.5-.5-.1-1-.4-1-.8Zm-34-61.7c-.6.5-1.1 1-1 1.1 0 .2.6 0 1.7-.9 1.8-1.3 1.3-1.4-.7-.2ZM232 59.1c-.2.3 0 .5.3.5s.4-.3.2-.6c-.1-.2-.4-.2-.5.1Zm-23.6-44.5c0 .4.2 1 .6 1.1.3.2.4-.1 0-.7-.3-.6-.6-.8-.6-.4ZM406.5 402l-.5-.7-.4 1.2c-.3.7-.7 1.4-1 1.6l-1.9 1.4c-1.2 1-1.2 1 .1 1 .9 0 1.8-.3 2-.6a4 4 0 0 1 2-.6c1.4-.1 1.5-.2 1.9-1.1.2-.6 0-1-.6-1.2-.6-.1-1.3-.5-1.6-1Zm-4.5-9.7c-1.2.1-1.6.3-2.6 1.1-1.4 1.3-.8 2.3 1.2 2 2.4-.3 3-.8 2.9-1.9v-1.1c0-.1-.7-.2-1.5 0ZM199 9c-.2.3.2.4.8.3.7-.1.7-.2.1-.5-.4-.2-.9 0-1 .2Zm153.3 291.3c-1.4.7-2 2-1 2.2 1.6.2 3.2-1 2.6-2.1-.2-.5-.8-.5-1.6-.1Zm50.2 96.3c-.7.6-.6.7.3.6.9-.2 1-.4.8-.8-.2-.5-.5-.5-1.1.2ZM215 41.8c-.5-1-1-.6-1 1 0 .7.4 1 .8.6 1-.7.7 1-.2 2-.3.3-.5 1-.3 1.5l.4 1-1-.6-1.2-.5.4.8c.2.6.8.7 1.7.4.7-.3 1.2-.3 1 0 0 .4.2.4.6 0 .4-.2.5-1 .3-1.4a5 5 0 0 1-.3-2.3c.1-.8 0-1.4-.3-1.5-.3-.1-.7-.6-1-1Zm148.7 283c-.5.3-.8.7-.6.9.2.4.3.3.8-.4.8-1 .8-1-.2-.5Zm-10.3-17.3c-.5.1-1 .4-1 .5.2 2.1.7 2.4 2.2 1 .7-.7-.2-1.8-1.2-1.5Zm4 12.5c-.8.3-1.3.6-1.2.7 0 .2.6 0 1.3-.3l1.3-.8-1.4.4Zm34.8 66.7c-1.4 0-1.6.8-.6 2 1.2 1.5 3 .8 2.2-.8-.4-.7-1-1.2-1.6-1.2Zm-.3 3.6c-.9.4-1 .8-.3 2.2.2.6.6.7 1.3.2 1.2-.8.2-3-1-2.4Zm-45.4-85.8c-.5.2-.8.6-.7.8.1.2.6.2 1 0 .5-.3.8-.6.7-.9 0-.2-.5-.1-1 .1ZM195.3 18c-.2.3 0 .6.3.7.3 0 .5-.2.3-.6-.2-.3-.5-.3-.6 0Zm188.4 360c-.4.2-.7.4-.9.7 0 .3-.7.8-1.4 1.1-2.4 1.3-.4 1.3 2.7 0 2-.7 2-.8 1.2-1.3a3 3 0 0 0-1.6-.4ZM190.9 15.4l-.4 1.3c-.1.7 0 .8.5.2.6-.7.5-2.1 0-1.5Zm200.3 385.5h-1.5l-1.4 1.4c-1.1 1.1-1.1 1.4 0 1.7 1.5.3 4.3 0 4-.6l1.2-.9c1.5-.7.1-1.7-2.3-1.6Zm6.1 10c-.4.2-.7.6-.6.7l1-.2c.4-.2.7-.6.6-.8-.1-.2-.5-.1-1 .2Zm-8.5-4.8c-.8 0-1.6-.3-1.7-.5-.4-.8-2 .2-2.8 1.7-1 2-1 2 1 .9 2-1 4.2-.9 3.1.1-1 1-.5 1.1.9.4.7-.3 1.3-.5 1.4-.3.1.2.7.3 1.2.1 1.3-.4-1.1-2.3-3.1-2.4Zm-5.8-6.3a8.3 8.3 0 0 0-2.8 0c-.2 0-.2.2.2.2s.3.3-.1.8c-.6.6-.4.8 1 1 .9 0 2.1-.1 2.7-.3.7-.2.8-.3.3-.3-.4 0-.3-.2.2-.5 1.1-.5 1.1-.6-1.5-1ZM186.9 26.4c-.2.3 0 .5.3.6.3 0 .4-.2.3-.5-.2-.4-.5-.4-.6-.1Zm-1.8-.1c-.3.2-.8 0-1.2-.6-.6-.9-.7-.9-1 0l-.4.9-.4-.6c-.3-.3-.6-.3-.8 0-.1.3.6.8 1.6 1 1 .2 2.2.7 2.6 1.1 1 1.2 1.6.4.9-1-.4-.7-1-1-1.3-.8ZM384.3 405c-1 .3-1.1.5-.7.6.7.1 2.3-.5 2-.9 0-.1-.6 0-1.4.3ZM187 34c-2 .3-2.5.6-2 1.7.4.6 1 .8 1.9.5 2.2-.8 2.3-2.3.1-2.1Zm-2.5-4c-.1.3 0 .5.4.4.3 0 .4-.3.2-.5-.2-.3-.4-.3-.6 0Zm-2.2-1.5c-.4.3-.4 1.1 0 1.8l.9 1.2v-1.4c0-2.2 0-2.2-.9-1.6Zm214.8 408.8c-2 1-2 1.7 0 1 1.5-.5 1.7-.6 1.5-1-.2-.4-.8-.3-1.5 0ZM179.2 24.1c0 .3.1.7.4.7.4 0 .4-.2.2-.6-.2-.4-.5-.5-.6-.1Zm127.3 256.7c-.1.3 0 .5.3.6.4 0 .5-.2.3-.5-.2-.4-.5-.4-.6-.1Zm-17-30.3c-.6.2-1.2.7-1.3 1.2-.3 1.2 1.3 5.3 2 5 .8-.2 1.1.8.5 1.4-.6.6.6.8 1.6.3.4-.2.2-1.4-.5-2.7-1.6-3.1-1.6-3.1-.8-3.8 1-.7-.3-2-1.6-1.4Zm95.4 189.8c-.9.2-1.7.2-1.9-.1-.4-.8-1.6-.9-2.9-.2-.6.3-1.3.4-1.4.2-.2-.4-.4-.4-1.2.6-.9 1-1 1.1-1.8 1-.4-.1-1 0-1.4.2-1.3.6-1.3 1.9 0 1.8 1-.1.9 0-.7.3l-2.2.5.8.6c.4.3 1.5.6 2.5.5 1 0 1.7.3 1.6.6 0 .4.2.6.5.4.4-.2 1-.3 1.4-.2.4.2.4-.1 0-.6-.4-.4-.4-.9 0-1l1.7-1.5c1-1 1.1-1 1-.5-.4.9 1.3 1.2 4.4.6l2.8-.6c.1 0-.2-.8-.7-1.6-.7-1-1.4-1.3-2.5-1Zm-2.5 2c-.3 0-.5-.2-.3-.5.1-.3.4-.4.6-.1.1.2 0 .5-.3.5Zm-6.5.5c-.5.2-1.1.4-1.5.4-.3 0 0-.2.8-.5 1.5-.6 1.9-.6.7 0Zm.7 2.4a3 3 0 0 1-1 .2c-.3 0-.2-.2.3-.4.5-.3 1-.4 1-.2 0 .1 0 .3-.3.4Zm-85-181.4-.6.4c.5 1 .5 1 1.2.2.6-.8.4-1.1-.6-.6Zm-116-219.6c-.8 0-.9 0-.6.7.3.5.7.7 1.2.3.9-.7.8-.8-.6-1Zm-13-14.2c-1 1.9-.5 4 1.2 4 1 0 1 0 1.3-2.4a5 5 0 0 0-.6-2l-.7-1.4-1.1 1.8Zm222.8 420.9c-.4.2-.7.6-.6.8.1.2.6 0 1-.2.4-.3.7-.7.6-.8 0-.2-.5 0-1 .2ZM173.1 48.2c-.2 0-.4.5-.4 1 0 .4.2.6.5.3.7-.5.5-1.6-.1-1.3Zm218 419.3c-.4.5-.6 1-.4 1.2.1.3.2.3.8-.4.3-.4.5-1 .4-1.2-.2-.3-.3-.3-.8.4Zm-6.4-1.1c-.8.4-.8 1.3 0 1 .5 0 .7-.4.6-.7-.2-.3-.4-.4-.6-.3Zm-7.3-13.3c-1.2-.5-3 1-2.5 2 .4.9 2.1.6 3-.5.7-.8.6-1.1-.5-1.5Zm-214-402.3c-.1.3 0 .5.3.4.4 0 .5-.3.3-.5-.2-.3-.4-.3-.6 0Zm-1.6-1c-.6.3-2 3-1.5 2.9.8-.2 2.3-2 2-2.6-.2-.2-.4-.4-.5-.3Zm211.7 415.4a3 3 0 0 1-1.4 1c-1.7.5-.4 2 1.5 1.6 1.2-.2 1.4-.4 1.5-1.3.1-.6.5-1.3.8-1.6.4-.3 0-.5-.6-.4-1 0-1.4.1-1.8.7Zm.4-3c-1.7.8-1.4 2 .5 1.8l2-.3-.9-1c-.4-.5-1.2-.7-1.6-.5ZM154.4 51.8c-1.1 1.9-1.8 2.6-3 3-2.3 1-3 2-3 4.2-.1 1.7.2 2 1.4 2.1h1.6l-.3-.7c-.2-.3 0-.8.4-1 .5-.3.6-.5.2-.6-.4 0 .2-.6 2-1.6 1.3-.8 2.6-1.7 2.7-2a26 26 0 0 0-.5-5.5c0-.1-.7.8-1.5 2.1Zm215.5 409-.9 1.3-.3-.7c-.3-.3-.1-.8.2-1.1.4-.3.7-.9.8-1.3 0-.5-.2-.7-.5-.4-.9.6-3 0-4.3-1-.7-.7-.8-1.4-.3-1.7.4-.4.7-.8.6-1-.1-.1-.4.1-.8.6-.5.6-.7.6-1 .2-.2-.4.1-.7.8-.9.6-.2.8-.3.3-.3-.4 0-2 .7-4.3 2-2.8 1.6-3.7 2-4.3 1.8-.6 0 1.3-1.8 3-2.5 2.6-1.2 4-3.1 1.8-2.5l-4.5.8a16 16 0 0 0-4.3.9c-.5.2-1 0-1-.3-.1-.9-2.9-.5-3.2.4-1 3.3-.2 5.8 1.8 5.3.5-.1 1.2.4 1.7 1.2.8 1.2 1.3 1.3 4.4.7 2.2-.4 4-1 5.3-1.7 1.2-.6 2-.9 2.4-.7.4.2.1.4-.9.8s-1.3.7-1 1.1c.3.7 2.5 0 3-1 0-.3.3-.4.5-.2.2.3.6.3 1 0 .4-.1 1.3.3 2 1s1.8 1.2 2.5 1c.9-.1 1-.3.3-.6-.5-.2-.6-.6-.2-1 .4-.3.7-.7.5-1-.1-.2-.4 0-1 .9Zm-5.9 2c-.8.1-1 .2-.7.7.1.3.7.4 1.2.3 1.2-.4.9-1-.5-1Zm-207.6-393c0 .4.1.8.4.8.4 0 .4-.2.2-.6-.2-.4-.5-.5-.6-.1Zm-2.7-1.2c-1.9 2.3-1.9 6 0 5 2-1 2.5-2.6 1.2-5-.4-.7-.6-.7-1.2 0ZM140.2 43l-1-.5-1.5 1.5c-1.4 1.4-1.4 1.7 0 2.7.8.7 1.3 1.4 1.2 1.6-.3.3 1.6-.2 2.8-.8.3-.1.1-1.7-.3-3.2-.2-.4-.7-1-1.2-1.3Zm218.2 421.3-.7.7c.1.2.5 0 1-.2s.8-.5.7-.6c0-.2-.5 0-1 .1Zm-.2 4.6c-.9.4-1.2.9-.9 1.4.2.4.8.5 1.5.2.7-.4.6-.2-.1.3s-.8.7-.3.5c1.6-.8 2-1.4 1.5-2.2-.3-.6-.9-.7-1.7-.2Zm-2.5-1.6c-.4.2-.5.4 0 .5h1c.1-.1.2-.4 0-.6 0-.2-.5-.2-1 0Zm1.6 5.1c-1.6 0-4.2 1.4-4.4 2.5-.2.5.1.9.5.7 1.8-.4 4.4-.2 3.7.3-1.2 1 0 2.4 1.3 1.7.8-.4 1-.7.5-.9-.4-.1-.4-.6 0-1.1.8-1.2-.1-3.1-1.6-3.2Zm-4.3-6.9c-.3 0-1 .4-1.8.8-1 .4-2 .5-2.7.2-.7-.2-1.6-.4-2-.3h-1.3c-.5-.3-.6-.2-.4.4.4 1 8.5 1.5 9.8.4.6-.4-.7-1.6-1.6-1.5Zm-211.8-400c-1 .5-1.3 1-1 1.5.5.9 2.4.2 2.5-.9.1-1.4 0-1.5-1.5-.7Zm-4.6-8c-.8.6-.3 1.6.8 1.8.7.1.9 0 1-.7.2-1.1-.9-1.8-1.8-1.1Zm211.3 404c-1.4-.3-2.2.3-2.2 1.6 0 1.9.2 2 2.2 1.4 1.8-.5 2-.6 1.2-.8-.5-.1-.5-.4-.1-.6.8-.4.2-1.2-1.1-1.6ZM136.9 64c-.4.4-.5 1-.4 1.1.1.4.2.3.8-.4.3-.4.5-1 .4-1.1-.2-.4-.3-.3-.8.4Zm212.7 405.4a2 2 0 0 0-1.5 0c-1.3.7-.2 1.6 1.2 1.1 1.5-.5 1.5-.7.3-1.1Zm-8.2-5c-2 1-1.7 1.8.5 1.5 2.3-.3 2.7-.7 1.7-1.6-.7-.5-1.2-.5-2.2 0ZM123.7 50.5c-1 1-1.3 6-.3 5.8.5 0 .7-.5.5-1-.3-.5-.3-1.8 0-3l.3-2.2-.5.4Zm-3.6-5c-.6-.4-1.2-.6-1.3-.5-.1.1 0 1 .1 2.2.4 1.8.4 1.8 2 .9 1.4-.8 1.6-1.2 1-1.5a45 45 0 0 1-1.8-1.1Zm225 431.2c-1.7 1.1-1.2 1.3.8.4 1-.6 1.4-1 1-1-.4 0-1.2.2-1.8.6ZM116.4 44.3c-.7.3-1.2.8-1.1 1 .1.2-.1 1.1-.5 2a9 9 0 0 0-.6 3v1.2l1.2-2a8 8 0 0 0 1.1-3c0-.7.4-1.6.6-2 .7-1 .7-1-.7-.2ZM335.3 465c-.5.2-.5.4-.1.5h1c.2-.1.2-.4.1-.6-.1-.2-.6-.2-1 0ZM123.6 67c-1 0-1 .1-.2 1.6l1-.2c1.1-.4.6-1.5-.8-1.4Zm214.5 414.5c-.6.5-1 1-.7.9.7-.1 2.1-1.3 2-1.6-.1-.2-.6.1-1.3.7ZM121.6 71.4c-.2.5-.3 1-.1 1.3.2.4.3.3.6-.4.5-1.3.1-2-.5-1ZM329.3 474c-.4.3-1 .2-1.1-.1-.2-.4-.8-.5-1.3-.4-1 .3-1 .8.2 1.2.8.3 3.4-.4 3.2-.8 0-.2-.5 0-1 .1ZM114.8 78c-.8 1.8-.8 2-.2 2.6.8.7 2-2.1 1.5-3.3l-.5-1-.8 1.7Zm206.8 391.6c-.5.1-.8.5-.6.8.1.2.6.3 1 0 .5-.2.8-.5.7-.7 0-.2-.6-.3-1-.1ZM114.4 93.5c-.2 0 0 .4.2.8.3.4.7.5.7.2.1-.4.6-.8 1.3-1 .6-.2.4-.2-.4-.2l-1.8.2Zm.6-3c-.9.7-.3 2.5.6 1.9.4-.3.6-1 .3-1.5s-.7-.7-1-.5Zm-.6 7.2c0 .4-.3 1-.6 1.3-.6.5-.2 2.5.6 3.5.7.8 2.2-.3 1.7-1.2-.3-.5-.2-1 .1-1.2.4-.2.1-1-.5-1.7-.7-.8-1.2-1-1.3-.7ZM93.7 60.2c-.7.6-1 1.1-.6 1.2.4 0 .8-.3 1.2-1 .7-1.4.7-1.5-.6-.2ZM109.5 95c-.4.2-.6.5-.3.7.8.6 1.5.3 1.3-.5 0-.3-.5-.5-1-.2Zm-4.5-7c-.5 1-1 2.1-1.1 2.7 0 .8.2.8 1.6.2 1.3-.7 1.6-1 1.1-1.1-.3-.2-.5-.8-.4-1.5.4-1.9 0-2-1.2-.3Zm-7.6-13.3c-1 1-1.6 2-1.6 2 0 .2-.5.9-1.2 1.6-1.6 1.6-2.5 3.7-2 4.7.3.5.2 1.7-.1 2.7-.7 1.9 1 6.3 2.2 6.3.5 0 1.4-.9 2.4-2.2 1.4-1.8 1.8-2.2 2.2-1.9 1.1.7 2.2 0 2.6-1.3.5-1.8.3-2.3-1.2-2.4-.7 0-1-.5-.8-1.4.5-1.7.3-3.5-.6-6.5-.4-1.4-.6-2.6-.4-2.8.2-.1.3-.3.3-.4 0-.1-.9.6-1.8 1.6Zm9.6 20c-1 .2-1.4.5-2.3 2-1.1 1.9-.7 5.4.5 3.6.4-.6 1-1.2 1.4-1.4.4-.2.6-.6.4-.8-.1-.3.1-.7.6-1 .4-.2.7-.7.7-1.2v-1.1c0-.2-.5-.2-1.3 0ZM298.6 470c-1.1.3-1.2.4-.4.8 1.5.7 2 .8 2.6.2 1-.7-.5-1.4-2.2-1ZM101.2 103.7c-.5.1-1.4.7-1.9 1.3-1.4 1.6-1 1.6 1.2.1 2-1.4 2.3-1.9.7-1.4Zm-13-16.9c-1 .5-.6 2.9.5 2.9.5 0 .9 0 1-.2v-1c0-.6 0-1.1.2-1.2.4-.4-1.1-.8-1.8-.5Zm220.2 419.5c-.2.1-.3.4-.2.6.1.2.6.2 1 0 .5-.3.5-.5.2-.6a2 2 0 0 0-1 0ZM84.5 84c-.3.2-1.3 1.1-2.3 2.2l-2 2-.7-1.3-.8-1.4-.7 1.4c-.5.8-1.4 1.7-2.1 2-1.8 1-1.3 1.6.8 1 2.4-.7 2 .1-2.4 4-2.4 2.3-3.9 3.4-4.4 3.4-1.2 0-1.4.4-1.8 3.3-.5 3.5.4 5 2.6 4.5 1.5-.4 1.6-.3.4 1.3A15 15 0 0 1 69 109c-1.1 1-1 1 2.8 1.3 1 0-1.4 2-3 2.5-.5.2-.8.7-.6 1.2a23 23 0 0 1 1 4.6c.2 1 .7 1.7 1.1 1.8 4.2.5 4.6 2 1.1 4.7-1.4 1-1.7 1.6-1.2 2.5.5.8.3 1.4-.7 2.2-1 .8-1 1.5-.5 2.8.4 1 .6 2 .5 2.4-1.1 2.3-1.6 4-1.2 4.1 3.1.7 3 .8 4-.3a9 9 0 0 0 1.3-2.8c.2-1 .9-2 1.4-2.5 1.4-1 2.9-3.5 2.5-4.2-.1-.4-.9-.5-1.7-.3-.7.1-1.2 0-1-.3.2-.5.5-.7 1.5-1 1.4-.2 1.5-.8.5-2-.4-.4-.2-.6 1.4-1.3 2-.7 2-.7.9-1.4-.7-.3-1.2-.7-1.2-.9 0-.2-.6-2-1.4-3.8-1-2.7-1.2-3.8-.4-4.4.7-.5 1-1.7.9-2.8-.3-1.8-.4-1.8-1.3-.8-1 1-1 1-1.8.8-1.3-.3-.7-1.8 1.3-2.8 1.3-.7 1.6-.8 1.5 0-.2.9 1.7.3 3-.9a8 8 0 0 1 3.1-1.5c3.1-1.1 3-1 3-2.2 0-2.8-.2-3.6-.9-3.2-.4.2-1.2 1.2-1.7 2.3-.9 2-1 2-1.7 1.5-.8-.5-1-.5-2.1.7-.7.6-1 1.1-.7 1.1.3 0 .3.2-.2.4-1.4.7-1.2-2.3.2-3.7.7-.8 1.2-1.4 1-1.5-.2 0 0-.9.5-2 .4-1 .8-2.2.8-2.8l.1-2.2c.2-.9 0-.9-1 0-1 1-1.3 1-1.4.8-.3-.5.6-1.4 2-2.2.9-.4 1.3-1 1.3-1.8-.1-1.4 1.1-4 2.1-4.4.4-.2.7-.2.8 0 0 0 .5 0 1-.3.5-.2.6-.9 0-1.6-.4-.6-1-1-1.3-.9Zm-7.3 16.9c-1.9 2.3-3.1 2.8-1.7.6a8 8 0 0 1 2-2.3c1.3-.6 1.2-.2-.3 1.7Zm8.3-11.5c-.1.3 0 .6.3.6.4.1.5-.1.3-.5-.2-.3-.4-.4-.6 0Zm4 10.2c-.5.2-.6.4-.2.4.8.2 1.4 0 1.2-.4h-1ZM77.7 79.2a4 4 0 0 0-1.2.9c-.7 1-2.8 1.7-3.6 1.3-.7-.3-1.1-.2-2 .5-.5.5-.8 1.1-.7 1.3.1.3-.2.8-.6 1.2-1 1 1.5 1.5 3.2.7.6-.3 1.9-1.4 2.9-2.5l2.4-2.5c.9-.9.6-1.4-.4-1ZM306 512.7a6 6 0 0 0-2 1.4c-1.3 1.2 0 1.2 2-.1 1.4-.9 1.4-1.7 0-1.3Zm-5.8-9.8c-.8.1-1.5.1-1.6 0 0-.2-.6-.2-1 0-.5.3-.8.6-.7.8.1.2-.9 1-2.2 1.8-3 1.8-3 2.6.3 1.7 3-.8 4-1.6 3.5-2.6-.3-.7-.2-.8.7-.8 1.1 0 2.8-.7 2.6-1-.1-.2-.8-.1-1.6 0Zm-2.6-3.1c.4-.6-2.4.8-3.8 1.9-1 .7-.8.8.7.7 1 0 1.8.1 2 .3.3.7 1.8-.4 2-1.4l.2-1.3c0-.2-.3-.2-.7 0-.4.1-.6 0-.4-.2Zm-1.5-3c-.4.1-1.1.7-1.7 1.2-.8.8-.7.9.8.7 1-.2 2-.3 2.5-.2.3 0 .3-.4-.1-1-.5-.6-1.1-1-1.5-.8Zm-3.2-5c-.5.2-1.2 0-1.6-.3-.9-.8-2.6 0-2.6 1 0 .6.3.8.6.5.4-.2.7-.3.8-.2 0 .1-.2.5-.6.8-.5.4-.4.6.2.7.5 0 1.6.5 2.3 1.1.8.6 1.7 1 2 .8 1.4-.7.3-4.6-1.1-4.3Zm-9-5c-1.6-.3-3 1.7-2 2.8.2.3.5.2 1.4-.6.7-.6 1.1-.8 1.2-.7.1.2-.2.6-.6.9-1 .8-.3 1.9.8 1.3.6-.3.7-.6.3-.7-.4-.2-.4-.4.1-.6 1-.3 0-2.2-1.3-2.4Zm5.7 13c-.6.2-.7.8-.3 1.4.5.9.7.9 1 0 .5-1.3.3-1.6-.7-1.3ZM63.6 88.4c-2.3 1-4.3 2.7-3.9 3.4.3.6 1.8-.1 4.7-2.1 2.5-1.8 2-2.6-.8-1.3Zm15.2 36.3c-.1.1-.3.8-.3 1.4v1.1l.6-1.4c.7-1.3.5-1.9-.3-1.1Zm-23.5-41c-.5.7-.4.9.4.7.8-.1 1-.3.7-.9-.4-.6-.5-.6-1.1.2Zm7.8 18.6-.7.7c.1.2.5 0 1-.3.4-.3.7-.6.6-.7l-.9.3ZM60.2 99c-.5-.8-1.8 2.3-1.4 3.2.3.6.3 1.5 0 2.1-.6 1.4.6 1.5 1.8 0 .5-.5.7-1.4.5-2-.3-.6-.3-1.4 0-1.9.2-.5.2-1-.1-1-.3 0-.7-.3-.8-.4Zm2 13.6c-.9 1 .3 3.3 1.4 2.7.5-.2.5-1 0-2-.6-1-1-1.3-1.4-.7Zm197 377.5a2 2 0 0 0-1.5.4c-1 .9-.2 1.7 1.3 1.2 1.4-.5 1.5-1.3.1-1.6Zm-185-348c-.6.5-.5.7.4.5 1-.2 1.1-.3.9-.8-.3-.5-.5-.4-1.2.2Zm-12.8-20.8-.7.7s.5 0 1-.3c.4-.3.7-.6.6-.7 0-.2-.5 0-.9.3ZM75 150.8c-.3.4-.5 1-.4 1.1.2.4.3.3.8-.4.4-.4.6-1 .4-1.1-.1-.4-.2-.3-.8.4Zm-4.2 9c-1.3.7-1.8 1.5-2.2 3.5-.5 2.8-.2 3.8 1.1 3.4 1-.3 1-.2 0 .7-1.1 1-1.4 4.7-.3 4.1.9-.4 2.6-2.1 2.5-2.4l1.6-2c1.5-1.5 1.6-1.7.3-1.4-.7.2-1.2.2-1 0 .1-.1 0-1-.1-2a9.1 9.1 0 0 1-.2-3.2c.3-1.3 0-1.5-1.7-.7Zm172.6 338.9c-.1.2 0 .5.4.6.3 0 .4-.2.2-.5-.2-.4-.4-.4-.6-.1Zm-174-315.9c-.8 1-.6 1.4.4.6.4-.3.6-.7.5-1-.2-.3-.3-.2-.9.4Zm-34.9-62-1.3.6c-.8.4-1.1.9-1 1.2.2.4 0 1-.5 1.3-.6.5-.8.5-.6 0 .2-.4 0-.5-.5-.2-1.7.8 0 1 1.8.2 2-.9 3.7-2.6 2.8-2.8l-.7-.2Zm33.6 68.5c-.8 1.5-.9 2-.4 2.7.3.3.6.2 1.5-.5.7-.7.9-1.4.4-2.2-.8-1.3-.8-1.3-1.5 0ZM56.3 169a6 6 0 0 0-1.6 1c-.6.8 1 .8 2.2 0 1.5-1 1-1.8-.6-1Zm-2.2 3c-.3-.6-1.6 0-2.3.8a4 4 0 0 1-1.6 1c-1.3.5-1.9 1.8-.8 2 .3 0 1-.1 1.7-.4 1.3-.7 1.9-1.8 1-2-.4 0-.4-.2 0-.4s1.3-.2 2.1 0c1.2.4 1.2.6 0 1.7-1 1-1 1.3 0 1.4 1.5 0 2.5-.9 2.2-2.1-.1-.5.3-1.3.8-1.6.8-.6.6-.6-.9-.3-1 .2-2 .1-2.2-.1Zm31.2 56.3c-.1.3 0 .6.3.6.4 0 .5-.2.3-.5s-.4-.4-.6-.1Zm-30-51.3-2.6 1.3c-3 1.6-4.7 4-2 2.6.9-.4 1.5-.4 1.7 0 .4.9 1.4.2 2.8-2 1.6-2.4 1.6-2.6.2-2Zm-27-51.9c-.4.5-1 1-1.4 1-.4.1-.6.6-.5 1 .2.9.2.9.9-.1.3-.6 1-1.2 1.3-1.4.4-.2.6-.6.5-.8-.2-.4-.3-.3-.8.3ZM66.8 202c-.5.3-.7.7-.6.8 0 .2.4 0 .7-.5.8-1 .8-1-.1-.3Zm-11.5-22.4c-.1.4 0 .8.4 1 .4 0 .4-.2.2-.7-.3-.5-.5-.6-.6-.3Zm5.8 17.7c-.5.3-.8.6-.7.7l.9-.3.7-.7c-.1-.2-.5 0-1 .3Zm3.2 8.3a9 9 0 0 1-1.8 0l-1.3-.2.3.7c.2.4.2 1 0 1.3-.2.4.2.4 1 0 .9-.4 1.3-.4 1 0 0 .3.2.6.7.7.7 0 .9-.2 1-1 0-1.4-.1-1.7-.9-1.5Zm-2.2-5c-.1.3 0 .5.3.5s.5-.3.3-.6c-.2-.2-.4-.2-.6.1Zm-19.3-34.9c-.7.4-1.3.7-1.2.9 0 0 .7 0 1.5-.3s1.2-.6 1.1-.9c0-.2-.8 0-1.4.3Zm19.8 45.7c-1 .3-1.3.4-1.2.7l.4 1.7c.3 1 .7 1.2 1.4.8 1.7-.8 1.8-1.1 1.3-2.3-.4-.7-1.1-1-2-.9Zm-11.4-18.9c-1 .3-.3 2 .9 1.9.7 0 .8-.3.4-1-.3-.7-.9-1-1.3-.9Zm10.5 24.3c-.2.6-.2 1.4 0 1.7.3.3.3.9.1 1.3-.2.4-.1.8.2.8.3.1.5-.1.4-.4-.1-.4.1-.9.5-1.2.5-.3.4-1.2 0-2-.7-1.2-.9-1.2-1.2-.2Zm.3 6c-.1.2 0 .4.3.4.4-.1.5-.3.3-.6s-.4-.2-.6.1Zm-9.8-18c-.8 1-.3 2 .7 1.3.4-.3.6-1 .3-1.4-.3-.6-.5-.6-1 0Zm11.5 23.6c-.8.8-1.4 6.5-.6 6.3 1.2-.2 1.4-.8 1.4-3.5 0-3.4 0-3.5-.8-2.8Zm1 10.2c-.4.3-.6.7-.5 1 0 .1.5 0 1-.3.4-.3.6-.7.5-1-.1-.1-.5 0-1 .3Zm-3.8 5.8c-1.2.7-2 2.3-1.4 3 .2.2 0 .6-.4 1-1.2.8.5 3.2 2 2.6 1.8-.6 2-1.4.3-1-1.3.3-1.3.2-.4-1 .6-.6 1-1.7.7-2.3-.3-.5-.3-1.4 0-1.9l.4-1-1.2.6Zm-1 8.1c-1.4.7-1.5.8-.5 1.4 1.3.7 1.8.8 2.8.3.4-.2.4-.8 0-1.4-.5-.8-1-.8-2.2-.3Zm2.2 2.6c-.2.3 0 .5.3.5s.4-.3.3-.6c-.2-.3-.5-.2-.6.1Zm105.3 215.3c0 .3 0 .6.4.6.3 0 .4-.2.2-.5-.1-.4-.4-.4-.6-.1Zm-2.8-3.6c-.4.2-.8.6-.8 1 0 .8 1.5.2 2-.6.3-.7-.1-.9-1.2-.4ZM67.3 280.6a2 2 0 0 0-.6.8c-.2.3 0 .4.4 0 .8-.5.9-1.2.2-.8Zm-1-.8c-.5.3-.8.6-.7.7 0 .2.4 0 .9-.3l.7-.7-1 .3Zm-1.1-1.8c-.2.9 0 1.3.7 1.2.7-.1.8-.6.3-1.4l-.8-1.2-.2 1.4Zm94.7 189c-.4.2-.7.6-.6.9 0 .2-.6.3-1.5 0-.9-.2-1.6-.3-1.6-.1 0 .6-2.2.6-2.7 0-.2-.3-.8-.4-1.4-.2-1.8.7-1.7 1.7.3 1.9 1.7.1 1.8.2.5 1.2-1.8 1.5-.4 4.3 1.9 3.9 2.3-.4 4-2 2.5-2.5-1-.3-1-.5.4-1.4 1-.6 1.4-1 1-1.1-.3 0-.2-.3.2-.5.5-.3 1-.3 1-.1.2.1.6-.3 1-1 .7-1.4.4-1.7-1-1Zm-3.4 3.6c-.4.2-1 .3-1 0-.1-.2.2-.5.7-.6.5-.2 1-.2 1 0 .1 0-.2.4-.7.6Zm1.8-7c-.4-.5-1.8.2-2 1.1-.2 1 2.5 2.3 3.3 1.7.6-.4.3-1-1.3-2.8ZM136 432c-.9.2-1.3.5-1.9 1.3-.5.8-.3 1 .9 1.2a4 4 0 0 0 2.2-.5c1-.8.2-2.2-1.2-2Zm-8.7-6.7c-.5.3-.8.6-.7.7l1-.2c.4-.2.7-.5.6-.6 0-.2-.5-.1-1 .1Zm2.5 8.2c-.2.3 0 .5.3.4.3 0 .4-.3.3-.5-.2-.3-.5-.3-.6 0Zm-6-10.5c-.5.2-.6.4-.2.4a3 3 0 0 0 1-.2c.2-.1.3-.3.2-.4 0-.2-.5 0-1 .2Zm-2.9-2.5c-.9.4-1.2.6-1 .7.7.1 2.7-.6 2.5-1 0 0-.7 0-1.5.3Zm14.7 32.9c-.8-.1-.9 0-.6.5.2.3 1 .7 2 .7l1.5.2-1-.6c-.5-.4-1.3-.7-1.9-.8Zm-17-30.5c-.1.2.2.2.9.1 1-.1 1-.2.4-.4-.4 0-1 0-1.2.3Zm-10-16.8c-.2-.3-.8-.3-1.4-.2-.8.3-.7.7.5 1.8.8.7 1.6 1.3 1.9 1.3.2 0 .9-.5 1.5-1 1-.9.9-1-.6-1.2-1-.2-1.8-.5-2-.7Zm9 16.2c-.2.1-.3.3-.2.5l1-.2c.5-.3.6-.5.2-.5a3 3 0 0 0-1 .2ZM103.1 397c-.9 0-1.4-.1-1.3-.5.1-.4-.2-.6-.6-.4-1.3.4-1.4 1.5 0 2.3.6.4 1 1 1 1.4 0 .5.6.6 1.9.2 1.8-.5 1.9-.6 1.2-1.8a2.4 2.4 0 0 0-2.2-1.2Zm10.6 24c-1.5 0-1.5.1-1.2.8.4.8 1.5 1 2.5.5 1.2-.6.3-1.5-1.3-1.4Zm-10.8-19.2c-1.1.3-1 .6.4.6.9 0 1-.1.8-.5-.1-.2-.6-.3-1.2-.1Zm348 .5a6 6 0 0 1-3 .7c-.7 0-1-.2-.8-.4l3-.7c2.4-.5 2.5-.5.8.4Zm-17.2-33.9-1 .2c0-.1 0-.3.3-.4a3 3 0 0 1 1-.2c.3 0 .2.2-.3.4Zm.9 5.6c-1.2.8-1.7 1-1.8.9-.1-.4 2-1.9 2.9-2 .2 0-.2.4-1.1 1Zm-27.8-55c0 .3-.8 1-1.5 1.5-1.7 1-6.3 2.7-4.9 1.8.6-.4 1-.8.9-1-.1-.2.3-.7 1-1a4 4 0 0 0 1.5-1.4l.3-.9h1.4c.8 0 1.5.2 1.5.3 0 0 0 .4-.2.7ZM260.1 41.3c-.2.2 0 1.2.3 2.2.7 2-.2 4.2-2.3 5.2-.8.4-1.5.3-2-.3-.6-.6-.5-1 0-1.3 1.2-.3 2.4-3.8 1.8-4.9-.2-.4-.4-1.5-.5-2.4-.1-1.4 0-1.6.8-1.4 1.1.4 2.4 2.4 1.9 3Zm9.6 20.2c-.4.1-.5 0-.4-.4.2-.3.4-.4.6-.1.2.2 0 .5-.2.5Zm173.8 332c-.6.3-1.3.1-1.6-.3-.4-.6-.2-.8.8-1 1.7-.4 2.4.7.8 1.3Zm-.7 1.7c-1.2.6-3 .4-4.2-.4-1.2-1-1-1.8.5-2.3.5 0 .5.2.1.7-.5.7-.1 1 1.7 1.2 2.7.2 2.9.3 2 .8Zm-41.4-78c-.5.3-1 .3-1 .2-.1-.1 0-.3.2-.4a3 3 0 0 1 1-.2c.4 0 .3.2-.2.4Zm34.3 67.1c-.4.2-.7.6-.6.8.1.2-.7 1-1.8 1.8a7.8 7.8 0 0 1-3.5 1.6c-1.4.2-1.4.2 0-.8 1.2-.6 1.5-1 1-1.1-.4-.1-.2-.4.7-.7.7-.3 2-1.3 2.7-2.1l1.5-1.5.4.8c.3.4.1 1-.4 1.2Zm-20.6-37.7c-.3.3-1.2.8-2 1.2-1.2.6-1.7.6-2 0-.3-.6-.6-.6-2 .3-1.8 1.1-2.3 1-1-.3.8-.7.7-.7-.3 0-.9.8-1.5 1.2-3 1.5-1.7.5-1.7.5-.3-.8 2-1.6 2.6-1.9 4-1.7a5 5 0 0 0 2.4-.4c1-.5 4.3-.8 4.5-.4.1 0 0 .4-.3.6Zm26.6 53.1c-.5.4-.5.8 0 1 .7.3.5.5-1.1 1.3-1.4.7-2.4 1-3.4.7-1.6-.3-1.4-.8.5-1.5 2-.8 2.6-2.2.9-2.8-1.6-.7-1.5-1 .8-1.9 1.1-.4 1.6-.2 2.3 1 .4 1 .4 2 0 2.3Zm-.3 4.8-3.2.7c-2.1.4-2.2.3-.8-.3 1.7-.7 5.4-1.1 4-.4ZM261.4 67c-.3.4-.3.7 0 .7.2 0 .1.3-.3.6-.5.3-.9.5-1 .3-.1-.3-.3-.1-.8.4-.8 1-1.9 1.2-1.5.2.1-.5.5-.9.8-1 .3 0 1-.4 1.4-1 .9-1 2.3-1.2 1.4-.2ZM226.3 2c-1 .5-3.5.2-3.9-.5-.4-.8 1-1.4 2-.9l1.8.7c.5.2.5.5.1.7ZM389 318.3l-1.4.7c-.7.1.1-1 1.1-1.4 1.1-.6 1.3-.1.3.7ZM252.2 59c-.2 1-1.6 1.5-2.1.6-.2-.4-1-1.3-1.6-1.9l-1.2-1.1 2-.2c1.9-.3 3.3 1 3 2.6Zm134.7 259c-.5.3-1 .4-1 .3 0-.2 0-.4.2-.5a3 3 0 0 1 1-.2c.4 0 .3.2-.2.5ZM229.5 21.5c-.7.3-1.9.5-2.6.3l-1-.4 2.6-.4c1.7-.1 2 0 1 .5Zm9.8 20c-.8 1-2.5 2-4 2.2-1.5.1-3.8-.6-3-1 2.7-1.1 3.5-1.8 3.2-2.5-.5-1 1.3-2.5 2.4-2.1 1.3.5 2 2.5 1.4 3.4Zm199 380.4c-.6.1-1 0-.8-.1.3-.3.8-.4 1.2-.3.7.2.6.2-.4.4ZM232.8 33.1c-.4.3-.9.3-1 0-.2-.2.1-.6.6-.8h1c.1.1-.2.5-.6.8Zm206.6 391.8c-.3 0-.4-.2-.3-.5.2-.3.4-.4.6 0 .2.2 0 .4-.3.5Zm-32.2-58a15 15 0 0 1-2 1.6l-2.6.7c-1 .1-2.3.5-3 .8-1.2.7-1.5.5-.7-.5a7 7 0 0 1 2.4-1.5c1-.4 2-1 2.2-1.2.4-.5 4.9-1.9 5-1.5.1 0-.5.8-1.3 1.5Zm27.4 57.1c-1.3.6-2.8 1-3.2 1-.4 0-.8.4-1 .9-.7 1.9-.8 2-2 1.6-.9-.3-2-.1-3.1.4-1 .5-1.8.6-1.8.4 0-.5-2.2.6-2.8 1.3-.5.7-2.8 1.9-3 1.6 0-.2.6-.7 1.5-1.2 1.1-.7 1.3-1 .6-1.5-.7-.5-.7-.6 1.1-1.2l2.6-1c2.2-1.2 3.7-1.7 4.4-1.4.5.2 1.5.2 2.4 0 1.3-.3 1.4-.4.7-.5-1.2-.2.2-.8 3.2-1.3 3.3-.5 3.4-.3.4 1Zm-67.2-130.5c-1 .8-2.8 1.3-2.3.7.5-.7 2.8-1.8 3-1.5 0 .1-.3.5-.7.8Zm31 61.1c-.7.3-1.3.4-1.4.2-.1-.2.3-.6.9-1 .6-.4 1.1-.5 1.3-.2.1.3-.3.7-.9 1Zm-159.6-302c-.7 1.2-3.4 2.4-4.1 1.8-.4-.4 0-1 1-1.7 2.7-2.1 4-2.1 3-.1Zm191.4 364.9c-1.1 1.3-2.6 1.9-3 1.2-.2-.4 0-.8.5-1 .4-.3.7-.7.7-1.1 0-.4.5-1 1-1.3 1.3-.8 1.9 1 .8 2.2Zm-3.8-1.2c-1 .2-1.5 0-1.3-.4.4-.8.7-.9 2-.3 1 .4.9.4-.7.7Zm14 26.8c-1.1 1.1-2.7 1.5-3 .8-.3-.4 0-.8.5-1 1.4-.4 3-.3 2.6.2Zm-64-120.6c-.5.3-1 .3-1.1 0-.1-.1.2-.4.7-.6h1c.1.1-.2.4-.7.6ZM252.5 88.8c-.4.2-1 0-1.3-.5-.3-.7-.2-1 .6-1 1.3 0 1.8 1 .7 1.5Zm115.1 220.5-1.5.2 1.3-.6c.8-.3 1.4-.4 1.5-.2 0 .1-.5.4-1.3.6Zm-4.8-8.2c-.4.7-.6.7-1 0-.3-.5-.2-1.1.3-1.3 1-.5 1.3.1.7 1.3ZM246.7 81.7c-.5.6-.6.6-.9.2-.2-.3.1-.7.6-.9 1.1-.3 1.1-.3.3.7Zm151.4 286.9a3 3 0 0 1-1 .2c-.4 0-.3-.2.2-.4.5-.3 1-.4 1-.2.1.1 0 .3-.2.4Zm-40.7-76c-1 .6-2.2.3-1.4-.3a2 2 0 0 1 1.4-.3c1 .1 1 .2 0 .7Zm-147.9-280c-.3 0-.5-.4-.4-.7 0-.4.3-.3.6 0 .2.5.1.8-.2.7Zm221.4 421a1 1 0 0 0-.4 1.4c.4.8-1.3 2.9-4.3 5-1.7 1.3-2.8 4.8-1.5 5 1.7.4-.5.8-2.6.5-1.3-.1-2.8-.1-3.5.1-1.3.4-2.7 0-4-1.2l-.8-.7 1.5.4c2 .5 2.8.3 4.4-1.3a39 39 0 0 1 3.8-3.1c2.2-1.6 2.3-1.8 1.5-2.4-.7-.6-.7-.9.2-1.2.8-.3 1.3-1 1.6-2.2.5-2.2 2.8-3.7 2.6-1.8 0 .7.2 1 .8.6.6-.2 1.1-.2 1.2 0 .2.3 0 .7-.5 1Zm-10 9.7c0-.2-.3 0-.7.4-.6.9.3 1.2 1.5.6.5-.3.5-.5.2-.6-.4 0-.8-.3-1-.4ZM396.7 370c-.9.4-1.5.9-2 1.4-.2.3-.6.2-.8-.2-.4-.8.4-1.4 2-1.4.7 0 1 0 .8.2Zm-153-287.2c-.4.7-1 1.2-1.4 1.2-.4 0 0-.6.8-1.3 1.6-1.5 1.7-1.5.6.1Zm176 334.8-.2 1.7v1.2l-2 .3c-1.7.3-2 .2-2.1-1 0-.8-.5-1.3-1.2-1.2-.8 0-.7-.3.4-1.4l1.5-1.4.8.3c.4.1 1 0 1.5-.2.6-.5 1.4.6 1.2 1.7Zm-5.6-7.5a9.2 9.2 0 0 1-2.4-.6c-.1-.5 4.1 0 4.4.6.2.2-.7.3-2 0ZM399.4 380c-.4.2-1 1-1.5 1.6-.4.7-1 1.2-1.2 1.1-.3 0 0-.7.7-1.5 1.2-1.4 2.3-2.2 2.6-1.8 0 .1-.2.4-.6.6Zm-50.6-94.5c-.6.3-1.7.6-2.4.7-1 .1-.8 0 .7-.6 2.2-.9 3.4-1 1.7-.1ZM421 422.2c-.3 0-.4-.1-.3-.4.2-.4.4-.4.6-.1.2.2 0 .4-.3.5Zm-60.4-113.5c-.5.3-.7.3-.5-.1.3-.7.9-1.1 1-.8.1.2-.1.5-.6.9ZM241.3 87.2c-.2.5 0 1.6.5 2.4.5.9.5 1.4-.2 1.6-.7.1-1-.4-1.2-1.5 0-1-.3-2.1-.4-2.5-.2-.4 0-1 .5-1.1 1-.5 1.2-.2.8 1.1Zm176 335.2h-1c0-.1.2-.4.6-.6.4-.2.8-.2 1 0 0 .2-.2.5-.7.6Zm.7 5.3c-2 .8-5.5 1.5-5.7 1l1.5-1c1.2-.5 1.6-1 1.5-1.3-.5-.8 1.2-1 2.2-.4l1.7.7c.8.2.6.3-1.2 1Zm-60.5-115.6h-1.7c0-.3.2-.4 1.3-.7.8-.1 1.5-.1 1.6 0 .2.4 0 .5-1.2.7Zm-7.7-16.3c-.3 0-.5-.1-.3-.4.1-.4.4-.4.6-.1.1.2 0 .5-.3.5Zm-98.7-186.3c-.3-.1-.5-.4-.4-.8 0-.3.4-.3.6.1.2.4.2.7-.2.7Zm178.7 345.4a28 28 0 0 1-3.4 1.7 7.6 7.6 0 0 0-2.3 1.4c-.2.3-.3.2-.4-.2 0-.8.8-1.7 1.2-1.1.2.3.7.1 3-1.2 3-1.7 4-2 1.9-.6ZM248.3 110.2c-.3 0-.5-.4-.4-.7.1-.3.4-.3.6 0 .2.5.2.8-.2.7Zm.4 4.7c-1.4 1.2-2.6 1.6-3.4.9-.4-.5-.1-.8 1.7-1.8s2.4-1.1 2.6-.7c.1.2-.3 1-1 1.6Zm3.4 6.3c-.2.3-.6 1-.7 1.6-.2.9-.4.7-.9-.6-.4-1-.5-2-.2-2.2.2-.3.5-.3.7-.1 0 .2.5.4.9.6.4.1.5.5.2.7Zm181 344.1c-1.7.8-4 1.3-4.2.8-.2-.5 0-.6.4-.4.3.1 1.4 0 2.3-.4 1.5-.6 2.7-.6 1.5 0Zm-26.5-49.2c-.4.3-1.2.5-1.8.5-1.2 0-.4-1 1.3-1.5 1.2-.3 1.5.3.5 1ZM252.3 128.4c-1 1.8-1 1.8-2 1.5a7 7 0 0 1-1.1-.3l-.8-.1c-.4 0-.6-.3-.6-.6 0-1-1.4.2-1.5 1.3a2 2 0 0 1-.9 1.6c-1 .5-1.2 0-.4-1.1a4 4 0 0 0 .4-2.5c-.2-1.7 0-2 1-1.8.5.1 1.3.3 2 .3.6 0 1.1.6 1 1.1 0 .8.2.9 1.2.4.7-.3 1.1-.8 1-1-.1-.2.2-.5.7-.6 1.2-.4 1.2-.3 0 1.8Zm-4.6-10.7c-.5.6-.7.7-1 .1-.3-.4 0-.8.5-1 1.2-.3 1.3 0 .5 1Zm-2 6.8c-.5.5-2-.4-3.6-2.2l-1.2-1.3 1.4.9a6 6 0 0 0 2.5 1c1.3 0 1.8 1 1 1.6Zm6 15.6c-1.1 1.7-1.3 1.8-2.3 1.7-.6 0-.9-.5-.7-.9.3-.4.3-.9.1-1-.2-.1 0-.4.5-.6l2-1.3c1.8-1.1 2-.3.4 2Zm-11.5-19c-.3 0-.4-.2-.3-.5.2-.3.4-.4.6 0 .2.2 0 .4-.3.5Zm9.6 29c-.5.2-1 .2-1 0-.2-.2.2-.5.7-.7.5-.1 1-.2 1 0 0 .1-.2.4-.7.6Zm159.6 308.1c-3.2 1.2-5.2 1.6-5.6 1-.1-.2.2-.4 1.7-.7 1-.2 2.1-.6 2.5-.8a5 5 0 0 1 2.5-.6h1.8l-3 1.1Zm-4.3-12.5c-.4.2-.9.2-1 0-.1-.2 0-.4.1-.5a2 2 0 0 1 1 0c.4 0 .4.3 0 .5Zm2.5 9c-3.1 1-3.6.4-.8-.8 1.6-.7 2.3-.8 2.5-.3.3.6.2.6-1.7 1.2Zm-2.7-4.8c-.9.4-3.5.8-3.7.5 0-.2.4-.6 1.1-1 .7-.3 1.4-.5 1.4-.3l1 .4c.3.1.4.3.2.4Zm-3.4-4.3a3 3 0 0 1-1 .2c-.4 0-.3-.2.2-.4l1-.2c0 .1 0 .3-.2.4Zm2.4 7.6c-.5.3-1 .4-1 .2-.1-.1 0-.3.2-.4a3 3 0 0 1 1-.2c.4 0 .3.2-.2.4Zm1 4.8c-.7.4-2 1-3.1 1.3-1.6.5-1.9.7-1.7 1 0 .2-.2.6-.7.8-1 .5-1 .4-.8-.7.3-1.1 3-2.7 5.2-3.2 2.3-.5 2.5-.2 1 .8Zm-5.1-5.3c-1 .8-1.2.9-1.4.4-.2-.3-.7-.7-1.1-.9-.6-.2-.5-.5.4-1 .8-.3 1.5-.8 1.6-1.1.1-.3.5 0 .9.6s.2 1.4-.4 2Zm-1-3c-.6.1-1 .1-1.2-.1-.1-.2.2-.6.7-.8.4-.2 1-.2 1 .1.2.3 0 .6-.6.8Zm9.8 21.6c-.8.4-1.4.6-1.1.4a6 6 0 0 1 1.6-.8c.7-.3.5-.1-.5.4Zm-5.1-2.8c-2.2 2-4.8 3.4-5.1 2.8-.1-.2-.6-.2-1 0-.5.3-1 .2-1.2 0-.2-.5 1-1.4 4-2.7l3.2-1.5c2.5-1.4 2.6-.8 0 1.4Zm-1.8-8c-.3.1-.5 0-.3-.4.1-.3.4-.4.6-.1.1.2 0 .5-.3.5Zm.8 5.2c-.8.3-1.5.4-1.6.3-.1-.3 1.9-1.1 2.5-1 .3.1 0 .4-1 .7Zm4.4 19.9c-.5.4-.7.5-.5.1.2-.3 0-.3-.7-.1-.8.3-.8.2-.1-.1 1.4-.8 2.3-.7 1.3.1Zm-13.3-25.5c-.5.2-1 .2-1 0-.2 0 .2-.3.7-.4.5-.2 1-.2 1 0 .1 0-.2.3-.7.4Zm-237-431.5a16 16 0 0 0-2 6.2c-.1.2 0 .7.2 1.3 1.2 3 1.3 3.6.6 3.9-.5 0-1.5.9-2.4 1.7l-1.6 1.4-.4-1.7c-.7-3.6-.7-6.7 0-8.4a5 5 0 0 0-.3-3.6c-1.1-2.1-.2-3 2.8-2.5a7 7 0 0 0 3-.3c1.3-.7 1.3-.5 0 2ZM392 475.2c-.9.5-2.1.9-2.7 1-1.5.2-.2-1 2-2 2.3-1 2.8 0 .7 1Zm7.5 17.3c-.7.4-3.3 1-5.6 1.5a871 871 0 0 0-9.7 2c-5 1-6.8 1-4.9 0 .5-.2 1-.3 1-.1a49.7 49.7 0 0 1 6.5-2c2.9-.8 4.3-1.8 3.8-2.8-.3-.6-.3-.6 1.6-1 2.4-.5 2.8 0 .8.9-1 .4-1.5 1-1.5 1.4 0 .5.6.4 2.3-.3 1.6-.6 2.3-.7 2.5-.3.2.3 1.3.4 2.4.3 1.7-.2 1.9 0 .8.4ZM389 478.8a34 34 0 0 1-5.8 2.3c-2 .4-2 .4-1.8.9.1.3.2.8.1 1.2 0 .4 0 1 .2 1.6.2.5-.2 1.4-.8 2-1.5 1.1-5.2 3-4.7 2.3.8-1-1.1-1.3-2.8-.4-2.7 1.3-4.8 1.2-5.6-.4-.5-.8-1.1-1.3-1.5-1.1-.4.2-.7-.1-.8-.7 0-.8-.4-.8-2.2-.2-1 .5-2.4 1-2.8 1.3-1.7 1-3.2.7-2.6-.4.8-1.3 1.8-2 2.2-1.4.2.3.4.2.6-.1.4-.8 1.7-1.3 3-1.1a4 4 0 0 0 4-2.1c1.3-3 1.2-2.8 1.9-2.4.3.2 1.2.2 2 0 .7-.1 1.4 0 1.6.3.3.7 3.1.5 4.6-.3 2.4-1.1 2.6-.2.4 1.7-1.9 1.7-2 2-.9 1.7 2-.5 4.4-4.5 3.7-6.3 0-.3.3-.6.8-.8.5-.1.9 0 .8.3l-.3 1.7c-.1 1 0 1 1.6 0 1-.6 1.9-.9 2.5-.8.5 0 1.6-.2 2.6-.7 1.1-.6 1.7-.7 1.6-.3 0 .4.5.6 1.1.5.9-.1.3.2-2.7 1.7Zm-13.5 7.1c-1 .2-1.8.4-2 .6-.5.5 2 .5 3 0 1.2-.6.7-.9-1-.6Zm18-4.8c-1 .5-1.6.2-.9-.4.4-.3.9-.4 1-.2 0 .3 0 .5-.2.6ZM155.3 42.3c-.5.2-.9.4-1 .3l.8-.7c.4-.3.8-.4.9-.3 0 .1-.3.5-.7.7Zm0 1.2c-.4 0-.5-.2-.4-.5.2-.3.4-.3.6 0 .2.2 0 .4-.2.5Zm-12-13.3c-.7.2-.8.4-.3.6.5.1.5.5.1.8-.8.6-1.6-.6-1.2-1.6.5-1 1.8-1.5 2.2-.8.2.4 0 .7-.7 1ZM378 475.9c-1 .3-1.1.6-.7.8.9.5.3.7-2.6.7-3.3 0-3.6-1.3-.5-2.7 2.3-1 2.7-1 1.5.2-.5.5-.2.6 1.3.4 2.4-.4 2.9-.1 1 .6Zm8.1 25c-1 .6-2.5 1-3.2 1-.7 0-2 .4-2.9.9-.8.4-2.3.8-3.2 1-2 .3-2.8-.9-1.2-1.7 1.5-.7 5.4-1.2 5.7-.8 0 .2.9 0 1.8-.4.8-.4 2.3-.8 3.3-.9 1.6 0 1.6 0-.3 1Zm-2.6-8.3c-.9.8-3 1.3-3.3.7-.2-.5 0-.6 1.6-1.1 1.8-.5 2.5-.4 1.7.4ZM146.8 47.4c-1.2 1.4-2.4 1.6-1.6.3.3-.6.7-1 .8-.8.1.2.6 0 1-.2 1-.8 1-.7-.2.7ZM127 27.3c-.1.6.2 1.5.7 1.9.7.5.6.8-.3 1.5-.7.4-1.1 1-.9 1.5.7 1.3-.3 3.3-1.9 4-1.1.5-1.5.4-1.6-.3-.1-.6 0-1.3.3-1.6.3-.3.5-1.7.5-3-.1-2.5 1.1-5.8 2.3-6.4.8-.4 1.3.8 1 2.4Zm248.5 470.4c-.9.5-6 1.7-6.1 1.5-.3-.4 4.7-2.7 5.4-2.5 1 .1 1.3.7.7 1Zm-3.6-3.8c-.2.5-.5.8-.6.7-.3-.3-2.8.9-2.7 1.3l1.2.3c1.1 0 1.1 1.3 0 1.9-.3.2-1.3.2-2.1 0a19 19 0 0 0-8.3 2.2c-1.6.9-2.4 1-2.8.7-.3-.2-.2-.6.3-.8.5-.3.3-.5-.5-.7-1.2-.2-1.2-.5-.2-1.4 1.3-1.2 3-1.8 3.4-1.2.1.3.6.3 1.1.1.5-.2 1-.3 1 0 .4.7 2.9-.3 6.7-2.7 4-2.5 4.3-2.5 3.5-.4Zm-250.4-460-.2 1.4c.2 1.4-.3 2-1.7 1.7-.8-.2-.8-.7-.2-1.6 1.1-1.8 1.1-1.8 1.8-1.8.4 0 .5 0 .3.3Zm238 457.2c-3 1.3-4.7 1.6-3.8.8a20 20 0 0 1 6.5-2.2c0 .1-1 .7-2.7 1.4Zm-2.1-1.6c-.8.7-1.2.8-1.8.6-1-.5.1-1.5 1.6-1.5.9 0 1 .3.2 1Zm-6.3 10.8c-.3 0-.5-.3-.3-.6 0-.3.4-.2.5.1.2.4.1.6-.2.5Zm-2.3 4.7c-.7.1-1 0-.8-.2.2-.2.7-.3 1.2-.2.6.1.5.2-.4.4Zm-5.2 1.8c-1 .3-1.7.3-1.5 0 .3-.7 1.4-1.3 2.3-1 1.2.2 1 .5-.8 1ZM98.2 50.7c-.3 0-.5-.4-.3-.7.1-.2.4-.2.6.1.1.4 0 .6-.3.6ZM339 510.5c-.8 1-2 1.1-1.3 0 .3-.4.9-.7 1.2-.8.3 0 .4.4 0 .8Zm-3.5 1.4c-.5.2-1.6.4-2.6.3-1.5 0-1.6-.2-.8-.8.8-.7.7-.9-.5-1.1-1.8-.4-2.2-1.1-1-1.5.5-.1 1.1 0 1.3.5.2.3 1 .5 1.8.3 1.6-.3 3.1 1.6 1.8 2.3Zm-14-2.2c-.4.7-.4.7-1.3.5-1-.3-.9-.6.6-1 .6-.2.9 0 .7.5Zm-3.2 7.3c-.3 0-.5-.1-.3-.4.1-.4.4-.4.5-.2.2.3.1.5-.2.6ZM71.7 58.5c-.8.7-1.2.9-1.8.8-.8-.2.2-1.5 1.6-2.2 1.1-.6 1.3.5.2 1.4Zm.3 9c-.6.6-1 1-1 1.2.1.1-.3.7-.8 1.2-.6.5-1.1 1.2-1.3 1.5-.1.3-.5.5-1.2.7-2.6.5 1.3-5.6 4-6.4 1.3-.4 1.5.8.3 1.8Zm-7.1-2c-.3.5 0 1.1.4 1.4.5.2.6.8.2 1.3-.5.7-.7.7-1 0-.4-.6-.8-.6-1.8 0-1 .7-1.3.7-1.1 0 .3-1.4 2.4-4 3.1-3.9.3.1.4.6.2 1.1Zm3 8.9c-.2 0-.4-.4-.2-.7.1-.2.4-.2.5.1.2.4.1.6-.2.6ZM300 514.6c-.6.3-4.8 0-5-.4 0-.2.5-.3 1.1-.3l2.6-.2c1.2-.2 2.2.5 1.3.9Zm.5 4.1c-.3.6-.7 1-1 1.1-.3.1-.1-.5.4-1.2 1-1.5 1.4-1.4.6.1ZM61.5 72.8l-1 .4.8-.7c.4-.3.8-.5.9-.3 0 .1-.3.4-.7.6Zm231 441.5c-1.7.4-2 .4-.9-.2.4-.2 1.1-.3 1.5-.2.7 0 .5.2-.7.4ZM53.6 91.8c-3.3 2.9-6.8 5.2-7.6 5-.8-.1.1-1.8 1.4-2.4.7-.4.8-1 .5-1.7-.8-1.5.6-2.8 3.2-3l3.4-.5c2.2-.3 2 0-1 2.6Zm214.6 410.6c-1 .8-5.1 2.4-5 1.9.3-.7 5.2-3.1 5.4-2.7.1.2 0 .6-.4.8Zm-211-387.1-1 .3.7-.7c.4-.3.8-.4 1-.3 0 .1-.3.5-.8.7Zm-.7 10.4c-1.5 1.3-3 2.3-3.2 2.2-.6-.1 1.9-2.7 3.2-3.2.6-.3 1-.6.9-.9-.1-.2.1-.5.6-.8 1.8-.9 1 .4-1.5 2.7Zm0-3.4c-.7.8-1.4 1.2-1.5 1l1.2-1.6c1-1 1.5-1.3 1.6-1 .1.2-.4 1-1.2 1.6Zm201.7 381c-.5.4-.8.6-.9.5l-.7-.3c-.5 0-.3-.3.6-.8 1.5-.7 2.2-.3 1 .6Zm1.6 5c-.5.3-1 .3-1.2 0-.1-.3.2-.7.6-1 .5-.2 1-.1 1.1.1.2.3 0 .7-.5 1ZM51.6 117c-.3.5-.4 1-.2 1.2.4.2-.2.7-2 1.6-1.3.8-2.5 1.5-2.6 1.8-.3.7-1.7 1.2-2 .7-.3-.7-1.5-.3-2.3.9l-.8 1.1-.3-.5c-.3-.5 2.8-4.8 4.3-5.9.3-.3.4.2 0 1.1-.4 1.4-.3 1.6.7 1 .7-.3 1.2-.7 1-.9 0-.1.3-.5.7-.7.5-.2 1-.8 1-1.3.2-.5.7-1 1.5-1.3 1.4-.5 1.9 0 1 1.2ZM46 106.8l-1.6 1c-1.2.6-1.4.6-.7 0 .4-.5 1.1-1 1.6-1.1.8-.3 1.2-.2.7 0ZM259 515c-1.3 1-2 .9-1.6-.2.2-1 .3-1 1.2-.9 1.3.2 1.3.3.4 1Zm-4.6-8c-1.5.8-1.8.7-.7 0 .4-.4 1-.6 1.3-.6.4 0 .1.3-.6.6ZM50.9 125.5a8.5 8.5 0 0 0-2.2 3c-.2 1-3 4.4-3.8 4.4-.3 0-.6-.7-.5-1.6 0-1.6 1.8-3.8 4.3-5 .5-.3 1.2-1 1.5-1.7.4-.6 1-1.2 1.6-1.4 1.6-.5 1.3.3-.9 2.3Zm201.7 381.3c-.3.6-.5.8-.7.5-.1-.2 0-.7.4-1.1.7-1 1-.6.3.6ZM53.2 130c-.5.2-1 .2-1.1-.1-.3-.5-.1-.6.7-.6 1.3 0 1.5.2.4.7Zm3.3 7.2c-.2.2-.2 1.3 0 2.5s0 2.4-.5 2.6c-.5.3-1.4-.4-2.1-1.4-1-1.4-1-2 0-2.6 1.3-.9 3.2-1.7 2.6-1.1Zm-11.9-9.5c-.4.2-.7 0-.6-.3.1-.4.3-.8.5-.9.2 0 .5 0 .6.3.2.3 0 .7-.5 1Zm5.1 12c-.7.9-1.4 1-2.6.3-.7-.4-.7-.6.2-1 1.6-.6 3-.2 2.4.7ZM38.4 130c-1.2 1-3 2.2-4 2.6-1 .5-1.6 1-1.5 1.3.1.2-.2.5-.6.8-.5.2-1 .1-1.2-.2-.2-.5-.8-.4-1.9.1-.9.5-2.3 1-3.3 1-1.6.3-1.6.3 0-1.2a28.9 28.9 0 0 1 9.7-5.4c0-.2.3-.5.7-.8.5-.2 1-.2 1.1 0 .2.4.9.3 1.6 0 2-1 1.7-.2-.6 1.8Zm193.2 372.6c-.3 0-.5-.2-.3-.5s.4-.4.6 0c.2.2 0 .4-.3.5Zm-195.1-364c-.7 1-1 1.6-.7 1.6.2 0-.1.3-.8.7-1.5 1-1.8.5-.6-1.2.5-.7.8-1.6.6-1.8-.2-.4 0-.5 1.2-.8 1.8-.4 1.8-.3.3 1.6Zm1.5 18c-2 1-2.1 1-2.7 0-.3-.6-.4-1.2-.2-1.3 1.2-.6 4.5-.8 4.7-.3.3.5-.1.8-1.8 1.7ZM217.8 499c-.3 0-.4-.2-.3-.5.2-.3.4-.3.6 0 .2.2 0 .4-.3.5Zm-3.2-2.2a28.5 28.5 0 0 0-5.5-.4 62.7 62.7 0 0 0-13.6 1.3c-2.8.4-6 0-4.7-.8a57.7 57.7 0 0 1 16-2c.4.9 2.4.7 4-.3 1.2-.8 1.6-.7 2.6.2a13 13 0 0 0 2.1 1.6l1 .7-1.9-.3ZM22.4 134.5c-1.3 1-1.8.9-.5-.2.7-.6 1.1-.8 1.2-.7.1.2-.2.6-.7 1Zm-1.1 5.8-1 .2c0-.2.3-.5.7-.7l1-.2c0 .2-.2.5-.7.7Zm17.5 41.3c-.4.5-.7.5-1 0-.3-.5-.2-1 .1-1.3.8-.6 1.5.5.9 1.3Zm-19.2-35.4c-.7.3-1.4.5-1.5.3 0-.3.4-.6 1.2-.9.7-.3 1.4-.4 1.4-.3.1.1-.4.5-1.1.9Zm5.8 15.2a7.9 7.9 0 0 1-3 1.7c-1.5.3 1.3-2.5 3.3-3.2 2-.7 2-.2-.3 1.5Zm14.8 28c-.3 0-.5-.3-.4-.7 0-.3.3-.3.5.1.3.4.2.7-.1.6ZM23 159.6a2 2 0 0 1-1.4 0c-.4 0-.4-.4 0-.6a2 2 0 0 1 1.3 0c.4.1.4.4 0 .6Zm8.7 22.5c-.4.4-.8.5-1 .4 0-.2.3-.5.7-.9.4-.3.8-.4 1-.3 0 .2-.3.5-.7.8Zm146 297.3c-.6.4-1.3.6-1.3.5 0-.2.4-.6 1-1 .8-.5 1.3-.7 1.4-.5.1.2-.3.7-1 1Zm-152-288.8-2 .7c-1 .3-1.1.3-.5-.3.4-.5 1.2-1 1.8-1.1 1.1-.3 1.7.3.8.7ZM5 155.7l-1.3 1.4-1-.3-1-.3 2.1-1.3c2.7-1.4 2.9-1.4 1.2.5Zm168.1 318c-.4.4-.5 1.1-.1 1.7.3.7.2 1.3-.4 1.6-.6.3-1 .1-.8-.6 0-.5-.2-1.6-.6-2.4l-.7-1.4 1.6.2c2 .2 2 .2 1 1Zm-123.3-232c-.4.1-.5 0-.4-.4.2-.3.4-.3.6 0 .2.2 0 .4-.2.5Zm.2 3.5-.3 2.3c0 1.6-.6 2-1.2.7-.3-.5-.2-1.2.2-1.6.4-.3.6-.9.4-1.3-.2-.4 0-.9.4-1.1.5-.3.9-.4.8-.3l-.3 1.3Zm123.6 235.5v1.3l-.8-1.2c-.5-.7-.5-1.5 0-1.8.7-.6 1-.2.8 1.7Zm-124.4-227c-1 .6-1.3-.1-.7-1.3.4-.7.6-.8 1-.1.2.4.1 1-.3 1.3Zm-.2 5.8c-.2 2.4-.6 2.6-1 .6-.4-1.6-.6-1.7-1.5-.8-1.3 1.4-2 1.7-2.3 1-.3-.6.8-2.4 1.1-1.8.1.1 1 0 2-.4 1.9-.8 2-.7 1.7 1.4Zm-.5 4.2c-.4 0-.5-.3-.4-.6.2-.3.4-.3.6 0 .2.4 0 .6-.2.6Zm-15.9-28.1c-.3 0-.5-.1-.3-.4.1-.4.4-.4.6-.1.1.2 0 .4-.3.5Zm16 32.6c0 .4-.4.8-.9 1-.5.1-.7 0-.5-.2.1-.2.1-1-.1-1.5-.2-.6 0-1.2.4-1.3.8-.2 1.3.6 1.1 2Zm-3.7-5.4c-.4 0-.5-.1-.4-.4.2-.4.4-.4.6-.1.2.2 0 .5-.2.5Zm112.7 217c-.8.4-1.3.5-1.2.3.3-.8 2-1.8 2.3-1.3.1.2-.4.7-1.1 1Zm-108-206c0 1-1.3 2.4-1.7 1.6-.6-1-.2-3.2.6-3.2.4 0 .8 0 .8.3l.2 1.4Zm-1.5-2.3c-.3.2-.6 0-.6-.5s.1-1 .3-1c.6-.4 1 1 .3 1.5Zm1.4 6.2c-1 .8-1.8 1-1.7.5v-1c0-.3.2-.4.9-.3 1.2.2 1.3.3.8.8Zm31.8 64c-.3.1-.5 0-.3-.4.1-.3.4-.3.6 0 .1.2 0 .4-.3.5Zm-20-33.5c-.3 0-.4-.3-.3-.6.2-.3.4-.2.6 0 .2.4 0 .7-.3.6Zm64.3 128.2c-.5.2-1 .2-1.1-.1-.3-.5-.1-.6.7-.6 1.3 0 1.5.2.4.7Zm1 5.8c-.5.3-1 .3-1 .2-.1-.1 0-.3.2-.4a3 3 0 0 1 1-.2c.4 0 .3.2-.2.4Zm20 42.8a2 2 0 0 1-1 0c-.4 0-.3-.2.2-.3.9-.3 1.5 0 .8.3Zm-22.5-41.2c-.5 0-1-.2-1.2-.4-.1-.3 0-.4.8-.4.6 0 1.2.1 1.3.3.1.4 0 .4-.9.5Zm-41.5-78.5c-1.2 1-1.9 1-1.6 0 .3-.7.5-.9 1.3-.9 1.2 0 1.3.2.3 1Zm39.6 81.9-.8 1.1-1-.5c-.5-.2-.8-.6-.5-.9.2-.2.5-.2.6 0 .3.5 1.6 0 2-.8.2-.3.3-.4.4-.3 0 .1-.2.8-.7 1.4ZM36.6 284.5c-.3.7-.5.6-1 0-.2-.5-.3-1-.2-1.1a.9.9 0 0 1 1.2 1.1Zm42 83.2c-.7 1.3-1.1 1.5-1.4.5-.4-1.6-.4-1.6.7-1.7 1.2 0 1.3 0 .6 1.2Zm-7.3-13.5c-.7.2-1 0-.8-.1.2-.2.8-.3 1.2-.2.6 0 .6.2-.4.3Zm7.3 15.5-1 .2c-.1-.2.2-.5.7-.7.5-.2.9-.3 1-.2 0 .2-.3.5-.7.7Zm29.7 57.4c-.4 0-.5-.1-.3-.4.1-.4.3-.4.5-.2.2.3.1.5-.2.6Zm-35.1-66.7a3 3 0 0 1-1 .2c-.4 0-.3-.1.2-.4l1-.2c0 .1 0 .3-.2.4Zm-4.9-8c-1.4-.6-2.5-2.4-1.7-2.8.4-.2 1.2.4 1.7 1.4.8 1.3.8 1.6 0 1.3Zm21.2 48c-1.4 0-3.2-3.3-2.2-4 .5-.4 1.2.2 2 1.7.8 1.6.9 2.3.2 2.3Zm-24-45.4c-.3.7-.6.7-1.6.1-.6-.4-.8-1.1-.5-1.6.6-.8.7-.8 1-.3.3.4.7.7 1 .8.3.1.3.6.1 1Zm-4.4-9c-.3 0-.5-.2-.3-.5.1-.3.4-.3.5 0 .2.2.1.4-.2.5Zm-1.8-3c-.3.2-.7.1-.9-.2-.1-.3 0-.7.4-1 .3-.1.7 0 .8.2.2.3 0 .7-.3 1Zm6.3 13.8c-.3-.1-.4-.4-.3-.7.2-.3.4-.2.6.1.2.4 0 .6-.3.6Z"/>
  <defs>
    <linearGradient id="a" x1="95.9" x2="338.5" y1="40" y2="524.7" gradientUnits="userSpaceOnUse">
      <stop stop-color="#1DA2B5"/>
      <stop offset="1" stop-color="#246771"/>
    </linearGradient>
  </defs>
</svg>
