<svg xmlns="http://www.w3.org/2000/svg" width="545" height="310" fill="none">
  <path fill="url(#a)" d="M203.3 309.3a157.1 157.1 0 0 0-13.1.5l-6.2.1c-5.3.1-11-.2-11.6-.7-.7-.6 2.2-.7 7.4-.4 2 0 7.6-.5 15.5-1.5 12-1.5 12.4-1.6 12.5-.7 0 .5.3.9.5.8.3 0 .5.3.6.6 0 1-1.6 1.3-5.6 1.3Zm27-6c-.6-1 0-1.3.8-.3.5.7.5.8.1.9-.2 0-.6-.2-.9-.6Zm34-4.6c-.7-.2-.7-.2 0-.8.2-.3 1.1-.8 1.9-1a17 17 0 0 0 5.3-3c.5-.3.9-.3 1.3 0s.4.5.1.4c-.2-.1-.6.1-.7.4a23 23 0 0 1-6.2 3.7c-.6.3-1.4.5-1.7.3Zm-8.8.7-.3-.8c0-.3.2-.3.4 0 .3.3.4.7.3.8 0 .2-.3.2-.4 0Zm-23.2 1.8-3-.1c-1.6 0-3.2-.1-3.6-.4-.4-.3-.6-.2-.7.2 0 .5-.3.4-.7-.1-.3-.4-.6-.8-.6-1 0-.4 1.7-1 3.5-1.5l4-.8a37 37 0 0 0 6.4-1.7c.5-.2 2-.8 3.5-1.2 1.5-.5 2.7-1 2.7-1.2 0-.3-.2-.4-.3-.5h-1.1c-1.4-.1-1.4-.4 0-1 1-.3 1.3-.2 2 .5.5.7 1 .9 2.7.7 1-.2 2-.5 2.1-.7.1-.3.9-.7 1.8-1 1.1-.4 1.5-.7 1.6-1.4 0-.7.2-.8.7-.5.3.2.9.3 1.3.1l2-.7c.6-.2 1.3-.6 1.6-.9.4-.4.9-.4 1.4-.2.7.3 1.2.2 2.3-.8a7.5 7.5 0 0 1 3.7-2c.8-.2 2-.8 2.7-1.3.7-.4 2-1 3-1.3 1-.2 2.5-1 3.4-1.8l1.9-1.5.5-.7c.2-.4 0-.7-1-1.2-1.7-.7-2.1-.7-2.5.2-.3.6-1 .7-3.4.4-.7 0-1-.3-1-.8.2-.4.4-.8.7-.8.3 0 .4-.2.1-.3a.9.9 0 0 1-.4-.6c0-.3.2-.4.5-.1.3.2.8.2 1 0 .2 0 .4.2.4.6 0 .4.1.7.2.7 0 0 .4 0 .7.2.3.2.5.1.4-.2-.2-.2-.2-.7 0-1.1.2-.6.3-.6.5 0 .5.7 1.4 0 1.3-1 0-.7 0-.7.2-.2.2.3.8.6 1.3.5.5 0 1 0 .9.2-.1.1.1.5.5.8.4.3.6.8.6 1-.1.2 0 .5.4.6.8.4 1.6.2 1.7-.5 0-.3.7-.7 1.5-.8 3.4-.7 3.7-.9 4-1.7.3-.8 3.4-2.2 5.7-2.6.4 0 .6-.4.5-.7v-.5c.5.1 3.2-1 3.3-1.5 0-.2.4-.5.7-.5.3 0 .7-.4 1-.8 0-.4.8-.9 1.4-1.1 1-.4 1.2-.7 1.2-1.6-.1-.9-.4-1.1-1.8-1.5-.8-.2-1.7-.2-1.7 0-.1.1 0 .3.2.4 2.5.8 2.1 1-1.8 1-7.7-.2-9.9-.7-10-2 0-.8.5-1 .8-.2.1.5.2.4.4 0 .2-.6.5-.7.9-.5.7.4.6.4 2 .7 1.6.4 3.3.1 4-.6.4-.3 1.1-.7 1.8-.7.6 0 1.2-.5 1.5-1 .2-.3 1-.7 1.7-.8 1-.1 1.2-.3 1.2-1-.1-1.1-2-2.4-3.4-2.3-1.3 0-1.5.3-.8 1.1.9 1.1.1 1-1.4-.1-1.1-1-1.8-1.1-2.9-1-.9.3-1.7.1-2.4-.4-1.2-1-2.7-1-6.1 0-2 .5-2.7.5-4 0a4 4 0 0 0-2.6-.3c-.8.2-1.6.2-2.1-.2a3 3 0 0 0-1.6-.5c-.4 0-.9 0-1.1-.4-.2-.3-.6-.3-1 0-.6.5-2 .8-2.2.4-.1-.2-1.3-.3-2.7-.3a31 31 0 0 1-5.6-.6l-3.1-.6-.2-.7c0-.4-.2-.7-.4-.5-.2.1-.4.5-.3.9 0 .4-.3.6-.6.6H252c-1 0-2-.3-2.6-.6a6 6 0 0 0-2.9-.5c-1 .1-2.7 0-3.7-.4-2.7-.8-4.2-1-5.5-1-.6.1-1.2 0-1.2-.3s1-.6 2.5-.8c2.7-.3 3.2-1 1-1.5l-2.5-1c-.6-.4-1.5-.5-2-.3-.6.2-1.2.2-1.4 0-.2-.3-1.4-.4-2.7-.3-2.5.2-4-.3-1.6-.6.7 0 1.3-.4 1.4-.6.2-.7-1.9-1.7-3-1.6-.6 0-1-.2-1.3-.7-.4-.6-1-.9-2.3-1a9 9 0 0 1-4-1.5 8 8 0 0 0-2.9-1.3 11 11 0 0 1-3.8-1.4c-1.1-.6-3-1-5.2-1-.8-.1-2-.5-7.6-2.1a12 12 0 0 0-3.8-.5l-3.7-.3c-1-.2-1.8-.2-2-.1 0 .2-.6 0-1.1-.3a3 3 0 0 0-1.8-.5l-4.2.3c-1.9 0-3.4.3-3.4.5s-.5.4-1.2.3c-1 0-1.2.1-1 .7.1.4.4.7.7.7.2 0 .4.1.4.4 0 .3 0 .5-.2.5-.6 0-.3.7.7 1.6.7.5 1 1.1 1 2 0 1 .2 1.2 1.3 1 .8 0 1.5.1 1.8.4a7 7 0 0 0 3.8 1.8 69 69 0 0 1 4.4.3c.1 0 .9.1 1.6.4 1.9.8 3.9 1.2 6.3 1.3 1.1 0 2.7.5 3.5.9 1.1.5 2.3.6 5 .3 2-.2 3.8-.5 4-.7.8-.4 1.6.2 1.4 1a1 1 0 0 1-1 .4l-1-.2 1 .8c.4.5.7 1 .6 1.2-.1.2-1.5.5-3.1.8-4 .6-4 .6-4 1.5 0 .5 0 .7-.5.5-.4 0-1.2.1-1.8.4-.8.4-1.7.4-2.8 0-2.6-.7-6.9-1-7.2-.4-.2.3 0 .5.6.7.4.1.8.4.8.7 0 .6-.5.5-3.8-.3a31 31 0 0 0-8.8-1.5c-.7.6-.4 1.2.7 1.7a4 4 0 0 1 1.6 1.2c.3.4 1.5 1 2.5 1.1 2 .4 2.2.6 2.2 2.3 0 .5.2.8.5.8.4 0 .5-.4.3-1.2-.2-1-.1-1.2.4-1.3.3 0 .9.4 1.3.8.4.5 1 .9 1.3.8.2 0 .8.5 1.3 1 .5.7 1 1.2 1.2 1.1.3 0 1 .7 1.7 1.5a7 7 0 0 0 1.9 1.7c.3.1.5.4.5.7-.3.7-1.5.7-2.9-.2-2-1.1-4-1.6-4.5-1-.2.3-.4.5-.5.3a12 12 0 0 0-4.1-.9 31 31 0 0 1-8.7-2.3 19 19 0 0 0-7.2-1c-.2.1-.8 0-1.2-.3-2-1.3-3-.3-2.4 2.6.4 2.2.3 2.3-1 1.5-.9-.5-3.9-1.7-4.9-1.9-1.2-.2-4.4-1.3-4.7-1.6-.2-.2-1.2-.5-2.2-.6l-2.2-.5h-2.5l-3.2.4c-.5 0-1.2-.3-1.5-.7-.8-1.1-5.2-2.5-6.3-2-.6.2-1 0-1.2-.5-.4-.8-3.1-1.9-3.6-1.4-.1.2-1.4 0-2.7-.5-2-.7-2.5-.8-2.4-.2 0 .5-.3.6-1.1.5-.8-.2-1.2 0-1.3.5 0 .6-.3.7-1.4.4-1.5-.3-3.5.3-5 1.4l-1.5 1.1c-.6.4-.6.4 0 1 .7.7.7.7-.1.5-.5 0-1.5.1-2.4.5l-2.4 1c-.9.4-1.4.7-3.3 2.3-.5.4-1.4.9-2 1.1a21.2 21.2 0 0 0-9.2 7.5c-.5.7-1.3 1.2-2.3 1.4-1.8.4-5.4 2.7-9 5.9a12 12 0 0 1-3.6 2.4c-.5.1-1.1.5-1.3.8a9 9 0 0 1-2.5 2c-3.2 2-5 3.3-7 4.9a18 18 0 0 1-3.2 2 2337.2 2337.2 0 0 1-12.2 5.3c-.7.3-3.8 1-6.9 1.4-5.3.7-5.6.7-5.6-.2-.1-1.3 2.5-2.7 4.2-2.2.2 0 .5-.2.5-.6v-.1c-.2.4-.4.5-1 .1-1-.5-.6-1.2 1-1.4 1-.1 1.2.2.7 1.2-.2.4.5.6 2.5.6 2.8 0 5.2-.9 11.8-4.4a365 365 0 0 1 3.6-2c3.7-1.8 4.6-2.5 5-3.5.4-1.4 3.2-3.2 5.4-3.5 3.6-.5 4-.7 4.6-2 .3-.7.9-1.3 1.2-1.3.4 0 .9-.6 1-1.3.3-.7.9-1.4 1.3-1.6 1-.5 1.6-1.2 1.6-2 0-.5-4 .4-7.2 1.8-1.2.5-3.1 1.7-4.1 2.6l-2.1 1.6c-.2 0-.8.5-1.5 1-1 1-2.5 1.2-2.6.4 0-.2.4-.5 1-.7l1.7-1.5a6 6 0 0 1 1.8-1.5 7 7 0 0 0 1.9-1c1-.7 1-2.3 0-2.2-.7 0-.9-.6-.3-1 .2-.2.3-.5.1-.7-.1-.2-1.1.2-2.1 1a214.4 214.4 0 0 1-16.9 9.8 68.5 68.5 0 0 1-6.6 3c-.8.3-2 2-2.2 3 0 .6-.5 1-1 1l-1.3.4c-1.6 1-1.9 1.1-1.7 1.7.3.8.1 1-2 1.6-1.5.4-1.7.4-1.8-.2 0-.6.2-.8.9-.9.5 0 1-.3.9-.6 0-.2-.1-.5-.3-.5-1.4 0-2.7-.7-2.3-1.3l2-.7a26 26 0 0 0 8.5-4.4c.9-.8 3.1-2.2 5-3.1a82.5 82.5 0 0 0 10.8-6.2l1.4-.9c.3-.4 4.2-2.8 4.7-2.9.6 0 2.4-1.8 2.3-2.2 0-.6-2.3-.3-3.3.5l-2 1.6c-4.2 3.4-6 4.5-7 4.5h-.8l.7-2c.5-1.3.9-1.8 1.5-1.9.5 0 1.2-.4 1.6-.8.4-.4 1.5-1 2.6-1.5 3.3-1.5 4-2 4-2.6 0-1.4-1.1-1-5.5 1.8-2.5 1.6-5 2.9-5.7 3-1 0-1 0-.8-1 .5-1.8-1.2-2-3.2-.3-1 .9-.9 1.6.4 1.6 1.4 0 2 .6 1.2 1.2-.3.2-.8.9-1 1.4-.4 1-.6 1-1.6.6-2-.8-4-.8-6.7.2-1.4.5-2.7.8-2.8.6-.1-.1 0-.9.2-1.7.5-1.7 1.4-2.3 4.8-3.5 2.4-.9 3.8-1.8 3.8-2.4 0-.5-3.6.2-4.5 1-.3.1-.5 0-.5-.3 0-.2.1-.5.3-.5.2 0 1-.6 1.9-1.1l3.7-2.7c2.3-1.6 2.6-2.6.8-2.4-.8 0-1.1-.1-1.4-1.2-.2-.7-.6-1.2-.8-1.2-.2 0-.2 0 0-.5a.5.5 0 0 1 1 .3c-.3.8 2.3.3 3.6-.8 1.5-1.1 1.8-2 .6-2-.6.1-.9-.2-1.1-1.3-.4-1.4-.4-1.4-1.7-1-.8.2-1.3.3-1.3 0 .2-.6 3.4-2.2 5.5-2.8 2.3-.6 3.6-2.7 1.5-2.4-4 .5-7.5 1.3-7.6 1.8-.3.8-1.4 1.3-2.4 1-.8-.1-.8-.2-.3-1.1.2-.5.7-1 1.2-1 .4 0 .7-.3.6-.6 0-.3.4-.9 1-1.3l1.4-1.3c1.3-1.3 1.8-1.7 2.3-1.7.3 0 1-.4 1.5-.9.4-.4 2.2-1 3.8-1.4 4.1-.9 7.2-2.3 7.7-3.7 0-.3.5-.3 1.3 0 .6.3 1.3.3 1.5.2.1-.2.4 0 .5.3.1.4.4.6.5.5.1-.2.3.2.3.8.1 1.1.2 1.2 1 .7 1.4-.8 1.4-1 .7-2-.5-.7-.6-1-.3-1.2.6-.5.3-1.6-.6-1.8-1-.3-4.7.6-5.1 1.1-.2.2-2 .6-3.8 1a137.3 137.3 0 0 0-10.8 2c-5.1 1.1-6.9 1.8-6.8 2.5 0 .2-1 .6-2.2.7-4 .5-4.7.9-5.3 2.2-.4 1.1-.6 1.2-1.8.9-.7-.2-1.7-.7-2.2-1.1-.4-.5-1-.8-1.4-.8-.7 0-.7 0 0-.5 1-.7 3.1-1 4.1-.5 1 .5 2.7 0 3.1-1 .2-.4.6-.7 1-.8.8 0 3.2-2.9 3-3.3-.2-.1 0-.4.6-.7a98.9 98.9 0 0 0 8.3-4.4c0-.3.4-.7.8-.8a5 5 0 0 0 1.3-1l.6-.6-.8-.5c-.4-.3-1.5-.5-2.4-.4a6 6 0 0 1-2.7-.4c-.6-.2-1.4-.4-1.7-.2-1.8.6-5.3 1-5.4.4a.7.7 0 0 0-.8-.5c-.3 0-.7-.2-.8-.4-.1-.3-.4-.3-.5-.2-.2.2-.3.1-.3-.2 0-.3.2-.7.4-.9.5-.3.5-.3 0-.6-1-.4-8 .4-8.2 1-.1.4-3.3 1.5-7.2 2.5-1.8.4-2.2.7-2 1.3 0 .4.7 1 1.8 1.3 1 .3 2 .8 2.3 1.2.3.3.8.5 1.2.4.8-.4 4.9.3 5.1.8.1.2 0 .4-.2.5-1 .2-4.1.3-4.8.2a13 13 0 0 0-2.2-.2c-.8 0-1.8-.3-2.1-.7-.6-.6-.7-.6-.9 0-.2.7-.3.7-.7 0-.4-.8-.3-1 .4-1.3 1.4-.8 0-1.7-2.4-1.6-2 0-2.7-.2-2.7-.8 0-.6 4-2 7.8-2.8 2-.3 3.8-.8 3.9-1 0-.2.6-.4 1.2-.5.6 0 1.6-.5 2.2-1 .8-.8 1.9-1 5.8-1.5 3.7-.5 4.7-.7 4.7-1.2 0-.9-.8-1-4-.8-4.6.4-8 1.6-9.2 3.2-.8 1.1-1 1.2-1.4.7-.6-.9.1-2 2.3-3.4 1.6-1.2 2.6-2.3 1.6-2l-2.7.3-2.4.2 1-1.5c.4-.8.8-1.8.8-2.2-.1-1-2-1.8-5.5-2.3a20 20 0 0 1-3.3-.5c-.1-.2-1.2-.3-2.3-.3a13 13 0 0 1-3-.3c-.5-.2-2-.4-3.1-.6-3.5-.4-3.8-.5-3.6-1 .1-.5 1.3-.5 3.7-.2.3 0 .6-.1.7-.4.2-.8-.5-1.6-2-2-1.5-.5-1.6-1-.3-1.9 1.4-.9 2-.9 2.2 0 .2.3.7.8 1.1 1 .5.2.9.6.9.8 0 .7.9.6 1 0 0-.5.3-.5 1-.2.5.2 1.2.4 1.5.3.7 0 .7 0 0-.6-.3-.3-1.1-.7-1.7-1-3.1-1-3.8-1.5-3.8-2.3.1-1.6.5-1.7 3.5-.9 1.7.5 3.5.9 4 .8.4 0 .8.1.8.3 0 .6 2 .9 4.1.6 1 0 2 .1 2.5.5.6.5 1.5.5 4 0 3.5-.5 4.2-1.2 2.7-2.4-.8-.6-1.5-.7-5.1-.2a29 29 0 0 0-5.4 1c-.8.4-1.1.3-1.5-.5-.4-.8-.4-1 .3-1.2l1.6-.7c.4-.2 2.4-.6 4.3-.8 4.8-.5 5.3-1.3 2-3.2-1.4-1-2-1-4.5-.7a41 41 0 0 1-5 .3 31 31 0 0 0-4.3.3c-1.5.2-2.2 0-2.5-.4-.4-.5-.3-.7.4-1.2l.8-.5-1.1-.6c-1.7-1-3.9-1-5.3-.3-.6.3-1.8.8-2.6 1l-2.2.7c-.6.2-.9.1-.8-.2 0-.3.4-.7.7-.8.4-.1.7-.7.7-1.2.1-.8.3-1 1.3-.8 1 .2 1.2 0 1.8-1.1.5-1.2.8-1.3 1.9-1.2.8.1 1.3 0 1.4-.4.3-.8 1.6-.8 2.1 0 .3.4.8.6 1.2.4h2c1.5.3 2.4-.4 2-1.5v-.7c.2 0 .5.3.6.7.2.4.7.6 1.3.5 1.3-.1 1.1-.8-.3-1-1-.2-1-.3-.6-1 .2-.5 1-.9 2-1 1-.2 2-.5 2.1-.8l1.4-.7 1-.2-1.4-3c-2.3-5-3.1-6.2-4.3-6a6 6 0 0 1-1.8-.3c-.8-.2-.8-.2.2-.7.9-.4 1.5-1.6 1-2-.9-.6-2.6-.4-3.4.3-.8.8-1.5.8-3 0-.5-.3-.8-.2-1.5.7a4 4 0 0 1-1.1 1.2c-.4 0-1.6-3-1.7-4 0-.3-.3-.6-.5-.6-.3 0-.5 0-.5-.3 0-.2.5-.3 1.2-.3.8 0 1.3-.2 1.2-.5 0-.3.1-.5.2-.5.7.1.8-.2.4-.8-.5-.7-1.2-.8-.8-.1 0 .2 0 .4-.4.4-.6 0-.5-.1 0-1.7l.6-2.1c0-.3.2-.5.5-.5 1.3-.2 1.6-2.4.4-2.7-.5-.1-1-.7-1.2-1.4-1-2.8-1.9-4-3.2-4.5-.8-.3-1.4-.7-1.4-1 .1-.6 1.4-.7 3.8-.3 1 .2 1.8.2 1.9 0v-1.8c-.2-2-1.8-4-2.9-3.5-.5.3-1 0-1.9-1.2-1-1.4-1.2-1.5-2-1-1 .8-1.5.3-1.4-1 0-.7.3-1 1.4-1 1-.2 1.2-.3 1-.9a7 7 0 0 1-.3-3.7c.2-.4-.1-1.1-1.2-2.4l-1.5-1.9.8-.2c.5-.1 1-.5 1-.9a32 32 0 0 0-1.8-7c-.3-.7-.5-1.5-.4-1.7 0-.2-.1-.3-.3-.3a31.5 31.5 0 0 0-4.2-7.6c-.2 0-.7-.3-1-.8-.6-.8-.6-.8 0-.7.4.1.8.4 1 .6.2.5 1.4.4 1.3-.2 0-.2.2-.5.5-.7.5-.2.4-.2-.1-.2-.8 0-1.8-1.3-1.9-2.5 0-.4-.5-1.5-1-2.3l-.8-1.4.7-.6c.4-.3.7-.8.7-1 0-.8 1-.8 1.5-.2.4.5.4.4.2-.3-.2-.5-.2-1 .2-1.3.2-.3.4-.8.4-1.2 0-.7.5-1 .6-.4.1 1 1.7 2.5 3.1 3 2 .5 2.7-.1 1.8-1.8-.3-.6-.5-1.1-.3-1.1 0 0-.2-.7-.7-1.5-.7-1-1-2.2-1.3-4.6-.3-2.4-.3-3.2 0-3.2l.7.4c.4.8 1.6.3 1.9-.7.4-1.4 1-1.3 2.3.3.9 1.2 1 1.3 1.3.7v-3.5c-.5-3.4-.1-4.2 1.9-4.6 2-.3 2.7-.8 2.8-2 0-.5-.1-1.5-.5-2-.5-1-.5-1.1 0-1.2.8-.1 1.4-1 2.1-3.2.7-2.1.6-2.3-1.2-3.5-1.3-.9-1.6-2-.5-2.2 1.7-.2 1.9-.4 1.8-1.2 0-1-6.5-8.7-8.3-9.9-1.4-1-3.3-2.7-2.9-2.7.6 0 3.3 1 5.2 2 1.1.7 2.3 1.2 2.6 1.1.5 0 .7.3.8 1.3a6 6 0 0 0 1.4 3c1.2 1.5 1.3 1.5 2 .6 1-1 1.7-.6 1.8.7 0 1 1.1 2 1.8 1.6L29 74c1.3-.3 1.4-2 0-1.8-.5 0-1.2-.4-2.1-1.6-1.7-2.1-1.8-3.2-.3-3.4 1 0 2.7-1.1 1.8-1.1-.2 0-.1-.2.2-.5.3-.3.6-.5.8-.3.2.1.5 0 .7-.3.2-.2 1-.7 2-.9a38 38 0 0 0 1.5-.5v-1c0-.8.2-1 1.4-1 .8-.1 1.6-.5 1.8-1 .2-.3 1.3-.9 2.3-1.2 2.3-.6 4-1.9 3.8-2.7 0-.3.2-.6.6-.8a2 2 0 0 0 1-1c.1-.3.5-.7.9-.7.5 0 .5-.1 0-.9-1.1-1.3-1.9-1.4-2-.3 0 .5-.2.8-.4.6-.8-.5-3.4 0-3.4.6 0 .5-.6.7-2.4.9-1.4.1-2.7.4-2.8.6-.4.4-.4-.2-.1-1.1 0-.4.7-.8 1.5-.8 1.1-.1 1.2-.3.9-.8-.3-.3-.8-.6-1.3-.5-1 .1-1.3-.3-1-1.5.2-.6.1-1-.1-1.2-.4-.3-.4-.5-.5-1.6 0-1-1.2-1.2-2.6-.6-.7.4-1 .8-1.1 1.7 0 .9-.3 1.2-1.2 1.4-.6.2-1.2.5-1.3.7-.1.3-.7.3-1.3 0-.8-.2-1.4-.1-2.3.4-.6.4-2 .9-3 1.1-1.4.4-1.9.3-2.4-.2-.6-.8-.6-.8-.1-1.7.3-.5 1-1 1.6-1 .6-.1 1.6-.6 2.2-1 .6-.5 1.2-.8 1.4-.6.5.3 2.2-1 2-1.5-.5-.8 2.7-2.5 4.8-2.5 1.2 0 3.4-1.5 3.3-2.3 0-.4.5-.8 1.4-1 .8-.3 1.7-.8 2-1.1.3-.4.9-.7 1.2-.7.5 0 2.1-2.2 2-2.8 0-.1-.4-.5-1-.8-1-.5-2-2.2-1.7-2.7 0-.1 1 0 1.9.3 1 .3 2.8.3 4.1 0l2.4-.3-.2-1.5c0-1.2-.3-1.6-.9-2l-1.7-1.1a4 4 0 0 0-1.6-.8c-.4 0-1-.2-1.4-.5-.7-.5-.7-.5 0-1 1-.7 1.1-1.3.1-1.5-1-.2-3.9-.3-5.7-.3-1 0-1.7-.2-2.3-.8-.4-.6-1-1-1.2-1-.6.1-3.6-1.6-3.7-2 0-.7 1.3-.5 1.5.2.2.4.5.6.7.4.3-.2.4-.1.3.2-.1.4 0 .5.2.3s.8 0 1.3.3c.6.3 1.2.4 1.5.2.3-.1 2-.5 3.8-.7 3.8-.6 4.2-.7 3.6-1.6-.2-.4-.3-.8-.2-1 0-.2 1.6-.5 3.4-.8l3.4-.5v-.7c-.4-1.1.8-1.5 1.8-.5.8.7 1.3.8 5 .3l6-.7c1.3 0 2-.3 2.2-.7.1-.5.3-.6.6-.1.2.3.7.5 1 .4.2 0 0-.3-.6-1a5.7 5.7 0 0 1-1.3-1.9c-.3-.8-.6-1-1.5-1-1.5 0-1.6-.8-.3-1.5 1-.6 3.5-.1 3.6.7 0 .2.7 1.2 1.6 2.4 1.5 1.9 2.3 2.4 2.6 1.5.2-.5 12.6-2.3 18.3-2.6a26 26 0 0 0 8.5-2.2c1.2-1.5 9.2-.8 12 1 .5.3 1 1 1 1.7.1.7.4 1.4.6 1.6.9.8 3 1.1 4 .6.6-.3 1.1-.3 1.7 0 .4.4 1.5.5 2.4.4.9 0 2.1.1 2.8.5.7.3 2 .6 3.2.6 1 0 2.4.3 3 .5.5.3 1.6.8 2.4 1 1.2.4 1.5.7 1.7 2 .2 1.1.4 1.3 1.4 1.3.7 0 1.4.3 1.6.7.3.3.6.6.9.6.2 0 .6.3.8.8.2.5.7.9 1.2.8.4 0 .8.2 1 .5.3.5 4.8 3.1 5.4 3l2.1 1c1.4.8 1.9 1.3 2.1 2.4.4 1.8 1.6 3.6 2.3 3.5.4 0 .7.4.8.9.2.5.8 1.2 1.4 1.5a7 7 0 0 1 1.8 2c.4.7 1 1.6 1.6 2 .6.2 1 .8 1 1.2 0 .3.5 1 1 1.3.5.4.8 1.1.9 1.8 0 .6.3 1.4.6 1.7 1.5 1.6 3 3.7 3 4.2-.1.8.7 2.3 2 3.7 1.4 1.7 1.4 2.2.4 4.8-.5 1.3-.5 1.3.5 4.9l1.3 4.4c.2.4.4 1.8.5 3 .2 2.8.4 3.4 1.3 3.3.8 0 .8.5 0 1.4-.6.7-.6 2.6.1 4.6.3 1 .3 1.6 0 2.7-.4 1.8 0 2.7 1 2.9.5 0 1.5.4 2.4.7.8.3 1.6.5 1.8.4.4 0 .8-2.2.7-3.4 0-.9 0-1 .5-.5.7.8.8.4.2-1.3-.6-1.5-1.4-1.9-2-.8-.7 1.3-1.1 0-1.3-4.3-.1-4.3 0-5.1.5-5.2.2 0 .2.2.1.5 0 .3 0 .5.3.4.3 0 .7-.8 1-1.7.3-1 .9-1.8 1.2-2 .5-.3.6-.6.3-2-.5-2.2.3-2.3 1.6-.2 1.2 1.8 1.8 1.8 3.8.3 1.5-1.3 1.8-2.1 1.2-3.7-.3-.6-.4-1.8-.3-3.4a8 8 0 0 0-.8-4.6c-2-5-2-5-1.4-4.4.5.6 1.2.3 1.1-.6 0-.2-.8-1.4-1.6-2.5-1.5-1.9-1.6-2-1-2.3.7-.2 1.5.6 2.4 2.4.3.6.4.6 1-.2 1-1.2 1.8-1.2 1.8 0 .1 1.3.7 2.4 2 4 .5.7 1 1.8 1 2.5.2 1.4.7 2 1.3 1.1.6-1 2.3 0 2.4 1.3 0 .1-.4.6-1 1-.4.5-1.1 1.3-1.4 2-.5 1-.5 1 .2 1.2.3.1.7.6.8 1.2.1.6.5 1 .8 1 .6.1.7.5.9 1.9.3 3.1 2.3 4 4.2 2 .7-.9 1.1-1 1.7-.8a6 6 0 0 0 2.6 0c1.8-.2 2-.4 2.9-2.4.5-1.1 1.3-2.5 1.7-3 2.4-2.8 4-4.9 4.5-6 .9-1.8 1.3-1.7 1.5.2 0 1.3 0 1.8-.7 2.4-2.9 2.7-6.2 9-6 11.3 0 .6-.1 1.1-.3 1.2-.2 0-.5.3-.7.7-.2.4-.7.7-1 .6-.5-.3-2 2.2-1.6 3 .1.4.8.7 1.7.8l3.8.3c5 .5 7 .7 8.7.7 2.5.1 3.3.3 3.1.8 0 .2-1 .3-2 .2-3.1-.2-7.7 0-8.5.6-.6.4-.6.6-.2 1.2.5.8 1.3.7 1.8 0 .2-.5.3-.5.5 0 .8 3 1 3.4 1.7 3.5.5 0 1 .2 1.1.4.2.2 1-.1 2-.6 2-1 3-1.2 3.7-.5.3.3 1.3.4 2.4.2 1.2-.1 2.3 0 2.9.4.8.5 1.5.5 3.4 0a16 16 0 0 1 4.1-.4c1.4.1 1.6.3 1.5 1 0 .8.1 1 1 .8.7 0 1.5.2 1.8.6.6.6.9.6 2.1 0 3.1-1.6 4.2-1.9 5.2-1.3a44 44 0 0 0 6.1 1.6 4 4 0 0 0 1.9-.8c1.4-1 4-1.5 13.8-2.9l8.5-1.3c.4-.1 1.1 0 1.6.3.5.2 1 .3 1 .1.2-.2 1.4-.5 2.8-.7 6-.8 6-.8 5.7-1.9-.1-.9 0-1 1.2-1.3 1.5-.3 3 .3 3 1.2 0 .6 1.3 1.1 1.7.7.4-.5.1-1.1-.6-1.2-.7 0-.7 0-.1-.7.3-.3 2.8-1 5.4-1.4a145 145 0 0 0 7.4-1.5c.5-.1 1.2-.6 1.4-1 .3-.6.7-.7 2.4-.4 1.9.2 9.7-.9 12-1.7a25 25 0 0 1 7.3-1.3c-.1.2-.9.5-1.6.5-.8 0-1.4.3-1.4.6 0 .2-.5.5-1 .6-.6 0-1.8.4-2.7.8a133.9 133.9 0 0 1-6.3 2.5c.2.5 4.5-.3 6-1.1 1-.5 7-2 8.8-2.4 6.3-1 12.5-2.1 13.4-2.6.7-.3 3-.8 5.2-1.2a57.5 57.5 0 0 0 8.3-2c1-.2 1.3-.6 1.3-1 0-.5.2-.7.5-.7.4 0 .5-.2.5-.8 0-.7-.3-1-.6-.8-.4.2-.6 0-.5-.3.1-1 2.6-2.2 6.4-2.9 4.3-.8 4.3-.8 6.2-2.3a7 7 0 0 1 2.9-1.3c.8-.1 2.2-.6 3.1-1 1.6-.8 4.4-1 5-.3 0 .2-.5.5-1.4.8-.8.3-1.9.8-2.5 1.2-.5.5-1.5.9-2.1.9-.6 0-1.8.4-2.7.8-.8.4-2.7 1-4.1 1.4-1.5.4-2.7 1-2.7 1.2 0 .2-.9.4-1.9.4-2.3.1-2.8.7-2.1 2.2.3.8.7 1 1.7.9.6-.1 1.3-.4 1.4-.6 0-.2.6-.4 1.2-.5.6 0 1-.3 1-.5 0-.3.3-.3.9-.1.5.2 1.3.2 1.8 0 1.3-.3 3.5-1.7 3.5-2.1 0-.3.3-.5.6-.5.6 0 .7 0 .3.5-.3.4.7.3 3.4-.2 2.3-.4 4-1 4.3-1.3.2-.3 1.7-.8 3.3-1.1a9 9 0 0 0 4-1.6c.7-.6 1.9-1.1 3-1.2A5 5 0 0 0 388 53a6 6 0 0 1 2.7-1.2c1-.1 2-.4 2.2-.6.3-.4.7-.5 6.1-2.2l5.8-1.9a69 69 0 0 0 8.2-3.8 194.1 194.1 0 0 1 9.6-4.4 464.8 464.8 0 0 0 5.6-2 73.6 73.6 0 0 0 16.6-9.8c3.4-3 3.7-3.2 3.8-2 0 .9.2 1 1.4.5.7-.3 2.4-1.2 3.6-2.1 1.3-1 2.5-1.7 2.8-1.7.2 0 .6-.5 1-1.1.4-.6 1-1 1.3-1.1.9-.1 2-1.5 3.4-4.3.9-1.7 1.5-2.4 2-2.5 1-.1 1 0 .7 1.4-.5 1.7-.4 3.7 0 3.6 1.3-.2 1.6 0 1.7 1.3 0 1.2.2 1.4.7 1 .3-.1.7-.6.9-1 .2-.7.5-.9 1.4-.7 1.4.2 2.3-.3 3.1-1.8.3-.5.8-.9 1-.8.2.1 1-.7 1.6-1.8 1-1.6 1.4-2 1.8-1.7 1 .7 2.2-.7 4.7-5.7.3-.6.7-1.1.8-1.1.4 0 .5 1.7.1 2.1-.6.8-2 5.8-1.9 6.5.3.6.4.6 1-.2 1-1.2 1.7-1.1 1.8.3a8 8 0 0 1-.2 2.2c-.4 1.5.2 2.1 1.2 1.3.4-.3.8-.5.8-.3 0 .6 3.9-.4 4.5-1.2.3-.4.8-.7 1.1-.7.7-.1 1.6-1 2.5-2.4.4-.6.9-.8 1.2-.7.8.3 2.3-.9 2.2-1.8 0-.3.1-.5.3-.3.2.1.4.9.3 1.6 0 .8.1 1.5.3 1.7.5.3 2.1-.6 1.9-1.1-.2-.3-.1-.4.1-.2.2.1.8-.4 1.2-1.3.8-1.4 2-1.8 1.7-.5-.1.3 0 .4.2.2l2-1.4c1.4-.9 1.8-1.5 2.4-3.2.6-2 1.4-2.8 1.4-1.7 0 .3 1.1-.5 2.4-1.7 2.6-2.4 2.9-2.5 3.2-1.3.2.8-.1 2-.7 2a35.5 35.5 0 0 0-6 7.8c-.1 0-.7.7-1.2 1.6-.5.8-1 1.5-1.2 1.5-.2 0-.4.2-.5.5 0 .2-.8 1-1.7 1.6-1.6 1.3-3.2 3.5-3.1 4.4 0 .3-.6 1.2-1.3 2-.7.9-1.3 1.7-1.3 2 0 .2-.2.4-.5.4-.2 0-.7.5-1 1-.4.6-1.5 1.4-2.5 1.8-1 .4-2 1-2.2 1.4a31 31 0 0 1-6.4 5.3c-2.5 1.5-2.9 2-2.6 3.2l-.1 1c-.2 0-.3.3-.3.7 0 .9.3.8 2.8-1 2-1.6 3.6-2.2 3.7-1.5 0 .8 2.3 0 3.5-1.2a53 53 0 0 1 6-4.1l-.9 1.7c-1 1.5-2.4 3.2-4.8 5.5-.7.6-.8 1-.6 2.2.1 1 0 1.6-.4 2-1 1.1-1.3 2-.9 4.2l.5 2.4c.3.6 1.3-.7 1.3-1.4 0-.4 0-.7.2-.8.1 0 .6-.6 1-1.3.8-1.1 1.2-1.5 1.5-1.2l1.1-2.1a22 22 0 0 1 1.3-2.6 53.6 53.6 0 0 1 3-8.5 4 4 0 0 0 .4-2.2c-.2-1.1 0-1.4 1.1-2.2 1-.7 1.4-.8 1.4-.3 0 .3-.1.9-.4 1.2-.2.4-.4 1-.3 1.4 0 .5-.2 1.3-.4 1.9l-.2 1c.1 0 0 1-.4 2.2-.5 1.5-.6 2.3-.3 2.5.2.1.5-.1.7-.6.4-1.2 1.5-.9 1.7.5.1 1 0 1.5-.8 2.3-.8.9-1.5 3.4-1.1 4 0 0 .6-.1 1-.4 1.4-.8 2.2.6 2 3.5 0 .4.2.8.6.8.7 0 2.1-2.2 2-3.3 0-.6.8-1.3 1.3-1 .1.1 0 1.5-.2 3.1-.3 1.8-.3 3-.1 3.3.1.2 1.2.4 2.2.4 1.6 0 2-.2 2.8-1.1.7-1 1.5-1.3 4.2-1.8.6 0 1.2.2 1.4.7.3.4.5.5.5.2 0-.5.4-1 2-1.5.8-.3 1-.2 1.2.4.4 1.5 2.4 1.8 4.4.8 1.7-1 3-1 2.6 0 0 .3-.5.5-.9.6-.5 0-.7.3-.6.9 0 .6-.2.9-1.1 1-.7.2-1.4.6-1.5.8-.2.3-.6.6-1 .6s-.9.6-1 1.3l-1 1.5c-.4.2-.6.7-.5 1.4l.3 1.4c.1 1 3.7-.5 3.6-1.6 0-.2.2-.4.4-.4.7 0 2.8-3.6 3.2-5.4.2-1 .6-1.7.8-1.7.2 0 .4-.2.4-.4 0-.6 1.8-2.3 2.1-2 .4.3.4 1 0 3l-.5 2 1 .2c.5 0 2-.1 3.4-.5 2-.4 2.8-1 4.4-2.5l2.1-2.2c.2-.5 1.5-1.7 1.5-1.4 0 .7-.3 1.7-.7 1.8-.2 0-.4.3-.5.7 0 .4-.4.8-.8.8-.3 0-.6.4-.5.8 0 .4-.2.7-.5.8-.2 0-.8.7-1.4 1.5-.5.9-1.1 1.6-1.3 1.6a5 5 0 0 0-1.4 1.3l-1.8 1.7c-.4.2-.8.7-1 1l-2 2.2c-1.2 1-1.6 1.7-1.4 1.9.2.1.9-.2 1.5-.7 1.6-1.5 3-2 3-1.1.1.4 0 .7-.2.7l-.4 1c0 .8-.7 1.4-5.3 5.1-1.7 1.4-2.1 2.1-2.5 4.6-.3 2.4-.4 3.6-.2 3.5 1-.3 0 1.7-1.8 3.5-1 .9-2 4.3-2.3 7.2 0 .7-.4 1.6-.8 2-.5.7-.6 1.2-.4 2.6.2 1.3.1 1.7-.4 2a24 24 0 0 0-4.5 8.8c-.6 2.7-1.6 4.2-2.5 3.8-.7-.3-.7-1.6-.1-3.5.3-1 .4-1.7.2-1.8-.4-.3-3 .4-4.4 1.3-1.3.7-1.5 2-.3 1.8.4 0 1 .3 1.5.8.7.6.8.9.5 1.6-.2.4-.5.7-.6.6-.5-.4-3.6 1.7-4.3 2.8a9 9 0 0 1-2 2c-.7.6-1.5 1.5-1.7 2-.2.6-.5 1-.8 1-.2 0-.5.3-.6.7-.1.3 0 .4.2.1.3-.2.2.1-.2.8-.4 1-.5 1.4-.2 1.5.3.1.5.8.6 1.4.1 1 0 1.4-.6 1.9-.4.3-.7.8-.7 1 0 .2-.2 1-.6 1.8a933.3 933.3 0 0 0-2.4 5.2l-.7 1.8 1 .9.8.9 1.8-3.4c1-1.8 2-3.8 2.1-4.4a4 4 0 0 1 1-1.7c.5-.4.9-.9.8-1 0-.6 1.4-1.7 2.1-1.8.4 0 .6.2.5.7 0 .4 0 .7.2.7.7-.1 1.3-.8 1.2-1.4 0-.3.2-.8.6-1 .3-.2.6-.6.5-1 0-.4.1-.7.3-.7.4 0 1.4-2.8 1.4-4.1 0-.6.4-1.6.8-2.2.5-.6.7-1.3.6-1.4-.3-.4 1.2-3.2 1.7-3.3.3 0 .3.1 0 .9-.3.5-.4 1-.2 1.2.1.2 0 .2-.3.1-.4-.2-.6.1-.6 1v1.6c.1.2-.3 1.5-1 2.7a21 21 0 0 0-1.6 4c-.5 2.3-.8 3.2-2.1 6.2l-1.1 3.3c0 .4-.1.8-.3 1l-.7 1.7c-.2.7-.8 1.7-1.3 2.3-.6.5-1 1.3-1 1.7 0 .5 0 .6-.5.1-.6-.6-2.6.4-3.4 1.8-.7 1.1-1.5 2-2.4 2.7-.7.5-.8.8-.5 1.4.3.6.2 1.3 0 2.5-.3 1-.6 1.6-.7 1.5-.3-.4-1.4 1.6-1.3 2.5 0 .5-.3 1-.6 1.2a6 6 0 0 0-1.5 2.3c-1.1 2.7-3 4.8-2.5 2.7.1-.6.2-1.2 0-1.5v-.3c.5 0 2-1.4 1.7-1.8 0-.2 0-.4.3-.4s.5-.4.5-.8c-.1-1.3.7-4 1.3-4.4.4-.3.8-1.3 1.1-2.2l.5-1.6-1 .1c-1.1.2-2.8 1.3-2.7 1.8 0 .3-.2.5-.4.4-.4 0-3 1.4-3.3 1.9-.4.8-5 4-6.3 4.3-1 .2-1.8 1-1.6 1.4.1.2 0 .4 0 .4-.7.1-.9.2-1 .7-.1.3-.5.3-1 .1-.4-.2-1 0-1.6.3-1 .7-1 1.1-.3 1.4.3.2.5.6.6 1 0 .3.2.7.5.8.3.1.5.5.5.7.1.8-2.8 3-5.3 4.2-1.3.6-3 1.7-3.7 2.4-.8.7-1.7 1.3-2 1.3-.3 0-.8.4-1 .9-.2.5-.8.8-2 .8-2 .1-2.6.5-2.5 1.6 0 1-1.3 2.5-3.5 3.8-2.3 1.4-4.8 4-4.6 4.7.1.2.7.3 1.4.2h.7c-1.7 1.3-2.7 2.3-3 3.3-.3.7-.6 1.2-.8 1.1l-1.2.6c-.5.4-1 .7-1.2.7-.8.1-3 2.6-3.2 3.8-.2.7-.4 1.2-.6 1.1-.1-.1-.2 0-.2.3s-.2.4-.4.3c-.3-.2-.5.2-.6.9 0 .6-.4 1.3-.7 1.6a2 2 0 0 0-.6 1.5c0 1.3-1.1 2.2-2.7 2.1-1.5 0-2 .7-1.2 1.7s.5 1.7-.5 1.4c-.6-.1-.8 0-.7.5 0 1.2-1.3 3.4-2 3.4-1.2 0-1.4.2-1.4 1v1.3c0 .4-.2.6-.3.5-.2-.1-.3.1-.2.5 0 .4-.2.8-.5.8-.2 0-.4.3-.3.5.1.2-.1.7-.5 1a3 3 0 0 0-.7 1.1c0 .2-.5.3-1 .2-.9 0-1.4.2-2 1-1 1.2-4.3 2.7-4.4 2 0-.3-.5-.4-1-.4-1 .1-1.2.3-1.1 1.1 0 .5 0 1-.2 1s-.3.4-.3 1c0 .5.2.9.4.9.1 0 .4.3.5.7.3 1-.7 3-1.6 3.2-.4 0-.9.7-1.2 1.5-.3.9-.7 1.6-1 1.6-.3 0-.6.2-.6.4s-.6.8-1.1 1.2l-3 2.6c-1 1-2.6 1.9-3.4 2.1-1.5.5-4.5 2.8-4.8 3.7-.1.3-.5.5-.8.6-.4 0-.7.4-.8.8 0 .4-.6 1-1.3 1.3-.6.4-1 .8-1 1 .3.6 5.2-.4 7.2-1.5 3.5-1.9 6.5-3.9 7.5-4.8.5-.6 2-1.4 3.4-1.8a15.9 15.9 0 0 0 4.8-2.2c1.2-.5 4.8-3 5-3.5.3-1 2.7-2.9 3.7-3 .5 0 1.3-.5 1.6-.9.3-.4.7-.8 1-.8.3 0 .7-.4.8-.8a6 6 0 0 1 1.9-1.7 20 20 0 0 0 3.3-2.9c2-2.2 7.3-7 8-7.3a8.7 8.7 0 0 0 3.4-2.9c.4-.6 1.5-1.9 2.5-2.8 1-.9 2.9-3 4.2-4.5 1.4-1.6 2.7-3 2.9-3 .2 0 .5-.4.7-.9.2-.4 1.2-1.5 2.2-2.4 1-.9 2.3-2.5 3-3.6 1.2-2.1 7.5-9.8 8-9.9l1.2-2a7.9 7.9 0 0 1 2.5-3c.8-.4 1.8-1.5 2.3-2.3.4-.8 1.1-1.6 1.4-1.7.4-.1.6-.5.6-.8 0-1.2.4-1.3 1.2-.2l.9 1.1-1 1.5a74.6 74.6 0 0 0-3 4.8c-.5 0-1.3 2.3-1.2 3.3 0 1.2-.8 2.6-1.6 2.7-.4 0-.9.5-1.1 1-.3.6-.9 1.3-1.4 1.7-.4.4-.8 1-.8 1.3a9 9 0 0 1-2.4 4.1c-.3.2-.8.7-1 1.1-.3.5-.6.7-.6.5 0-.2-.5.2-1 1-.5.7-1 1.3-1.2 1.3l-2 2.2a11 11 0 0 1-2 2.1c-.6 0-2.3 1.7-2.3 2.1a57.6 57.6 0 0 0-4.8 4.2c-1.9 1.6-3.6 3-3.9 3-.3 0-.8.6-1.2 1.3a11 11 0 0 1-1.7 2.3 10.4 10.4 0 0 0-2.9 3.6c-.2.6-.6 1-.7 1-.2-.2-.7.3-1.2 1l-1.4 1.4c-.2 0-1 1-1.9 2.2a24.5 24.5 0 0 1-4.3 5 29.3 29.3 0 0 1-5 4.5c-.2 0-.8.5-1.2 1-.5.7-1.6 1.6-2.4 2-1 .6-1.8 1.3-2 1.6a16 16 0 0 1-7 3.8c-1.5.3-2.6.8-2.8 1.2-.3.5-.8.9-1.2 1l-1.2.6a30.5 30.5 0 0 1-9.1 3.7c-.7.1-1.6.4-2 .7-.4.3-2.3.8-4.1 1.2a15 15 0 0 0-3.9 1.2 9 9 0 0 1-4.5 2.4c-.9 0-2 .5-2.6 1-1.3 1-4.8 2.6-7 3.2l-1.3.4 1-1c.7-.7 1.4-1 1.9-1 .7.2.7.2 0-.5-.7-.8-2.3-.5-4.4.9-.9.6-1 .7-.5 1.2 1 1 .7 1.3-1 2-3.8 1.6-4.7 1.7-6 .8-1.2-1-1.8-1-4.7.2l-1.7.7c-.4 0-.8.4-.9.7 0 .3-.7.7-1.4 1-1.4.5-1.4.5-4.8.8-1.4 0-2.6.3-2.7.4 0 .2-.7.1-1.3-.1-1.6-.7-3.5 0-3 1 .7 1.5 5 2.2 4.5.8 0-.4 0-.7.4-.8.4 0 .7.2.9.5 0 .4.4.7.7.6.4 0 .4.1 0 1-.5 1-.5 1 1.7.7a6 6 0 0 1 2.9.2c.3.2 1.7.3 3 .1 1.8-.2 2.4-.4 2.5-1 0-.7.6-.8 4-1 7-.2 8.1-.1 9 1.2l.8 1.1-2.2.8c-1.2.4-2.6.6-3.1.5a45.1 45.1 0 0 0-12 2c-1 .6-2.1.8-9.7 2.3a30 30 0 0 0-6.4 1.9c-1 .5-1.8.7-2 .5-.8-.6-2.7-.1-3 .7-.3.4-.7.6-1.2.5-.8-.2-2.3.9-2.2 1.6 0 .5 1.4 1.1 2.8 1.2 1.2.1 4.4 1.7 4.4 2.3 0 .2-1.2.4-2.7.5-10.9.4-14 .8-13.9 2 .1.9-2.6 1.3-6 1a29 29 0 0 0-4-.2l-6.6.3c-5.6.1-9 .8-8.6 1.6.2.2-.2.4-.8.4-2 .1-2.5.3-2.2 1 .2.5.1.8-.1.7-.2 0-.4-.4-.4-.6-.1-.5-3-1.3-4-1.2-.7 0-.7.1 0 .6.3.4.5 1 .4 1.4-.2.7-.4.9-1.5.7-2.6-.3-4.7-.1-5.3.5-.4.3-1.3.7-2 .9a54.8 54.8 0 0 0-5.6 1.5c-.4.2-.8.6-.9.8 0 .3-.7.6-1.5.7-1.6.1-2.3.7-2 1.6 0 .3-.1.7-.3.9-.3.1-.4 0-.3-.3.2-.6-1-1.5-1.5-1-.2.2-.5-1-.5-2.5 0-.7 0-.7-2.3.2-2 .8-4.4 2.3-4.4 2.8 0 .7-1.6 1.6-4.2 2.2-1.5.3-3.2 1-3.9 1.4l-1.8 1a7 7 0 0 0-1.7 1.1c-.7.7-2.6 1.3-7 2.1a62 62 0 0 0-7 1.8l-3.3 1.5c-3.1 1.4-3.6 1.7-3.8 2.2 0 .2-.6.5-1.3.5-.6.1-1.3.4-1.5.7-.1.4-1 .6-2.2.6-1 0-1.9.3-1.9.5 0 .3-1.3.6-1.6.3Zm52.2-20.5c.4-.4.4-.5 0-.9-.6-.5-2-.4-2.3 0v1c.3.7 1.7.7 2.3 0Zm56.8-10.4c1-.2 2-.2 2.3 0 .4.2.6.2.5-.1 0-.3-.3-.6-.6-.8-.3-.1-.9-.7-1.3-1.2-.5-.8-1.2-1-3.7-1.2l-4.5-.4c-.8 0-1.4 0-1.3.2 0 .2-.4.4-1.1.5-.7 0-1.3.4-1.2.6 0 1 1 1.7 2.3 1.6.6 0 1.7.2 2.2.5.6.4 1.2.5 1.4.3.1-.2.4-.1.7.1.5.6 1.6.8 2.1.5a6 6 0 0 1 2.2-.6Zm18.8-13.8c.4-.4.3-.5-.4-.5-.5.1-.8.3-.6.6.2.5.5.5 1-.1Zm-52.4 4.2h-.6c0 .2.1.3.5.3.3 0 .4-.2.1-.3Zm7.7-2.3c.4-.6-.2-.7-2.6-.4-1.2.2-2.2 0-3.6-.8-1.3-.6-2-.8-2.3-.5-.1.3-.6.6-.9.8-.5.2-.5.3.4 1 .6.5 1.7.7 3.5.7h2.7c.2.4 2.6-.3 2.8-.8ZM302 258c-.4-.3-1.1-.5-1.5-.4-.8 0-.8.1-.2.7.4.3 1 .5 1.6.4l1-.1-.9-.6Zm79-11.2c-.1-.7-1-1.1-1.7-.7-.2.1-.3.4-.3.6 0 .4.4.5 1.7.7.1 0 .2-.2.2-.6Zm-133.5 4.3c0-.2.1-.3.3-.2.2.2.3 0 .3-.2 0-.5-.8-.6-3.9-.8-1.6 0-1.7 0-1.1.7.9 1.1 4.5 1.6 4.4.5Zm-63 6.3c0-.2-.3-.3-.5-.1-.2.2-.1.4.2.7.5.4.7.1.4-.6Zm57.7-7a.6.6 0 0 0-.5-.4c-.2 0-.2.2-.1.5l.5.4c.2 0 .2-.3.1-.5ZM83.7 266.5c.1-.2.6-.6 1.1-.8.5-.3.9-.7.9-1 0-.2-.4-.3-.9 0l-1.8.8c-1.2.4-1.3 1.7-.2 1.6.5 0 .9-.3 1-.6Zm-18.3 1.3-.5-.1c-.3 0-.5.2-.5.5 0 .2.3.3.5.1l.5-.5ZM78 266c.5-.7.5-.8 0-1.4-.4-.6-.7-.6-1.2-.1-.6.6-.7 1.6-.3 2.1.4.5.9.3 1.5-.6Zm21.6-3.3c.5-.8 1.1-1.4 1.3-1.4.8 0 3-2.3 2.8-2.8-.2-.3-.4-.2-.5.2-.1.5-.3.5-.7.2-.9-1-6.8 3-7 4.8 0 .4.4.6 1.5.4 1.3-.1 1.9-.4 2.6-1.4Zm-19.3 1.1c-.3-.1-.5 0-.6.1-.1.2 0 .3.4.2.4 0 .4-.2.2-.3ZM201 249.3c-.6-1.2-2.4-1.8-5.9-2.1-1.5-.1-4.2-.6-5.8-1-3.5-1-3.4-1-3.4-.4 0 .4 3.5 2.2 4.2 2.1.2 0 .4.1.5.3 0 .7 1.8 1 5 1 1.5-.1 2.5 0 2.8.5.3.4 1.1.6 1.8.6 1.2-.1 1.3-.2.8-1Zm-21 1.8c-.4-.3-1.4-.6-2.2-.7-1.2 0-1.3 0-.7.5.5.5 1.5.7 3.3.7.2 0 0-.2-.4-.5Zm5.8-1.5c-1.5-.8-4-.8-2.9 0 .8.6 2.4 1 3.4.9.7-.1.6-.2-.5-.9Zm-79.3 7.2c0-.3-.3-.5-.7-.4-.3 0-.7.3-.7.5-.1.3.1.5.6.4.4 0 .8-.3.8-.5Zm-9.3-1.6-.5-.2c-.3 0-.4.3-.3.5.2.5.8.2.8-.3Zm84.4-10.7c-.6-.6-2.1-.8-2.1-.3 0 .4.7.7 1.8.7.3 0 .5-.2.3-.4Zm-74.6 5.1c0-.2.6-.6 1.3-.9.6-.2 1.3-.7 1.5-1 .6-1.3-.6-1.3-1.8-.1l-1.6 1.1c-.2 0-.7.4-1 .8-.5.7-.5.8.5.7.5 0 1-.3 1.1-.6Zm-34.7.8c1.2-.8 1.2-.8-1-.3-2.5.6-3 .8-2.9 1.5 0 .6 2.2 0 3.9-1.2Zm-4.3-1s-.2-.1-.4 0c-.1 0-.3.2-.2.4 0 .3.1.4.3.2l.3-.5Zm7.1-.3c.4-.2.7-.5.7-.8 0-.7-1.5-.3-1.9.5-.4.9 0 1 1.2.3Zm-6-.2c0-.4.4-1 .8-1.4.5-.4.9-1 .9-1.5 0-.7-.2-.8-1.4-.7-.7 0-2 .4-2.7.6-1.2.4-1.5.7-1.5 1.6 0 1 0 1.1.8 1.1 1.4 0 1.5 0 2 .6.6.7 1.2.6 1.2-.3Zm-7.8.2c0-.3-.3-.5-.7-.4-.3 0-.6.3-.6.5 0 .3.4.5.7.4.3 0 .6-.3.6-.5Zm3.4-.4c0-.6-.9-.9-1.4-.5-.8.6-.5 1.2.5 1 .6 0 1-.2 1-.5Zm17.8-2.8c.7-.3 1.4-.7 1.4-1 .3-.6-3.8.6-5 1.5-.8.8-.8.8.7.4a98 98 0 0 0 2.9-1Zm-9-1c-.2-.3-.5-.5-.7-.5-.3 0-.5.3-.4.6 0 .2.3.4.6.4.4 0 .6-.3.5-.6Zm1.6-1.1c-.2 0-.6 0-.8.2-.5.3-.5.4 0 .8.2.2.6.1.8-.3.3-.4.3-.6 0-.7Zm10.1-2.2c0-.2 0-.5.2-.6.2-.1 0-.3-.4-.4-.5 0-1.1 0-1.4.3-.6.4-.6.4.2.8 1 .5 1.7.5 1.4 0Zm4.8-2c0-.3-.3-.4-.5-.2l-.8.4c-.2 0-.2.2-.1.4.2.5 1.4 0 1.4-.7Zm-22.8-1.7a8.7 8.7 0 0 0 4-2c.7-.7 1.5-1.4 2-1.5.9-.4 1-1.4 0-1.6-2.2-.5-2.8-.4-2.6.4.4 1.2-1.2 2-4.2 2.4-2.3.3-6 2.2-6 3 .2 1.1.4 1.1 6.8-.7Zm9.9-3.2c0-.3-.6-.5-1.2-.5-1 0-1.2.2-1.2.8 0 .6.4.7 1.3.4.6-.1 1.1-.4 1.1-.7Zm1.1-2.6c.1-.4-.3-.6-1.1-.5-1 .1-1.3 0-1.5-.8-.2-.6-.5-.9-1.2-.8-1 .1-1.1.4-.7 1.7.2.5.7.7 1.4.6.7 0 1.4 0 1.7.3.6.5 1.3.3 1.4-.5Zm356.3-41.5c.2-.4.4-1 .3-1.2-.2-.6.7-1.4 1.8-1.5a2 2 0 0 0 1.5-1.1c.2-.6.6-1 .9-1 .2 0 .4-.5.5-.9 0-.4.5-1 .9-1.3.4-.3.6-.7.5-1-.2-.8-1.9-.3-2.3.7a1 1 0 0 1-1.1.6c-.5 0-1 .2-1.4.8l-1.3 1.3c-.7.5-2.3 3.2-2.3 4.2 0 1.7 1.3 2 2 .4ZM66.1 231c.3-.6.2-.6-.4-.3l-1.2.4c-.2 0-.4.3-.3.6 0 .7 1.5.1 1.9-.7Zm-22.4-9.7c-.4-.6-1.9-.7-1.8 0 0 .7.4.9 1.3.8.7-.2.8-.3.5-.8Zm-14-7c-.8-.6-1.5-.5-1.2 0 .1.3.6.4 1 .4.5 0 .5-.2.1-.5Zm-5.5-1c-1.2-.3-1.6-.2-1.6.2 0 .5 1.6.8 2 .4.2-.2 0-.4-.4-.6Zm7-1.3c.4-.7-.3-1-1.7-.7-.5.1-.6.4-.5.8.2.6 1.9.6 2.2-.1Zm2.5-.2c-.1-.2-.7-.3-1.2-.2l-1 .1 1 .3c1.3.3 1.5.3 1.2-.2Zm14-8.2c0-.3-.1-.5-.3-.4-.2 0-.3.2-.3.5 0 .2.2.4.4.4s.3-.3.3-.5Zm-19.4-6.8c.3 0 .3-.2-.2-.7-.8-.7-3.3-.6-4 .2-.3.3-.2.5.6.7.5 0 1 .2 1.2.3.2 0 .7 0 1.1-.2l1.3-.3Zm4-.5c.3-.3.4-.5.3-.5l-1.6-.1c-1.3 0-1.5 0-1.5.7 0 .8 2.1.8 2.8 0Zm426.2-65a.7.7 0 0 1 0-.8c.5-.4.4-1.2-.2-1.1-.2 0-.4.5-.3 1.2 0 .7.2 1.2.4 1.2s.2-.3.1-.5Zm34-5c.2-1 0-1-1 0l-.8.8h.9c.4-.1.9-.5 1-.9Zm-1.6-5c.4-.3.9-.4 1.3-.2 1.3 1 4.3-1.7 5.2-4.8l.5-1.5-1.6.4a4 4 0 0 0-2.1 1.5c-.4.6-1 1.1-1.2 1.1a1 1 0 0 0-.7.6c-.1.3-.3.4-.4.3-.2-.1-.8.6-1.4 1.6-1.1 1.7-1 2.2.4 1Zm-466 49.5-.4-.9c-.3-.5-1-.8-2.3-.8-1.8 0-1.9 0-1.4.8 1 1.6 1.5 1.9 2.8 1.4l1.3-.5Zm-6-26.7c-.4-.5-1 0-1 .6s1.2.8 1.3.2c0-.2-.1-.6-.3-.8Zm-.5-1.9c0-.6-.9-2.3-1.3-2.7-1-.8-1.9 1.5-.9 2.8 1 1 2.3 1 2.2 0Zm-2.5-5c-.6-1.3-1.2-1.2-1 .3 0 .8.4 1.2 1.2 1.1.3 0 .2-.4-.2-1.3Zm453.9-54.5c0-.4-.2-.7-.4-.7s-.3.4-.3.8.2.7.4.7.3-.4.3-.8Zm-215.2 6.5a17 17 0 0 1 2.6-1c.9-.2 1.7-.7 1.9-1 .3-.9 1-1 2-.5.5.4 4.8-.7 5.2-1.3l-.4-1a105.4 105.4 0 0 0-16.8 2.1c-1.7.4-4 2-4 2.6 0 .1.9.5 1.9.8 2 .5 5.9.2 7.6-.7Zm17-4.4c.9-.3 1.6-1 1.4-1.3-.5-1-5.8.5-5.7 1.6 0 .5 1.6.7 2.8.2l1.6-.5ZM16.9 110.3c-.3-3.6-.7-5.7-1-5.7-.2 0-.3.2-.1.5.1.2 0 .5-.3.5-.5 0-.8 1.4-.4 1.6.2 0 .4.8.6 1.7.8 4.7 1.5 5.5 1.2 1.4Zm314-34.6c.8-.5 1.2-.6 2-.1 1 .4 1.6.3 3.4-.3a43 43 0 0 1 5.9-1.4c2-.4 4-.9 4.2-1.1.2-.3 2.3-.7 4.5-1 2.3-.2 4.7-.8 5.5-1.1.7-.4 2.2-1 3.2-1.3a8 8 0 0 0 2.4-1.2c.4-.3 1.7-1 3-1.4 1.5-.6 2.4-1.1 2.3-1.5 0-.7-6.3.4-6.5 1.1-.1.3-2 .8-4.2 1.1-4.2.7-11 2.4-11.4 2.9l-4.6 1c-2.4.3-4.7.8-5 1.1a9 9 0 0 1-2.6.8c-1 .2-2.2.7-2.6 1-.5.5-1 .9-1.3.9-.6 0-.6.8 0 1.1.6.3 1 .2 1.9-.6Zm-47 2.3c0-.3-.2-.5-.4-.5-.1 0-.3.3-.2.5 0 .3.1.5.3.5.2 0 .3-.3.3-.5Zm10.5-1c2.4-.8 1-1.3-2-.7l-3.8.7c-.7.1-1.1.4-.9.6.5.3 4.5 0 6.7-.7Zm2.8-.6c0-.2-.2-.4-.6-.4-.5.1-.6.2-.2.5.7.5.6.5.8 0ZM201.8 83c1.6-1.4 1.7-2.5.2-2.3-1 .1-2.9 2.2-2.8 3.2 0 .8 1.3.3 2.6-.9Zm169.4-19.1c.3-.4.3-.5-.3-.7-.7-.3-1.3.1-1.2.8 0 .6 1 .5 1.5-.1ZM485.8 50l1-2.3.4-1.2c0-.5-1.7 0-2.1.7-.4.6-2 1.3-3.2 1.6-.2 0-.2.2 0 .3l-.1 1.2c-.3 1 0 1.2.6.3.2-.4.4-.4.8.1.7 1.1 2 .7 2.6-.7Zm-290 32.8c.5-.9.4-2-.2-2-.5.1-2 1.3-1.9 1.7 0 .5.8 1.2 1.2 1 .2 0 .6-.4.8-.7ZM16.1 101.6c-.3-.4-.3-.3-.3.2 0 1 .5 1.5.6.8 0-.3 0-.8-.3-1Zm338.6-38.1c0-.4-.3-.7-.6-.7-.4 0-.5.6-.1 1.2.4.5.7.2.7-.5Zm127.4-21c0-.2.2-.4.4-.4.8-.1.3-1.2-.5-1.3-.6 0-.7.1-.6 1.1 0 .7.2 1.2.4 1.2s.3-.3.3-.5Zm-447.6 48c0-.2-.2-.4-.3-.3-.2 0-.3.2-.1.4 0 .3.3.5.3.5.1 0 .2-.3.1-.5Zm126-15.4c0-.7-.3-1.5-.5-1.7-.7-.5-1-.4-.9.6a3 3 0 0 1-.2 1.4c-.5.8 0 1.6.8 1.3.5-.1.7-.6.7-1.6Zm13.8-.8-.7-1.2c-.5-.3-.3 1 .2 1.6.6.8 1 .5.5-.4Zm-142 14.3c-.9-.7-1.3-.3-.6.6.2.4.6.5.8.3.4-.2.3-.4-.2-.9Zm7.6-8.2c.8.9 1.8.4 4.6-2.1 1.5-1.3 2.8-2.5 3-2.5.5 0 1.3-2.3 1-2.8-.1-.3-.6-.6-1.1-.7-.5 0-1-.2-1.2-.4-.2-.1-.4 0-.3.2 0 .7-1.7 1.4-3.7 1.5-1.3.1-1.8.4-2 1-.5 1.1-4.7 2.7-5.9 2.2-.6-.3-1-.2-1.2.2-.2.4 0 .9.9 1.7 1.3 1.3 5 2.4 5.3 1.6.1-.3.3-.3.6 0Zm113.2-14c.8-1.6.8-1.9.2-3.1-.5-1.2-.4-1.5 1.4-2 1.8-.6 2.1-1.4 1.3-4a33.9 33.9 0 0 0-6.3-12.6c-3.1-3.8-4.4-5.2-4.8-5.1l-.9-.9c-.4-.5-.8-.8-1-.8a36.3 36.3 0 0 0-8.2-5.7s-1.2-.5-2.3-1.2c-1.2-.6-2.2-1-2.3-.9-.2.2-.5.1-.7 0-.2-.3-1.3-.8-2.5-1.1-1-.3-2-.8-2-1 0-.3-.3-.2-.6 0-.2.3-.7.5-1 .4-1.5-.3-5-1.1-6.9-1.7a30.3 30.3 0 0 0-13-.7 26 26 0 0 1-7.7 0c-2.2-.8-4-.8-5.2-.2-1.6.7-1.8 1.2-1.2 2.2.4.8 1.2.8 8 .2 4-.4 8.1-.7 8.9-.6 7.3.3 11.3 1 12.8 1.9.9.5 1 .7.7 1-.3.4-1 .4-1.6.2-1.9-.6-4.6-.5-4.8 0-.3.8 1 1.3 4.4 1.8 1.7.2 3.6.7 4.3 1.1l4.6 2.6c1.8 1 3.7 2.2 4.2 2.8.5.5 1.8 1.6 2.9 2.3 1 .7 2.5 2 3.2 3l3.6 4.3 3 3.8c.6 1.2 1.2 1.3 1.6.2.6-1.4 1-.9 1.1 2 .2 2.6.3 3 1 3.3.5.2 1 .8 1 1.3.2.5.6 1 1 1.1.7.2.8.6.8 2.2 0 1 1.7 5.3 2 5.2.2 0 .6-.6 1-1.4ZM34.7 74.8c.5-.5.5-.7.2-1.5-.6-1.2-2-1-2.2.4l.1 1.2c.2.1.3.3.2.6-.2.5.9.1 1.7-.7Zm2.4-2.4c.1-.4-.1-.6-.7-.5-.7 0-.7.1-.1.6.3.4.6.6.7.6l.1-.7Zm93.7-12.9c0-.3 0-.8-.4-1a2 2 0 0 1-.6-1.1c0-.5 0-.5.5 0 .6.5.6.4.2-.2a8 8 0 0 0-1.8-1.6l-1.3-.9-.7 1.3a5 5 0 0 0-.7 1.7c0 .2.6.7 1.3 1.1l1.7 1c.8.5 1.6.4 1.8-.3Zm350-41.6c.4-.8.6-1.6.6-2 0-.9-1-.3-1.9 1.3-.7 1.2-.8 1.6-.4 2 .8.5 1.1.3 1.8-1.3Zm-347 39c.1-.8-.5-.5-.7.3 0 .5 0 .7.3.6.2-.1.4-.5.4-.8Zm-1.3-1.2c.2-.8 0-1.1-.9-2-1.5-1.4-5.5-4-6-4-.8.1-.5 1 .5 1.7.5.4 1.2 1 1.5 1.5.9 1.4 2.9 2.5 3.2 1.8.2-.4.4-.2.4.7.1 1.5 1 1.7 1.3.3Zm-9.3.2c.1-.4 0-1.2-.3-1.8-.4-.8-.8-1-2.1-1.1-1.7-.1-3.6.7-3.6 1.5 0 .3.4.6.8.8a29 29 0 0 0 4.9 1.3c.1 0 .3-.3.3-.7Zm-84 6.5c.6-.4.5-.5-.4-.3-.5.1-1 .4-1 .6.1.4.7.3 1.5-.3Zm77.1-10.7c-.8-.6-3.4-.7-3.4-.1 0 .3-.2.4-.5.3-.4-.1-.4 0-.2.2.2.1 1.4.3 2.6.2 1.5-.1 2-.2 1.5-.6ZM49 30.2c-.7-1-3-2.7-3.5-2.6-.4 0 0 1.1 1 2.5.8 1.3 1.1 1.5 2.2 1.4l1.2-.1-.9-1.2Zm214.6 263.3c.3-.3 1-.7 1.5-.9.6-.2 1.5-.7 2.1-1.1.7-.5 1.2-.6 1.3-.4.2.3 0 .5-.1.6l-.8.2c-.2 0-.5.3-.7.7-.3.3-1.2.8-2.1 1-1.4.4-1.6.4-1.2 0Zm11.5-1.2c0-.3.2-.5.4-.6.3 0 .6.2.7.4.1.3 0 .5-.4.6-.4 0-.7-.2-.7-.4Zm3-4.6c-.3-.5-.3-.6.3-.4.6.2.8 0 .9-.5.2-.8.6-1 1.4-.4.4.4.4.5-.1 1-.8 1-2 1-2.5.3Zm-53.3 6c.2-.4.5-.6.6-.4 0 0 0 .4-.4.6-.4.3-.4.2-.2-.3Zm114-19.7c-.7-.3-.7-.4-.3-.8.7-.7 2.5 0 1.9.7-.5.6-.5.6-1.6.1Zm-115.6 12.8c-.4-.3-.4-.4 0-.6.2-.2.6-.2.8 0 .3.2.3.4 0 .6-.2.2-.6.2-.8 0Zm3.6-.3c.2-.1.6-.2.8 0 .2 0 0 .2-.4.2s-.6 0-.4-.2Zm-5.9 0c-.4-.3-.4-.4 0-.4.3 0 .7.1.8.4.3.5-.1.6-.8 0Zm21.6-2.4c-.7-.5-.7-2 0-2.3.5-.2 2 1.6 1.7 2.2-.1.5-1 .6-1.7 0Zm-7.3.5c-.3 0-.6-.4-.6-.8 0-.8 1-1.4 1.9-1.1l1.6.2c1.3 0 1.6 1 .4 1.2-.5 0-1.3.2-1.8.4a3 3 0 0 1-1.5.1Zm-23.5 1.6-1.1-.2 1.1-.5c.8-.4 1.3-.3 2 .2l.7.6h-.8l-1.9-.1Zm144.7-16.5c-.2-.3-.2-.6-.2-.7.1-.1.3 0 .4.4.3.9.1 1-.2.3Zm1.8-.4-1.6-.4 1.3-.3c1.3-.4 2.9.1 2.5.8-.2.4-.1.4-2.2 0Zm5.7-.4c-.1-.3 0-.5.3-.5.2 0 .5.1.5.4 0 .2-.1.5-.3.5l-.5-.4ZM261 278.7c1.1-1 5.8-2 6-1.1 0 .3-2 .9-3.1.8-.2 0-.4.2-.4.4 0 .3-.7.6-1.7.7l-1.8.2 1-1Zm-68.2 7.2c.2-.4.5-.6.6-.4 0 .1 0 .4-.4.6-.4.3-.4.3-.2-.2Zm85.3-12.5c.2-.6-.7-.9-2.1-.7-.7 0-1.3 0-1.3-.4 0-.2.2-.5.4-.5l1-.3c.4-.1 1.1 0 1.6.3s1 .6 1.3.5c.8 0 .6.8-.2 1.1-.4.2-.7.2-.7 0ZM38 299.3c-.4-.2-.1-.5 1-1 2.4-1 5-1.7 4.8-1.1 0 .3-.5.5-.9.5-.4.1-1 .4-1.3.7-.8.7-2.8 1.2-3.6.9ZM282.8 268c-.2-.3-.2-.6-.1-.7 0-.2.2 0 .3.4.3.8.1 1-.2.3ZM37 295c0-.2.3-.8.7-1.2.5-.7.8-.7 1.8-.4 1 .4 1.1.5.6 1-.5.8-3 1.1-3 .6Zm171.1-20.4c-.3-.3-.2-.5.6-.8 1.3-.5 2.3-.4 2.3.2 0 .6-2.3 1.1-2.9.6Zm62.8-11.5c-.7 0-1.9-.4-2.7-.6-1.1-.2-1.5-.2-1.6.3-.2.5-.3.5-.8 0-1-1-1.9-1.4-3.1-1.1-.8.1-1.3 0-1.4-.5-.4-.9-1.7-1.1-2.4-.4-.4.5-.8.5-1.8 0a15 15 0 0 0-5.9-1.6 3 3 0 0 1-1.7-.3 20 20 0 0 0-5.2-1.5c-1.9-.3-1.7-1 .3-.9 1.2 0 2-.1 2.3-.5.4-.6 1.6-.4 3.3.7.5.3 1.5.6 2 .5.7 0 1.8 0 2.5.2 2 .6 2.1.6 3.4 0 .6-.2 1.2-.2 1.3 0 .3.5 3 .6 3.6 0 .3-.2.7-.3.9-.1l1.9 1c.9.3 2 .9 2.3 1.1a5 5 0 0 0 1.8.8c.6.1 1.5.6 2 1a5 5 0 0 0 2 1c.6 0 1.3.3 1.6.5.6.4-2.8.8-4.6.4ZM66.7 285.6c0-.6.2-.8 1.3-1.3 1.1-.6 1.1.3 0 1-1.2.8-1.2.8-1.3.3Zm148-18.5-1.3-.4 1-.7c.8-.5 1-.5 1.9.4.8 1 .9 1 .3 1-.3.1-1.2 0-1.9-.3Zm11.6-1.1-1-.8c0-.2-.4-.3-.8-.1-.3.2-.6 0-.6-.3 0-.4.3-.5.9-.5.5.1 1 0 1-.2-.1-.6 2.7-1.6 4-1.5.7 0 1.2-.2 1.5-.7.8-1.4 2-1.1 2.6.5.2.7.1 1-.4 1.2l-.7.4.8.2c1 .2 1.3 1.1.5 1.1-.3 0-.7 0-.9-.2-.4-.3-2.2 0-2.5.5-.3.5-3.5.8-4.4.4Zm1-.9c-.4-.7-1.3-.8-1.2 0 0 .3.6.6 1.4.7.2 0 .1-.3-.1-.7Zm-6.2 1c-1.2 0-1.8-.2-1.7-.6.1-.2.6-.5 1-.6a2 2 0 0 0 1-.8c0-.5.2-.5.2 0 0 .2.3.5.6.4.6 0 1.3 1.1.9 1.5l-2 .1Zm15.4-1.8c0-.6.6-.6 1.2-.1.4.3.4.4-.3.5-.5 0-.9-.1-1-.4Zm-23 .5-1.2-.5 1.3-.1c.8 0 1.4 0 1.5.2.4.7-.5.9-1.7.4Zm6.1-1.6c0-.5.6-.8.8-.4.1.3 0 .5-.3.5l-.5-.1Zm-184 17.3c-1.5-.6-1.6-.7-.7-.8.5 0 1.3 0 1.8.2 1 .4 2.7-.5 2.6-1.5 0-.6.2-.7 1.1-.5.7 0 1.5.3 1.7.5.6.4.6.4-1.7 1.6-2 1-2.9 1.2-4.8.5Zm166.6-19c-.8-1.5 0-3.4 1.2-2.5.3.2.4 1.2.4 3 0 .7-1.2.4-1.6-.4ZM76.4 276c0-.2.2-.5.5-.7.8-.6 1-.5.6.3-.4.9-1 1-1 .4Zm353.3-41c-.7-.6-.3-1.5.8-1.6.8-.1 1.5.5 1.3 1-.3.5-1.7.9-2.1.5Zm-231.2 24.7c0-.2 0-.5.2-.5s.4.2.6.4c.1.3 0 .5-.3.5a.5.5 0 0 1-.5-.4Zm242-28.4c.7-.6 1.5-1.1 1.9-1.2.6 0 .6 0 0 1-.4.6-1.2 1-1.9 1.1l-1 .2 1-1.1Zm-215.6 24c-1.3-.4-2.6-.6-3-.6-1.8.2-.2-.9 2-1.3 2.2-.5 2.3-.4 3.5 1 1.3 1.4 1.3 1.4.5 1.5l-3-.6Zm-182.6 21c-.3-1-.5-3.7-.2-4 .1-.1.2 0 .1.2 0 .3.2.6.7.8.8.2.9.2.4.8-.3.4-.5 1-.4 1.2 0 .5-.5 1.4-.6 1Zm390.9-44.8c-.4-.4-.4-.4.2-.3.4 0 .7 0 .7-.3s0-.3.3-.2c.2.1.3 0 .3-.2s.1-.4.3-.5c.5 0 1.6-.6 2.4-1 .3-.3.7-.2.8.1.4.7-.4 1.5-1 1-.4-.5-1.1 0-.8.5 0 .2-.2.4-.7.4a4 4 0 0 0-1.4.5c-.4.3-.9.2-1.1 0Zm-1.6-.3c0-.2.1-.4.4-.5.3 0 .5.2.5.4 0 .3-.2.5-.4.6a.5.5 0 0 1-.5-.5ZM35.8 275.3a3 3 0 0 0-1.5-.6c-1-.1-1.3-.4-1.4-1 0-1.6.8-2 2-1 1.3 1.3 2.8 1.8 2.8.9 0-.3 0-.5.1-.3.1.1.2.7.1 1.2 0 .7-.4 1-1 1.1-.5 0-1 0-1.1-.3Zm182.5-20.6c-.2-.1-.2-.5-.1-.7.1-.5 1-.1 1 .5.1.5-.6.6-1 .2Zm11.5-1.7c-.8-.4-1.5-.4-2 0-.8.4-1 .3-1.2-.4-.2-1 .4-1.6 1-.9.2.3 1 .4 1.6.2 1.2-.2 2.2.3 2.3 1.2 0 .5-.2.5-1.7-.1ZM46 273.6c-.5-.2-.6-.3-.1-.7.3-.2.8-.3 1.2-.3.6.1.6.2.1.7-.3.3-.8.5-1.2.3Zm398-45.1c0-.2.3-.6.6-.8.4-.2.6-.1.5.3 0 .7-1 1.1-1.1.5Zm-229.4 25.4c-.3-.7 0-.8 1-.5 1 .3 1 .4 0 .7-.5.1-.9 0-1-.2Zm18.8-2.5c-.1-.3-.2-.6 0-.8.1-.4 2.3.1 2.4.6 0 .6-2 .7-2.4.2Zm212-24.5c0-1.5 3.8-4.5 4-3 0 .6-.7 1.6-1.2 1.7a4 4 0 0 0-1.3.8c-1 1-1.4 1-1.4.5ZM220 250.2c-2.7-.7-2.9-.8-2-1.4a2 2 0 0 1 1.3-.2c.4.2 1.1.3 1.5.2 1-.3 2.7.7 2.5 1.4-.2.6-1.1.6-3.3 0ZM40.3 270.3c-.2-1.5 1.8-3.1 4-3.2 1.1 0 .4 1.6-1.1 2.4l-2.2 1.2c-.5.3-.7.2-.7-.4Zm84.8-9.5c-.2-.2 0-.4.2-.5.3 0 .6.2.7.4.1.3 0 .5-.2.5a.8.8 0 0 1-.7-.4Zm-98.2 9.5c-.2-.4-.3-1.2-.4-1.8 0-.5-.2-1.2-.4-1.5-.9-1 0-1.5 3.1-1.6 5.5-.3 7.2-.7 11-2.4 5.2-2.3 5.3-2.3 5.4-1.8 0 .3-.5.8-1.1 1.2-.7.4-1.7 1.6-2.2 2.6-.6 1-1 1.6-1 1.3.4-1.2-3.1-1-4 .3-.4.4-1.8 1-5.5 2a9.5 9.5 0 0 0-3.5 1.6c-.8 1-1.1 1-1.4.1Zm415.9-47.9c-.4-.1-1.1-.2-1.6 0-1.5.4-.4-1.1 1.2-1.7 1.7-.6 1.4-.5 3.1-1.5.8-.4 1.5-.8 1.6-.7l.2-.4c0-.7 1-1.2 3-1.6 1-.1 2-.5 2.3-.8a8 8 0 0 1 1.6-1.3c.7-.3 1.6-1.2 2-1.9.4-.7.9-1.3 1.1-1.3.3 0 .6-.4.8-.8.2-.5.7-.8 1.1-.7.6.1.8-.1 1-.6.2-2 5-8.8 6-8.9.4 0 .7-.3.8-.7.2-.8 2.4-2.7 2.7-2.3.2.3-1.3 2.8-1.8 2.8a6 6 0 0 0-1.3 1.9c-.6 1-1.2 1.8-1.4 1.8-.2 0-.7.7-1.2 1.5a5 5 0 0 1-1.7 2c-.5.2-1 .6-1 1-.1.7-3 4.3-5.7 7.2l-2.5 3c-.4.8-1 1.1-2.2 1.2-1.1.1-2.4.7-3.6 1.6-1.8 1.3-3.3 1.8-4.5 1.2Zm-220.3 24.3c-.7-.2-1.6-.7-2-1-.5-.4-1.5-.8-2.2-.8-1.8 0-2.5-1-1-1l1.4-.5c0-.2.6 0 1.3.6.8.6 1.4.7 2.3.4.7-.3 1.3-.3 1.3-.1l.2 1.1c.3 1.3-.1 1.7-1.3 1.3ZM50 264.7c-.5 0-1.2-.3-1.4-.6-.4-.4-.3-.5.4-.9l1.5-.8c.5-.3.7-.2 1 .6.1.5.4 1 .7.9.2 0 .5.1.6.4.2.4-1 .6-2.8.4Zm4.4-.5c-.3-.6.8-1.7 1.4-1.4.6.2.8 1 .4 1.1l-.9.4c-.4.2-.8.1-.9-.1ZM21 258.7c0-.4.3-.9.8-1l2.3-1.3c.8-.5 2.4-1.2 3.5-1.4 1.2-.3 2.6-.9 3.3-1.3.6-.5 2-1 3-1 1.1-.2 2.6-.6 3.3-1 1-.4 1.7-.5 2.6-.1 1.6.5 1.4 1.2-.3 1.4-3.3.4-15.3 4.3-16.8 5.5-1.3 1-1.6 1-1.7.2Zm-5.3-2.4c-.2-.4.3-1.3 1-1.6.2-.1.2.1-.2.9-.5 1.1-.6 1.2-.8.7Zm-1.4-.3c0-.1.3-.2.6 0 .2 0 .2.2-.2.2-.3.1-.5 0-.4-.2Zm32.5-4.4c-1.1-.5-.8-.8.5-.5.7.1 1 .3.7.5-.3.2-.8.2-1.2 0Zm-5-9.5c-.3-.9.2-1.6.7-1 .2.3.2.7 0 1-.4.5-.5.5-.7 0Zm4-1.1c0-.2.5-.4 1-.5a34 34 0 0 0 2.5-.7c1.3-.5 1.5-.4 1.6.2 0 .6-.4.8-2.6 1-1.5.2-2.7.2-2.6 0Zm427.6-49.6c0-.3 0-.6.3-.8.1-.2.3 0 .3.4s0 .8-.3.8c-.1 0-.3-.2-.3-.4Zm2-3c.7-1.3 1.1-1.5 1.2-.5 0 .7-.3 1.2-1.2 1.6-.6.2-.6.2 0-1ZM47.6 237c.1-.3.4-.6.7-.6.2 0 .4.2.4.4 0 .3-.2.5-.6.6-.3 0-.5-.2-.5-.4Zm-5 .2c.3-.5 2-.8 2-.3 0 .2-.5.5-1 .5-.7.1-1.1 0-1-.2Zm434.3-50c0-.5.8-1.7 2-2.7 1.6-1.3 1.6-1.2.6.6-.4 1-.8 1.8-.7 2 0 .2-.4.4-1 .4-.5 0-1 0-1-.3ZM48.4 232.5c0-.2.2-.3.5-.2l.5.4s-.2.2-.5.2a.4.4 0 0 1-.5-.4ZM480.5 183c-.1-.2 0-.4.3-.5.5 0 .6.2.2.7-.1.2-.4 0-.5-.2Zm1.8-2c-.4-.4-.3-.9.3-1.2.5-.2.6-.1.6.4 0 .9-.5 1.3-.9.9ZM46.7 230c.1-.1.4-.2.6 0 .3 0 .2.2-.1.2-.4 0-.6 0-.5-.2Zm-34.6-14.8c-.2-.5.6-.6 1.8-.2.7.3.7.4-.4.5-.6.1-1.2 0-1.4-.3Zm-8.4-3.6c-.5-.6-.3-1 .6-1.2.7 0 1 .2 1 .6 0 .7-1.2 1.2-1.6.6Zm2.2-1.4a2 2 0 0 1 1-.5c.6 0 .6 0 .3.4a2 2 0 0 1-1.1.6c-.5 0-.6 0-.2-.5Zm483.9-57c-.4-.6-.3-1.2.2-1.3.2 0 .2.2.2.5-.1.2 0 .5.1.4.2 0 .4.2.4.5 0 .6-.4.6-1 0ZM22 183.2c-.8-1.1-1-1.5-.6-1.8a1 1 0 0 1 1-.4c.3 0 .6 0 .7-.3.2-.6 1.3-.7 1.5-.1.4.7 0 2.4-.4 2.3-.3 0-.6.3-.8.7-.3.8-.4.8-1.4-.4ZM9.4 138.6c-.1-.3 0-.5.1-.5.2 0 .3.2.4.4l-.1.5-.4-.4Zm-1.9-32c0-.5 0-1.1-.3-1.2-.3-.1-.3-.2 0-.3.5 0 .7.5.5 1.6-.2 1-.2 1-.2 0Zm163-22c-.2-1.4-.1-1.5.4-.8.3.3.5 1 .5 1.4-.3 1.3-.8 1-1-.6Zm153.2-16.4c0-.3.7-.6 1.4-.6 1-.1 1.2 0 1 .3-.7.7-2.6 1-2.4.3Zm3.9-.8c0-.2.1-.5.3-.5l1.1-.5c.6-.4.7-.3.6.2 0 .8-2 1.5-2 .8Zm-76 8c0-.2.2-.5.5-.5.2 0 .5.2.5.4 0 .3-.2.5-.4.5a.5.5 0 0 1-.5-.4Zm2.7-.2c-.8-.2-.8-.3.7-.8 1.8-.5 2.6-.3 2 .5-.5.5-1.3.6-2.7.3Zm77.6-8.6.3-.6c.2-.1.3 0 .3.2 0 .3 0 .5-.2.5l-.4-.1Zm-74 7c0-.1.1-.3.4-.5.3-.2.4-.2.3.1-.2.5-.7.8-.8.4Zm4.1-1.2c-.2-.5 0-.8 1.2-1.1 2-.6 3.1-.6 3.1-.2 0 .3-.2.6-.6.6-.4 0-.8.3-.9.5-.3.5-2.5.7-2.8.2ZM4.6 99.9c-.2-.4 0-.7.2-.7.5 0 .7.7.3 1.1-.2.2-.4 0-.5-.4ZM275 68.5c0-.3.2-.5.3-.5.2 0 .4.2.4.4 0 .3-.1.5-.3.5-.2 0-.3-.2-.4-.4Zm18.9-3.8c-.4-.4-1.1-.7-1.6-.7-.4 0-.8-.1-.9-.3 0-.6 2-1.5 5.7-2.3l2.6-.6c1.2-.3 1.2.5 0 1a2 2 0 0 0-.9.7c-.1.2-.7.5-1.1.6-.5 0-1 .3-.9.6 0 .3-.3.4-.8.3-.5-.1-.8 0-.9.5-.2 1-.3 1-1.2.2Zm8.2-4c.2-.3 1.2-.8 2.2-1l2.2-.6a67 67 0 0 1 11.5-1.3c-.2.4-.4.5-6.6 1.5l-7.5 1.5c-1.5.3-2 .3-1.8-.1ZM8.4 93.7c-.9-.1-1-.8-.2-1.2.4-.2.8 0 1 .5l.2.9-1-.2Zm330.3-38c-.4-.4-.4-.6 0-.6.2 0 .6.1.8.3.4.3.4.4 0 .7-.2.2-.6 0-.8-.3ZM167.5 75c-.4-.3-.4-.5-.1-1 .2-.5.4-.5.7-.1.3.3.3.7.2 1-.2.3-.5.3-.8.1Zm151.1-17.2c0-.2.5-.4 1.2-.5.7 0 1.2 0 1.1.3-.1.5-2.3.7-2.3.2Zm4.7-.6c0-.2.5-.4 1.1-.5 1.4-.1 1.3.3 0 .7-.6.1-1 0-1.1-.2Zm-1.7 0c.2-.2.6-.2.8-.1.2.1 0 .2-.4.3-.4 0-.6 0-.4-.2Zm24.2-3c0-.5 2.6-1.3 3-1 1 .6.4 1.2-1.2 1.3-1 0-1.8-.1-1.8-.3Zm-342 36c-1-.6-2-2-2.8-3.5-.8-1.4-.4-1.7.5-.5.4.5 1 1 1.5 1 .6.1 1 .6 1.4 1.4.8 2 .6 2.5-.6 1.6ZM27 59.6c-.1-.7 0-1 .3-.8.3.2.7.2 1 .2.2 0 .4.3.5.7 0 .4-.3.7-.8.8-.7 0-1-.2-1-1Zm4.9-3c-.2-.2 0-.4.5-.4.4 0 .9 0 1 .3.2.3 0 .5-.5.6-.5 0-1-.2-1-.4ZM508.5 2.2v-.5l.4.4c.2.3.1.5 0 .5-.3 0-.4-.2-.4-.4ZM172 37c-.7-.9-1-1.6-.8-2.2.1-.7.3-.6 1 1 1.4 2.7 1.4 3.2-.2 1.2ZM33.4 53.3a.5.5 0 0 1-.3-.6c.2-.5 1.1-.2 1.2.4 0 .5-.2.6-.9.2Zm126.1-31c-.3-.6.3-1.2.7-.9.4.3.2 1.2-.2 1.3-.2 0-.4-.2-.5-.4ZM136 21c-.1-.2 0-.5.1-.5.2 0 .4.2.4.5l-.1.4c-.1 0-.3-.1-.4-.4Zm-1.4-.3c0-.3 0-.5.2-.5s.4 0 .4.2l-.3.5c-.2.2-.3.1-.3-.2Zm-.8-.2c-.1-.2-.3-.5-.3-.8 0-.3.2-.3.4 0s.4.6.3.8c-.1.1-.3.1-.4 0Zm-95.3 9.8c.8-.8 2.1-1.4 2.2-.8 0 .2-.1.4-.3.5l-1.3.4c-.7.2-.9.2-.6-.1Zm-11-.8c-3.8 0-3-.8 1.2-1.3 2.1-.3 3.8-.7 3.9-1 .2-.9 1.3-1 2.1-.3l.8.6-.7.7c-.8.8-3.8 1.3-7.4 1.3ZM24.1 24c-.3-.4-.1-1 .3-1 .3 0 .5-.4.5-.7 0-.5 0-.5.1 0 .2.3.4.4.5.3.2-.2.3 0 .4.6 0 .7-.2 1-.8 1l-1-.2Zm0-3.7c.1-.2.4-.2.6 0 .3 0 .2.2-.1.2-.4 0-.6 0-.5-.2Z"/>
  <defs>
    <linearGradient id="a" x1="1.3" x2="548.8" y1="165.9" y2="139.7" gradientUnits="userSpaceOnUse">
      <stop stop-color="#E8FA9B"/>
      <stop offset="1" stop-color="#4E7E75"/>
    </linearGradient>
  </defs>
</svg>
