<svg xmlns="http://www.w3.org/2000/svg" width="513" height="290" fill="none">
  <path fill="url(#a)" d="M359.3 17.4c.2.7.4 1 .5.9.1-.2.6.3 1 1.2.5.9 1 1.5 1.3 1.4.4 0 .5 0 .3.7-.1.5 0 .7.3.8.3.1.3.4.2 1.1-.2.7-.2 1 .1 1 .2.2.5.4.5.7 0 .2 0 .3-.2.2-.2-.1-.2 0 0 .5.2.4.2.7 0 .7s-.2.4.2 1c.4.7.4.9 0 1-.3 0-.3.2.1.6.5.6 1.1-.2.8-1 0-.2 0-.6.2-.7.2-.2.3 0 .3.8 0 .6.2 1 .3.8.1-.2.5-.2.9-.1.5.1.4.3-.5.8-.7.4-1 .9-1 1.3s0 .7-.4.8c-.3 0-.6.6-.7 1.1-.2 1-1.4 2.6-1.9 2.5l-1.7 1a21 21 0 0 1-3.2 1.8c-1 .4-1.7 1-1.7 1.2 0 .3-.4.6-.7.7a7 7 0 0 0-2 1.9 9 9 0 0 1-2 2c-.2 0-.4.3-.5.5 0 .3.1.5.3.5.4-.1.7 2 .3 2.2l-1.3 1c-.7.4-1.5.8-2 .7a3 3 0 0 0-1.5.6l-2.3 1.5c-2.2 1.3-3.3 2.3-3.2 2.7 0 .5 14.7-3.2 18.2-4.6 1.8-.7 2.6-.8 3.5-.4a21.8 21.8 0 0 0 2.4 1c.6.1 1.2.1 1.4-.1.2-.2 4-1.3 8.3-2.4a64.7 64.7 0 0 0 19.2-7.6c.8 0 1.5-.3 1.5-.5 0-.3.2-.4.4-.3.2.2.3 0 .2-.2 0-.3 0-.5.2-.5.5.1 2.7-1.3 2.6-1.7 0-.5 2-1.7 2.8-1.7.3 0 .7-.5.9-1.1.1-.6.5-1.2.8-1.3l2.1-.6c1-.3 2.2-.9 2.7-1.3l2-1.4c.6-.3 1-.7.8-.9-.4-.6.2-1 5-2.8.3 0 .4-.3.3-.6 0-.2 0-.6.4-.8l1-1.4c.4-.7 1.4-1.3 3.6-2l3.7-1.1c.4 0 1-.6 1.4-1 .4-.6.8-.9 1-.6.4.5 1.5.8 1.2.3-.4-.6-.1-.6.8 0 1.8 1 8.9-1.8 9.2-3.7.1-.5 0-1-.1-1-.2 0-.4-.3-.5-.5 0-.2.1-.3.4-.2.3 0 .5-.1.5-.4.1-.8-1.6-.3-2.3.7-.3.4-1.2 1-1.8 1.4l-1.7 1c-.2.1-.5 0-.6-.4-.1-.4-.5-.5-1.3-.2-1 .4-1.1.3-.8-.1.2-.4.3-.8.2-1-.3-.4 1.2-1.2 4.2-2.3 1.7-.6 2.3-.7 2.6-.2.3.4.3.4.2 0-.2-.9 1.6-1.2 2.4-.4.4.4.7.5.6.2 0-.2.9-.5 2.3-.6l4.7-.5a15 15 0 0 1 3.2.1c.6.2 1.4.2 1.8 0 .3-.3.8-.2 1 0 0 .3 0 .3-.3.2-.2-.2-.3-.2-.1.1.3.5 1.8.7 3.4.5 1-.2 1.3 0 1.5.8.2 1 0 1.1-1.6 1.8-1 .5-2.1.8-2.5.9h-.7l.9.5c1.6 1 3 1.1 5.5.8 1.4-.1 3.4 0 4.6.1 2.5.5 10.7-1.4 10.8-2.4 0-.3.3-.5.5-.4.6.4 6-.6 5.6-1-.2-.5-.2-.5 3.5-1.6 2.6-.7 3.7-1.1 7.4-2.9 1.7-.7 2.8-.8 4 0 .6.2.6.5-.2 1.8a7 7 0 0 1-3 2.5 52.3 52.3 0 0 0-6.5 3.5c-1 .7-1.2 1-.9 1.7.2.5.5.7.7.5.2-.2.4-.1.4.1.1.3 0 .6-.3.7-.5.1-.5.2 0 .5.3.2.4.4.2.4s-.2.4 0 .8 0 1-.6 1.7l-1 1 3-.3a45.5 45.5 0 0 0 6.2-1.2l-.3 1.3-.4 1c0-.3-.3 0-.6.4-.2.5-1.3 1.3-2.4 2a13 13 0 0 0-3 1.9c-.6.5-1.5 1-2 1.1-1.6.4-5.2 3-4 3h.9l1 .2c.7 0 .8.5.3 1-.3.2-.8 1-1 1.7-.3.7-.8 1.4-1.1 1.5-.4 0-.8.5-.8.9-.2.5 0 .7 1.5.6h2.6c1.2 0 5.7-1 5.9-1.5.3-.5 3.5-1.4 3.6-1 0 .2 0 .7-.2 1l-.2 1.2c.1.3.2.3.3.2 0-.2.3-.2.6 0 .3.3.4.3.4 0 0-.2 0-.5.3-.5.7-.2.6.4-.2 1.3-.8 1-.6 1.3 1.2 1.5 1.7.2 2.2 1 1.3 2a30 30 0 0 1-9.3 4l-3.3 1.1-.7.5 1 1c.6.4 1.3.8 1.6.8.7-.2 1 .5 1 1.7-.1 1.3-2.1 4-3.1 4.2-.5.1-.7.4-.5.6.2.3.5.4.8.3.5 0 1.3 1 1.4 1.8 0 1 4.4-1 4.6-2 .1-.8 7-4.3 7.8-4l.8.2-.5.8c-.3.4-2.5 1.8-4.9 3-4.3 2.4-5.3 3.6-2.2 2.9 1-.3 1.8-.2 2.2.1.5.5 1 .4 3.3-.6 4-1.9 6.4-3 6.9-3.5.3-.2.5-.1.5.5.1.8-.5 2-1.7 3.1-1 1-.2 1.5 1.3.7l2.3-1.3 1.2-.6-.7 2-.6 2c0 .2.8.2 1.9.2 2.4-.1 3.8.6 4.2 2.2.2.8-1.4 2.3-3.1 3-.7.2-2.2 1-3.4 1.7a26 26 0 0 1-4 2 47.3 47.3 0 0 0-10.4 5.6c-.2.1.4.4 1.1.5.8.1 1.5.5 1.6.8.2.8-2.3 3.2-4.8 4.6-1.1.7-2 1.4-2.1 2-.2.6-1 1.5-1.9 2-2 1.2-1.7 1.9 1 2.7.5.2 1 .6 1 1 0 .7-1.1 2-1.8 2.2-.3 0-.4.3-.3.5.2.3 1.3.3 2.4 0 2-.5 2.8-.2 2 .7-.7.7 3.4-.5 5.3-1.7 2.4-1.3 3.9-1.3 4.2 0 .2.7-.4 1.8-2 4-1.6 2-2.2 3-1.8 3.2.6.5.2 1.1-1.5 2.6-2.3 2-3.9 5-3.3 6.3.4.9-.5 1.6-4.7 3.6-2 1-4 2.3-4.4 2.8-.4.5-1.3 1.2-2 1.5-2 1-5.7 3.6-6.2 4.5-.2.4-.8.9-1.3 1-.4.1-1 .5-1.3.8-.4.4-.2.4.7.3 2.5-.4 3.8-.3 4.3.3.3.4.7.5 1.1.2.5-.4.6-.4.2.2-.2.3-.6.6-.9.6a1 1 0 0 0-.8.5c-.2.3-.6.3-1.1 0-.7-.4-1-.3-1.3.2-.3.4-.5.5-.7.3-.1-.3-1-.3-1.9 0-.9.1-2 0-2.5-.2-1-.7-1.3-.6-1.2 0 0 .2.3.4.6.4.2-.1.4 0 .3.3 0 .3.3.5.6.6.4 0 .7.4.7.8 0 .6-1.2 1.3-5 2.7-3.4 1.4-4.4 1.9-4.3 2.3 0 .3.3.4.6.4.2 0 .5.3.6.8.2.7 0 1-.5 1.1-.8.2-.8 1 0 1.1.4 0 1.8-.3 3.3-.8 4.2-1.4 6-1.6 7-1 .6.3 1.1.4 1.2.3l.3 1.1c.2 1.6.7 1.8 3.7 1.3 1.7-.4 1.9-.3 1.4.3-.8 1.1-4.2 3.2-6.3 4-1.1.3-2.1 1-2.4 1.5-.6 1-1 1.2-1.8.4-.4-.3-1.1-.5-1.8-.3-2.1.5-9.7 3.7-10.7 4.4-.9.7-.9.8-.3 2.3.4 1 .5 1.8.4 2.1-.1.4 0 .8.3 1.2 1 1.2.2 1.6-4 2.4-3.3.5-4.3.9-4.8 1.6-.6.7-3.5 2.3-5.6 2.9-.3 0-1.2.5-2 1l-1.3.7h1.4c.8 0 2.9-.4 4.7-1l6-1.5c1.4-.3 4.1-1.3 6-2.2 3.7-1.7 7.5-3.2 9.3-3.6.6-.1 1.1-.4 1.1-.7 0-.2.5-.6 1-.7.5-.1.8-.4.8-.7 0-.2.2-.3.6-.2.6.1.6 0 .2-.2-.5-.4-.5-.5 0-.6.2 0 .4-.3.3-.6 0-.3.2-.3.8 0 1 .7 1.3.8 1 .2-.2-.2 0-.5.2-.8.3-.2.6-.1.6.2.1.3.6.5 1.2.3.7-.1 1-.4 1-.8-.2-.4 0-.5.8-.6 1.3 0 2.7.8 2.9 1.7 0 .4.2.3.2-.2.1-.6.2-.5.5.6.4 1.7.2 3.2-.3 3.4-.3 0-.3.3-.2.5.2.2 0 .5-.2.6a3 3 0 0 0-2 1.5c-.4.8-1.8.8-2 .1h.5c.2 0 .5-.3.6-.8.2-.8.2-.9 0-.4-.3.4-.4.3-.4-.4 0-.6-.2-1-.4-1.3-.7-.4-1.2-.2-.5.3.4.3.2.4-.6.4-.7 0-1.4.3-1.6.6-.3.5-.5.6-1 .2-.4-.4-.5-.3-.5.4v1.3c.2.2 0 .4-.2.4s-.4.4-.4.7c0 .3-.3.7-.8.9-.4.2-.8.7-1 1.1 0 .4-.2.7-.4.5-.2-.1-.1 0 0 .5.5 1 0 1.2-.5.2-.3-.6-.3-.6-.7.3-.3.8-.3.8-.5 0s-.3-.8-.3-.1c-.2 1.1-.1 1.3.7 1.5.6 0 .9.4 1 1.1a2 2 0 0 1-1.8 2.3c-1 .2-1.9 1-1.7 1.8.1.5-.1.7-1 .8-1.1.1-3 1.1-3.5 2-.3.3-.2.4.3.3l2-.2c2.5-.2 5.8-1 6.8-1.6.8-.5 1-.5 1 0 0 .3 0 .4.2.2s.7.1 1.2.8c.6.9.7 1.3.5 1.5-.2.1 0 .4.4.8.6.5.6.5-.3.5-.5 0-.7 0-.5.1.9.4.6 1-.5 1.3-.7.2-1.2 0-1.3-.3 0-.4-.1-.4-.2.1 0 .5-.2.6-.4.3-.3-.5-.6-.4-1.4.5a3 3 0 0 1-1.4.7c-1.2.4-1.3 1.6-.1 1.4.5-.2 1 0 1.1.4.3.5.2.7-.2.8-.3.1-.6.4-.6.8-.2 1-1 2.2-1.5 2-.1-.2-.3 0-.3.3s-.5.6-.9.7c-.4 0-1.4.7-2.2 1.3-1.2 1-1.2 1.1-.6 1.3.4.2 2.8-.2 5.4-.8 2.5-.7 4.8-1 5-.9.3.2.6 0 .6-.3.1-.6 8.9-3.2 9.2-2.6.2.2.4.2.6 0 .3-.3.3-.5 0-.7-.2-.1 0-.3.5-.4.5-.2.9 0 1 .2 0 .3.2.1.4-.2.1-.4.4-.6.5-.4.2.1 0 .7-.2 1.3l-.5 1 .7-.3c.6-.4.6-.4.2.2-.7.8-2 1-3 .5s-1.9 0-1.7.8c.1.4-.4.7-1.7 1-1.2.3-1.9.3-2 0 0-.3-.2-.2-.3.3-.1.6-.8 1.1-2.5 1.7-1.3.5-3.1 1.4-4 2-1 .6-2 1.2-2.6 1.3l-2.1 1.2c-1.2 1-1 1 2.5-.1l4.2-1.3 6.3-2.6 8-3.2c1-.3 1.8-.7 1.7-.9-.1-.2.3-.4 1-.6l3.7-1.6c2.2-1.2 7.8-3.2 7.1-2.5-.2.1-.2.4 0 .7.1.2-.1.5-.6.6-.4 0-1.1.7-1.6 1.3l-1.2 1.7a176.1 176.1 0 0 1-36.2 17.4 21 21 0 0 0-4.4 2.2c-1 .8-1.3 1-1.6.6-.3-.5-3.2.4-6.7 1.8l-3.8 1.4c-2.7 1-6.8 3-9 4.4-.6.4-1.3.6-1.4.5-.2-.1-2.1.7-4.3 1.8-3.2 1.6-4 2-4.7 1.6-.6-.4-1.3-.1-3.7 1.3a6432.4 6432.4 0 0 1-20 11.8c-1 .9-3.2 2.1-9.4 5.2l-7 3.8a199.7 199.7 0 0 1-8.7 4.9c-3.2 1.6-3.8 1.8-4.7.9a4 4 0 0 1-1-1.4c0-.3-.2-.5-.3-.4a4 4 0 0 1-.9.2c-.5 0-.6 0-.6-.9.1-1.1-.3-1.6-.6-.8-.4 1-.5.2-.1-1.3.2-.7.8-1.5 1.4-1.8.9-.5 1-.7.5-1.2-.7-.8-.3-1-17.7 7a113 113 0 0 0-15.8 5.9c-1.1.2-2.4.8-3 1.3-.6.4-3 1.2-5.4 1.7-2.4.6-4.5 1.2-4.6 1.4-.5.4-7 2.5-8.7 2.8-.7 0-1.5 0-1.8-.4-.8-.6-2.2-.4-8.4 1.5-3 .8-5.5 1.9-6.3 2.5-1 .8-3 1.4-8 2.5-3.7.8-9.7 2.3-13.4 3.4-7.6 2.1-7.2 2-15.2 3.3a79.4 79.4 0 0 0-13.4 3.4c.3 0 .6.3.6.6.1.3-.7.5-2.3.7l-8.8 1.3-10 1.3a466.9 466.9 0 0 0-48.9 6.7 130.3 130.3 0 0 0-16.4 2.6 71.9 71.9 0 0 1-16.8 2c-1.8-.1-4.5.2-8.4.9a91.6 91.6 0 0 1-14.4 1.4 459.5 459.5 0 0 1-12.2.8h-2.2c-.3-.2-1.6 0-3 .2-3.9.7-3.9.7-4 0-.2-.5-.4-.8-.5-.7-.2 0-.2.3 0 .6s.2.4-.2.3c-.3-.1-.9-.2-1.2 0-.5 0-.8-.3-1-.9-.2-1-.1-1.2.7-.4.8.9 1.5.6 1-.3-.2-.5-.2-.6 0-.4.3.4 1.1.3 2.6-.3 2.6-1 4.7-1.4 8.5-1.5a240 240 0 0 0 6.5-.3c.2 0 .4-.2.4-.6 0-.6.2-.8 1-.7 1 .2 1.7.1 4.6 0h2.2c.3.1 4.1-.8 9.3-2.1 3.3-.9 5.7-1.2 7.6-.9 1 .2 8-1.2 8-1.6-.1-.2-1-.3-2.2-.2h-2.6c-2.3-.2-8.4.4-13.2 1.2a172.6 172.6 0 0 0-22.4 2.2c-.5.1-.7-.5-.4-1a12 12 0 0 1 4.4-1.1c.6 0 1.2.1 1.5.4.2.5.7.4 2-.1.8-.4 1.6-.8 1.7-1 0 0 .4.1.7.4.4.4.7.5.7.2 0-.5 5.9-1.6 7.7-1.5l2.2-.1c.6-.1 1.5 0 2 .2.5.4.7.3.5-.2 0-.4.3-.8.8-1 2.2-.8 5.4-1.5 8-1.7 1.8-.2 2.6-.4 2.2-.6-1.4-1 .6-2.1 4-2.3 3-.1 3.6-.2 4.8-.8.6-.3 1.5-.5 2-.4 1.4.3 8-.2 10.8-.8 1.3-.3 3.3-.6 4.4-.6 1 0 3.1-.3 4.7-.5l8-.9 9.6-1.2c3.8-.5 4.3-.7 4.3-1.4s.4-1 3.2-1.6c1.7-.4 3.7-1 4.3-1.4l1.2-.7h-2.2c-1.3 0-2.7 0-3.3.2-.5.2-2.9.4-5.1.5-2.3 0-6.6.5-9.6.9l-6.1.6-6.6.8a368.7 368.7 0 0 1-26.5 2.8h-1.8c-.6 0-1.3-.2-1.6-.6-.4-.5-1.2-.6-3.8 0a14 14 0 0 1-3.7.4A237.8 237.8 0 0 0 115 267c-1.6.3-5 .6-7.7.8-2.6 0-6 .4-7.3.6a229.2 229.2 0 0 1-31.2 3.5c0-.2.2-.5.7-.7a6 6 0 0 0 1.8-.5h1c0 .2.6 0 1-.4.6-.4 1.9-.8 3-.8 1-.1 6.6-1.1 12.2-2.4l15.1-3c4.7-.7 6-1.2 2.8-1l-1.7-.1c-.3-.3.5-1.4 1.4-1.8 1-.4 1-1 .2-1l-4.5.6-9 1.3c-4.9.9-5.4.9-5.6.1-.2-1-1.4-1-8.4.2a20 20 0 0 1-5.4.5c-.2-.2-.8-.3-1.5-.1-2.4.5-2-1 .6-2.6.8-.5 1.8-1 2.4-1 3.5-.5 2.4-1.3-1.7-1.1l-5 .3-4.6.4a74 74 0 0 0-6.2.6c-2.5.3-3.8.3-4 0-.3-.4-1.4-.6-2.6-.5-1.1.1-2.2 0-2.5-.3-.2-.3-1.3-.5-2.5-.4a6 6 0 0 1-3-.3c-.5-.4-1.8-.4-3.5-.2-3.8.6-6.8.7-7 .3-.3-.4 2-1.6 2.5-1.3.2.1.3 0 .3-.2 0-.3-.6-.5-1.2-.5-1.2-.1-1.5-.7-.8-1.3.8-.9-.8-1.5-3.9-1.7-2.6-.1-4.4-.7-3.3-1 1.1-.2-.7-.7-2.5-.6-1 0-2.1 0-2.4-.2-.2-.3-1.3-.4-2.3-.5-3 0-3-.7-.3-1.7 1-.4 1.8-1 2-1.5.3-.7.8-.9 2.7-1 3.8-.3 4.5-.6 4.8-2v-1.4c-.1-.2-1.1-.3-2.2-.2-1.1 0-2.2 0-2.4-.2-.2-.1-1-.3-1.8-.3-2.1 0-1.9-.8.5-1.3 1.1-.3 2.1-.7 2.2-1 0-.2 1.2-.6 2.6-.9 1.7-.4 2.4-.8 2.4-1.2 0-.4-.3-.5-1-.3h-5.9c-1.3.2-2.6.2-2.9 0-.2-.2-.4-.3-.5-.1 0 .2-.4.2-.9 0-.5-.1-.3-.3 1.2-1 1.8-.6 3.7-1.8 4.6-2.7.6-.6-.6-.9-4-.8-1.7 0-3-.1-3.1-.3 0-.1-.9 0-1.9.4-1.5.5-1.8.5-2 0-.2-1 .4-2.5 1-2.7.3 0 .3 0 0 .5-.2.5-.2.6.2.5.3 0 .5-.5.5-1 0-.6.5-.8 3.4-1.2 3.6-.6 4.4-1 3.5-2.2-1.6-2-6.6-3.2-9.7-2.5-1.8.4-3 0-3.2-1-.1-.6.3-.8 2-1.2 1.3-.3 2.8-.4 3.5-.3.7.1 3.8-.3 6.8-.8 5.3-1 5.5-1 5.3-2-.2-1-.7-1.5-1.3-1.5l-3-.2c-4.7-.4-8.8-.3-13 .2-3.7.4-5.1.2-5-1 0-.2.2-.3.4-.2.2.2.3 0 .1-.4 0-.3 0-.6.3-.6s.4-.2.3-.4c-.1-.2.2-.6.7-.9 1-.6 1.2-1.5.2-2.8-.4-.6-.6-1-.5-1.6.2-.8-.1-1.2-.8-1l-.6-.1-.4-1c-.4-.7-.2-.8 2.2-1l3.8-.3c.9 0 1-.1 1-.7-.2-.4 0-1 .1-1.3.5-.7-.5-3.3-1.4-3.7-.7-.2-.7-.3-.2-.5.6-.1.6-.1-.1-.4-.6-.3.1-.6 3-1.4 1.2-.4 2-1.2 1.8-2-.1-.4.1-.7.6-.9.4 0 1-.3 1.4-.6.5-.4.5-.5 0-1a2 2 0 0 0-1.5-.3c-.5.1-1.8-.4-3-1-1.3-.7-2.8-1.2-3.3-1-1.7.4-4.5.4-4.5 0 0-.2-.2-.3-.4-.2-.3 0-.6-.2-.8-.6-.3-1 1-3.2 1.9-3.2.3 0 .6-.2.6-.5 0-.7 3.3-1.6 4.8-1.3.6 0 3.6-.3 6.6-1 5.1-1 6.5-1.6 4.5-1.8l-2.2-.3-2.7.1c-.6.2-1.2 0-1.3-.2 0-.2-.3-.4-.5-.4-.3.1-.8 0-1.2-.2-.7-.4-.7-.4-.2-1.1 1-1.3.4-2-1.8-2.7-1.1-.3-2.2-.8-2.3-1.2l-.6-.8c-.6-.4-.4-2 .2-1.8.2.1.4 0 .2 0-.1-.2 0-1 .2-1.7.4-1 .8-1.4 1.7-1.7.7-.2 1.1-.5 1-.6-.1-.2 1-.5 2.6-.7 2.2-.3 2.9-.6 3.1-1.2.4-1 3-2 4.7-1.7.6.1 1 0 1-.4 0-.3.4-.7.8-.7.8-.2 1.4-.9 1.3-1.4 0-.2-.3-.4-.5-.3-.2 0-.6-.2-.8-.6-.3-.4-1.5-.7-3.3-.9-3.6-.3-6.4-1.3-6.4-2.4 0-.4.2-.6.5-.5.3 0 .3 0 .2-.3-.1-.2 0-1.1.2-2 .3-1.2.5-1.6 1-1.5.4.1.5 0 .4-.2-.1-.2.2-.5.7-.7a13 13 0 0 0 2.8-1.5l1.8-1.3-.9-1c-.5-.5-1-1-1.1-.9l-1.4-.5c-1.2-.5-1.2-.6-1-1.7 0-.7 0-1.3-.2-1.4-.2-.1-.3-.5-.3-.8 0-.3.2-.3.5 0 .2.5.4.5.5.1 0-.3.4-.9.8-1.4l.7-.9h-1c-1 .1-1.8-1-1.2-1.6.2-.2.5-.2.6-.1.1.1.6-.3 1-.9.4-.6 1.2-1.4 1.7-1.7a3 3 0 0 0 1.3-1.3c.3-1 .5-1 3.4-.5 2.6.5 3.3.3 4-1.4.3-1 .5-1.1 2-1 2.2.2 5.9-.6 5.5-1.1 0-.2-1.2-.4-2.4-.5-3.1-.1-3.5-.2-3.1-.8.6-1-3.6-2.2-7.4-2-1 0-2-.1-2-.3-.2-.2-.1-1 0-1.7.3-1.3.3-1.5-.3-2.2-.4-.4-.7-.8-.7-1-.2-.5 4.9-.8 6.7-.3 2.5.7 7.4.5 7.6-.3.2-.4.1-.7-.2-1.1-.5-.5-1-.7-5.2-1.5-1.3-.3-2-.6-2.1-1-.1-.7.2-.8 2-1 1.4 0 2.2-.3 2.3-.7 0-.3-.1-.5-.3-.4-.2 0-.3 0-.3-.2.2-.4 4.5 0 5 .5.5.4 4.9.4 5.7.1.3 0 .5-.4.4-.7l-.1-1.3c0-.6-3.8-1-10.2-1.1-1 0-2.2-.2-2.9-.5-.6-.2-1.6-.4-2-.3-1.4.3-3.5-.2-3.3-.7.1-.3 1.8-1 3.8-1.5l3.5-1-1.7-.7c-1.6-.5-1.6-.6-1.1-1.3.4-.5.9-.7 2-.5 2 .2 2.2.1 2-.4 0-.2-.5-.5-1-.6-1.7-.2-1.5-.9.4-1.3 1-.2 2.1-.8 2.5-1.4.5-.5 1-.8 1.5-.7a81 81 0 0 0 14-3.1c-.5-.8 3.3-1.7 6.7-1.5a71 71 0 0 0 16.2-.7c2-.4 5-.8 6.7-.8a109 109 0 0 0 10.7-.6h2.4l3.3-.3c1.2 0 6.5-.7 10.3-1.4a124 124 0 0 0 18.2-2.7 106 106 0 0 1 9.4-1.5c1.7-.2 6-1 9.8-1.9 5.6-1.3 6.8-1.7 6.9-2.4 0-.6.1-.6.5-.1.3.4.6.4 1.2.1.4-.3 1-.3 1.2 0 .2.2.8.4 1.4.3h1.6c1.9.5 3.7.3 4.3-.4.5-.5 2-.4 2 .2 0 .2 1.4.1 3.1-.2 4.8-1 5.3-1 6-.3.6.5.6.4.4-.4-.2-.6-.2-.9.1-.8h1.1c.4-.2.7 0 .8.1 0 .2.3.5.6.6.4.1.4 0 .2-.5-.3-.5-.2-.6 0-.4a9 9 0 0 0 3.2-.2c3.2-.6 2.8-.5 17.5-4a158.9 158.9 0 0 1 15.3-3.2c.5-.4 9.7-3.2 12.5-3.7 2.3-.5 4.3-3.3 2.7-3.7-.2 0-.1-.4.2-1 .3-.3.6-.9.6-1.1.2-.9 2.5-1.9 3.3-1.4.6.2 1.7.1 3.5-.4a526 526 0 0 1 10.9-3 89.5 89.5 0 0 0 12.3-3.8c1.6-.4 3.1-1 3.4-1.4.4-.6 2.9-2.1 3.4-2 .6.1 1.6-.2 2.4-.7.5-.4 1.2-.6 1.5-.7h1.2l3.2-1.3A27 27 0 0 1 275 54c.7-.1 1.3-.5 1.5-.8 0-.3.6-.7 1-1 .7-.5 1-.4 1 .2.2.7.5.7 2.3 0a69 69 0 0 1 6.5-2 29.4 29.4 0 0 0 7.5-3s0-.3-.4-.6c-.3-.4-1-.6-1.5-.4h-1l-.4-1c-.4-.9.4-1 1.3-.1.5.5.6.5.6 0 0-.3.2-.5.3-.3.2 0 .3 0 .3-.2s.2-.5.5-.6l4.2-1.6c2-.8 6-2 9-2.8 3-.8 5.7-1.7 6-1.9 1.3-.8 8.3-3.6 12.2-4.8 7-2.3 12.2-5.3 12.9-7.6.2-.7.7-1.3 1.1-1.5a82.2 82.2 0 0 0 14.3-5.5 28 28 0 0 0 4.7-2.3l.3 1.2Zm1 4.3c.1.5.3.5.6 0 .3-.3.3-.9.1-1.3-.2-.5-.4-.5-.6 0-.1.3-.2 1 0 1.3Zm-46.5 18.1c-1 1-1 1 1.4.2 5.3-1.8 7-2.5 6.9-2.8-.1-.6-7.2 1.6-8.3 2.6Zm134-25c0 .2.2.2.5.1.2 0 .3-.3.3-.5 0-.3-.3-.3-.5-.1l-.3.6Zm-20.3 6.4c0 .3.2.5.6.4.4-.1.7-.4.8-.7 0-.3-.3-.4-.7-.3-.4 0-.7.4-.7.6Zm14-.7c.2.5.5.5 1 0 .7-.7.4-1.2-.4-.8-.3.2-.6.6-.5.8ZM280 58c-.9.6-1 .8-.4.9.8.1 9.7-2.6 14.5-4.4 1.2-.5-9 1.4-11.2 2-1 .3-2.3 1-2.9 1.5Zm-9.6 3.7c-.2.2.4.1 1.4-.1 2.4-.6 3.3-1.3 1.6-1.3-.6 0-1.4.2-1.8.5l-1.2.9Zm182.3-42.3c-.6.2-.6.2.1.5 1 .3 1.6 0 1.4-.9-.1-.3-.3-.4-.5-.1l-1 .5ZM266.2 63.1h1.2c.8-.1 1.4-.4 1.4-.8s-.3-.4-1.2 0c-.7.3-1.3.6-1.4.8Zm-222 57.2c0 .3.5.3 1.3.1 1.2-.3 1.3-.4.4-.5-1.3-.3-1.6-.2-1.7.4ZM486 25.4c.2.1.5 0 .5-.1 0-.2-.1-.3-.4-.2-.3.1-.4.2-.1.3Zm-3.3 1.4c-.5.5-.5.6 0 .5.3-.1.8-.4 1-.7.7-.7 0-.5-1 .2Zm-3.8.7c-.2.3-.3.8-.2 1.3.2.7.4.7 1.3.3 1.3-.6 2-1.6 1-1.3-.4 0-.8-.1-1-.3-.3-.5-.6-.5-1.1 0ZM16.9 143c0 .3.3.4.5.3.5 0 .5-.1 0-.4-.7-.5-.7-.5-.6 0ZM478 56.6c.3 0 .5 0 .6-.2 0-.2-.2-.3-.5-.2-.3.1-.3.3 0 .4Zm2.7.8c.2.8 1 .7 1.9-.2 1-1 .6-1.5-.8-1-.9.4-1.2.7-1.1 1.2Zm-5.4.9c.5.7 1.5.6 1.4 0-.1-.5-.5-.7-1-.6-.3.1-.5.4-.4.6Zm2.3 0c-.2.4 0 .5.7.3.6-.1 1-.4 1-.7-.1-.6-1.3-.3-1.7.4ZM14.4 223.5c0 .3.2.5.4.4l.2-.5c0-.3-.3-.5-.4-.4-.2 0-.3.3-.2.5Zm0 9.3c.2 0 .5 0 .7-.2.1-.1 0-.2-.4-.1-.4 0-.6.2-.3.3Zm5.6 4.7c.3 0 1-.1 1.2-.3.4-.2 0-.2-.6 0-.8 0-1 .3-.6.3Zm14 .7c0 .2 1.2.4 2.6.4l3.3.2c.4.1.6 0 .4-.3-.1-.2-1.4-.4-2.9-.4a33.2 33.2 0 0 1-3.4-.2v.3Zm417.6-92c-.5.6-.4.6.3.5.4 0 .8-.4.8-.7 0-.6-.5-.5-1.1.3ZM37.6 245c.1.2 1.5.3 3.2.3 3.7-.2 4.3-.3 3.8-.8-.2-.3-1.8-.3-3.6-.1a51 51 0 0 1-3.3.2v.4Zm432-93.9c-.1.2 0 .4.3.3.2 0 .4-.2.3-.5 0-.2-.2-.3-.4-.3l-.3.5Zm-38 9.7c.2 0 .4 0 .5-.2 0-.1-.2-.2-.5-.1-.3 0-.3.2 0 .3Zm44.4-9.6c0 .2.3.4.6.3.4 0 .4-.1 0-.5-.7-.4-.8-.4-.6.2Zm-1 1s.2.2.3.1c.2 0 .3-.3.2-.5 0-.3-.2-.4-.3-.2l-.2.6Zm-15.5 7-2.6 1.4a15.6 15.6 0 0 0-3.6 2.2c0-.1-1.8 1.3-2.6 2.2-1.3 1.4-1.2 2.2.2 2 .7-.3 1-.1 1.1.4.2.7-1 1.3-3.2 1.5-1 .1-3.4 1.6-3.8 2.3-.4.5 1.2.7 3 .3a6 6 0 0 0 3.3-2 13 13 0 0 1 2.2-1.7c.4-.1.5-.2 0-.5-.2-.2-.5-.2-.6 0-.1.1-.3 0-.3-.2-.1-.4.4-.9 2.5-2 .5-.3.9-.8.9-1.2 0-.5 0-.6.6-.2.4.4.5.4.2-.2-.2-.5-.2-.7.3-.7.3 0 1-.4 1.5-.8.6-.4 1-.5 1.4-.1.3.2.5.2.4 0-.1-.6 1.7-2.6 2.5-2.7.2 0 .4-.4.3-.8-.1-.5-.5-.5-1.6-.2l-2.1 1Zm-7.8 19.8c.2.1.5-.1.6-.4.1-.4 0-.4-.4-.1-.4.2-.5.5-.2.5Zm-344.5 81.6c0 .2.5.4 1 .3.5 0 .7-.3.6-.5-.3-.5-1.7-.3-1.6.2ZM452 184l-.7.2.8.3c.8.3 2-.4 1.9-1.1-.1-.3-.4-.3-.7 0l-1.3.6Zm-342 78.9c0 .2.3.3.6.3.2 0 .3-.3.3-.5s-.3-.4-.5-.3c-.3 0-.4.3-.4.5Zm-1.2.2c.3 0 .5 0 .6-.2 0-.1-.2-.2-.5-.1-.3 0-.3.2 0 .3Zm338.4-77.2c.2 0 .4 0 .5-.2 0-.2-.1-.2-.4-.2-.4.1-.4.3-.1.4Zm32.1-6.8.4.4c.2 0 .3-.3.2-.5 0-.3-.2-.5-.4-.5l-.2.6Zm-7.1 3c.1.5.6-.1.6-.8 0-.7 0-.7-.3-.1l-.3.8Zm-2.9.5.3.7.1-.8c0-.4-.1-.7-.3-.6-.1 0-.2.3 0 .7Zm-370 102.6c.2 0 .5 0 .5-.2s-.1-.2-.4-.1c-.3 0-.4.2-.1.3Zm265.1-51.3c0 .3.1.6.3.7.2.1.3-.1.3-.5 0-.8-.5-1-.6-.2ZM453.2.3c.2.3.3.5.2.6-.1 0 0 .2.4.4 1 .6.4 1.3-1 1.6-.9.2-1 .1-.7-.2.4-.4.6-1.7.1-1.6-.8.2-1.3 1-1 1.7.3.6.3.6-.3 0-.7-.9-2.9-.6-2.9.4 0 .5 0 .5-.5.1-.8-.6-1.5-2.4-1-2.2.2 0 .4.4.5.8 0 .4.1.4.4-.3.2-.7.8-1 2.8-1.4 1.6-.3 2.7-.3 3 0Zm4.2.1c.4.3.5 1.4 0 1.5-.3 0-.9-1.2-.7-1.5.1-.2.4-.2.7 0Zm-5.2 5.2c.5.8.5.9 0 1l-1 .5c-.8.3-1-.1-.8-1.2.4-1.3 1-1.4 1.8-.3ZM280 49c0 .1 0 .4-.2.6 0 .2-.2 0-.3-.2 0-.3 0-.5.2-.6.1 0 .3 0 .3.2Zm-3.3 1c0 .5-.3.7-.4.5-.1-.1 0-.4.2-.6.4-.4.4-.3.2.2Zm153.6-34c0 .2 0 .7-.2 1-.2.6-.4.7-.8.3-.3-.4-.4-.6-.1-1 .4-.7 1-.9 1.1-.4ZM109 94.8c0 .2 0 .5-.3.6a.9.9 0 0 1-.7-.4c-.2-.2 0-.5.3-.5.3-.1.6 0 .7.3Zm5-.6c.1.5-.7.7-1 .3-.1-.2 0-.5.3-.6.3 0 .6 0 .7.3Zm283.4-64.7c.5 1 .1 1.3-1 .7-.7-.3-1-.6-1-.7 1.2-.6 1.7-.6 2 0ZM150.6 87.7v.5c-.1 0-.3-.1-.5-.4v-.5c.2 0 .4.2.5.4Zm4.2-.5c.2.3.3.7.2.9-.1.4-.5-.1-.6-.8 0-.5 0-.5.4-.1Zm-1 .1c.6.3.6 1-.1.9-.4-.1-.7-.3-.7-.6-.2-.4 0-.5.7-.3Zm-136.4 34c.4.5.4 1.1 0 1.2-.3 0-.5-.2-.6-.6-.2-.7.1-1 .6-.5Zm355-79c.1.2 0 .4-.3.5-.3.2-.5 0-.5-.2.1-.6.5-.8.8-.3Zm-2.4 1.4c0 .4-.2.8-.4.9l-1.7.6c-1 .4-1.2.4-1 0 .3-.5.3-.6 0-.5-.3 0-.4 0-.3-.3l1.8-.9c1.4-.4 1.6-.4 1.6.2ZM486.8 18c.4.5 0 1.2-.5 1-.4-.3-.4-1.2 0-1.3.2 0 .4 0 .5.3Zm.2 12.9-.1.8c-.2.2-.3 0-.3-.4 0-.9.2-1 .4-.4Zm-2 .7c0 .4 0 .6-.2.5-.2 0-.3-.4-.2-.7 0-.6.2-.6.3.2ZM1.4 208.1c.3.2.4.4.3.4-.2 0-.6 0-.9-.2-.3-.2-.4-.4-.2-.5l.8.3Zm477.3-73.5c0 .2-.2.5-.5.5-.3.1-.6 0-.7-.3 0-.2.2-.4.5-.5.3 0 .6.1.7.3Zm-10.4 9.7 1 .8-1.7.7c-.9.5-2.3 1-3.1 1.2-.8.2-1.5.5-1.4.7 0 .3-1.8 0-2.2-.4-.1-.2.2-.3.7-.2a2 2 0 0 0 1.6-.9c.4-.5 1.3-1 2.2-1.3.8-.2 1.4-.5 1.4-.8-.2-.6.6-.5 1.5.2Zm3.6-1c0 .2-.3.3-.5.2-.3 0-.3-.2 0-.3.4 0 .6 0 .5.2Zm6.7 5.4v.6l-.2-.9c0-.4 0-.3.2.3Zm-6.9 5.7c0 .3.3.8.7 1.1.8.7.8.8-.6 2.5-1.7 2.1-2 2.2-2.2 1-.2-.6 0-1 .3-1 .4-.2.4-.3 0-.5a1 1 0 0 0-1 0c-.3 0-.6 0-.6-.3 0-.2.3-.5.8-.6l1.5-.3c.5-.1.5-.2 0-.5-.4-.3-.4-.4 0-.5.3 0 .5-.4.4-.6 0-.3 0-.5.3-.6.3 0 .5.1.4.3Zm-2.8 4.7c.4.2.4.4.2 1-.3.7-.8.2-.7-.7 0-.3.3-.5.5-.3Zm14.5 17.5c.2.3.1.5-.1.6-.2 0-.6-.1-.7-.4-.2-.2-.1-.4.1-.5.3 0 .6.1.7.3Zm-5.3 3.5c-.2 1-.4 1-.5.4 0-.2 0-.6.3-.8.3-.3.3-.3.2.4Zm-401.9 101c-.2.6-1.9 1.4-2.4 1.1l-.2-.4c1.5-.7 2.7-1 2.6-.8Zm2 .1c.2.2 0 .4-.5.5-.5.1-1 0-1-.2 0-.5.8-.7 1.4-.3Zm7.4-1c1.3 0 4.4-.3 10-1.3 1.9-.3 3.8-.4 4.2-.2.4.2 1.8.1 3.3-.3a16 16 0 0 1 2.6-.6 8 8 0 0 1-1.5 2l-.2-.5c0-.3-.3-.5-.8-.4-.4.2-.8.5-.7.7 0 .3 0 .5-.2.6-.2 0-.3-.3-.2-.6 0-.5 0-.5-.3 0-.1.2-.5.5-.9.6l-2 .3c-1 .2-1.6.1-1.5 0 0-.3-.8-.2-1.7 0-1 .3-2 .4-2.4.2-.4-.2-.5-.2-.5.2.1.3 0 .4-.3.2a8 8 0 0 0-2.9.2 27.7 27.7 0 0 1-5.5.6l-1-.3c-.2 0 .8-1.7 1.1-1.7l1.4.2Zm12.1-.4c0 .2.3.3.7.3.3 0 .5-.4.6-.6 0-.2-.3-.4-.7-.3-.4.1-.7.4-.6.6Zm-15 4.9c.2.2.4.3.5 0 .1 0 .3 0 .3.2.3 1-.2 1-.7.2-.4-.4-.5-.8-.5-.8s.3.1.4.4Zm6.6.4c.4.4.8.7.8.5l1.5-.7c1.2-.4 3.1.1 2.9 1-.3.6-2.3.9-2.8.4-.6-.5-1.4-.4-1.6.3-.2.6-1.7.8-2 .3-.5-.6-.4-2.4 0-2.5.2 0 .8.3 1.2.7Zm-3 .3c.1.3.1.4-.1.3-.2-.1-.4 0-.5.3 0 .7-.4.7-.6-.1-.2-.9.7-1.2 1.1-.5ZM421 211.8c0 .1-.3.2-.5.1-.3 0-.2-.2.1-.3.3 0 .5 0 .4.2Zm-54.5 26.7v.5l-.4-.4c-.2-.3-.2-.5 0-.5s.4.1.4.4Zm-6.7 1.5c.6.4.7 1.2.2 1.1-.4 0-.6.2-.5.7l.3 1.5c0 .4-.2.8-.4.9a179.8 179.8 0 0 1-1.7 1c-1 .7-1.3 1.5-1 2 .1.3 0 .5-.3.6-.3 0-.7-.2-.9-.5-.2-.3-.3-.3-.4 0-.2 1-1 1.5-1.6 1-.5-.4-.5-.4-.2.1s.3.6-.2.4h-1c-.1 0-.5-.4-.7-.8-.2-.6-.5-.8-.8-.5-.7.4-.3 1.6.4 1.2.5-.3.5-.3 0 .3-.2.3-.9.6-1.4.8a120.9 120.9 0 0 1-17.3 7.3 270 270 0 0 1-12.5 4.4c-2.4 1-6.2 1.9-6.8 1.7l-1.8-.3c-.7 0-1.4-.2-1.4-.4s.1-1 .4-1.7c.3-1 .7-1.4 1.8-1.6 1-.2 1.4-.5 1.3-.7-.1-.3-1.2-.3-2.4 0-2 .4-3.3 0-3-.7 0-.3 3.8-1.5 3.8-1.2 0 .1 1 0 2-.4 1-.3 2.7-.5 3.6-.5 1 0 1.8 0 1.8-.2s.7-.4 1.3-.7c.7-.2 1.6-.6 2-.9.4-.3.8-.4 1.1-.1.3.2 1.8.2 3.3-.1 1.9-.4 2.7-.4 2.7 0 0 .3 0 .2.3-.2.2-.5.7-.8 1.5-.7.8 0 1.2-.2 1-.4-.3-.5-.3-.6 2.2-1.3 1-.3 2.1-.7 2.4-1 .4-.3.6-.3.7-.1 0 .2.4.3.8.2.4-.1.7-.3.6-.5 0-.2.1-.4.4-.5.2 0 .4.1.4.3-.1.6 2.7-.8 2.7-1.4.2-1 5.3-3.3 5.5-2.4.1.3.3.5.5.4v-.5c-.4-.6.1-1.2.7-.7.4.3.5.3.5-.2 0-.4.4-.7 1.2-.8.7 0 1.1-.4 1-.6 0-.8 1.5-.6 2 .2.2.4.6.6.7.4v-.7c-.2-.2-.1-.5 0-.7.3-.2.5-.2.7 0 .2.3.5.2.9-.4.7-1 3.2-2.5 3.6-2.1Zm4.6 1.2c.2.8 0 1-.3.3a.5.5 0 0 1 0-.7c0-.2.2 0 .3.4Zm-.9 1c0 .3-.3.5-.6.5-.2-.1-.1-.3.2-.6.4-.3.6-.3.4.1Zm-98 24c.3 0 .7.2.7.4.2.5-1.2.5-1.4 0l-.2-.5h.8Zm6.1-.3c-.6.7-1 .8-.7.1.2-.3.5-.6.8-.6.3 0 .2.1 0 .5Zm-1.7.3c.1.2 0 .4-.4.3-.7-.1-.9-.4-.3-.6.2 0 .5.1.7.3Zm37-7.4c.6.6.4.7-3.1 1.6-2 .5-4 1-4.3 1.2-.4.2-.7.2-.9 0-.1-.2-.6-.2-1 0-1.3.4-1.5-.3-.2-.8.6-.2 1-.2 1 0-.1.7.3.3.6-.5.3-1 1.4-1.3 1.9-.7.2.3.4.2.7-.2.5-.7 1.2-.4 1 .4 0 .4.1.4.3 0 .2-.2 1-.7 1.8-1 1.2-.6 1.7-.5 2.2 0Zm-23 4.7v.5c-.1 0-.3-.1-.5-.4v-.5c.2 0 .4.2.5.4Zm11.6-1.7c.3.3.4.4.2.5-.2 0-.5-.1-.6-.4-.4-.5-.3-.5.4 0ZM184 287.7c0 .4 1.1.6 1.3.2.1-.6 1.4-1 1.5-.5 0 .3 1 .2 2.3-.3 1.6-.6 2.4-.7 3.3-.2.6.3 1 .5.6.4-.3 0-.5 0-.5.3s-.2.6-.4.7c-.2.1-.4.5-.5.8 0 .3-.2 0-.3-.5-.2-1-.3-1-.9-.2-.5.8-.7.8-1.2.1-.6-.7-.6-.7-.2 0 .3.7.2.9-.3 1-.4.1-1-.2-1.2-.6-.3-.4-.4-.5-.4-.1.2.6-.6 1-.8.4 0-.2-1-.1-2.2.2-1.2.3-2.3.3-2.4.1-.1-.2-.5-.2-.8-.2-.5.1-.6 0-.4-.5.2-.7 3.6-1.7 3.5-1.1Zm-4.7 1-.1.6-1 .4c-1.2.6-1.8-.2-.7-.7 1-.6 1.7-.7 1.8-.2Zm21-3.1c0 .3.5.4 1.1.2.6-.1 1.1-.5 1.2-.7 0-.4.1-.4.2 0 .1.5 1.9.2 1.7-.3 0-.3 0-.4.3-.3.3.2 3 .1 5.6-.3h1.7c0 .2 3.8-.6 4-1 .3-.7 3-1.7 3.1-1.2.1.2.3.4.6.3.2 0 .4-.3.3-.5 0-.3 2-.9 5.3-1.5 3-.6 5.7-1 6-1.2a5 5 0 0 1 1.8 0c.7.2 1 .1 1-.1-.1-.5.9-.6 1.3-.2 0 0 1.4-.2 2.9-.7 1.8-.5 2.9-.6 3.2-.3.4.4.5.3.4-.2 0-.4 0-.5.2-.2s1.9.1 4.2-.4a2031.5 2031.5 0 0 1 39.9-8.2c0-.2 0-.4.2-.4s.3.1.2.4c0 .3.2.5.4.4.3 0 .5.1.6.4 0 .3.2.4.4.4s.2-.3 0-.5.1-.5.7-.6c.7-.2.8-.1.6.3-.2.4-.2.5 0 .5.3 0 .4 0 .2.7-.2.5-.6.9-.9 1-.3 0-.5.3-.5.6.1.3-.1.4-.5.3-.5-.1-.6 0-.4.3l.2.5c-.1 0-.4-.3-.7-.8l-.4-1-.5 1.2c-.4.8-.7 1-.9.7-.2-.4-.3-.3-.4.2 0 .5-2 1.1-10.3 3a368 368 0 0 1-26 5 94.2 94.2 0 0 1-13.7 2.2c-.6-.4-3-.4-3.3 0-.1.3-.4.3-.6 0-.3-.4-.4-.3-.5.3 0 .4-.2.5-.2.3 0-.3-1.9 0-4.9.7-4.8 1.1-13 2.3-13.2 1.8 0-.2-1 0-2.3.3-2 .5-7 1-8 .7-.3 0-.3-.3-.2-.9.2-.6.1-.7-.1-.5l-1.1.8c-.5.3-.6.7-.5 1 .2.3.1.2-.2-.1-.4-.6-.8-.6-2 0-.8.4-1.7.6-2 .4-.4-.2-1-.3-1.5-.2-.7.1-.8.1-.2-.2.5-.3.6-.5.2-.7-.6-.4-.2-.5 3.8-1.6 1.4-.3 2.4-.4 2.4-.1Zm83.9-15c.2.4.4.6.5.4.3-.5 0-1.2-.4-1.1-.3 0-.3.4-.1.8Zm16.3-5.4c-.1 1 0 1 .3.7.3-.3.4-.2.3.7l-.1 1.1-.5-1c-.6-1-1.3-1.1-1.3 0 0 .4.1.7.3.7 0 0 .3.2.4.6 0 .6-.2.8-1.3.8-1 0-1.4.2-1.4.5.1.3-.3.7-.9.8-.6.1-1 0-.9-.3 0-.4 0-.4-.4 0-.4.6-.5.6-.5 0 0-.4.1-.8.3-.8.1 0 .2-.3.1-.6-.2-1-.6-.3-.6 1.2 0 1.6 0 1.7-1 1.2-.3-.2-.6-.7-.7-1.6 0-.7-.2-1.2-.3-1-.2 0-.4 0-.5-.3-.1-.2.5-.6 1.5-1 1.7-.4 1.9-.3 2.4.7.6 1 1.7 1.2 1.5.3 0-.3-.2-.4-.3-.2-.1.2-.2 0-.2-.4s.2-.6.5-.5c.3.1.4 0 .2-.3-.4-.6.4-1.3 1.6-1.3.4 0 1-.3 1.2-.6.3-.5.4-.4.3.6Zm-7.4 3.6c0 .2.1.4.3.3.3 0 .3-.3.2-.4l-.4-.4-.1.5Zm11.2-4.6c.2.2 0 .6-.2.8-.4.2-.4.6-.2 1 .2.5.2.8 0 .8-.3.1-.6-1.4-.4-2.2.3-.8.5-.9.8-.4ZM303 266l-.1.7-.4-.6c-.2-.3-.1-.6 0-.6.3 0 .5.2.5.5Zm-.8 1.6a2 2 0 0 1-1 1c-.7.2-1.3-.5-1-1 .1-.2.3 0 .4.2.2.4.4.3.8-.2.7-1 1.2-1 .8 0Zm3.8-.8c0 .2-.3.2-.6.2-.2-.1-.2-.3.1-.4.3 0 .5 0 .5.2Zm-15 3.7c.4.3.4.3 0 .4-.3.1-.5 0-.6-.3-.1-.6-.1-.6.6-.1Zm1.7.3c.2.6.2.6-.4.3-.8-.4-1-.7-.4-.9.3 0 .6.3.8.6Z"/>
  <defs>
    <linearGradient id="a" x1="10.8" x2="529.1" y1="251.9" y2="171.8" gradientUnits="userSpaceOnUse">
      <stop stop-color="#645852"/>
      <stop offset="1" stop-color="#C9A58B"/>
    </linearGradient>
  </defs>
</svg>
