<svg xmlns="http://www.w3.org/2000/svg" width="509" height="303" fill="none">
  <path fill="url(#a)" d="M156.4 280c-.2-.6-.5-1-.6-.8 0 .2-.6-.3-1-1.1-.6-.9-1.1-1.4-1.4-1.3-.4 0-.5 0-.3-.6 0-.6 0-.8-.3-.9-.4 0-.4-.2-.3-1 .2-.7.1-1-.2-1a.8.8 0 0 1-.5-.6c0-.2 0-.3.2-.2.2.1.2 0 0-.5-.2-.3-.2-.7 0-.7s.1-.3-.3-1c-.4-.6-.5-.8-.1-.9.4 0 .3-.2 0-.6-.6-.5-1.2.2-.8 1 0 .3 0 .6-.2.7-.1.2-.3 0-.4-.7 0-.6-.2-1-.3-.8 0 .2-.5.3-.8.2-.6-.1-.5-.3.4-.9.7-.4 1-.9 1-1.3-.2-.3 0-.7.3-.8.3 0 .6-.6.7-1.1.1-1 1.2-2.6 1.8-2.6l1.6-1c.8-.7 2.2-1.6 3.2-2 .9-.5 1.7-1 1.7-1.3 0-.3.3-.6.6-.7.4 0 1.3-1 2-2a8 8 0 0 1 1.8-2c.2 0 .5-.3.5-.6s-.1-.5-.3-.4c-.4 0-.8-2-.4-2.1l1.3-1c.6-.6 1.5-1 1.9-1 .4.1 1.1-.2 1.5-.6a23 23 0 0 1 2.3-1.6c2.1-1.4 3.2-2.4 3.1-2.9-.1-.4-14.6 4.1-18 5.7-1.9.8-2.7 1-3.6.6a21.5 21.5 0 0 0-2.5-.7c-.5-.2-1.2-.2-1.4 0-.2.3-3.9 1.6-8.2 3a67.8 67.8 0 0 0-19 8.5c-.8 0-1.5.4-1.5.6 0 .2-.2.4-.4.3-.2-.1-.3 0-.2.3l-.1.4c-.5 0-2.8 1.5-2.6 1.8 0 .5-1.9 1.8-2.7 1.9-.3 0-.7.5-.9 1.1-.1.6-.4 1.2-.7 1.3-.3 0-1.2.4-2.2.8-.9.3-2 1-2.6 1.4l-2 1.4c-.6.3-.9.7-.7 1 .4.5-.2.9-5 3-.2 0-.3.4-.2.6 0 .2 0 .6-.3.8l-1 1.4c-.4.8-1.4 1.4-3.5 2.2l-3.7 1.4c-.4 0-1 .5-1.4 1-.4.6-.8.9-1 .7-.4-.5-1.5-.8-1.1-.3.4.5 0 .6-.9.1-1.9-.8-8.8 2.3-9.1 4.1 0 .6 0 1 .2 1s.4.2.5.5c0 .2-.1.3-.4.2-.3 0-.5.1-.5.4 0 .8 1.6.2 2.3-.8.3-.4 1.1-1.1 1.8-1.5l1.6-1c.3-.2.5 0 .6.3.1.4.5.4 1.4 0 .9-.3 1-.3.8.2-.2.3-.3.7-.2 1 .3.3-1.1 1.2-4.1 2.5-1.7.7-2.3.7-2.6.3-.3-.4-.4-.4-.3 0 .3.9-1.5 1.2-2.3.5-.4-.3-.7-.4-.7-.2.1.3-.8.6-2.3.8l-4.6.8a11 11 0 0 1-3.3 0c-.6 0-1.4 0-1.7.2-.4.3-.8.3-1 0-.2-.2-.1-.3.2-.1.3.2.3.1.1-.2-.3-.4-1.8-.6-3.5-.2-1 .2-1.2 0-1.5-.7-.2-.9 0-1 1.5-1.9 1-.5 2.1-1 2.5-1h.8l-1-.5c-1.6-.8-3-.9-5.6-.5a21 21 0 0 1-4.6.3c-2.6-.3-10.7 2-10.8 3 0 .3-.2.5-.5.4-.6-.4-5.9 1-5.6 1.4.3.4.3.4-3.4 1.7-2.6.8-3.6 1.3-7.3 3.2-1.7 1-2.8 1-4.1.4-.6-.3-.5-.5.2-1.8a6.7 6.7 0 0 1 3-2.7c2.4-1.2 4.7-2.6 6.3-3.8 1-.7 1.1-1 .8-1.7-.2-.4-.5-.6-.7-.4-.2.2-.4.1-.5-.1 0-.3.1-.6.4-.7.4-.1.4-.2 0-.5-.4-.2-.5-.3-.3-.4.2 0 .2-.4 0-.7-.3-.5-.1-1 .5-1.7l.9-1.1-2.9.5a47.7 47.7 0 0 0-6.2 1.5l.2-1.2c.2-.7.3-1.1.4-1 0 .2.3 0 .5-.5.3-.4 1.3-1.3 2.4-2a17 17 0 0 0 3-2 4 4 0 0 1 1.9-1.3c1.6-.5 5-3.3 3.9-3.1h-2c-.6-.1-.8-.6-.3-1 .3-.3.7-1.1 1-1.8.2-.7.7-1.4 1-1.5.4-.1.7-.5.8-1 .1-.5-.2-.6-1.6-.5l-2.6.2a20 20 0 0 0-5.9 1.8c-.3.5-3.5 1.6-3.6 1.3 0-.2 0-.7.2-1 .1-.5.2-1 .1-1.2 0-.3-.2-.4-.2-.2s-.4.2-.7 0c-.3-.2-.4-.2-.4 0 .1.3 0 .5-.3.6-.7.2-.6-.4.1-1.3.9-1 .6-1.3-1.2-1.4-1.7-.1-2.3-.9-1.4-1.9 1-1 6.1-3.6 9.2-4.5 1.4-.4 3-1 3.3-1.3l.7-.5-1.2-.8c-.6-.5-1.3-.8-1.6-.7-.6.2-1-.5-1-1.7s2-4 3-4.3c.4-.1.5-.4.4-.6a.8.8 0 0 0-.9-.2c-.4 0-1.3-.9-1.4-1.7-.2-.8-4.4 1.4-4.5 2.3A22 22 0 0 1 15 255l-.8-.2.5-.8c.2-.4 2.4-1.9 4.7-3.3 4.3-2.5 5.1-3.7 2.1-2.9-1 .3-1.8.3-2.2 0-.6-.4-1.1-.2-3.3.9-4 2-6.3 3.3-6.8 3.7-.3.3-.5.2-.6-.3 0-.9.5-2 1.7-3.2 1-1 0-1.4-1.4-.6l-2.2 1.4-1.2.6.6-1.9.5-2c0-.2-.9-.2-1.9 0-2.4.2-4-.5-4.3-2-.3-.8 1.3-2.3 3-3l3.2-2a27 27 0 0 1 4-2l3.5-1.8c5.4-3.3 6.6-4.1 6.8-4.4.1-.2-.4-.4-1.2-.5-.8 0-1.5-.4-1.6-.7-.2-.8 2.2-3.3 4.5-4.7 1.2-.8 2-1.6 2.1-2.2.2-.6 1-1.5 1.8-2 2-1.3 1.7-2-1-2.6-.6-.2-1-.5-1-.8-.1-.8 1-2.1 1.6-2.3.3-.1.4-.4.2-.6-.1-.2-1.2-.1-2.4.2-2 .6-2.8.3-2-.5.6-.8-3.4.7-5.3 1.9-2.4 1.5-3.8 1.6-4.2.2-.2-.6.3-1.6 1.9-3.9 1.5-2 2-3.1 1.6-3.3-.6-.4-.3-1 1.4-2.6 2.2-2.2 3.7-5.2 3-6.3-.4-.8.5-1.6 4.6-3.9 2-1 4-2.4 4.3-3 .4-.5 1.3-1.2 2-1.6 2-1 5.6-3.8 6-4.7.2-.4.8-.9 1.2-1 .5-.2 1-.6 1.3-.9.4-.4.3-.5-.7-.3-2.4.6-3.8.6-4.3 0-.4-.4-.8-.4-1.2-.1-.5.4-.5.4-.2-.2.2-.3.6-.6 1-.6.2 0 .6-.3.7-.5.2-.3.6-.4 1.2-.1.6.3 1 .2 1.2-.3.3-.5.5-.6.7-.3.2.2 1 .2 2 0 .8-.3 2-.3 2.5 0 1 .4 1.3.4 1.2-.2-.1-.2-.4-.4-.6-.3-.3 0-.4 0-.4-.3s-.3-.5-.7-.6c-.3 0-.6-.3-.7-.7 0-.6 1.2-1.3 5-3 3.4-1.5 4.3-2 4.2-2.5-.1-.2-.4-.4-.6-.3-.2 0-.5-.3-.7-.8-.2-.6 0-1 .5-1 .8-.3.7-1-.1-1.2-.3 0-1.8.4-3.2 1-4.2 1.6-6 2-7.1 1.5-.6-.3-1.1-.4-1.2-.3l-.4-1c-.3-1.6-.7-1.7-3.7-1-1.7.4-1.9.4-1.4-.3.7-1.1 4-3.3 6.2-4.2 1-.4 2-1 2.3-1.6.5-1.2 1-1.3 1.8-.6.4.3 1.1.4 1.8.2 2.1-.6 9.6-4.2 10.5-5 .9-.7.9-.8.3-2.2-.4-1-.6-1.7-.5-2 0-.4 0-.8-.4-1.1-1-1.1-.3-1.7 4-2.6 3.2-.8 4.2-1.2 4.7-2a17 17 0 0 1 5.5-3.1l1.9-1 1.3-.8h-1.4c-.7 0-2.9.6-4.7 1.3l-6 1.9c-1.3.3-4 1.4-5.8 2.4a59 59 0 0 1-9.2 4.1c-.6.2-1.1.5-1.2.8 0 .2-.4.6-1 .7-.4.2-.7.5-.7.7 0 .2-.2.3-.6.3-.6 0-.6 0-.2.2.5.3.5.4.1.5-.3.1-.4.4-.3.7 0 .3-.2.3-.8 0-1-.6-1.4-.6-1-.1.2.2 0 .5-.2.8-.3.2-.6.1-.7-.2 0-.3-.6-.4-1.2-.2-.7.2-1 .5-.8.8.1.4-.1.6-1 .7-1.2 0-2.6-.7-2.9-1.5 0-.3-.2-.3-.2.2 0 .6-.2.5-.5-.5-.5-1.6-.4-3.2.2-3.3.2 0 .3-.3 0-.5 0-.3 0-.5.3-.6a3 3 0 0 0 1.9-1.7c.4-.7 1.8-.9 2-.2 0 .1-.2.2-.4.1-.3 0-.5.3-.6.8-.2.8-.2.8 0 .4.3-.4.4-.3.4.4 0 .5.2 1 .5 1.1.7.4 1.2.2.5-.2-.4-.3-.3-.4.6-.5.6 0 1.3-.3 1.5-.7.3-.5.5-.6 1-.2.4.3.5.2.5-.5l-.1-1.2c-.1-.1 0-.3.2-.4.3 0 .4-.4.4-.7 0-.3.3-.7.8-.9.4-.2.8-.7.9-1.2 0-.4.2-.6.4-.5.2.2.2 0 0-.5-.6-.9 0-1.1.5-.2.3.6.4.5.6-.3.3-.9.4-.9.6 0 .2.7.3.7.3 0 .2-1 0-1.3-.8-1.4-.5 0-.9-.3-1-1-.3-1 .5-2.2 1.7-2.4 1-.2 1.8-1 1.6-1.8-.1-.5.1-.7 1-.9 1.1-.2 2.9-1.2 3.4-2 .3-.4.2-.5-.3-.4l-2 .3c-2.5.4-5.8 1.3-6.8 2-.7.5-1 .5-1 .1 0-.3 0-.4-.2-.2s-.7 0-1.2-.7c-.7-.8-.8-1.2-.6-1.4.2-.2 0-.5-.4-.8-.7-.4-.6-.5.2-.5.5 0 .7 0 .5-.2-.9-.3-.7-1 .4-1.3.8-.2 1.2-.1 1.4.2 0 .5.1.4.2 0 0-.5.2-.6.4-.3.3.4.7.2 1.4-.6.2-.3.8-.7 1.3-.9 1.2-.3 1.3-1.6.1-1.2-.5.1-1 0-1.2-.4-.2-.5-.2-.7.2-.8.3-.1.6-.5.6-.8.1-1 1-2.2 1.4-2 .2.1.3 0 .3-.3s.4-.7.9-.8c.4-.1 1.4-.7 2.1-1.4 1.2-1 1.2-1.2.6-1.4-.4 0-2.8.5-5.4 1.2-2.5.8-4.8 1.3-5 1.2-.4-.2-.6 0-.6.3a27 27 0 0 1-9.8 3.2c-.2.3-.2.5 0 .6.3.2 0 .4-.4.5-.5.1-1 0-1-.2s-.2 0-.4.3c-.1.4-.4.6-.5.4-.2-.1-.1-.7.1-1.3l.5-1-.7.4c-.5.3-.6.3-.2-.2.7-.9 2-1.2 3-.7 1 .4 2 0 1.7-1-.2-.3.4-.7 1.6-1 1.2-.4 2-.4 2 0 .1.2.2 0 .3-.4.1-.7.8-1.2 2.5-1.9a29.8 29.8 0 0 0 6.4-3.6 9 9 0 0 0 2.2-1.3c1.1-1 1-1-2.6.3l-4.1 1.5c-.3 0-3 1.4-6.3 3l-7.8 3.5c-1 .4-1.9.9-1.7 1 0 .2-.4.5-1 .7-.7.2-2.3 1-3.6 1.7a26 26 0 0 1-7.1 3v-.7c-.2-.2 0-.5.5-.6.4-.2 1.1-.8 1.5-1.4l1.2-1.7A183 183 0 0 1 50 111.3c1.7-.7 3.7-1.8 4.3-2.4.9-.8 1.3-1 1.6-.6.3.4 3.2-.6 6.7-2.3.5-.2 2.2-1 3.7-1.5 2.7-1.1 6.7-3.3 8.9-4.9.6-.4 1.2-.7 1.4-.6.2.1 2-.8 4.2-2 3.1-1.8 4-2.1 4.7-1.8.6.3 1.3 0 3.6-1.5A6452.5 6452.5 0 0 1 108.8 81c1-1 3.2-2.4 9.2-5.7 3.2-1.8 3.8-2.2 6.9-4.2a211.4 211.4 0 0 1 8.6-5.2c3-1.9 3.7-2 4.7-1.3.5.5 1 1 1 1.3.1.3.3.5.4.4l.8-.2c.6-.1.7 0 .7.8 0 1.1.4 1.6.7.7.3-.9.4-.2.1 1.3-.2.7-.7 1.5-1.3 1.9-.9.5-1 .7-.5 1.2.7.7.4.9 17.6-7.9a118.3 118.3 0 0 0 15.6-6.7c1-.4 2.4-1 3-1.5.5-.5 2.9-1.4 5.2-2 2.4-.8 4.5-1.5 4.7-1.7.4-.4 7-2.9 8.5-3.2.7-.2 1.6-.1 2 .2.7.6 2 .3 8.3-2 2.9-1 5.5-2.1 6.2-2.8 1-.8 2.9-1.5 8-3l13.3-4c7.5-2.6 7.1-2.5 15.1-4.3a83.2 83.2 0 0 0 13.4-4c-.3-.1-.6-.3-.7-.6 0-.3.7-.6 2.3-.9l8.8-1.8 10.1-1.9a488.9 488.9 0 0 0 48.9-9.6 136.5 136.5 0 0 0 16.4-3.6 75.4 75.4 0 0 1 16.8-2.9 43 43 0 0 0 8.4-1.4 95.7 95.7 0 0 1 14.4-2.2 501.5 501.5 0 0 1 12.3-1.6h2.2l3-.5c3.9-1 3.9-1 4-.2.2.4.4.6.6.6v-.6c-.3-.3-.3-.4.1-.3h1.2c.5-.1.8.1 1 .7.3 1 .2 1.2-.6.4-.9-.7-1.5-.5-1 .5.2.4.2.5 0 .3-.3-.3-1.1-.2-2.6.5a25.2 25.2 0 0 1-8.5 2 253.4 253.4 0 0 0-6.5.6c-.2 0-.4.3-.4.7 0 .5-.2.7-1 .7-1 0-1.7 0-4.6.3-1.1.2-2.1.3-2.3.2-.2-.1-4 1-9.2 2.6a23 23 0 0 1-7.6 1.3c-1.1-.1-8 1.7-8 2 .1.2 1 .3 2.2.2a71.5 71.5 0 0 0 16-2.2c1-.3 2.1-.4 2.3-.3a64.5 64.5 0 0 0 12.2-2c2-.3 6.7-1 7.9-1.3.4-.1.6.5.4 1-.2.3-2.4 1-4.4 1.3-.6.1-1.3 0-1.5-.3-.3-.4-.8-.3-2 .3l-1.7 1c0 .1-.4 0-.8-.3-.3-.3-.6-.4-.6-.2 0 .5-5.9 2-7.7 2-.6 0-1.6 0-2.2.2-.7.2-1.6.1-2 0-.6-.4-.7-.3-.6.2.1.3-.2.7-.7 1-2.2.9-5.3 1.8-8 2.2-1.8.2-2.5.5-2.2.7 1.5.9-.4 2-3.9 2.4-3 .3-3.6.5-4.7 1.1a4 4 0 0 1-2 .5 66.5 66.5 0 0 0-15.3 2.4l-4.7.8-8 1.3-9.6 1.7c-3.9.9-4.3 1-4.3 1.8 0 .6-.4.9-3.1 1.7a23 23 0 0 0-4.4 1.6l-1.1.7h2.2c1.3-.1 2.8-.3 3.3-.5a152 152 0 0 0 14.8-2.2l6-1c.5 0 3.4-.5 6.7-1.2a387.2 387.2 0 0 1 26.5-4.4h1.8c.6-.1 1.4 0 1.7.4.4.5 1.2.5 3.8-.2 1.8-.5 3.5-.7 3.7-.6l2.6-.2c5.8-1 11.5-2 14.2-2.6 1.5-.3 5-.9 7.6-1.2l7.4-1a239.7 239.7 0 0 1 31.2-5.4c.1.2-.2.5-.7.7l-1.7.6c-.4.2-.9.2-1 0-.1-.1-.6.1-1.1.5-.5.5-1.8.9-2.9 1-1 .2-6.6 1.5-12.2 3-5.7 1.6-12.5 3.3-15.1 3.9-4.7 1-6 1.6-2.8 1.2a5 5 0 0 1 1.8 0c.3.3-.5 1.4-1.3 1.8-1 .5-1.1 1.2-.2 1l4.5-.8c2-.4 6.2-1.2 9-2 4.8-1 5.4-1 5.6-.3.3 1 1.5.9 8.5-.7 2.8-.6 5.3-1 5.4-.8.2.2.8.2 1.5 0 2.4-.7 2 .7-.5 2.6-.7.5-1.8 1-2.3 1.1-3.6.7-2.4 1.3 1.7 1l5-.7 4.7-.6 6.1-1c2.5-.5 3.8-.6 4.1-.2.3.3 1.4.4 2.6.2 1.1-.1 2.3 0 2.5.2.2.3 1.4.3 2.6.2 1.2-.2 2.5-.1 3 .2.5.3 1.8.2 3.6-.1 3.7-.8 6.7-1.1 7-.8.3.4-2 1.7-2.5 1.5-.2-.1-.3 0-.3.2.1.2.6.4 1.2.5 1.2 0 1.6.5 1 1.2-.8.8.7 1.4 3.9 1.3 2.7 0 4.5.4 3.3.8-1 .3.9.6 2.6.4 1.1-.1 2.2 0 2.4.1a5 5 0 0 0 2.4.3c3 0 3.1.5.4 1.7-1 .4-1.9 1-2 1.6-.3.7-.7.9-2.6 1.1-3.8.5-4.5.8-4.8 2.2v1.4c.2.2 1.2.2 2.3 0a6 6 0 0 1 2.4.1c.2.2 1 .2 1.8.2 2.2-.1 2 .7-.4 1.3-1.1.4-2.1.8-2.2 1 0 .3-1.2.8-2.6 1.2-1.6.4-2.4.8-2.3 1.3 0 .4.3.5 1 .2.7-.1 1.7-.2 2.3-.1l3.6-.3c1.4-.2 2.7-.3 3-.1.2.2.4.2.5 0 0-.1.4-.2.8-.1.6.1.4.4-1.1 1-1.8.8-3.6 2-4.5 3-.6.7.6.8 4 .6 1.7-.1 3.2-.1 3.2 0 0 .2.9 0 1.9-.4 1.4-.6 1.8-.6 2-.1.2.8-.3 2.4-.9 2.6-.3 0-.3 0 0-.5.2-.5.2-.5-.3-.4-.2 0-.5.5-.4.9 0 .6-.5.8-3.4 1.5-3.6.7-4.4 1.3-3.4 2.3 1.7 1.8 6.8 2.8 9.9 1.9 1.8-.5 3-.3 3.2.8.2.5-.2.8-2 1.3a41.7 41.7 0 0 0-10.2 1.7c-5.3 1.3-5.5 1.3-5.3 2.2.3 1 .8 1.4 1.4 1.4h3c4.8 0 9-.2 13-1 3.8-.7 5.2-.5 5.2.6 0 .2-.2.4-.4.2-.2 0-.3.1-.1.4.1.4 0 .6-.3.7-.3 0-.4.2-.3.4.2.2-.1.6-.6.9-1 .6-1.1 1.5-.1 2.7.5.6.6 1 .5 1.5-.1.8.3 1.3 1 1h.6l.4 1c.4.7.2.8-2.2 1.2l-3.8.4c-.9 0-1 .2-.9.8.1.4 0 1-.1 1.2-.5.8.6 3.3 1.6 3.6.7.2.7.2.2.4-.6.2-.6.2.1.5.7.2 0 .6-3 1.5-1.1.4-1.9 1.3-1.7 2 .2.5 0 .8-.6 1-.4 0-1 .4-1.3.6-.5.5-.5.5.1 1 .4.2 1 .3 1.5.2.4-.1 1.8.3 3 .8 1.4.6 2.8 1 3.4.8 1.7-.5 4.5-.7 4.5-.3 0 .2.2.3.4.2.3-.1.6.1.8.5.4 1-.7 3.2-1.7 3.2-.4 0-.6.2-.6.5 0 .7-3.2 1.8-4.7 1.7-.7-.1-3.6.5-6.7 1.3-5 1.3-6.5 2-4.4 2l2.3.2c.7 0 2-.1 2.6-.3.7-.2 1.3-.1 1.3.1.1.3.4.4.6.4.2-.1.8 0 1.2.2.7.3.7.3.2 1-1 1.3-.3 2 2 2.5 1.1.2 2.2.7 2.4 1l.6.8c.6.3.5 1.9-.1 1.7-.3 0-.4 0-.3.1.1.1 0 .8-.1 1.6-.3 1-.7 1.5-1.6 1.8-.7.2-1.1.5-1 .7.1.1-1 .5-2.6.8-2.2.4-2.8.7-3 1.4-.4.9-3 2-4.7 1.9-.6 0-1 .1-1 .5 0 .3-.4.6-.7.7-.9.3-1.5 1-1.3 1.4 0 .2.3.4.5.3.2 0 .6.2.9.5.2.4 1.5.6 3.3.7 3.6 0 6.5 1 6.5 2 0 .3-.2.6-.4.5-.3 0-.4 0-.2.2v2c-.3 1.2-.6 1.6-1 1.5-.4 0-.6 0-.5.3.2.2-.1.5-.7.7-.5.1-1.7 1-2.7 1.7l-1.8 1.3 1 .9c.5.5 1 .9 1.2.8.1 0 .8.1 1.4.4 1.2.4 1.2.5 1 1.6 0 .8 0 1.3.3 1.4.2.1.4.4.3.7 0 .4-.2.4-.4 0-.3-.4-.5-.4-.5 0 0 .3-.4 1-.8 1.4l-.6 1 .9-.2c1-.1 1.9.9 1.3 1.5-.2.3-.5.3-.6.2-.1 0-.5.3-1 1-.3.6-1 1.3-1.6 1.7-.6.3-1 1-1.2 1.3-.3 1-.5 1-3.4.7-2.7-.3-3.3 0-3.9 1.7-.3 1-.5 1-2.1 1-2.1 0-5.8 1-5.5 1.5.2.2 1.3.3 2.5.3 3.2 0 3.5 0 3.2.6-.6 1.1 3.7 2 7.5 1.5 1 0 2 0 2 .2.2.1.2.9 0 1.7-.2 1.2-.1 1.4.5 2l.8 1c.1.5-5 1-6.7.7-2.7-.5-7.5 0-7.7.7-.2.5 0 .8.3 1.1.4.5 1 .6 5.2 1.2 1.3.1 2 .4 2.2.9.2.6-.1.7-2 1-1.4.2-2.2.5-2.2.8 0 .3 0 .5.3.4.2 0 .3 0 .2.2 0 .3-4.5.2-5-.2-.5-.3-5-.1-5.8.2-.2.1-.4.5-.3.8l.2 1.2c0 .6 3.8.8 10.2.5 1-.1 2.3 0 3 .3.7.2 1.6.2 2.1 0 1.3-.3 3.4 0 3.3.6-.1.3-1.8 1-3.7 1.7a41 41 0 0 0-3.5 1.2l1.7.5c1.6.5 1.6.6 1.2 1.3-.4.5-.9.7-2 .6-2 0-2.2 0-2 .5 0 .2.5.5 1 .5 1.7 0 1.6.8-.3 1.3a5 5 0 0 0-2.5 1.5c-.4.6-1 1-1.4.8a85 85 0 0 0-14 4c.5.7-3.2 1.7-6.7 1.8-7 .1-12.7.7-16.3 1.7-2 .5-5 1-6.7 1.2a113.6 113.6 0 0 0-10.7 1.2l-2.4.2a145.8 145.8 0 0 0-13.6 2.4c-2.8.7-7.1 1.5-10 1.9-1 .1-4.7 1-8.3 1.9a134 134 0 0 1-9.4 2c-1.6.3-6 1.4-9.7 2.5-5.6 1.7-6.7 2.2-6.8 2.8 0 .6-.1.6-.5.2-.3-.4-.7-.4-1.2 0-.4.2-1 .2-1.2 0-.3-.2-1-.3-1.5-.2a6 6 0 0 1-1.6 0c-2-.2-3.8 0-4.3.7-.5.6-2 .5-2 0 0-.2-1.4 0-3.2.4-4.7 1.2-5.3 1.2-6 .7-.6-.5-.6-.4-.3.3.2.6.2.9-.1.8a4 4 0 0 0-1.2.2c-.3 0-.6 0-.7-.2 0-.2-.3-.4-.6-.5-.4-.1-.5 0-.2.5s.2.6 0 .4c-.3-.1-1.8 0-3.3.4-3.2.7-2.7.6-17.4 5a166.5 166.5 0 0 1-15.3 4c-.4.5-9.5 3.7-12.4 4.5-2.2.5-4.2 3.4-2.5 3.7.2 0 .2.4-.2.9a4 4 0 0 0-.6 1.2c0 .9-2.3 2-3.2 1.6-.5-.2-1.7 0-3.5.6l-10.8 3.6a93.6 93.6 0 0 0-12.3 4.4 9 9 0 0 0-3.3 1.6c-.4.7-2.8 2.3-3.3 2.2-.6 0-1.6.3-2.4.8-.5.4-1.2.7-1.5.8l-1.2.1c-.3 0-1.7.7-3.1 1.4-1.4.8-3.1 1.5-3.8 1.7-.7.2-1.3.6-1.4.9-.1.3-.6.8-1 1-.8.5-1 .5-1.1-.1-.2-.7-.5-.7-2.2.1-1.1.5-4 1.6-6.5 2.4a30.7 30.7 0 0 0-7.4 3.4c-.1 0 0 .3.4.6.3.3 1 .4 1.5.3.5-.2 1-.2 1 0l.4.8c.6.9-.3 1-1.2.2-.5-.4-.7-.4-.7 0 0 .3 0 .5-.2.4-.2 0-.3 0-.3.2s-.1.5-.5.6l-4.2 1.8c-2 .9-6 2.4-8.9 3.3l-6 2.2a98 98 0 0 1-12 5.5c-7 2.6-12 5.9-12.6 8.1a3 3 0 0 1-1 1.6 86 86 0 0 0-14.2 6.2 29.2 29.2 0 0 0-4.6 2.6s-.3-.5-.4-1.2Zm-1.2-4c-.2-.6-.3-.6-.6 0-.3.3-.3.8 0 1.2.2.5.3.5.5 0 .1-.4.2-1 0-1.3Zm46-20.6c.9-1 .9-1-1.4-.1-5.3 2-7 2.8-6.8 3.1.1.6 7.2-2 8.2-3ZM67.4 288s-.2-.1-.4 0c-.3 0-.4.3-.3.5 0 .3.3.3.4 0 .2-.1.4-.4.3-.5Zm20.2-7.5c0-.2-.2-.4-.6-.3-.4.2-.8.5-.8.7 0 .3.3.5.7.3.4 0 .7-.4.7-.7Zm-14.2 1.6c0-.4-.4-.4-1 .2-.5.6-.2 1.1.5.6.4-.2.6-.6.5-.8Zm161-46.5c.8-.7 1-1 .4-1-.9 0-9.7 3.2-14.4 5.2-1.3.6 9-1.9 11.1-2.7 1-.3 2.3-1 2.9-1.5Zm9.4-4.3c.3-.2-.3 0-1.3.2-2.4.8-3.2 1.5-1.6 1.4.7 0 1.5-.4 1.8-.6l1.1-1ZM62.3 284c.6-.2.6-.2-.2-.5-.9-.2-1.5.2-1.3 1 .1.3.4.3.6 0l1-.5ZM248 229.7h-1.2c-.7.2-1.3.6-1.3 1 0 .3.3.3 1.2-.1.7-.3 1.3-.7 1.3-.9Zm221-69.5c0-.3-.6-.4-1.4 0-1.2.3-1.2.4-.4.5 1.4.1 1.7 0 1.7-.5ZM28.4 280c-.2 0-.4 0-.5.2 0 .2.2.2.4.1.4-.1.4-.2.1-.3Zm3.2-1.6c.5-.4.5-.5 0-.4-.3 0-.7.4-1 .7-.5.7.2.5 1-.3Zm3.9-.9c.2-.2.3-.8.1-1.2-.2-.7-.4-.7-1.3-.2-1.3.6-1.9 1.6-.9 1.3.4 0 .8 0 1 .2.3.5.6.5 1.1-.1Zm459.9-141.3c-.1-.2-.4-.4-.7-.3-.4.1-.4.2 0 .5.8.4.8.4.7-.2ZM35 249.3c-.3-.1-.5 0-.6.2 0 .1.2.2.5 0 .3 0 .3-.2 0-.2Zm-2.8-.7c-.2-.7-1-.6-1.8.4-1 1-.6 1.4.8.8.8-.4 1.2-.8 1-1.2Zm5.4-1.2c-.5-.6-1.5-.5-1.3.2 0 .3.4.5.9.4.4-.1.6-.4.4-.6Zm-2.3.1c.2-.4 0-.5-.7-.2-.6.1-1 .5-1 .7.2.6 1.3.3 1.7-.5Zm459-189.8c-.1-.3-.3-.4-.5-.4-.1 0-.2.3-.1.5 0 .3.2.5.4.4.1 0 .2-.3.1-.5Zm-.4-9a1 1 0 0 0-.8.1c-.1.2 0 .3.5.2.4-.2.5-.3.3-.4Zm-5.9-4.3c-.4 0-1 .2-1.3.4-.3.2 0 .2.7 0s1-.4.6-.4Zm-14.2.1c0-.1-1.2-.2-2.6-.2H468c-.5 0-.6 0-.5.3.2.3 1.5.4 3 .3a34.5 34.5 0 0 1 3.4 0v-.4Zm-416 115.6c.4-.5.4-.5-.3-.3-.4 0-.8.4-.8.7 0 .6.5.4 1.1-.4ZM469.9 38.3c0-.2-1.4-.3-3 0-3.8.3-4.4.5-4 1 .3.1 2 0 3.7-.2l3.4-.5v-.3ZM39.5 156.7c0-.3-.1-.4-.4-.3-.2 0-.3.3-.3.5s.3.3.4.3c.2 0 .3-.3.3-.5Zm37.8-11.9c-.2 0-.5 0-.5.2s.1.3.4.2c.4-.1.4-.3.1-.4ZM33 157c0-.3-.3-.4-.6-.3-.4.1-.4.2 0 .5.7.4.8.3.6-.2Zm1-1c0-.2-.2-.2-.4-.2s-.2.3-.1.6c0 .3.2.3.3.1.1-.2.2-.4.1-.5Zm15.3-7.9c.3-.3 1.4-1 2.5-1.5a16.2 16.2 0 0 0 3.6-2.4 11 11 0 0 0 2.5-2.3c1.1-1.4 1-2.2-.3-1.8-.7.2-1 0-1.2-.4-.2-.7 1-1.3 3.1-1.7 1-.2 3.4-1.7 3.8-2.4.4-.6-1.2-.6-3-.1a6 6 0 0 0-3.3 2c-.8 1-1.8 1.8-2 1.9-.5.1-.6.2-.1.5h.7c0-.2.2-.1.2.1.2.4-.4.9-2.4 2.1-.5.3-.8.8-.8 1.2 0 .6-.1.6-.6.3-.5-.4-.6-.4-.2.2.2.5.2.7-.3.7a4 4 0 0 0-1.5.8c-.5.5-1 .6-1.3.3-.4-.3-.6-.2-.5 0 .2.5-1.6 2.6-2.4 2.8-.2 0-.4.4-.3.7.2.5.6.5 1.7.1l2-1Zm7-19.8c-.3 0-.6.2-.7.5 0 .4 0 .4.4 0 .4-.2.5-.4.2-.5Zm343-101c0-.1-.5-.2-1-.1-.5 0-.8.3-.6.5.3.5 1.7.1 1.6-.4ZM55.7 123.4l.7-.2-.8-.2c-.9-.3-2 .4-1.9 1.1.1.3.4.3.7 0a5 5 0 0 1 1.3-.7Zm340.5-98.2c0-.2-.3-.3-.5-.2-.3 0-.4.3-.3.5 0 .2.3.3.5.2.2 0 .4-.2.3-.5Zm1.2-.2c-.2-.1-.5 0-.5.2 0 .1.1.2.4.1.4-.1.4-.2.1-.3Zm-337 96.3c-.3 0-.5 0-.6.2 0 .2.2.2.5.1s.3-.2 0-.3Zm-32.1 8.6-.4-.4c-.2 0-.3.3-.2.6 0 .2.3.4.4.3.2 0 .2-.2.2-.5Zm7-3.3c-.1-.5-.5 0-.5.8 0 .6 0 .6.3 0 .2-.3.3-.7.2-.8Zm2.9-.8-.3-.6-.1.7c0 .4.2.7.3.7.2 0 .2-.4 0-.8Zm368-123c-.3 0-.5 0-.6.2 0 .2.1.3.4.2.4-.2.4-.3.1-.4ZM141.5 69.3c0-.3-.1-.6-.3-.7-.2 0-.3.2-.3.6 0 .8.5.8.6 0Zm-79 233.3c-.2-.3-.3-.5-.2-.6.2 0 0-.2-.4-.4-1-.5-.5-1.3 1-1.6.8-.2 1-.2.7.1-.5.5-.5 1.7 0 1.6.7-.3 1.2-1 .8-1.7-.3-.6-.2-.6.3 0 .8.8 3 .3 3-.6-.1-.5 0-.5.5-.1.8.5 1.6 2.2 1 2-.2 0-.4-.3-.4-.7 0-.4-.2-.3-.4.3-.3.7-.8 1-2.9 1.5-1.6.4-2.7.5-3 .2Zm-4.1.1c-.5-.3-.6-1.3-.2-1.4.3-.1 1 1 .8 1.4 0 .2-.4.2-.6 0Zm5-5.4c-.6-.7-.6-.8 0-1l1-.5c.7-.3 1 0 .7 1-.3 1.4-1 1.5-1.8.5Zm171.3-53 .1-.6c.1-.2.3-.2.4 0 0 .3 0 .6-.2.6h-.3Zm3.2-1.4c.1-.3.3-.5.4-.4.2.1 0 .4-.1.7-.4.3-.4.3-.3-.3ZM85 285.8l.1-1.1c.2-.6.4-.6.8-.3.4.4.4.6.2 1-.4.7-1 .9-1.1.4Zm320-96.9c-.1-.2 0-.5.2-.5.3-.1.6 0 .7.2.2.3 0 .5-.2.6-.4.1-.7 0-.8-.3Zm-5 1c-.2-.6.6-.8 1-.4 0 .2 0 .4-.4.6-.3 0-.6 0-.6-.2Zm-282.3 80.7c-.6-1-.3-1.3 1-.8.6.2 1 .5.8.6-1 .6-1.5.7-1.8.2Zm245.6-72.1v-.5l.5.4v.5c-.2 0-.4-.2-.5-.4Zm-4.2.8-.3-.8c.2-.5.6 0 .7.7 0 .5 0 .5-.4 0Zm1-.2c-.6-.2-.6-.9 0-.8.4 0 .8.2.8.5.2.4 0 .5-.7.3ZM496 157.4c-.5-.4-.5-1 0-1 .2-.1.5.1.6.5.2.7-.1 1-.6.5Zm-353.8 99.2c-.2-.2 0-.4.3-.6.3 0 .5 0 .5.3 0 .6-.5.7-.8.3Zm2.3-1.5c0-.4.2-.8.4-1 .3 0 1-.4 1.7-.7.9-.4 1.2-.4 1 0-.3.5-.3.6 0 .5.3 0 .4 0 .4.2s-.9.7-1.8 1c-1.4.6-1.7.6-1.7 0ZM28 287.5c-.4-.5 0-1.2.5-1 .4.3.4 1.2 0 1.3l-.5-.3Zm-.7-12.6v-.8c.2-.2.3 0 .3.4 0 .9-.1 1-.3.4Zm2-.8c0-.4 0-.6.1-.5.2 0 .3.4.3.6 0 .7-.2.7-.4-.1ZM508 71.9c-.3-.2-.4-.4-.3-.4.2 0 .5 0 .9.2.3.2.4.4.2.4-.1 0-.5 0-.8-.2ZM31 173.2c-.1-.2 0-.4.4-.5.3-.1.6 0 .7.2 0 .3-.2.5-.5.6-.3 0-.6-.1-.7-.3Zm9.9-10.1-1-.7 1.7-.8c.9-.5 2.3-1 3-1.3.9-.3 1.5-.6 1.5-.8-.1-.3 1.8-.1 2.2.3.1.1-.2.2-.7.2a2 2 0 0 0-1.6 1c-.4.4-1.3 1-2.1 1.3-.8.3-1.5.7-1.4.9.2.6-.7.6-1.6-.1Zm-3.5 1.2c0-.2.2-.3.5-.2.3 0 .2.2-.1.3-.3.1-.5 0-.4-.1Zm-7-4.8c-.2-.5-.2-.8 0-.6l.2.8c0 .4 0 .3-.2-.2Zm6.6-6c0-.3-.3-.7-.7-1-.8-.7-.8-.7.5-2.5 1.7-2.2 1.9-2.3 2.2-1.1.2.5 0 1-.2 1-.4.2-.4.2 0 .5h1c.2-.2.5-.1.6.1 0 .3-.3.6-.8.7-.5 0-1.2.2-1.5.4-.5.1-.5.2 0 .5.4.3.5.3 0 .5-.2 0-.4.3-.3.6 0 .2-.1.5-.3.5-.3.1-.5 0-.5-.2Zm2.6-4.7c-.3-.2-.4-.4-.2-1 .3-.7.8-.3.7.6 0 .4-.2.5-.5.4Zm-15.3-16.3c-.2-.2-.2-.4 0-.5.3 0 .6 0 .8.3.2.2.1.4-.1.5-.2 0-.6 0-.7-.3Zm5.2-3.7c.2-.9.3-1 .5-.4 0 .2 0 .6-.3.8-.3.4-.3.3-.2-.4Zm400-123.3c.1-.7 1.8-1.6 2.3-1.3.3.1.4.3.2.4-1.4.7-2.6 1.1-2.6.9Zm-2 0c-.3-.3-.1-.4.4-.6.5-.1 1 0 1 .1.1.5-.7.8-1.4.4Zm-7.4 1.4c-1.4 0-4.4.5-10 1.8-2 .5-3.9.7-4.3.5-.4-.2-1.8 0-3.3.5l-2.5.8a8 8 0 0 1 1.4-2l.1.4c0 .3.3.4.8.3.5-.2.9-.5.8-.7 0-.3 0-.5.2-.6.1 0 .2.2.2.6 0 .4 0 .4.2 0 .2-.3.6-.6.9-.7.3 0 1.3-.2 2.1-.5.8-.2 1.5-.1 1.5 0 0 .3.7.2 1.7-.1 1-.4 2-.5 2.4-.3.4.2.5 0 .4-.2 0-.3 0-.4.3-.3.3.1 1.6 0 3-.3a29.1 29.1 0 0 1 6.4-.8c.3 0-.7 1.7-1 1.7h-1.3ZM407.9 8c0-.2-.4-.3-.7-.2-.3 0-.6.3-.6.6 0 .2.3.3.7.2.4-.1.6-.4.6-.6Zm14.8-5.7c-.2-.2-.4-.3-.5 0 0 .1-.2 0-.3-.2-.3-.9.2-1 .8-.2l.5.8-.5-.4Zm-6.6 0c-.4-.4-.8-.6-.8-.5 0 .2-.7.5-1.5.8-1.2.6-3.1.1-3-.7.3-.6 2.3-1 2.9-.6.6.5 1.4.3 1.6-.4.1-.6 1.6-.9 2-.4.4.6.5 2.3 0 2.4-.2 0-.7-.2-1.2-.6Zm3-.5c-.2-.3-.1-.4.1-.3.2.2.4 0 .4-.3.1-.7.5-.7.7 0 .3.9-.6 1.3-1.1.6ZM85.7 94.4c0-.2.3-.2.5-.2.3.1.3.2 0 .4-.3 0-.5 0-.5-.2ZM139.3 65v-.5l.4.4c.2.2.2.4 0 .5a.4.4 0 0 1-.4-.4Zm6.6-1.9c-.6-.4-.7-1.2-.1-1.1.3 0 .5-.2.4-.7l-.3-1.4c-.1-.4 0-.8.3-.9l.7-.4 1-.7c.9-.8 1.2-1.6.9-2-.2-.3 0-.5.3-.6.3 0 .7 0 .8.4.3.3.4.3.4 0 .2-1 1-1.6 1.6-1.1.5.4.6.3.2-.1-.3-.5-.3-.6.2-.4h1c.2 0 .5.3.7.7.3.5.6.7 1 .4.6-.5.2-1.6-.5-1.1-.5.3-.5.3-.1-.3.2-.3.9-.7 1.4-.9a126.6 126.6 0 0 1 17-8.2 285.2 285.2 0 0 1 12.5-5.1c2.3-1 6.1-2.2 6.8-2l1.8.1c.7 0 1.3.2 1.4.3 0 .2 0 1-.3 1.7-.3 1-.6 1.4-1.8 1.7-.9.2-1.4.5-1.2.8 0 .2 1.2.1 2.4-.2 1.9-.5 3.3-.3 3 .5 0 .3-3.7 1.7-3.8 1.4 0 0-1 .1-2 .5s-2.6.7-3.6.7-1.8.2-1.8.4l-1.3.7a6 6 0 0 0-1.8 1c-.5.3-1 .4-1.2.2-.3-.2-1.8 0-3.3.3-1.9.5-2.8.5-2.7.2 0-.3-.1-.2-.3.2-.2.5-.7.8-1.6.8-.8 0-1 .2-.9.4.4.5.3.5-2.2 1.4-1 .3-2 .8-2.4 1.1-.3.3-.6.4-.6.2s-.4-.3-.8-.2c-.4.1-.7.4-.7.6.1.2 0 .4-.3.4-.2.1-.4 0-.4-.3 0-.5-2.7 1-2.7 1.6-.1 1-5.2 3.6-5.4 2.7-.1-.3-.3-.4-.5-.4-.1 0-.2.3 0 .5.5.6 0 1.2-.7.7-.4-.3-.5-.2-.5.3 0 .4-.4.7-1.1.8-.7.2-1.2.5-1.1.7.2.7-1.4.7-2 0-.2-.5-.5-.7-.6-.5v.7c.2.2.1.5 0 .7-.3.2-.5.2-.7 0-.2-.2-.5 0-.9.5-.6 1-3.1 2.6-3.6 2.3Zm-4.6-.9c-.3-.7-.1-1 .3-.4.1.3.2.6 0 .8 0 .2-.2 0-.3-.4Zm.8-1c0-.4.4-.6.6-.5.2 0 .2.3-.2.5-.4.4-.5.4-.4 0Zm97.7-29.5c-.4 0-.8-.1-.8-.3-.2-.6 1.1-.6 1.4-.1l.2.5h-.8Zm-6.2.7c.6-.8 1-.9.7-.2-.2.3-.5.6-.8.6-.2.1-.2 0 0-.4Zm1.7-.5c-.2-.2 0-.3.4-.3.7.1.9.4.3.6-.2 0-.6 0-.7-.3Zm-37 9.6c-.6-.6-.4-.7 3.1-1.8l4.3-1.5c.4-.2.7-.2.9 0 .1.2.6.2 1 0 1.3-.5 1.5.1.3.7-.6.3-1 .3-1 .1 0-.7-.4-.3-.6.5-.3 1-1.4 1.4-1.9.8-.2-.3-.4-.2-.7.2-.5.8-1.2.6-1.1-.3 0-.3 0-.3-.2 0a5 5 0 0 1-1.8 1.2c-1.2.6-1.7.6-2.2 0Zm23-6v-.6l.5.4v.5c-.2 0-.4-.1-.5-.4Zm-11.6 2.3c-.3-.2-.4-.4-.2-.4s.5 0 .6.3c.4.5.3.5-.4.1Zm111-32.1c.1-.5-1-.6-1.2-.2-.2.6-1.4 1-1.5.6-.1-.3-1-.1-2.3.4-1.7.7-2.4.8-3.3.5-.7-.3-1-.4-.7-.4.3 0 .5-.1.5-.3 0-.3.2-.6.4-.7.2-.2.4-.5.4-.8 0-.3.2 0 .4.5.3.9.3 1 .9 0 .5-.7.6-.7 1.2-.1s.6.6.2 0c-.3-.7-.2-.9.3-1 .4-.1 1 0 1.2.5.3.4.5.4.4.1-.2-.6.6-1 .8-.5 0 .2 1 .1 2.2-.3 1.2-.3 2.3-.5 2.4-.3.1.2.5.3.9.2.5-.2.5 0 .4.5-.2.6-3.6 1.9-3.5 1.3Zm4.8-1.4v-.5l1.1-.5c1-.6 1.7 0 .7.7-1 .6-1.7.8-1.8.3Zm-21 4.4c0-.2-.6-.3-1.2-.1-.5.1-1 .5-1.1.8 0 .3-.1.3-.2 0-.2-.5-2-.2-1.8.4.1.2 0 .3-.2.2-.3-.1-3 .1-5.7.7l-1.6.2c-.1-.3-3.8.8-4 1.1-.3.7-3 1.9-3.1 1.4-.1-.2-.4-.3-.6-.3-.2 0-.4.3-.3.6 0 .3-1.9 1-5.3 1.7l-6 1.6h-1.8c-.6 0-1 0-1 .3.2.4-.8.6-1.2.3-.1-.1-1.5.2-3 .7-1.7.7-2.8.9-3.2.6-.4-.3-.5-.3-.4.2.2.4 0 .5-.1.2-.2-.2-2 0-4.2.6a2141.3 2141.3 0 0 1-39.8 10.5c0 .2 0 .4-.2.5-.2 0-.3-.2-.3-.5 0-.2-.1-.4-.4-.3-.2 0-.5-.1-.6-.4 0-.2-.2-.4-.4-.3-.2 0-.2.2 0 .5.2.2 0 .5-.6.6-.7.2-.9.2-.7-.3.3-.4.2-.5 0-.4-.3 0-.4-.1-.2-.7.1-.5.5-1 .8-1 .3 0 .6-.4.5-.7-.1-.2.1-.4.5-.3.5 0 .6 0 .4-.3l-.2-.5c.1 0 .4.3.7.8l.4.9.5-1.2c.4-.8.6-1 .8-.7.3.3.4.3.5-.2 0-.6 2-1.2 10.2-3.6a386.4 386.4 0 0 1 26-6.6c10.5-2.5 13.3-3 13.6-2.9.7.4 3 .2 3.3-.3.2-.2.5-.2.7 0 .3.4.4.3.4-.2s.2-.6.3-.4c0 .3 1.8 0 4.8-1a56 56 0 0 1 13.2-2.5c0 .1 1.1 0 2.3-.4 2-.7 7-1.4 8-1.3.4.1.4.3.3 1-.1.6-.1.6.2.4l1-.8c.5-.3.6-.7.4-1-.2-.3 0-.3.2 0 .5.6.8.5 2-.1.9-.5 1.8-.7 2.1-.5.4.1 1 .2 1.5 0 .7 0 .8 0 .2.3-.5.3-.5.5-.1.7.5.3.2.5-3.8 1.7-1.4.5-2.4.6-2.5.3Zm-83.8 19.8c-.2-.3-.5-.5-.6-.3-.2.5 0 1.2.5 1 .3 0 .3-.3 0-.7Zm-16.2 6.3c0-1 0-1-.3-.6-.3.3-.4.2-.3-.7v-1.1l.6 1c.7 1 1.3 1 1.2 0 0-.5 0-.8-.2-.8-.1 0-.3-.2-.4-.6-.2-.5 0-.7 1.2-.8 1 0 1.4-.2 1.3-.6 0-.3.3-.6.9-.8.7-.2 1 0 1 .3 0 .4 0 .3.4-.2.3-.5.4-.5.4.1 0 .4 0 .8-.2.8-.1 0-.2.3-.1.5.3 1 .6.3.6-1.1 0-1.6 0-1.7.8-1.3.5.2.7.7.9 1.5 0 .7.3 1.2.4 1 .1 0 .3 0 .5.2.1.3-.5.7-1.5 1-1.7.6-1.9.5-2.4-.4-.7-1-1.8-1.1-1.6-.2.1.3.3.3.4.1 0-.2.2 0 .2.4s-.2.7-.5.6c-.3-.1-.4 0-.2.3.4.5-.4 1.2-1.6 1.4-.4 0-.9.3-1.1.6-.4.5-.4.4-.4-.6Zm7.3-4c0-.1-.1-.3-.3-.2-.3 0-.3.3-.2.4.2.2.3.4.4.3l.1-.4Zm-11 5.2c-.2-.2-.1-.5.2-.7.3-.3.3-.6 0-1-.1-.5-.2-.8 0-.8.4-.2.7 1.3.5 2.1-.2.8-.4 1-.8.4Zm1.3-1.7v-.7l.5.5v.7c-.3 0-.5-.2-.5-.5Zm.7-1.6c.2-.5.7-1 1-1 .7-.2 1.3.3 1 .9 0 .1-.3 0-.4-.2-.2-.4-.4-.3-.7.2-.7 1-1.3 1-.9 0Zm-3.7 1c0-.2.2-.3.5-.2.3.1.2.2-.1.3-.3.1-.5 0-.4 0Zm14.9-4.5c-.5-.3-.5-.3 0-.5.2 0 .5 0 .6.3.1.6 0 .6-.6.2Zm-1.7-.2c-.3-.6-.3-.6.3-.4.8.4 1 .7.4.9-.2 0-.5-.2-.7-.5Z"/>
  <defs>
    <linearGradient id="a" x1="-9.4" x2="505.9" y1="210.3" y2="61.6" gradientUnits="userSpaceOnUse">
      <stop stop-color="#CB9B7B"/>
      <stop offset="1" stop-color="#DDBD81"/>
    </linearGradient>
  </defs>
</svg>
