<svg xmlns="http://www.w3.org/2000/svg" width="70" height="16" fill="none">
  <g clip-path="url(#a)">
    <path fill="#394C77" d="M4.4 9c-1.4-.6-2-.9-2-1.7 0-.3.1-.5.3-.7.4-.3 1-.5 2-.5a9.8 9.8 0 0 1 1.8.2.8.8 0 0 0 .7-.7c0-.4-.2-.8-.6-.9l-2-.1c-1.3 0-2.3.2-2.9.8-.6.4-.9 1.1-.9 2 0 1.8 1.7 2.5 3 3 1.5.7 2.3 1 2.3 2.3 0 .5-.2 1-.5 1.2-.4.3-1 .4-1.8.4L1.7 14h-.3a.8.8 0 0 0-.8.8l.1.3a.8.8 0 0 0 .5.4 9 9 0 0 0 2.6.4c1.1 0 2-.3 2.7-.8a3 3 0 0 0 1.2-2.4c0-2.3-2-3.1-3.3-3.7Zm12.2-4c-1-.5-2-.5-2.5-.5s-1.5 0-2.5.6C10.5 5.7 10 7 10 8.7v3c0 1.8.6 3 1.7 3.7 1 .5 2 .5 2.5.5s1.6 0 2.5-.5c1.2-.7 1.8-2 1.8-3.7v-3c0-1.7-.6-3-1.8-3.6Zm.2 3.7v3c0 2.2-1 2.6-2.7 2.6-1.6 0-2.7-.4-2.7-2.6v-3c0-2.1 1-2.6 2.7-2.6 1.7 0 2.7.5 2.7 2.6Zm24.8-3.6c-1-.6-2-.6-2.5-.6s-1.6 0-2.5.6c-1.2.6-1.8 1.9-1.8 3.6v3c0 1.8.6 3 1.8 3.7 1 .5 2 .5 2.5.5s1.5 0 2.5-.5c1.2-.7 1.8-2 1.8-3.7v-3c0-1.7-.6-3-1.8-3.6Zm.2 3.6v3c0 2.2-1 2.6-2.7 2.6-1.7 0-2.7-.4-2.7-2.6v-3c0-2.1 1-2.6 2.7-2.6 1.6 0 2.7.5 2.7 2.6Zm8.4-4.2a7.7 7.7 0 0 0-4.1 1.2c-.3.2-.3.5-.3.5v9c0 .4.3.7.8.7.4 0 .8-.4.8-.8V6.7a6 6 0 0 1 2.8-.6c1 0 1.8.3 2.2.7.4.4.6 1 .6 2V15c0 .5.3.8.8.8.4 0 .7-.3.7-.8V8.8c0-1.3-.3-2.4-.9-3-.7-.9-1.8-1.3-3.4-1.3ZM57.7.8a1 1 0 0 0-1 1c0 .6.5 1 1 1 .6 0 1-.4 1-1 0-.5-.4-1-1-1Zm0 3.7c-.4 0-.7.4-.7.8v9.8c0 .5.3.8.7.8.5 0 .8-.3.8-.8V5.3c0-.4-.3-.8-.8-.8Zm11.6 9.8a.8.8 0 0 0-1-.4c-.7.2-1.5.3-2.3.3-1.6 0-3.5-.7-3.5-4C62.5 6.7 64.4 6 66 6a6.3 6.3 0 0 1 2.3.3.8.8 0 0 0 .7 0l.3-.4a.8.8 0 0 0-.2-.9H69c-.1 0-1.2-.5-3-.5-.8 0-2 .1-3 1-1.4.9-2 2.5-2 4.6 0 2.2.6 3.8 2 4.8 1 .8 2.2 1 3 1a8.5 8.5 0 0 0 3-.6c.2 0 .3-.2.4-.4v-.6Zm-36.9 0h-.1c-.6-.1-1.4-.5-2-1-.6-.7-1-1.7-1-3V6.2h2.9c.5 0 1-.5.7-1a.8.8 0 0 0-.7-.6h-2.9V.8c0-.6-.6-1-1.1-.7-.3.1-.5.4-.5.7v3.7h-5.2c.1-.8.4-1.4 1-2a4 4 0 0 1 2.1-1c.4 0 .7-.3.7-.7 0-.5-.3-.8-.8-.8-.9.1-2.1.5-3.2 1.4-1 1-1.4 2.3-1.5 4V15c0 .4.3.7.7.8.5 0 1-.3 1-.8V6h5.2v4.3c0 1.7.6 3 1.5 4 1 .8 2 1.3 2.8 1.5.6 0 1-.4 1-1 0-.2-.3-.5-.6-.6Z"/>
  </g>
  <defs>
    <clipPath id="a">
      <path fill="#fff" d="M0 0h69.1v16H0z" transform="translate(.5)"/>
    </clipPath>
  </defs>
</svg>
